<?xml version="1.0" standalone="no"?>
<!DOCTYPE svg PUBLIC "-//W3C//DTD SVG 1.1//EN" "http://www.w3.org/Graphics/SVG/1.1/DTD/svg11.dtd" >
<svg xmlns="http://www.w3.org/2000/svg">
<metadata></metadata>
<defs>
<font id="campton-bookuploaded_file" horiz-adv-x="1259" >
<font-face units-per-em="2048" ascent="1550" descent="-498" />
<missing-glyph horiz-adv-x="546" />
<glyph horiz-adv-x="0" />
<glyph unicode="&#xd;" horiz-adv-x="681" />
<glyph unicode=" "  horiz-adv-x="546" />
<glyph unicode="&#x09;" horiz-adv-x="546" />
<glyph unicode="&#xa0;" horiz-adv-x="546" />
<glyph unicode="!" horiz-adv-x="555" d="M156 100q0 49 35 83t85 34q53 0 88 -34t35 -83q0 -51 -35 -85q-34 -33 -88 -33q-50 0 -85 34t-35 84zM178 1393h199l-17 -990h-167z" />
<glyph unicode="&#x22;" horiz-adv-x="663" d="M98 836v557h160v-557h-160zM406 836v557h161v-557h-161z" />
<glyph unicode="#" horiz-adv-x="1533" d="M76 381v168h264l86 274h-238v168h289l127 404h195l-127 -404h368l127 404h195l-127 -404h221v-168h-272l-86 -274h245v-168h-299l-118 -381h-195l119 381h-369l-119 -381h-194l119 381h-211zM535 549h368l86 274h-368z" />
<glyph unicode="$" horiz-adv-x="1359" d="M113 451h194q23 -147 127 -226q106 -80 279 -80q147 0 232 63t85 167q0 164 -233 207l-236 45q-389 74 -389 381q0 174 122 285q122 112 327 128v238h170v-244q180 -23 301 -127q120 -104 143 -291h-195q-45 258 -348 258q-142 0 -227 -63q-86 -63 -86 -170 q0 -167 256 -213l194 -39q197 -39 300 -128q102 -88 102 -243q0 -173 -119 -287q-119 -115 -321 -137v-233h-170v233q-221 21 -354 145t-154 331z" />
<glyph unicode="%" horiz-adv-x="2222" d="M176 1032q0 172 113 282q112 109 280 109q169 0 281 -109q113 -110 113 -282q0 -171 -113 -282q-112 -111 -281 -111q-168 0 -280 111q-113 111 -113 282zM319 1032q0 -110 73 -183t177 -73t177 73t73 183q0 108 -73 181t-177 73t-177 -73t-73 -181zM563 0l936 1393h137 l-936 -1393h-137zM1260 362q0 173 112 282q113 110 281 110q167 0 280 -110t113 -282q0 -171 -113 -282t-280 -111q-169 0 -281 111t-112 282zM1403 362q0 -109 73 -182q71 -71 177 -71t177 71q73 73 73 182q0 110 -73 183q-71 71 -177 71t-177 -71q-73 -73 -73 -183z" />
<glyph unicode="&#x26;" horiz-adv-x="1486" d="M90 391q0 129 73 229t195 152q-116 135 -116 275q0 167 117 271q119 105 298 105q175 0 284 -103t130 -282h-188q-15 104 -75 161q-59 56 -153 56q-97 0 -157 -59q-62 -60 -62 -154q0 -89 65 -168q63 -76 244 -239q10 -8 21 -19l246 -225l205 303h196l-264 -399l-12 -19 l301 -276h-250l-162 147q-184 -176 -434 -176q-226 0 -364 117t-138 303zM274 393q0 -106 91 -180t229 -74q171 0 307 121l-299 272q-84 76 -127 119q-201 -85 -201 -258z" />
<glyph unicode="'" horiz-adv-x="356" d="M98 836v557h160v-557h-160z" />
<glyph unicode="(" horiz-adv-x="724" d="M125 621q0 531 418 880l121 -123q-176 -170 -261 -344q-86 -177 -86 -413q0 -239 86 -416q84 -173 261 -342l-121 -123q-418 346 -418 881z" />
<glyph unicode=")" horiz-adv-x="724" d="M63 -137q177 169 261 342q86 177 86 416q0 236 -86 413q-85 174 -261 344l121 123q418 -352 418 -880q0 -533 -418 -881z" />
<glyph unicode="*" horiz-adv-x="827" d="M96 956l211 129l-211 127l56 97l206 -125v219h111v-219l209 125l53 -97l-211 -127l211 -129l-53 -92l-209 123v-221h-111v221l-206 -123z" />
<glyph unicode="+" horiz-adv-x="1411" d="M227 582v174h389v379h181v-379h389v-174h-389v-379h-181v379h-389z" />
<glyph unicode="," horiz-adv-x="417" d="M76 -260l100 248q-76 27 -76 100q0 46 35 81q34 34 86 34t86 -34q35 -35 35 -81q0 -38 -39 -115l-110 -233h-117z" />
<glyph unicode="-" horiz-adv-x="1142" d="M227 453h688v188h-688v-188z" />
<glyph unicode="." horiz-adv-x="395" d="M76 88q0 48 36 83q35 34 85 34q52 0 87 -34t35 -83q0 -51 -35 -85t-87 -34q-48 0 -85 35q-36 34 -36 84z" />
<glyph unicode="/" horiz-adv-x="827" d="M96 -328l533 1823h182l-532 -1823h-183z" />
<glyph unicode="0" horiz-adv-x="1470" d="M125 696q0 324 164 526q163 201 446 201q285 0 448 -200t163 -527q0 -326 -163 -526q-163 -201 -448 -201q-282 0 -446 202t-164 525zM322 696q0 -245 108 -398t305 -153t305 153q109 154 109 398q0 245 -109 399q-107 152 -305 152t-305 -152q-108 -153 -108 -399z" />
<glyph unicode="1" horiz-adv-x="1046" d="M92 0v162h383v1018l-360 -119v168l444 164h111v-1231h354v-162h-932z" />
<glyph unicode="2" horiz-adv-x="1146" d="M78 997q7 190 140 309q130 117 345 117q216 0 337 -118q122 -119 122 -297q0 -113 -66 -215q-70 -109 -231 -281l-317 -350h636v-162h-925v102l446 492q81 89 112 124q29 33 76 94q43 56 60 104q14 41 14 94q0 103 -71 174t-199 71q-119 0 -196 -69q-76 -68 -91 -189 h-192z" />
<glyph unicode="3" horiz-adv-x="1150" d="M90 356h189q46 -217 309 -217q129 0 213 67q82 66 82 173q0 108 -83 174q-81 65 -220 65h-111v158h111q116 0 187 66t71 170q0 108 -71 174q-69 65 -189 65q-109 0 -180 -59q-73 -61 -85 -156h-190q16 172 139 277q122 104 313 104q201 0 323 -111t122 -292 q0 -208 -170 -309q215 -96 215 -326q0 -179 -132 -293q-133 -115 -345 -115q-218 0 -346 104t-152 281z" />
<glyph unicode="4" horiz-adv-x="1312" d="M90 295v121l414 977h198l-383 -930h508v432h187v-432h209v-168h-209v-295h-187v295h-737z" />
<glyph unicode="5" horiz-adv-x="1204" d="M78 375h190q60 -238 330 -238q137 0 225 85t88 210q0 120 -87 197q-86 76 -232 76l-402 -3l3 691h835v-174h-657v-347h243q218 0 348 -120q132 -122 132 -314q0 -202 -139 -336q-137 -133 -357 -133q-218 0 -353 109q-134 108 -167 297z" />
<glyph unicode="6" horiz-adv-x="1261" d="M106 455q0 148 119 333l412 605h229l-307 -457q40 4 74 4q229 0 375 -136q147 -136 147 -343q0 -213 -148 -352q-149 -140 -376 -140q-229 0 -377 140t-148 346zM297 446q0 -136 94 -227q95 -92 240 -92t239 93q95 93 95 231q0 134 -95 226q-94 91 -239 91 q-149 0 -240 -82l-6 -8q-88 -116 -88 -232z" />
<glyph unicode="7" horiz-adv-x="1030" d="M29 1210v183h958v-119l-614 -1274h-217l587 1210h-714z" />
<glyph unicode="8" horiz-adv-x="1277" d="M107 387q0 120 65 210q67 92 186 138q-192 95 -192 303q0 169 133 277t340 108t340 -108t133 -277q0 -208 -192 -303q119 -46 186 -138q65 -90 65 -210q0 -187 -145 -302q-146 -116 -387 -116t-387 116q-145 115 -145 302zM319 399q0 -114 90 -192q88 -76 230 -76 q138 0 229 77q90 76 90 191q0 112 -89 184t-230 72t-230 -72q-90 -73 -90 -184zM356 1028q0 -107 79 -173q81 -67 204 -67t204 67q79 66 79 173q0 103 -80 172q-81 70 -203 70t-203 -70q-80 -69 -80 -172z" />
<glyph unicode="9" horiz-adv-x="1261" d="M106 932q0 212 149 352q148 139 376 139q231 0 377 -139q147 -140 147 -346q0 -148 -119 -332l-411 -606h-230l310 459q-44 -4 -76 -4q-228 0 -375 135q-148 136 -148 342zM297 942q0 -135 94 -226t240 -91q145 0 239 82l7 8q88 116 88 231q0 136 -95 228t-239 92 t-240 -94q-94 -93 -94 -230z" />
<glyph unicode=":" horiz-adv-x="395" d="M76 88q0 48 36 83q35 34 85 34q52 0 87 -34t35 -83q0 -51 -35 -85t-87 -34q-48 0 -85 35q-36 34 -36 84zM76 868q0 48 36 83q35 34 85 34q52 0 87 -34t35 -83q0 -51 -35 -85q-34 -33 -87 -33q-50 0 -85 34q-36 34 -36 84z" />
<glyph unicode=";" horiz-adv-x="403" d="M57 -260l101 248q-74 29 -74 100q0 46 35 81q34 34 84 34q52 0 86 -34q35 -35 35 -81q0 -38 -39 -115l-111 -233h-117zM80 868q0 48 36 83q35 34 85 34q52 0 87 -34q36 -35 36 -83q0 -50 -36 -85q-34 -33 -87 -33q-50 0 -85 34q-36 34 -36 84z" />
<glyph unicode="&#x3c;" horiz-adv-x="1124" d="M111 526v191l864 403v-190l-658 -309l658 -310v-188z" />
<glyph unicode="=" horiz-adv-x="1439" d="M227 377v174h987v-174h-987zM227 778v176h987v-176h-987z" />
<glyph unicode="&#x3e;" horiz-adv-x="1124" d="M152 123v188l655 310l-655 309v190l864 -403v-191z" />
<glyph unicode="?" horiz-adv-x="1128" d="M82 1040q21 174 140 275q120 102 306 102q200 0 334 -123q133 -123 133 -311q0 -171 -113 -280q-112 -108 -302 -123l-9 -174h-147l-16 307h112q125 0 208 77t83 193t-77 193q-75 75 -197 75q-102 0 -176 -58t-91 -153h-188zM373 100q0 48 36 83q35 34 85 34q52 0 87 -34 t35 -83q0 -51 -35 -85q-34 -33 -87 -33q-50 0 -85 34q-36 34 -36 84z" />
<glyph unicode="@" horiz-adv-x="2035" d="M145 489q0 362 256 606t625 244q368 0 616 -237t248 -596q0 -196 -83 -318q-81 -120 -253 -120q-194 0 -266 137q-115 -142 -307 -142q-171 0 -290 119q-118 118 -118 295q0 179 118 297q119 119 290 119q156 0 264 -96v71h168v-454q0 -205 141 -205q98 0 147 79 q50 80 50 214q0 299 -210 500q-211 202 -515 202q-306 0 -521 -208q-216 -208 -216 -507q0 -302 215 -508t514 -206q260 0 465 159l78 -116q-230 -178 -541 -178q-365 0 -620 243t-255 606zM745 479q0 -119 78 -191q79 -73 185 -73q156 0 241 139q-4 55 -4 97v159 q-88 133 -237 133q-107 0 -185 -72t-78 -192z" />
<glyph unicode="A" horiz-adv-x="1531" d="M53 0l621 1401h184l621 -1401h-209l-156 358h-696l-156 -358h-209zM496 539h540l-270 626z" />
<glyph unicode="B" horiz-adv-x="1431" d="M176 0v1393h619q211 0 335 -97q123 -96 123 -260q0 -112 -58 -197t-163 -118q142 -27 215 -118q74 -92 74 -222q0 -172 -137 -277q-135 -104 -369 -104h-639zM371 172h436q150 0 236 65q85 64 85 166q0 101 -82 155q-83 54 -233 54h-442v-440zM371 786h389q148 0 227 60 q80 60 80 166q0 97 -77 153t-216 56h-403v-435z" />
<glyph unicode="C" horiz-adv-x="1642" d="M125 696q0 308 211 516q212 209 514 209q257 0 437 -149q181 -150 231 -393h-201q-43 166 -166 260q-122 94 -301 94q-226 0 -377 -153q-151 -152 -151 -384t151 -384t377 -152q179 0 301 94q123 94 166 260h201q-50 -243 -231 -393t-437 -150q-302 0 -514 209 q-211 208 -211 516z" />
<glyph unicode="D" horiz-adv-x="1527" d="M176 0v1393h504q320 0 529 -195q208 -195 208 -493q0 -308 -208 -506q-210 -199 -529 -199h-504zM371 180h309q230 0 384 149q153 149 153 376q0 219 -153 363t-384 144h-309v-1032z" />
<glyph unicode="E" horiz-adv-x="1280" d="M176 0v1393h989v-181h-794v-432h712v-180h-712v-420h794v-180h-989z" />
<glyph unicode="F" horiz-adv-x="1212" d="M176 0v1393h973v-181h-778v-469h690v-180h-690v-563h-195z" />
<glyph unicode="G" horiz-adv-x="1691" d="M125 684q0 317 212 527q211 210 519 210q236 0 422 -132q188 -133 244 -365h-209q-51 155 -177 232q-127 77 -278 77q-229 0 -383 -154q-153 -153 -153 -395q0 -219 148 -371q148 -153 376 -153q190 0 315 111q126 112 160 294h-490v180h699v-49v-696h-156l-14 256 q-159 -285 -514 -285q-307 0 -514 209q-207 208 -207 504z" />
<glyph unicode="H" horiz-adv-x="1511" d="M176 0v1393h195v-617h768v617h196v-1393h-196v596h-768v-596h-195z" />
<glyph unicode="I" horiz-adv-x="546" d="M176 0v1393h195v-1393h-195z" />
<glyph unicode="J" horiz-adv-x="1220" d="M35 420h198q15 -128 102 -198q86 -70 220 -70q138 0 223 97q86 98 86 265v879h199v-883q0 -257 -140 -398q-141 -143 -380 -143q-212 0 -349 121q-138 122 -159 330z" />
<glyph unicode="K" horiz-adv-x="1447" d="M176 0v1393h195v-781l735 781h235l-579 -627l647 -766h-248l-534 621l-256 -277v-344h-195z" />
<glyph unicode="L" horiz-adv-x="1183" d="M176 0v1393h195v-1217h755v-176h-950z" />
<glyph unicode="M" horiz-adv-x="1738" d="M176 0v1393h143l549 -904l549 904h146v-1393h-197v961l-434 -713h-125l-438 719l4 -967h-197z" />
<glyph unicode="N" horiz-adv-x="1558" d="M176 0v1393h154l856 -1049v1049h196v-1393h-159l-852 1032v-1032h-195z" />
<glyph unicode="O" horiz-adv-x="1699" d="M125 696q0 301 212 513t513 212t513 -212t212 -513t-212 -513t-513 -212t-513 212t-212 513zM322 696q0 -226 152 -384t376 -158q222 0 374 158t152 384t-152 384q-153 159 -374 159q-223 0 -376 -159q-152 -158 -152 -384z" />
<glyph unicode="P" horiz-adv-x="1290" d="M176 0v1393h504q243 0 393 -129t150 -342q0 -222 -156 -356q-157 -134 -412 -134h-284v-432h-195zM371 612h303q160 0 258 85t98 225q0 132 -98 211t-258 79h-303v-600z" />
<glyph unicode="Q" horiz-adv-x="1699" d="M125 696q0 301 212 513t513 212t513 -212t212 -513q0 -180 -81 -335t-222 -255l248 -301l-146 -133l-280 342q-113 -43 -244 -43q-301 0 -513 212t-212 513zM322 696q0 -226 152 -384t376 -158q222 0 374 158t152 384t-152 384q-153 159 -374 159q-223 0 -376 -159 q-152 -158 -152 -384z" />
<glyph unicode="R" horiz-adv-x="1390" d="M176 0v1393h545q238 0 386 -124t148 -331q0 -159 -88 -269q-90 -113 -241 -159l401 -510h-240l-380 481h-336v-481h-195zM371 661l344 1q152 0 250 74t98 202q0 126 -98 200t-250 74h-344v-551z" />
<glyph unicode="S" horiz-adv-x="1359" d="M113 451h194q23 -147 127 -226q106 -80 279 -80q147 0 232 63t85 167q0 164 -233 207l-236 45q-389 74 -389 381q0 187 139 301t369 114q218 0 374 -105q157 -106 181 -321h-195q-45 258 -348 258q-142 0 -227 -63q-86 -63 -86 -170q0 -167 256 -213l194 -39 q197 -39 300 -128q102 -88 102 -243q0 -191 -146 -310q-145 -118 -383 -118q-254 0 -411 127t-178 353z" />
<glyph unicode="T" horiz-adv-x="1312" d="M57 1212v181h1198v-181h-501v-1212h-195v1212h-502z" />
<glyph unicode="U" horiz-adv-x="1519" d="M156 604v789h194v-789q0 -198 114 -325t296 -127t296 127q113 126 113 325v789h195v-789q0 -285 -166 -460t-438 -175t-438 175t-166 460z" />
<glyph unicode="V" horiz-adv-x="1552" d="M49 1393h215l512 -1139l514 1139h213l-637 -1401h-180z" />
<glyph unicode="W" horiz-adv-x="2193" d="M76 1393h207l358 -1100l373 1100h168l370 -1100l361 1100h205l-469 -1401h-193l-358 1052l-361 -1052h-190z" />
<glyph unicode="X" horiz-adv-x="1363" d="M41 0l510 690l-496 703h238l389 -547l387 547h240l-498 -703l512 -690h-227l-414 545l-414 -545h-227z" />
<glyph unicode="Y" horiz-adv-x="1386" d="M27 1393h217l448 -721l451 721h217l-567 -910v-483h-199v483z" />
<glyph unicode="Z" horiz-adv-x="1339" d="M109 0v96l825 1118h-799v179h1082v-97l-803 -1118h811v-178h-1116z" />
<glyph unicode="[" horiz-adv-x="714" d="M154 -264v1759h477v-180h-289v-1399h289v-180h-477z" />
<glyph unicode="\" horiz-adv-x="827" d="M57 1495h181l532 -1823h-180z" />
<glyph unicode="]" horiz-adv-x="714" d="M66 -84h288v1399h-288v180h477v-1759h-477v180z" />
<glyph unicode="^" horiz-adv-x="825" d="M55 909l273 484h170l272 -484h-174l-182 342l-185 -342h-174z" />
<glyph unicode="_" horiz-adv-x="1314" d="M76 -233h1163v-166h-1163v166z" />
<glyph unicode="`" horiz-adv-x="1228" d="M408 1446h208l160 -299h-172z" />
<glyph unicode="a" d="M109 477q0 212 142 358t345 146q187 0 319 -109v84h189v-956h-189v84q-132 -109 -319 -109q-202 0 -345 147q-142 146 -142 355zM297 477q0 -137 94 -237q95 -101 232 -101q186 0 292 154v371q-105 153 -292 153q-138 0 -232 -100t-94 -240z" />
<glyph unicode="b" d="M156 0v1454h188v-582q132 109 320 109q203 0 346 -146t143 -356q0 -209 -143 -355q-144 -147 -346 -147q-188 0 -320 109v-86h-188zM344 295q108 -156 293 -156q137 0 232 101q96 102 96 239q0 138 -96 239q-95 99 -232 99q-187 0 -293 -155v-367z" />
<glyph unicode="c" horiz-adv-x="1179" d="M109 477q0 217 143 360q144 144 360 144q178 0 304 -101q128 -102 155 -264h-192q-21 88 -93 141q-71 52 -174 52q-141 0 -228 -95q-87 -94 -87 -237q0 -139 87 -234q88 -96 228 -96q101 0 174 53q72 52 93 138h192q-27 -161 -155 -262t-304 -101q-215 0 -360 145 q-143 143 -143 357z" />
<glyph unicode="d" d="M109 479q0 210 142 356t345 146q190 0 319 -109v582h189v-1454h-189v86q-129 -109 -319 -109q-202 0 -345 147q-142 146 -142 355zM297 479q0 -139 94 -239q95 -101 232 -101q185 0 292 154v371q-105 153 -292 153q-137 0 -232 -99q-94 -98 -94 -239z" />
<glyph unicode="e" horiz-adv-x="1183" d="M106 477q0 219 141 365q141 145 359 145q208 0 338 -139q132 -141 133 -361q0 -26 -4 -59h-4h-778q15 -128 100 -210q86 -83 225 -83q171 0 234 119h203q-41 -129 -162 -207t-281 -78q-221 0 -362 147q-142 148 -142 361zM295 547h592q-12 128 -87 205q-74 75 -194 75 q-130 0 -211 -78q-82 -79 -100 -202z" />
<glyph unicode="f" horiz-adv-x="856" d="M8 799v157h275v211q0 176 100 280q101 105 264 105q110 0 209 -28l-27 -164q-91 18 -147 18q-97 0 -154 -58t-57 -153v-211h381v-157h-381v-799h-188v799h-275z" />
<glyph unicode="g" horiz-adv-x="1265" d="M106 492q0 212 139 354q138 141 343 141q191 0 327 -113v82h189v-970q0 -217 -134 -346q-133 -129 -349 -129q-194 0 -326 104q-134 105 -156 272h191q16 -93 94 -150q77 -56 197 -56q134 0 214 81t80 224v137q-136 -113 -327 -113q-200 0 -341 143t-141 339zM295 492 q0 -125 92 -222q92 -96 227 -96q193 0 301 158v334q-108 157 -301 157q-139 0 -229 -95q-90 -94 -90 -236z" />
<glyph unicode="h" horiz-adv-x="1206" d="M156 0v1454h188v-594q136 127 324 127q186 0 300 -122q113 -120 113 -324v-541h-186v530q0 134 -71 211q-70 76 -193 76q-162 0 -287 -160v-657h-188z" />
<glyph unicode="i" horiz-adv-x="544" d="M150 1313q0 51 34 85t88 34q52 0 87 -34q36 -34 36 -85t-36 -85q-35 -34 -87 -34q-54 0 -88 34t-34 85zM180 0v956h187v-956h-187z" />
<glyph unicode="j" horiz-adv-x="530" d="M-47 -215q118 6 165 56q46 49 46 173v942h188v-919q0 -217 -85 -315q-86 -100 -300 -101zM135 1313q0 51 36 85q35 34 87 34t86 -34q35 -35 35 -85t-35 -85q-34 -34 -86 -34t-87 34q-36 34 -36 85z" />
<glyph unicode="k" horiz-adv-x="1165" d="M164 0v1454h188v-967l479 469h240l-399 -399l465 -557h-244l-354 426l-187 -186v-240h-188z" />
<glyph unicode="l" horiz-adv-x="499" d="M156 0v1454h188v-1454h-188z" />
<glyph unicode="m" horiz-adv-x="1857" d="M156 0v956h188v-86q112 117 287 117q208 0 321 -160q154 160 371 160q176 0 290 -123q113 -122 113 -323v-541h-186v530q0 137 -66 212t-188 75q-160 0 -262 -158q12 -56 12 -118v-541h-188v530q0 136 -67 212q-66 75 -187 75q-145 0 -250 -153v-664h-188z" />
<glyph unicode="n" horiz-adv-x="1206" d="M156 0v956h188v-96q136 127 324 127q186 0 300 -122q113 -120 113 -324v-541h-186v530q0 134 -71 211q-70 76 -193 76q-162 0 -287 -160v-657h-188z" />
<glyph unicode="o" horiz-adv-x="1232" d="M109 477q0 217 145 361q144 143 364 143q215 0 362 -144q146 -143 146 -360t-146 -362q-148 -146 -362 -146q-215 0 -363 146q-146 145 -146 362zM297 477q0 -141 91 -238q92 -98 230 -98t228 98q90 97 90 238q0 140 -90 236t-228 96t-230 -96q-91 -95 -91 -236z" />
<glyph unicode="p" d="M156 -498v1454h188v-86q131 111 320 111q203 0 346 -146t143 -358q0 -209 -143 -355q-144 -147 -346 -147q-190 0 -320 111v-584h-188zM344 295q107 -156 293 -156q137 0 232 101q96 102 96 237q0 139 -95 240q-94 100 -233 100q-187 0 -293 -155v-367z" />
<glyph unicode="q" d="M109 477q0 212 142 358t345 146q187 0 319 -109v84h189v-1454h-189v582q-132 -109 -319 -109q-202 0 -345 147q-142 146 -142 355zM297 477q0 -137 94 -237q95 -101 232 -101q186 0 292 154v371q-105 153 -292 153q-138 0 -232 -100t-94 -240z" />
<glyph unicode="r" horiz-adv-x="761" d="M156 0v956h188v-141q141 164 361 164v-178q-231 -6 -361 -189v-612h-188z" />
<glyph unicode="s" horiz-adv-x="1062" d="M90 311l176 -2q38 -186 275 -186q101 0 165 38q62 37 62 101q0 102 -141 125l-213 37q-285 46 -285 266q0 135 109 215t284 80q159 0 283 -74q122 -73 137 -237l-174 -2q-10 82 -76 124t-168 42q-98 0 -153 -37q-56 -38 -56 -94q0 -101 162 -129l185 -31 q286 -49 286 -271q0 -142 -114 -225q-113 -82 -299 -82q-187 0 -307 84t-138 258z" />
<glyph unicode="t" horiz-adv-x="897" d="M8 799v157h236v353h188v-353h359v-157h-359v-443q0 -213 199 -213q73 0 160 25l28 -162q-121 -37 -223 -37q-168 0 -260 101t-92 286v443h-236z" />
<glyph unicode="u" horiz-adv-x="1206" d="M125 418v538h188v-528q0 -136 71 -212q70 -75 191 -75q165 0 287 158v657h189v-956h-189v94q-137 -125 -323 -125t-300 122q-114 121 -114 327z" />
<glyph unicode="v" horiz-adv-x="1177" d="M57 956h199l334 -716l332 716h200l-448 -956h-168z" />
<glyph unicode="w" horiz-adv-x="1609" d="M57 956h203l238 -659l225 659h162l225 -659l240 659h202l-358 -956h-168l-221 653l-221 -653h-168z" />
<glyph unicode="x" horiz-adv-x="1114" d="M53 0l377 481l-373 477h230l270 -340l268 340h232l-375 -477l379 -481h-225l-279 350l-278 -350h-226z" />
<glyph unicode="y" horiz-adv-x="1243" d="M47 958h203l377 -780l348 780h199l-648 -1454h-198l202 455z" />
<glyph unicode="z" horiz-adv-x="1013" d="M86 0v92l571 707h-553v157h824v-104l-563 -694h563v-158h-842z" />
<glyph unicode="{" horiz-adv-x="727" d="M72 541v166q110 0 150 36q42 37 42 144v272q0 163 105 265t274 102v-183q-85 0 -138 -51q-52 -51 -52 -133v-276q0 -114 -32 -173q-31 -58 -120 -87q89 -29 120 -87q32 -59 32 -171v-277q0 -85 52 -134q53 -50 138 -50v-183q-168 0 -274 101q-105 100 -105 266v270 q0 108 -42 146q-41 37 -150 37z" />
<glyph unicode="|" horiz-adv-x="645" d="M233 -328v1823h179v-1823h-179z" />
<glyph unicode="}" horiz-adv-x="745" d="M102 -96q88 0 141 50q52 49 52 134v277q0 111 31 171q30 59 118 87q-88 28 -118 87q-31 60 -31 173v276q0 82 -53 133q-52 51 -140 51v183q171 0 276 -102t105 -265v-272q0 -107 42 -144q40 -36 149 -36v-166q-108 0 -149 -37q-42 -38 -42 -146v-270q0 -166 -105 -266 q-106 -101 -276 -101v183z" />
<glyph unicode="~" horiz-adv-x="923" d="M76 604q0 89 37 150t90 85q50 23 112 20q59 -3 109 -32l123 -79q57 -33 96 -11q39 23 39 82h166q0 -89 -36 -151q-36 -61 -90 -85t-114 -21q-57 3 -108 32l-123 80q-55 32 -95 10t-40 -80h-166z" />
<glyph unicode="&#xa1;" horiz-adv-x="555" d="M156 864q0 50 35 84q37 35 85 35q53 0 88 -34t35 -85q0 -49 -35 -83q-34 -33 -88 -33q-51 0 -85 33q-35 34 -35 83zM178 -428l15 989h167l17 -989h-199z" />
<glyph unicode="&#xa2;" horiz-adv-x="1179" d="M109 477q0 194 116 331q118 139 301 167v252h172v-252q146 -24 249 -121q101 -95 124 -238h-192q-21 88 -93 141q-71 52 -174 52q-141 0 -228 -95q-87 -94 -87 -237q0 -139 87 -234q88 -96 228 -96q101 0 174 53q72 52 93 138h192q-23 -141 -124 -236q-102 -96 -249 -120 v-226h-172v226q-184 28 -301 166q-116 137 -116 329z" />
<glyph unicode="&#xa3;" horiz-adv-x="1275" d="M80 0v164h141v409h-141v164h141v207q0 215 135 347t357 132q203 0 333 -111q129 -110 152 -300h-190q-18 111 -98 178q-78 65 -197 65q-138 0 -220 -85q-83 -86 -83 -226v-207h454v-164h-454v-409h770v-164h-1100z" />
<glyph unicode="&#xa5;" horiz-adv-x="1386" d="M27 1393h217l448 -721l451 721h217l-514 -826h317v-139h-370v-121h370v-141h-370v-166h-199v166h-371v141h371v121h-371v139h318z" />
<glyph unicode="&#xa6;" horiz-adv-x="645" d="M233 -328v807h179v-807h-179zM233 688v807h179v-807h-179z" />
<glyph unicode="&#xa7;" horiz-adv-x="1112" d="M76 625q0 178 172 256q-80 86 -80 206q0 152 110 239t279 87q182 0 295 -98q115 -100 137 -262h-205q-10 88 -68 140t-157 52q-85 0 -141 -44t-56 -120q0 -59 39 -101q38 -41 129 -85l224 -104q154 -74 218 -150t64 -178q0 -177 -170 -254q78 -88 78 -209 q0 -152 -109 -239t-280 -87q-180 0 -295 98t-137 263h205q11 -89 68 -139q60 -52 157 -52q89 0 142 43q55 44 55 119q0 62 -39 104q-40 43 -129 83l-224 104q-154 69 -218 147q-64 77 -64 181zM266 627q0 -53 41 -96q40 -41 135 -85l234 -108l39 -21q56 10 94 50 q37 38 37 94q0 52 -41 95q-40 41 -135 85l-234 109l-39 20q-56 -10 -94 -48q-37 -37 -37 -95z" />
<glyph unicode="&#xa8;" horiz-adv-x="1228" d="M289 1264q0 52 36 86q35 34 89 34t89 -34q36 -34 36 -86t-36 -86q-37 -35 -89 -35t-89 35q-36 34 -36 86zM692 1264q0 52 36 86q35 34 89 34t89 -34q36 -34 36 -86t-36 -86q-37 -35 -89 -35t-89 35q-36 34 -36 86z" />
<glyph unicode="&#xa9;" horiz-adv-x="1740" d="M125 696q0 309 219 518q220 209 526 209q307 0 527 -209q219 -209 219 -518q0 -310 -219 -518q-220 -209 -527 -209q-306 0 -526 209q-219 209 -219 518zM258 696q0 -252 180 -426t430 -174t431 174q182 174 182 426t-182 426t-431 174q-250 0 -430 -174t-180 -426z M504 694q0 153 106 258t262 105q132 0 228 -75q97 -76 121 -196h-150q-18 60 -74 98t-127 38q-93 0 -158 -67t-65 -161q0 -96 65 -163q64 -66 158 -66q71 0 127 38t74 99h150q-23 -119 -121 -195q-96 -75 -228 -75q-157 0 -262 104q-106 105 -106 258z" />
<glyph unicode="&#xaa;" horiz-adv-x="722" d="M51 938q0 86 65 133t181 47h219q0 170 -151 170q-60 0 -100 -26q-42 -27 -50 -74h-131q7 104 90 160q82 55 191 55q130 0 206 -76t76 -209v-370h-131v40q-95 -55 -201 -55q-120 0 -192 54t-72 151zM178 944q0 -43 38 -72q37 -28 108 -28q105 0 192 65v111h-227 q-52 0 -82 -22q-29 -21 -29 -54z" />
<glyph unicode="&#xab;" horiz-adv-x="901" d="M78 516l209 307h184l-211 -307l211 -307h-184zM430 516l209 307h184l-209 -307l209 -307h-184z" />
<glyph unicode="&#xad;" horiz-adv-x="1142" d="M227 453h688v188h-688v-188z" />
<glyph unicode="&#xae;" horiz-adv-x="1146" d="M76 934q0 205 146 345t351 140q206 0 352 -140t146 -345t-146 -344t-352 -139q-205 0 -351 139t-146 344zM184 934q0 -159 115 -271t272 -112t274 112q116 111 116 271q0 161 -116 274t-274 113q-157 0 -272 -113t-115 -274zM410 721v448h188q74 0 123 -43t49 -110 q0 -105 -106 -139l120 -156h-102l-113 145h-80v-145h-79zM489 940h107q41 0 66 22q24 21 24 56q0 33 -24 54q-25 22 -66 22h-107v-154z" />
<glyph unicode="&#xaf;" horiz-adv-x="1228" d="M328 1188v153h571v-153h-571z" />
<glyph unicode="&#xb0;" horiz-adv-x="980" d="M141 1083q0 145 100 243q98 97 248 97q151 0 249 -97q100 -98 100 -243q0 -144 -100 -242t-249 -98q-148 0 -248 98t-100 242zM291 1083q0 -82 58 -139t140 -57q85 0 143 57t58 139q0 83 -58 141t-143 58q-82 0 -140 -58t-58 -141z" />
<glyph unicode="&#xb1;" horiz-adv-x="1411" d="M227 82v176h957v-176h-957zM227 662v174h389v305h181v-305h387v-174h-387v-304h-181v304h-389z" />
<glyph unicode="&#xb2;" horiz-adv-x="743" d="M86 1169q5 121 79 189q75 69 206 69q134 0 208 -68t74 -169q0 -62 -35 -126q-34 -62 -120 -151l-176 -184h346v-121h-576v76l285 295q73 73 104 117q29 41 29 86q0 54 -37 85t-98 31q-67 0 -104 -34t-42 -95h-143z" />
<glyph unicode="&#xb3;" horiz-adv-x="768" d="M80 831h143q29 -108 166 -108q68 0 112 33t44 82q0 116 -166 116h-68v117h68q61 0 99 33t38 84q0 52 -36 83q-37 32 -101 32q-57 0 -93 -30q-35 -30 -40 -77h-144q10 108 84 171q73 63 193 63q124 0 200 -67q74 -65 74 -173q0 -112 -88 -172q117 -56 117 -180 q0 -104 -82 -173t-213 -69q-129 0 -210 63q-80 62 -97 172z" />
<glyph unicode="&#xb4;" horiz-adv-x="1228" d="M504 1147l160 299h208l-196 -299h-172z" />
<glyph unicode="&#xb6;" horiz-adv-x="1540" d="M63 932q0 205 146 333t364 128h811v-1721h-194v1553h-242v-1553h-194v783h-181q-219 0 -364 133q-146 134 -146 344zM254 932q0 -133 90 -217t229 -84h181v594h-181q-140 0 -229 -82q-90 -83 -90 -211z" />
<glyph unicode="&#xb7;" horiz-adv-x="395" d="M76 545q0 49 36 83q35 34 85 34q52 0 87 -34t35 -83t-35 -83t-87 -34q-50 0 -85 34q-36 34 -36 83z" />
<glyph unicode="&#xb8;" horiz-adv-x="1228" d="M446 -436l93 307h186l-115 -307h-164z" />
<glyph unicode="&#xb9;" horiz-adv-x="657" d="M61 614v121h226v522l-215 -61v125l274 86h78v-672h213v-121h-576z" />
<glyph unicode="&#xba;" horiz-adv-x="794" d="M59 1071q0 144 98 240t240 96q143 0 241 -96q97 -96 97 -240q0 -147 -96 -245q-96 -97 -242 -97q-145 0 -241 97q-97 99 -97 245zM193 1071q0 -94 57 -157q56 -62 147 -62q89 0 146 63t57 156q0 88 -57 151q-56 62 -146 62t-147 -61t-57 -152z" />
<glyph unicode="&#xbb;" horiz-adv-x="901" d="M78 209l209 307l-209 307h182l211 -307l-211 -307h-182zM430 209l209 307l-209 307h184l209 -307l-209 -307h-184z" />
<glyph unicode="&#xbc;" horiz-adv-x="1832" d="M61 594v121h226v522l-215 -61v124l274 86h78v-671h213v-121h-576zM383 0l938 1393h137l-936 -1393h-139zM1061 162v90l244 549h149l-219 -514h264v235h141v-235h117v-125h-117v-162h-141v162h-438z" />
<glyph unicode="&#xbd;" horiz-adv-x="1818" d="M61 594v121h226v522l-215 -61v124l274 86h78v-671h213v-121h-576zM391 0l938 1393h137l-938 -1393h-137zM1161 561q5 121 79 189q75 69 206 69q134 0 208 -68q75 -69 75 -169q0 -62 -35 -126q-33 -59 -121 -151l-176 -184h346v-121h-576v76l285 295q76 76 104 116 q29 41 29 86q0 54 -37 85q-38 32 -98 32q-65 0 -103 -35t-42 -94h-144z" />
<glyph unicode="&#xbe;" horiz-adv-x="1806" d="M82 819h143q29 -108 166 -108q70 0 112 32q44 33 44 82q0 117 -166 117h-68v117h68q61 0 99 33t38 84q0 50 -36 82q-37 32 -101 32q-58 0 -93 -29q-35 -30 -40 -77h-144q10 108 84 171q72 62 193 62q125 0 200 -66q74 -65 74 -173q0 -112 -88 -172q117 -56 117 -181 q0 -104 -82 -173q-81 -68 -213 -68q-129 0 -210 63q-80 62 -97 172zM358 0l938 1393h138l-938 -1393h-138zM1034 162v90l244 549h149l-219 -514h265v235h141v-235h117v-125h-117v-162h-141v162h-439z" />
<glyph unicode="&#xbf;" horiz-adv-x="1128" d="M133 125q0 169 113 279q112 109 303 124l6 174h150l14 -307h-111q-127 0 -209 -76t-82 -194q0 -116 77 -193q75 -75 198 -75q101 0 175 58t89 153h191q-21 -173 -141 -275t-306 -102q-202 0 -335 122q-132 121 -132 312zM512 1008q0 50 36 84q35 34 85 34q53 0 86 -33 q35 -35 35 -85q0 -48 -35 -83q-34 -34 -86 -34q-50 0 -85 34q-36 35 -36 83z" />
<glyph unicode="&#xc0;" horiz-adv-x="1531" d="M53 0l621 1401h184l621 -1401h-209l-156 358h-696l-156 -358h-209zM496 539h540l-270 626zM506 1849h209l159 -299h-172z" />
<glyph unicode="&#xc1;" horiz-adv-x="1531" d="M53 0l621 1401h184l621 -1401h-209l-156 358h-696l-156 -358h-209zM496 539h540l-270 626zM672 1550l159 299h209l-196 -299h-172z" />
<glyph unicode="&#xc2;" horiz-adv-x="1531" d="M53 0l621 1401h184l621 -1401h-209l-156 358h-696l-156 -358h-209zM426 1552l248 306h184l248 -306h-178l-160 185l-162 -185h-180zM496 539h540l-270 626z" />
<glyph unicode="&#xc3;" horiz-adv-x="1531" d="M53 0l621 1401h184l621 -1401h-209l-156 358h-696l-156 -358h-209zM418 1612q0 80 33 135q33 56 81 76q47 20 105 17q54 -3 100 -32l90 -57q58 -35 92 -14q33 20 33 71h152q0 -79 -32 -135t-80 -77q-49 -21 -103 -17q-57 5 -103 33l-92 57q-53 33 -88 13t-35 -70h-153z M496 539h540l-270 626z" />
<glyph unicode="&#xc4;" horiz-adv-x="1531" d="M53 0l621 1401h184l621 -1401h-209l-156 358h-696l-156 -358h-209zM440 1681q0 51 36 86q37 35 89 35t89 -35q36 -34 36 -86q0 -51 -36 -86q-35 -34 -89 -34t-89 34q-36 35 -36 86zM496 539h540l-270 626zM844 1681q0 51 36 86q37 35 89 35t89 -35q36 -34 36 -86 q0 -51 -36 -86q-35 -34 -89 -34t-89 34q-36 35 -36 86z" />
<glyph unicode="&#xc5;" horiz-adv-x="1531" d="M53 0l621 1401h184l621 -1401h-209l-156 358h-696l-156 -358h-209zM496 539h540l-270 626zM549 1778q0 90 60 147t157 57t157 -57t60 -147t-60 -149q-59 -58 -157 -58q-95 0 -156 58t-61 149zM659 1778q0 -45 31 -76t76 -31t76 31q30 30 30 76q0 44 -30 74t-76 30 t-76 -30q-31 -31 -31 -74z" />
<glyph unicode="&#xc6;" horiz-adv-x="2265" d="M59 0l1084 1393h1009v-181h-794v-432h713v-180h-713v-420h794v-180h-989v358h-588l-276 -358h-240zM713 539h450v583z" />
<glyph unicode="&#xc7;" horiz-adv-x="1642" d="M125 696q0 308 211 516q212 209 514 209q257 0 437 -149q181 -150 231 -393h-201q-43 166 -166 260q-122 94 -301 94q-226 0 -377 -153q-151 -152 -151 -384t151 -384t377 -152q179 0 301 94q123 94 166 260h201q-50 -243 -231 -393t-437 -150q-302 0 -514 209 q-211 208 -211 516zM653 -436l92 307h187l-115 -307h-164z" />
<glyph unicode="&#xc8;" horiz-adv-x="1280" d="M176 0v1393h989v-181h-794v-432h712v-180h-712v-420h794v-180h-989zM406 1849h208l160 -299h-172z" />
<glyph unicode="&#xc9;" horiz-adv-x="1280" d="M176 0v1393h989v-181h-794v-432h712v-180h-712v-420h794v-180h-989zM571 1550l160 299h209l-197 -299h-172z" />
<glyph unicode="&#xca;" horiz-adv-x="1280" d="M176 0v1393h989v-181h-794v-432h712v-180h-712v-420h794v-180h-989zM324 1552l247 306h185l248 -306h-179l-159 185l-162 -185h-180z" />
<glyph unicode="&#xcb;" horiz-adv-x="1280" d="M176 0v1393h989v-181h-794v-432h712v-180h-712v-420h794v-180h-989zM338 1681q0 51 36 86q37 35 89 35t89 -35q36 -34 36 -86q0 -51 -36 -86q-35 -34 -89 -34t-89 34q-36 35 -36 86zM741 1681q0 51 36 86q37 35 89 35t89 -35q36 -34 36 -86q0 -51 -36 -86 q-35 -34 -89 -34t-89 34q-36 35 -36 86z" />
<glyph unicode="&#xcc;" horiz-adv-x="546" d="M14 1849h209l160 -299h-172zM176 0v1393h195v-1393h-195z" />
<glyph unicode="&#xcd;" horiz-adv-x="546" d="M176 0v1393h195v-1393h-195zM178 1550l160 299h209l-197 -299h-172z" />
<glyph unicode="&#xce;" horiz-adv-x="546" d="M-68 1552l248 306h185l247 -306h-178l-160 185l-161 -185h-181zM176 0v1393h195v-1393h-195z" />
<glyph unicode="&#xcf;" horiz-adv-x="546" d="M-53 1681q0 51 36 86q37 35 89 35t89 -35q36 -35 36 -86t-36 -86q-35 -34 -89 -34t-89 34q-36 35 -36 86zM176 0v1393h195v-1393h-195zM350 1681q0 51 36 86q37 35 89 35t89 -35q36 -34 36 -86q0 -51 -36 -86q-35 -34 -89 -34t-89 34q-36 35 -36 86z" />
<glyph unicode="&#xd0;" horiz-adv-x="1527" d="M39 596v180h137v617h504q320 0 529 -195q208 -195 208 -493q0 -308 -208 -506q-210 -199 -529 -199h-504v596h-137zM371 180h309q230 0 384 149q153 149 153 376q0 219 -153 363t-384 144h-309v-436h321v-180h-321v-416z" />
<glyph unicode="&#xd1;" horiz-adv-x="1558" d="M176 0v1393h154l856 -1049v1049h196v-1393h-159l-852 1032v-1032h-195zM430 1612q0 80 33 135t82 76q47 20 104 17q55 -3 101 -32l90 -57q57 -35 91 -14t34 71h151q0 -79 -32 -135t-79 -77q-49 -21 -104 -17q-55 5 -102 33l-92 57q-53 33 -89 13q-34 -19 -34 -70h-154z " />
<glyph unicode="&#xd2;" horiz-adv-x="1699" d="M125 696q0 301 212 513t513 212t513 -212t212 -513t-212 -513t-513 -212t-513 212t-212 513zM322 696q0 -226 152 -384t376 -158q222 0 374 158t152 384t-152 384q-153 159 -374 159q-223 0 -376 -159q-152 -158 -152 -384zM590 1849h209l159 -299h-172z" />
<glyph unicode="&#xd3;" horiz-adv-x="1699" d="M125 696q0 301 212 513t513 212t513 -212t212 -513t-212 -513t-513 -212t-513 212t-212 513zM322 696q0 -226 152 -384t376 -158q222 0 374 158t152 384t-152 384q-153 159 -374 159q-223 0 -376 -159q-152 -158 -152 -384zM756 1550l159 299h209l-196 -299h-172z" />
<glyph unicode="&#xd4;" horiz-adv-x="1699" d="M125 696q0 301 212 513t513 212t513 -212t212 -513t-212 -513t-513 -212t-513 212t-212 513zM322 696q0 -226 152 -384t376 -158q222 0 374 158t152 384t-152 384q-153 159 -374 159q-223 0 -376 -159q-152 -158 -152 -384zM508 1552l248 306h184l248 -306h-178l-160 185 l-162 -185h-180z" />
<glyph unicode="&#xd5;" horiz-adv-x="1699" d="M125 696q0 301 212 513t513 212t513 -212t212 -513t-212 -513t-513 -212t-513 212t-212 513zM322 696q0 -226 152 -384t376 -158q222 0 374 158t152 384t-152 384q-153 159 -374 159q-223 0 -376 -159q-152 -158 -152 -384zM500 1612q0 81 32 135q33 55 82 76 q47 20 105 17q54 -3 100 -32l90 -57q57 -35 91 -14t34 71h152q0 -79 -32 -135t-80 -77q-49 -21 -103 -17q-57 5 -103 33l-92 57q-53 33 -88 13t-35 -70h-153z" />
<glyph unicode="&#xd6;" horiz-adv-x="1699" d="M125 696q0 301 212 513t513 212t513 -212t212 -513t-212 -513t-513 -212t-513 212t-212 513zM322 696q0 -226 152 -384t376 -158q222 0 374 158t152 384t-152 384q-153 159 -374 159q-223 0 -376 -159q-152 -158 -152 -384zM522 1681q0 51 36 86q37 35 89 35t89 -35 q36 -34 36 -86q0 -51 -36 -86q-35 -34 -89 -34t-89 34q-36 35 -36 86zM926 1681q0 51 36 86q37 35 89 35t89 -35q36 -34 36 -86q0 -51 -36 -86q-35 -34 -89 -34t-89 34q-36 35 -36 86z" />
<glyph unicode="&#xd7;" horiz-adv-x="1372" d="M252 344l311 311l-311 312l123 123l311 -310l311 310l123 -123l-309 -312l309 -311l-123 -123l-311 311l-311 -311z" />
<glyph unicode="&#xd8;" horiz-adv-x="1699" d="M125 696q0 301 212 513t513 212q219 0 401 -121l103 121l119 -98l-103 -121q205 -211 205 -506q0 -301 -212 -513t-513 -212q-226 0 -406 123l-114 -135l-119 100l115 136q-201 211 -201 501zM322 696q0 -202 127 -354l681 815q-127 82 -280 82q-223 0 -376 -159 q-152 -158 -152 -384zM563 238q129 -84 287 -84q222 0 374 158t152 384q0 203 -129 359z" />
<glyph unicode="&#xd9;" horiz-adv-x="1519" d="M156 604v789h194v-789q0 -198 114 -325t296 -127t296 127q113 126 113 325v789h195v-789q0 -285 -166 -460t-438 -175t-438 175t-166 460zM502 1849h209l159 -299h-172z" />
<glyph unicode="&#xda;" horiz-adv-x="1519" d="M156 604v789h194v-789q0 -198 114 -325t296 -127t296 127q113 126 113 325v789h195v-789q0 -285 -166 -460t-438 -175t-438 175t-166 460zM666 1550l159 299h209l-196 -299h-172z" />
<glyph unicode="&#xdb;" horiz-adv-x="1519" d="M156 604v789h194v-789q0 -198 114 -325t296 -127t296 127q113 126 113 325v789h195v-789q0 -285 -166 -460t-438 -175t-438 175t-166 460zM420 1552l248 306h184l248 -306h-178l-160 185l-162 -185h-180z" />
<glyph unicode="&#xdc;" horiz-adv-x="1519" d="M156 604v789h194v-789q0 -198 114 -325t296 -127t296 127q113 126 113 325v789h195v-789q0 -285 -166 -460t-438 -175t-438 175t-166 460zM434 1681q0 51 36 86q37 35 89 35t89 -35q36 -34 36 -86q0 -51 -36 -86q-35 -34 -89 -34t-89 34q-36 35 -36 86zM838 1681 q0 52 35 86q37 35 90 35q52 0 89 -35q35 -34 35 -86t-35 -86t-89 -34q-55 0 -90 34t-35 86z" />
<glyph unicode="&#xdd;" horiz-adv-x="1386" d="M27 1393h217l448 -721l451 721h217l-567 -910v-483h-199v483zM598 1550l160 299h209l-197 -299h-172z" />
<glyph unicode="&#xde;" horiz-adv-x="1290" d="M176 0v1393h195v-211h309q243 0 393 -129t150 -342q0 -222 -156 -356q-157 -134 -412 -134h-284v-221h-195zM371 401h303q160 0 258 85t98 225q0 132 -98 211t-258 79h-303v-600z" />
<glyph unicode="&#xdf;" horiz-adv-x="1290" d="M150 0v893q0 249 132 390q131 140 359 140q203 0 322 -108q118 -108 118 -281q0 -205 -184 -295q143 -30 222 -118t79 -230q0 -185 -133 -293t-371 -108q-67 0 -137 8v160q69 -6 127 -6q164 0 247 66t83 177t-79 169q-80 59 -208 59h-111v139q146 21 213 96q70 78 70 170 q0 98 -65 163q-68 68 -189 69q-140 1 -225 -94q-84 -94 -84 -273v-893h-186z" />
<glyph unicode="&#xe0;" d="M109 477q0 212 142 358t345 146q187 0 319 -109v84h189v-956h-189v84q-132 -109 -319 -109q-202 0 -345 147q-142 146 -142 355zM297 477q0 -137 94 -237q95 -101 232 -101q186 0 292 154v371q-105 153 -292 153q-138 0 -232 -100t-94 -240zM387 1432h209l160 -299h-172z " />
<glyph unicode="&#xe1;" d="M109 477q0 212 142 358t345 146q187 0 319 -109v84h189v-956h-189v84q-132 -109 -319 -109q-202 0 -345 147q-142 146 -142 355zM297 477q0 -137 94 -237q95 -101 232 -101q186 0 292 154v371q-105 153 -292 153q-138 0 -232 -100t-94 -240zM553 1130l160 300h209 l-197 -300h-172z" />
<glyph unicode="&#xe2;" d="M109 477q0 212 142 358t345 146q187 0 319 -109v84h189v-956h-189v84q-132 -109 -319 -109q-202 0 -345 147q-142 146 -142 355zM297 477q0 -137 94 -237q95 -101 232 -101q186 0 292 154v371q-105 153 -292 153q-138 0 -232 -100t-94 -240zM305 1114l248 305h184 l248 -305h-178l-160 184l-162 -184h-180z" />
<glyph unicode="&#xe3;" d="M109 477q0 212 142 358t345 146q187 0 319 -109v84h189v-956h-189v84q-132 -109 -319 -109q-202 0 -345 147q-142 146 -142 355zM297 477q0 -137 94 -237q95 -101 232 -101q186 0 292 154v371q-105 153 -292 153q-138 0 -232 -100t-94 -240zM315 1194q0 80 33 135t82 76 q47 20 105 17q56 -3 100 -31l90 -58q57 -35 91 -14t34 72h151q0 -81 -31 -136t-80 -76q-51 -22 -104 -18q-56 5 -102 33l-92 57q-53 34 -88 14t-35 -71h-154z" />
<glyph unicode="&#xe4;" d="M109 477q0 212 142 358t345 146q187 0 319 -109v84h189v-956h-189v84q-132 -109 -319 -109q-202 0 -345 147q-142 146 -142 355zM297 477q0 -137 94 -237q95 -101 232 -101q186 0 292 154v371q-105 153 -292 153q-138 0 -232 -100t-94 -240zM322 1278q0 52 35 86 q37 35 89 35q53 0 90 -35q35 -34 35 -86t-35 -86q-37 -35 -90 -35q-52 0 -89 35q-35 34 -35 86zM725 1278q0 52 36 86q37 35 89 35t89 -35q36 -34 36 -86t-36 -86q-37 -35 -89 -35t-89 35q-36 34 -36 86z" />
<glyph unicode="&#xe5;" d="M109 477q0 212 142 358t345 146q187 0 319 -109v84h189v-956h-189v84q-132 -109 -319 -109q-202 0 -345 147q-142 146 -142 355zM297 477q0 -137 94 -237q95 -101 232 -101q186 0 292 154v371q-105 153 -292 153q-138 0 -232 -100t-94 -240zM430 1319q0 90 60 147 q61 58 157 58t157 -58q60 -57 60 -147q0 -91 -60 -149q-59 -58 -157 -58q-94 0 -155 58q-62 59 -62 149zM541 1319q0 -46 30 -76q31 -31 76 -31t76 31t31 76q0 44 -31 75q-29 29 -76 29t-76 -29q-30 -30 -30 -75z" />
<glyph unicode="&#xe6;" horiz-adv-x="1873" d="M90 283q0 126 94 195q95 69 265 69h352q0 272 -246 272q-92 0 -154 -41q-61 -40 -73 -112h-191q15 153 133 234t285 81q244 0 356 -166q145 172 385 172q205 0 337 -139q132 -140 134 -361q0 -26 -4 -59l-6 2v-2h-772v-22q21 -118 104 -195q82 -76 216 -76q172 0 235 119 h203q-41 -129 -162 -207t-281 -78q-235 0 -380 166q-179 -158 -431 -158q-183 0 -290 82q-109 83 -109 224zM272 291q0 -68 59 -112t167 -44q182 0 340 135q-26 59 -37 136h-363q-78 0 -123 -31q-43 -30 -43 -84zM985 547h592q-12 128 -87 205q-74 75 -194 75 q-127 0 -209 -76q-81 -75 -102 -198v-6z" />
<glyph unicode="&#xe7;" horiz-adv-x="1179" d="M109 477q0 217 143 360q144 144 360 144q178 0 304 -101q128 -102 155 -264h-192q-21 88 -93 141q-71 52 -174 52q-141 0 -228 -95q-87 -94 -87 -237q0 -139 87 -234q88 -96 228 -96q101 0 174 53q72 52 93 138h192q-27 -161 -155 -262t-304 -101q-215 0 -360 145 q-143 143 -143 357zM420 -436l92 307h186l-114 -307h-164z" />
<glyph unicode="&#xe8;" horiz-adv-x="1183" d="M106 477q0 219 141 365q141 145 359 145q208 0 338 -139q132 -141 133 -361q0 -26 -4 -59h-4h-778q15 -128 100 -210q86 -83 225 -83q171 0 234 119h203q-41 -129 -162 -207t-281 -78q-221 0 -362 147q-142 148 -142 361zM295 547h592q-12 128 -87 205q-74 75 -194 75 q-130 0 -211 -78q-82 -79 -100 -202zM344 1432h209l160 -299h-172z" />
<glyph unicode="&#xe9;" horiz-adv-x="1183" d="M106 477q0 219 141 365q141 145 359 145q208 0 338 -139q132 -141 133 -361q0 -26 -4 -59h-4h-778q15 -128 100 -210q86 -83 225 -83q171 0 234 119h203q-41 -129 -162 -207t-281 -78q-221 0 -362 147q-142 148 -142 361zM295 547h592q-12 128 -87 205q-74 75 -194 75 q-130 0 -211 -78q-82 -79 -100 -202zM510 1130l160 300h209l-197 -300h-172z" />
<glyph unicode="&#xea;" horiz-adv-x="1183" d="M106 477q0 219 141 365q141 145 359 145q208 0 338 -139q132 -141 133 -361q0 -26 -4 -59h-4h-778q15 -128 100 -210q86 -83 225 -83q171 0 234 119h203q-41 -129 -162 -207t-281 -78q-221 0 -362 147q-142 148 -142 361zM262 1114l248 305h184l248 -305h-178l-160 184 l-162 -184h-180zM295 547h592q-12 128 -87 205q-74 75 -194 75q-130 0 -211 -78q-82 -79 -100 -202z" />
<glyph unicode="&#xeb;" horiz-adv-x="1183" d="M106 477q0 219 141 365q141 145 359 145q208 0 338 -139q132 -141 133 -361q0 -26 -4 -59h-4h-778q15 -128 100 -210q86 -83 225 -83q171 0 234 119h203q-41 -129 -162 -207t-281 -78q-221 0 -362 147q-142 148 -142 361zM279 1278q0 52 35 86q37 35 89 35q53 0 90 -35 q35 -34 35 -86t-35 -86q-37 -35 -90 -35q-52 0 -89 35q-35 34 -35 86zM295 547h592q-12 128 -87 205q-74 75 -194 75q-130 0 -211 -78q-82 -79 -100 -202zM682 1278q0 52 36 86q37 35 89 35t89 -35q36 -34 36 -86t-36 -86q-37 -35 -89 -35t-89 35q-36 34 -36 86z" />
<glyph unicode="&#xec;" horiz-adv-x="544" d="M12 1432h209l160 -299h-172zM180 0v956h187v-956h-187z" />
<glyph unicode="&#xed;" horiz-adv-x="544" d="M178 1130l160 300h209l-197 -300h-172zM180 0v956h187v-956h-187z" />
<glyph unicode="&#xee;" horiz-adv-x="544" d="M-68 1114l248 305h185l247 -305h-178l-160 184l-161 -184h-181zM180 0v956h187v-956h-187z" />
<glyph unicode="&#xef;" horiz-adv-x="544" d="M-53 1278q0 52 36 86q37 35 89 35t89 -35q36 -34 36 -86t-36 -86q-37 -35 -89 -35t-89 35q-36 34 -36 86zM180 0v956h187v-956h-187zM350 1278q0 52 36 86q37 35 89 35t89 -35q36 -34 36 -86t-36 -86q-37 -35 -89 -35t-89 35q-36 34 -36 86z" />
<glyph unicode="&#xf0;" horiz-adv-x="1212" d="M109 477q0 217 145 361q144 143 364 143q116 0 216 -61q-77 140 -209 247l-320 -118l-49 129l229 84q-110 65 -229 110l195 82q121 -49 227 -123l188 70l49 -127l-112 -41q152 -145 238 -339q85 -192 85 -417q0 -217 -146 -362q-148 -146 -362 -146q-215 0 -363 146 q-146 145 -146 362zM297 477q0 -141 91 -238q92 -98 230 -98t228 98q90 97 90 238q0 140 -90 236t-228 96t-230 -96q-91 -95 -91 -236z" />
<glyph unicode="&#xf1;" horiz-adv-x="1206" d="M156 0v956h188v-96q136 127 324 127q186 0 300 -122q113 -120 113 -324v-541h-186v530q0 134 -71 211q-70 76 -193 76q-162 0 -287 -160v-657h-188zM283 1194q0 81 32 135q33 55 82 76q47 20 105 17q56 -3 100 -31l90 -58q57 -35 91 -14t34 72h152q0 -80 -32 -136 q-31 -55 -80 -76q-51 -22 -103 -18q-57 5 -103 33l-92 57q-53 34 -88 14t-35 -71h-153z" />
<glyph unicode="&#xf2;" horiz-adv-x="1232" d="M109 477q0 217 145 361q144 143 364 143q215 0 362 -144q146 -143 146 -360t-146 -362q-148 -146 -362 -146q-215 0 -363 146q-146 145 -146 362zM297 477q0 -141 91 -238q92 -98 230 -98t228 98q90 97 90 238q0 140 -90 236t-228 96t-230 -96q-91 -95 -91 -236z M358 1432h209l160 -299h-172z" />
<glyph unicode="&#xf3;" horiz-adv-x="1232" d="M109 477q0 217 145 361q144 143 364 143q215 0 362 -144q146 -143 146 -360t-146 -362q-148 -146 -362 -146q-215 0 -363 146q-146 145 -146 362zM297 477q0 -141 91 -238q92 -98 230 -98t228 98q90 97 90 238q0 140 -90 236t-228 96t-230 -96q-91 -95 -91 -236z M522 1130l160 300h209l-197 -300h-172z" />
<glyph unicode="&#xf4;" horiz-adv-x="1232" d="M109 477q0 217 145 361q144 143 364 143q215 0 362 -144q146 -143 146 -360t-146 -362q-148 -146 -362 -146q-215 0 -363 146q-146 145 -146 362zM276 1114l248 305h185l247 -305h-178l-160 184l-161 -184h-181zM297 477q0 -141 91 -238q92 -98 230 -98t228 98 q90 97 90 238q0 140 -90 236t-228 96t-230 -96q-91 -95 -91 -236z" />
<glyph unicode="&#xf5;" horiz-adv-x="1232" d="M109 477q0 217 145 361q144 143 364 143q215 0 362 -144q146 -143 146 -360t-146 -362q-148 -146 -362 -146q-215 0 -363 146q-146 145 -146 362zM285 1194q0 81 32 135q33 55 82 76q47 20 105 17q56 -3 100 -31l90 -58q60 -34 92 -14q33 21 33 72h152q0 -80 -32 -136 q-31 -55 -80 -76q-51 -22 -103 -18q-57 5 -103 33l-92 57q-53 34 -88 14t-35 -71h-153zM297 477q0 -141 91 -238q92 -98 230 -98t228 98q90 97 90 238q0 140 -90 236t-228 96t-230 -96q-91 -95 -91 -236z" />
<glyph unicode="&#xf6;" horiz-adv-x="1232" d="M109 477q0 217 145 361q144 143 364 143q215 0 362 -144q146 -143 146 -360t-146 -362q-148 -146 -362 -146q-215 0 -363 146q-146 145 -146 362zM293 1278q0 52 36 86q37 35 89 35t89 -35q36 -34 36 -86t-36 -86q-37 -35 -89 -35t-89 35q-36 34 -36 86zM297 477 q0 -141 91 -238q92 -98 230 -98t228 98q90 97 90 238q0 140 -90 236t-228 96t-230 -96q-91 -95 -91 -236zM696 1278q0 52 36 86q37 35 89 35t89 -35q36 -34 36 -86t-36 -86q-37 -35 -89 -35t-89 35q-36 34 -36 86z" />
<glyph unicode="&#xf7;" horiz-adv-x="1411" d="M227 582v174h957v-174h-957zM590 287q0 49 34 82q33 32 83 32t83 -32t33 -82q0 -47 -35 -80q-34 -33 -81 -33q-49 0 -83 33t-34 80zM590 1055q0 49 34 82q33 32 83 32t83 -32t33 -82q0 -47 -35 -80q-34 -33 -81 -33q-49 0 -83 33t-34 80z" />
<glyph unicode="&#xf8;" horiz-adv-x="1232" d="M109 477q0 217 145 361q144 143 364 143q146 0 265 -70l59 70l102 -84l-57 -68q139 -143 139 -352q0 -217 -146 -362q-148 -146 -362 -146q-157 0 -282 80l-62 -74l-102 86l64 74q-127 143 -127 342zM297 477q0 -111 57 -196l414 491q-67 37 -150 37q-138 0 -230 -96 q-91 -95 -91 -236zM451 186q73 -45 167 -45q138 0 228 98q90 97 90 238q0 118 -68 209z" />
<glyph unicode="&#xf9;" horiz-adv-x="1206" d="M125 418v538h188v-528q0 -136 71 -212q70 -75 191 -75q165 0 287 158v657h189v-956h-189v94q-137 -125 -323 -125t-300 122q-114 121 -114 327zM336 1432h209l160 -299h-173z" />
<glyph unicode="&#xfa;" horiz-adv-x="1206" d="M125 418v538h188v-528q0 -136 71 -212q70 -75 191 -75q165 0 287 158v657h189v-956h-189v94q-137 -125 -323 -125t-300 122q-114 121 -114 327zM502 1130l160 300h208l-196 -300h-172z" />
<glyph unicode="&#xfb;" horiz-adv-x="1206" d="M125 418v538h188v-528q0 -136 71 -212q70 -75 191 -75q165 0 287 158v657h189v-956h-189v94q-137 -125 -323 -125t-300 122q-114 121 -114 327zM256 1114l248 305h184l248 -305h-178l-160 184l-162 -184h-180z" />
<glyph unicode="&#xfc;" horiz-adv-x="1206" d="M125 418v538h188v-528q0 -136 71 -212q70 -75 191 -75q165 0 287 158v657h189v-956h-189v94q-137 -125 -323 -125t-300 122q-114 121 -114 327zM270 1278q0 52 36 86q37 35 89 35t89 -35q36 -34 36 -86t-36 -86q-37 -35 -89 -35t-89 35q-36 34 -36 86zM674 1278 q0 52 36 86q37 35 89 35t89 -35q36 -34 36 -86t-36 -86q-37 -35 -89 -35t-89 35q-36 34 -36 86z" />
<glyph unicode="&#xfd;" horiz-adv-x="1243" d="M47 958h203l377 -780l348 780h199l-648 -1454h-198l202 455zM524 1130l160 300h209l-197 -300h-172z" />
<glyph unicode="&#xfe;" horiz-adv-x="1247" d="M156 -498v1891h188v-523q131 111 320 111q203 0 346 -146t143 -358q0 -209 -143 -355q-144 -147 -346 -147q-190 0 -320 111v-584h-188zM344 295q107 -156 293 -156q137 0 232 101q96 102 96 237q0 139 -95 240q-94 100 -233 100q-187 0 -293 -155v-367z" />
<glyph unicode="&#xff;" horiz-adv-x="1243" d="M47 958h203l377 -780l348 780h199l-648 -1454h-198l202 455zM293 1278q0 52 36 86q37 35 89 35t89 -35q36 -34 36 -86t-36 -86q-37 -35 -89 -35t-89 35q-36 34 -36 86zM696 1278q0 52 36 86q37 35 89 35t89 -35q36 -34 36 -86t-36 -86q-37 -35 -89 -35t-89 35 q-36 34 -36 86z" />
<glyph unicode="&#x152;" horiz-adv-x="2062" d="M86 696q0 301 218 499q217 198 554 198h1092v-181h-795v-432h713v-180h-713v-420h795v-180h-1092q-336 0 -554 198t-218 498zM283 696q0 -226 158 -369q160 -145 417 -145l103 2v1026h-103q-258 0 -417 -144q-158 -143 -158 -370z" />
<glyph unicode="&#x153;" horiz-adv-x="2015" d="M109 477q0 217 145 361q144 143 364 143q259 0 410 -199q141 205 410 205q205 0 337 -139q132 -140 134 -361q0 -26 -4 -59l-7 2v-2h-774l-2 -14q21 -120 105 -200q83 -79 219 -79q172 0 235 119h201q-40 -129 -161 -207q-120 -78 -279 -78q-130 0 -238 55 q-106 54 -174 150q-150 -205 -412 -205q-215 0 -363 146q-146 145 -146 362zM297 477q0 -141 91 -238q92 -98 230 -98t228 98q90 97 90 238q0 140 -90 236t-228 96t-230 -96q-91 -95 -91 -236zM1124 547h592q-12 128 -86 205q-72 75 -192 75q-131 0 -212 -78 q-84 -81 -102 -202z" />
<glyph unicode="&#x178;" horiz-adv-x="1386" d="M27 1393h217l448 -721l451 721h217l-567 -910v-483h-199v483zM367 1681q0 52 35 86q37 35 90 35q52 0 89 -35q35 -34 35 -86t-35 -86t-89 -34q-55 0 -90 34t-35 86zM770 1681q0 51 36 86q37 35 89 35t89 -35q36 -34 36 -86q0 -51 -36 -86q-35 -34 -89 -34t-89 34 q-36 35 -36 86z" />
<glyph unicode="&#x2c6;" horiz-adv-x="1228" d="M274 1137l248 305h185l247 -305h-178l-160 184l-161 -184h-181z" />
<glyph unicode="&#x2dc;" horiz-adv-x="1228" d="M266 1208q0 80 33 135t82 76t104 18t101 -32l90 -57q58 -35 91 -15q34 21 34 72h151q0 -80 -31 -135q-32 -56 -80 -77q-49 -21 -104 -17q-57 5 -102 32l-92 58q-53 33 -88 13t-35 -71h-154z" />
<glyph unicode="&#x2000;" horiz-adv-x="991" />
<glyph unicode="&#x2001;" horiz-adv-x="1982" />
<glyph unicode="&#x2002;" horiz-adv-x="991" />
<glyph unicode="&#x2003;" horiz-adv-x="1982" />
<glyph unicode="&#x2004;" horiz-adv-x="660" />
<glyph unicode="&#x2005;" horiz-adv-x="495" />
<glyph unicode="&#x2006;" horiz-adv-x="330" />
<glyph unicode="&#x2007;" horiz-adv-x="330" />
<glyph unicode="&#x2008;" horiz-adv-x="247" />
<glyph unicode="&#x2009;" horiz-adv-x="396" />
<glyph unicode="&#x200a;" horiz-adv-x="110" />
<glyph unicode="&#x2010;" horiz-adv-x="1142" d="M227 453h688v188h-688v-188z" />
<glyph unicode="&#x2011;" horiz-adv-x="1142" d="M227 453h688v188h-688v-188z" />
<glyph unicode="&#x2012;" horiz-adv-x="1142" d="M227 453h688v188h-688v-188z" />
<glyph unicode="&#x2013;" horiz-adv-x="1470" d="M227 455h1018v188h-1018v-188z" />
<glyph unicode="&#x2014;" horiz-adv-x="2021" d="M190 455h1641v188h-1641v-188z" />
<glyph unicode="&#x2018;" horiz-adv-x="403" d="M61 1044q0 40 39 113l111 234h115l-99 -248q74 -29 74 -99q0 -45 -35 -80q-34 -34 -84 -34q-52 0 -86 34q-35 35 -35 80z" />
<glyph unicode="&#x2019;" horiz-adv-x="417" d="M76 944l100 248q-76 27 -76 98q0 48 35 83q34 34 86 34t86 -34q35 -35 35 -83q0 -36 -39 -112l-110 -234h-117z" />
<glyph unicode="&#x201a;" horiz-adv-x="417" d="M76 -260l100 248q-76 27 -76 100q0 46 35 81q34 34 86 34t86 -34q35 -35 35 -81q0 -38 -39 -115l-110 -233h-117z" />
<glyph unicode="&#x201c;" horiz-adv-x="770" d="M76 1044q0 40 39 113l110 234h117l-100 -248q75 -28 75 -99q0 -46 -35 -80t-85 -34q-52 0 -86 34q-35 35 -35 80zM428 1044q0 40 39 113l111 234h116l-100 -248q76 -27 76 -99q0 -45 -35 -80q-34 -34 -86 -34t-86 34q-35 35 -35 80z" />
<glyph unicode="&#x201d;" horiz-adv-x="770" d="M76 944l100 248q-76 27 -76 98q0 48 35 83q34 34 86 34t86 -34q35 -35 35 -83q0 -36 -39 -112l-110 -234h-117zM430 944l98 248q-73 28 -73 98q0 49 34 83t84 34q52 0 86 -34q35 -35 35 -83q0 -36 -39 -112l-110 -234h-115z" />
<glyph unicode="&#x201e;" horiz-adv-x="774" d="M76 -260l100 248q-76 27 -76 100q0 46 35 81q34 34 86 34t86 -34q35 -35 35 -81q0 -38 -39 -115l-110 -233h-117zM434 -260l98 248q-73 28 -73 100q0 46 35 81q34 34 84 34q52 0 86 -34t34 -81q0 -38 -39 -115l-110 -233h-115z" />
<glyph unicode="&#x2022;" horiz-adv-x="663" d="M80 608q0 100 75 175t177 75t177 -75t75 -175t-76 -175t-176 -75t-176 75t-76 175z" />
<glyph unicode="&#x2026;" horiz-adv-x="1261" d="M76 88q0 48 36 83q35 34 85 34q52 0 87 -34t35 -83q0 -51 -35 -85t-87 -34q-48 0 -85 35q-36 34 -36 84zM504 88q0 48 35 83q34 34 86 34t86 -34t34 -83q0 -51 -34 -85t-86 -34t-86 34q-35 35 -35 85zM942 88q0 48 36 83q35 34 85 34q52 0 87 -34q36 -34 36 -83 q0 -50 -36 -85q-35 -34 -87 -34q-48 0 -85 35q-36 34 -36 84z" />
<glyph unicode="&#x202f;" horiz-adv-x="396" />
<glyph unicode="&#x2039;" horiz-adv-x="548" d="M78 516l209 307h184l-211 -307l211 -307h-184z" />
<glyph unicode="&#x203a;" horiz-adv-x="548" d="M78 209l209 307l-209 307h182l211 -307l-211 -307h-182z" />
<glyph unicode="&#x205f;" horiz-adv-x="495" />
<glyph unicode="&#x20ac;" horiz-adv-x="1789" d="M86 455v137h193q-7 59 -7 104q0 36 2 66h-188v137h213q66 234 258 378t440 144q257 0 439 -149q181 -149 231 -393h-203q-40 165 -165 260q-124 94 -302 94q-171 0 -302 -91q-132 -92 -189 -243h624l-34 -137h-621q-4 -36 -4 -66q0 -58 8 -104h576l-33 -137h-500 q63 -136 191 -216q127 -79 284 -79q178 0 302 94q125 95 165 260h203q-50 -244 -231 -393q-183 -150 -439 -150q-236 0 -424 133t-262 351h-225z" />
<glyph unicode="&#x2122;" horiz-adv-x="1409" d="M53 1286v105h533v-105h-211v-493h-109v493h-213zM662 793v598h83l240 -375l240 375h86v-598h-111v370l-184 -295h-60l-188 299l2 -374h-108z" />
<glyph unicode="&#x25fc;" horiz-adv-x="962" d="M0 0v963h963v-963h-963z" />
<glyph unicode="&#xfb01;" horiz-adv-x="1400" d="M8 799v157h275v156q0 204 111 322t294 118q134 0 324 -51q21 -7 26 -8l-34 -162q-191 47 -293 47q-113 0 -176 -69q-64 -70 -64 -197v-156h754v-956h-189v799h-565v-799h-188v799h-275z" />
<glyph unicode="&#xfb02;" horiz-adv-x="1357" d="M8 799v157h275v211q0 176 100 280q101 105 264 105q110 0 209 -28l-27 -164q-91 18 -147 18q-97 0 -154 -58t-57 -153v-211h340v-157h-340v-799h-188v799h-275zM1014 0v1454h186v-1454h-186z" />
</font>
</defs>
</svg>
