<?xml version="1.0" encoding="utf-8"?>
<!-- Generator: Adobe Illustrator 19.0.0, SVG Export Plug-In . SVG Version: 6.00 Build 0)  -->
<svg version="1.1" id="Layer_1" xmlns="http://www.w3.org/2000/svg" xmlns:xlink="http://www.w3.org/1999/xlink" x="0px" y="0px"
	 viewBox="0 0 460 473.1" style="enable-background:new 0 0 460 473.1;" xml:space="preserve">
<style type="text/css">
	.st0{fill:none;stroke:#FFFFFF;stroke-width:24;stroke-miterlimit:10;}
</style>
<path class="st0" d="M207.4,435.7L41.5,344.9c-0.6-0.3-0.9-0.9-0.9-1.6l0.1-181.7c0-1.3,1.4-2.2,2.6-1.6L209,238.7
	c0.6,0.3,1,0.9,1,1.6L209.8,346c0,1-0.8,1.8-1.8,1.8l-65-0.1c-1.5,0-2.3,1.7-1.4,2.9l68,82.5C210.9,434.5,209.1,436.6,207.4,435.7z"
	/>
<path class="st0" d="M251.4,435.7l165.9-90.8c0.6-0.3,0.9-0.9,0.9-1.6l-0.1-181.7c0-1.3-1.4-2.2-2.6-1.6l-165.8,78.6
	c-0.6,0.3-1,0.9-1,1.6l0.1,105.6c0,1,0.8,1.8,1.8,1.8l65-0.1c1.5,0,2.3,1.7,1.4,2.9l-68,82.5C247.9,434.5,249.6,436.6,251.4,435.7z"
	/>
<path class="st0" d="M65.6,122.6l163.7-88.4c0.5-0.3,1.2-0.3,1.7,0l163,88.4c1.3,0.7,1.2,2.5-0.1,3.1l-163,80.4
	c-0.5,0.2-1.1,0.2-1.6,0L65.7,125.8C64.4,125.1,64.4,123.3,65.6,122.6z"/>
</svg>
