<?xml version="1.0" encoding="iso-8859-1"?>
<!-- Generator: Adobe Illustrator 19.0.0, SVG Export Plug-In . SVG Version: 6.00 Build 0)  -->
<svg xmlns="http://www.w3.org/2000/svg" xmlns:xlink="http://www.w3.org/1999/xlink" version="1.1" id="Layer_1" x="0px" y="0px" viewBox="0 0 480 480" style="enable-background:new 0 0 480 480;" xml:space="preserve" width="512px" height="512px">
<g>
	<g>
		<g>
			<path d="M477.654,344.486l-37.557-44.669c23.721-22.495,38.516-54.15,38.516-89.163c0-64.787-50.64-118.078-114.783-123.108     V51.082c0-5.523-4.477-10-10-10h-75.567c-5.523,0-10,4.477-10,10v69.868c-9.222,8.637-17.114,18.651-23.345,29.705h-61.114     c-5.523,0-10,4.477-10,10V230H89.345c-5.523,0-10,4.477-10,10v84.459H10c-5.523,0-10,4.477-10,10v94.459c0,5.523,4.477,10,10,10     h79.345h94.459h94.459h75.567c5.523,0,10-4.477,10-10v-95.163c22.41-1.758,43.167-9.409,60.696-21.38l37.819,44.981     c1.978,2.353,4.809,3.564,7.66,3.564c2.271,0,4.555-0.77,6.43-2.346C480.663,355.021,481.208,348.713,477.654,344.486z      M79.345,418.918H20v-74.459h59.345V418.918z M173.804,418.918H99.345v-84.459V250h74.459V418.918z M288.263,61.082h55.567     v25.954c-17.516,1.124-38.738,8.231-55.567,18.331V61.082z M268.262,418.917h-74.459V240h0.001v-69.346h41.556     c-1.341,4.336-2.425,8.825-3.266,13.421c-1.904,8.564-2.917,17.456-2.917,26.578c0,29.366,10.412,56.366,27.763,77.584     c0.252,0.33,0.492,0.667,0.746,0.995c2.597,3.333,5.123,5.921,7.152,8.001c1.22,1.25,2.844,2.915,3.424,3.771V418.917z      M343.83,418.918h-55.567V316.416c16.62,9.44,39.467,16.7,55.567,18V418.918z M353.893,314.147     c-10.68,0-20.99-1.592-30.704-4.542c-1.68-0.537-3.405-1.11-5.204-1.75c-0.878-0.313-1.727-0.629-2.572-0.946     c-16.737-6.559-31.368-17.266-42.594-30.829c-21.029-27.565-26.013-62.067-20.794-89.425     c10.98-45.536,52.484-79.502,101.868-79.502c57.743,0,104.72,46.43,104.72,103.5C458.613,267.72,411.636,314.147,353.893,314.147     z" fill="#FFFFFF"/>
			<path d="M356.074,129.079c-1.549-0.019-38.361-0.175-61.108,25.134c-13.861,15.421-19.312,36.453-16.205,62.511     c0.606,5.082,4.923,8.817,9.917,8.817c0.395,0,0.795-0.023,1.197-0.071c5.484-0.654,9.399-5.63,8.746-11.114     c-2.389-20.031,1.358-35.736,11.136-46.68c16.453-18.414,45.322-18.598,46.089-18.598c0.057,0.004,0.074,0,0.109,0     c5.466,0,9.93-4.397,9.997-9.878C366.019,133.678,361.597,129.146,356.074,129.079z" fill="#FFFFFF"/>
		</g>
	</g>
</g>
<g>
</g>
<g>
</g>
<g>
</g>
<g>
</g>
<g>
</g>
<g>
</g>
<g>
</g>
<g>
</g>
<g>
</g>
<g>
</g>
<g>
</g>
<g>
</g>
<g>
</g>
<g>
</g>
<g>
</g>
</svg>
