<?xml version="1.0" standalone="no"?>
<!DOCTYPE svg PUBLIC "-//W3C//DTD SVG 1.1//EN" "http://www.w3.org/Graphics/SVG/1.1/DTD/svg11.dtd" >
<svg xmlns="http://www.w3.org/2000/svg" xmlns:xlink="http://www.w3.org/1999/xlink" version="1.1">
<metadata></metadata>
<defs>
<font id="frescosans_pronormal" horiz-adv-x="1216" >
<font-face units-per-em="2048" ascent="1536" descent="-512" />
<missing-glyph horiz-adv-x="512" />
<glyph unicode="&#xfb01;" horiz-adv-x="1136" d="M41 864v144h160v129q0 94 34.5 168.5t98 126t145.5 78t176 26.5h289v-143h-289q-61 0 -113.5 -15.5t-91 -49.5t-60 -86t-21.5 -122v-112h432l119 32h49v-1040h-168v864h-432v-864h-168v864h-160z" />
<glyph unicode="&#xfb02;" horiz-adv-x="1153" d="M41 864v144h160v129q0 94 30.5 168.5t88 126t135 78t170.5 26.5h358v-1536h-168v1393h-190q-61 0 -108.5 -15.5t-80.5 -49.5t-50 -85t-17 -123v-112h256v-144h-256v-864h-168v864h-160z" />
<glyph horiz-adv-x="0" />
<glyph horiz-adv-x="682" />
<glyph unicode="&#xd;" horiz-adv-x="681" />
<glyph unicode=" "  horiz-adv-x="512" />
<glyph unicode="&#x09;" horiz-adv-x="512" />
<glyph unicode="&#xa0;" horiz-adv-x="512" />
<glyph unicode="!" horiz-adv-x="528" d="M160 96q0 25 6 45.5t19.5 36t33 23.5t45.5 8q27 0 46.5 -8t32.5 -23.5t19.5 -36t6.5 -45.5t-6.5 -45t-19.5 -35.5t-32.5 -23.5t-46.5 -8t-46 8t-32.5 23.5t-19.5 36t-6 44.5zM176 1024v449h168v-449l-47 -575h-74z" />
<glyph unicode="&#x22;" horiz-adv-x="831" d="M160 1343v130h168v-130l-47 -256h-72zM504 1343v130h168v-130l-47 -256h-72z" />
<glyph unicode="#" d="M63 336v96h248v608h-248v97h248v336h97v-336h401v336h94v-336h250v-97h-250v-608h250v-96h-250v-336h-94v336h-401v-336h-97v336h-248zM408 432h401v608h-401v-608z" />
<glyph unicode="$" d="M176 55v160h17q35 -20 78.5 -36.5t91 -27t92.5 -16.5t82 -6q74 0 136 17.5t106 50t68.5 81t24.5 107.5q0 51 -18 92t-50 73t-71 54.5t-86 42.5l-207 88q-59 25 -107 60.5t-81 83t-50.5 103.5t-17.5 122q0 82 30 148.5t83 114.5t125 77t153 39v182h146v-178q35 -2 72.5 -6 t73.5 -9.5t68 -13.5t56 -18v-160h-14q-35 16 -79 28.5t-89 20.5t-87 11t-75 3q-61 0 -113.5 -13t-91.5 -41.5t-60.5 -75t-21.5 -109.5q0 -49 14.5 -86t38 -63.5t52.5 -44t63 -29.5l215 -88q63 -27 117.5 -61t96.5 -80t67 -105.5t25 -130.5q0 -88 -28 -160t-78 -124 t-118.5 -86t-152.5 -50v-252h-144v240q-43 0 -90 6t-94 15t-90 22.5t-78 27.5z" />
<glyph unicode="%" horiz-adv-x="1792" d="M55 1071q0 82 21.5 157t66.5 133t118 93t171 35q100 0 175 -35t120 -93t66.5 -133t21.5 -157q0 -84 -22.5 -157.5t-68.5 -132t-120 -92.5t-172 -34t-171 34t-118 91.5t-66.5 132t-21.5 158.5zM215 1071q0 -57 11.5 -106.5t36 -88t66.5 -61t103 -22.5t104.5 22.5t69 61 t37.5 88t12 106.5t-12 107.5t-37.5 89.5t-68.5 61.5t-105 22.5q-61 0 -103 -22.5t-66.5 -61.5t-36 -89.5t-11.5 -107.5zM449 0v25l798 1448h96v-25l-798 -1448h-96zM977 399q0 82 21.5 156t66.5 133.5t116.5 93t170.5 33.5q100 0 175 -33.5t121 -93t67.5 -133.5t21.5 -156 q0 -84 -22.5 -157.5t-70 -132t-121 -92t-171.5 -33.5t-171 33.5t-117 91t-65.5 132t-21.5 158.5zM1137 399q0 -57 10 -106t34.5 -88t67 -61.5t103.5 -22.5t104 22.5t69.5 61.5t39 88t12.5 106t-12.5 107.5t-39 89.5t-69.5 61.5t-104 22.5t-103.5 -22.5t-67 -61.5t-34.5 -89 t-10 -108z" />
<glyph unicode="&#x26;" horiz-adv-x="1536" d="M80 352q0 63 15.5 113.5t47 94.5t81.5 87t128 96l33 23l-25 27q-31 29 -59.5 61.5t-57 76.5t-48 97t-19.5 109q0 76 27.5 141t79 112.5t121 73t149.5 25.5t144.5 -23.5t110.5 -66.5t70.5 -104.5t24.5 -135.5q0 -57 -18.5 -107.5t-51 -93.5t-73.5 -79.5t-96 -77.5l-52 -37 l392 -410q29 37 52 78t38.5 85t24.5 91t9 97h-137v143h465v-143h-184q-2 -61 -14.5 -121t-35 -117t-53 -110.5t-71.5 -102.5l14 -14q39 -41 73 -67t66.5 -38t68.5 -17t89 -5h47v-97q-20 -6 -38.5 -12t-40 -10t-44 -7t-45.5 -3q-37 0 -73.5 8t-73.5 24.5t-73 43t-69 61.5 l-18 18q-47 -37 -98.5 -65.5t-107.5 -49t-116.5 -30.5t-121.5 -10q-96 0 -179.5 24.5t-145.5 72.5t-97 117.5t-35 153.5zM256 385q0 -66 21.5 -114t62.5 -79.5t98.5 -47t128.5 -15.5q43 0 85 7t83 21.5t79 35t73 45.5l-410 428l-37 -25q-43 -29 -73.5 -54.5t-56 -56 t-40 -66.5t-14.5 -79zM352 1137q0 -37 12.5 -72t33 -63.5t41 -52t48.5 -52.5l33 -37l64 43q41 29 69.5 58.5t44 60.5t22.5 63.5t7 73.5q0 45 -11 80t-34 57.5t-55.5 34.5t-73.5 12q-47 0 -85 -14t-63.5 -40.5t-39 -65.5t-13.5 -86z" />
<glyph unicode="'" horiz-adv-x="487" d="M160 1343v130h168v-130l-47 -256h-72z" />
<glyph unicode="(" horiz-adv-x="575" d="M96 592v33q0 143 31 276t83 243.5t113.5 193.5t125.5 135h96v-33q-63 -63 -114.5 -142t-91.5 -179.5t-61.5 -224.5t-21.5 -269v-33q0 -145 21.5 -269t61.5 -224.5t91 -179.5t115 -142v-33h-96q-63 49 -125 132t-114 194.5t-83 245t-31 276.5z" />
<glyph unicode=")" horiz-adv-x="575" d="M33 -223q63 63 114.5 142t90 179.5t60 224t21.5 269.5v33q0 145 -21.5 269t-60 224.5t-90 179t-114.5 142.5v33h96q63 -51 124.5 -134.5t113 -194t82 -243.5t30.5 -276v-33q0 -143 -30.5 -276.5t-82 -245t-113 -194.5t-124.5 -132h-96v33z" />
<glyph unicode="*" horiz-adv-x="1056" d="M129 893l111 63l241 93l-241 92l-111 63l64 113l110 -66l203 -166l-41 258v130h127v-130l-41 -253l201 161l112 66l64 -113l-113 -63l-242 -92l242 -93l113 -63l-64 -113l-112 64l-199 164l39 -256v-127h-127v127l41 256l-203 -164l-110 -64z" />
<glyph unicode="+" d="M129 655v97h430v448h96v-448h432v-97h-432v-446h-96v446h-430z" />
<glyph unicode="," horiz-adv-x="528" d="M96 -240q27 18 52.5 43t46 52.5t33 56.5t12.5 55v33q-14 4 -27.5 9t-26 16.5t-19.5 29t-7 41.5q0 29 8 50.5t22.5 36t34 20.5t39.5 6q25 0 44.5 -9.5t32.5 -28.5t20.5 -48t7.5 -68q0 -43 -8.5 -85t-26 -83t-45 -77.5t-66.5 -65.5h-127v16z" />
<glyph unicode="-" horiz-adv-x="831" d="M129 641v127h576v-127h-576z" />
<glyph unicode="." horiz-adv-x="528" d="M160 96q0 25 6 45.5t19.5 36t33 23.5t45.5 8q27 0 46.5 -8t32.5 -23.5t19.5 -36t6.5 -45.5t-6.5 -45t-19.5 -35.5t-32.5 -23.5t-46.5 -8t-46 8t-32.5 23.5t-19.5 36t-6 44.5z" />
<glyph unicode="/" horiz-adv-x="991" d="M63 0v33l738 1440h127v-33l-735 -1440h-130z" />
<glyph unicode="0" d="M113 735q0 172 30.5 311.5t92 237.5t155.5 151.5t217 53.5q129 0 224.5 -53.5t155 -151.5t88 -236.5t28.5 -312.5q0 -172 -31 -310t-92 -237.5t-155.5 -151.5t-217.5 -52q-129 0 -224 52t-154.5 150.5t-88 236.5t-28.5 312zM289 735q0 -147 18.5 -260t57 -189.5 t100 -116.5t143.5 -40t143.5 40t100.5 116.5t57.5 189.5t18.5 260t-18.5 260t-57.5 191t-100.5 117.5t-143.5 39.5t-143.5 -39.5t-100 -117.5t-57 -190.5t-18.5 -260.5z" />
<glyph unicode="1" d="M209 1167v146l479 176h80v-1489h-176v1305l-369 -138h-14z" />
<glyph unicode="2" d="M129 0v104l328 345q131 137 170 179t88 110.5t78.5 144t29.5 157.5q0 76 -21.5 133.5t-61.5 95.5t-97 56t-131 18q-39 0 -79 -5t-81 -17t-82 -34.5t-77 -53.5h-17v143q31 25 71 45.5t87 36t97 23.5t97 8q106 0 195.5 -31t153 -89t97.5 -141t34 -188q0 -94 -34 -180 t-86 -160.5t-103.5 -128t-137.5 -139.5l-287 -289h760v-143h-991z" />
<glyph unicode="3" d="M113 80v143h16q39 -18 81 -35.5t89 -30t101.5 -20.5t111.5 -8q82 0 150.5 16.5t122 51t83 89t29.5 130.5q0 63 -23.5 112.5t-66.5 81t-102.5 47t-129.5 15.5h-190v121l174 30q51 10 101.5 32t93.5 57.5t68.5 86t25.5 113.5q0 61 -21.5 106.5t-62.5 72t-100.5 39.5 t-135.5 13q-41 0 -86 -7t-88 -20t-79.5 -28.5t-65.5 -32.5h-16v146q39 16 73.5 29.5t82.5 26.5t103.5 22.5t114.5 9.5q100 0 185.5 -24.5t145.5 -69.5t93 -109.5t33 -140.5q0 -80 -24.5 -143.5t-64.5 -107.5t-85 -72.5t-90 -45.5q74 -12 132 -43t98 -77t60.5 -107.5 t20.5 -132.5q0 -104 -43 -186.5t-121 -136.5t-179 -81.5t-216 -27.5q-61 0 -117.5 7t-106.5 19.5t-94 30.5t-81 39z" />
<glyph unicode="4" d="M80 449v110l704 930h160v-897h215v-143h-215v-449h-176v449h-688zM256 592h512v672z" />
<glyph unicode="5" d="M143 63v146h17q37 -16 79 -29.5t87 -24t92 -15.5t94 -5q82 0 149.5 19.5t116.5 58.5t76 96.5t27 130.5q0 80 -21.5 137.5t-69 96.5t-124 58.5t-187.5 19.5h-270v721h815v-146h-655v-430h110q152 0 262.5 -29.5t180 -87t102.5 -142.5t33 -198q0 -92 -37 -174 t-105.5 -143.5t-167 -96t-219.5 -34.5q-59 0 -112.5 4t-100.5 13t-90 22.5t-82 31.5z" />
<glyph unicode="6" d="M121 647q0 207 59.5 363.5t162.5 259t239.5 153t289.5 50.5h193v-146h-176q-117 0 -211 -28.5t-167 -86t-122 -142.5t-74 -198h21q29 23 61.5 41.5t70.5 33t80 22.5t85 8q100 0 186 -29.5t149.5 -89t99.5 -152t36 -210.5q0 -119 -36 -214.5t-101.5 -162t-156.5 -101 t-202 -34.5t-200 37.5t-153.5 118.5t-99 208t-34.5 299zM297 647q0 -129 20.5 -226t61.5 -161.5t102.5 -97.5t143.5 -33q68 0 123 21.5t95 66.5t62.5 114.5t22.5 164.5q0 80 -22.5 142t-62.5 105t-96.5 65.5t-121.5 22.5q-47 0 -93.5 -9t-88.5 -24.5t-78.5 -36t-65.5 -42.5 q0 -8 -1 -17.5t-1 -17.5v-16.5v-20.5z" />
<glyph unicode="7" d="M143 1327v146h977v-105l-680 -1368h-176v25l680 1302h-801z" />
<glyph unicode="8" d="M121 399q0 68 21.5 122t53 94t58.5 61.5t65 50.5l72 55q-49 29 -92 63t-76 76t-52 92t-19 107q0 88 36.5 157t100 116t146.5 71.5t173 24.5q96 0 180 -24.5t145.5 -73t96.5 -121t35 -166.5q0 -59 -15.5 -108.5t-41 -86.5t-53 -64.5t-66.5 -60.5l-53 -45q55 -27 100 -56.5 t81 -69.5t57.5 -93t21.5 -121q0 -94 -39 -170.5t-109.5 -132t-162 -84t-193.5 -28.5t-188.5 26.5t-150 79.5t-98 131t-34.5 178zM297 399q0 -68 22.5 -119t63.5 -84.5t94 -50t115 -16.5q84 0 146.5 20.5t102.5 57.5t59.5 86t19.5 106q0 51 -20.5 91t-54.5 69t-70 47.5 t-87 40.5l-178 80l-53 -47q-57 -51 -72.5 -65.5t-38 -46t-36 -73t-13.5 -96.5zM328 1120q0 -49 17 -87t47 -65.5t63.5 -47t81.5 -39.5l180 -84l35 34q35 35 56 59.5t39.5 55.5t30 70t11.5 88q0 55 -17.5 99t-51.5 75t-87 48t-125 17q-61 0 -112.5 -12t-89 -39.5t-58 -70.5 t-20.5 -101z" />
<glyph unicode="9" d="M129 991q0 113 37 205t102.5 157.5t153.5 100.5t186 35q111 0 203 -38t159.5 -117t104.5 -200.5t37 -285.5q0 -211 -54 -372t-151.5 -266.5t-230.5 -157.5t-291 -52h-176v143h160q111 0 200.5 30t159.5 89.5t116 148.5t68 205h-16q-27 -18 -60.5 -36.5t-73.5 -34 t-84 -24.5t-87 -9q-96 0 -181 30.5t-147.5 91t-98.5 150.5t-36 207zM303 991q0 -82 22.5 -145.5t63.5 -105.5t96.5 -63.5t122.5 -21.5q47 0 93.5 8.5t88 25t78.5 36.5t66 43v17.5t1 21.5t1 21.5v19.5q0 123 -23.5 217t-67.5 155.5t-103.5 92t-133.5 30.5q-61 0 -116.5 -21.5 t-97.5 -65.5t-66.5 -110.5t-24.5 -154.5z" />
<glyph unicode=":" horiz-adv-x="528" d="M160 96q0 25 6 45.5t19.5 36t33 23.5t45.5 8q27 0 46.5 -8t32.5 -23.5t19.5 -36t6.5 -45.5t-6.5 -45t-19.5 -35.5t-32.5 -23.5t-46.5 -8t-46 8t-32.5 23.5t-19.5 36t-6 44.5zM160 897q0 25 6 45.5t19.5 34.5t33 22.5t45.5 8.5q27 0 46.5 -8.5t32.5 -22.5t19.5 -34.5 t6.5 -45.5t-6.5 -45.5t-19.5 -35.5t-32.5 -23.5t-46.5 -8.5t-46 8.5t-32.5 23.5t-19.5 35.5t-6 45.5z" />
<glyph unicode=";" horiz-adv-x="528" d="M96 -240q27 18 52.5 43t46 52.5t33 56.5t12.5 55v33q-14 4 -27.5 9t-26 16.5t-19.5 29t-7 41.5q0 29 8 50.5t22.5 36t34 20.5t39.5 6q25 0 44.5 -9.5t32.5 -28.5t20.5 -48t7.5 -68q0 -43 -8.5 -85t-26 -83t-45 -77.5t-66.5 -65.5h-127v16zM160 897q0 25 6 45.5t19.5 34.5 t33 22.5t45.5 8.5q27 0 46.5 -8.5t32.5 -22.5t19.5 -34.5t6.5 -45.5t-6.5 -45.5t-19.5 -35.5t-32.5 -23.5t-46.5 -8.5t-46 8.5t-32.5 23.5t-19.5 35.5t-6 45.5z" />
<glyph unicode="&#x3c;" d="M129 641v94l942 482h16v-113l-847 -416l847 -416v-112h-16z" />
<glyph unicode="=" d="M129 479v96h958v-96h-958zM129 897v94h958v-94h-958z" />
<glyph unicode="&#x3e;" d="M129 160v112l848 416l-848 416v113h14l944 -482v-94l-944 -481h-14z" />
<glyph unicode="?" horiz-adv-x="847" d="M129 1343v130h240q88 0 161.5 -24t127 -66t82 -101t28.5 -129q0 -76 -18.5 -134t-50 -105.5t-68.5 -83t-103 -95.5l-129 -110v-176h-159v159q0 29 1 42.5t7 25.5t18.5 25.5t36.5 33.5l96 80q45 39 83 77t67 78t44 77.5t15 72.5q0 59 -17.5 101.5t-52 70t-85 39.5 t-117.5 12h-207zM215 96q0 25 6 45.5t19.5 36t33 23.5t45.5 8q27 0 46.5 -8t33 -23.5t19.5 -36t6 -45.5t-6 -45t-19.5 -35.5t-33 -23.5t-46.5 -8t-46 8t-32.5 23.5t-19.5 36t-6 44.5z" />
<glyph unicode="@" horiz-adv-x="2064" d="M88 512q0 227 78 410.5t216 309.5t315 191.5t374 65.5q199 0 365 -57.5t287.5 -167t187 -268t65.5 -355.5q0 -139 -32.5 -259t-97 -210t-159 -139t-214.5 -49q-51 0 -90.5 10t-67 26.5t-46 34t-36.5 41.5h-8q-70 -51 -76 -56t-39 -20.5t-78 -25.5t-104 -10 q-66 0 -125.5 26.5t-107.5 83t-75.5 145.5t-27.5 210q0 145 41 256.5t113.5 186.5t165 111.5t192.5 36.5q37 0 76 -3t75.5 -9t66.5 -15t46 -22v-719q0 -37 9 -63.5t26.5 -44t44.5 -26.5t63 -9q82 0 138.5 38t89.5 106.5t47 160.5t14 207q0 164 -48 294t-142 221t-230.5 139 t-308.5 48q-168 0 -313.5 -54t-255 -161.5t-170 -263t-60.5 -352.5q0 -193 51.5 -345.5t145.5 -257t227 -158.5t295 -54q86 0 156 9t122 23.5t91 31t80 38.5h16v-159q-47 -27 -103.5 -44.5t-116.5 -26.5t-121 -13.5t-124 -4.5q-207 0 -374.5 68t-285.5 194t-180.5 304 t-62.5 395zM768 465q0 -84 14.5 -147.5t44 -105.5t72.5 -62.5t100 -20.5q27 0 55.5 9t56.5 23.5t50.5 33t38.5 36.5v641q-16 6 -30.5 11.5t-29 8.5t-31.5 4t-38 1q-63 0 -118.5 -30.5t-96.5 -88t-64.5 -137.5t-23.5 -176z" />
<glyph unicode="A" d="M0 0v25l520 1448h207l490 -1448v-25h-185l-133 399h-592l-139 -399h-168zM360 545h494l-238 727z" />
<glyph unicode="B" horiz-adv-x="1247" d="M184 0v1473h424q113 0 198 -24t140 -71t83 -115.5t28 -158.5q0 -51 -17.5 -100.5t-46 -90.5t-64.5 -71.5t-73 -48.5q61 -12 114.5 -42t94.5 -76t64.5 -111.5t23.5 -147.5q0 -80 -29.5 -154t-88 -133t-146.5 -94t-201 -35h-504zM360 143h295q74 0 132.5 15.5t101.5 49.5 t65.5 85t22.5 123t-23.5 123t-68.5 84.5t-109.5 49t-150.5 15.5h-265v-545zM360 831h361q33 20 60.5 45t50 58t36 76t13.5 94q0 59 -19.5 101t-55.5 70t-86 40t-112 12h-248v-496z" />
<glyph unicode="C" horiz-adv-x="1167" d="M72 735q0 168 52 307.5t147.5 239.5t223.5 153.5t273 53.5q57 0 107.5 -5t90.5 -14.5t69.5 -21.5t51.5 -25v-143h-16q-35 18 -70.5 29.5t-72.5 19.5t-77 11t-83 3q-119 0 -214 -41.5t-161.5 -120.5t-101.5 -188.5t-35 -240.5q0 -154 37 -270.5t104.5 -195.5t161.5 -118 t209 -39q53 0 96 5t80 15.5t70 24.5t73 35h17v-162q-43 -18 -85 -29.5t-86 -19.5t-93.5 -11t-104.5 -3q-158 0 -282.5 57t-209.5 160.5t-128 240t-43 293.5z" />
<glyph unicode="D" horiz-adv-x="1409" d="M184 0v1473h416q178 0 316.5 -47.5t231.5 -139.5t140 -226t47 -308q0 -160 -41 -296.5t-127 -238.5t-220 -159.5t-314 -57.5h-449zM360 143h265q131 0 230 43t165.5 125t99.5 197t33 260q0 133 -36 236.5t-106.5 175t-176 109.5t-242.5 38h-232v-1184z" />
<glyph unicode="E" horiz-adv-x="1056" d="M184 0v1473h744v-146h-568v-496h504v-143h-504v-545h601v-143h-777z" />
<glyph unicode="F" horiz-adv-x="1024" d="M184 0v1473h744v-146h-568v-496h504v-143h-504v-688h-176z" />
<glyph unicode="G" horiz-adv-x="1376" d="M72 752q0 170 57 307t158.5 233.5t233.5 146.5t280 50q61 0 112.5 -3t97.5 -11.5t88 -20.5t85 -31v-143h-17q-41 16 -85 28.5t-91 20.5t-94 11t-96 3q-119 0 -219.5 -39.5t-174 -115.5t-112.5 -182.5t-39 -237.5q0 -154 37 -273.5t104.5 -200.5t161.5 -123t209 -42 q35 0 68.5 3t67.5 10.5t65.5 16.5t62.5 21v492h185v-576q-49 -25 -105.5 -45t-119 -35.5t-128.5 -23.5t-129 -8q-158 0 -282.5 59t-209.5 165.5t-128 246t-43 297.5z" />
<glyph unicode="H" horiz-adv-x="1464" d="M184 0v1473h176v-625h744v625h176v-1473h-176v705h-744v-705h-176z" />
<glyph unicode="I" horiz-adv-x="552" d="M184 0v1473h176v-1473h-176z" />
<glyph unicode="J" horiz-adv-x="552" d="M-104 -113h79q53 0 93.5 20.5t66 59.5t37.5 95.5t12 130.5v1280h176v-1280q0 -92 -20.5 -173t-64.5 -143.5t-113.5 -97.5t-161.5 -35h-104v143z" />
<glyph unicode="K" d="M184 0v1473h176v-642h136l503 642h177v-25l-543 -688l543 -735v-25h-193l-512 688h-111v-688h-176z" />
<glyph unicode="L" horiz-adv-x="960" d="M184 0v1473h176v-1330h601v-143h-777z" />
<glyph unicode="M" horiz-adv-x="1728" d="M184 0v1473h185l495 -768l496 768h184v-1473h-184v1208l-479 -743h-66l-455 719v-1184h-176z" />
<glyph unicode="N" horiz-adv-x="1519" d="M184 0v1473h168l801 -1162v1162h174v-1473h-160l-807 1176v-1176h-176z" />
<glyph unicode="O" horiz-adv-x="1409" d="M72 735q0 158 42 295t122.5 240.5t199.5 161t269 57.5q156 0 274.5 -57.5t197 -161t118.5 -239.5t40 -296q0 -152 -42 -288t-122.5 -240.5t-199.5 -163.5t-266 -59q-156 0 -275 56t-198.5 158.5t-119.5 238.5t-40 298zM256 735q0 -125 27.5 -234.5t84 -193.5t141.5 -131 t196 -47t195.5 47t141 131t84 193.5t27.5 234.5t-27.5 235.5t-84 194.5t-141.5 131t-195 47q-111 0 -196 -47t-141.5 -131t-84 -193.5t-27.5 -236.5z" />
<glyph unicode="P" horiz-adv-x="1200" d="M184 0v1473h408q125 0 223 -30t167 -87.5t103.5 -140t34.5 -191.5q0 -121 -32.5 -215t-99 -160.5t-166 -101.5t-230.5 -35h-232v-512h-176zM360 655h232q88 0 153.5 25t107.5 72t62.5 115.5t20.5 156.5q0 70 -22.5 125t-66.5 95t-108.5 61.5t-146.5 21.5h-232v-672z" />
<glyph unicode="Q" horiz-adv-x="1409" d="M72 735q0 158 42 295t122.5 240.5t199.5 161t269 57.5q156 0 274.5 -57.5t197 -161t118.5 -239.5t40 -296q0 -125 -28.5 -238.5t-83 -210t-136 -166t-184.5 -104.5v-16l305 -369v-16h-247l-265 369q-154 2 -271.5 58t-196 158.5t-117.5 238.5t-39 296zM256 735 q0 -125 27.5 -234.5t84 -193.5t141.5 -131t196 -47t195.5 47t141 131t84 193.5t27.5 234.5t-27.5 235.5t-84 194.5t-141.5 131t-195 47q-111 0 -196 -47t-141.5 -131t-84 -193.5t-27.5 -236.5z" />
<glyph unicode="R" horiz-adv-x="1263" d="M184 0v1473h424q111 0 201 -23t156.5 -71t102.5 -124.5t36 -183.5q0 -68 -17.5 -129t-51.5 -113.5t-83 -96.5t-112 -77l344 -630v-25h-201l-295 592h-328v-592h-176zM360 735h367q35 20 67.5 49t61.5 68t46.5 90t17.5 115q0 72 -19.5 123t-58.5 83.5t-97.5 48 t-136.5 15.5h-248v-592z" />
<glyph unicode="S" horiz-adv-x="1040" d="M88 55v160h16q35 -20 79 -36.5t91.5 -27t92.5 -16.5t82 -6q74 0 136 17.5t106 50t68.5 81t24.5 107.5q0 51 -18 92t-50 73t-71 54.5t-86 42.5l-207 88q-59 25 -107 60.5t-81 83t-50.5 103.5t-17.5 122q0 92 38 164.5t104.5 122t152.5 74t184 24.5q39 0 81 -3t82 -9.5 t77 -15.5t66 -21v-160h-17q-35 16 -74.5 28.5t-80.5 20.5t-79 11t-71 3q-61 0 -113.5 -13t-91.5 -41.5t-60.5 -75t-21.5 -109.5q0 -49 14.5 -86t38 -63.5t52.5 -44t63 -29.5l215 -88q63 -27 117.5 -61t96.5 -80t67 -105.5t25 -130.5q0 -104 -39 -186.5t-109 -136.5 t-162.5 -81.5t-201.5 -27.5q-45 0 -93.5 5t-95.5 15t-91 23.5t-81 27.5z" />
<glyph unicode="T" horiz-adv-x="1064" d="M0 1327v146h1071v-146h-446v-1327h-176v1327h-449z" />
<glyph unicode="U" horiz-adv-x="1423" d="M184 528v945h176v-914q0 -98 19.5 -177t61.5 -135.5t109.5 -87t162.5 -30.5q94 0 160.5 30.5t106.5 87t58.5 134.5t18.5 178v914h176v-945q0 -131 -36 -232t-105.5 -171t-170 -105.5t-225.5 -35.5q-123 0 -218 35.5t-160.5 104.5t-99.5 171t-34 233z" />
<glyph unicode="V" horiz-adv-x="1183" d="M-8 1448v25h184l424 -1289l424 1289h168v-25l-504 -1448h-209z" />
<glyph unicode="W" horiz-adv-x="1824" d="M-8 1448v25h184l391 -1289l301 908l-100 356v25h184l344 -1289l369 1289h168v-25l-449 -1448h-208l-236 831l-285 -831h-206z" />
<glyph unicode="X" horiz-adv-x="1144" d="M0 0v25l477 725l-444 698v25h182l371 -576l366 576h168v-25l-450 -680l483 -743v-25h-192l-398 618l-395 -618h-168z" />
<glyph unicode="Y" horiz-adv-x="1056" d="M-8 1448v25h184l361 -746l360 746h168v-25l-449 -858v-590h-184v575z" />
<glyph unicode="Z" horiz-adv-x="1056" d="M25 0v63l751 1264h-721v146h953v-64l-744 -1266h760v-143h-999z" />
<glyph unicode="[" horiz-adv-x="575" d="M129 -256v1729h383v-130h-223v-1472h223v-127h-383z" />
<glyph unicode="\" horiz-adv-x="991" d="M63 1440v33h130l735 -1440v-33h-127z" />
<glyph unicode="]" horiz-adv-x="575" d="M63 -129h226v1472h-226v130h386v-1729h-386v127z" />
<glyph unicode="^" d="M80 223v17l479 880h96l482 -880v-17h-113l-416 785l-415 -785h-113z" />
<glyph unicode="_" horiz-adv-x="1224" d="M0 -88h1217v-96h-1217v96z" />
<glyph unicode="`" horiz-adv-x="1103" d="M129 1440v33h174l297 -289v-31h-96z" />
<glyph unicode="a" horiz-adv-x="1024" d="M72 281q0 80 37.5 140t101 97t141.5 55.5t160 18.5h152v129q0 47 -12.5 81t-39 54.5t-68.5 30.5t-104 10q-35 0 -70.5 -5t-68.5 -14.5t-62.5 -21.5t-54.5 -25h-16v146q29 12 62.5 23.5t73.5 20.5t85 14t90 5q80 0 143.5 -17t106.5 -47t68.5 -62.5t33.5 -65.5v-625 q0 -31 4.5 -49t12.5 -27.5t23.5 -13.5t39.5 -4h72v-129q-12 -4 -27.5 -6t-34 -5t-37 -4t-36.5 -1q-27 0 -52.5 6t-48 18t-39 30.5t-24.5 41.5h-12q-18 -18 -48 -34.5t-69 -31t-81 -22.5t-83 -8q-68 0 -126 17t-101 53t-67.5 93.5t-24.5 133.5zM240 289q0 -47 14 -81 t39.5 -55.5t60.5 -30.5t78 -9q29 0 62.5 8t65.5 21.5t58.5 30.5t45.5 36v256h-160q-57 0 -104.5 -9.5t-83 -29.5t-56 -54t-20.5 -83z" />
<glyph unicode="b" horiz-adv-x="1112" d="M168 0v1503l121 33h47v-592h16q25 18 53.5 32.5t62.5 25t69.5 16.5t70.5 6q98 0 177 -34t134.5 -96.5t84 -147t28.5 -187.5q0 -139 -41 -245.5t-115.5 -176t-176 -103.5t-220.5 -34h-311zM336 143h160q84 0 149.5 22.5t112.5 69t72.5 120t25.5 173.5q0 84 -17.5 149.5 t-53 111t-92 69t-134.5 23.5q-33 0 -62.5 -6.5t-57 -16.5t-53.5 -24.5t-50 -32.5v-658z" />
<glyph unicode="c" horiz-adv-x="960" d="M80 512q0 127 44 227.5t121 167t175 100t205 33.5q37 0 72.5 -3t70.5 -9t65.5 -15t55.5 -22v-143h-17q-18 12 -44.5 21.5t-60.5 15.5t-69.5 9t-72.5 3q-76 0 -142.5 -24.5t-118 -71.5t-80 -116t-28.5 -157q0 -100 26.5 -176t73.5 -125t111.5 -73.5t140.5 -24.5q41 0 80 5 t73 14.5t63.5 20.5t56.5 24h16v-146q-35 -16 -76 -28.5t-83 -20.5t-79.5 -11t-66.5 -3q-106 0 -199.5 33.5t-164 100t-109.5 166t-39 228.5z" />
<glyph unicode="d" horiz-adv-x="1112" d="M80 479q0 129 41 231.5t112.5 172t166 105.5t200.5 36q20 0 43 -3t45.5 -7t41 -10.5t30.5 -12.5h16v512l121 33h47v-1520l-96 -32h-72v79h-16q-25 -18 -52.5 -32.5t-58.5 -24.5t-67.5 -16t-77.5 -6q-90 0 -168 32.5t-135.5 96t-89 156.5t-31.5 210zM256 479 q0 -84 20.5 -148.5t59.5 -109.5t95 -68.5t128 -23.5q31 0 60.5 5t55 13.5t49.5 19.5t52 26v671q-31 6 -51 9.5t-37.5 5.5t-34 2h-45.5q-70 0 -132 -22.5t-112.5 -72t-79 -126t-28.5 -181.5z" />
<glyph unicode="e" horiz-adv-x="1040" d="M80 512q0 123 38 221t105.5 167t155.5 104.5t188 35.5q88 0 159 -24.5t120 -70.5t73.5 -107.5t24.5 -132.5q0 -18 -1 -40t-4 -44.5t-5 -44t-6 -39.5l-672 -23v-2q0 -94 23.5 -167t67.5 -121t107.5 -71.5t145.5 -23.5q37 0 71 3t66.5 10.5t66.5 19.5t68 31h17v-146 q-39 -23 -83 -36t-86 -19t-76 -7t-77 -1q-111 0 -201 34.5t-154.5 103t-98 167t-33.5 223.5zM270 641l506 23v24q0 53 -14 92t-41 65.5t-66 39t-88 12.5q-53 0 -102 -15.5t-88 -46t-65.5 -75.5t-39.5 -105z" />
<glyph unicode="f" horiz-adv-x="624" d="M41 864v144h160v129q0 94 30.5 168.5t88 126t135 78t170.5 26.5h110v-143h-110q-61 0 -108.5 -15.5t-80.5 -49.5t-50 -85t-17 -123v-112h256v-144h-256v-864h-168v864h-160z" />
<glyph unicode="g" horiz-adv-x="1056" d="M63 -193q0 51 25 93.5t63.5 72t81.5 49t86 33.5v8q-12 10 -22 22.5t-17.5 27t-11.5 30t-4 33.5q0 27 10.5 49.5t26.5 42t36.5 32.5t39.5 19v15q-61 14 -110.5 44t-86.5 73t-56.5 98t-19.5 123q0 82 30 148.5t84 111.5t125 68.5t153 23.5q31 0 60.5 -4t58 -11.5t54 -17.5 t50.5 -22h8l217 39h80v-127h-209q16 -23 27.5 -46.5t20.5 -49t13.5 -54.5t4.5 -59q0 -82 -29 -147.5t-82 -111.5t-122.5 -70t-151.5 -24h-19q-12 -10 -23.5 -22t-19.5 -25.5t-13 -26t-5 -22.5q0 -23 12 -37t31.5 -22t35 -11t50.5 -10l207 -14q51 -4 94 -17.5t75.5 -40 t51 -68.5t18.5 -99q0 -76 -44 -140.5t-120.5 -112.5t-173 -74t-196.5 -26q-82 0 -153 13.5t-125 44.5t-85 80t-31 118zM231 -176q0 -39 17.5 -66.5t48.5 -44t75 -24.5t99 -8q61 0 123.5 12t115 36.5t83 60.5t30.5 81q0 31 -7 50.5t-22.5 30.5t-42 18t-71.5 14l-176 16 q-10 0 -20.5 2t-19.5 3t-19.5 4t-18.5 5l-35 -14q-31 -12 -59.5 -30.5t-51 -41t-36 -49t-13.5 -55.5zM272 672q0 -49 12.5 -89t40 -71t71 -47t100.5 -16t99 16t67.5 46t38 71t12.5 90t-12.5 90t-38 71.5t-67.5 47t-99 16.5q-59 0 -101.5 -16.5t-70 -47t-40 -71.5t-12.5 -90z " />
<glyph unicode="h" horiz-adv-x="1175" d="M168 0v1503l121 33h47v-608h16q29 23 65 41t73.5 30.5t75.5 18.5t75 6t76 -7t78 -21.5t72.5 -39t60.5 -59.5q18 -25 33.5 -55.5t25.5 -66.5t15.5 -78t5.5 -89v-608h-168v559q0 41 -3 75t-9.5 61.5t-14.5 49t-20 39.5q-16 25 -36 42.5t-45.5 29.5t-57 18.5t-70.5 6.5 q-35 0 -68 -6.5t-62.5 -18.5t-58 -29.5t-59.5 -42.5v-784h-168z" />
<glyph unicode="i" horiz-adv-x="503" d="M143 1423q0 25 7.5 45.5t21.5 36t33.5 23.5t42.5 8t42 -8t33.5 -23.5t21.5 -36t7 -45.5t-7 -44t-21.5 -34.5t-33.5 -23.5t-42 -8t-42.5 8t-33.5 23.5t-21.5 35t-7.5 43.5zM160 0v1008l121 32h47v-1040h-168z" />
<glyph unicode="j" horiz-adv-x="503" d="M-121 -303h113q47 0 80.5 14.5t55.5 39t31 59t9 77.5v1121l121 32h47v-1120q0 -84 -20.5 -152.5t-60.5 -116.5t-102.5 -74t-144.5 -26h-129v146zM143 1423q0 25 7.5 45.5t21.5 36t33.5 23.5t42.5 8t42 -8t33.5 -23.5t21.5 -36t7 -45.5t-7 -44t-21.5 -34.5t-33.5 -23.5 t-42 -8t-42.5 8t-33.5 23.5t-21.5 35t-7.5 43.5z" />
<glyph unicode="k" horiz-adv-x="976" d="M168 0v1503l121 33h47v-928h49l375 400h184v-17l-399 -407l416 -568v-16h-201l-344 479h-80v-479h-168z" />
<glyph unicode="l" horiz-adv-x="503" d="M168 0v1503l121 33h47v-1536h-168z" />
<glyph unicode="m" horiz-adv-x="1816" d="M168 0v1008l121 32h47v-112h16q29 23 65 41t73.5 30.5t75.5 18.5t75 6q35 0 74 -7t77.5 -23.5t74.5 -40t63 -56.5h22q29 29 67 53.5t79 41t85 24.5t89 8q39 0 79 -7t79.5 -21.5t75.5 -39t63 -59.5q18 -25 32.5 -55.5t24.5 -66.5t16.5 -78t6.5 -89v-608h-168v559 q0 41 -3 75t-9.5 61.5t-15.5 49t-21 39.5q-14 23 -37 41.5t-50.5 30.5t-58.5 18.5t-61 6.5q-35 0 -65 -5.5t-57.5 -17.5t-55 -29.5t-56.5 -44.5v-784h-168v559q0 51 -1 80t-3 55.5t-9 49t-17 40.5q-16 25 -36 42.5t-45.5 29.5t-57 18.5t-70.5 6.5q-35 0 -68 -6.5 t-62.5 -18.5t-58 -29.5t-59.5 -42.5v-784h-168z" />
<glyph unicode="n" horiz-adv-x="1175" d="M168 0v1008l121 32h47v-112h16q29 23 65 41t73.5 30.5t75.5 18.5t75 6t76 -7t78 -21.5t72.5 -39t60.5 -59.5q18 -25 33.5 -55.5t25.5 -66.5t15.5 -78t5.5 -89v-608h-168v559q0 41 -3 75t-9.5 61.5t-14.5 49t-20 39.5q-16 25 -36 42.5t-45.5 29.5t-57 18.5t-70.5 6.5 q-35 0 -68 -6.5t-62.5 -18.5t-58 -29.5t-59.5 -42.5v-784h-168z" />
<glyph unicode="o" horiz-adv-x="1103" d="M80 512q0 123 36 222.5t100.5 167t150.5 103t186 35.5q106 0 193.5 -34.5t149.5 -103t95 -167t33 -223.5q0 -123 -36 -222.5t-100.5 -167t-150.5 -103t-184 -35.5q-109 0 -196 34.5t-149.5 103t-95 167t-32.5 223.5zM256 512q0 -90 19.5 -160.5t57.5 -121t93 -76 t127 -25.5t126 25.5t92 76t57.5 121t19.5 160.5t-18.5 161.5t-55.5 121t-92 76t-129 26.5q-72 0 -127 -26.5t-93 -76t-57.5 -121t-19.5 -161.5z" />
<glyph unicode="p" horiz-adv-x="1112" d="M168 -449v1457l121 32h47v-96h16q25 18 52.5 32.5t58.5 25t67.5 16.5t77.5 6q92 0 170 -33t135.5 -96.5t88 -156.5t30.5 -210q0 -129 -38 -231t-107.5 -172t-160.5 -105.5t-198 -35.5q-18 0 -42.5 3t-51 7t-48 10t-34.5 12h-16v-465h-168zM336 143q20 -6 41.5 -10t43 -7 t45 -4t46.5 -1q74 0 135.5 20.5t108.5 67.5t73.5 127t26.5 192q0 84 -19.5 149.5t-57.5 111t-93 69t-127 23.5q-31 0 -61.5 -5.5t-57 -14.5t-51 -20.5t-53.5 -25.5v-672z" />
<glyph unicode="q" horiz-adv-x="1112" d="M80 449q0 139 44 245.5t122 176t180 103.5t221 34h297v-1457h-168v512h-16q-25 -18 -53.5 -32.5t-62.5 -24.5t-69.5 -16t-70.5 -6q-94 0 -173 33.5t-135.5 96t-86 148.5t-29.5 187zM256 479q0 -84 18.5 -149.5t56.5 -109.5t94 -67.5t134 -23.5q33 0 61.5 5t55 15.5 t51.5 25.5t49 34v655h-143q-80 0 -148.5 -22.5t-120 -69.5t-80 -121t-28.5 -172z" />
<glyph unicode="r" horiz-adv-x="696" d="M168 0v1008l121 32h47v-143h16q23 35 51.5 59.5t60.5 39t64.5 21.5t63.5 7h26.5t22.5 -2t23.5 -5t23.5 -9v-160h-129q-33 0 -61.5 -4t-57 -14.5t-55.5 -30t-49 -47.5v-752h-168z" />
<glyph unicode="s" horiz-adv-x="903" d="M88 41v152h16q29 -14 66 -26.5t77 -21t81 -12.5t80 -4q49 0 90 9t71.5 28.5t47 50.5t16.5 72q0 31 -8.5 53.5t-24.5 38.5t-42 28.5t-62 22.5l-160 39q-61 16 -108.5 42t-78 60.5t-46 79.5t-15.5 99q0 72 32 127t86 91t122.5 53t142.5 17q31 0 70 -3t78.5 -9t74.5 -15 t58 -22v-143h-17q-23 12 -56.5 21.5t-71.5 15.5t-74.5 9t-67.5 3q-45 0 -82 -7t-65.5 -22.5t-45 -43t-16.5 -64.5q0 -33 8 -55.5t24.5 -39t43 -27.5t67.5 -22l176 -49q49 -12 90.5 -34.5t72 -55.5t47 -77t16.5 -97q0 -76 -31 -136.5t-86 -101t-130 -61t-163 -20.5 q-35 0 -78 4t-86 12t-79.5 18.5t-59.5 22.5z" />
<glyph unicode="t" horiz-adv-x="704" d="M41 864v144h160v239l118 33h50v-272h286v-144h-286v-592q0 -41 8 -68.5t24.5 -44t40 -23.5t54.5 -7q18 0 36.5 3t36 8t36 14.5t36.5 21.5h14v-143q-16 -12 -39.5 -21.5t-49 -15.5t-51 -9t-50.5 -3q-61 0 -109.5 14t-83 44t-53 72t-18.5 95v655h-160z" />
<glyph unicode="u" horiz-adv-x="1175" d="M160 399v609l121 32h47v-591q0 -41 3 -75t9 -61.5t15.5 -49t21.5 -40.5q14 -25 33.5 -42t45 -28.5t57.5 -17.5t71 -6q37 0 68.5 6t61 17.5t58.5 29t59 41.5v785l121 32h47v-1024l-88 -32h-80v96h-16q-29 -23 -63.5 -41.5t-72.5 -30.5t-76 -18t-75 -6q-39 0 -77.5 7 t-77.5 22.5t-73 40t-60 59.5q-18 25 -32.5 54.5t-25 65t-16.5 77.5t-6 89z" />
<glyph unicode="v" horiz-adv-x="927" d="M0 991v17h176l295 -793l281 793h168v-17l-392 -991l-63 -16h-80z" />
<glyph unicode="w" horiz-adv-x="1511" d="M0 991v17h176l281 -793l227 547l-84 229v17h176l273 -793l286 793h168v-17l-391 -991l-72 -16h-71l-215 581l-242 -565l-63 -16h-80z" />
<glyph unicode="x" horiz-adv-x="935" d="M25 0v16l348 484l-348 491v17h184l264 -375l254 375h170v-17l-340 -477l354 -498v-16h-184l-272 385l-262 -385h-168z" />
<glyph unicode="y" horiz-adv-x="927" d="M0 991v17h176l293 -783l283 783h168v-17l-400 -991l-176 -449h-168v25l199 432z" />
<glyph unicode="z" horiz-adv-x="872" d="M25 0v80l550 784h-534v144h760v-80l-545 -785h559v-143h-790z" />
<glyph unicode="{" horiz-adv-x="831" d="M63 608v127q82 4 133.5 21.5t78 46t35.5 66.5t9 92v192q0 80 23 141.5t66 100.5t101 58.5t132 19.5h127v-130h-113q-41 0 -73.5 -13t-55 -37.5t-35 -60.5t-12.5 -79v-192q0 -59 -14 -107.5t-43 -84.5t-71 -60.5t-95 -36.5q53 -12 95 -36t71 -59.5t43 -84t14 -107.5v-272 q0 -61 10.5 -107.5t31 -76t54 -44t80.5 -14.5h113v-127h-127q-76 0 -134 16.5t-100 54.5t-65 99t-23 149v322q0 53 -9 91t-35.5 66.5t-78 45t-133.5 20.5z" />
<glyph unicode="|" horiz-adv-x="559" d="M231 -449v2048h97v-2048h-97z" />
<glyph unicode="}" horiz-adv-x="831" d="M63 -129h113q47 0 81 14.5t54.5 44t30.5 75.5t10 108v272q0 59 14.5 107.5t43 84t70.5 59t95 36.5q-53 12 -95 36.5t-70.5 60.5t-43 84t-14.5 108v192q0 43 -11 79t-33.5 60.5t-56.5 37.5t-75 13h-113v130h130q74 0 132 -19.5t100 -58.5t64.5 -100.5t22.5 -141.5v-192 q0 -53 10 -91.5t37 -67t78 -46t131 -21.5v-127q-80 -4 -131 -20.5t-78 -45t-37 -66.5t-10 -91v-322q0 -88 -22.5 -149t-64.5 -99t-99 -54.5t-133 -16.5h-130v127z" />
<glyph unicode="~" d="M129 553v88q14 29 37.5 54.5t55.5 45t69 31.5t78 12q63 0 121.5 -24.5t136.5 -73.5t125 -71.5t96 -22.5q35 0 66.5 9t59 26.5t52.5 42t45 57.5h16v-86q-14 -29 -37.5 -54.5t-55 -46t-68.5 -32.5t-78 -12q-66 0 -123 24.5t-135 73.5t-125 71.5t-96 22.5q-37 0 -68 -8 t-59.5 -25.5t-52 -43t-46.5 -58.5h-14z" />
<glyph unicode="&#xa1;" horiz-adv-x="528" d="M152 1376q0 25 6 45.5t19 36t32.5 23.5t46.5 8t46.5 -8t32.5 -23.5t19 -36t6 -45.5t-6 -45t-19 -35.5t-32.5 -23.5t-46.5 -8t-46.5 8t-32.5 23.5t-19 36t-6 44.5zM176 0v449l47 575h74l47 -575v-449h-168z" />
<glyph unicode="&#xa2;" d="M80 735q0 158 47 292t132 232.5t198.5 156t247.5 69.5v180h143v-180q41 -2 79 -9.5t67.5 -15.5t53 -17t39.5 -20v-143h-16q-33 16 -68.5 28.5t-73.5 19.5t-78 11t-83 4q-119 0 -212 -41.5t-158.5 -120.5t-99.5 -188.5t-34 -240.5q0 -152 36 -269.5t102.5 -195.5 t158.5 -118t207 -40q53 0 96 5t80 15.5t70 24.5t73 35h17v-162q-33 -14 -64.5 -24.5t-65.5 -17.5t-69 -11t-74 -6v-244h-143v242q-145 8 -260 69.5t-192.5 162.5t-116.5 233.5t-39 283.5z" />
<glyph unicode="&#xa3;" d="M121 0v143h198v545h-198v143h198v209q0 104 32 186.5t89.5 136.5t135 82t167.5 28h281v-146h-289q-53 0 -97 -16.5t-76 -48t-49 -76.5t-17 -99v-256h335v-143h-335v-545h591v-143h-966z" />
<glyph unicode="&#xa4;" d="M223 424l101 100q-14 20 -25.5 45t-19 51.5t-11.5 55.5t-4 59q0 31 4 59.5t12.5 55.5t19.5 51.5t26 44.5l-103 103l80 79l103 -102q23 14 47 26.5t50.5 19.5t54.5 11t58 4q31 0 60 -4t55.5 -11t51 -18.5t44.5 -25.5l101 100l80 -79l-99 -99q16 -20 28.5 -44.5t22 -52.5 t13.5 -57.5t4 -60.5q0 -33 -4 -62.5t-13.5 -56t-20.5 -51t-28 -47.5q12 -12 49 -50t32 -32t3.5 -2t10.5 -10l-17.5 -17.5t-26 -25.5t-19.5 -20l-15 -17l-97 96q-23 -16 -47 -27.5t-51.5 -19.5t-56.5 -12t-60 -4t-59.5 4t-56 12t-52 20.5t-47.5 28.5l-98 -98zM377 735 q0 -59 17.5 -108t50 -84t76.5 -53.5t95 -18.5t96.5 17.5t79 52t53 84t19.5 110.5t-19.5 109.5t-53 81t-78.5 49t-97 16.5q-51 0 -95 -16.5t-76.5 -49t-50 -80.5t-17.5 -110z" />
<glyph unicode="&#xa5;" d="M72 1448v25h184l360 -625l361 625h168v-25l-449 -743v-89h328v-145h-328v-143h328v-144h-328v-184h-184v184h-319v144h319v143h-319v145h319v76z" />
<glyph unicode="&#xa6;" horiz-adv-x="559" d="M231 319h97v-768h-97v768zM231 831v768h97v-768h-97z" />
<glyph unicode="&#xa7;" horiz-adv-x="1087" d="M96 559q0 20 4 44t12.5 46.5t17.5 43t22 34.5h104q-2 -6 -5 -15.5t-6 -21.5t-4 -23.5t-1 -19.5q0 -37 3 -59.5t17 -47t45 -52t86 -64.5l250 -160q55 -35 98 -76t75 -87t49.5 -98t17.5 -107q0 -78 -32 -142.5t-89.5 -109.5t-133 -69t-161.5 -24q-43 0 -89 8.5t-88 21.5 t-74 26.5t-46 23.5v168h8q20 -18 51 -35.5t70 -33t84 -24.5t90 -9q57 0 101 11t74 35t44.5 59.5t14.5 84.5q0 39 -9.5 73t-29 62.5t-49 56t-72.5 56.5l-248 162q-49 31 -80 53.5t-59.5 53t-45 68.5t-16.5 87zM209 1145q0 80 31.5 143.5t88 108.5t132.5 68.5t164 23.5 q41 0 88 -8t88 -21.5t72.5 -27t46.5 -23.5v-170h-9q-20 18 -51 36.5t-69.5 34t-82.5 24.5t-92 9q-57 0 -100 -11t-72.5 -34.5t-44 -59.5t-14.5 -85q0 -39 9 -72.5t27.5 -63.5t49.5 -57.5t74 -56.5l248 -160q49 -31 79.5 -53t58 -53t44 -70t16.5 -88q0 -20 -4 -43.5t-11 -46 t-17.5 -43.5t-22.5 -35h-105l5.5 16.5t6.5 22.5t4 23.5t1 17.5q0 39 -3 60.5t-16.5 47t-45 54.5t-87.5 63l-247 160q-55 35 -99.5 75t-75 86t-48 98t-17.5 110z" />
<glyph unicode="&#xa8;" horiz-adv-x="1103" d="M248 1313q0 25 7 44t21.5 34.5t34 23.5t41.5 8q23 0 42.5 -8t33.5 -23.5t21.5 -35t7.5 -43.5q0 -25 -7.5 -45.5t-21.5 -35.5t-33.5 -23.5t-42.5 -8.5t-42 8.5t-33.5 23.5t-21.5 35.5t-7 45.5zM664 1313q0 25 7 44t21.5 34.5t33.5 23.5t42 8t42 -8t33.5 -23.5t21.5 -35 t7 -43.5q0 -25 -7 -45.5t-21.5 -35.5t-33.5 -23.5t-42 -8.5t-42 8.5t-33.5 23.5t-21.5 35.5t-7 45.5z" />
<glyph unicode="&#xa9;" horiz-adv-x="1759" d="M96 735q0 166 58.5 305.5t165 239.5t251 154.5t310.5 54.5t309 -54.5t250.5 -154.5t166 -239.5t58.5 -305.5q0 -164 -58.5 -303t-166 -239.5t-250.5 -154.5t-309 -54t-310.5 54t-251 154.5t-165 239.5t-58.5 303zM223 735q0 -137 46 -253.5t133 -204t209.5 -134.5 t269.5 -47t269 47t208 134.5t132 204t46 253.5t-46 255t-132 205t-208 134t-269 47t-269.5 -47t-209.5 -134t-133 -205t-46 -255zM479 735q0 111 39 191t106.5 130t153.5 73.5t183 23.5q27 0 51 -3t47.5 -7t45 -9.5t48.5 -13.5v-96q-27 8 -48.5 13t-45 9.5t-48 7.5t-50.5 3 q-68 0 -126.5 -19.5t-101.5 -58.5t-67.5 -100.5t-24.5 -143.5t24.5 -142.5t67.5 -100t101.5 -58t126.5 -18.5q31 0 58.5 3t50 7t41.5 9t42 14v-97q-23 -8 -42 -13t-41.5 -9t-50 -7.5t-58.5 -3.5q-96 0 -182.5 24t-154 73t-106.5 130t-39 189z" />
<glyph unicode="&#xaa;" horiz-adv-x="839" d="M55 889q0 61 30 110.5t84 84t126 52t154 17.5h88v72q0 39 -12.5 63.5t-36 37.5t-58.5 19.5t-86 6.5q-27 0 -52.5 -3t-51 -9.5t-51 -14.5t-54.5 -20h-14v127q37 14 59.5 22t53 16.5t67.5 13.5t76 5q53 0 98 -7t85 -22.5t73 -42t55 -65.5v-504q0 -25 5 -38t14.5 -21.5 t23.5 -10.5t37 -2h47v-104q-10 -6 -24.5 -9.5t-28.5 -5.5t-27.5 -2h-29.5q-23 0 -44.5 5.5t-40 15.5t-34 23.5t-23.5 27.5h-18q-20 -12 -44 -24.5t-52.5 -23.5t-59 -17.5t-61.5 -6.5q-63 0 -113.5 15.5t-86.5 44t-54.5 72.5t-18.5 102zM209 897q0 -33 9 -56.5t27.5 -38 t47.5 -20.5t67 -6q27 0 51.5 5t47 14.5t39 17.5t39.5 21v198h-97q-53 0 -95 -8t-72.5 -24.5t-47 -42t-16.5 -60.5z" />
<glyph unicode="&#xab;" horiz-adv-x="1120" d="M63 479v193l449 305h33v-137l-369 -265l369 -264v-135h-33zM545 479v193l446 305h33v-137l-369 -265l369 -264v-135h-33z" />
<glyph unicode="&#xac;" d="M129 655v97h958v-543h-96v446h-862z" />
<glyph unicode="&#xad;" horiz-adv-x="831" d="M129 641v127h576v-127h-576z" />
<glyph unicode="&#xae;" horiz-adv-x="1759" d="M96 735q0 166 58.5 305.5t165 239.5t251 154.5t310.5 54.5t309 -54.5t250.5 -154.5t166 -239.5t58.5 -305.5q0 -164 -58.5 -303t-166 -239.5t-250.5 -154.5t-309 -54t-310.5 54t-251 154.5t-165 239.5t-58.5 303zM223 735q0 -137 46 -253.5t133 -204t209.5 -134.5 t269.5 -47t269 47t208 134.5t132 204t46 253.5t-46 255t-132 205t-208 134t-269 47t-269.5 -47t-209.5 -134t-133 -205t-46 -255zM575 319v834h273q68 0 127 -11.5t106 -40t75 -79.5t28 -125q0 -43 -11.5 -80t-33 -66.5t-53 -52t-70.5 -34.5l190 -328v-17h-166l-159 289 h-146v-289h-160zM735 705h113q37 0 68.5 12t56 35.5t38 60.5t13.5 84q0 41 -13.5 70.5t-38 50t-56 30t-68.5 9.5h-113v-352z" />
<glyph unicode="&#xaf;" horiz-adv-x="1103" d="M248 1255v105h641v-105h-641z" />
<glyph unicode="&#xb0;" horiz-adv-x="872" d="M55 1071q0 82 21.5 157t66.5 133t118 93t171 35q100 0 175 -35t120 -93t66.5 -133t21.5 -157q0 -84 -22.5 -157.5t-68.5 -132t-120 -92.5t-172 -34t-171 34t-118 91.5t-66.5 132t-21.5 158.5zM215 1071q0 -57 11.5 -106.5t36 -88t66.5 -61t103 -22.5t104.5 22.5t69 61 t37.5 88t12 106.5t-12 107.5t-37.5 89.5t-68.5 61.5t-105 22.5q-61 0 -103 -22.5t-66.5 -61.5t-36 -89.5t-11.5 -107.5z" />
<glyph unicode="&#xb1;" d="M129 0h958v-96h-958v96zM129 655v97h430v448h96v-448h432v-97h-432v-446h-96v446h-430z" />
<glyph unicode="&#xb2;" horiz-adv-x="872" d="M80 672v96l217 143q80 55 133 96.5t87 77t50.5 69.5t16.5 71q0 27 -11.5 50t-34 40.5t-57.5 27t-82 9.5q-39 0 -76.5 -6.5t-70.5 -17.5t-61.5 -25.5t-55.5 -30.5h-14v143q25 16 55.5 29.5t68.5 24t81 15.5t90 5q84 0 146.5 -18.5t105.5 -53.5t63.5 -84t20.5 -108 q0 -57 -20.5 -105.5t-58.5 -88.5t-87 -76.5t-129 -90.5l-97 -63h441v-129h-721z" />
<glyph unicode="&#xb3;" horiz-adv-x="872" d="M80 705v126h16q31 -12 64 -20t67.5 -14t72.5 -9.5t77 -3.5q57 0 101 5.5t77 19.5t51.5 36.5t18.5 57.5q0 33 -16.5 54.5t-46.5 35t-70.5 18.5t-92.5 5h-135v104l121 17q43 6 80 16t65.5 25.5t45 37t16.5 48.5q0 33 -14.5 53t-41 31.5t-63.5 15.5t-88 4q-31 0 -65.5 -5 t-68.5 -13.5t-62.5 -17.5t-53.5 -19h-14v127q25 10 55.5 18t67.5 15.5t76.5 11.5t78.5 4q84 0 147.5 -11.5t107.5 -36t66.5 -62.5t22.5 -91q0 -37 -10 -66.5t-30.5 -53t-50 -42t-68.5 -30.5q47 -6 85 -23.5t63.5 -43t38.5 -59.5t13 -73q0 -59 -29.5 -105.5t-83 -76t-126 -45 t-160.5 -15.5q-39 0 -79 3.5t-80 9.5t-76.5 15t-69.5 22z" />
<glyph unicode="&#xb4;" horiz-adv-x="1103" d="M520 1153v31l295 289h176v-33l-375 -287h-96z" />
<glyph unicode="&#xb5;" horiz-adv-x="1175" d="M160 -449v1457l121 32h47v-591q0 -41 3 -75t9 -61.5t15.5 -49t21.5 -40.5q14 -25 33.5 -42t45 -28.5t57.5 -17.5t71 -6q37 0 68.5 6t61 17.5t58.5 29t59 41.5v785l121 32h47v-1024l-88 -32h-80v96h-16q-29 -23 -63.5 -41.5t-72.5 -30.5t-76 -18t-75 -6q-25 0 -50 3t-51 9 t-51.5 15t-47.5 24v-484h-168z" />
<glyph unicode="&#xb6;" horiz-adv-x="1536" d="M63 897q0 139 44.5 247.5t123 181.5t183 110t227.5 37h256v-1922h-129v768h-127q-121 0 -226.5 37t-184 110t-123 181.5t-44.5 249.5zM1153 -449v1922h160v-1922h-160z" />
<glyph unicode="&#xb7;" horiz-adv-x="575" d="M160 801q0 25 9 44t24.5 34.5t38 23.5t49.5 8t48 -8t37.5 -23.5t24.5 -35t8 -43.5q0 -25 -8 -45.5t-24.5 -35.5t-37.5 -23.5t-48 -8.5t-49.5 8.5t-38 23.5t-24.5 35.5t-9 45.5z" />
<glyph unicode="&#xb8;" horiz-adv-x="1103" d="M336 -319h16q29 -10 37 -13.5t26.5 -8.5t41 -8t47.5 -3t45 5t35.5 14t23.5 24.5t8 36.5q0 20 -9 35.5t-25.5 25.5t-29.5 16.5t-48 18.5l-64 24v23l88 96h113l-74 -80l49 -16q20 -6 41 -17.5t38.5 -29t28.5 -42t11 -54.5q0 -39 -16.5 -72t-46 -56.5t-72.5 -36t-96 -12.5 q-25 0 -50.5 4.5t-47 10.5t-39 13t-31.5 13v89z" />
<glyph unicode="&#xb9;" horiz-adv-x="872" d="M104 1200v143l383 138h97v-809h-168v624l-295 -96h-17z" />
<glyph unicode="&#xba;" horiz-adv-x="864" d="M55 1065q0 96 27 174t76 134.5t118.5 86t155.5 29.5t155.5 -29.5t119 -86t76 -134.5t26.5 -174q0 -94 -25.5 -171t-76 -130t-120 -81t-155.5 -28t-155.5 28t-120 81t-76 130t-25.5 171zM215 1065q0 -68 15.5 -121t44 -88t68.5 -53.5t89 -18.5q47 0 87 18.5t68.5 53.5 t44 88t15.5 121t-14.5 123t-42 93t-67.5 58.5t-91 20.5q-47 0 -88 -20.5t-69.5 -59.5t-44 -93t-15.5 -122z" />
<glyph unicode="&#xbb;" horiz-adv-x="1120" d="M96 176v135l369 264l-369 265v137h33l446 -305v-193l-446 -303h-33zM575 176v135l369 264l-369 265v137h33l449 -305v-193l-449 -303h-33z" />
<glyph unicode="&#xbc;" horiz-adv-x="1792" d="M104 1200v143l383 138h97v-809h-168v624l-295 -96h-17zM449 0v25l798 1448h96v-25l-798 -1448h-96zM983 176v127l465 512h143v-518h146v-121h-146v-176h-159v176h-449zM1120 297h312v336z" />
<glyph unicode="&#xbd;" horiz-adv-x="1792" d="M104 1200v143l383 138h97v-809h-168v624l-295 -96h-17zM449 0v25l798 1448h96v-25l-798 -1448h-96zM999 0v96l218 144q80 55 133 96t86.5 77t50 69.5t16.5 70.5q0 27 -11 50.5t-32.5 41t-56.5 26.5t-82 9q-41 0 -79 -6t-70.5 -17.5t-60.5 -26t-54 -30.5h-17v143 q25 16 55.5 28.5t68.5 23t81 15.5t90 5q84 0 146.5 -18.5t105.5 -52t63.5 -83t20.5 -108.5t-20.5 -106.5t-57.5 -88.5t-86 -76.5t-131 -88.5l-96 -64h440v-129h-721z" />
<glyph unicode="&#xbe;" horiz-adv-x="1792" d="M80 705v126h16q31 -12 64 -20t67.5 -14t72.5 -9.5t77 -3.5q57 0 101 5.5t77 19.5t51.5 36.5t18.5 57.5q0 33 -16.5 54.5t-46.5 35t-70.5 18.5t-92.5 5h-135v104l121 17q43 6 80 16t65.5 25.5t45 37t16.5 48.5q0 33 -14.5 53t-41 31.5t-63.5 15.5t-88 4q-31 0 -65.5 -5 t-68.5 -13.5t-62.5 -17.5t-53.5 -19h-14v127q25 10 55.5 18t67.5 15.5t76.5 11.5t78.5 4q84 0 147.5 -11.5t107.5 -36t66.5 -62.5t22.5 -91q0 -37 -10 -66.5t-30.5 -53t-50 -42t-68.5 -30.5q47 -6 85 -23.5t63.5 -43t38.5 -59.5t13 -73q0 -59 -29.5 -105.5t-83 -76t-126 -45 t-160.5 -15.5q-39 0 -79 3.5t-80 9.5t-76.5 15t-69.5 22zM449 0v25l798 1448h96v-25l-798 -1448h-96zM983 176v127l465 512h143v-518h146v-121h-146v-176h-159v176h-449zM1120 297h312v336z" />
<glyph unicode="&#xbf;" horiz-adv-x="847" d="M80 319q0 76 18.5 134.5t50 105.5t68.5 83t102 93l130 113v176h159v-160q0 -29 -1 -42t-6 -25.5t-18.5 -26.5t-37.5 -35l-96 -80q-47 -39 -85 -77.5t-66 -76.5t-43 -76t-15 -73q0 -59 17 -101t52 -69.5t85 -40t118 -12.5h209v-129h-242q-88 0 -161.5 22.5t-127 65.5 t-82 102.5t-28.5 128.5zM424 1376q0 25 6 45.5t19.5 36t33 23.5t45.5 8q27 0 46.5 -8t33 -23.5t19.5 -36t6 -45.5t-6 -45t-19.5 -35.5t-33 -23.5t-46.5 -8t-46 8t-32.5 23.5t-19.5 36t-6 44.5z" />
<glyph unicode="&#xc0;" d="M0 0v25l520 1448h207l490 -1448v-25h-185l-133 399h-592l-139 -399h-168zM334 1905v32h174l297 -288v-31h-96zM360 545h494l-238 727z" />
<glyph unicode="&#xc1;" d="M0 0v25l520 1448h207l490 -1448v-25h-185l-133 399h-592l-139 -399h-168zM360 545h494l-238 727zM432 1618v31l295 288h176v-32l-375 -287h-96z" />
<glyph unicode="&#xc2;" d="M0 0v25l520 1448h207l490 -1448v-25h-185l-133 399h-592l-139 -399h-168zM311 1618v31l224 288h145l223 -288v-31h-88l-209 215l-207 -215h-88zM360 545h494l-238 727z" />
<glyph unicode="&#xc3;" d="M0 0v25l520 1448h207l490 -1448v-25h-185l-133 399h-592l-139 -399h-168zM231 1618v31q4 55 17.5 107t40 93t66.5 64.5t91 23.5q59 0 101.5 -28.5t88.5 -85t70.5 -80t61.5 -23.5q33 0 55.5 19.5t34.5 50.5t18.5 66.5t10.5 80.5h96v-32q-4 -55 -17.5 -106.5t-40 -92.5 t-66.5 -64.5t-91 -23.5q-59 0 -101 28.5t-88.5 85t-71 79t-61.5 22.5q-35 0 -57 -19.5t-34.5 -50t-17.5 -65.5t-9 -80h-97zM360 545h494l-238 727z" />
<glyph unicode="&#xc4;" d="M0 0v25l520 1448h207l490 -1448v-25h-185l-133 399h-592l-139 -399h-168zM295 1778q0 25 7 44t21.5 34.5t34 23.5t41.5 8q23 0 42.5 -8t33.5 -23.5t21.5 -35t7.5 -43.5q0 -25 -7.5 -45.5t-21.5 -36t-33.5 -23.5t-42.5 -8t-42 8t-33.5 23.5t-21.5 36t-7 45.5zM360 545h494 l-238 727zM711 1778q0 25 7 44t21.5 34.5t34 23.5t41.5 8q23 0 42.5 -8t33.5 -23.5t21.5 -35t7.5 -43.5q0 -25 -7.5 -45.5t-21.5 -36t-33.5 -23.5t-42.5 -8t-42 8t-33.5 23.5t-21.5 36t-7 45.5z" />
<glyph unicode="&#xc5;" d="M0 0v25l520 1448h207l490 -1448v-25h-185l-133 399h-592l-139 -399h-168zM336 1778q0 41 19.5 76.5t56.5 63.5t86 43t108 15t109.5 -15t87.5 -42t56.5 -63.5t19.5 -77.5t-19.5 -78t-56.5 -64.5t-87.5 -43t-109.5 -15.5t-108 15.5t-86 43t-56.5 64.5t-19.5 78zM360 545 h494l-238 727zM432 1778q0 -31 11.5 -53.5t34 -38t55 -22.5t73.5 -7q43 0 76 7t55.5 22.5t33.5 38t11 53.5t-11 52t-33.5 36.5t-55.5 22.5t-76 7q-41 0 -73.5 -7t-55 -22.5t-34 -38t-11.5 -50.5z" />
<glyph unicode="&#xc6;" horiz-adv-x="1665" d="M0 0v33l608 1440h928v-146h-553v-496h490v-143h-490v-545h586v-143h-760v399h-477l-164 -399h-168zM389 545h420v782h-96z" />
<glyph unicode="&#xc7;" horiz-adv-x="1167" d="M72 735q0 168 52 307.5t147.5 239.5t223.5 153.5t273 53.5q57 0 107.5 -5t90.5 -14.5t69.5 -21.5t51.5 -25v-143h-16q-35 18 -70.5 29.5t-72.5 19.5t-77 11t-83 3q-119 0 -214 -41.5t-161.5 -120.5t-101.5 -188.5t-35 -240.5q0 -154 37 -270.5t104.5 -195.5t161.5 -118 t209 -39q53 0 96 5t80 15.5t70 24.5t73 35h17v-162q-43 -18 -85 -29.5t-86 -19.5t-93.5 -11t-104.5 -3q-158 0 -282.5 57t-209.5 160.5t-128 240t-43 293.5zM465 -319h16q29 -10 37 -13.5t26.5 -8.5t41 -8t47.5 -3t45 5t35.5 14t23.5 24.5t8 36.5q0 20 -9 35.5t-25.5 25.5 t-29.5 16.5t-48 18.5l-64 24v23l88 96h113l-74 -80l49 -16q20 -6 41 -17.5t38.5 -29t28.5 -42t11 -54.5q0 -39 -16.5 -72t-46 -56.5t-72.5 -36t-96 -12.5q-25 0 -50.5 4.5t-47 10.5t-39 13t-31.5 13v89z" />
<glyph unicode="&#xc8;" horiz-adv-x="1056" d="M184 0v1473h744v-146h-568v-496h504v-143h-504v-545h601v-143h-777zM254 1905v32h174l297 -288v-31h-96z" />
<glyph unicode="&#xc9;" horiz-adv-x="1056" d="M184 0v1473h744v-146h-568v-496h504v-143h-504v-545h601v-143h-777zM362 1618v31l295 288h177v-32l-375 -287h-97z" />
<glyph unicode="&#xca;" horiz-adv-x="1056" d="M184 0v1473h744v-146h-568v-496h504v-143h-504v-545h601v-143h-777zM252 1618v31l223 288h146l223 -288v-31h-88l-209 215l-207 -215h-88z" />
<glyph unicode="&#xcb;" horiz-adv-x="1056" d="M184 0v1473h744v-146h-568v-496h504v-143h-504v-545h601v-143h-777zM236 1778q0 25 7 44t21.5 34.5t33.5 23.5t42 8t42 -8t33.5 -23.5t21.5 -35t7 -43.5q0 -25 -7 -45.5t-21.5 -36t-33.5 -23.5t-42 -8t-42 8t-33.5 23.5t-21.5 36t-7 45.5zM651 1778q0 25 7.5 44 t21.5 34.5t33.5 23.5t42.5 8t42 -8t33.5 -23.5t21.5 -35t7 -43.5q0 -25 -7 -45.5t-21.5 -36t-33.5 -23.5t-42 -8t-42.5 8t-33.5 23.5t-21.5 36t-7.5 45.5z" />
<glyph unicode="&#xcc;" horiz-adv-x="552" d="M20 1905v32h175l297 -288v-31h-97zM184 0v1473h176v-1473h-176z" />
<glyph unicode="&#xcd;" horiz-adv-x="552" d="M59 1618v31l295 288h176v-32l-374 -287h-97zM184 0v1473h176v-1473h-176z" />
<glyph unicode="&#xce;" horiz-adv-x="552" d="M-20 1618v31l223 288h145l223 -288v-31h-88l-209 215l-206 -215h-88zM184 0v1473h176v-1473h-176z" />
<glyph unicode="&#xcf;" horiz-adv-x="552" d="M-37 1778q0 25 7 44t21.5 34.5t34 23.5t42.5 8t42 -8t33.5 -23.5t21.5 -35t7 -43.5q0 -25 -7 -45.5t-21.5 -36t-33.5 -23.5t-42 -8t-42.5 8t-34 23.5t-21.5 36t-7 45.5zM184 0v1473h176v-1473h-176zM379 1778q0 25 7 44t21.5 34.5t34 23.5t41.5 8q23 0 42.5 -8 t33.5 -23.5t21.5 -35t7.5 -43.5q0 -25 -7.5 -45.5t-21.5 -36t-33.5 -23.5t-42.5 -8t-42 8t-33.5 23.5t-21.5 36t-7 45.5z" />
<glyph unicode="&#xd0;" horiz-adv-x="1409" d="M55 688v143h129v642h416q178 0 316.5 -47.5t231.5 -139.5t140 -226t47 -308q0 -160 -41 -296.5t-127 -238.5t-220 -159.5t-314 -57.5h-449v688h-129zM360 143h265q131 0 230 43t165.5 125t99.5 197t33 260q0 133 -36 236.5t-106.5 175t-176 109.5t-242.5 38h-232v-496 h345v-143h-345v-545z" />
<glyph unicode="&#xd1;" horiz-adv-x="1519" d="M184 0v1473h168l801 -1162v1162h174v-1473h-160l-807 1176v-1176h-176zM414 1618v31q4 55 17 107t40 93t67 64.5t91 23.5q59 0 101 -28.5t88 -85t70.5 -80t61.5 -23.5q33 0 55.5 19.5t35 50.5t18.5 66.5t10 80.5h96v-32q-4 -55 -17 -106.5t-40 -92.5t-67 -64.5t-91 -23.5 q-59 0 -101 28.5t-88 85t-70.5 79t-61.5 22.5q-35 0 -57.5 -19.5t-35 -50t-17.5 -65.5t-9 -80h-96z" />
<glyph unicode="&#xd2;" horiz-adv-x="1409" d="M72 735q0 158 42 295t122.5 240.5t199.5 161t269 57.5q156 0 274.5 -57.5t197 -161t118.5 -239.5t40 -296q0 -152 -42 -288t-122.5 -240.5t-199.5 -163.5t-266 -59q-156 0 -275 56t-198.5 158.5t-119.5 238.5t-40 298zM256 735q0 -125 27.5 -234.5t84 -193.5t141.5 -131 t196 -47t195.5 47t141 131t84 193.5t27.5 234.5t-27.5 235.5t-84 194.5t-141.5 131t-195 47q-111 0 -196 -47t-141.5 -131t-84 -193.5t-27.5 -236.5zM449 1905v32h174l297 -288v-31h-97z" />
<glyph unicode="&#xd3;" horiz-adv-x="1409" d="M72 735q0 158 42 295t122.5 240.5t199.5 161t269 57.5q156 0 274.5 -57.5t197 -161t118.5 -239.5t40 -296q0 -152 -42 -288t-122.5 -240.5t-199.5 -163.5t-266 -59q-156 0 -275 56t-198.5 158.5t-119.5 238.5t-40 298zM256 735q0 -125 27.5 -234.5t84 -193.5t141.5 -131 t196 -47t195.5 47t141 131t84 193.5t27.5 234.5t-27.5 235.5t-84 194.5t-141.5 131t-195 47q-111 0 -196 -47t-141.5 -131t-84 -193.5t-27.5 -236.5zM512 1618v31l295 288h176v-32l-375 -287h-96z" />
<glyph unicode="&#xd4;" horiz-adv-x="1409" d="M72 735q0 158 42 295t122.5 240.5t199.5 161t269 57.5q156 0 274.5 -57.5t197 -161t118.5 -239.5t40 -296q0 -152 -42 -288t-122.5 -240.5t-199.5 -163.5t-266 -59q-156 0 -275 56t-198.5 158.5t-119.5 238.5t-40 298zM256 735q0 -125 27.5 -234.5t84 -193.5t141.5 -131 t196 -47t195.5 47t141 131t84 193.5t27.5 234.5t-27.5 235.5t-84 194.5t-141.5 131t-195 47q-111 0 -196 -47t-141.5 -131t-84 -193.5t-27.5 -236.5zM408 1618v31l223 288h145l223 -288v-31h-88l-209 215l-206 -215h-88z" />
<glyph unicode="&#xd5;" horiz-adv-x="1409" d="M72 735q0 158 42 295t122.5 240.5t199.5 161t269 57.5q156 0 274.5 -57.5t197 -161t118.5 -239.5t40 -296q0 -152 -42 -288t-122.5 -240.5t-199.5 -163.5t-266 -59q-156 0 -275 56t-198.5 158.5t-119.5 238.5t-40 298zM256 735q0 -125 27.5 -234.5t84 -193.5t141.5 -131 t196 -47t195.5 47t141 131t84 193.5t27.5 234.5t-27.5 235.5t-84 194.5t-141.5 131t-195 47q-111 0 -196 -47t-141.5 -131t-84 -193.5t-27.5 -236.5zM328 1618v31q4 55 17 107t40 93t67 64.5t91 23.5q59 0 101 -28.5t88 -85t70.5 -80t61.5 -23.5q33 0 55.5 19.5t35 50.5 t18.5 66.5t10 80.5h96v-32q-4 -55 -17 -106.5t-40 -92.5t-67 -64.5t-91 -23.5q-59 0 -101 28.5t-88 85t-70.5 79t-61.5 22.5q-35 0 -57.5 -19.5t-35 -50t-17.5 -65.5t-9 -80h-96z" />
<glyph unicode="&#xd6;" horiz-adv-x="1409" d="M72 735q0 158 42 295t122.5 240.5t199.5 161t269 57.5q156 0 274.5 -57.5t197 -161t118.5 -239.5t40 -296q0 -152 -42 -288t-122.5 -240.5t-199.5 -163.5t-266 -59q-156 0 -275 56t-198.5 158.5t-119.5 238.5t-40 298zM256 735q0 -125 27.5 -234.5t84 -193.5t141.5 -131 t196 -47t195.5 47t141 131t84 193.5t27.5 234.5t-27.5 235.5t-84 194.5t-141.5 131t-195 47q-111 0 -196 -47t-141.5 -131t-84 -193.5t-27.5 -236.5zM391 1778q0 25 7.5 44t21.5 34.5t33.5 23.5t42.5 8t42 -8t33.5 -23.5t21.5 -35t7 -43.5q0 -25 -7 -45.5t-21.5 -36 t-33.5 -23.5t-42 -8t-42.5 8t-33.5 23.5t-21.5 36t-7.5 45.5zM807 1778q0 25 7 44t21.5 34.5t34 23.5t41.5 8q23 0 42.5 -8t33.5 -23.5t21.5 -35t7.5 -43.5q0 -25 -7.5 -45.5t-21.5 -36t-33.5 -23.5t-42.5 -8t-42 8t-33.5 23.5t-21.5 36t-7 45.5z" />
<glyph unicode="&#xd7;" d="M129 240v129l393 327l-393 328v129h14l465 -385l463 385h16v-129l-393 -328l393 -327v-129h-16l-463 385l-465 -385h-14z" />
<glyph unicode="&#xd8;" horiz-adv-x="1409" d="M63 0v33l152 184q-35 51 -61.5 109.5t-45 124t-27.5 137t-9 147.5q0 158 42 295t122.5 240.5t199.5 161t269 57.5q68 0 127 -11.5t112 -32t99.5 -51t84.5 -69.5l119 148h96v-33l-153 -189q37 -49 64.5 -107.5t45 -124t26.5 -137t9 -147.5q0 -152 -42 -288t-122.5 -240.5 t-199.5 -163.5t-266 -59q-68 0 -128.5 10t-113.5 31.5t-99.5 50t-84.5 67.5l-119 -143h-97zM256 735q0 -51 5 -101t14.5 -97.5t24.5 -91.5t34 -83l686 832q-29 35 -62.5 62.5t-72.5 47t-85 29.5t-95 10q-111 0 -196 -47t-141.5 -131t-84 -193.5t-27.5 -236.5zM387 279 q29 -37 62.5 -65t72.5 -46t85.5 -28.5t97.5 -10.5q111 0 195.5 47t141 131t84 193.5t27.5 234.5q0 53 -5 103.5t-15.5 97.5t-25.5 91t-36 83z" />
<glyph unicode="&#xd9;" horiz-adv-x="1423" d="M184 528v945h176v-914q0 -98 19.5 -177t61.5 -135.5t109.5 -87t162.5 -30.5q94 0 160.5 30.5t106.5 87t58.5 134.5t18.5 178v914h176v-945q0 -131 -36 -232t-105.5 -171t-170 -105.5t-225.5 -35.5q-123 0 -218 35.5t-160.5 104.5t-99.5 171t-34 233zM436 1905v32h174 l297 -288v-31h-96z" />
<glyph unicode="&#xda;" horiz-adv-x="1423" d="M184 528v945h176v-914q0 -98 19.5 -177t61.5 -135.5t109.5 -87t162.5 -30.5q94 0 160.5 30.5t106.5 87t58.5 134.5t18.5 178v914h176v-945q0 -131 -36 -232t-105.5 -171t-170 -105.5t-225.5 -35.5q-123 0 -218 35.5t-160.5 104.5t-99.5 171t-34 233zM520 1618v31l295 288 h176v-32l-375 -287h-96z" />
<glyph unicode="&#xdb;" horiz-adv-x="1423" d="M184 528v945h176v-914q0 -98 19.5 -177t61.5 -135.5t109.5 -87t162.5 -30.5q94 0 160.5 30.5t106.5 87t58.5 134.5t18.5 178v914h176v-945q0 -131 -36 -232t-105.5 -171t-170 -105.5t-225.5 -35.5q-123 0 -218 35.5t-160.5 104.5t-99.5 171t-34 233zM416 1618v31l223 288 h145l224 -288v-31h-88l-209 215l-207 -215h-88z" />
<glyph unicode="&#xdc;" horiz-adv-x="1423" d="M184 528v945h176v-914q0 -98 19.5 -177t61.5 -135.5t109.5 -87t162.5 -30.5q94 0 160.5 30.5t106.5 87t58.5 134.5t18.5 178v914h176v-945q0 -131 -36 -232t-105.5 -171t-170 -105.5t-225.5 -35.5q-123 0 -218 35.5t-160.5 104.5t-99.5 171t-34 233zM399 1778 q0 25 7.5 44t21.5 34.5t33.5 23.5t42.5 8t42 -8t33.5 -23.5t21.5 -35t7 -43.5q0 -25 -7 -45.5t-21.5 -36t-33.5 -23.5t-42 -8t-42.5 8t-33.5 23.5t-21.5 36t-7.5 45.5zM815 1778q0 25 7 44t21.5 34.5t34 23.5t42.5 8t42 -8t33.5 -23.5t21.5 -35t7 -43.5q0 -25 -7 -45.5 t-21.5 -36t-33.5 -23.5t-42 -8t-42.5 8t-34 23.5t-21.5 36t-7 45.5z" />
<glyph unicode="&#xdd;" horiz-adv-x="1056" d="M-8 1448v25h184l361 -746l360 746h168v-25l-449 -858v-590h-184v575zM412 1618v31l295 288h176v-32l-375 -287h-96z" />
<glyph unicode="&#xde;" horiz-adv-x="1200" d="M184 0v1473h176v-256h232q125 0 223 -30t167 -87.5t103.5 -140t34.5 -191.5q0 -121 -32.5 -215t-99 -160.5t-166 -101.5t-230.5 -35h-232v-256h-176zM360 399h232q86 0 150.5 23.5t107.5 71t64.5 116t21.5 158.5q0 72 -23.5 128t-67.5 95t-107.5 59.5t-145.5 20.5h-232 v-672z" />
<glyph unicode="&#xdf;" horiz-adv-x="1304" d="M41 864v144h160v104q0 96 36.5 175t101 135.5t148.5 85t177 28.5q78 0 148.5 -16.5t125.5 -51t87 -90t32 -131.5q0 -49 -15.5 -92t-39 -74.5t-16.5 -24.5t-83 -79q-2 -2 -32.5 -32t-47 -51.5t-28 -45t-11.5 -47.5q0 -31 7.5 -52.5t22.5 -39t37.5 -34t59.5 -34.5l113 -66 q47 -25 81 -52t57.5 -60t34.5 -73t11 -87q0 -74 -25.5 -133t-73.5 -101t-116.5 -63.5t-152.5 -21.5q-37 0 -76 3t-77 9t-70.5 15t-57.5 22v160h16q31 -16 62 -27.5t62.5 -20t66.5 -12.5t74 -4q53 0 91 10.5t62.5 30.5t35.5 50t11 69q0 25 -5 44t-17 36.5t-31.5 35 t-50.5 35.5l-96 56q-55 29 -95 57.5t-69 62t-44.5 77.5t-15.5 100q0 39 15.5 74.5t41 66.5t136.5 137q20 20 33.5 38.5t24 39t16.5 45.5t6 53q0 43 -19.5 75t-53.5 51.5t-75 27.5t-86 8q-61 0 -113.5 -19.5t-91 -59.5t-60 -99.5t-21.5 -134.5v-1096h-168v864h-160z" />
<glyph unicode="&#xe0;" horiz-adv-x="1024" d="M72 281q0 80 37.5 140t101 97t141.5 55.5t160 18.5h152v129q0 47 -12.5 81t-39 54.5t-68.5 30.5t-104 10q-35 0 -70.5 -5t-68.5 -14.5t-62.5 -21.5t-54.5 -25h-16v146q29 12 62.5 23.5t73.5 20.5t85 14t90 5q80 0 143.5 -17t106.5 -47t68.5 -62.5t33.5 -65.5v-625 q0 -31 4.5 -49t12.5 -27.5t23.5 -13.5t39.5 -4h72v-129q-12 -4 -27.5 -6t-34 -5t-37 -4t-36.5 -1q-27 0 -52.5 6t-48 18t-39 30.5t-24.5 41.5h-12q-18 -18 -48 -34.5t-69 -31t-81 -22.5t-83 -8q-68 0 -126 17t-101 53t-67.5 93.5t-24.5 133.5zM238 1440v33h174l297 -289v-31 h-97zM240 289q0 -47 14 -81t39.5 -55.5t60.5 -30.5t78 -9q29 0 62.5 8t65.5 21.5t58.5 30.5t45.5 36v256h-160q-57 0 -104.5 -9.5t-83 -29.5t-56 -54t-20.5 -83z" />
<glyph unicode="&#xe1;" horiz-adv-x="1024" d="M72 281q0 80 37.5 140t101 97t141.5 55.5t160 18.5h152v129q0 47 -12.5 81t-39 54.5t-68.5 30.5t-104 10q-35 0 -70.5 -5t-68.5 -14.5t-62.5 -21.5t-54.5 -25h-16v146q29 12 62.5 23.5t73.5 20.5t85 14t90 5q80 0 143.5 -17t106.5 -47t68.5 -62.5t33.5 -65.5v-625 q0 -31 4.5 -49t12.5 -27.5t23.5 -13.5t39.5 -4h72v-129q-12 -4 -27.5 -6t-34 -5t-37 -4t-36.5 -1q-27 0 -52.5 6t-48 18t-39 30.5t-24.5 41.5h-12q-18 -18 -48 -34.5t-69 -31t-81 -22.5t-83 -8q-68 0 -126 17t-101 53t-67.5 93.5t-24.5 133.5zM240 289q0 -47 14 -81 t39.5 -55.5t60.5 -30.5t78 -9q29 0 62.5 8t65.5 21.5t58.5 30.5t45.5 36v256h-160q-57 0 -104.5 -9.5t-83 -29.5t-56 -54t-20.5 -83zM356 1153v31l295 289h176v-33l-374 -287h-97z" />
<glyph unicode="&#xe2;" horiz-adv-x="1024" d="M72 281q0 80 37.5 140t101 97t141.5 55.5t160 18.5h152v129q0 47 -12.5 81t-39 54.5t-68.5 30.5t-104 10q-35 0 -70.5 -5t-68.5 -14.5t-62.5 -21.5t-54.5 -25h-16v146q29 12 62.5 23.5t73.5 20.5t85 14t90 5q80 0 143.5 -17t106.5 -47t68.5 -62.5t33.5 -65.5v-625 q0 -31 4.5 -49t12.5 -27.5t23.5 -13.5t39.5 -4h72v-129q-12 -4 -27.5 -6t-34 -5t-37 -4t-36.5 -1q-27 0 -52.5 6t-48 18t-39 30.5t-24.5 41.5h-12q-18 -18 -48 -34.5t-69 -31t-81 -22.5t-83 -8q-68 0 -126 17t-101 53t-67.5 93.5t-24.5 133.5zM207 1153v31l223 289h145 l224 -289v-31h-88l-209 215l-207 -215h-88zM240 289q0 -47 14 -81t39.5 -55.5t60.5 -30.5t78 -9q29 0 62.5 8t65.5 21.5t58.5 30.5t45.5 36v256h-160q-57 0 -104.5 -9.5t-83 -29.5t-56 -54t-20.5 -83z" />
<glyph unicode="&#xe3;" horiz-adv-x="1024" d="M72 281q0 80 37.5 140t101 97t141.5 55.5t160 18.5h152v129q0 47 -12.5 81t-39 54.5t-68.5 30.5t-104 10q-35 0 -70.5 -5t-68.5 -14.5t-62.5 -21.5t-54.5 -25h-16v146q29 12 62.5 23.5t73.5 20.5t85 14t90 5q80 0 143.5 -17t106.5 -47t68.5 -62.5t33.5 -65.5v-625 q0 -31 4.5 -49t12.5 -27.5t23.5 -13.5t39.5 -4h72v-129q-12 -4 -27.5 -6t-34 -5t-37 -4t-36.5 -1q-27 0 -52.5 6t-48 18t-39 30.5t-24.5 41.5h-12q-18 -18 -48 -34.5t-69 -31t-81 -22.5t-83 -8q-68 0 -126 17t-101 53t-67.5 93.5t-24.5 133.5zM135 1153v31q4 55 17.5 107 t40 93t66.5 65t91 24q59 0 101.5 -29t88.5 -85t70.5 -80t61.5 -24q33 0 55.5 19.5t34.5 50.5t18 66.5t11 81.5h96v-33q-4 -55 -17.5 -106.5t-40 -92.5t-66.5 -64.5t-91 -23.5q-59 0 -101.5 28.5t-88.5 85t-70.5 79t-61.5 22.5q-35 0 -57.5 -19.5t-34.5 -50t-17.5 -65.5 t-9.5 -80h-96zM240 289q0 -47 14 -81t39.5 -55.5t60.5 -30.5t78 -9q29 0 62.5 8t65.5 21.5t58.5 30.5t45.5 36v256h-160q-57 0 -104.5 -9.5t-83 -29.5t-56 -54t-20.5 -83z" />
<glyph unicode="&#xe4;" horiz-adv-x="1024" d="M72 281q0 80 37.5 140t101 97t141.5 55.5t160 18.5h152v129q0 47 -12.5 81t-39 54.5t-68.5 30.5t-104 10q-35 0 -70.5 -5t-68.5 -14.5t-62.5 -21.5t-54.5 -25h-16v146q29 12 62.5 23.5t73.5 20.5t85 14t90 5q80 0 143.5 -17t106.5 -47t68.5 -62.5t33.5 -65.5v-625 q0 -31 4.5 -49t12.5 -27.5t23.5 -13.5t39.5 -4h72v-129q-12 -4 -27.5 -6t-34 -5t-37 -4t-36.5 -1q-27 0 -52.5 6t-48 18t-39 30.5t-24.5 41.5h-12q-18 -18 -48 -34.5t-69 -31t-81 -22.5t-83 -8q-68 0 -126 17t-101 53t-67.5 93.5t-24.5 133.5zM201 1313q0 25 7 44t21.5 34.5 t34 23.5t41.5 8q23 0 42.5 -8t33.5 -23.5t21.5 -35t7.5 -43.5q0 -25 -7.5 -45.5t-21.5 -35.5t-33.5 -23.5t-42.5 -8.5t-42 8.5t-33.5 23.5t-21.5 35.5t-7 45.5zM240 289q0 -47 14 -81t39.5 -55.5t60.5 -30.5t78 -9q29 0 62.5 8t65.5 21.5t58.5 30.5t45.5 36v256h-160 q-57 0 -104.5 -9.5t-83 -29.5t-56 -54t-20.5 -83zM616 1313q0 25 7.5 44t21.5 34.5t33.5 23.5t42.5 8t42 -8t33.5 -23.5t21.5 -35t7 -43.5q0 -25 -7 -45.5t-21.5 -35.5t-33.5 -23.5t-42 -8.5t-42.5 8.5t-33.5 23.5t-21.5 35.5t-7.5 45.5z" />
<glyph unicode="&#xe5;" horiz-adv-x="1024" d="M72 281q0 80 37.5 140t101 97t141.5 55.5t160 18.5h152v129q0 47 -12.5 81t-39 54.5t-68.5 30.5t-104 10q-35 0 -70.5 -5t-68.5 -14.5t-62.5 -21.5t-54.5 -25h-16v146q29 12 62.5 23.5t73.5 20.5t85 14t90 5q80 0 143.5 -17t106.5 -47t68.5 -62.5t33.5 -65.5v-625 q0 -31 4.5 -49t12.5 -27.5t23.5 -13.5t39.5 -4h72v-129q-12 -4 -27.5 -6t-34 -5t-37 -4t-36.5 -1q-27 0 -52.5 6t-48 18t-39 30.5t-24.5 41.5h-12q-18 -18 -48 -34.5t-69 -31t-81 -22.5t-83 -8q-68 0 -126 17t-101 53t-67.5 93.5t-24.5 133.5zM227 1313q0 41 19.5 76.5 t56.5 63.5t86 43t109 15q59 0 109 -15t87 -42t56.5 -63.5t19.5 -77.5t-19.5 -78t-56.5 -64.5t-87 -43t-109 -15.5t-108.5 15.5t-86.5 43t-56.5 64.5t-19.5 78zM240 289q0 -47 14 -81t39.5 -55.5t60.5 -30.5t78 -9q29 0 62.5 8t65.5 21.5t58.5 30.5t45.5 36v256h-160 q-57 0 -104.5 -9.5t-83 -29.5t-56 -54t-20.5 -83zM324 1313q0 -31 11 -53.5t33.5 -38t55.5 -22.5t74 -7q43 0 75.5 7t55 22.5t34 38t11.5 53.5t-11.5 52t-34 36.5t-55 23t-75.5 7.5q-41 0 -74 -7.5t-55.5 -23t-33.5 -38t-11 -50.5z" />
<glyph unicode="&#xe6;" horiz-adv-x="1632" d="M72 289q0 80 39 138t103.5 95t144 53.5t161.5 16.5h144v129q0 47 -12.5 81t-39 54.5t-68.5 30.5t-104 10q-35 0 -70.5 -5t-68.5 -14.5t-62.5 -21.5t-54.5 -25h-16v146q25 12 57.5 23.5t72.5 20.5t85 14t92 5q66 0 119 -12t93 -33.5t67.5 -48t44.5 -55.5q33 37 72.5 64.5 t83.5 46t93.5 28.5t100.5 10q88 0 159.5 -24.5t120 -70.5t74 -107.5t25.5 -132.5q0 -18 -1 -40t-4 -44.5t-5 -44t-7 -39.5l-671 -25q0 -94 24.5 -167t69.5 -121t107.5 -71.5t138.5 -23.5q39 0 72.5 3t67.5 10.5t67.5 19.5t68.5 31h17v-146q-39 -23 -83 -36t-85 -19t-76 -7 t-80 -1q-57 0 -110.5 10t-99.5 28.5t-85 47t-70 65.5q-45 -39 -90 -67.5t-92 -47t-99 -27.5t-112 -9q-68 0 -125 18t-101 56t-68.5 96.5t-24.5 134.5zM240 289q0 -47 16 -81t44 -55.5t64.5 -30.5t79.5 -9q39 0 77 9t74 24.5t68.5 36t61.5 44.5q-12 25 -23.5 52.5t-18.5 57.5 t-12 61.5t-7 66.5h-158q-57 0 -104.5 -10.5t-84 -31t-57 -54t-20.5 -80.5zM854 641l506 23v24q0 53 -15.5 92t-43 65.5t-66.5 39t-86 12.5q-55 0 -103.5 -15.5t-87 -46t-64.5 -75.5t-38 -105z" />
<glyph unicode="&#xe7;" horiz-adv-x="960" d="M80 512q0 127 44 227.5t121 167t175 100t205 33.5q37 0 72.5 -3t70.5 -9t65.5 -15t55.5 -22v-143h-17q-18 12 -44.5 21.5t-60.5 15.5t-69.5 9t-72.5 3q-76 0 -142.5 -24.5t-118 -71.5t-80 -116t-28.5 -157q0 -100 26.5 -176t73.5 -125t111.5 -73.5t140.5 -24.5q41 0 80 5 t73 14.5t63.5 20.5t56.5 24h16v-146q-35 -16 -76 -28.5t-83 -20.5t-79.5 -11t-66.5 -3q-106 0 -199.5 33.5t-164 100t-109.5 166t-39 228.5zM340 -319h16q29 -10 37 -13.5t26.5 -8.5t41 -8t47.5 -3t45 5t35.5 14t24 24.5t8.5 36.5q0 20 -9.5 35.5t-26 25.5t-29.5 16.5 t-48 18.5l-64 24v23l88 96h113l-74 -80l50 -16q20 -6 40.5 -17.5t38 -29t28.5 -42t11 -54.5q0 -39 -16 -72t-46 -56.5t-73 -36t-96 -12.5q-25 0 -50.5 4.5t-47 10.5t-39 13t-31.5 13v89z" />
<glyph unicode="&#xe8;" horiz-adv-x="1040" d="M80 512q0 123 38 221t105.5 167t155.5 104.5t188 35.5q88 0 159 -24.5t120 -70.5t73.5 -107.5t24.5 -132.5q0 -18 -1 -40t-4 -44.5t-5 -44t-6 -39.5l-672 -23v-2q0 -94 23.5 -167t67.5 -121t107.5 -71.5t145.5 -23.5q37 0 71 3t66.5 10.5t66.5 19.5t68 31h17v-146 q-39 -23 -83 -36t-86 -19t-76 -7t-77 -1q-111 0 -201 34.5t-154.5 103t-98 167t-33.5 223.5zM270 641l506 23v24q0 53 -14 92t-41 65.5t-66 39t-88 12.5q-53 0 -102 -15.5t-88 -46t-65.5 -75.5t-39.5 -105zM285 1440v33h174l297 -289v-31h-97z" />
<glyph unicode="&#xe9;" horiz-adv-x="1040" d="M80 512q0 123 38 221t105.5 167t155.5 104.5t188 35.5q88 0 159 -24.5t120 -70.5t73.5 -107.5t24.5 -132.5q0 -18 -1 -40t-4 -44.5t-5 -44t-6 -39.5l-672 -23v-2q0 -94 23.5 -167t67.5 -121t107.5 -71.5t145.5 -23.5q37 0 71 3t66.5 10.5t66.5 19.5t68 31h17v-146 q-39 -23 -83 -36t-86 -19t-76 -7t-77 -1q-111 0 -201 34.5t-154.5 103t-98 167t-33.5 223.5zM270 641l506 23v24q0 53 -14 92t-41 65.5t-66 39t-88 12.5q-53 0 -102 -15.5t-88 -46t-65.5 -75.5t-39.5 -105zM352 1153v31l295 289h176v-33l-374 -287h-97z" />
<glyph unicode="&#xea;" horiz-adv-x="1040" d="M80 512q0 123 38 221t105.5 167t155.5 104.5t188 35.5q88 0 159 -24.5t120 -70.5t73.5 -107.5t24.5 -132.5q0 -18 -1 -40t-4 -44.5t-5 -44t-6 -39.5l-672 -23v-2q0 -94 23.5 -167t67.5 -121t107.5 -71.5t145.5 -23.5q37 0 71 3t66.5 10.5t66.5 19.5t68 31h17v-146 q-39 -23 -83 -36t-86 -19t-76 -7t-77 -1q-111 0 -201 34.5t-154.5 103t-98 167t-33.5 223.5zM244 1153v31l223 289h145l224 -289v-31h-88l-209 215l-207 -215h-88zM270 641l506 23v24q0 53 -14 92t-41 65.5t-66 39t-88 12.5q-53 0 -102 -15.5t-88 -46t-65.5 -75.5 t-39.5 -105z" />
<glyph unicode="&#xeb;" horiz-adv-x="1040" d="M80 512q0 123 38 221t105.5 167t155.5 104.5t188 35.5q88 0 159 -24.5t120 -70.5t73.5 -107.5t24.5 -132.5q0 -18 -1 -40t-4 -44.5t-5 -44t-6 -39.5l-672 -23v-2q0 -94 23.5 -167t67.5 -121t107.5 -71.5t145.5 -23.5q37 0 71 3t66.5 10.5t66.5 19.5t68 31h17v-146 q-39 -23 -83 -36t-86 -19t-76 -7t-77 -1q-111 0 -201 34.5t-154.5 103t-98 167t-33.5 223.5zM227 1313q0 25 7.5 44t21.5 34.5t33.5 23.5t42.5 8t42 -8t33.5 -23.5t21.5 -35t7 -43.5q0 -25 -7 -45.5t-21.5 -35.5t-33.5 -23.5t-42 -8.5t-42.5 8.5t-33.5 23.5t-21.5 35.5 t-7.5 45.5zM270 641l506 23v24q0 53 -14 92t-41 65.5t-66 39t-88 12.5q-53 0 -102 -15.5t-88 -46t-65.5 -75.5t-39.5 -105zM643 1313q0 25 7 44t21.5 34.5t34 23.5t42.5 8t42 -8t33.5 -23.5t21.5 -35t7 -43.5q0 -25 -7 -45.5t-21.5 -35.5t-33.5 -23.5t-42 -8.5t-42.5 8.5 t-34 23.5t-21.5 35.5t-7 45.5z" />
<glyph unicode="&#xec;" horiz-adv-x="503" d="M-23 1440v33h175l297 -289v-31h-97zM168 0v1008l121 32h47v-1040h-168z" />
<glyph unicode="&#xed;" horiz-adv-x="503" d="M55 1153v31l295 289h176v-33l-374 -287h-97zM168 0v1008l121 32h47v-1040h-168z" />
<glyph unicode="&#xee;" horiz-adv-x="503" d="M-43 1153v31l223 289h146l223 -289v-31h-88l-209 215l-207 -215h-88zM168 0v1008l121 32h47v-1040h-168z" />
<glyph unicode="&#xef;" horiz-adv-x="503" d="M-59 1313q0 25 7 44t21.5 34.5t34 23.5t41.5 8q23 0 42 -8t33.5 -23.5t22 -35t7.5 -43.5q0 -25 -7.5 -45.5t-22 -35.5t-33.5 -23.5t-42 -8.5t-42 8.5t-33.5 23.5t-21.5 35.5t-7 45.5zM168 0v1008l121 32h47v-1040h-168zM356 1313q0 25 7.5 44t21.5 34.5t33.5 23.5t42.5 8 t42 -8t33.5 -23.5t21.5 -35t7 -43.5q0 -25 -7 -45.5t-21.5 -35.5t-33.5 -23.5t-42 -8.5t-42.5 8.5t-33.5 23.5t-21.5 35.5t-7.5 45.5z" />
<glyph unicode="&#xf0;" horiz-adv-x="1112" d="M80 479q0 129 41 231.5t112.5 172t166 105.5t200.5 36q20 0 43 -3t45.5 -7t41 -10.5t30.5 -12.5h16v209h-336v135h336v168l121 33h47v-201h113v-135h-113v-1184l-96 -32h-72v79h-16q-25 -18 -52.5 -32.5t-58.5 -24.5t-67.5 -16t-77.5 -6q-90 0 -168 32.5t-135.5 96 t-89 156.5t-31.5 210zM256 479q0 -84 20.5 -148.5t59.5 -109.5t95 -68.5t128 -23.5q31 0 60.5 5t55 13.5t49.5 19.5t52 26v671q-31 6 -51 9.5t-37.5 5.5t-34 2h-45.5q-70 0 -132 -22.5t-112.5 -72t-79 -126t-28.5 -181.5z" />
<glyph unicode="&#xf1;" horiz-adv-x="1175" d="M168 0v1008l121 32h47v-112h16q29 23 65 41t73.5 30.5t75.5 18.5t75 6t76 -7t78 -21.5t72.5 -39t60.5 -59.5q18 -25 33.5 -55.5t25.5 -66.5t15.5 -78t5.5 -89v-608h-168v559q0 41 -3 75t-9.5 61.5t-14.5 49t-20 39.5q-16 25 -36 42.5t-45.5 29.5t-57 18.5t-70.5 6.5 q-35 0 -68 -6.5t-62.5 -18.5t-58 -29.5t-59.5 -42.5v-784h-168zM213 1153v31q4 55 17.5 107t40 93t66.5 65t91 24q59 0 101 -29t88.5 -85t71 -80t61.5 -24q33 0 55 19.5t34.5 50.5t18.5 66.5t10 81.5h97v-33q-4 -55 -17.5 -106.5t-40 -92.5t-66.5 -64.5t-91 -23.5 q-59 0 -101.5 28.5t-88.5 85t-70.5 79t-61.5 22.5q-35 0 -57.5 -19.5t-34.5 -50t-17.5 -65.5t-9.5 -80h-96z" />
<glyph unicode="&#xf2;" horiz-adv-x="1103" d="M80 512q0 123 36 222.5t100.5 167t150.5 103t186 35.5q106 0 193.5 -34.5t149.5 -103t95 -167t33 -223.5q0 -123 -36 -222.5t-100.5 -167t-150.5 -103t-184 -35.5q-109 0 -196 34.5t-149.5 103t-95 167t-32.5 223.5zM256 512q0 -90 19.5 -160.5t57.5 -121t93 -76 t127 -25.5t126 25.5t92 76t57.5 121t19.5 160.5t-18.5 161.5t-55.5 121t-92 76t-129 26.5q-72 0 -127 -26.5t-93 -76t-57.5 -121t-19.5 -161.5zM276 1440v33h175l297 -289v-31h-97z" />
<glyph unicode="&#xf3;" horiz-adv-x="1103" d="M80 512q0 123 36 222.5t100.5 167t150.5 103t186 35.5q106 0 193.5 -34.5t149.5 -103t95 -167t33 -223.5q0 -123 -36 -222.5t-100.5 -167t-150.5 -103t-184 -35.5q-109 0 -196 34.5t-149.5 103t-95 167t-32.5 223.5zM256 512q0 -90 19.5 -160.5t57.5 -121t93 -76 t127 -25.5t126 25.5t92 76t57.5 121t19.5 160.5t-18.5 161.5t-55.5 121t-92 76t-129 26.5q-72 0 -127 -26.5t-93 -76t-57.5 -121t-19.5 -161.5zM356 1153v31l295 289h176v-33l-374 -287h-97z" />
<glyph unicode="&#xf4;" horiz-adv-x="1103" d="M80 512q0 123 36 222.5t100.5 167t150.5 103t186 35.5q106 0 193.5 -34.5t149.5 -103t95 -167t33 -223.5q0 -123 -36 -222.5t-100.5 -167t-150.5 -103t-184 -35.5q-109 0 -196 34.5t-149.5 103t-95 167t-32.5 223.5zM256 512q0 -90 19.5 -160.5t57.5 -121t93 -76 t127 -25.5t126 25.5t92 76t57.5 121t19.5 160.5t-18.5 161.5t-55.5 121t-92 76t-129 26.5q-72 0 -127 -26.5t-93 -76t-57.5 -121t-19.5 -161.5zM256 1153v31l223 289h146l223 -289v-31h-88l-209 215l-207 -215h-88z" />
<glyph unicode="&#xf5;" horiz-adv-x="1103" d="M80 512q0 123 36 222.5t100.5 167t150.5 103t186 35.5q106 0 193.5 -34.5t149.5 -103t95 -167t33 -223.5q0 -123 -36 -222.5t-100.5 -167t-150.5 -103t-184 -35.5q-109 0 -196 34.5t-149.5 103t-95 167t-32.5 223.5zM176 1153v31q4 55 17.5 107t40 93t66.5 65t91 24 q59 0 101.5 -29t88.5 -85t70.5 -80t61.5 -24q33 0 55.5 19.5t34.5 50.5t18 66.5t10 81.5h97v-33q-4 -55 -17.5 -106.5t-40 -92.5t-66.5 -64.5t-91 -23.5q-59 0 -101.5 28.5t-88.5 85t-70.5 79t-61.5 22.5q-35 0 -57.5 -19.5t-34.5 -50t-17.5 -65.5t-9.5 -80h-96zM256 512 q0 -90 19.5 -160.5t57.5 -121t93 -76t127 -25.5t126 25.5t92 76t57.5 121t19.5 160.5t-18.5 161.5t-55.5 121t-92 76t-129 26.5q-72 0 -127 -26.5t-93 -76t-57.5 -121t-19.5 -161.5z" />
<glyph unicode="&#xf6;" horiz-adv-x="1103" d="M80 512q0 123 36 222.5t100.5 167t150.5 103t186 35.5q106 0 193.5 -34.5t149.5 -103t95 -167t33 -223.5q0 -123 -36 -222.5t-100.5 -167t-150.5 -103t-184 -35.5q-109 0 -196 34.5t-149.5 103t-95 167t-32.5 223.5zM240 1313q0 25 7 44t21.5 34.5t34 23.5t41.5 8 q23 0 42.5 -8t33.5 -23.5t21.5 -35t7.5 -43.5q0 -25 -7.5 -45.5t-21.5 -35.5t-33.5 -23.5t-42.5 -8.5t-42 8.5t-33.5 23.5t-21.5 35.5t-7 45.5zM256 512q0 -90 19.5 -160.5t57.5 -121t93 -76t127 -25.5t126 25.5t92 76t57.5 121t19.5 160.5t-18.5 161.5t-55.5 121t-92 76 t-129 26.5q-72 0 -127 -26.5t-93 -76t-57.5 -121t-19.5 -161.5zM655 1313q0 25 7.5 44t21.5 34.5t33.5 23.5t42.5 8t42 -8t33.5 -23.5t21.5 -35t7 -43.5q0 -25 -7 -45.5t-21.5 -35.5t-33.5 -23.5t-42 -8.5t-42.5 8.5t-33.5 23.5t-21.5 35.5t-7.5 45.5z" />
<glyph unicode="&#xf7;" d="M129 655v97h958v-97h-958zM553 297v111h111v-111h-111zM553 999v113h111v-113h-111z" />
<glyph unicode="&#xf8;" horiz-adv-x="1103" d="M80 512q0 123 36 222.5t100.5 167t150.5 103t186 35.5q45 0 87 -6t81 -19.5t72.5 -31.5t62.5 -43l72 84h63v-33l-86 -100q29 -35 51.5 -76t37 -88t22.5 -101.5t8 -113.5q0 -123 -36 -222.5t-100.5 -167t-150.5 -103t-184 -35.5q-47 0 -92 7t-84 20.5t-74 34t-65 46.5 l-78 -92h-64v33l94 110q-27 33 -47 73t-34.5 86t-21.5 99.5t-7 110.5zM256 512q0 -35 3 -67.5t8 -62.5t13.5 -55.5t20.5 -47.5l453 538q-18 18 -40 33.5t-46.5 26t-53 15.5t-61.5 5q-72 0 -127 -26.5t-93 -76t-57.5 -121t-19.5 -161.5zM342 215q18 -20 41 -36.5t49.5 -28 t56 -16.5t64.5 -5q72 0 126 25.5t92 76t57.5 121t19.5 160.5q0 37 -3 71.5t-10.5 65.5t-16.5 58.5t-21 50.5z" />
<glyph unicode="&#xf9;" horiz-adv-x="1175" d="M160 399v609l121 32h47v-591q0 -41 3 -75t9 -61.5t15.5 -49t21.5 -40.5q14 -25 33.5 -42t45 -28.5t57.5 -17.5t71 -6q37 0 68.5 6t61 17.5t58.5 29t59 41.5v785l121 32h47v-1024l-88 -32h-80v96h-16q-29 -23 -63.5 -41.5t-72.5 -30.5t-76 -18t-75 -6q-39 0 -77.5 7 t-77.5 22.5t-73 40t-60 59.5q-18 25 -32.5 54.5t-25 65t-16.5 77.5t-6 89zM260 1440v33h174l297 -289v-31h-96z" />
<glyph unicode="&#xfa;" horiz-adv-x="1175" d="M160 399v609l121 32h47v-591q0 -41 3 -75t9 -61.5t15.5 -49t21.5 -40.5q14 -25 33.5 -42t45 -28.5t57.5 -17.5t71 -6q37 0 68.5 6t61 17.5t58.5 29t59 41.5v785l121 32h47v-1024l-88 -32h-80v96h-16q-29 -23 -63.5 -41.5t-72.5 -30.5t-76 -18t-75 -6q-39 0 -77.5 7 t-77.5 22.5t-73 40t-60 59.5q-18 25 -32.5 54.5t-25 65t-16.5 77.5t-6 89zM455 1153v31l295 289h176v-33l-375 -287h-96z" />
<glyph unicode="&#xfb;" horiz-adv-x="1175" d="M160 399v609l121 32h47v-591q0 -41 3 -75t9 -61.5t15.5 -49t21.5 -40.5q14 -25 33.5 -42t45 -28.5t57.5 -17.5t71 -6q37 0 68.5 6t61 17.5t58.5 29t59 41.5v785l121 32h47v-1024l-88 -32h-80v96h-16q-29 -23 -63.5 -41.5t-72.5 -30.5t-76 -18t-75 -6q-39 0 -77.5 7 t-77.5 22.5t-73 40t-60 59.5q-18 25 -32.5 54.5t-25 65t-16.5 77.5t-6 89zM311 1153v31l224 289h145l223 -289v-31h-88l-209 215l-207 -215h-88z" />
<glyph unicode="&#xfc;" horiz-adv-x="1175" d="M160 399v609l121 32h47v-591q0 -41 3 -75t9 -61.5t15.5 -49t21.5 -40.5q14 -25 33.5 -42t45 -28.5t57.5 -17.5t71 -6q37 0 68.5 6t61 17.5t58.5 29t59 41.5v785l121 32h47v-1024l-88 -32h-80v96h-16q-29 -23 -63.5 -41.5t-72.5 -30.5t-76 -18t-75 -6q-39 0 -77.5 7 t-77.5 22.5t-73 40t-60 59.5q-18 25 -32.5 54.5t-25 65t-16.5 77.5t-6 89zM283 1313q0 25 7 44t21.5 34.5t34 23.5t41.5 8q23 0 42.5 -8t33.5 -23.5t21.5 -35t7.5 -43.5q0 -25 -7.5 -45.5t-21.5 -35.5t-33.5 -23.5t-42.5 -8.5t-42 8.5t-33.5 23.5t-21.5 35.5t-7 45.5z M698 1313q0 25 7.5 44t21.5 34.5t33.5 23.5t42.5 8t42 -8t33.5 -23.5t21.5 -35t7 -43.5q0 -25 -7 -45.5t-21.5 -35.5t-33.5 -23.5t-42 -8.5t-42.5 8.5t-33.5 23.5t-21.5 35.5t-7.5 45.5z" />
<glyph unicode="&#xfd;" horiz-adv-x="927" d="M0 991v17h176l293 -783l283 783h168v-17l-400 -991l-176 -449h-168v25l199 432zM313 1153v31l295 289h176v-33l-374 -287h-97z" />
<glyph unicode="&#xfe;" horiz-adv-x="1112" d="M168 -449v1952l121 33h47v-592h16q25 18 52.5 32.5t58.5 25t67.5 16.5t77.5 6q92 0 170 -33t135.5 -96.5t88 -156.5t30.5 -210q0 -129 -38 -231t-107.5 -172t-161 -105.5t-197.5 -35.5q-18 0 -42.5 3t-51 7t-48 10t-34.5 12h-16v-465h-168zM336 143q20 -6 41.5 -10t43 -7 t45 -4t46.5 -1q74 0 135.5 20.5t108.5 67.5t73.5 127t26.5 192q0 84 -19.5 149.5t-57.5 111t-93 69t-127 23.5q-31 0 -61.5 -5.5t-57 -14.5t-51 -20.5t-53.5 -25.5v-672z" />
<glyph unicode="&#xff;" horiz-adv-x="927" d="M0 991v17h176l293 -783l283 783h168v-17l-400 -991l-176 -449h-168v25l199 432zM172 1313q0 25 7 44t21.5 34.5t34 23.5t41.5 8q23 0 42.5 -8t34 -23.5t21.5 -35t7 -43.5q0 -25 -7 -45.5t-21.5 -35.5t-34 -23.5t-42.5 -8.5t-42 8.5t-33.5 23.5t-21.5 35.5t-7 45.5z M588 1313q0 25 7 44t21.5 34.5t34 23.5t41.5 8q23 0 42.5 -8t33.5 -23.5t21.5 -35t7.5 -43.5q0 -25 -7.5 -45.5t-21.5 -35.5t-33.5 -23.5t-42.5 -8.5t-42 8.5t-33.5 23.5t-21.5 35.5t-7 45.5z" />
<glyph unicode="&#x152;" horiz-adv-x="1871" d="M72 735q0 156 51 291t146.5 235.5t227.5 156t287 55.5h961v-146h-561v-496h504v-143h-504v-545h592v-143h-992q-172 0 -305 52t-224 149.5t-137 233.5t-46 300zM256 735q0 -139 35 -249.5t103.5 -186.5t166.5 -116t223 -40h215v1184h-215q-123 0 -222 -43t-166.5 -123 t-103.5 -188.5t-36 -237.5z" />
<glyph unicode="&#x153;" horiz-adv-x="1816" d="M80 512q0 123 35 222.5t98 167t150.5 103t189.5 35.5q63 0 120.5 -13t106.5 -39.5t91 -66.5t73 -92q33 51 76 90t95 67t109.5 41t118.5 13q88 0 159 -24.5t119 -70.5t73.5 -107.5t25.5 -132.5q0 -18 -1 -40t-4 -44.5t-5 -44t-6 -39.5l-680 -23v-2q0 -94 24.5 -167 t69.5 -121t110.5 -71.5t147.5 -23.5q37 0 71 3t66.5 10.5t66.5 19.5t69 31h16v-146q-39 -23 -83 -36t-86 -19t-76 -7t-77 -1q-68 0 -128 13t-112 38.5t-94 63.5t-73 89q-31 -49 -73 -88t-91 -64.5t-104.5 -38.5t-114.5 -13q-109 0 -196 34.5t-149.5 103t-95 167t-32.5 223.5 zM256 512q0 -90 19.5 -160.5t57.5 -121t93 -76t127 -25.5t126 25.5t92 76t57.5 121t19.5 160.5t-18.5 161.5t-55.5 121t-92 76t-129 26.5q-72 0 -127 -26.5t-93 -76t-57.5 -121t-19.5 -161.5zM1038 641l514 23v24q0 53 -14 92t-41 65.5t-65.5 39t-88.5 12.5 q-55 0 -104 -15.5t-90 -46t-69.5 -75.5t-39.5 -105z" />
<glyph unicode="&#x178;" horiz-adv-x="1056" d="M-8 1448v25h184l361 -746l360 746h168v-25l-449 -858v-590h-184v575zM229 1778q0 25 7.5 44t21.5 34.5t33.5 23.5t42.5 8t42 -8t33.5 -23.5t21.5 -35t7 -43.5q0 -25 -7 -45.5t-21.5 -36t-33.5 -23.5t-42 -8t-42.5 8t-33.5 23.5t-21.5 36t-7.5 45.5zM645 1778q0 25 7 44 t21.5 34.5t34 23.5t42.5 8t42 -8t33.5 -23.5t21.5 -35t7 -43.5q0 -25 -7 -45.5t-21.5 -36t-33.5 -23.5t-42 -8t-42.5 8t-34 23.5t-21.5 36t-7 45.5z" />
<glyph unicode="&#x2c6;" horiz-adv-x="1103" d="M264 1153v31l223 289h146l223 -289v-31h-88l-209 215l-207 -215h-88z" />
<glyph unicode="&#x2dc;" horiz-adv-x="1103" d="M184 1153v31q4 55 17.5 107t40 93t66.5 65t91 24q59 0 101.5 -29t88.5 -85t70.5 -80t61.5 -24q33 0 55.5 19.5t34.5 50.5t18.5 66.5t10.5 81.5h96v-33q-4 -55 -17.5 -106.5t-40 -92.5t-66.5 -64.5t-91 -23.5q-59 0 -101 28.5t-88.5 85t-71 79t-61.5 22.5 q-35 0 -57.5 -19.5t-34.5 -50t-17 -65.5t-9 -80h-97z" />
<glyph unicode="&#x2000;" horiz-adv-x="988" />
<glyph unicode="&#x2001;" horiz-adv-x="1976" />
<glyph unicode="&#x2002;" horiz-adv-x="988" />
<glyph unicode="&#x2003;" horiz-adv-x="1976" />
<glyph unicode="&#x2004;" horiz-adv-x="658" />
<glyph unicode="&#x2005;" horiz-adv-x="494" />
<glyph unicode="&#x2006;" horiz-adv-x="329" />
<glyph unicode="&#x2007;" horiz-adv-x="329" />
<glyph unicode="&#x2008;" horiz-adv-x="247" />
<glyph unicode="&#x2009;" horiz-adv-x="395" />
<glyph unicode="&#x200a;" horiz-adv-x="109" />
<glyph unicode="&#x2010;" horiz-adv-x="831" d="M129 641v127h576v-127h-576z" />
<glyph unicode="&#x2011;" horiz-adv-x="831" d="M129 641v127h576v-127h-576z" />
<glyph unicode="&#x2012;" horiz-adv-x="831" d="M129 641v127h576v-127h-576z" />
<glyph unicode="&#x2013;" horiz-adv-x="1024" d="M129 641v127h768v-127h-768z" />
<glyph unicode="&#x2014;" horiz-adv-x="2048" d="M129 641v127h1792v-127h-1792z" />
<glyph unicode="&#x2018;" horiz-adv-x="528" d="M160 1159q0 43 8 86t25.5 84t45 78t64.5 66h129v-17q-27 -18 -52.5 -42.5t-46 -52.5t-32.5 -57.5t-12 -56.5v-14q12 -4 26.5 -12.5t26.5 -21.5t19.5 -33.5t7.5 -45.5q0 -29 -8.5 -50t-22.5 -35.5t-34 -20.5t-40 -6q-25 0 -44 9t-32.5 28.5t-20.5 48t-7 65.5z" />
<glyph unicode="&#x2019;" horiz-adv-x="528" d="M96 1008v16q27 18 52.5 43t46 52.5t33 57t12.5 56.5v14q-12 4 -26.5 12.5t-27 21.5t-19.5 33.5t-7 45.5q0 29 8 50.5t22.5 35.5t34 20.5t39.5 6.5q25 0 44.5 -9.5t32.5 -29t20.5 -48t7.5 -65.5q0 -43 -8.5 -86t-26 -84t-45 -77.5t-66.5 -65.5h-127z" />
<glyph unicode="&#x201a;" horiz-adv-x="528" d="M96 -240q27 18 52.5 43t46 52.5t33 56.5t12.5 55v33q-14 4 -27.5 9t-26 16.5t-19.5 29t-7 41.5q0 29 8 50.5t22.5 36t34 20.5t39.5 6q25 0 44.5 -9.5t32.5 -28.5t20.5 -48t7.5 -68q0 -43 -8.5 -85t-26 -83t-45 -77.5t-66.5 -65.5h-127v16z" />
<glyph unicode="&#x201c;" horiz-adv-x="880" d="M160 1159q0 43 8 86t25.5 84t45 78t64.5 66h129v-17q-27 -18 -52.5 -42.5t-46 -52.5t-32.5 -57.5t-12 -56.5v-14q12 -4 26.5 -12.5t26.5 -21.5t19.5 -33.5t7.5 -45.5q0 -29 -8.5 -50t-22.5 -35.5t-34 -20.5t-40 -6q-25 0 -44 9t-32.5 28.5t-20.5 48t-7 65.5zM512 1159 q0 43 8 86t25.5 84t45 78t64.5 66h129v-17q-27 -18 -52 -42.5t-45.5 -52.5t-33 -57.5t-12.5 -56.5v-14q12 -4 26.5 -12.5t27 -21.5t19.5 -33.5t7 -45.5q0 -29 -8 -50t-22.5 -35.5t-34.5 -20.5t-40 -6q-25 0 -44 9t-32.5 28.5t-20.5 48t-7 65.5z" />
<glyph unicode="&#x201d;" horiz-adv-x="880" d="M96 1008v16q27 18 52.5 43t46 52.5t33 57t12.5 56.5v14q-12 4 -26.5 12.5t-27 21.5t-19.5 33.5t-7 45.5q0 29 8 50.5t22.5 35.5t34 20.5t39.5 6.5q25 0 44.5 -9.5t32.5 -29t20.5 -48t7.5 -65.5q0 -43 -8.5 -86t-26 -84t-45 -77.5t-66.5 -65.5h-127zM449 1008v16 q27 18 52 43t45.5 52.5t33 57t12.5 56.5v14q-14 4 -27.5 12.5t-26 21.5t-19.5 33.5t-7 45.5q0 29 8 50.5t22.5 35.5t33 20.5t40.5 6.5q25 0 44.5 -9.5t33 -29t20.5 -48t7 -65.5q0 -43 -8 -86t-25.5 -84t-45.5 -77.5t-67 -65.5h-126z" />
<glyph unicode="&#x201e;" horiz-adv-x="880" d="M96 -240q27 18 52.5 43t46 52.5t33 56.5t12.5 55v33q-14 4 -27.5 9t-26 16.5t-19.5 29t-7 41.5q0 29 8 50.5t22.5 36t34 20.5t39.5 6q25 0 44.5 -9.5t32.5 -28.5t20.5 -48t7.5 -68q0 -43 -8.5 -85t-26 -83t-45 -77.5t-66.5 -65.5h-127v16zM449 -240q27 18 52 43 t45.5 52.5t33 56.5t12.5 55v33q-16 4 -28.5 9t-25 15.5t-19.5 29t-7 42.5q0 29 8 50.5t22.5 36t33 20.5t40.5 6q25 0 44.5 -9.5t33 -28.5t20.5 -48t7 -68q0 -43 -8 -85t-25.5 -83t-45.5 -77.5t-67 -65.5h-126v16z" />
<glyph unicode="&#x2022;" horiz-adv-x="1224" d="M193 545q0 84 32.5 159.5t90 133t133 90.5t159.5 33t160 -33t133 -90.5t90 -133t33 -159.5t-33 -160t-90 -134t-133 -90t-160 -32t-159.5 32t-133 90t-90 134t-32.5 160z" />
<glyph unicode="&#x2026;" horiz-adv-x="1632" d="M160 96q0 25 9 45.5t24.5 36t38 23.5t49.5 8t48 -8t37.5 -23.5t24.5 -36t8 -45.5t-8 -45t-24.5 -35.5t-37.5 -23.5t-48 -8t-49.5 8t-38 23.5t-24.5 36t-9 44.5zM688 96q0 25 8.5 45.5t24.5 36t38.5 23.5t49.5 8t48.5 -8t37.5 -23.5t24.5 -36t8.5 -45.5t-8.5 -45 t-24.5 -35.5t-37.5 -23.5t-48.5 -8t-49.5 8t-38.5 23.5t-24.5 36t-8.5 44.5zM1217 96q0 25 8 45.5t24.5 36t38 23.5t47.5 8q27 0 49.5 -8t39 -23.5t24.5 -36t8 -45.5t-8 -45t-24.5 -35.5t-39 -23.5t-49.5 -8t-48 8t-37.5 23.5t-24.5 36t-8 44.5z" />
<glyph unicode="&#x202f;" horiz-adv-x="395" />
<glyph unicode="&#x2039;" horiz-adv-x="641" d="M63 479v193l449 305h33v-137l-369 -265l369 -264v-135h-33z" />
<glyph unicode="&#x203a;" horiz-adv-x="641" d="M96 176v135l369 264l-369 265v137h33l446 -305v-193l-446 -303h-33z" />
<glyph unicode="&#x205f;" horiz-adv-x="494" />
<glyph unicode="&#x20ac;" d="M80 471v145h184v207h-184v146h184v39q0 102 34 189t99.5 153.5t159.5 102.5t211 36q57 0 107.5 -6t91.5 -15.5t70.5 -20.5t49.5 -24v-143h-16q-33 16 -68.5 28.5t-73.5 19.5t-78 11t-83 4q-86 0 -149.5 -25.5t-102.5 -71.5t-57.5 -106.5t-18.5 -131.5v-39h457v-146h-457 v-207h457v-145h-457v-22q0 -72 20.5 -131.5t62.5 -101.5t103.5 -64.5t141.5 -22.5q53 0 96 5t80 15.5t70 24.5t73 35h17v-162q-43 -18 -85 -29.5t-86 -19.5t-93.5 -11t-104.5 -3q-119 0 -208 35.5t-147 99t-87 147.5t-29 183v22h-184z" />
<glyph unicode="&#x2122;" horiz-adv-x="1552" d="M63 1352v121h545v-121h-200v-697h-144v697h-201zM705 655v818h110l252 -361l229 361h113v-818h-145v512l-177 -256h-63l-176 242v-498h-143z" />
<glyph unicode="&#x25fc;" horiz-adv-x="1003" d="M0 0v1004h1004v-1004h-1004z" />
<glyph unicode="&#xfb03;" horiz-adv-x="1759" d="M41 864v144h160v129q0 94 30.5 168.5t88 126t135 78t170.5 26.5h110v-143h-110q-61 0 -108.5 -15.5t-80.5 -49.5t-50 -85t-17 -123v-112h454v129q0 94 36 168.5t98.5 126t145.5 78t177 26.5h289v-143h-289q-61 0 -113.5 -15.5t-92.5 -49.5t-61.5 -86t-21.5 -122v-112h432 l121 32h47v-1040h-168v864h-432v-864h-168v864h-454v-864h-168v864h-160z" />
<glyph unicode="&#xfb04;" horiz-adv-x="1775" d="M41 864v144h160v129q0 94 30.5 168.5t88 126t135 78t170.5 26.5h110v-143h-110q-61 0 -108.5 -15.5t-80.5 -49.5t-50 -85t-17 -123v-112h454v129q0 94 31 168.5t88 126t135 78t170 26.5h361v-1536h-168v1393h-193q-61 0 -108 -15.5t-80 -49.5t-50.5 -85t-17.5 -123v-112 h256v-144h-256v-864h-168v864h-454v-864h-168v864h-160z" />
</font>
</defs>
</svg>
