<svg width="68" height="84" viewBox="0 0 68 84" version="1.1" xmlns="http://www.w3.org/2000/svg"><title>Group</title><g id="Symbols" stroke="none" stroke-width="1" fill="none" fill-rule="evenodd"><rect id="Rectangle-path" fill="#FFF" x="1" y="1" width="66" height="82" rx="2"/><path d="M2 0h64c1.105 0 2 .895 2 2v80c0 1.105-.895 2-2 2H2c-1.105 0-2-.895-2-2V2C0 .895.895 0 2 0zm2 4h60v76H4V4z" id="Shape" fill="#8B8B8B"/><path d="M10 66v-2h48v2H10zm0-14h48v2H10v-2zm44 8H10v-2h44v2zM39.727 24.637C39.694 28.327 37.1 31 33.57 31c-3.667 0-6.154-2.652-6.156-6.363 0 0-1.224-7.637 6.156-7.637 7.128 0 6.157 7.637 6.157 7.637zM19.01 37.627c.725-3.892 3.393-5.432 7.172-6.627 1.568 1.845 4.553 2.546 7.388 2.546 2.76 0 6.24-.992 8.19-2.738 3.427 1.1 6.112 2.593 7.24 5.58C45.696 41.575 40.023 45 33.57 45c-5.922 0-11.18-2.892-14.56-7.373z" id="Shape" fill="#B2B2B1"/></g></svg>