<svg width="68" height="84" viewBox="0 0 68 84" version="1.1" xmlns="http://www.w3.org/2000/svg"><title>Group</title><g id="Symbols" stroke="none" stroke-width="1" fill="none" fill-rule="evenodd"><rect id="Rectangle-path" fill="#FFF" x="1" y="1" width="66" height="82" rx="2"/><path d="M2 0h64c1.105 0 2 .895 2 2v80c0 1.105-.895 2-2 2H2c-1.105 0-2-.895-2-2V2C0 .895.895 0 2 0zm2 4h60v76H4V4z" id="Shape" fill="#8B8B8B"/><path d="M10 66v-2h48v2H10zm0-14h48v2H10v-2zm44 8H10v-2h44v2zM37.97 23.82c-.042 4.744-3.388 8.18-7.94 8.18-4.73 0-7.937-3.41-7.94-8.18 0 0-1.578-9.82 7.94-9.82 9.193 0 7.94 9.82 7.94 9.82zM16.01 38.626c.725-3.892 3.393-5.432 7.172-6.627 1.57 1.845 4.553 2.546 7.388 2.546 2.76 0 6.24-.992 8.19-2.738 3.427 1.1 6.112 2.593 7.24 5.58C42.696 42.575 37.023 46 30.57 46c-5.922 0-11.18-2.892-14.56-7.373z" id="Shape" fill="#B2B2B1"/><path class="no-animation" d="M53.268 47.048l-2.24 2.23c-.928.922-2.433.922-3.36 0L36.37 38.037c-5.72 3.24-13.108 2.437-17.982-2.44-5.78-5.783-5.844-15.108-.212-20.983-2.184 4.788-1.32 10.625 2.626 14.565 5.077 5.07 13.31 5.07 18.387 0 2.64-2.64 3.895-6.132 3.787-9.59 1.61 4.184 1.273 8.935-1.002 12.88l11.293 11.236c.928.923.928 2.42 0 3.342zM18.388 14.38c-.075.076-.138.158-.212.235.628-1.375 1.493-2.67 2.626-3.8 5.077-5.072 13.31-5.072 18.387 0 2.433 2.432 3.687 5.588 3.787 8.774-.73-1.898-1.85-3.68-3.38-5.21-5.857-5.86-15.352-5.86-21.21 0z" id="Shape" fill="#FFF"/><path d="M54.268 45.048l-2.24 2.23c-.928.922-2.433.922-3.36 0L37.37 36.037c-5.72 3.24-13.108 2.437-17.982-2.44-5.856-5.858-5.856-15.358 0-21.218 5.857-5.86 15.352-5.86 21.21 0 4.902 4.906 5.684 12.356 2.377 18.09l11.293 11.236c.928.923.928 2.42 0 3.342zm-15.08-31.233c-5.077-5.072-13.31-5.072-18.386 0-5.077 5.07-5.077 13.293 0 18.365 4.084 4.08 10.207 4.87 15.09 2.387l-.106-.105 5.6-5.57.13.128c2.57-4.898 1.793-11.09-2.327-15.205z" id="Shape" fill="#B2B2B1"/></g></svg>