<?xml version="1.0" standalone="no"?>
<!DOCTYPE svg
  PUBLIC '-//W3C//DTD SVG 1.1//EN'
  'http://www.w3.org/Graphics/SVG/1.1/DTD/svg11.dtd'><svg version="1.1" xmlns="http://www.w3.org/2000/svg"><defs><font horiz-adv-x="0" id="font"><font-face ascent="750" bbox="-228 -266 1235 990" cap-height="700" descent="-250" font-family="FM WEB" font-stretch="normal" font-style="normal" font-weight="700" units-per-em="1000" x-height="488" /><missing-glyph d="" horiz-adv-x="500" /><glyph d="" glyph-name=".null" horiz-adv-x="0" unicode="" /><glyph d="" glyph-name="nonmarkingreturn" horiz-adv-x="250" unicode="" /><glyph d="" glyph-name="space" horiz-adv-x="218" unicode=" " /><glyph d="M72 440 65 705H213L206 440L164 230H114ZM69 157 209 157V0H69Z" glyph-name="exclam" horiz-adv-x="278" unicode="!" /><glyph d="M89 700 239 700V677L96 409H42ZM305 700 455 700V677L312 409H258Z" glyph-name="quotedbl" horiz-adv-x="466" unicode="&quot;" /><glyph d="M328 220 188 220L149 0H92L131 220H20L28 268H139L169 432H58L66 480H177L216 700H273L234 480H373L412 700H469L430 480H541L533 432H422L393 268H503L495 220H385L346 0H289ZM336 268 365 432H226L196 268Z" glyph-name="numbersign" horiz-adv-x="569" unicode="#" /><glyph d="M273 -10 256 -10L236 -131H178L199 -5Q153 0 113.5 10Q74 20 48 31L42 215H95L145 72Q170 58 208 50L249 290L192 322Q165 337 140.5 355Q116 373 98 395.5Q80 418 69 446Q58 474 58 509Q58 548 73.5 584.5Q89 621 120 649Q151 677 198 693.5Q245 710 308 710H319L333 792H388L374 705Q398 702 419.5 698Q441 694 457 690Q476 686 492 681L483 515H427L388 642Q385 643 379 645Q373 647 365 650L326 417L359 398Q389 381 418 362.5Q447 344 470 321Q493 298 507 268.5Q521 239 521 200Q521 151 500.5 112Q480 73 445.5 46Q411 19 366.5 4.5Q322 -10 273 -10ZM190 555Q190 517 215.5 491Q241 465 275 446L310 656Q259 655 224.5 628Q190 601 190 555ZM385 152Q385 188 360.5 213Q336 238 300 261L265 46Q325 50 355 80Q385 110 385 152Z" glyph-name="dollar" horiz-adv-x="558" unicode="$" /><glyph d="M199 336Q168 336 138 347.5Q108 359 84 382Q60 405 45 439.5Q30 474 30 520Q30 566 45 600.5Q60 635 84 658.5Q108 682 138 693.5Q168 705 199 705Q230 705 260.5 693.5Q291 682 315 658.5Q339 635 354 600.5Q369 566 369 520Q369 474 354 439.5Q339 405 315 382Q291 359 260.5 347.5Q230 336 199 336ZM646 700 709 700L170 0H104ZM199 379Q238 379 252 415Q266 451 266 520Q266 589 252 624.5Q238 660 199 660Q161 660 146.5 624.5Q132 589 132 520Q132 451 146.5 415Q161 379 199 379ZM611 -10Q580 -10 550 2Q520 14 496 37Q472 60 457 94.5Q442 129 442 175Q442 221 457 255.5Q472 290 496 313Q520 336 550 347.5Q580 359 611 359Q642 359 672.5 347.5Q703 336 727 313Q751 290 766 255.5Q781 221 781 175Q781 129 766 94.5Q751 60 727 37Q703 14 672.5 2Q642 -10 611 -10ZM611 34Q649 34 663.5 70Q678 106 678 175Q678 244 663.5 279.5Q649 315 611 315Q573 315 558.5 279.5Q544 244 544 175Q544 106 558.5 70Q573 34 611 34Z" glyph-name="percent" horiz-adv-x="811" unicode="%" /><glyph d="M228 -10Q181 -10 145.5 4.5Q110 19 86 42.5Q62 66 50 96Q38 126 38 156Q38 192 50 222Q62 252 84 277.5Q106 303 137 325Q168 347 205 368Q167 409 147 449Q127 489 127 533Q127 567 140 599Q153 631 177.5 655.5Q202 680 237.5 695Q273 710 319 710Q358 710 389 699Q420 688 441.5 668.5Q463 649 474 623.5Q485 598 485 569Q485 539 475.5 514Q466 489 449 468.5Q432 448 409 430.5Q386 413 359 396L498 247L578 368H494V425H739V368H651L538 207L679 58H739V0H545L446 105Q438 95 420 75.5Q402 56 375 37Q348 18 311 4Q274 -10 228 -10ZM326 432Q371 461 395.5 496.5Q420 532 420 570Q420 607 397.5 629.5Q375 652 338 652Q302 652 277 627Q252 602 252 563Q252 528 273 496Q294 464 326 432ZM291 82Q311 82 328 88Q345 94 359.5 103.5Q374 113 386.5 124.5Q399 136 410 146L243 325Q209 291 192.5 260.5Q176 230 176 197Q176 146 207.5 114Q239 82 291 82Z" glyph-name="ampersand" horiz-adv-x="767" unicode="&amp;" /><glyph d="M89 700 239 700V677L96 409H42Z" glyph-name="quotesingle" horiz-adv-x="250" unicode="'" /><glyph d="M270 -182Q250 -163 210.5 -120Q171 -77 131.5 -14Q92 49 62.5 131.5Q33 214 33 313Q33 412 62.5 496Q92 580 131.5 645Q171 710 210.5 754Q250 798 270 818L315 790Q294 756 269 712.5Q244 669 223 611.5Q202 554 188 480.5Q174 407 174 313Q174 219 188 147Q202 75 223 19.5Q244 -36 269 -78Q294 -120 315 -154Z" glyph-name="parenleft" horiz-adv-x="327" unicode="(" /><glyph d="M12 -154Q33 -120 58 -78Q83 -36 104 19.5Q125 75 139 147Q153 219 153 313Q153 407 139 480.5Q125 554 104 611.5Q83 669 58 712.5Q33 756 12 790L57 818Q77 798 116.5 754Q156 710 195.5 645Q235 580 264.5 496Q294 412 294 313Q294 214 264.5 131.5Q235 49 195.5 -14Q156 -77 116.5 -120Q77 -163 57 -182Z" glyph-name="parenright" horiz-adv-x="327" unicode=")" /><glyph d="M215 476 83 362L38 439L203 502L38 565L83 642L215 528L187 700H276L249 529L380 642L424 565L260 502L424 439L380 362L249 476L276 305H187Z" glyph-name="asterisk" horiz-adv-x="463" unicode="*" /><glyph d="M279 302 279 140H205V302H47V373H205V537H279V373H436V302Z" glyph-name="plus" horiz-adv-x="483" unicode="+" /><glyph d="M68 164 217 164V141L74 -147H20Z" glyph-name="comma" horiz-adv-x="261" unicode="," /><glyph d="M56 321 308 321V228H56Z" glyph-name="hyphen" horiz-adv-x="364" unicode="-" /><glyph d="M56 152 196 152V0H56Z" glyph-name="period" horiz-adv-x="252" unicode="." /><glyph d="M335 762 394 762L78 -130H22Z" glyph-name="slash" horiz-adv-x="415" unicode="/" /><glyph d="M296 -10Q242 -10 196 16Q150 42 116.5 88Q83 134 64 198Q45 262 45 337V363Q45 438 64 502Q83 566 116.5 612Q150 658 196 684Q242 710 296 710Q351 710 397 684Q443 658 476.5 612Q510 566 529 502Q548 438 548 363V337Q548 262 529 198Q510 134 476.5 88Q443 42 397 16Q351 -10 296 -10ZM296 40Q333 40 354.5 59.5Q376 79 386.5 111.5Q397 144 399.5 186Q402 228 402 273V427Q402 472 399.5 514Q397 556 386.5 588.5Q376 621 354.5 640.5Q333 660 296 660Q259 660 238 640.5Q217 621 206.5 588.5Q196 556 193.5 514Q191 472 191 427V273Q191 228 193.5 186Q196 144 206.5 111.5Q217 79 238 59.5Q259 40 296 40Z" glyph-name="zero" horiz-adv-x="593" unicode="0" /><glyph d="M48 60 166 66V607L28 565V618L241 700H301V66L417 60V0H48Z" glyph-name="one" horiz-adv-x="427" unicode="1" /><glyph d="M481 0 37 0V59L215 265Q247 303 268.5 335Q290 367 302.5 396.5Q315 426 320 455.5Q325 485 325 516Q325 582 294.5 617Q264 652 207 652Q188 652 170 648Q152 644 141 641L104 513H51L48 672Q77 683 112 691Q143 699 181 704.5Q219 710 262 710Q321 710 361 695Q401 680 425.5 656Q450 632 461 601.5Q472 571 472 539Q472 498 457.5 462Q443 426 417.5 392Q392 358 358.5 323.5Q325 289 286 251L158 118H413L460 206H504Z" glyph-name="two" horiz-adv-x="542" unicode="2" /><glyph d="M207 -10Q184 -10 160.5 -7Q137 -4 115.5 0Q94 4 76 9Q58 14 47 17L40 175H91L141 45Q145 44 159 42Q173 40 190 40Q270 40 312 80.5Q354 121 354 194Q354 232 340.5 258.5Q327 285 305 302Q283 319 255.5 326.5Q228 334 199 334Q191 334 183.5 333.5Q176 333 168 332L146 385Q194 390 229.5 406.5Q265 423 288.5 446Q312 469 323 495.5Q334 522 334 546Q334 597 300 625Q266 653 212 653Q193 653 178 650Q163 647 148 643L118 541H66L61 680Q92 688 126 695Q157 701 193 705.5Q229 710 267 710Q300 710 336 702.5Q372 695 401.5 677.5Q431 660 450.5 632Q470 604 470 563Q470 529 454.5 501Q439 473 413.5 451.5Q388 430 355.5 413.5Q323 397 290 386Q332 383 369 370Q406 357 433.5 334.5Q461 312 477 281Q493 250 493 212Q493 172 475.5 132Q458 92 422.5 60.5Q387 29 333 9.5Q279 -10 207 -10Z" glyph-name="three" horiz-adv-x="535" unicode="3" /><glyph d="M227 52 297 52V211H17V296L302 700H427V294H544V211H427V52H493V0H227ZM297 294 297 610L75 294Z" glyph-name="four" horiz-adv-x="566" unicode="4" /><glyph d="M207 -10Q166 -10 123.5 -6Q81 -2 47 8L49 155H98L137 46Q153 42 170 40.5Q187 39 203 39Q284 39 326.5 79Q369 119 369 185Q369 224 351 251Q333 278 304 294Q275 310 237 317Q199 324 159 324Q136 324 113.5 322.5Q91 321 68 316L81 700H477L460 583H126L121 443Q141 446 161 448Q181 450 201 450Q259 450 311 437Q363 424 402 397.5Q441 371 463.5 329.5Q486 288 486 231Q486 177 465 132.5Q444 88 406.5 56.5Q369 25 318 7.5Q267 -10 207 -10Z" glyph-name="five" horiz-adv-x="526" unicode="5" /><glyph d="M287 -10Q238 -10 192.5 6Q147 22 113 54.5Q79 87 58.5 135Q38 183 38 246Q38 314 61.5 374Q85 434 122.5 485.5Q160 537 206 579Q252 621 297.5 652.5Q343 684 383 704Q423 724 447 732L490 716Q466 702 432.5 673Q399 644 363 605Q327 566 292.5 519.5Q258 473 232 424Q271 435 310 435Q351 435 391.5 422.5Q432 410 464 384.5Q496 359 516 319Q536 279 536 223Q536 180 520.5 138Q505 96 473.5 63Q442 30 395.5 10Q349 -10 287 -10ZM290 41Q318 41 338.5 54.5Q359 68 372 90.5Q385 113 391.5 142Q398 171 398 202Q398 283 361.5 332.5Q325 382 261 382Q236 382 212 375Q195 340 185 294Q175 248 175 203Q175 171 181.5 141.5Q188 112 202 89.5Q216 67 238 54Q260 41 290 41Z" glyph-name="six" horiz-adv-x="563" unicode="6" /><glyph d="M105 0 408 579H107L87 476H32L30 700H497V648L196 0Z" glyph-name="seven" horiz-adv-x="506" unicode="7" /><glyph d="M277 -10Q220 -10 176 4Q132 18 102 42Q72 66 57 98.5Q42 131 42 168Q42 233 82 275.5Q122 318 191 342L165 359Q114 389 89.5 430.5Q65 472 65 518Q65 561 82.5 596.5Q100 632 131 657Q162 682 204.5 696Q247 710 297 710Q338 710 375 699.5Q412 689 440 669Q468 649 485 619.5Q502 590 502 552Q502 518 489.5 493Q477 468 457.5 449Q438 430 414.5 417Q391 404 368 394L394 380Q459 346 494.5 303Q530 260 530 194Q530 153 512.5 116Q495 79 462 51Q429 23 382.5 6.5Q336 -10 277 -10ZM333 413Q369 436 394.5 473.5Q420 511 420 553Q420 603 389 633Q358 663 305 663Q254 663 222 634Q190 605 190 557Q190 518 215.5 490Q241 462 288 437ZM276 38Q300 38 323.5 45Q347 52 365.5 66.5Q384 81 395.5 103Q407 125 407 155Q407 204 367.5 235.5Q328 267 262 300L230 317Q188 292 161.5 254.5Q135 217 135 167Q135 110 174 74Q213 38 276 38Z" glyph-name="eight" horiz-adv-x="572" unicode="8" /><glyph d="M277 711Q327 711 371.5 695Q416 679 450.5 646.5Q485 614 505 566Q525 518 525 455Q525 387 501.5 327Q478 267 441 215.5Q404 164 358 122Q312 80 266.5 48.5Q221 17 181 -3Q141 -23 117 -31L74 -15Q98 -1 131.5 28Q165 57 201 96Q237 135 271.5 181.5Q306 228 332 277Q293 266 254 266Q213 266 172.5 278.5Q132 291 99.5 316.5Q67 342 47 382.5Q27 423 27 478Q27 522 43 563.5Q59 605 90.5 638Q122 671 168.5 691Q215 711 277 711ZM274 660Q246 660 225.5 646.5Q205 633 191.5 610.5Q178 588 171.5 559Q165 530 165 499Q165 418 202 368.5Q239 319 303 319Q314 319 326.5 320.5Q339 322 351 326Q368 362 378 407.5Q388 453 388 498Q388 530 381.5 559.5Q375 589 361.5 611.5Q348 634 326 647Q304 660 274 660Z" glyph-name="nine" horiz-adv-x="563" unicode="9" /><glyph d="M57 488 197 488V336H57ZM57 152 197 152V0H57Z" glyph-name="colon" horiz-adv-x="254" unicode=":" /><glyph d="M78 488 218 488V336H78ZM72 164 221 164V141L78 -147H24Z" glyph-name="semicolon" horiz-adv-x="276" unicode=";" /><glyph d="M32 301 32 373L421 529V455L115 338L421 219V146Z" glyph-name="less" horiz-adv-x="483" unicode="&lt;" /><glyph d="M47 462 436 462V391H47ZM47 285 436 285V214H47Z" glyph-name="equal" horiz-adv-x="483" unicode="=" /><glyph d="M62 219 367 338L62 455V529L451 373V301L62 146Z" glyph-name="greater" horiz-adv-x="483" unicode="&gt;" /><glyph d="M180 239Q180 283 195 320.5Q210 358 228.5 394Q247 430 262 467Q277 504 277 547Q277 601 249 623Q221 645 177 645Q155 645 136.5 640Q118 635 113 634L97 525H46L29 670Q56 681 88 690Q117 698 152 704Q187 710 228 710Q320 710 373 668.5Q426 627 426 558Q426 523 412.5 492.5Q399 462 379 435.5Q359 409 334.5 384.5Q310 360 289 336.5Q268 313 252.5 289Q237 265 234 239ZM139 157 279 157V0H139Z" glyph-name="question" horiz-adv-x="460" unicode="?" /><glyph d="M399 -10Q369 -10 344.5 0Q320 10 303.5 27.5Q287 45 278 68Q269 91 269 117Q269 150 280 174Q291 198 311 214.5Q331 231 359 240.5Q387 250 421 256L545 277V347Q545 387 523.5 408.5Q502 430 451 430Q437 430 420.5 428.5Q404 427 385 423L361 330H310L301 454Q351 474 400.5 486Q450 498 510 498Q541 498 571 491Q601 484 624 467.5Q647 451 661.5 424.5Q676 398 676 360V102Q676 74 688 66Q700 58 717 58Q746 58 769 79Q792 100 807.5 133.5Q823 167 831.5 209Q840 251 840 293Q840 371 815 433.5Q790 496 744.5 539.5Q699 583 636 606Q573 629 497 629Q408 629 338 599.5Q268 570 220 517.5Q172 465 147 393Q122 321 122 236Q122 146 149.5 75.5Q177 5 227 -44.5Q277 -94 347 -120Q417 -146 502 -146Q540 -146 581.5 -141Q623 -136 663.5 -126Q704 -116 742 -101Q780 -86 810 -66L819 -117Q740 -164 662 -187Q584 -210 487 -210Q399 -210 318 -184Q237 -158 174.5 -103.5Q112 -49 75 35Q38 119 38 236Q38 336 72 418.5Q106 501 167.5 559.5Q229 618 314 650.5Q399 683 501 683Q605 683 683.5 649.5Q762 616 814 561.5Q866 507 892 439Q918 371 918 302Q918 242 902.5 185.5Q887 129 855.5 85.5Q824 42 777 15.5Q730 -11 668 -11Q640 -11 619 -4Q598 3 584 14Q570 25 561.5 37.5Q553 50 549 60Q517 24 477 7Q437 -10 399 -10ZM461 74Q484 74 505 84Q526 94 545 108V230L476 214Q443 206 424 192Q405 178 405 141V136Q405 110 418.5 92Q432 74 461 74Z" glyph-name="at" horiz-adv-x="959" unicode="@" /><glyph d="M231 0 1 0V58H63L298 700H398L641 58H707V0H394V58H488L419 246H192L126 58H231ZM398 301 303 561L211 301Z" glyph-name="A" horiz-adv-x="700" unicode="A" /><glyph d="M460 366Q495 361 526.5 347Q558 333 581.5 311Q605 289 619 259Q633 229 633 190V188Q633 154 618.5 120.5Q604 87 573 60Q542 33 493.5 16.5Q445 0 376 0H42V58H121V642H42V700H379Q430 700 471 687.5Q512 675 540.5 652.5Q569 630 584 599.5Q599 569 599 533V531Q599 499 588 472.5Q577 446 558 426Q539 406 513.5 391.5Q488 377 460 368ZM324 389Q351 389 375.5 396Q400 403 418.5 418.5Q437 434 448 458.5Q459 483 459 519Q459 583 425 612.5Q391 642 334 642H263V389ZM353 58Q420 58 452.5 94.5Q485 131 485 186V191Q485 257 448 294Q411 331 351 331H263V58Z" glyph-name="B" horiz-adv-x="670" unicode="B" /><glyph d="M399 -10Q318 -10 251.5 15.5Q185 41 138.5 88Q92 135 66.5 201Q41 267 41 348Q41 439 70 507Q99 575 148.5 620Q198 665 264 687.5Q330 710 404 710Q433 710 465.5 707Q498 704 530.5 699.5Q563 695 593.5 689.5Q624 684 648 678L642 506H584L547 633Q518 641 484.5 646.5Q451 652 419 652Q373 652 331.5 636Q290 620 259 585.5Q228 551 210 497Q192 443 192 366Q192 296 207 237.5Q222 179 252.5 137Q283 95 328.5 72Q374 49 434 49Q481 49 509.5 56.5Q538 64 543 65L608 205H666L641 34Q610 22 572 12Q537 3 494 -3.5Q451 -10 399 -10Z" glyph-name="C" horiz-adv-x="695" unicode="C" /><glyph d="M741 344Q741 260 713.5 196Q686 132 638 88.5Q590 45 524.5 22.5Q459 0 383 0H42V58H121V642H42V700H383Q459 700 524.5 678Q590 656 638 612.5Q686 569 713.5 504.5Q741 440 741 356ZM596 354Q596 438 579 493.5Q562 549 530.5 582Q499 615 455 628.5Q411 642 358 642H263V58H358Q411 58 455 71.5Q499 85 530.5 118Q562 151 579 206.5Q596 262 596 346Z" glyph-name="D" horiz-adv-x="783" unicode="D" /><glyph d="M42 58 121 58V642H42V700H598V520H544L493 642H263V378H383L408 473H460V222H408L383 321H263V58H512L595 205H648L622 0H42Z" glyph-name="E" horiz-adv-x="669" unicode="E" /><glyph d="M42 58 121 58V642H42V700H593V520H539L488 642H263V374H392L418 465H470V222H418L392 316H263V58H366V0H42Z" glyph-name="F" horiz-adv-x="613" unicode="F" /><glyph d="M190 355Q190 283 209.5 227Q229 171 264.5 132Q300 93 349 72.5Q398 52 457 52Q502 52 529 59Q556 66 562 67V269H449V327H761V269H700V45Q683 38 654.5 28.5Q626 19 588.5 11Q551 3 505.5 -3Q460 -9 408 -9Q326 -9 258 16.5Q190 42 141.5 88.5Q93 135 66.5 199.5Q40 264 40 343Q40 434 71 503Q102 572 155.5 618Q209 664 280 687Q351 710 431 710Q504 710 573 699.5Q642 689 698 675L690 506H633L592 629Q560 639 525.5 645Q491 651 447 651Q395 651 348.5 634Q302 617 266.5 581Q231 545 210.5 489Q190 433 190 355Z" glyph-name="G" horiz-adv-x="784" unicode="G" /><glyph d="M42 58 121 58V642H42V700H354V642H262V383H583V642H490V700H803V642H724V58H803V0H490V58H583V325H262V58H354V0H42Z" glyph-name="H" horiz-adv-x="845" unicode="H" /><glyph d="M34 58 129 58V642H34V700H364V642H270V58H364V0H34Z" glyph-name="I" horiz-adv-x="399" unicode="I" /><glyph d="M34 -169 112 -79V642H43V700H305L285 642H253V8Q253 -23 247 -51Q241 -79 222 -104.5Q203 -130 167.5 -154Q132 -178 74 -202Z" glyph-name="J" horiz-adv-x="353" unicode="J" /><glyph d="M42 58 121 58V642H42V700H337V642H263V381H306L552 642H452V700H714V642H634L415 414L678 58H740V0H544L312 325H263V58H342V0H42Z" glyph-name="K" horiz-adv-x="732" unicode="K" /><glyph d="M42 58 121 58V642H42V700H337V642H263V58H495L566 215H621L600 0H42Z" glyph-name="L" horiz-adv-x="632" unicode="L" /><glyph d="M37 58 119 58V642H37V700H303L501 241L689 700H946V642H862V58H946V0H617V58H721V612L498 79H418L184 612V58H284V0H37Z" glyph-name="M" horiz-adv-x="982" unicode="M" /><glyph d="M35 58 128 58V642H35V700H274L633 172V642H535V700H793V642H697V0H586L193 576V58H298V0H35Z" glyph-name="N" horiz-adv-x="818" unicode="N" /><glyph d="M388 -10Q321 -10 258.5 13.5Q196 37 147.5 82.5Q99 128 69.5 194.5Q40 261 40 348Q40 434 69.5 501.5Q99 569 147.5 615.5Q196 662 258.5 686Q321 710 388 710Q454 710 516.5 686Q579 662 627.5 615.5Q676 569 705.5 501.5Q735 434 735 348Q735 261 705.5 194.5Q676 128 627.5 82.5Q579 37 516.5 13.5Q454 -10 388 -10ZM388 44Q438 44 474 61Q510 78 534 109Q558 140 569.5 182Q581 224 581 273V426Q581 476 569.5 518Q558 560 534 590.5Q510 621 474 638.5Q438 656 388 656Q338 656 301.5 638.5Q265 621 241 590.5Q217 560 205.5 518Q194 476 194 426V273Q194 224 205.5 182Q217 140 241 109Q265 78 301.5 61Q338 44 388 44Z" glyph-name="O" horiz-adv-x="775" unicode="O" /><glyph d="M42 58 121 58V642H42V700H380Q437 700 480 683.5Q523 667 551.5 639.5Q580 612 594.5 576.5Q609 541 609 503Q609 452 591.5 410Q574 368 543.5 338.5Q513 309 470 293Q427 277 376 277Q362 277 345.5 278.5Q329 280 313 282Q297 284 284 286Q271 288 263 290V58H357V0H42ZM332 338Q397 338 430 373.5Q463 409 463 495Q463 570 429.5 606Q396 642 338 642H263V342Q280 340 298.5 339Q317 338 332 338Z" glyph-name="P" horiz-adv-x="629" unicode="P" /><glyph d="M672 -163 408 -9Q403 -10 398 -10Q393 -10 388 -10Q321 -10 258.5 13.5Q196 37 147.5 82.5Q99 128 69.5 194.5Q40 261 40 348Q40 434 69.5 501.5Q99 569 147.5 615.5Q196 662 258.5 686Q321 710 388 710Q454 710 516.5 686Q579 662 627.5 615.5Q676 569 705.5 501.5Q735 434 735 348Q735 291 721.5 242Q708 193 684.5 153.5Q661 114 629 84Q597 54 559 33L735 -56L836 -35L831 -90ZM388 44Q438 44 474 61Q510 78 534 109Q558 140 569.5 182Q581 224 581 273V426Q581 476 569.5 518Q558 560 534 590.5Q510 621 474 638.5Q438 656 388 656Q338 656 301.5 638.5Q265 621 241 590.5Q217 560 205.5 518Q194 476 194 426V273Q194 224 205.5 182Q217 140 241 109Q265 78 301.5 61Q338 44 388 44Z" glyph-name="Q" horiz-adv-x="775" unicode="Q" /><glyph d="M349 0 39 0V58H118V642H39V700H389Q451 700 499 685.5Q547 671 579.5 646Q612 621 629 588Q646 555 646 517Q646 483 633.5 453Q621 423 598.5 399Q576 375 546.5 357.5Q517 340 482 329L680 58H736V0H553L345 301Q320 301 297 303Q274 305 259 308V58H349ZM359 359Q380 359 404 364.5Q428 370 449 386Q470 402 484 429.5Q498 457 498 501Q498 575 453 608.5Q408 642 339 642H259V359Z" glyph-name="R" horiz-adv-x="727" unicode="R" /><glyph d="M277 -10Q209 -10 149 3.5Q89 17 52 31L46 215H99L149 72Q169 61 197.5 53.5Q226 46 256 46Q322 46 355.5 77Q389 108 389 152Q389 175 379 193Q369 211 352.5 226Q336 241 313.5 255Q291 269 267 282L196 322Q169 337 144.5 355Q120 373 102 395.5Q84 418 73 446Q62 474 62 509Q62 548 77.5 584.5Q93 621 124 649Q155 677 202 693.5Q249 710 312 710Q345 710 377.5 705.5Q410 701 437 696Q468 689 496 681L487 515H431L392 642Q386 644 368 650Q350 656 318 656Q266 656 230 629Q194 602 194 555Q194 517 220 490.5Q246 464 284 443L363 398Q393 381 422 362.5Q451 344 474 321Q497 298 511 268.5Q525 239 525 200Q525 151 504.5 112Q484 73 449.5 46Q415 19 370.5 4.5Q326 -10 277 -10Z" glyph-name="S" horiz-adv-x="562" unicode="S" /><glyph d="M153 58 256 58V642L123 640L73 515H19V700H632V515H578L529 640L397 642V58H500V0H153Z" glyph-name="T" horiz-adv-x="651" unicode="T" /><glyph d="M398 -10Q314 -10 258 9.5Q202 29 168.5 61Q135 93 120.5 133.5Q106 174 106 216V642H32V700H347V642H247V227Q247 194 255 162.5Q263 131 283.5 107Q304 83 339.5 68.5Q375 54 430 54Q516 54 569.5 101.5Q623 149 622 237V642H523V700H763V642H684V229Q684 176 664 132Q644 88 607 56.5Q570 25 517 7.5Q464 -10 398 -10Z" glyph-name="U" horiz-adv-x="788" unicode="U" /><glyph d="M65 642 -2 642V700H321V642H220L400 148L580 642H477V700H717V642H647L405 0H307Z" glyph-name="V" horiz-adv-x="712" unicode="V" /><glyph d="M559 406 404 0H307L65 642H-2V700H300V642H220L401 146L530 485L472 642H405V700H728V642H626L803 148L983 642H879V700H1119V642H1048L807 0H709Z" glyph-name="W" horiz-adv-x="1114" unicode="W" /><glyph d="M267 0 -1 0V58H80L297 346L84 642H20V700H331V642H251L396 441L545 642H437V700H707V642H621L433 390L673 58H737V0H406V58H505L332 298L157 58H267Z" glyph-name="X" horiz-adv-x="733" unicode="X" /><glyph d="M182 58 276 58V320L64 642H2V700H316V642H227L395 382L562 642H469V700H691V642H628L417 322V58H510V0H182Z" glyph-name="Y" horiz-adv-x="693" unicode="Y" /><glyph d="M26 48 444 642H159L108 509H55V700H608V653L188 58H513L586 190H637L618 0H26Z" glyph-name="Z" horiz-adv-x="660" unicode="Z" /><glyph d="M81 803 351 803V745H222V-108H351V-165H81Z" glyph-name="bracketleft" horiz-adv-x="359" unicode="[" /><glyph d="M21 762 79 762L393 -130H336Z" glyph-name="backslash" horiz-adv-x="415" unicode="\" /><glyph d="M8 -165 8 -108H137V745H8V803H278V-165Z" glyph-name="bracketright" horiz-adv-x="359" unicode="]" /><glyph d="M201 723 281 723L457 234H384L241 658L97 234H25Z" glyph-name="asciicircum" horiz-adv-x="483" unicode="^" /><glyph d="M0 -71 291 -71V-134H0Z" glyph-name="underscore" horiz-adv-x="291" unicode="_" /><glyph d="M32 705 33 716L170 726L270 554L223 544Z" glyph-name="grave" horiz-adv-x="411" unicode="`" /><glyph d="M159 -10Q95 -10 61 26.5Q27 63 27 117Q27 150 38 174Q49 198 69 214.5Q89 231 117 240.5Q145 250 179 256L304 277V347Q304 387 282.5 408.5Q261 430 209 430Q195 430 176.5 428Q158 426 141 421L119 330H68L59 454Q104 470 159.5 484Q215 498 279 498Q310 498 338.5 491Q367 484 388.5 467.5Q410 451 422.5 424.5Q435 398 435 360V57H490V5L302 -8L305 60Q273 28 233.5 9Q194 -10 159 -10ZM219 74Q242 74 263 84Q284 94 304 108V230L234 214Q201 206 182.5 192Q164 178 164 141V136Q164 110 177 92Q190 74 219 74Z" glyph-name="a" horiz-adv-x="510" unicode="a" /><glyph d="M540 253Q540 188 522 139Q504 90 473.5 57Q443 24 402.5 7Q362 -10 317 -10Q274 -10 236.5 2Q199 14 171 37L110 -12L65 -7V681L9 691V742H198L196 417Q222 455 260 476.5Q298 498 349 498Q437 498 488.5 435.5Q540 373 540 253ZM294 415Q252 415 224 392Q196 369 196 315V79Q206 76 225 67.5Q244 59 273 59Q298 59 320.5 66.5Q343 74 359.5 90.5Q376 107 386 135Q396 163 396 203V286Q396 343 369 379Q342 415 294 415Z" glyph-name="b" horiz-adv-x="576" unicode="b" /><glyph d="M269 -10Q208 -10 163.5 9.5Q119 29 90.5 62.5Q62 96 48 141Q34 186 34 238Q34 297 50.5 345Q67 393 99.5 427Q132 461 179 479.5Q226 498 286 498Q308 498 333.5 495Q359 492 382 487.5Q405 483 422.5 479.5Q440 476 445 474L443 347H390L352 437Q327 443 303 443Q240 443 207 394.5Q174 346 174 252V236Q174 188 185.5 152.5Q197 117 216.5 94.5Q236 72 262.5 61Q289 50 320 50Q333 50 344 51.5Q355 53 368 56L412 154H463L453 27Q413 7 368.5 -1.5Q324 -10 269 -10Z" glyph-name="c" horiz-adv-x="492" unicode="c" /><glyph d="M223 -10Q136 -10 86 51Q36 112 36 233Q36 296 52.5 345Q69 394 98 428Q127 462 168.5 480Q210 498 259 498Q307 498 333.5 487Q360 476 380 461V675L308 691V742H511V51H566V4L374 -6L380 71Q354 33 314.5 11.5Q275 -10 223 -10ZM281 80Q326 80 353 102Q380 124 380 178V419Q370 422 349 428.5Q328 435 299 435Q241 435 210.5 396Q180 357 180 286V210Q180 152 206 116Q232 80 281 80Z" glyph-name="d" horiz-adv-x="588" unicode="d" /><glyph d="M263 -10Q207 -10 164.5 9Q122 28 93 61.5Q64 95 49 140.5Q34 186 34 238Q34 288 48 335Q62 382 90.5 418Q119 454 162.5 476Q206 498 264 498Q306 498 342 485.5Q378 473 404.5 448Q431 423 446 386Q461 349 461 299V258H174V237Q174 152 216.5 113.5Q259 75 326 75Q347 75 368 78.5Q389 82 407.5 87Q426 92 440.5 97.5Q455 103 463 106L461 55Q427 29 375.5 9.5Q324 -10 263 -10ZM332 314Q336 387 320 420Q304 453 263 453Q224 453 201.5 421.5Q179 390 176 305Z" glyph-name="e" horiz-adv-x="500" unicode="e" /><glyph d="M31 51 89 51V437H31V488H89V579Q89 668 137.5 710.5Q186 753 275 753Q300 753 320.5 750.5Q341 748 356 746Q374 742 388 738L399 617L357 609L313 696Q308 697 303 697Q298 697 293 697Q251 697 235.5 673.5Q220 650 220 608V488H337L327 437H220V51H290V0H31Z" glyph-name="f" horiz-adv-x="348" unicode="f" /><glyph d="M523 -66Q523 -118 496.5 -155.5Q470 -193 427.5 -217.5Q385 -242 331.5 -254Q278 -266 224 -266Q115 -266 62 -229Q9 -192 9 -135Q9 -112 18.5 -92Q28 -72 44.5 -57Q61 -42 82 -32.5Q103 -23 127 -20Q96 -12 75 13.5Q54 39 54 75Q54 105 70.5 134Q87 163 113 183Q80 206 61 241Q42 276 42 321Q42 361 58 393.5Q74 426 102 449.5Q130 473 168 485.5Q206 498 250 498Q296 498 338 484L543 492L527 415L523 413L416 433Q436 411 447 383Q458 355 458 321Q458 281 442 248Q426 215 398 191.5Q370 168 332 155.5Q294 143 250 143Q191 143 146 164Q140 156 136 146.5Q132 137 132 127Q132 105 147 90Q162 75 199 73L365 67Q447 64 485 27Q523 -10 523 -66ZM327 369Q327 406 307.5 428Q288 450 250 450Q213 450 193.5 428Q174 406 174 369V272Q174 235 193.5 213Q213 191 250 191Q288 191 307.5 213Q327 235 327 272ZM255 -219Q286 -219 314.5 -213Q343 -207 364.5 -195Q386 -183 399 -165Q412 -147 412 -122Q412 -89 387.5 -74.5Q363 -60 318 -56Q264 -51 227.5 -49Q191 -47 182 -47Q168 -47 152 -51.5Q136 -56 123 -65.5Q110 -75 101.5 -89.5Q93 -104 93 -123Q93 -168 137.5 -193.5Q182 -219 255 -219Z" glyph-name="g" horiz-adv-x="540" unicode="g" /><glyph d="M277 0 25 0V51H80V680L23 691V742H216Q216 729 215 701Q214 673 213.5 638Q213 603 212.5 564.5Q212 526 211.5 493Q211 460 210.5 436Q210 412 210 406Q231 423 253 439.5Q275 456 298 469Q321 482 345.5 490Q370 498 395 498Q458 498 493 463.5Q528 429 528 357V51H585V0H342V51H397V334Q397 366 383 385.5Q369 405 336 405Q314 405 283.5 394Q253 383 211 360V51H277Z" glyph-name="h" horiz-adv-x="606" unicode="h" /><glyph d="M92 711 225 711V578H92ZM25 51 94 51V437H29V488H225V51H289V0H25Z" glyph-name="i" horiz-adv-x="309" unicode="i" /><glyph d="M73 711 206 711V578H73ZM206 -83Q206 -126 182.5 -162.5Q159 -199 97 -233L44 -263L12 -230L75 -158V437H28V488H206Z" glyph-name="j" horiz-adv-x="271" unicode="j" /><glyph d="M24 51 81 51V680L29 691V742H212V295H264L414 437H320V488H558V437H491L358 313L531 51H585V0H410L255 244H212V51H273V0H24Z" glyph-name="k" horiz-adv-x="583" unicode="k" /><glyph d="M17 51 84 51V680L23 691V742H215V51H282V0H17Z" glyph-name="l" horiz-adv-x="299" unicode="l" /><glyph d="M33 51 90 51V437H29V488L222 498Q221 479 221 461Q220 445 219.5 429Q219 413 219 402Q237 419 257.5 436Q278 453 301 466.5Q324 480 350 489Q376 498 404 498Q449 498 481 475Q513 452 524 401Q541 418 561 435Q581 452 604 466Q627 480 652.5 489Q678 498 706 498Q766 498 800.5 463.5Q835 429 835 357V51H892V0H648V51H704V334Q704 366 688.5 384.5Q673 403 641 403Q619 403 593.5 392Q568 381 528 358V51H595V0H341V51H397V334Q397 366 382 384.5Q367 403 335 403Q312 403 286 392Q260 381 221 358V51H289V0H33Z" glyph-name="m" horiz-adv-x="912" unicode="m" /><glyph d="M33 51 90 51V437H29V488L222 498Q221 479 221 461Q220 445 219.5 429.5Q219 414 219 405Q240 422 262 439Q284 456 307 469Q330 482 355 490Q380 498 405 498Q468 498 503 463.5Q538 429 538 357V51H595V0H352V51H407V334Q407 366 393 385.5Q379 405 346 405Q325 405 294 394Q263 383 221 360V51H287V0H33Z" glyph-name="n" horiz-adv-x="616" unicode="n" /><glyph d="M273 -10Q224 -10 180.5 8Q137 26 104 59Q71 92 52 139Q33 186 33 243Q33 300 52 347Q71 394 104 427.5Q137 461 180.5 479.5Q224 498 273 498Q321 498 364.5 479.5Q408 461 441 427.5Q474 394 493 347.5Q512 301 512 244Q512 187 493 140Q474 93 441 59.5Q408 26 364.5 8Q321 -10 273 -10ZM273 40Q318 40 343 70.5Q368 101 368 165V323Q368 386 343 417Q318 448 273 448Q228 448 202.5 417.5Q177 387 177 324V165Q177 101 202.5 70.5Q228 40 273 40Z" glyph-name="o" horiz-adv-x="545" unicode="o" /><glyph d="M290 -250 25 -250V-199H82V437H20V488L213 498V417Q239 455 276.5 476.5Q314 498 366 498Q453 498 504.5 435.5Q556 373 556 253Q556 188 538.5 139Q521 90 490.5 57Q460 24 419.5 7Q379 -10 334 -10Q299 -10 268.5 -2Q238 6 213 20V-199H290ZM310 415Q268 415 240.5 392Q213 369 213 315V79Q222 76 241 67.5Q260 59 289 59Q314 59 336.5 66.5Q359 74 375.5 90.5Q392 107 402 135Q412 163 412 203V286Q412 346 385.5 380.5Q359 415 310 415Z" glyph-name="p" horiz-adv-x="592" unicode="p" /><glyph d="M572 -250 296 -250V-199H380V70Q353 31 312.5 10.5Q272 -10 223 -10Q136 -10 86 51Q36 112 36 233Q36 296 51.5 345Q67 394 96 428Q125 462 165.5 480Q206 498 255 498Q307 498 337.5 486Q368 474 388 460L460 498H511V-199H572ZM281 80Q326 80 353 102Q380 124 380 178V419Q370 422 349 428.5Q328 435 299 435Q241 435 210.5 396Q180 357 180 286V210Q180 152 206 116Q232 80 281 80Z" glyph-name="q" horiz-adv-x="576" unicode="q" /><glyph d="M32 51 89 51V437H28V488L221 498L218 380L252 426Q279 464 305 481Q331 498 354 498Q364 498 375 496Q386 494 395 492Q406 489 416 486L409 360Q400 363 375 369.5Q350 376 322 376Q300 376 274.5 362.5Q249 349 220 330V51H296V0H32Z" glyph-name="r" horiz-adv-x="430" unicode="r" /><glyph d="M213 -10Q156 -10 116.5 -1Q77 8 46 19L41 160H88L129 55Q139 50 158 46Q177 42 202 42Q235 42 259 59.5Q283 77 283 109Q283 136 262.5 150.5Q242 165 206 184L150 213Q131 223 112 235.5Q93 248 79 264Q65 280 56 301Q47 322 47 349Q47 377 58 403.5Q69 430 92.5 451Q116 472 151.5 485Q187 498 235 498Q292 498 335 489.5Q378 481 392 476L384 356H335L306 439Q294 444 280 445.5Q266 447 252 447Q217 447 192 431.5Q167 416 167 385Q167 361 183 346Q199 331 224 318L291 284Q312 273 333.5 261Q355 249 371.5 233.5Q388 218 398.5 197.5Q409 177 409 149Q409 110 393.5 80.5Q378 51 351 31Q324 11 288.5 0.5Q253 -10 213 -10Z" glyph-name="s" horiz-adv-x="441" unicode="s" /><glyph d="M206 -8Q168 -8 144 1.5Q120 11 106.5 26Q93 41 88 60.5Q83 80 83 100V437H11V474L84 502L98 644H214V488H347L337 437H214V129Q214 96 229.5 81.5Q245 67 274 67Q297 67 322.5 74Q348 81 356 86L355 32Q334 21 309 12Q287 4 261 -2Q235 -8 206 -8Z" glyph-name="t" horiz-adv-x="362" unicode="t" /><glyph d="M217 -10Q151 -10 116 25.5Q81 61 81 123V437H22V488H212V140Q212 113 227 97Q242 81 271 81Q292 81 317.5 92.5Q343 104 386 136V437H323V488H522Q521 428 520 372Q519 339 518.5 316Q518 293 517.5 270Q517 247 517 225Q517 203 517 185V51H574V0L385 -10L388 86Q372 68 353 51Q334 34 312.5 20.5Q291 7 267 -1.5Q243 -10 217 -10Z" glyph-name="u" horiz-adv-x="596" unicode="u" /><glyph d="M56 437 6 437V488H267V437H201L321 136L440 437H375V488H552V437H502L324 0H233Z" glyph-name="v" horiz-adv-x="557" unicode="v" /><glyph d="M502 488 628 126L719 437H650V488H833V437H783L640 0H541L421 354L305 0H205L55 437H7V488H264V437H196L293 125L409 488Z" glyph-name="w" horiz-adv-x="840" unicode="w" /><glyph d="M211 0 10 0V51H67L212 235L81 437H20V488H197L304 324L391 437H322V488H517V437H461L335 276L482 51H541V0H365L243 187L138 51H211Z" glyph-name="x" horiz-adv-x="546" unicode="x" /><glyph d="M52 -243 52 -191L175 -180L249 -12L60 437H8V488H191L323 143L431 437H347V488H551V437H497L209 -253Z" glyph-name="y" horiz-adv-x="554" unicode="y" /><glyph d="M26 41 304 437H138L99 320H49L47 488H451V440L181 51H365L430 177H476L461 0H26Z" glyph-name="z" horiz-adv-x="495" unicode="z" /><glyph d="M241 467Q241 394 202.5 360Q164 326 100 318Q164 310 202.5 276Q241 242 241 169V-52Q241 -71 246 -82.5Q251 -94 259.5 -100Q268 -106 279 -107.5Q290 -109 302 -109H343V-166H223Q160 -166 130 -137Q100 -108 100 -57V232Q100 259 87.5 276Q75 293 41 293H5V343H41Q75 343 87.5 359.5Q100 376 100 403V693Q100 744 130 773.5Q160 803 223 803H343V745H302Q290 745 279 743.5Q268 742 259.5 736Q251 730 246 718.5Q241 707 241 688Z" glyph-name="braceleft" horiz-adv-x="355" unicode="{" /><glyph d="M83 834 151 834V-157H83Z" glyph-name="bar" horiz-adv-x="234" unicode="|" /><glyph d="M114 688Q114 707 109 718.5Q104 730 96 736Q88 742 76.5 743.5Q65 745 53 745H12V803H132Q195 803 225 773.5Q255 744 255 693V403Q255 376 267.5 359.5Q280 343 314 343H350V293H314Q280 293 267.5 276Q255 259 255 232V-57Q255 -108 225 -137Q195 -166 132 -166H12V-109H53Q65 -109 76.5 -107.5Q88 -106 96 -100Q104 -94 109 -82.5Q114 -71 114 -52V169Q114 242 152.5 276Q191 310 255 318Q191 326 152.5 360Q114 394 114 467Z" glyph-name="braceright" horiz-adv-x="355" unicode="}" /><glyph d="M44 287Q44 359 69 390.5Q94 422 133 422Q151 422 182.5 414Q214 406 248 396.5Q282 387 312 379Q342 371 356 371Q375 371 384.5 382.5Q394 394 394 425H447Q447 353 419 321.5Q391 290 351 290Q335 290 302 298Q269 306 234.5 315.5Q200 325 170 333Q140 341 129 341Q110 341 101 329.5Q92 318 92 287Z" glyph-name="asciitilde" horiz-adv-x="483" unicode="~" /><glyph d="M62 488 202 488V331H62ZM107 258 157 258L199 48L206 -217H58L65 48Z" glyph-name="exclamdown" horiz-adv-x="264" unicode="¡" /><glyph d="M270 -10 255 -10L224 -147H168L200 -2Q157 8 126 30.5Q95 53 75 84.5Q55 116 45 155.5Q35 195 35 238Q35 297 51.5 345Q68 393 100.5 427Q133 461 180 479.5Q227 498 287 498Q293 498 299 498Q305 498 311 497L333 597H390L366 490Q395 485 417.5 480.5Q440 476 446 474L444 347H391L354 435L270 58Q296 50 321 50Q334 50 345 51.5Q356 53 369 56L413 154H464L454 27Q414 7 369.5 -1.5Q325 -10 270 -10ZM175 236Q175 185 187 149.5Q199 114 221 91L299 443Q238 441 206.5 392Q175 343 175 252Z" glyph-name="cent" horiz-adv-x="507" unicode="¢" /><glyph d="M508 0 33 0V112H152L135 275H62V330H130L117 454Q99 579 158 642Q217 705 341 705Q361 705 385.5 702.5Q410 700 434 696.5Q458 693 481 688Q504 683 521 678L513 532H461L435 630Q427 632 409.5 636.5Q392 641 368 641Q316 641 289 605.5Q262 570 254 496L237 330H432V275H231L214 113H538Z" glyph-name="sterling" horiz-adv-x="571" unicode="£" /><glyph d="M36 45 156 166Q130 201 114.5 244.5Q99 288 99 336Q99 386 114 429.5Q129 473 158 509L37 632L80 675L201 551Q237 580 279.5 595.5Q322 611 370 611Q418 611 460.5 595.5Q503 580 538 552L660 675L702 630L581 508Q609 473 625.5 428.5Q642 384 642 336Q642 287 627 244Q612 201 583 165L703 46L660 1L541 121Q506 93 462 77.5Q418 62 370 62Q322 62 278.5 78Q235 94 200 122L81 2ZM370 123Q412 123 449 139.5Q486 156 514 185Q542 214 558 253Q574 292 574 336Q574 380 558 419Q542 458 514 487Q486 516 449 533Q412 550 370 550Q328 550 291 533Q254 516 226.5 487Q199 458 183 419Q167 380 167 336Q167 292 183 253Q199 214 226.5 185Q254 156 291 139.5Q328 123 370 123Z" glyph-name="currency" horiz-adv-x="739" unicode="¤" /><glyph d="M533 0 205 0V58H299V161H147V218H299V318H147V375H263L87 642H25V700H339V642H250L418 382L585 642H492V700H714V642H651L475 375H588V318H440V218H588V161H440V58H533Z" glyph-name="yen" horiz-adv-x="738" unicode="¥" /><glyph d="M84 834 152 834V393H84ZM84 306 152 306V-157H84Z" glyph-name="brokenbar" horiz-adv-x="236" unicode="¦" /><glyph d="M570 -8Q570 -47 554 -84Q538 -121 506.5 -149.5Q475 -178 427.5 -195.5Q380 -213 317 -213Q284 -213 251 -208.5Q218 -204 192 -199Q161 -192 133 -184L137 -14H193L237 -144Q243 -146 261.5 -152.5Q280 -159 312 -159Q338 -159 360.5 -151.5Q383 -144 399.5 -130Q416 -116 426 -96.5Q436 -77 436 -54Q436 -12 410.5 15Q385 42 331 68L170 142Q106 172 66 218.5Q26 265 26 333Q26 368 37.5 397.5Q49 427 69 450.5Q89 474 115.5 492Q142 510 171 521Q154 557 154 601Q154 640 170 677Q186 714 217.5 742.5Q249 771 296 788.5Q343 806 406 806Q439 806 471.5 801.5Q504 797 531 792Q561 785 589 777L585 606H530L485 737Q480 739 461.5 745Q443 751 411 751Q386 751 363 743.5Q340 736 323.5 722.5Q307 709 297 689.5Q287 670 287 647Q287 605 312.5 578Q338 551 392 525L553 450Q616 421 656.5 374.5Q697 328 697 259Q697 224 685.5 194.5Q674 165 654 141.5Q634 118 608 100.5Q582 83 553 72Q570 36 570 -8ZM416 191Q448 177 475.5 159Q503 141 523 118Q546 134 559 157.5Q572 181 572 207Q572 245 546 274.5Q520 304 470 327L307 401Q275 416 248 434Q221 452 201 475Q178 459 164.5 435.5Q151 412 151 386Q151 348 177 318.5Q203 289 253 266Z" glyph-name="section" horiz-adv-x="723" unicode="§" /><glyph d="M49 697 169 697V566H49ZM236 697 356 697V566H236Z" glyph-name="dieresis" horiz-adv-x="405" unicode="¨" /><glyph d="M417 -27Q330 -27 260 2Q190 31 141 82Q92 133 65.5 201.5Q39 270 39 349Q39 428 65.5 497Q92 566 141 617.5Q190 669 260 698.5Q330 728 417 728Q504 728 574 698.5Q644 669 693 618Q742 567 768.5 498Q795 429 795 350Q795 271 768.5 202.5Q742 134 693 83Q644 32 574 2.5Q504 -27 417 -27ZM417 19Q491 19 550 44.5Q609 70 650.5 114.5Q692 159 714.5 219.5Q737 280 737 350Q737 420 714.5 480.5Q692 541 650.5 586Q609 631 550 656.5Q491 682 417 682Q343 682 283.5 656Q224 630 182 585Q140 540 117.5 479.5Q95 419 95 349Q95 279 117.5 219Q140 159 182 114.5Q224 70 283.5 44.5Q343 19 417 19ZM418 130Q366 130 327 147Q288 164 262 194Q236 224 222.5 264.5Q209 305 209 353Q209 404 224 446Q239 488 266.5 517.5Q294 547 332.5 563Q371 579 418 579Q436 579 458 575.5Q480 572 500 567.5Q520 563 535.5 559Q551 555 556 553L550 445H510L496 518Q487 522 475 525Q465 528 452 530Q439 532 423 532Q363 532 330.5 491.5Q298 451 298 374V333Q298 256 335 215.5Q372 175 438 175Q456 175 470.5 179Q485 183 500 187L528 270H568L557 161Q522 144 484 137Q446 130 418 130Z" glyph-name="copyright" horiz-adv-x="834" unicode="©" /><glyph d="M169 212Q105 212 71 248.5Q37 285 37 339Q37 372 48 396Q59 420 79 436.5Q99 453 127 462.5Q155 472 189 478L314 499V569Q314 609 292.5 630.5Q271 652 219 652Q205 652 186.5 650Q168 648 151 643L129 552H78L69 676Q114 692 169.5 706Q225 720 289 720Q320 720 348.5 713Q377 706 398.5 689.5Q420 673 432.5 646.5Q445 620 445 582V279H500V227L312 214L315 282Q283 250 243.5 231Q204 212 169 212ZM229 296Q252 296 273 306Q294 316 314 330V452L244 436Q211 428 192.5 414Q174 400 174 363V358Q174 332 187 314Q200 296 229 296Z" glyph-name="ordfeminine" horiz-adv-x="537" unicode="ª" /><glyph d="M30 242 30 246L198 488H273L173 244L273 0H198ZM235 242 235 246L404 488H479L380 244L479 0H404Z" glyph-name="guillemotleft" horiz-adv-x="514" unicode="«" /><glyph d="M344 391 33 391V462H422V214H344Z" glyph-name="logicalnot" horiz-adv-x="483" unicode="¬" /><glyph d="M417 -27Q330 -27 260 2Q190 31 141 82Q92 133 65.5 201.5Q39 270 39 349Q39 428 65.5 497Q92 566 141 617.5Q190 669 260 698.5Q330 728 417 728Q504 728 574 698.5Q644 669 693 618Q742 567 768.5 498Q795 429 795 350Q795 271 768.5 202.5Q742 134 693 83Q644 32 574 2.5Q504 -27 417 -27ZM417 19Q491 19 550 44.5Q609 70 650.5 114.5Q692 159 714.5 219.5Q737 280 737 350Q737 420 714.5 480.5Q692 541 650.5 586Q609 631 550 656.5Q491 682 417 682Q343 682 283.5 656Q224 630 182 585Q140 540 117.5 479.5Q95 419 95 349Q95 279 117.5 219Q140 159 182 114.5Q224 70 283.5 44.5Q343 19 417 19ZM649 141 541 141L421 321L358 323V185H419V141H226V185H282V529H226V573H448Q480 573 504.5 564Q529 555 545.5 539Q562 523 571 502Q580 481 580 458Q580 433 572.5 413Q565 393 552 378Q539 363 523.5 353.5Q508 344 491 339L601 185H649ZM420 366Q431 366 445 368.5Q459 371 472 379.5Q485 388 494 404Q503 420 503 447Q503 493 478.5 511Q454 529 405 529H358V366Z" glyph-name="registered" horiz-adv-x="834" unicode="®" /><glyph d="M59 639 347 639V569H59Z" glyph-name="macron" horiz-adv-x="406" unicode="¯" /><glyph d="M211 322Q180 322 148 334Q116 346 91 370Q66 394 50 429.5Q34 465 34 513Q34 561 50 597Q66 633 91 657Q116 681 148 693Q180 705 211 705Q242 705 273.5 693Q305 681 330.5 657Q356 633 372 597Q388 561 388 513Q388 465 372 429.5Q356 394 330.5 370Q305 346 273.5 334Q242 322 211 322ZM211 368Q254 368 268.5 405Q283 442 283 513Q283 585 268.5 621.5Q254 658 211 658Q168 658 153 621.5Q138 585 138 513Q138 441 153 404.5Q168 368 211 368Z" glyph-name="degree" horiz-adv-x="422" unicode="°" /><glyph d="M279 311 279 148H205V311H47V382H205V546H279V382H436V311ZM47 71 436 71V0H47Z" glyph-name="plusminus" horiz-adv-x="483" unicode="±" /><glyph d="M285 433 25 433V469L122 576Q160 618 173.5 648.5Q187 679 187 713Q187 748 171 768.5Q155 789 122 789Q112 789 104 788Q96 787 89 785L65 715H33L31 803Q48 809 68 814Q87 818 109 821Q131 824 156 824Q192 824 216 815.5Q240 807 254 793.5Q268 780 274 763Q280 746 280 728Q280 704 270.5 682.5Q261 661 245 641.5Q229 622 208 603.5Q187 585 165 565L104 506H244L271 555H299Z" glyph-name="twosuperior" horiz-adv-x="323" unicode="²" /><glyph d="M121 427Q97 427 71.5 432Q46 437 30 442L26 531H56L89 458Q92 458 98.5 457Q105 456 112 456Q154 456 175.5 477.5Q197 499 197 537Q197 578 172.5 597.5Q148 617 117 617H110L98 648Q122 650 139.5 659Q157 668 167.5 680.5Q178 693 183 707.5Q188 722 188 734Q188 760 168.5 774.5Q149 789 120 789Q112 789 105.5 788Q99 787 91 785L72 730H41L37 806Q55 811 75 815Q93 818 114 820.5Q135 823 158 823Q177 823 197.5 818.5Q218 814 235.5 804.5Q253 795 264 779.5Q275 764 275 741Q275 722 265.5 707Q256 692 241.5 680Q227 668 208.5 659.5Q190 651 172 646Q222 643 254.5 617Q287 591 287 549Q287 527 277 505.5Q267 484 246.5 466.5Q226 449 194.5 438Q163 427 121 427Z" glyph-name="threesuperior" horiz-adv-x="314" unicode="³" /><glyph d="M142 554 243 726L380 716V705L190 544Z" glyph-name="acute" horiz-adv-x="411" unicode="´" /><glyph d="M213 -10Q161 -10 127 13L126 -250H58L77 194V437H18V488H208V140Q208 113 223 97Q238 81 267 81Q288 81 313.5 92.5Q339 104 382 136V437H319V488H518Q517 428 516 372Q515 339 514.5 316Q514 293 513.5 270Q513 247 513 225Q513 203 513 185V51H570V0L381 -10L384 86Q368 68 349 51Q330 34 308.5 20.5Q287 7 263 -1.5Q239 -10 213 -10Z" glyph-name="mu" horiz-adv-x="589" unicode="µ" /><glyph d="M415 0Q333 0 264 23.5Q195 47 145.5 92Q96 137 68.5 201.5Q41 266 41 348Q41 431 68.5 496Q96 561 145.5 606.5Q195 652 263 676Q331 700 413 700H811V642H722V58H811V0ZM582 58 582 642H452V58Z" glyph-name="paragraph" horiz-adv-x="848" unicode="¶" /><glyph d="M56 429 183 429V293H56Z" glyph-name="periodcentered" horiz-adv-x="239" unicode="·" /><glyph d="M138 -264Q96 -264 68 -254Q40 -244 32 -240L45 -196Q59 -202 76.5 -206Q94 -210 110 -210Q145 -210 162.5 -195.5Q180 -181 180 -160Q180 -129 149 -115Q118 -101 73 -96L144 16L190 15L159 -59Q222 -61 253.5 -90.5Q285 -120 285 -157Q285 -178 276 -197.5Q267 -217 249 -231.5Q231 -246 203.5 -255Q176 -264 138 -264Z" glyph-name="cedilla" horiz-adv-x="342" unicode="¸" /><glyph d="M33 468 96 471V763L21 740V772L146 818H184V471L246 468V433H33Z" glyph-name="onesuperior" horiz-adv-x="255" unicode="¹" /><glyph d="M281 211Q232 211 188.5 229Q145 247 112 280Q79 313 60 360Q41 407 41 464Q41 521 60 568Q79 615 112 648.5Q145 682 188.5 700.5Q232 719 281 719Q329 719 372.5 700.5Q416 682 449 648.5Q482 615 501 568.5Q520 522 520 465Q520 408 501 361Q482 314 449 280.5Q416 247 372.5 229Q329 211 281 211ZM281 261Q326 261 351 291.5Q376 322 376 386V544Q376 607 351 638Q326 669 281 669Q236 669 210.5 638.5Q185 608 185 545V386Q185 322 210.5 291.5Q236 261 281 261Z" glyph-name="ordmasculine" horiz-adv-x="561" unicode="º" /><glyph d="M135 244 35 488H111L280 246V242L111 0H35ZM341 244 241 488H317L485 246V242L317 0H241Z" glyph-name="guillemotright" horiz-adv-x="516" unicode="»" /><glyph d="M71 -1 701 729L731 704L101 -26ZM49 350 112 353V645L37 622V654L162 700H200V353L262 350V315H49ZM646 30 683 30V113H527V165L687 385H767V163H831V113H767V30H801V0H646ZM683 163 683 330L563 163Z" glyph-name="onequarter" horiz-adv-x="859" unicode="¼" /><glyph d="M67 -1 697 729L727 704L97 -26ZM45 350 108 353V645L33 622V654L158 700H196V353L258 350V315H45ZM789 0 529 0V36L626 143Q664 185 677.5 215.5Q691 246 691 280Q691 315 675 335.5Q659 356 626 356Q616 356 608 355Q600 354 593 352L569 282H537L535 370Q552 376 572 381Q591 385 613 388Q635 391 660 391Q696 391 720 382.5Q744 374 758 360.5Q772 347 778 330Q784 313 784 295Q784 271 774.5 249.5Q765 228 749 208.5Q733 189 712 170.5Q691 152 669 132L608 73H748L775 122H803Z" glyph-name="onehalf" horiz-adv-x="833" unicode="½" /><glyph d="M105 -1 735 729L765 704L135 -26ZM134 309Q110 309 84.5 314Q59 319 43 324L39 413H69L102 340Q105 340 111.5 339Q118 338 125 338Q167 338 188.5 359.5Q210 381 210 419Q210 460 185.5 479.5Q161 499 130 499H123L111 530Q135 532 152.5 541Q170 550 180.5 562.5Q191 575 196 589.5Q201 604 201 616Q201 642 181.5 656.5Q162 671 133 671Q125 671 118.5 670Q112 669 104 667L85 612H54L50 688Q68 693 88 697Q106 700 127 702.5Q148 705 171 705Q190 705 210.5 700.5Q231 696 248.5 686.5Q266 677 277 661.5Q288 646 288 623Q288 604 278.5 589Q269 574 254.5 562Q240 550 221.5 541.5Q203 533 185 528Q235 525 267.5 499Q300 473 300 431Q300 409 290 387.5Q280 366 259.5 348.5Q239 331 207.5 320Q176 309 134 309ZM679 30 716 30V113H560V165L720 385H800V163H864V113H800V30H834V0H679ZM716 163 716 330L596 163Z" glyph-name="threequarters" horiz-adv-x="892" unicode="¾" /><glyph d="M314 331 174 331V488H314ZM273 249Q273 205 258 167.5Q243 130 224.5 94Q206 58 191 21Q176 -16 176 -59Q176 -113 204 -135Q232 -157 276 -157Q298 -157 316.5 -152Q335 -147 340 -146L356 -37H407L424 -182Q397 -193 365 -202Q336 -210 301 -216Q266 -222 225 -222Q133 -222 80 -180.5Q27 -139 27 -70Q27 -35 40.5 -4.5Q54 26 74 52.5Q94 79 118.5 103.5Q143 128 164 151.5Q185 175 200.5 199Q216 223 219 249Z" glyph-name="questiondown" horiz-adv-x="450" unicode="¿" /><glyph d="M173 917 174 928L311 938L411 766L364 756ZM231 0 1 0V58H63L298 700H398L641 58H707V0H394V58H488L419 246H192L126 58H231ZM398 301 303 561L211 301Z" glyph-name="Agrave" horiz-adv-x="700" unicode="À" /><glyph d="M283 766 384 938L521 928V917L331 756ZM231 0 1 0V58H63L298 700H398L641 58H707V0H394V58H488L419 246H192L126 58H231ZM398 301 303 561L211 301Z" glyph-name="Aacute" horiz-adv-x="700" unicode="Á" /><glyph d="M169 771 310 943H381L523 771L471 751L347 855L223 751ZM231 0 1 0V58H63L298 700H398L641 58H707V0H394V58H488L419 246H192L126 58H231ZM398 301 303 561L211 301Z" glyph-name="Acircumflex" horiz-adv-x="700" unicode="Â" /><glyph d="M260 803Q241 803 229.5 790.5Q218 778 213 762L176 774Q179 839 207 868Q235 897 270 897Q287 897 307.5 891.5Q328 886 349.5 880Q371 874 391 868.5Q411 863 426 863Q446 863 457 876Q468 889 473 905L511 892Q508 827 479.5 798Q451 769 416 769Q399 769 378 774.5Q357 780 335 786Q313 792 293.5 797.5Q274 803 260 803ZM231 0 1 0V58H63L298 700H398L641 58H707V0H394V58H488L419 246H192L126 58H231ZM398 301 303 561L211 301Z" glyph-name="Atilde" horiz-adv-x="700" unicode="Ã" /><glyph d="M193 909 313 909V778H193ZM380 909 500 909V778H380ZM231 0 1 0V58H63L298 700H398L641 58H707V0H394V58H488L419 246H192L126 58H231ZM398 301 303 561L211 301Z" glyph-name="Adieresis" horiz-adv-x="700" unicode="Ä" /><glyph d="M346 751Q320 751 296.5 760Q273 769 255.5 785.5Q238 802 228 824Q218 846 218 871Q218 897 228 918.5Q238 940 255.5 956Q273 972 296.5 981Q320 990 346 990Q372 990 395.5 981Q419 972 436.5 956Q454 940 464 918.5Q474 897 474 871Q474 846 464 824Q454 802 436.5 785.5Q419 769 395.5 760Q372 751 346 751ZM346 803Q378 803 394.5 823Q411 843 411 871Q411 899 394.5 919Q378 939 346 939Q314 939 297.5 919Q281 899 281 871Q281 843 297.5 823Q314 803 346 803ZM231 0 1 0V58H63L298 700H398L641 58H707V0H394V58H488L419 246H192L126 58H231ZM398 301 303 561L211 301Z" glyph-name="Aring" horiz-adv-x="700" unicode="Å" /><glyph d="M-6 58 65 58L415 642H309V700H969V520H915L864 642H633V378H754L779 473H831V222H779L754 321H633V58H883L966 205H1019L993 0H398V58H492V300H283L146 58H242V0H-6ZM492 358 492 642H480L316 358Z" glyph-name="AE" horiz-adv-x="1040" unicode="Æ" /><glyph d="M457 -157Q457 -178 448 -197.5Q439 -217 421 -231.5Q403 -246 375.5 -255Q348 -264 310 -264Q268 -264 240 -254Q212 -244 204 -240L217 -196Q231 -202 248.5 -206Q266 -210 282 -210Q317 -210 334.5 -195.5Q352 -181 352 -160Q352 -129 321 -115Q290 -101 245 -96L306 0Q245 13 195.5 43.5Q146 74 112 119Q78 164 59.5 222Q41 280 41 348Q41 439 70 507Q99 575 148.5 620Q198 665 264 687.5Q330 710 404 710Q433 710 465.5 707Q498 704 530.5 699.5Q563 695 593.5 689.5Q624 684 648 678L642 506H584L547 633Q518 641 484.5 646.5Q451 652 419 652Q373 652 331.5 636Q290 620 259 585.5Q228 551 210 497Q192 443 192 366Q192 296 207 237.5Q222 179 252.5 137Q283 95 328.5 72Q374 49 434 49Q481 49 509.5 56.5Q538 64 543 65L608 205H666L641 34Q610 22 572 12Q537 3 494 -3.5Q451 -10 399 -10Q387 -10 375.5 -9.5Q364 -9 352 -8L331 -59Q394 -61 425.5 -90.5Q457 -120 457 -157Z" glyph-name="Ccedilla" horiz-adv-x="695" unicode="Ç" /><glyph d="M168 917 169 928L306 938L406 766L359 756ZM42 58 121 58V642H42V700H598V520H544L493 642H263V378H383L408 473H460V222H408L383 321H263V58H512L595 205H648L622 0H42Z" glyph-name="Egrave" horiz-adv-x="669" unicode="È" /><glyph d="M278 766 379 938L516 928V917L326 756ZM42 58 121 58V642H42V700H598V520H544L493 642H263V378H383L408 473H460V222H408L383 321H263V58H512L595 205H648L622 0H42Z" glyph-name="Eacute" horiz-adv-x="669" unicode="É" /><glyph d="M164 771 305 943H376L518 771L466 751L342 855L218 751ZM42 58 121 58V642H42V700H598V520H544L493 642H263V378H383L408 473H460V222H408L383 321H263V58H512L595 205H648L622 0H42Z" glyph-name="Ecircumflex" horiz-adv-x="669" unicode="Ê" /><glyph d="M188 909 308 909V778H188ZM375 909 495 909V778H375ZM42 58 121 58V642H42V700H598V520H544L493 642H263V378H383L408 473H460V222H408L383 321H263V58H512L595 205H648L622 0H42Z" glyph-name="Edieresis" horiz-adv-x="669" unicode="Ë" /><glyph d="M26 917 27 928L164 938L264 766L217 756ZM34 58 129 58V642H34V700H364V642H270V58H364V0H34Z" glyph-name="Igrave" horiz-adv-x="399" unicode="Ì" /><glyph d="M136 766 237 938L374 928V917L184 756ZM34 58 129 58V642H34V700H364V642H270V58H364V0H34Z" glyph-name="Iacute" horiz-adv-x="399" unicode="Í" /><glyph d="M22 771 163 943H234L376 771L324 751L200 855L76 751ZM34 58 129 58V642H34V700H364V642H270V58H364V0H34Z" glyph-name="Icircumflex" horiz-adv-x="399" unicode="Î" /><glyph d="M46 909 166 909V778H46ZM233 909 353 909V778H233ZM34 58 129 58V642H34V700H364V642H270V58H364V0H34Z" glyph-name="Idieresis" horiz-adv-x="399" unicode="Ï" /><glyph d="M748 344Q748 260 720.5 196Q693 132 644 88.5Q595 45 529 22.5Q463 0 386 0H41V58H121V321H59V378H121V642H41V700H386Q463 700 529 678Q595 656 644 612.5Q693 569 720.5 504.5Q748 440 748 356ZM361 58Q415 58 459 71.5Q503 85 534.5 118Q566 151 583.5 206.5Q601 262 601 346V354Q601 438 583.5 493.5Q566 549 534.5 582Q503 615 459 628.5Q415 642 361 642H265V378H441V321H265V58Z" glyph-name="Eth" horiz-adv-x="790" unicode="Ð" /><glyph d="M322 803Q303 803 291.5 790.5Q280 778 275 762L238 774Q241 839 269 868Q297 897 332 897Q349 897 369.5 891.5Q390 886 411.5 880Q433 874 453 868.5Q473 863 488 863Q508 863 519 876Q530 889 535 905L573 892Q570 827 541.5 798Q513 769 478 769Q461 769 440 774.5Q419 780 397 786Q375 792 355.5 797.5Q336 803 322 803ZM35 58 128 58V642H35V700H274L633 172V642H535V700H793V642H697V0H586L193 576V58H298V0H35Z" glyph-name="Ntilde" horiz-adv-x="818" unicode="Ñ" /><glyph d="M214 917 215 928L352 938L452 766L405 756ZM388 -10Q321 -10 258.5 13.5Q196 37 147.5 82.5Q99 128 69.5 194.5Q40 261 40 348Q40 434 69.5 501.5Q99 569 147.5 615.5Q196 662 258.5 686Q321 710 388 710Q454 710 516.5 686Q579 662 627.5 615.5Q676 569 705.5 501.5Q735 434 735 348Q735 261 705.5 194.5Q676 128 627.5 82.5Q579 37 516.5 13.5Q454 -10 388 -10ZM388 44Q438 44 474 61Q510 78 534 109Q558 140 569.5 182Q581 224 581 273V426Q581 476 569.5 518Q558 560 534 590.5Q510 621 474 638.5Q438 656 388 656Q338 656 301.5 638.5Q265 621 241 590.5Q217 560 205.5 518Q194 476 194 426V273Q194 224 205.5 182Q217 140 241 109Q265 78 301.5 61Q338 44 388 44Z" glyph-name="Ograve" horiz-adv-x="774" unicode="Ò" /><glyph d="M324 766 425 938L562 928V917L372 756ZM388 -10Q321 -10 258.5 13.5Q196 37 147.5 82.5Q99 128 69.5 194.5Q40 261 40 348Q40 434 69.5 501.5Q99 569 147.5 615.5Q196 662 258.5 686Q321 710 388 710Q454 710 516.5 686Q579 662 627.5 615.5Q676 569 705.5 501.5Q735 434 735 348Q735 261 705.5 194.5Q676 128 627.5 82.5Q579 37 516.5 13.5Q454 -10 388 -10ZM388 44Q438 44 474 61Q510 78 534 109Q558 140 569.5 182Q581 224 581 273V426Q581 476 569.5 518Q558 560 534 590.5Q510 621 474 638.5Q438 656 388 656Q338 656 301.5 638.5Q265 621 241 590.5Q217 560 205.5 518Q194 476 194 426V273Q194 224 205.5 182Q217 140 241 109Q265 78 301.5 61Q338 44 388 44Z" glyph-name="Oacute" horiz-adv-x="774" unicode="Ó" /><glyph d="M210 771 351 943H422L564 771L512 751L388 855L264 751ZM388 -10Q321 -10 258.5 13.5Q196 37 147.5 82.5Q99 128 69.5 194.5Q40 261 40 348Q40 434 69.5 501.5Q99 569 147.5 615.5Q196 662 258.5 686Q321 710 388 710Q454 710 516.5 686Q579 662 627.5 615.5Q676 569 705.5 501.5Q735 434 735 348Q735 261 705.5 194.5Q676 128 627.5 82.5Q579 37 516.5 13.5Q454 -10 388 -10ZM388 44Q438 44 474 61Q510 78 534 109Q558 140 569.5 182Q581 224 581 273V426Q581 476 569.5 518Q558 560 534 590.5Q510 621 474 638.5Q438 656 388 656Q338 656 301.5 638.5Q265 621 241 590.5Q217 560 205.5 518Q194 476 194 426V273Q194 224 205.5 182Q217 140 241 109Q265 78 301.5 61Q338 44 388 44Z" glyph-name="Ocircumflex" horiz-adv-x="774" unicode="Ô" /><glyph d="M301 803Q282 803 270.5 790.5Q259 778 254 762L217 774Q220 839 248 868Q276 897 311 897Q328 897 348.5 891.5Q369 886 390.5 880Q412 874 432 868.5Q452 863 467 863Q487 863 498 876Q509 889 514 905L552 892Q549 827 520.5 798Q492 769 457 769Q440 769 419 774.5Q398 780 376 786Q354 792 334.5 797.5Q315 803 301 803ZM388 -10Q321 -10 258.5 13.5Q196 37 147.5 82.5Q99 128 69.5 194.5Q40 261 40 348Q40 434 69.5 501.5Q99 569 147.5 615.5Q196 662 258.5 686Q321 710 388 710Q454 710 516.5 686Q579 662 627.5 615.5Q676 569 705.5 501.5Q735 434 735 348Q735 261 705.5 194.5Q676 128 627.5 82.5Q579 37 516.5 13.5Q454 -10 388 -10ZM388 44Q438 44 474 61Q510 78 534 109Q558 140 569.5 182Q581 224 581 273V426Q581 476 569.5 518Q558 560 534 590.5Q510 621 474 638.5Q438 656 388 656Q338 656 301.5 638.5Q265 621 241 590.5Q217 560 205.5 518Q194 476 194 426V273Q194 224 205.5 182Q217 140 241 109Q265 78 301.5 61Q338 44 388 44Z" glyph-name="Otilde" horiz-adv-x="774" unicode="Õ" /><glyph d="M234 909 354 909V778H234ZM421 909 541 909V778H421ZM388 -10Q321 -10 258.5 13.5Q196 37 147.5 82.5Q99 128 69.5 194.5Q40 261 40 348Q40 434 69.5 501.5Q99 569 147.5 615.5Q196 662 258.5 686Q321 710 388 710Q454 710 516.5 686Q579 662 627.5 615.5Q676 569 705.5 501.5Q735 434 735 348Q735 261 705.5 194.5Q676 128 627.5 82.5Q579 37 516.5 13.5Q454 -10 388 -10ZM388 44Q438 44 474 61Q510 78 534 109Q558 140 569.5 182Q581 224 581 273V426Q581 476 569.5 518Q558 560 534 590.5Q510 621 474 638.5Q438 656 388 656Q338 656 301.5 638.5Q265 621 241 590.5Q217 560 205.5 518Q194 476 194 426V273Q194 224 205.5 182Q217 140 241 109Q265 78 301.5 61Q338 44 388 44Z" glyph-name="Odieresis" horiz-adv-x="774" unicode="Ö" /><glyph d="M389 161 242 307L94 161L51 204L198 350L51 496L94 539L242 393L389 539L432 496L285 350L432 204Z" glyph-name="multiply" horiz-adv-x="483" unicode="×" /><glyph d="M388 -10Q329 -10 273.5 8Q218 26 172 61L90 -34L50 1L133 97Q90 142 65 204.5Q40 267 40 348Q40 434 69.5 501.5Q99 569 147.5 615.5Q196 662 258.5 686Q321 710 388 710Q445 710 499.5 692Q554 674 600 639L684 737L725 702L640 603Q684 557 709.5 493Q735 429 735 348Q735 261 705.5 194.5Q676 128 627.5 82.5Q579 37 516.5 13.5Q454 -10 388 -10ZM194 273Q194 225 205 181L544 575Q521 613 482 634.5Q443 656 387 656Q337 656 300.5 638.5Q264 621 240.5 590.5Q217 560 205.5 518Q194 476 194 426ZM581 426Q581 480 568 520L229 127Q252 88 291 66Q330 44 387 44Q437 44 473.5 61Q510 78 534 109Q558 140 569.5 182Q581 224 581 273Z" glyph-name="Oslash" horiz-adv-x="775" unicode="Ø" /><glyph d="M232 917 233 928L370 938L470 766L423 756ZM398 -10Q314 -10 258 9.5Q202 29 168.5 61Q135 93 120.5 133.5Q106 174 106 216V642H32V700H347V642H247V227Q247 194 255 162.5Q263 131 283.5 107Q304 83 339.5 68.5Q375 54 430 54Q516 54 569.5 101.5Q623 149 622 237V642H523V700H763V642H684V229Q684 176 664 132Q644 88 607 56.5Q570 25 517 7.5Q464 -10 398 -10Z" glyph-name="Ugrave" horiz-adv-x="788" unicode="Ù" /><glyph d="M342 766 443 938L580 928V917L390 756ZM398 -10Q314 -10 258 9.5Q202 29 168.5 61Q135 93 120.5 133.5Q106 174 106 216V642H32V700H347V642H247V227Q247 194 255 162.5Q263 131 283.5 107Q304 83 339.5 68.5Q375 54 430 54Q516 54 569.5 101.5Q623 149 622 237V642H523V700H763V642H684V229Q684 176 664 132Q644 88 607 56.5Q570 25 517 7.5Q464 -10 398 -10Z" glyph-name="Uacute" horiz-adv-x="788" unicode="Ú" /><glyph d="M227 771 368 943H439L581 771L529 751L405 855L281 751ZM398 -10Q314 -10 258 9.5Q202 29 168.5 61Q135 93 120.5 133.5Q106 174 106 216V642H32V700H347V642H247V227Q247 194 255 162.5Q263 131 283.5 107Q304 83 339.5 68.5Q375 54 430 54Q516 54 569.5 101.5Q623 149 622 237V642H523V700H763V642H684V229Q684 176 664 132Q644 88 607 56.5Q570 25 517 7.5Q464 -10 398 -10Z" glyph-name="Ucircumflex" horiz-adv-x="788" unicode="Û" /><glyph d="M252 909 372 909V778H252ZM439 909 559 909V778H439ZM398 -10Q314 -10 258 9.5Q202 29 168.5 61Q135 93 120.5 133.5Q106 174 106 216V642H32V700H347V642H247V227Q247 194 255 162.5Q263 131 283.5 107Q304 83 339.5 68.5Q375 54 430 54Q516 54 569.5 101.5Q623 149 622 237V642H523V700H763V642H684V229Q684 176 664 132Q644 88 607 56.5Q570 25 517 7.5Q464 -10 398 -10Z" glyph-name="Udieresis" horiz-adv-x="788" unicode="Ü" /><glyph d="M283 766 384 938L521 928V917L331 756ZM182 58 276 58V320L64 642H2V700H316V642H227L395 382L562 642H469V700H691V642H628L417 322V58H510V0H182Z" glyph-name="Yacute" horiz-adv-x="693" unicode="Ý" /><glyph d="M352 0 41 0V58H121V642H41V700H352V642H262V549H387Q444 549 487 533Q530 517 558.5 490Q587 463 601.5 428Q616 393 616 355Q616 317 601.5 281.5Q587 246 558.5 219Q530 192 487 176Q444 160 387 160H262V58H352ZM262 491 262 218H355Q407 218 438.5 247Q470 276 470 349V359Q470 432 438.5 461.5Q407 491 355 491Z" glyph-name="Thorn" horiz-adv-x="647" unicode="Þ" /><glyph d="M389 -10Q370 -10 354.5 -8Q339 -6 327 -4Q314 -1 304 3L285 49Q291 47 305.5 44Q320 41 342 41Q377 41 401 60.5Q425 80 425 119Q425 148 405 178.5Q385 209 361 239Q337 269 317 298.5Q297 328 297 355Q297 383 319.5 415Q342 447 368.5 481Q395 515 417.5 549.5Q440 584 440 615Q440 660 413 684Q386 708 341 708Q289 708 254.5 673Q220 638 220 557V0H31V51H89V437H26V488H89V538Q89 592 107 634Q125 676 156 704.5Q187 733 229 747.5Q271 762 319 762Q366 762 399.5 749Q433 736 454 715.5Q475 695 485 669Q495 643 495 617Q495 587 481 558Q467 529 449.5 504Q432 479 418 458.5Q404 438 404 423Q404 399 427.5 368.5Q451 338 479 302.5Q507 267 530.5 228Q554 189 554 148Q554 111 541.5 82Q529 53 507.5 32.5Q486 12 455.5 1Q425 -10 389 -10Z" glyph-name="germandbls" horiz-adv-x="582" unicode="ß" /><glyph d="M79 705 80 716L217 726L317 554L270 544ZM159 -10Q95 -10 61 26.5Q27 63 27 117Q27 150 38 174Q49 198 69 214.5Q89 231 117 240.5Q145 250 179 256L304 277V347Q304 387 282.5 408.5Q261 430 209 430Q195 430 176.5 428Q158 426 141 421L119 330H68L59 454Q104 470 159.5 484Q215 498 279 498Q310 498 338.5 491Q367 484 388.5 467.5Q410 451 422.5 424.5Q435 398 435 360V57H490V5L302 -8L305 60Q273 28 233.5 9Q194 -10 159 -10ZM219 74Q242 74 263 84Q284 94 304 108V230L234 214Q201 206 182.5 192Q164 178 164 141V136Q164 110 177 92Q190 74 219 74Z" glyph-name="agrave" horiz-adv-x="510" unicode="à" /><glyph d="M189 554 290 726L427 716V705L237 544ZM159 -10Q95 -10 61 26.5Q27 63 27 117Q27 150 38 174Q49 198 69 214.5Q89 231 117 240.5Q145 250 179 256L304 277V347Q304 387 282.5 408.5Q261 430 209 430Q195 430 176.5 428Q158 426 141 421L119 330H68L59 454Q104 470 159.5 484Q215 498 279 498Q310 498 338.5 491Q367 484 388.5 467.5Q410 451 422.5 424.5Q435 398 435 360V57H490V5L302 -8L305 60Q273 28 233.5 9Q194 -10 159 -10ZM219 74Q242 74 263 84Q284 94 304 108V230L234 214Q201 206 182.5 192Q164 178 164 141V136Q164 110 177 92Q190 74 219 74Z" glyph-name="aacute" horiz-adv-x="510" unicode="á" /><glyph d="M75 559 216 731H287L429 559L377 539L253 643L129 539ZM159 -10Q95 -10 61 26.5Q27 63 27 117Q27 150 38 174Q49 198 69 214.5Q89 231 117 240.5Q145 250 179 256L304 277V347Q304 387 282.5 408.5Q261 430 209 430Q195 430 176.5 428Q158 426 141 421L119 330H68L59 454Q104 470 159.5 484Q215 498 279 498Q310 498 338.5 491Q367 484 388.5 467.5Q410 451 422.5 424.5Q435 398 435 360V57H490V5L302 -8L305 60Q273 28 233.5 9Q194 -10 159 -10ZM219 74Q242 74 263 84Q284 94 304 108V230L234 214Q201 206 182.5 192Q164 178 164 141V136Q164 110 177 92Q190 74 219 74Z" glyph-name="acircumflex" horiz-adv-x="510" unicode="â" /><glyph d="M167 591Q148 591 136.5 578.5Q125 566 120 550L83 562Q86 627 114 656Q142 685 177 685Q194 685 214.5 679.5Q235 674 256.5 668Q278 662 298 656.5Q318 651 333 651Q353 651 364 664Q375 677 380 693L418 680Q415 615 386.5 586Q358 557 323 557Q306 557 285 562.5Q264 568 242 574Q220 580 200.5 585.5Q181 591 167 591ZM159 -10Q95 -10 61 26.5Q27 63 27 117Q27 150 38 174Q49 198 69 214.5Q89 231 117 240.5Q145 250 179 256L304 277V347Q304 387 282.5 408.5Q261 430 209 430Q195 430 176.5 428Q158 426 141 421L119 330H68L59 454Q104 470 159.5 484Q215 498 279 498Q310 498 338.5 491Q367 484 388.5 467.5Q410 451 422.5 424.5Q435 398 435 360V57H490V5L302 -8L305 60Q273 28 233.5 9Q194 -10 159 -10ZM219 74Q242 74 263 84Q284 94 304 108V230L234 214Q201 206 182.5 192Q164 178 164 141V136Q164 110 177 92Q190 74 219 74Z" glyph-name="atilde" horiz-adv-x="510" unicode="ã" /><glyph d="M99 697 219 697V566H99ZM286 697 406 697V566H286ZM159 -10Q95 -10 61 26.5Q27 63 27 117Q27 150 38 174Q49 198 69 214.5Q89 231 117 240.5Q145 250 179 256L304 277V347Q304 387 282.5 408.5Q261 430 209 430Q195 430 176.5 428Q158 426 141 421L119 330H68L59 454Q104 470 159.5 484Q215 498 279 498Q310 498 338.5 491Q367 484 388.5 467.5Q410 451 422.5 424.5Q435 398 435 360V57H490V5L302 -8L305 60Q273 28 233.5 9Q194 -10 159 -10ZM219 74Q242 74 263 84Q284 94 304 108V230L234 214Q201 206 182.5 192Q164 178 164 141V136Q164 110 177 92Q190 74 219 74Z" glyph-name="adieresis" horiz-adv-x="510" unicode="ä" /><glyph d="M252 539Q226 539 202.5 548Q179 557 161.5 573.5Q144 590 134 612Q124 634 124 659Q124 685 134 706.5Q144 728 161.5 744Q179 760 202.5 769Q226 778 252 778Q278 778 301.5 769Q325 760 342.5 744Q360 728 370 706.5Q380 685 380 659Q380 634 370 612Q360 590 342.5 573.5Q325 557 301.5 548Q278 539 252 539ZM252 591Q284 591 300.5 611Q317 631 317 659Q317 687 300.5 707Q284 727 252 727Q220 727 203.5 707Q187 687 187 659Q187 631 203.5 611Q220 591 252 591ZM159 -10Q95 -10 61 26.5Q27 63 27 117Q27 150 38 174Q49 198 69 214.5Q89 231 117 240.5Q145 250 179 256L304 277V347Q304 387 282.5 408.5Q261 430 209 430Q195 430 176.5 428Q158 426 141 421L119 330H68L59 454Q104 470 159.5 484Q215 498 279 498Q310 498 338.5 491Q367 484 388.5 467.5Q410 451 422.5 424.5Q435 398 435 360V57H490V5L302 -8L305 60Q273 28 233.5 9Q194 -10 159 -10ZM219 74Q242 74 263 84Q284 94 304 108V230L234 214Q201 206 182.5 192Q164 178 164 141V136Q164 110 177 92Q190 74 219 74Z" glyph-name="aring" horiz-adv-x="510" unicode="å" /><glyph d="M730 55Q696 29 644.5 9.5Q593 -10 532 -10Q467 -10 420.5 15Q374 40 345 83Q307 42 263 16Q219 -10 163 -10Q99 -10 63 25.5Q27 61 27 113Q27 146 39 170Q51 194 72 210.5Q93 227 122 237.5Q151 248 185 254L304 275V347Q304 387 282.5 408.5Q261 430 209 430Q195 430 176.5 428Q158 426 141 421L119 330H68L59 454Q104 470 159.5 484Q215 498 279 498Q314 498 345.5 488.5Q377 479 400 457Q426 477 459 487.5Q492 498 533 498Q575 498 611 485.5Q647 473 673.5 448Q700 423 715 386Q730 349 730 299V258H443V237Q443 152 485.5 113.5Q528 75 595 75Q616 75 637 78.5Q658 82 676.5 87Q695 92 709.5 97.5Q724 103 732 106ZM601 314Q605 387 589 420Q573 453 532 453Q493 453 470.5 421.5Q448 390 445 305ZM164 132Q164 109 176 92Q188 75 221 75Q241 75 262.5 83Q284 91 304 108V212Q304 216 303.5 219.5Q303 223 303 228L232 208Q203 200 183.5 187Q164 174 164 139Z" glyph-name="ae" horiz-adv-x="769" unicode="æ" /><glyph d="M360 -157Q360 -178 351 -197.5Q342 -217 324 -231.5Q306 -246 278.5 -255Q251 -264 213 -264Q171 -264 143 -254Q115 -244 107 -240L120 -196Q134 -202 151.5 -206Q169 -210 185 -210Q220 -210 237.5 -195.5Q255 -181 255 -160Q255 -129 224 -115Q193 -101 148 -96L207 -4Q162 6 129.5 28Q97 50 76 82Q55 114 45 153.5Q35 193 35 238Q35 297 51.5 345Q68 393 100.5 427Q133 461 180 479.5Q227 498 287 498Q309 498 334.5 495Q360 492 383 487.5Q406 483 423.5 479.5Q441 476 446 474L444 347H391L353 437Q328 443 304 443Q241 443 208 394.5Q175 346 175 252V236Q175 188 186.5 152.5Q198 117 217.5 94.5Q237 72 263.5 61Q290 50 321 50Q334 50 345 51.5Q356 53 369 56L413 154H464L454 27Q414 7 369.5 -1.5Q325 -10 270 -10H255L234 -59Q297 -61 328.5 -90.5Q360 -120 360 -157Z" glyph-name="ccedilla" horiz-adv-x="493" unicode="ç" /><glyph d="M75 705 76 716L213 726L313 554L266 544ZM263 -10Q207 -10 164.5 9Q122 28 93 61.5Q64 95 49 140.5Q34 186 34 238Q34 288 48 335Q62 382 90.5 418Q119 454 162.5 476Q206 498 264 498Q306 498 342 485.5Q378 473 404.5 448Q431 423 446 386Q461 349 461 299V258H174V237Q174 152 216.5 113.5Q259 75 326 75Q347 75 368 78.5Q389 82 407.5 87Q426 92 440.5 97.5Q455 103 463 106L461 55Q427 29 375.5 9.5Q324 -10 263 -10ZM332 314Q336 387 320 420Q304 453 263 453Q224 453 201.5 421.5Q179 390 176 305Z" glyph-name="egrave" horiz-adv-x="500" unicode="è" /><glyph d="M185 554 286 726L423 716V705L233 544ZM263 -10Q207 -10 164.5 9Q122 28 93 61.5Q64 95 49 140.5Q34 186 34 238Q34 288 48 335Q62 382 90.5 418Q119 454 162.5 476Q206 498 264 498Q306 498 342 485.5Q378 473 404.5 448Q431 423 446 386Q461 349 461 299V258H174V237Q174 152 216.5 113.5Q259 75 326 75Q347 75 368 78.5Q389 82 407.5 87Q426 92 440.5 97.5Q455 103 463 106L461 55Q427 29 375.5 9.5Q324 -10 263 -10ZM332 314Q336 387 320 420Q304 453 263 453Q224 453 201.5 421.5Q179 390 176 305Z" glyph-name="eacute" horiz-adv-x="500" unicode="é" /><glyph d="M71 559 212 731H283L425 559L373 539L249 643L125 539ZM263 -10Q207 -10 164.5 9Q122 28 93 61.5Q64 95 49 140.5Q34 186 34 238Q34 288 48 335Q62 382 90.5 418Q119 454 162.5 476Q206 498 264 498Q306 498 342 485.5Q378 473 404.5 448Q431 423 446 386Q461 349 461 299V258H174V237Q174 152 216.5 113.5Q259 75 326 75Q347 75 368 78.5Q389 82 407.5 87Q426 92 440.5 97.5Q455 103 463 106L461 55Q427 29 375.5 9.5Q324 -10 263 -10ZM332 314Q336 387 320 420Q304 453 263 453Q224 453 201.5 421.5Q179 390 176 305Z" glyph-name="ecircumflex" horiz-adv-x="500" unicode="ê" /><glyph d="M95 697 215 697V566H95ZM282 697 402 697V566H282ZM263 -10Q207 -10 164.5 9Q122 28 93 61.5Q64 95 49 140.5Q34 186 34 238Q34 288 48 335Q62 382 90.5 418Q119 454 162.5 476Q206 498 264 498Q306 498 342 485.5Q378 473 404.5 448Q431 423 446 386Q461 349 461 299V258H174V237Q174 152 216.5 113.5Q259 75 326 75Q347 75 368 78.5Q389 82 407.5 87Q426 92 440.5 97.5Q455 103 463 106L461 55Q427 29 375.5 9.5Q324 -10 263 -10ZM332 314Q336 387 320 420Q304 453 263 453Q224 453 201.5 421.5Q179 390 176 305Z" glyph-name="edieresis" horiz-adv-x="500" unicode="ë" /><glyph d="M-23 705 -22 716L115 726L215 554L168 544ZM25 51 94 51V437H29V488H225V51H289V0H25Z" glyph-name="igrave" horiz-adv-x="309" unicode="ì" /><glyph d="M87 554 188 726L325 716V705L135 544ZM25 51 94 51V437H29V488H225V51H289V0H25Z" glyph-name="iacute" horiz-adv-x="309" unicode="í" /><glyph d="M-28 559 113 731H184L326 559L274 539L150 643L26 539ZM25 51 94 51V437H29V488H225V51H289V0H25Z" glyph-name="icircumflex" horiz-adv-x="309" unicode="î" /><glyph d="M-3 697 117 697V566H-3ZM184 697 304 697V566H184ZM25 51 94 51V437H29V488H225V51H289V0H25Z" glyph-name="idieresis" horiz-adv-x="309" unicode="ï" /><glyph d="M514 268Q514 203 495.5 151.5Q477 100 444 64Q411 28 367 9Q323 -10 272 -10Q223 -10 179.5 7.5Q136 25 103.5 57Q71 89 52.5 135.5Q34 182 34 240Q34 302 51.5 350Q69 398 99 431Q129 464 170 481Q211 498 257 498Q289 498 317.5 490.5Q346 483 366 467Q352 492 327 527.5Q302 563 271 601L168 561L151 601L243 636Q215 671 188 701.5Q161 732 140 755L180 763Q195 754 231.5 728.5Q268 703 313 663L422 705L438 666L346 630Q378 598 408 559Q438 520 461.5 474.5Q485 429 499.5 377Q514 325 514 268ZM273 40Q318 40 343.5 70.5Q369 101 369 165V323Q369 386 343.5 417Q318 448 273 448Q228 448 203 417.5Q178 387 178 324V165Q178 101 203 70.5Q228 40 273 40Z" glyph-name="eth" horiz-adv-x="548" unicode="ð" /><glyph d="M219 591Q200 591 188.5 578.5Q177 566 172 550L135 562Q138 627 166 656Q194 685 229 685Q246 685 266.5 679.5Q287 674 308.5 668Q330 662 350 656.5Q370 651 385 651Q405 651 416 664Q427 677 432 693L470 680Q467 615 438.5 586Q410 557 375 557Q358 557 337 562.5Q316 568 294 574Q272 580 252.5 585.5Q233 591 219 591ZM33 51 90 51V437H29V488L222 498Q221 479 221 461Q220 445 219.5 429.5Q219 414 219 405Q240 422 262 439Q284 456 307 469Q330 482 355 490Q380 498 405 498Q468 498 503 463.5Q538 429 538 357V51H595V0H352V51H407V334Q407 366 393 385.5Q379 405 346 405Q325 405 294 394Q263 383 221 360V51H287V0H33Z" glyph-name="ntilde" horiz-adv-x="617" unicode="ñ" /><glyph d="M99 705 100 716L237 726L337 554L290 544ZM273 -10Q224 -10 180.5 8Q137 26 104 59Q71 92 52 139Q33 186 33 243Q33 300 52 347Q71 394 104 427.5Q137 461 180.5 479.5Q224 498 273 498Q321 498 364.5 479.5Q408 461 441 427.5Q474 394 493 347.5Q512 301 512 244Q512 187 493 140Q474 93 441 59.5Q408 26 364.5 8Q321 -10 273 -10ZM273 40Q318 40 343 70.5Q368 101 368 165V323Q368 386 343 417Q318 448 273 448Q228 448 202.5 417.5Q177 387 177 324V165Q177 101 202.5 70.5Q228 40 273 40Z" glyph-name="ograve" horiz-adv-x="545" unicode="ò" /><glyph d="M209 554 310 726L447 716V705L257 544ZM273 -10Q224 -10 180.5 8Q137 26 104 59Q71 92 52 139Q33 186 33 243Q33 300 52 347Q71 394 104 427.5Q137 461 180.5 479.5Q224 498 273 498Q321 498 364.5 479.5Q408 461 441 427.5Q474 394 493 347.5Q512 301 512 244Q512 187 493 140Q474 93 441 59.5Q408 26 364.5 8Q321 -10 273 -10ZM273 40Q318 40 343 70.5Q368 101 368 165V323Q368 386 343 417Q318 448 273 448Q228 448 202.5 417.5Q177 387 177 324V165Q177 101 202.5 70.5Q228 40 273 40Z" glyph-name="oacute" horiz-adv-x="545" unicode="ó" /><glyph d="M95 559 236 731H307L449 559L397 539L273 643L149 539ZM273 -10Q224 -10 180.5 8Q137 26 104 59Q71 92 52 139Q33 186 33 243Q33 300 52 347Q71 394 104 427.5Q137 461 180.5 479.5Q224 498 273 498Q321 498 364.5 479.5Q408 461 441 427.5Q474 394 493 347.5Q512 301 512 244Q512 187 493 140Q474 93 441 59.5Q408 26 364.5 8Q321 -10 273 -10ZM273 40Q318 40 343 70.5Q368 101 368 165V323Q368 386 343 417Q318 448 273 448Q228 448 202.5 417.5Q177 387 177 324V165Q177 101 202.5 70.5Q228 40 273 40Z" glyph-name="ocircumflex" horiz-adv-x="545" unicode="ô" /><glyph d="M187 591Q168 591 156.5 578.5Q145 566 140 550L103 562Q106 627 134 656Q162 685 197 685Q214 685 234.5 679.5Q255 674 276.5 668Q298 662 318 656.5Q338 651 353 651Q373 651 384 664Q395 677 400 693L438 680Q435 615 406.5 586Q378 557 343 557Q326 557 305 562.5Q284 568 262 574Q240 580 220.5 585.5Q201 591 187 591ZM273 -10Q224 -10 180.5 8Q137 26 104 59Q71 92 52 139Q33 186 33 243Q33 300 52 347Q71 394 104 427.5Q137 461 180.5 479.5Q224 498 273 498Q321 498 364.5 479.5Q408 461 441 427.5Q474 394 493 347.5Q512 301 512 244Q512 187 493 140Q474 93 441 59.5Q408 26 364.5 8Q321 -10 273 -10ZM273 40Q318 40 343 70.5Q368 101 368 165V323Q368 386 343 417Q318 448 273 448Q228 448 202.5 417.5Q177 387 177 324V165Q177 101 202.5 70.5Q228 40 273 40Z" glyph-name="otilde" horiz-adv-x="545" unicode="õ" /><glyph d="M119 697 239 697V566H119ZM306 697 426 697V566H306ZM273 -10Q224 -10 180.5 8Q137 26 104 59Q71 92 52 139Q33 186 33 243Q33 300 52 347Q71 394 104 427.5Q137 461 180.5 479.5Q224 498 273 498Q321 498 364.5 479.5Q408 461 441 427.5Q474 394 493 347.5Q512 301 512 244Q512 187 493 140Q474 93 441 59.5Q408 26 364.5 8Q321 -10 273 -10ZM273 40Q318 40 343 70.5Q368 101 368 165V323Q368 386 343 417Q318 448 273 448Q228 448 202.5 417.5Q177 387 177 324V165Q177 101 202.5 70.5Q228 40 273 40Z" glyph-name="odieresis" horiz-adv-x="545" unicode="ö" /><glyph d="M189 534 296 534V427H189ZM47 363 436 363V292H47ZM189 226 296 226V119H189Z" glyph-name="divide" horiz-adv-x="483" unicode="÷" /><glyph d="M273 -10Q232 -10 195 3Q158 16 127 39L62 -36L27 -6L93 71Q65 103 49 146.5Q33 190 33 243Q33 300 52 347Q71 394 104 427.5Q137 461 180.5 479.5Q224 498 273 498Q313 498 350 485Q387 472 417 449L483 526L520 495L452 416Q480 383 496 339.5Q512 296 512 244Q512 187 493 140Q474 93 441 59.5Q408 26 364.5 8Q321 -10 273 -10ZM178 170 360 383Q350 416 327.5 432Q305 448 273 448Q228 448 203 417.5Q178 387 178 324ZM368 319 185 107Q204 40 273 40Q318 40 343 70.5Q368 101 368 165Z" glyph-name="oslash" horiz-adv-x="546" unicode="ø" /><glyph d="M116 705 117 716L254 726L354 554L307 544ZM217 -10Q151 -10 116 25.5Q81 61 81 123V437H22V488H212V140Q212 113 227 97Q242 81 271 81Q292 81 317.5 92.5Q343 104 386 136V437H323V488H522Q521 428 520 372Q519 339 518.5 316Q518 293 517.5 270Q517 247 517 225Q517 203 517 185V51H574V0L385 -10L388 86Q372 68 353 51Q334 34 312.5 20.5Q291 7 267 -1.5Q243 -10 217 -10Z" glyph-name="ugrave" horiz-adv-x="596" unicode="ù" /><glyph d="M226 554 327 726L464 716V705L274 544ZM217 -10Q151 -10 116 25.5Q81 61 81 123V437H22V488H212V140Q212 113 227 97Q242 81 271 81Q292 81 317.5 92.5Q343 104 386 136V437H323V488H522Q521 428 520 372Q519 339 518.5 316Q518 293 517.5 270Q517 247 517 225Q517 203 517 185V51H574V0L385 -10L388 86Q372 68 353 51Q334 34 312.5 20.5Q291 7 267 -1.5Q243 -10 217 -10Z" glyph-name="uacute" horiz-adv-x="596" unicode="ú" /><glyph d="M112 559 253 731H324L466 559L414 539L290 643L166 539ZM217 -10Q151 -10 116 25.5Q81 61 81 123V437H22V488H212V140Q212 113 227 97Q242 81 271 81Q292 81 317.5 92.5Q343 104 386 136V437H323V488H522Q521 428 520 372Q519 339 518.5 316Q518 293 517.5 270Q517 247 517 225Q517 203 517 185V51H574V0L385 -10L388 86Q372 68 353 51Q334 34 312.5 20.5Q291 7 267 -1.5Q243 -10 217 -10Z" glyph-name="ucircumflex" horiz-adv-x="596" unicode="û" /><glyph d="M136 697 256 697V566H136ZM323 697 443 697V566H323ZM217 -10Q151 -10 116 25.5Q81 61 81 123V437H22V488H212V140Q212 113 227 97Q242 81 271 81Q292 81 317.5 92.5Q343 104 386 136V437H323V488H522Q521 428 520 372Q519 339 518.5 316Q518 293 517.5 270Q517 247 517 225Q517 203 517 185V51H574V0L385 -10L388 86Q372 68 353 51Q334 34 312.5 20.5Q291 7 267 -1.5Q243 -10 217 -10Z" glyph-name="udieresis" horiz-adv-x="596" unicode="ü" /><glyph d="M212 554 313 726L450 716V705L260 544ZM52 -243 52 -191L175 -180L249 -12L60 437H8V488H191L323 143L431 437H347V488H551V437H497L209 -253Z" glyph-name="yacute" horiz-adv-x="554" unicode="ý" /><glyph d="M273 -250 8 -250V-199H65V682H3V733L196 743V417Q222 455 259.5 476.5Q297 498 349 498Q436 498 487.5 435.5Q539 373 539 253Q539 188 521.5 139Q504 90 473.5 57Q443 24 402.5 7Q362 -10 317 -10Q282 -10 251.5 -2Q221 6 196 20V-199H273ZM293 415Q251 415 223.5 392Q196 369 196 315V79Q205 76 224.5 67.5Q244 59 273 59Q298 59 320.5 66.5Q343 74 359.5 90.5Q376 107 385.5 135Q395 163 395 203V286Q395 343 368.5 379Q342 415 293 415Z" glyph-name="thorn" horiz-adv-x="575" unicode="þ" /><glyph d="M122 697 242 697V566H122ZM309 697 429 697V566H309ZM52 -243 52 -191L175 -180L249 -12L60 437H8V488H191L323 143L431 437H347V488H551V437H497L209 -253Z" glyph-name="ydieresis" horiz-adv-x="554" unicode="ÿ" /><glyph d="M202 851 490 851V781H202ZM231 0 1 0V58H63L298 700H398L641 58H707V0H394V58H488L419 246H192L126 58H231ZM398 301 303 561L211 301Z" glyph-name="Amacron" horiz-adv-x="700" unicode="Ā" /><glyph d="M108 639 396 639V569H108ZM159 -10Q95 -10 61 26.5Q27 63 27 117Q27 150 38 174Q49 198 69 214.5Q89 231 117 240.5Q145 250 179 256L304 277V347Q304 387 282.5 408.5Q261 430 209 430Q195 430 176.5 428Q158 426 141 421L119 330H68L59 454Q104 470 159.5 484Q215 498 279 498Q310 498 338.5 491Q367 484 388.5 467.5Q410 451 422.5 424.5Q435 398 435 360V57H490V5L302 -8L305 60Q273 28 233.5 9Q194 -10 159 -10ZM219 74Q242 74 263 84Q284 94 304 108V230L234 214Q201 206 182.5 192Q164 178 164 141V136Q164 110 177 92Q190 74 219 74Z" glyph-name="amacron" horiz-adv-x="510" unicode="ā" /><glyph d="M499 924Q503 879 492 847Q481 815 459 795Q437 775 408 766Q379 757 347 757Q316 757 286.5 766Q257 775 235 795Q213 815 201.5 847Q190 879 194 924L239 931Q239 908 247.5 893.5Q256 879 270.5 870.5Q285 862 305 859Q325 856 347 856Q370 856 389.5 859Q409 862 423.5 870.5Q438 879 446.5 893.5Q455 908 455 931ZM231 0 1 0V58H63L298 700H398L641 58H707V0H394V58H488L419 246H192L126 58H231ZM398 301 303 561L211 301Z" glyph-name="Abreve" horiz-adv-x="700" unicode="Ă" /><glyph d="M400 712Q404 667 393 635Q382 603 360 583Q338 563 309 554Q280 545 248 545Q217 545 187.5 554Q158 563 136 583Q114 603 102.5 635Q91 667 95 712L140 719Q140 696 148.5 681.5Q157 667 171.5 658.5Q186 650 206 647Q226 644 248 644Q271 644 290.5 647Q310 650 324.5 658.5Q339 667 347.5 681.5Q356 696 356 719ZM159 -10Q95 -10 61 26.5Q27 63 27 117Q27 150 38 174Q49 198 69 214.5Q89 231 117 240.5Q145 250 179 256L304 277V347Q304 387 282.5 408.5Q261 430 209 430Q195 430 176.5 428Q158 426 141 421L119 330H68L59 454Q104 470 159.5 484Q215 498 279 498Q310 498 338.5 491Q367 484 388.5 467.5Q410 451 422.5 424.5Q435 398 435 360V57H490V5L302 -8L305 60Q273 28 233.5 9Q194 -10 159 -10ZM219 74Q242 74 263 84Q284 94 304 108V230L234 214Q201 206 182.5 192Q164 178 164 141V136Q164 110 177 92Q190 74 219 74Z" glyph-name="abreve" horiz-adv-x="510" unicode="ă" /><glyph d="M649 -196Q630 -204 604 -209.5Q578 -215 552 -215Q501 -215 478.5 -194.5Q456 -174 456 -143Q456 -123 468 -103Q480 -83 498 -64.5Q516 -46 538 -30Q560 -14 581 0H394V58H488L419 246H192L126 58H231V0H1V58H63L298 700H398L641 58H707V0H642Q630 -13 616.5 -28Q603 -43 592 -59Q581 -75 573.5 -91Q566 -107 566 -120Q566 -146 582.5 -154Q599 -162 623 -162Q630 -162 637.5 -161Q645 -160 653 -158ZM398 301 303 561L211 301Z" glyph-name="Aogonek" horiz-adv-x="700" unicode="Ą" /><glyph d="M476 -196Q457 -204 431 -209.5Q405 -215 379 -215Q328 -215 305.5 -194.5Q283 -174 283 -143Q283 -123 294.5 -103.5Q306 -84 324 -65.5Q342 -47 364 -30.5Q386 -14 407 -1L302 -8L305 60Q273 28 233.5 9Q194 -10 159 -10Q95 -10 61 26.5Q27 63 27 117Q27 150 38 174Q49 198 69 214.5Q89 231 117 240.5Q145 250 179 256L304 277V347Q304 387 282.5 408.5Q261 430 209 430Q195 430 176.5 428Q158 426 141 421L119 330H68L59 454Q104 470 159.5 484Q215 498 279 498Q310 498 338.5 491Q367 484 388.5 467.5Q410 451 422.5 424.5Q435 398 435 360V57H490V5L472 4Q460 -9 446 -25Q432 -41 420.5 -57.5Q409 -74 401 -90Q393 -106 393 -120Q393 -146 409.5 -154Q426 -162 450 -162Q457 -162 464.5 -161Q472 -160 480 -158ZM219 74Q242 74 263 84Q284 94 304 108V230L234 214Q201 206 182.5 192Q164 178 164 141V136Q164 110 177 92Q190 74 219 74Z" glyph-name="aogonek" horiz-adv-x="510" unicode="ą" /><glyph d="M302 766 403 938L540 928V917L350 756ZM399 -10Q318 -10 251.5 15.5Q185 41 138.5 88Q92 135 66.5 201Q41 267 41 348Q41 439 70 507Q99 575 148.5 620Q198 665 264 687.5Q330 710 404 710Q433 710 465.5 707Q498 704 530.5 699.5Q563 695 593.5 689.5Q624 684 648 678L642 506H584L547 633Q518 641 484.5 646.5Q451 652 419 652Q373 652 331.5 636Q290 620 259 585.5Q228 551 210 497Q192 443 192 366Q192 296 207 237.5Q222 179 252.5 137Q283 95 328.5 72Q374 49 434 49Q481 49 509.5 56.5Q538 64 543 65L608 205H666L641 34Q610 22 572 12Q537 3 494 -3.5Q451 -10 399 -10Z" glyph-name="Cacute" horiz-adv-x="695" unicode="Ć" /><glyph d="M181 554 282 726L419 716V705L229 544ZM269 -10Q208 -10 163.5 9.5Q119 29 90.5 62.5Q62 96 48 141Q34 186 34 238Q34 297 50.5 345Q67 393 99.5 427Q132 461 179 479.5Q226 498 286 498Q308 498 333.5 495Q359 492 382 487.5Q405 483 422.5 479.5Q440 476 445 474L443 347H390L352 437Q327 443 303 443Q240 443 207 394.5Q174 346 174 252V236Q174 188 185.5 152.5Q197 117 216.5 94.5Q236 72 262.5 61Q289 50 320 50Q333 50 344 51.5Q355 53 368 56L412 154H463L453 27Q413 7 368.5 -1.5Q324 -10 269 -10Z" glyph-name="cacute" horiz-adv-x="492" unicode="ć" /><glyph d="M188 771 329 943H400L542 771L490 751L366 855L242 751ZM399 -10Q318 -10 251.5 15.5Q185 41 138.5 88Q92 135 66.5 201Q41 267 41 348Q41 439 70 507Q99 575 148.5 620Q198 665 264 687.5Q330 710 404 710Q433 710 465.5 707Q498 704 530.5 699.5Q563 695 593.5 689.5Q624 684 648 678L642 506H584L547 633Q518 641 484.5 646.5Q451 652 419 652Q373 652 331.5 636Q290 620 259 585.5Q228 551 210 497Q192 443 192 366Q192 296 207 237.5Q222 179 252.5 137Q283 95 328.5 72Q374 49 434 49Q481 49 509.5 56.5Q538 64 543 65L608 205H666L641 34Q610 22 572 12Q537 3 494 -3.5Q451 -10 399 -10Z" glyph-name="Ccircumflex" horiz-adv-x="695" unicode="Ĉ" /><glyph d="M67 559 208 731H279L421 559L369 539L245 643L121 539ZM269 -10Q208 -10 163.5 9.5Q119 29 90.5 62.5Q62 96 48 141Q34 186 34 238Q34 297 50.5 345Q67 393 99.5 427Q132 461 179 479.5Q226 498 286 498Q308 498 333.5 495Q359 492 382 487.5Q405 483 422.5 479.5Q440 476 445 474L443 347H390L352 437Q327 443 303 443Q240 443 207 394.5Q174 346 174 252V236Q174 188 185.5 152.5Q197 117 216.5 94.5Q236 72 262.5 61Q289 50 320 50Q333 50 344 51.5Q355 53 368 56L412 154H463L453 27Q413 7 368.5 -1.5Q324 -10 269 -10Z" glyph-name="ccircumflex" horiz-adv-x="492" unicode="ĉ" /><glyph d="M295 921 435 921V784H295ZM399 -10Q318 -10 251.5 15.5Q185 41 138.5 88Q92 135 66.5 201Q41 267 41 348Q41 439 70 507Q99 575 148.5 620Q198 665 264 687.5Q330 710 404 710Q433 710 465.5 707Q498 704 530.5 699.5Q563 695 593.5 689.5Q624 684 648 678L642 506H584L547 633Q518 641 484.5 646.5Q451 652 419 652Q373 652 331.5 636Q290 620 259 585.5Q228 551 210 497Q192 443 192 366Q192 296 207 237.5Q222 179 252.5 137Q283 95 328.5 72Q374 49 434 49Q481 49 509.5 56.5Q538 64 543 65L608 205H666L641 34Q610 22 572 12Q537 3 494 -3.5Q451 -10 399 -10Z" glyph-name="Cdotaccent" horiz-adv-x="695" unicode="Ċ" /><glyph d="M174 709 314 709V572H174ZM269 -10Q208 -10 163.5 9.5Q119 29 90.5 62.5Q62 96 48 141Q34 186 34 238Q34 297 50.5 345Q67 393 99.5 427Q132 461 179 479.5Q226 498 286 498Q308 498 333.5 495Q359 492 382 487.5Q405 483 422.5 479.5Q440 476 445 474L443 347H390L352 437Q327 443 303 443Q240 443 207 394.5Q174 346 174 252V236Q174 188 185.5 152.5Q197 117 216.5 94.5Q236 72 262.5 61Q289 50 320 50Q333 50 344 51.5Q355 53 368 56L412 154H463L453 27Q413 7 368.5 -1.5Q324 -10 269 -10Z" glyph-name="cdotaccent" horiz-adv-x="492" unicode="ċ" /><glyph d="M366 839 490 943L542 923L400 751H329L188 923L242 943ZM399 -10Q318 -10 251.5 15.5Q185 41 138.5 88Q92 135 66.5 201Q41 267 41 348Q41 439 70 507Q99 575 148.5 620Q198 665 264 687.5Q330 710 404 710Q433 710 465.5 707Q498 704 530.5 699.5Q563 695 593.5 689.5Q624 684 648 678L642 506H584L547 633Q518 641 484.5 646.5Q451 652 419 652Q373 652 331.5 636Q290 620 259 585.5Q228 551 210 497Q192 443 192 366Q192 296 207 237.5Q222 179 252.5 137Q283 95 328.5 72Q374 49 434 49Q481 49 509.5 56.5Q538 64 543 65L608 205H666L641 34Q610 22 572 12Q537 3 494 -3.5Q451 -10 399 -10Z" glyph-name="Ccaron" horiz-adv-x="695" unicode="Č" /><glyph d="M245 627 369 731L421 711L279 539H208L67 711L121 731ZM269 -10Q208 -10 163.5 9.5Q119 29 90.5 62.5Q62 96 48 141Q34 186 34 238Q34 297 50.5 345Q67 393 99.5 427Q132 461 179 479.5Q226 498 286 498Q308 498 333.5 495Q359 492 382 487.5Q405 483 422.5 479.5Q440 476 445 474L443 347H390L352 437Q327 443 303 443Q240 443 207 394.5Q174 346 174 252V236Q174 188 185.5 152.5Q197 117 216.5 94.5Q236 72 262.5 61Q289 50 320 50Q333 50 344 51.5Q355 53 368 56L412 154H463L453 27Q413 7 368.5 -1.5Q324 -10 269 -10Z" glyph-name="ccaron" horiz-adv-x="492" unicode="č" /><glyph d="M400 839 524 943L576 923L434 751H363L222 923L276 943ZM741 344Q741 260 713.5 196Q686 132 638 88.5Q590 45 524.5 22.5Q459 0 383 0H42V58H121V642H42V700H383Q459 700 524.5 678Q590 656 638 612.5Q686 569 713.5 504.5Q741 440 741 356ZM596 354Q596 438 579 493.5Q562 549 530.5 582Q499 615 455 628.5Q411 642 358 642H263V58H358Q411 58 455 71.5Q499 85 530.5 118Q562 151 579 206.5Q596 262 596 346Z" glyph-name="Dcaron" horiz-adv-x="783" unicode="Ď" /><glyph d="M223 -10Q136 -10 86 51Q36 112 36 233Q36 296 52.5 345Q69 394 98 428Q127 462 168.5 480Q210 498 259 498Q307 498 333.5 487Q360 476 380 461V675L308 691V742H511V51H566V4L374 -6L380 71Q354 33 314.5 11.5Q275 -10 223 -10ZM612 700 756 700V677L624 456H569ZM281 80Q326 80 353 102Q380 124 380 178V419Q370 422 349 428.5Q328 435 299 435Q241 435 210.5 396Q180 357 180 286V210Q180 152 206 116Q232 80 281 80Z" glyph-name="dcaron" horiz-adv-x="638" unicode="ď" /><glyph d="M741 344Q741 260 713.5 196Q686 132 638 88.5Q590 45 524.5 22.5Q459 0 383 0H42V58H121V321H59V378H121V642H42V700H383Q459 700 524.5 678Q590 656 638 612.5Q686 569 713.5 504.5Q741 440 741 356ZM358 58Q411 58 455 71.5Q499 85 530.5 118Q562 151 579 206.5Q596 262 596 346V354Q596 438 579 493.5Q562 549 530.5 582Q499 615 455 628.5Q411 642 358 642H263V378H438V321H263V58Z" glyph-name="Dcroat" horiz-adv-x="783" unicode="Đ" /><glyph d="M380 71Q354 33 314.5 11.5Q275 -10 223 -10Q136 -10 86 51Q36 112 36 233Q36 296 52.5 345Q69 394 98 428Q127 462 168.5 480Q210 498 259 498Q307 498 333.5 487Q360 476 380 461V568H272V617H380V675L308 691V742H511V617H555V568H511V51H566V4L374 -6ZM281 80Q326 80 353 102Q380 124 380 178V419Q370 422 349 428.5Q328 435 299 435Q241 435 210.5 396Q180 357 180 286V210Q180 152 206 116Q232 80 281 80Z" glyph-name="dcroat" horiz-adv-x="588" unicode="đ" /><glyph d="M197 851 485 851V781H197ZM42 58 121 58V642H42V700H598V520H544L493 642H263V378H383L408 473H460V222H408L383 321H263V58H512L595 205H648L622 0H42Z" glyph-name="Emacron" horiz-adv-x="669" unicode="Ē" /><glyph d="M104 639 392 639V569H104ZM263 -10Q207 -10 164.5 9Q122 28 93 61.5Q64 95 49 140.5Q34 186 34 238Q34 288 48 335Q62 382 90.5 418Q119 454 162.5 476Q206 498 264 498Q306 498 342 485.5Q378 473 404.5 448Q431 423 446 386Q461 349 461 299V258H174V237Q174 152 216.5 113.5Q259 75 326 75Q347 75 368 78.5Q389 82 407.5 87Q426 92 440.5 97.5Q455 103 463 106L461 55Q427 29 375.5 9.5Q324 -10 263 -10ZM332 314Q336 387 320 420Q304 453 263 453Q224 453 201.5 421.5Q179 390 176 305Z" glyph-name="emacron" horiz-adv-x="500" unicode="ē" /><glyph d="M494 924Q498 879 487 847Q476 815 454 795Q432 775 403 766Q374 757 342 757Q311 757 281.5 766Q252 775 230 795Q208 815 196.5 847Q185 879 189 924L234 931Q234 908 242.5 893.5Q251 879 265.5 870.5Q280 862 300 859Q320 856 342 856Q365 856 384.5 859Q404 862 418.5 870.5Q433 879 441.5 893.5Q450 908 450 931ZM42 58 121 58V642H42V700H598V520H544L493 642H263V378H383L408 473H460V222H408L383 321H263V58H512L595 205H648L622 0H42Z" glyph-name="Ebreve" horiz-adv-x="669" unicode="Ĕ" /><glyph d="M401 712Q405 667 394 635Q383 603 361 583Q339 563 310 554Q281 545 249 545Q218 545 188.5 554Q159 563 137 583Q115 603 103.5 635Q92 667 96 712L141 719Q141 696 149.5 681.5Q158 667 172.5 658.5Q187 650 207 647Q227 644 249 644Q272 644 291.5 647Q311 650 325.5 658.5Q340 667 348.5 681.5Q357 696 357 719ZM263 -10Q207 -10 164.5 9Q122 28 93 61.5Q64 95 49 140.5Q34 186 34 238Q34 288 48 335Q62 382 90.5 418Q119 454 162.5 476Q206 498 264 498Q306 498 342 485.5Q378 473 404.5 448Q431 423 446 386Q461 349 461 299V258H174V237Q174 152 216.5 113.5Q259 75 326 75Q347 75 368 78.5Q389 82 407.5 87Q426 92 440.5 97.5Q455 103 463 106L461 55Q427 29 375.5 9.5Q324 -10 263 -10ZM332 314Q336 387 320 420Q304 453 263 453Q224 453 201.5 421.5Q179 390 176 305Z" glyph-name="ebreve" horiz-adv-x="500" unicode="ĕ" /><glyph d="M271 921 411 921V784H271ZM42 58 121 58V642H42V700H598V520H544L493 642H263V378H383L408 473H460V222H408L383 321H263V58H512L595 205H648L622 0H42Z" glyph-name="Edotaccent" horiz-adv-x="669" unicode="Ė" /><glyph d="M178 709 318 709V572H178ZM263 -10Q207 -10 164.5 9Q122 28 93 61.5Q64 95 49 140.5Q34 186 34 238Q34 288 48 335Q62 382 90.5 418Q119 454 162.5 476Q206 498 264 498Q306 498 342 485.5Q378 473 404.5 448Q431 423 446 386Q461 349 461 299V258H174V237Q174 152 216.5 113.5Q259 75 326 75Q347 75 368 78.5Q389 82 407.5 87Q426 92 440.5 97.5Q455 103 463 106L461 55Q427 29 375.5 9.5Q324 -10 263 -10ZM332 314Q336 387 320 420Q304 453 263 453Q224 453 201.5 421.5Q179 390 176 305Z" glyph-name="edotaccent" horiz-adv-x="500" unicode="ė" /><glyph d="M586 -196Q567 -204 541 -209.5Q515 -215 489 -215Q438 -215 415.5 -194.5Q393 -174 393 -143Q393 -123 405 -103Q417 -83 435 -64.5Q453 -46 475 -30Q497 -14 518 0H42V58H121V642H42V700H598V520H544L493 642H263V378H383L408 473H460V222H408L383 321H263V58H512L595 205H648L622 0H579Q567 -13 553.5 -28Q540 -43 529 -59Q518 -75 510.5 -91Q503 -107 503 -120Q503 -146 519.5 -154Q536 -162 560 -162Q567 -162 574.5 -161Q582 -160 590 -158Z" glyph-name="Eogonek" horiz-adv-x="669" unicode="Ę" /><glyph d="M394 -181Q375 -189 349 -194.5Q323 -200 297 -200Q246 -200 223.5 -179.5Q201 -159 201 -128Q201 -96 228.5 -65Q256 -34 291 -9Q284 -10 277.5 -10Q271 -10 263 -10Q207 -10 164.5 9Q122 28 93 61.5Q64 95 49 140.5Q34 186 34 238Q34 288 48 335Q62 382 90.5 418Q119 454 162.5 476Q206 498 264 498Q306 498 342 485.5Q378 473 404.5 448Q431 423 446 386Q461 349 461 299V258H174V237Q174 152 216.5 113.5Q259 75 326 75Q347 75 368 78.5Q389 82 407.5 87Q426 92 440.5 97.5Q455 103 463 106L461 55Q445 43 426 32Q407 21 384 13Q372 0 359.5 -15Q347 -30 336 -46Q325 -62 318 -77Q311 -92 311 -105Q311 -131 327.5 -139Q344 -147 368 -147Q375 -147 382.5 -146Q390 -145 398 -143ZM332 314Q336 387 320 420Q304 453 263 453Q224 453 201.5 421.5Q179 390 176 305Z" glyph-name="eogonek" horiz-adv-x="500" unicode="ę" /><glyph d="M342 839 466 943L518 923L376 751H305L164 923L218 943ZM42 58 121 58V642H42V700H598V520H544L493 642H263V378H383L408 473H460V222H408L383 321H263V58H512L595 205H648L622 0H42Z" glyph-name="Ecaron" horiz-adv-x="669" unicode="Ě" /><glyph d="M249 627 373 731L425 711L283 539H212L71 711L125 731ZM263 -10Q207 -10 164.5 9Q122 28 93 61.5Q64 95 49 140.5Q34 186 34 238Q34 288 48 335Q62 382 90.5 418Q119 454 162.5 476Q206 498 264 498Q306 498 342 485.5Q378 473 404.5 448Q431 423 446 386Q461 349 461 299V258H174V237Q174 152 216.5 113.5Q259 75 326 75Q347 75 368 78.5Q389 82 407.5 87Q426 92 440.5 97.5Q455 103 463 106L461 55Q427 29 375.5 9.5Q324 -10 263 -10ZM332 314Q336 387 320 420Q304 453 263 453Q224 453 201.5 421.5Q179 390 176 305Z" glyph-name="ecaron" horiz-adv-x="500" unicode="ě" /><glyph d="M215 771 356 943H427L569 771L517 751L393 855L269 751ZM190 355Q190 283 209.5 227Q229 171 264.5 132Q300 93 349 72.5Q398 52 457 52Q502 52 529 59Q556 66 562 67V269H449V327H761V269H700V45Q683 38 654.5 28.5Q626 19 588.5 11Q551 3 505.5 -3Q460 -9 408 -9Q326 -9 258 16.5Q190 42 141.5 88.5Q93 135 66.5 199.5Q40 264 40 343Q40 434 71 503Q102 572 155.5 618Q209 664 280 687Q351 710 431 710Q504 710 573 699.5Q642 689 698 675L690 506H633L592 629Q560 639 525.5 645Q491 651 447 651Q395 651 348.5 634Q302 617 266.5 581Q231 545 210.5 489Q190 433 190 355Z" glyph-name="Gcircumflex" horiz-adv-x="784" unicode="Ĝ" /><glyph d="M68 559 209 731H280L422 559L370 539L246 643L122 539ZM523 -66Q523 -118 496.5 -155.5Q470 -193 427.5 -217.5Q385 -242 331.5 -254Q278 -266 224 -266Q115 -266 62 -229Q9 -192 9 -135Q9 -112 18.5 -92Q28 -72 44.5 -57Q61 -42 82 -32.5Q103 -23 127 -20Q96 -12 75 13.5Q54 39 54 75Q54 105 70.5 134Q87 163 113 183Q80 206 61 241Q42 276 42 321Q42 361 58 393.5Q74 426 102 449.5Q130 473 168 485.5Q206 498 250 498Q296 498 338 484L543 492L527 415L523 413L416 433Q436 411 447 383Q458 355 458 321Q458 281 442 248Q426 215 398 191.5Q370 168 332 155.5Q294 143 250 143Q191 143 146 164Q140 156 136 146.5Q132 137 132 127Q132 105 147 90Q162 75 199 73L365 67Q447 64 485 27Q523 -10 523 -66ZM327 369Q327 406 307.5 428Q288 450 250 450Q213 450 193.5 428Q174 406 174 369V272Q174 235 193.5 213Q213 191 250 191Q288 191 307.5 213Q327 235 327 272ZM255 -219Q286 -219 314.5 -213Q343 -207 364.5 -195Q386 -183 399 -165Q412 -147 412 -122Q412 -89 387.5 -74.5Q363 -60 318 -56Q264 -51 227.5 -49Q191 -47 182 -47Q168 -47 152 -51.5Q136 -56 123 -65.5Q110 -75 101.5 -89.5Q93 -104 93 -123Q93 -168 137.5 -193.5Q182 -219 255 -219Z" glyph-name="gcircumflex" horiz-adv-x="540" unicode="ĝ" /><glyph d="M546 924Q550 879 539 847Q528 815 506 795Q484 775 455 766Q426 757 394 757Q363 757 333.5 766Q304 775 282 795Q260 815 248.5 847Q237 879 241 924L286 931Q286 908 294.5 893.5Q303 879 317.5 870.5Q332 862 352 859Q372 856 394 856Q417 856 436.5 859Q456 862 470.5 870.5Q485 879 493.5 893.5Q502 908 502 931ZM190 355Q190 283 209.5 227Q229 171 264.5 132Q300 93 349 72.5Q398 52 457 52Q502 52 529 59Q556 66 562 67V269H449V327H761V269H700V45Q683 38 654.5 28.5Q626 19 588.5 11Q551 3 505.5 -3Q460 -9 408 -9Q326 -9 258 16.5Q190 42 141.5 88.5Q93 135 66.5 199.5Q40 264 40 343Q40 434 71 503Q102 572 155.5 618Q209 664 280 687Q351 710 431 710Q504 710 573 699.5Q642 689 698 675L690 506H633L592 629Q560 639 525.5 645Q491 651 447 651Q395 651 348.5 634Q302 617 266.5 581Q231 545 210.5 489Q190 433 190 355Z" glyph-name="Gbreve" horiz-adv-x="784" unicode="Ğ" /><glyph d="M399 712Q403 667 392 635Q381 603 359 583Q337 563 308 554Q279 545 247 545Q216 545 186.5 554Q157 563 135 583Q113 603 101.5 635Q90 667 94 712L139 719Q139 696 147.5 681.5Q156 667 170.5 658.5Q185 650 205 647Q225 644 247 644Q270 644 289.5 647Q309 650 323.5 658.5Q338 667 346.5 681.5Q355 696 355 719ZM523 -66Q523 -118 496.5 -155.5Q470 -193 427.5 -217.5Q385 -242 331.5 -254Q278 -266 224 -266Q115 -266 62 -229Q9 -192 9 -135Q9 -112 18.5 -92Q28 -72 44.5 -57Q61 -42 82 -32.5Q103 -23 127 -20Q96 -12 75 13.5Q54 39 54 75Q54 105 70.5 134Q87 163 113 183Q80 206 61 241Q42 276 42 321Q42 361 58 393.5Q74 426 102 449.5Q130 473 168 485.5Q206 498 250 498Q296 498 338 484L543 492L527 415L523 413L416 433Q436 411 447 383Q458 355 458 321Q458 281 442 248Q426 215 398 191.5Q370 168 332 155.5Q294 143 250 143Q191 143 146 164Q140 156 136 146.5Q132 137 132 127Q132 105 147 90Q162 75 199 73L365 67Q447 64 485 27Q523 -10 523 -66ZM327 369Q327 406 307.5 428Q288 450 250 450Q213 450 193.5 428Q174 406 174 369V272Q174 235 193.5 213Q213 191 250 191Q288 191 307.5 213Q327 235 327 272ZM255 -219Q286 -219 314.5 -213Q343 -207 364.5 -195Q386 -183 399 -165Q412 -147 412 -122Q412 -89 387.5 -74.5Q363 -60 318 -56Q264 -51 227.5 -49Q191 -47 182 -47Q168 -47 152 -51.5Q136 -56 123 -65.5Q110 -75 101.5 -89.5Q93 -104 93 -123Q93 -168 137.5 -193.5Q182 -219 255 -219Z" glyph-name="gbreve" horiz-adv-x="540" unicode="ğ" /><glyph d="M322 921 462 921V784H322ZM190 355Q190 283 209.5 227Q229 171 264.5 132Q300 93 349 72.5Q398 52 457 52Q502 52 529 59Q556 66 562 67V269H449V327H761V269H700V45Q683 38 654.5 28.5Q626 19 588.5 11Q551 3 505.5 -3Q460 -9 408 -9Q326 -9 258 16.5Q190 42 141.5 88.5Q93 135 66.5 199.5Q40 264 40 343Q40 434 71 503Q102 572 155.5 618Q209 664 280 687Q351 710 431 710Q504 710 573 699.5Q642 689 698 675L690 506H633L592 629Q560 639 525.5 645Q491 651 447 651Q395 651 348.5 634Q302 617 266.5 581Q231 545 210.5 489Q190 433 190 355Z" glyph-name="Gdotaccent" horiz-adv-x="784" unicode="Ġ" /><glyph d="M176 709 316 709V572H176ZM523 -66Q523 -118 496.5 -155.5Q470 -193 427.5 -217.5Q385 -242 331.5 -254Q278 -266 224 -266Q115 -266 62 -229Q9 -192 9 -135Q9 -112 18.5 -92Q28 -72 44.5 -57Q61 -42 82 -32.5Q103 -23 127 -20Q96 -12 75 13.5Q54 39 54 75Q54 105 70.5 134Q87 163 113 183Q80 206 61 241Q42 276 42 321Q42 361 58 393.5Q74 426 102 449.5Q130 473 168 485.5Q206 498 250 498Q296 498 338 484L543 492L527 415L523 413L416 433Q436 411 447 383Q458 355 458 321Q458 281 442 248Q426 215 398 191.5Q370 168 332 155.5Q294 143 250 143Q191 143 146 164Q140 156 136 146.5Q132 137 132 127Q132 105 147 90Q162 75 199 73L365 67Q447 64 485 27Q523 -10 523 -66ZM327 369Q327 406 307.5 428Q288 450 250 450Q213 450 193.5 428Q174 406 174 369V272Q174 235 193.5 213Q213 191 250 191Q288 191 307.5 213Q327 235 327 272ZM255 -219Q286 -219 314.5 -213Q343 -207 364.5 -195Q386 -183 399 -165Q412 -147 412 -122Q412 -89 387.5 -74.5Q363 -60 318 -56Q264 -51 227.5 -49Q191 -47 182 -47Q168 -47 152 -51.5Q136 -56 123 -65.5Q110 -75 101.5 -89.5Q93 -104 93 -123Q93 -168 137.5 -193.5Q182 -219 255 -219Z" glyph-name="gdotaccent" horiz-adv-x="540" unicode="ġ" /><glyph d="M190 355Q190 283 209.5 227Q229 171 264.5 132Q300 93 349 72.5Q398 52 457 52Q502 52 529 59Q556 66 562 67V269H449V327H761V269H700V45Q683 38 654.5 28.5Q626 19 588.5 11Q551 3 505.5 -3Q460 -9 408 -9Q326 -9 258 16.5Q190 42 141.5 88.5Q93 135 66.5 199.5Q40 264 40 343Q40 434 71 503Q102 572 155.5 618Q209 664 280 687Q351 710 431 710Q504 710 573 699.5Q642 689 698 675L690 506H633L592 629Q560 639 525.5 645Q491 651 447 651Q395 651 348.5 634Q302 617 266.5 581Q231 545 210.5 489Q190 433 190 355ZM326 -55 471 -55V-91L334 -265H277Z" glyph-name="Gcommaaccent" horiz-adv-x="784" unicode="Ģ" /><glyph d="M164 564 304 779H354L313 542H164ZM523 -66Q523 -118 496.5 -155.5Q470 -193 427.5 -217.5Q385 -242 331.5 -254Q278 -266 224 -266Q115 -266 62 -229Q9 -192 9 -135Q9 -112 18.5 -92Q28 -72 44.5 -57Q61 -42 82 -32.5Q103 -23 127 -20Q96 -12 75 13.5Q54 39 54 75Q54 105 70.5 134Q87 163 113 183Q80 206 61 241Q42 276 42 321Q42 361 58 393.5Q74 426 102 449.5Q130 473 168 485.5Q206 498 250 498Q296 498 338 484L543 492L527 415L523 413L416 433Q436 411 447 383Q458 355 458 321Q458 281 442 248Q426 215 398 191.5Q370 168 332 155.5Q294 143 250 143Q191 143 146 164Q140 156 136 146.5Q132 137 132 127Q132 105 147 90Q162 75 199 73L365 67Q447 64 485 27Q523 -10 523 -66ZM327 369Q327 406 307.5 428Q288 450 250 450Q213 450 193.5 428Q174 406 174 369V272Q174 235 193.5 213Q213 191 250 191Q288 191 307.5 213Q327 235 327 272ZM255 -219Q286 -219 314.5 -213Q343 -207 364.5 -195Q386 -183 399 -165Q412 -147 412 -122Q412 -89 387.5 -74.5Q363 -60 318 -56Q264 -51 227.5 -49Q191 -47 182 -47Q168 -47 152 -51.5Q136 -56 123 -65.5Q110 -75 101.5 -89.5Q93 -104 93 -123Q93 -168 137.5 -193.5Q182 -219 255 -219Z" glyph-name="gcommaaccent" horiz-adv-x="541" unicode="ģ" /><glyph d="M244 771 385 943H456L598 771L546 751L422 855L298 751ZM42 58 121 58V642H42V700H354V642H262V383H583V642H490V700H803V642H724V58H803V0H490V58H583V325H262V58H354V0H42Z" glyph-name="Hcircumflex" horiz-adv-x="845" unicode="Ĥ" /><glyph d="M121 813 262 985H333L475 813L423 793L299 897L175 793ZM277 0 25 0V51H80V680L23 691V742H216Q216 729 215 701Q214 673 213.5 638Q213 603 212.5 564.5Q212 526 211.5 493Q211 460 210.5 436Q210 412 210 406Q231 423 253 439.5Q275 456 298 469Q321 482 345.5 490Q370 498 395 498Q458 498 493 463.5Q528 429 528 357V51H585V0H342V51H397V334Q397 366 383 385.5Q369 405 336 405Q314 405 283.5 394Q253 383 211 360V51H277Z" glyph-name="hcircumflex" horiz-adv-x="606" unicode="ĥ" /><glyph d="M354 0 42 0V58H121V484H48V542H121V642H42V700H354V642H262V542H583V642H490V700H803V642H724V542H796V484H724V58H803V0H490V58H583V325H262V58H354ZM583 383 583 484H262V383Z" glyph-name="Hbar" horiz-adv-x="845" unicode="Ħ" /><glyph d="M275 0 23 0V51H78V568H30V617H78V680L21 691V742H214Q213 728 212.5 693.5Q212 659 211 617H313V568H210Q210 540 209.5 512.5Q209 485 208.5 463Q208 441 208 426Q208 411 208 406Q228 423 250 439.5Q272 456 295.5 469Q319 482 343.5 490Q368 498 393 498Q456 498 491 463.5Q526 429 526 357V51H582V0H339V51H395V329Q395 361 380.5 380Q366 399 334 399Q312 399 281.5 388.5Q251 378 209 355V51H275Z" glyph-name="hbar" horiz-adv-x="606" unicode="ħ" /><glyph d="M113 803Q94 803 82.5 790.5Q71 778 66 762L29 774Q32 839 60 868Q88 897 123 897Q140 897 160.5 891.5Q181 886 202.5 880Q224 874 244 868.5Q264 863 279 863Q299 863 310 876Q321 889 326 905L364 892Q361 827 332.5 798Q304 769 269 769Q252 769 231 774.5Q210 780 188 786Q166 792 146.5 797.5Q127 803 113 803ZM34 58 129 58V642H34V700H364V642H270V58H364V0H34Z" glyph-name="Itilde" horiz-adv-x="399" unicode="Ĩ" /><glyph d="M64 591Q45 591 33.5 578.5Q22 566 17 550L-20 562Q-17 627 11 656Q39 685 74 685Q91 685 111.5 679.5Q132 674 153.5 668Q175 662 195 656.5Q215 651 230 651Q250 651 261 664Q272 677 277 693L315 680Q312 615 283.5 586Q255 557 220 557Q203 557 182 562.5Q161 568 139 574Q117 580 97.5 585.5Q78 591 64 591ZM25 51 94 51V437H29V488H225V51H289V0H25Z" glyph-name="itilde" horiz-adv-x="309" unicode="ĩ" /><glyph d="M55 851 343 851V781H55ZM34 58 129 58V642H34V700H364V642H270V58H364V0H34Z" glyph-name="Imacron" horiz-adv-x="399" unicode="Ī" /><glyph d="M6 639 294 639V569H6ZM25 51 94 51V437H29V488H225V51H289V0H25Z" glyph-name="imacron" horiz-adv-x="309" unicode="ī" /><glyph d="M352 924Q356 879 345 847Q334 815 312 795Q290 775 261 766Q232 757 200 757Q169 757 139.5 766Q110 775 88 795Q66 815 54.5 847Q43 879 47 924L92 931Q92 908 100.5 893.5Q109 879 123.5 870.5Q138 862 158 859Q178 856 200 856Q223 856 242.5 859Q262 862 276.5 870.5Q291 879 299.5 893.5Q308 908 308 931ZM34 58 129 58V642H34V700H364V642H270V58H364V0H34Z" glyph-name="Ibreve" horiz-adv-x="399" unicode="Ĭ" /><glyph d="M302 712Q306 667 295 635Q284 603 262 583Q240 563 211 554Q182 545 150 545Q119 545 89.5 554Q60 563 38 583Q16 603 4.5 635Q-7 667 -3 712L42 719Q42 696 50.5 681.5Q59 667 73.5 658.5Q88 650 108 647Q128 644 150 644Q173 644 192.5 647Q212 650 226.5 658.5Q241 667 249.5 681.5Q258 696 258 719ZM24 51 93 51V437H28V488H224V51H288V0H24Z" glyph-name="ibreve" horiz-adv-x="309" unicode="ĭ" /><glyph d="M327 -201Q308 -209 282 -214.5Q256 -220 230 -220Q179 -220 156.5 -199.5Q134 -179 134 -148Q134 -127 147 -106.5Q160 -86 179.5 -66.5Q199 -47 222.5 -30.5Q246 -14 267 0H34V58H129V642H34V700H364V642H270V58H364V0H324Q312 -13 298 -28.5Q284 -44 272 -61Q260 -78 252 -94.5Q244 -111 244 -125Q244 -151 260.5 -159Q277 -167 301 -167Q308 -167 315.5 -166Q323 -165 331 -163Z" glyph-name="Iogonek" horiz-adv-x="399" unicode="Į" /><glyph d="M92 711 225 711V578H92ZM246 -196Q227 -204 201 -209.5Q175 -215 149 -215Q98 -215 75.5 -194.5Q53 -174 53 -143Q53 -123 65 -103Q77 -83 95 -64.5Q113 -46 135 -30Q157 -14 178 0H25V51H94V437H29V488H225V51H289V0H239Q227 -13 213.5 -28Q200 -43 189 -59Q178 -75 170.5 -91Q163 -107 163 -120Q163 -146 179.5 -154Q196 -162 220 -162Q227 -162 234.5 -161Q242 -160 250 -158Z" glyph-name="iogonek" horiz-adv-x="309" unicode="į" /><glyph d="M129 921 269 921V784H129ZM34 58 129 58V642H34V700H364V642H270V58H364V0H34Z" glyph-name="Idotaccent" horiz-adv-x="399" unicode="İ" /><glyph d="M25 51 94 51V437H29V488H225V51H289V0H25Z" glyph-name="dotlessi" horiz-adv-x="309" unicode="ı" /><glyph d="M34 58 129 58V642H34V700H364V642H270V58H364V0H34ZM420 -169 498 -79V642H429V700H691L671 642H639V8Q639 -23 633 -51Q627 -79 608 -104.5Q589 -130 553.5 -154Q518 -178 460 -202Z" glyph-name="IJ" horiz-adv-x="739" unicode="Ĳ" /><glyph d="M92 711 225 711V578H92ZM380 711 513 711V578H380ZM25 51 94 51V437H29V488H225V51H289V0H25ZM513 -83Q513 -126 489.5 -162.5Q466 -199 404 -233L351 -263L319 -230L382 -158V437H335V488H513Z" glyph-name="ij" horiz-adv-x="578" unicode="ĳ" /><glyph d="M4 771 145 943H216L358 771L306 751L182 855L58 751ZM34 -169 112 -79V642H43V700H305L285 642H253V8Q253 -23 247 -51Q241 -79 222 -104.5Q203 -130 167.5 -154Q132 -178 74 -202Z" glyph-name="Jcircumflex" horiz-adv-x="353" unicode="Ĵ" /><glyph d="M-40 559 101 731H172L314 559L262 539L138 643L14 539ZM13 -230 76 -158V437H25V488H207V-83Q207 -126 183.5 -162.5Q160 -199 98 -233L45 -263Z" glyph-name="jcircumflex" horiz-adv-x="272" unicode="ĵ" /><glyph d="M42 58 121 58V642H42V700H337V642H263V381H306L552 642H452V700H714V642H634L415 414L678 58H740V0H544L312 325H263V58H342V0H42ZM309 -55 454 -55V-91L317 -265H260Z" glyph-name="Kcommaaccent" horiz-adv-x="732" unicode="Ķ" /><glyph d="M24 51 81 51V680L29 691V742H212V295H264L414 437H320V488H558V437H491L358 313L531 51H585V0H410L255 244H212V51H273V0H24ZM223 -55 368 -55V-91L231 -265H174Z" glyph-name="kcommaaccent" horiz-adv-x="578" unicode="ķ" /><glyph d="M261 235 219 235V51H280V0H31V51H88V426L36 437V488H219V285H271L421 437H327V488H565V437H498L365 303L538 51H592V0H417Z" glyph-name="kgreenlandic" horiz-adv-x="580" unicode="ĸ" /><glyph d="M127 766 228 938L365 928V917L175 756ZM42 58 121 58V642H42V700H337V642H263V58H495L566 215H621L600 0H42Z" glyph-name="Lacute" horiz-adv-x="632" unicode="Ĺ" /><glyph d="M87 808 188 980L325 970V959L135 798ZM17 51 84 51V680L23 691V742H215V51H282V0H17Z" glyph-name="lacute" horiz-adv-x="304" unicode="ĺ" /><glyph d="M42 58 121 58V642H42V700H337V642H263V58H495L566 215H621L600 0H42ZM259 -55 404 -55V-91L267 -265H210Z" glyph-name="Lcommaaccent" horiz-adv-x="632" unicode="Ļ" /><glyph d="M17 51 84 51V680L23 691V742H215V51H282V0H17ZM84 -55 229 -55V-91L92 -265H35Z" glyph-name="lcommaaccent" horiz-adv-x="304" unicode="ļ" /><glyph d="M42 58 121 58V642H42V700H337V642H263V58H495L566 215H621L600 0H42ZM441 700 585 700V677L453 456H398Z" glyph-name="Lcaron" horiz-adv-x="634" unicode="Ľ" /><glyph d="M17 51 84 51V680L23 691V742H215V51H282V0H17ZM329 700 473 700V677L341 456H286Z" glyph-name="lcaron" horiz-adv-x="355" unicode="ľ" /><glyph d="M42 58 121 58V642H42V700H337V642H263V58H495L566 215H621L600 0H42ZM398 432 525 432V296H398Z" glyph-name="Ldot" horiz-adv-x="632" unicode="Ŀ" /><glyph d="M17 51 84 51V680L23 691V742H215V51H282V0H17ZM294 392 421 392V256H294Z" glyph-name="ldot" horiz-adv-x="412" unicode="ŀ" /><glyph d="M600 0 42 0V58H121V248L48 220V275L121 303V642H42V700H337V642H263V358L398 410V355L263 303V58H495L566 215H621Z" glyph-name="Lslash" horiz-adv-x="632" unicode="Ł" /><glyph d="M297 0 33 0V51H99V226L35 193V249L99 282V680L38 691V742H230V350L295 384V329L230 295V51H297Z" glyph-name="lslash" horiz-adv-x="327" unicode="ł" /><glyph d="M344 766 445 938L582 928V917L392 756ZM35 58 128 58V642H35V700H274L633 172V642H535V700H793V642H697V0H586L193 576V58H298V0H35Z" glyph-name="Nacute" horiz-adv-x="818" unicode="Ń" /><glyph d="M241 554 342 726L479 716V705L289 544ZM33 51 90 51V437H29V488L222 498Q221 479 221 461Q220 445 219.5 429.5Q219 414 219 405Q240 422 262 439Q284 456 307 469Q330 482 355 490Q380 498 405 498Q468 498 503 463.5Q538 429 538 357V51H595V0H352V51H407V334Q407 366 393 385.5Q379 405 346 405Q325 405 294 394Q263 383 221 360V51H287V0H33Z" glyph-name="nacute" horiz-adv-x="617" unicode="ń" /><glyph d="M35 58 128 58V642H35V700H274L633 172V642H535V700H793V642H697V0H586L193 576V58H298V0H35ZM342 -55 487 -55V-91L350 -265H293Z" glyph-name="Ncommaaccent" horiz-adv-x="818" unicode="Ņ" /><glyph d="M33 51 90 51V437H29V488L222 498Q221 479 221 461Q220 445 219.5 429.5Q219 414 219 405Q240 422 262 439Q284 456 307 469Q330 482 355 490Q380 498 405 498Q468 498 503 463.5Q538 429 538 357V51H595V0H352V51H407V334Q407 366 393 385.5Q379 405 346 405Q325 405 294 394Q263 383 221 360V51H287V0H33ZM238 -55 383 -55V-91L246 -265H189Z" glyph-name="ncommaaccent" horiz-adv-x="617" unicode="ņ" /><glyph d="M408 839 532 943L584 923L442 751H371L230 923L284 943ZM35 58 128 58V642H35V700H274L633 172V642H535V700H793V642H697V0H586L193 576V58H298V0H35Z" glyph-name="Ncaron" horiz-adv-x="818" unicode="Ň" /><glyph d="M305 627 429 731L481 711L339 539H268L127 711L181 731ZM33 51 90 51V437H29V488L222 498Q221 479 221 461Q220 445 219.5 429.5Q219 414 219 405Q240 422 262 439Q284 456 307 469Q330 482 355 490Q380 498 405 498Q468 498 503 463.5Q538 429 538 357V51H595V0H352V51H407V334Q407 366 393 385.5Q379 405 346 405Q325 405 294 394Q263 383 221 360V51H287V0H33Z" glyph-name="ncaron" horiz-adv-x="617" unicode="ň" /><glyph d="M123 811 267 811V788L135 567H80ZM33 51 90 51V437H29V488L222 498Q221 479 221 461Q220 445 219.5 429.5Q219 414 219 405Q240 422 262 439Q284 456 307 469Q330 482 355 490Q380 498 405 498Q468 498 503 463.5Q538 429 538 357V51H595V0H352V51H407V334Q407 366 393 385.5Q379 405 346 405Q325 405 294 394Q263 383 221 360V51H287V0H33Z" glyph-name="napostrophe" horiz-adv-x="617" unicode="ŉ" /><glyph d="M698 -63Q698 -163 511 -252L475 -213L554 -119V47L193 576V58H298V0H35V58H128V642H35V700H274L633 172V642H535V700H793V642H697V111H698Z" glyph-name="Eng" horiz-adv-x="818" unicode="Ŋ" /><glyph d="M380 -263 348 -230L406 -162V0H351V51H406V329Q406 361 392 380Q378 399 345 399Q324 399 293 388.5Q262 378 220 355V51H286V0H32V51H89V437H28V488L221 498Q220 479 220 461Q219 445 218.5 429.5Q218 414 218 405Q239 422 261 439Q283 456 306 469Q329 482 354 490Q379 498 404 498Q467 498 502 463.5Q537 429 537 357V51H594V0H537V-83Q537 -126 516 -162.5Q495 -199 433 -233Z" glyph-name="eng" horiz-adv-x="617" unicode="ŋ" /><glyph d="M243 851 531 851V781H243ZM388 -10Q321 -10 258.5 13.5Q196 37 147.5 82.5Q99 128 69.5 194.5Q40 261 40 348Q40 434 69.5 501.5Q99 569 147.5 615.5Q196 662 258.5 686Q321 710 388 710Q454 710 516.5 686Q579 662 627.5 615.5Q676 569 705.5 501.5Q735 434 735 348Q735 261 705.5 194.5Q676 128 627.5 82.5Q579 37 516.5 13.5Q454 -10 388 -10ZM388 44Q438 44 474 61Q510 78 534 109Q558 140 569.5 182Q581 224 581 273V426Q581 476 569.5 518Q558 560 534 590.5Q510 621 474 638.5Q438 656 388 656Q338 656 301.5 638.5Q265 621 241 590.5Q217 560 205.5 518Q194 476 194 426V273Q194 224 205.5 182Q217 140 241 109Q265 78 301.5 61Q338 44 388 44Z" glyph-name="Omacron" horiz-adv-x="774" unicode="Ō" /><glyph d="M128 639 416 639V569H128ZM273 -10Q224 -10 180.5 8Q137 26 104 59Q71 92 52 139Q33 186 33 243Q33 300 52 347Q71 394 104 427.5Q137 461 180.5 479.5Q224 498 273 498Q321 498 364.5 479.5Q408 461 441 427.5Q474 394 493 347.5Q512 301 512 244Q512 187 493 140Q474 93 441 59.5Q408 26 364.5 8Q321 -10 273 -10ZM273 40Q318 40 343 70.5Q368 101 368 165V323Q368 386 343 417Q318 448 273 448Q228 448 202.5 417.5Q177 387 177 324V165Q177 101 202.5 70.5Q228 40 273 40Z" glyph-name="omacron" horiz-adv-x="545" unicode="ō" /><glyph d="M540 924Q544 879 533 847Q522 815 500 795Q478 775 449 766Q420 757 388 757Q357 757 327.5 766Q298 775 276 795Q254 815 242.5 847Q231 879 235 924L280 931Q280 908 288.5 893.5Q297 879 311.5 870.5Q326 862 346 859Q366 856 388 856Q411 856 430.5 859Q450 862 464.5 870.5Q479 879 487.5 893.5Q496 908 496 931ZM388 -10Q321 -10 258.5 13.5Q196 37 147.5 82.5Q99 128 69.5 194.5Q40 261 40 348Q40 434 69.5 501.5Q99 569 147.5 615.5Q196 662 258.5 686Q321 710 388 710Q454 710 516.5 686Q579 662 627.5 615.5Q676 569 705.5 501.5Q735 434 735 348Q735 261 705.5 194.5Q676 128 627.5 82.5Q579 37 516.5 13.5Q454 -10 388 -10ZM388 44Q438 44 474 61Q510 78 534 109Q558 140 569.5 182Q581 224 581 273V426Q581 476 569.5 518Q558 560 534 590.5Q510 621 474 638.5Q438 656 388 656Q338 656 301.5 638.5Q265 621 241 590.5Q217 560 205.5 518Q194 476 194 426V273Q194 224 205.5 182Q217 140 241 109Q265 78 301.5 61Q338 44 388 44Z" glyph-name="Obreve" horiz-adv-x="774" unicode="Ŏ" /><glyph d="M425 712Q429 667 418 635Q407 603 385 583Q363 563 334 554Q305 545 273 545Q242 545 212.5 554Q183 563 161 583Q139 603 127.5 635Q116 667 120 712L165 719Q165 696 173.5 681.5Q182 667 196.5 658.5Q211 650 231 647Q251 644 273 644Q296 644 315.5 647Q335 650 349.5 658.5Q364 667 372.5 681.5Q381 696 381 719ZM273 -10Q224 -10 180.5 8Q137 26 104 59Q71 92 52 139Q33 186 33 243Q33 300 52 347Q71 394 104 427.5Q137 461 180.5 479.5Q224 498 273 498Q321 498 364.5 479.5Q408 461 441 427.5Q474 394 493 347.5Q512 301 512 244Q512 187 493 140Q474 93 441 59.5Q408 26 364.5 8Q321 -10 273 -10ZM273 40Q318 40 343 70.5Q368 101 368 165V323Q368 386 343 417Q318 448 273 448Q228 448 202.5 417.5Q177 387 177 324V165Q177 101 202.5 70.5Q228 40 273 40Z" glyph-name="obreve" horiz-adv-x="545" unicode="ŏ" /><glyph d="M235 766 336 938L473 928V917L282 756ZM446 766 546 938L683 928V917L493 756ZM388 -10Q321 -10 258.5 13.5Q196 37 147.5 82.5Q99 128 69.5 194.5Q40 261 40 348Q40 434 69.5 501.5Q99 569 147.5 615.5Q196 662 258.5 686Q321 710 388 710Q454 710 516.5 686Q579 662 627.5 615.5Q676 569 705.5 501.5Q735 434 735 348Q735 261 705.5 194.5Q676 128 627.5 82.5Q579 37 516.5 13.5Q454 -10 388 -10ZM388 44Q438 44 474 61Q510 78 534 109Q558 140 569.5 182Q581 224 581 273V426Q581 476 569.5 518Q558 560 534 590.5Q510 621 474 638.5Q438 656 388 656Q338 656 301.5 638.5Q265 621 241 590.5Q217 560 205.5 518Q194 476 194 426V273Q194 224 205.5 182Q217 140 241 109Q265 78 301.5 61Q338 44 388 44Z" glyph-name="Ohungarumlaut" horiz-adv-x="774" unicode="Ő" /><glyph d="M120 554 221 726L358 716V705L167 544ZM331 554 431 726L568 716V705L378 544ZM273 -10Q224 -10 180.5 8Q137 26 104 59Q71 92 52 139Q33 186 33 243Q33 300 52 347Q71 394 104 427.5Q137 461 180.5 479.5Q224 498 273 498Q321 498 364.5 479.5Q408 461 441 427.5Q474 394 493 347.5Q512 301 512 244Q512 187 493 140Q474 93 441 59.5Q408 26 364.5 8Q321 -10 273 -10ZM273 40Q318 40 343 70.5Q368 101 368 165V323Q368 386 343 417Q318 448 273 448Q228 448 202.5 417.5Q177 387 177 324V165Q177 101 202.5 70.5Q228 40 273 40Z" glyph-name="ohungarumlaut" horiz-adv-x="545" unicode="ő" /><glyph d="M41 356Q41 440 68.5 504.5Q96 569 145 612.5Q194 656 260 678Q326 700 403 700H1009V520H955L903 642H671V378H792L817 473H870V222H817L792 321H671V58H922L1006 205H1060L1034 0H403Q326 0 260 22.5Q194 45 145 88.5Q96 132 68.5 196Q41 260 41 344ZM188 346Q188 262 205.5 206.5Q223 151 254.5 118Q286 85 330 71.5Q374 58 428 58H524V642H428Q374 642 330 628.5Q286 615 254.5 582Q223 549 205.5 493.5Q188 438 188 354Z" glyph-name="OE" horiz-adv-x="1081" unicode="Œ" /><glyph d="M817 55Q782 29 729.5 9.5Q677 -10 615 -10Q560 -10 517.5 7.5Q475 25 446 56Q413 24 369.5 7Q326 -10 278 -10Q228 -10 183.5 8Q139 26 105.5 59Q72 92 52.5 139Q33 186 33 243Q33 300 52.5 347Q72 394 105.5 427.5Q139 461 183.5 479.5Q228 498 278 498Q327 498 370.5 480Q414 462 448 429Q477 461 518.5 479.5Q560 498 616 498Q659 498 696 485.5Q733 473 760 448Q787 423 802 386Q817 349 817 299V258H524V237Q524 152 567 113.5Q610 75 679 75Q700 75 722 78.5Q744 82 762.5 87Q781 92 796 97.5Q811 103 819 106ZM685 314Q689 387 673 420Q657 453 615 453Q575 453 552 421.5Q529 390 526 305ZM278 40Q323 40 349 70.5Q375 101 375 165V323Q375 386 349 417Q323 448 278 448Q232 448 206 417.5Q180 387 180 324V165Q180 101 206 70.5Q232 40 278 40Z" glyph-name="oe" horiz-adv-x="856" unicode="œ" /><glyph d="M300 766 401 938L538 928V917L348 756ZM349 0 39 0V58H118V642H39V700H389Q451 700 499 685.5Q547 671 579.5 646Q612 621 629 588Q646 555 646 517Q646 483 633.5 453Q621 423 598.5 399Q576 375 546.5 357.5Q517 340 482 329L680 58H736V0H553L345 301Q320 301 297 303Q274 305 259 308V58H349ZM359 359Q380 359 404 364.5Q428 370 449 386Q470 402 484 429.5Q498 457 498 501Q498 575 453 608.5Q408 642 339 642H259V359Z" glyph-name="Racute" horiz-adv-x="727" unicode="Ŕ" /><glyph d="M151 554 252 726L389 716V705L199 544ZM32 51 89 51V437H28V488L221 498L218 380L252 426Q279 464 305 481Q331 498 354 498Q364 498 375 496Q386 494 395 492Q406 489 416 486L409 360Q400 363 375 369.5Q350 376 322 376Q300 376 274.5 362.5Q249 349 220 330V51H296V0H32Z" glyph-name="racute" horiz-adv-x="430" unicode="ŕ" /><glyph d="M349 0 39 0V58H118V642H39V700H389Q451 700 499 685.5Q547 671 579.5 646Q612 621 629 588Q646 555 646 517Q646 483 633.5 453Q621 423 598.5 399Q576 375 546.5 357.5Q517 340 482 329L680 58H736V0H553L345 301Q320 301 297 303Q274 305 259 308V58H349ZM359 359Q380 359 404 364.5Q428 370 449 386Q470 402 484 429.5Q498 457 498 501Q498 575 453 608.5Q408 642 339 642H259V359ZM297 -55 442 -55V-91L305 -265H248Z" glyph-name="Rcommaaccent" horiz-adv-x="727" unicode="Ŗ" /><glyph d="M32 51 89 51V437H28V488L221 498L218 380L252 426Q279 464 305 481Q331 498 354 498Q364 498 375 496Q386 494 395 492Q406 489 416 486L409 360Q400 363 375 369.5Q350 376 322 376Q300 376 274.5 362.5Q249 349 220 330V51H296V0H32ZM89 -55 234 -55V-91L97 -265H40Z" glyph-name="rcommaaccent" horiz-adv-x="430" unicode="ŗ" /><glyph d="M363 839 487 943L539 923L397 751H326L185 923L239 943ZM349 0 39 0V58H118V642H39V700H389Q451 700 499 685.5Q547 671 579.5 646Q612 621 629 588Q646 555 646 517Q646 483 633.5 453Q621 423 598.5 399Q576 375 546.5 357.5Q517 340 482 329L680 58H736V0H553L345 301Q320 301 297 303Q274 305 259 308V58H349ZM359 359Q380 359 404 364.5Q428 370 449 386Q470 402 484 429.5Q498 457 498 501Q498 575 453 608.5Q408 642 339 642H259V359Z" glyph-name="Rcaron" horiz-adv-x="727" unicode="Ř" /><glyph d="M215 627 339 731L391 711L249 539H178L37 711L91 731ZM32 51 89 51V437H28V488L221 498L218 380L252 426Q279 464 305 481Q331 498 354 498Q364 498 375 496Q386 494 395 492Q406 489 416 486L409 360Q400 363 375 369.5Q350 376 322 376Q300 376 274.5 362.5Q249 349 220 330V51H296V0H32Z" glyph-name="rcaron" horiz-adv-x="430" unicode="ř" /><glyph d="M226 766 327 938L464 928V917L274 756ZM277 -10Q209 -10 149 3.5Q89 17 52 31L46 215H99L149 72Q169 61 197.5 53.5Q226 46 256 46Q322 46 355.5 77Q389 108 389 152Q389 175 379 193Q369 211 352.5 226Q336 241 313.5 255Q291 269 267 282L196 322Q169 337 144.5 355Q120 373 102 395.5Q84 418 73 446Q62 474 62 509Q62 548 77.5 584.5Q93 621 124 649Q155 677 202 693.5Q249 710 312 710Q345 710 377.5 705.5Q410 701 437 696Q468 689 496 681L487 515H431L392 642Q386 644 368 650Q350 656 318 656Q266 656 230 629Q194 602 194 555Q194 517 220 490.5Q246 464 284 443L363 398Q393 381 422 362.5Q451 344 474 321Q497 298 511 268.5Q525 239 525 200Q525 151 504.5 112Q484 73 449.5 46Q415 19 370.5 4.5Q326 -10 277 -10Z" glyph-name="Sacute" horiz-adv-x="562" unicode="Ś" /><glyph d="M157 554 258 726L395 716V705L205 544ZM213 -10Q156 -10 116.5 -1Q77 8 46 19L41 160H88L129 55Q139 50 158 46Q177 42 202 42Q235 42 259 59.5Q283 77 283 109Q283 136 262.5 150.5Q242 165 206 184L150 213Q131 223 112 235.5Q93 248 79 264Q65 280 56 301Q47 322 47 349Q47 377 58 403.5Q69 430 92.5 451Q116 472 151.5 485Q187 498 235 498Q292 498 335 489.5Q378 481 392 476L384 356H335L306 439Q294 444 280 445.5Q266 447 252 447Q217 447 192 431.5Q167 416 167 385Q167 361 183 346Q199 331 224 318L291 284Q312 273 333.5 261Q355 249 371.5 233.5Q388 218 398.5 197.5Q409 177 409 149Q409 110 393.5 80.5Q378 51 351 31Q324 11 288.5 0.5Q253 -10 213 -10Z" glyph-name="sacute" horiz-adv-x="441" unicode="ś" /><glyph d="M112 771 253 943H324L466 771L414 751L290 855L166 751ZM277 -10Q209 -10 149 3.5Q89 17 52 31L46 215H99L149 72Q169 61 197.5 53.5Q226 46 256 46Q322 46 355.5 77Q389 108 389 152Q389 175 379 193Q369 211 352.5 226Q336 241 313.5 255Q291 269 267 282L196 322Q169 337 144.5 355Q120 373 102 395.5Q84 418 73 446Q62 474 62 509Q62 548 77.5 584.5Q93 621 124 649Q155 677 202 693.5Q249 710 312 710Q345 710 377.5 705.5Q410 701 437 696Q468 689 496 681L487 515H431L392 642Q386 644 368 650Q350 656 318 656Q266 656 230 629Q194 602 194 555Q194 517 220 490.5Q246 464 284 443L363 398Q393 381 422 362.5Q451 344 474 321Q497 298 511 268.5Q525 239 525 200Q525 151 504.5 112Q484 73 449.5 46Q415 19 370.5 4.5Q326 -10 277 -10Z" glyph-name="Scircumflex" horiz-adv-x="562" unicode="Ŝ" /><glyph d="M42 559 183 731H254L396 559L344 539L220 643L96 539ZM213 -10Q156 -10 116.5 -1Q77 8 46 19L41 160H88L129 55Q139 50 158 46Q177 42 202 42Q235 42 259 59.5Q283 77 283 109Q283 136 262.5 150.5Q242 165 206 184L150 213Q131 223 112 235.5Q93 248 79 264Q65 280 56 301Q47 322 47 349Q47 377 58 403.5Q69 430 92.5 451Q116 472 151.5 485Q187 498 235 498Q292 498 335 489.5Q378 481 392 476L384 356H335L306 439Q294 444 280 445.5Q266 447 252 447Q217 447 192 431.5Q167 416 167 385Q167 361 183 346Q199 331 224 318L291 284Q312 273 333.5 261Q355 249 371.5 233.5Q388 218 398.5 197.5Q409 177 409 149Q409 110 393.5 80.5Q378 51 351 31Q324 11 288.5 0.5Q253 -10 213 -10Z" glyph-name="scircumflex" horiz-adv-x="441" unicode="ŝ" /><glyph d="M404 -157Q404 -178 395 -197.5Q386 -217 368 -231.5Q350 -246 322.5 -255Q295 -264 257 -264Q215 -264 187 -254Q159 -244 151 -240L164 -196Q178 -202 195.5 -206Q213 -210 229 -210Q264 -210 281.5 -195.5Q299 -181 299 -160Q299 -129 268 -115Q237 -101 192 -96L247 -9Q187 -6 136 6Q85 18 52 31L46 215H99L149 72Q169 61 197.5 53.5Q226 46 256 46Q322 46 355.5 77Q389 108 389 152Q389 175 379 193Q369 211 352.5 226Q336 241 313.5 255Q291 269 267 282L196 322Q169 337 144.5 355Q120 373 102 395.5Q84 418 73 446Q62 474 62 509Q62 548 77.5 584.5Q93 621 124 649Q155 677 202 693.5Q249 710 312 710Q345 710 377.5 705.5Q410 701 437 696Q468 689 496 681L487 515H431L392 642Q386 644 368 650Q350 656 318 656Q266 656 230 629Q194 602 194 555Q194 517 220 490.5Q246 464 284 443L363 398Q393 381 422 362.5Q451 344 474 321Q497 298 511 268.5Q525 239 525 200Q525 153 506.5 115.5Q488 78 457 51.5Q426 25 385 9.5Q344 -6 299 -9L278 -59Q341 -61 372.5 -90.5Q404 -120 404 -157Z" glyph-name="Scedilla" horiz-adv-x="562" unicode="Ş" /><glyph d="M334 -157Q334 -178 325 -197.5Q316 -217 298 -231.5Q280 -246 252.5 -255Q225 -264 187 -264Q145 -264 117 -254Q89 -244 81 -240L94 -196Q108 -202 125.5 -206Q143 -210 159 -210Q194 -210 211.5 -195.5Q229 -181 229 -160Q229 -129 198 -115Q167 -101 122 -96L177 -9Q135 -6 103.5 1.5Q72 9 46 19L41 160H88L129 55Q139 50 158 46Q177 42 202 42Q235 42 259 59.5Q283 77 283 109Q283 136 262.5 150.5Q242 165 206 184L150 213Q131 223 112 235.5Q93 248 79 264Q65 280 56 301Q47 322 47 349Q47 377 58 403.5Q69 430 92.5 451Q116 472 151.5 485Q187 498 235 498Q292 498 335 489.5Q378 481 392 476L384 356H335L306 439Q294 444 280 445.5Q266 447 252 447Q217 447 192 431.5Q167 416 167 385Q167 361 183 346Q199 331 224 318L291 284Q312 273 333.5 261Q355 249 371.5 233.5Q388 218 398.5 197.5Q409 177 409 149Q409 112 395 83.5Q381 55 356.5 35Q332 15 299.5 3.5Q267 -8 229 -10L208 -59Q271 -61 302.5 -90.5Q334 -120 334 -157Z" glyph-name="scedilla" horiz-adv-x="441" unicode="ş" /><glyph d="M290 839 414 943L466 923L324 751H253L112 923L166 943ZM277 -10Q209 -10 149 3.5Q89 17 52 31L46 215H99L149 72Q169 61 197.5 53.5Q226 46 256 46Q322 46 355.5 77Q389 108 389 152Q389 175 379 193Q369 211 352.5 226Q336 241 313.5 255Q291 269 267 282L196 322Q169 337 144.5 355Q120 373 102 395.5Q84 418 73 446Q62 474 62 509Q62 548 77.5 584.5Q93 621 124 649Q155 677 202 693.5Q249 710 312 710Q345 710 377.5 705.5Q410 701 437 696Q468 689 496 681L487 515H431L392 642Q386 644 368 650Q350 656 318 656Q266 656 230 629Q194 602 194 555Q194 517 220 490.5Q246 464 284 443L363 398Q393 381 422 362.5Q451 344 474 321Q497 298 511 268.5Q525 239 525 200Q525 151 504.5 112Q484 73 449.5 46Q415 19 370.5 4.5Q326 -10 277 -10Z" glyph-name="Scaron" horiz-adv-x="562" unicode="Š" /><glyph d="M220 627 344 731L396 711L254 539H183L42 711L96 731ZM213 -10Q156 -10 116.5 -1Q77 8 46 19L41 160H88L129 55Q139 50 158 46Q177 42 202 42Q235 42 259 59.5Q283 77 283 109Q283 136 262.5 150.5Q242 165 206 184L150 213Q131 223 112 235.5Q93 248 79 264Q65 280 56 301Q47 322 47 349Q47 377 58 403.5Q69 430 92.5 451Q116 472 151.5 485Q187 498 235 498Q292 498 335 489.5Q378 481 392 476L384 356H335L306 439Q294 444 280 445.5Q266 447 252 447Q217 447 192 431.5Q167 416 167 385Q167 361 183 346Q199 331 224 318L291 284Q312 273 333.5 261Q355 249 371.5 233.5Q388 218 398.5 197.5Q409 177 409 149Q409 110 393.5 80.5Q378 51 351 31Q324 11 288.5 0.5Q253 -10 213 -10Z" glyph-name="scaron" horiz-adv-x="441" unicode="š" /><glyph d="M153 58 256 58V642L123 640L73 515H19V700H632V515H578L529 640L397 642V58H500V0H153ZM257 -55 402 -55V-91L265 -265H208Z" glyph-name="Tcommaaccent" horiz-adv-x="651" unicode="Ţ" /><glyph d="M206 -8Q168 -8 144 1.5Q120 11 106.5 26Q93 41 88 60.5Q83 80 83 100V437H11V474L84 502L98 644H214V488H347L337 437H214V129Q214 96 229.5 81.5Q245 67 274 67Q297 67 322.5 74Q348 81 356 86L355 32Q334 21 309 12Q287 4 261 -2Q235 -8 206 -8ZM116 -55 261 -55V-91L124 -265H67Z" glyph-name="tcommaaccent" horiz-adv-x="362" unicode="ţ" /><glyph d="M327 839 451 943L503 923L361 751H290L149 923L203 943ZM153 58 256 58V642L123 640L73 515H19V700H632V515H578L529 640L397 642V58H500V0H153Z" glyph-name="Tcaron" horiz-adv-x="651" unicode="Ť" /><glyph d="M323 807 467 807V784L335 563H280ZM206 -8Q168 -8 144 1.5Q120 11 106.5 26Q93 41 88 60.5Q83 80 83 100V437H11V474L84 502L98 644H214V488H347L337 437H214V129Q214 96 229.5 81.5Q245 67 274 67Q297 67 322.5 74Q348 81 356 86L355 32Q334 21 309 12Q287 4 261 -2Q235 -8 206 -8Z" glyph-name="tcaron" horiz-adv-x="362" unicode="ť" /><glyph d="M500 0 153 0V58H256V311H165V368H256V642L123 640L73 515H19V700H632V515H578L529 640L397 642V368H487V311H397V58H500Z" glyph-name="Tbar" horiz-adv-x="651" unicode="Ŧ" /><glyph d="M358 32Q337 21 313 12Q291 4 265 -2Q239 -8 210 -8Q172 -8 147.5 1.5Q123 11 109.5 26Q96 41 91 60.5Q86 80 86 100V274H15V324H86V437H15V474L87 502L102 644H217V488H351L341 437H217V324H340V274H217V129Q217 96 232.5 81.5Q248 67 278 67Q301 67 326.5 74Q352 81 360 86Z" glyph-name="tbar" horiz-adv-x="366" unicode="ŧ" /><glyph d="M319 803Q300 803 288.5 790.5Q277 778 272 762L235 774Q238 839 266 868Q294 897 329 897Q346 897 366.5 891.5Q387 886 408.5 880Q430 874 450 868.5Q470 863 485 863Q505 863 516 876Q527 889 532 905L570 892Q567 827 538.5 798Q510 769 475 769Q458 769 437 774.5Q416 780 394 786Q372 792 352.5 797.5Q333 803 319 803ZM398 -10Q314 -10 258 9.5Q202 29 168.5 61Q135 93 120.5 133.5Q106 174 106 216V642H32V700H347V642H247V227Q247 194 255 162.5Q263 131 283.5 107Q304 83 339.5 68.5Q375 54 430 54Q516 54 569.5 101.5Q623 149 622 237V642H523V700H763V642H684V229Q684 176 664 132Q644 88 607 56.5Q570 25 517 7.5Q464 -10 398 -10Z" glyph-name="Utilde" horiz-adv-x="788" unicode="Ũ" /><glyph d="M204 591Q185 591 173.5 578.5Q162 566 157 550L120 562Q123 627 151 656Q179 685 214 685Q231 685 251.5 679.5Q272 674 293.5 668Q315 662 335 656.5Q355 651 370 651Q390 651 401 664Q412 677 417 693L455 680Q452 615 423.5 586Q395 557 360 557Q343 557 322 562.5Q301 568 279 574Q257 580 237.5 585.5Q218 591 204 591ZM217 -10Q151 -10 116 25.5Q81 61 81 123V437H22V488H212V140Q212 113 227 97Q242 81 271 81Q292 81 317.5 92.5Q343 104 386 136V437H323V488H522Q521 428 520 372Q519 339 518.5 316Q518 293 517.5 270Q517 247 517 225Q517 203 517 185V51H574V0L385 -10L388 86Q372 68 353 51Q334 34 312.5 20.5Q291 7 267 -1.5Q243 -10 217 -10Z" glyph-name="utilde" horiz-adv-x="596" unicode="ũ" /><glyph d="M261 851 549 851V781H261ZM398 -10Q314 -10 258 9.5Q202 29 168.5 61Q135 93 120.5 133.5Q106 174 106 216V642H32V700H347V642H247V227Q247 194 255 162.5Q263 131 283.5 107Q304 83 339.5 68.5Q375 54 430 54Q516 54 569.5 101.5Q623 149 622 237V642H523V700H763V642H684V229Q684 176 664 132Q644 88 607 56.5Q570 25 517 7.5Q464 -10 398 -10Z" glyph-name="Umacron" horiz-adv-x="788" unicode="Ū" /><glyph d="M145 639 433 639V569H145ZM217 -10Q151 -10 116 25.5Q81 61 81 123V437H22V488H212V140Q212 113 227 97Q242 81 271 81Q292 81 317.5 92.5Q343 104 386 136V437H323V488H522Q521 428 520 372Q519 339 518.5 316Q518 293 517.5 270Q517 247 517 225Q517 203 517 185V51H574V0L385 -10L388 86Q372 68 353 51Q334 34 312.5 20.5Q291 7 267 -1.5Q243 -10 217 -10Z" glyph-name="umacron" horiz-adv-x="596" unicode="ū" /><glyph d="M558 924Q562 879 551 847Q540 815 518 795Q496 775 467 766Q438 757 406 757Q375 757 345.5 766Q316 775 294 795Q272 815 260.5 847Q249 879 253 924L298 931Q298 908 306.5 893.5Q315 879 329.5 870.5Q344 862 364 859Q384 856 406 856Q429 856 448.5 859Q468 862 482.5 870.5Q497 879 505.5 893.5Q514 908 514 931ZM398 -10Q314 -10 258 9.5Q202 29 168.5 61Q135 93 120.5 133.5Q106 174 106 216V642H32V700H347V642H247V227Q247 194 255 162.5Q263 131 283.5 107Q304 83 339.5 68.5Q375 54 430 54Q516 54 569.5 101.5Q623 149 622 237V642H523V700H763V642H684V229Q684 176 664 132Q644 88 607 56.5Q570 25 517 7.5Q464 -10 398 -10Z" glyph-name="Ubreve" horiz-adv-x="788" unicode="Ŭ" /><glyph d="M442 712Q446 667 435 635Q424 603 402 583Q380 563 351 554Q322 545 290 545Q259 545 229.5 554Q200 563 178 583Q156 603 144.5 635Q133 667 137 712L182 719Q182 696 190.5 681.5Q199 667 213.5 658.5Q228 650 248 647Q268 644 290 644Q313 644 332.5 647Q352 650 366.5 658.5Q381 667 389.5 681.5Q398 696 398 719ZM217 -10Q151 -10 116 25.5Q81 61 81 123V437H22V488H212V140Q212 113 227 97Q242 81 271 81Q292 81 317.5 92.5Q343 104 386 136V437H323V488H522Q521 428 520 372Q519 339 518.5 316Q518 293 517.5 270Q517 247 517 225Q517 203 517 185V51H574V0L385 -10L388 86Q372 68 353 51Q334 34 312.5 20.5Q291 7 267 -1.5Q243 -10 217 -10Z" glyph-name="ubreve" horiz-adv-x="596" unicode="ŭ" /><glyph d="M405 751Q379 751 355.5 760Q332 769 314.5 785.5Q297 802 287 824Q277 846 277 871Q277 897 287 918.5Q297 940 314.5 956Q332 972 355.5 981Q379 990 405 990Q431 990 454.5 981Q478 972 495.5 956Q513 940 523 918.5Q533 897 533 871Q533 846 523 824Q513 802 495.5 785.5Q478 769 454.5 760Q431 751 405 751ZM405 803Q437 803 453.5 823Q470 843 470 871Q470 899 453.5 919Q437 939 405 939Q373 939 356.5 919Q340 899 340 871Q340 843 356.5 823Q373 803 405 803ZM398 -10Q314 -10 258 9.5Q202 29 168.5 61Q135 93 120.5 133.5Q106 174 106 216V642H32V700H347V642H247V227Q247 194 255 162.5Q263 131 283.5 107Q304 83 339.5 68.5Q375 54 430 54Q516 54 569.5 101.5Q623 149 622 237V642H523V700H763V642H684V229Q684 176 664 132Q644 88 607 56.5Q570 25 517 7.5Q464 -10 398 -10Z" glyph-name="Uring" horiz-adv-x="788" unicode="Ů" /><glyph d="M289 539Q263 539 239.5 548Q216 557 198.5 573.5Q181 590 171 612Q161 634 161 659Q161 685 171 706.5Q181 728 198.5 744Q216 760 239.5 769Q263 778 289 778Q315 778 338.5 769Q362 760 379.5 744Q397 728 407 706.5Q417 685 417 659Q417 634 407 612Q397 590 379.5 573.5Q362 557 338.5 548Q315 539 289 539ZM289 591Q321 591 337.5 611Q354 631 354 659Q354 687 337.5 707Q321 727 289 727Q257 727 240.5 707Q224 687 224 659Q224 631 240.5 611Q257 591 289 591ZM217 -10Q151 -10 116 25.5Q81 61 81 123V437H22V488H212V140Q212 113 227 97Q242 81 271 81Q292 81 317.5 92.5Q343 104 386 136V437H323V488H522Q521 428 520 372Q519 339 518.5 316Q518 293 517.5 270Q517 247 517 225Q517 203 517 185V51H574V0L385 -10L388 86Q372 68 353 51Q334 34 312.5 20.5Q291 7 267 -1.5Q243 -10 217 -10Z" glyph-name="uring" horiz-adv-x="596" unicode="ů" /><glyph d="M253 766 354 938L491 928V917L300 756ZM464 766 564 938L701 928V917L511 756ZM398 -10Q314 -10 258 9.5Q202 29 168.5 61Q135 93 120.5 133.5Q106 174 106 216V642H32V700H347V642H247V227Q247 194 255 162.5Q263 131 283.5 107Q304 83 339.5 68.5Q375 54 430 54Q516 54 569.5 101.5Q623 149 622 237V642H523V700H763V642H684V229Q684 176 664 132Q644 88 607 56.5Q570 25 517 7.5Q464 -10 398 -10Z" glyph-name="Uhungarumlaut" horiz-adv-x="788" unicode="Ű" /><glyph d="M137 554 238 726L375 716V705L184 544ZM348 554 448 726L585 716V705L395 544ZM217 -10Q151 -10 116 25.5Q81 61 81 123V437H22V488H212V140Q212 113 227 97Q242 81 271 81Q292 81 317.5 92.5Q343 104 386 136V437H323V488H522Q521 428 520 372Q519 339 518.5 316Q518 293 517.5 270Q517 247 517 225Q517 203 517 185V51H574V0L385 -10L388 86Q372 68 353 51Q334 34 312.5 20.5Q291 7 267 -1.5Q243 -10 217 -10Z" glyph-name="uhungarumlaut" horiz-adv-x="596" unicode="ű" /><glyph d="M565 -183Q546 -191 520 -196.5Q494 -202 468 -202Q417 -202 394.5 -181.5Q372 -161 372 -130Q372 -113 380.5 -96Q389 -79 403.5 -62.5Q418 -46 436 -31.5Q454 -17 472 -4Q438 -10 398 -10Q314 -10 258 9.5Q202 29 168.5 61Q135 93 120.5 133.5Q106 174 106 216V642H32V700H347V642H247V227Q247 194 255 162.5Q263 131 283.5 107Q304 83 339.5 68.5Q375 54 430 54Q516 54 569.5 101.5Q623 149 622 237V642H523V700H763V642H684V229Q684 162 653 110Q622 58 565 28L566 27V22Q554 9 539.5 -7Q525 -23 512 -40.5Q499 -58 490.5 -75Q482 -92 482 -107Q482 -133 498.5 -141Q515 -149 539 -149Q546 -149 553.5 -148Q561 -147 569 -145Z" glyph-name="Uogonek" horiz-adv-x="791" unicode="Ų" /><glyph d="M562 -196Q543 -204 517 -209.5Q491 -215 465 -215Q414 -215 391.5 -194.5Q369 -174 369 -143Q369 -124 380 -105Q391 -86 408 -68Q425 -50 446 -34Q467 -18 487 -5L385 -10L388 86Q372 68 353 51Q334 34 312.5 20.5Q291 7 267 -1.5Q243 -10 217 -10Q151 -10 116 25.5Q81 61 81 123V437H22V488H212V140Q212 113 227 97Q242 81 271 81Q292 81 317.5 92.5Q343 104 386 136V437H323V488H522Q521 428 520 372Q519 339 518.5 316Q518 293 517.5 270Q517 247 517 225Q517 203 517 185V51H574V0L554 -1Q542 -14 529 -29Q516 -44 504.5 -60Q493 -76 486 -91.5Q479 -107 479 -120Q479 -146 495.5 -154Q512 -162 536 -162Q543 -162 550.5 -161Q558 -160 566 -158Z" glyph-name="uogonek" horiz-adv-x="596" unicode="ų" /><glyph d="M368 771 509 943H580L722 771L670 751L546 855L422 751ZM559 406 404 0H307L65 642H-2V700H300V642H220L401 146L530 485L472 642H405V700H728V642H626L803 148L983 642H879V700H1119V642H1048L807 0H709Z" glyph-name="Wcircumflex" horiz-adv-x="1114" unicode="Ŵ" /><glyph d="M242 559 383 731H454L596 559L544 539L420 643L296 539ZM502 488 628 126L719 437H650V488H833V437H783L640 0H541L421 354L305 0H205L55 437H7V488H264V437H196L293 125L409 488Z" glyph-name="wcircumflex" horiz-adv-x="840" unicode="ŵ" /><glyph d="M168 771 309 943H380L522 771L470 751L346 855L222 751ZM182 58 276 58V320L64 642H2V700H316V642H227L395 382L562 642H469V700H691V642H628L417 322V58H510V0H182Z" glyph-name="Ycircumflex" horiz-adv-x="693" unicode="Ŷ" /><glyph d="M97 559 238 731H309L451 559L399 539L275 643L151 539ZM52 -243 52 -191L175 -180L249 -12L60 437H8V488H191L323 143L431 437H347V488H551V437H497L209 -253Z" glyph-name="ycircumflex" horiz-adv-x="554" unicode="ŷ" /><glyph d="M193 909 313 909V778H193ZM380 909 500 909V778H380ZM182 58 276 58V320L64 642H2V700H316V642H227L395 382L562 642H469V700H691V642H628L417 322V58H510V0H182Z" glyph-name="Ydieresis" horiz-adv-x="693" unicode="Ÿ" /><glyph d="M265 766 366 938L503 928V917L313 756ZM26 48 444 642H159L108 509H55V700H608V653L188 58H513L586 190H637L618 0H26Z" glyph-name="Zacute" horiz-adv-x="660" unicode="Ź" /><glyph d="M184 554 285 726L422 716V705L232 544ZM26 41 304 437H138L99 320H49L47 488H451V440L181 51H365L430 177H476L461 0H26Z" glyph-name="zacute" horiz-adv-x="495" unicode="ź" /><glyph d="M258 921 398 921V784H258ZM26 48 444 642H159L108 509H55V700H608V653L188 58H513L586 190H637L618 0H26Z" glyph-name="Zdotaccent" horiz-adv-x="660" unicode="Ż" /><glyph d="M177 709 317 709V572H177ZM26 41 304 437H138L99 320H49L47 488H451V440L181 51H365L430 177H476L461 0H26Z" glyph-name="zdotaccent" horiz-adv-x="495" unicode="ż" /><glyph d="M329 839 453 943L505 923L363 751H292L151 923L205 943ZM26 48 444 642H159L108 509H55V700H608V653L188 58H513L586 190H637L618 0H26Z" glyph-name="Zcaron" horiz-adv-x="660" unicode="Ž" /><glyph d="M248 627 372 731L424 711L282 539H211L70 711L124 731ZM26 41 304 437H138L99 320H49L47 488H451V440L181 51H365L430 177H476L461 0H26Z" glyph-name="zcaron" horiz-adv-x="495" unicode="ž" /><glyph d="M31 51 89 51V437H31V488H89V579Q89 668 137.5 710.5Q186 753 275 753Q300 753 320.5 750.5Q341 748 356 746Q374 742 388 738L399 617L357 609L313 696Q308 697 303 697Q298 697 293 697Q251 697 235.5 673.5Q220 650 220 608V51H290V0H31Z" glyph-name="longs" horiz-adv-x="327" unicode="ſ" /><glyph d="M280 -65Q280 -154 232 -196.5Q184 -239 95 -239Q70 -239 49.5 -236.5Q29 -234 13 -232Q-5 -228 -19 -224L-30 -103L12 -95L56 -182Q61 -183 66.5 -183Q72 -183 76 -183Q118 -183 133.5 -159.5Q149 -136 149 -94V237H44V289H149V579Q149 668 197.5 710.5Q246 753 335 753Q360 753 380.5 750.5Q401 748 417 746Q435 742 449 738L460 617L418 609L374 696Q369 697 363.5 697Q358 697 354 697Q312 697 296 673.5Q280 650 280 608V289H407L398 237H280Z" glyph-name="florin" horiz-adv-x="471" unicode="ƒ" /><glyph d="M277 -10Q209 -10 149 3.5Q89 17 52 31L46 215H99L149 72Q169 61 197.5 53.5Q226 46 256 46Q322 46 355.5 77Q389 108 389 152Q389 175 379 193Q369 211 352.5 226Q336 241 313.5 255Q291 269 267 282L196 322Q169 337 144.5 355Q120 373 102 395.5Q84 418 73 446Q62 474 62 509Q62 548 77.5 584.5Q93 621 124 649Q155 677 202 693.5Q249 710 312 710Q345 710 377.5 705.5Q410 701 437 696Q468 689 496 681L487 515H431L392 642Q386 644 368 650Q350 656 318 656Q266 656 230 629Q194 602 194 555Q194 517 220 490.5Q246 464 284 443L363 398Q393 381 422 362.5Q451 344 474 321Q497 298 511 268.5Q525 239 525 200Q525 151 504.5 112Q484 73 449.5 46Q415 19 370.5 4.5Q326 -10 277 -10ZM224 -55 369 -55V-91L232 -265H175Z" glyph-name="Scommaaccent" horiz-adv-x="562" unicode="Ș" /><glyph d="M213 -10Q156 -10 116.5 -1Q77 8 46 19L41 160H88L129 55Q139 50 158 46Q177 42 202 42Q235 42 259 59.5Q283 77 283 109Q283 136 262.5 150.5Q242 165 206 184L150 213Q131 223 112 235.5Q93 248 79 264Q65 280 56 301Q47 322 47 349Q47 377 58 403.5Q69 430 92.5 451Q116 472 151.5 485Q187 498 235 498Q292 498 335 489.5Q378 481 392 476L384 356H335L306 439Q294 444 280 445.5Q266 447 252 447Q217 447 192 431.5Q167 416 167 385Q167 361 183 346Q199 331 224 318L291 284Q312 273 333.5 261Q355 249 371.5 233.5Q388 218 398.5 197.5Q409 177 409 149Q409 110 393.5 80.5Q378 51 351 31Q324 11 288.5 0.5Q253 -10 213 -10ZM154 -55 299 -55V-91L162 -265H105Z" glyph-name="scommaaccent" horiz-adv-x="441" unicode="ș" /><glyph d="M153 58 256 58V642L123 640L73 515H19V700H632V515H578L529 640L397 642V58H500V0H153ZM257 -55 402 -55V-91L265 -265H208Z" glyph-name="uni021A" horiz-adv-x="651" unicode="Ț" /><glyph d="M206 -8Q168 -8 144 1.5Q120 11 106.5 26Q93 41 88 60.5Q83 80 83 100V437H11V474L84 502L98 644H214V488H347L337 437H214V129Q214 96 229.5 81.5Q245 67 274 67Q297 67 322.5 74Q348 81 356 86L355 32Q334 21 309 12Q287 4 261 -2Q235 -8 206 -8ZM116 -55 261 -55V-91L124 -265H67Z" glyph-name="uni021B" horiz-adv-x="362" unicode="ț" /><glyph d="M13 -230 76 -158V437H25V488H207V-83Q207 -126 183.5 -162.5Q160 -199 98 -233L45 -263Z" glyph-name="dotlessj" horiz-adv-x="272" unicode="ȷ" /><glyph d="M97 700 247 700V677L104 389H49Z" glyph-name="apostrophe" horiz-adv-x="284" unicode="ʼ" /><glyph d="M48 559 189 731H260L402 559L350 539L226 643L102 539Z" glyph-name="circumflex" horiz-adv-x="450" unicode="ˆ" /><glyph d="M226 627 350 731L402 711L260 539H189L48 711L102 731Z" glyph-name="caron" horiz-adv-x="450" unicode="ˇ" /><glyph d="M346 712Q350 667 339 635Q328 603 306 583Q284 563 255 554Q226 545 194 545Q163 545 133.5 554Q104 563 82 583Q60 603 48.5 635Q37 667 41 712L86 719Q86 696 94.5 681.5Q103 667 117.5 658.5Q132 650 152 647Q172 644 194 644Q217 644 236.5 647Q256 650 270.5 658.5Q285 667 293.5 681.5Q302 696 302 719Z" glyph-name="breve" horiz-adv-x="387" unicode="˘" /><glyph d="M47 709 187 709V572H47Z" glyph-name="dotaccent" horiz-adv-x="235" unicode="˙" /><glyph d="M183 539Q157 539 133.5 548Q110 557 92.5 573.5Q75 590 65 612Q55 634 55 659Q55 685 65 706.5Q75 728 92.5 744Q110 760 133.5 769Q157 778 183 778Q209 778 232.5 769Q256 760 273.5 744Q291 728 301 706.5Q311 685 311 659Q311 634 301 612Q291 590 273.5 573.5Q256 557 232.5 548Q209 539 183 539ZM183 591Q215 591 231.5 611Q248 631 248 659Q248 687 231.5 707Q215 727 183 727Q151 727 134.5 707Q118 687 118 659Q118 631 134.5 611Q151 591 183 591Z" glyph-name="ring" horiz-adv-x="367" unicode="˚" /><glyph d="M255 -196Q236 -204 210 -209.5Q184 -215 158 -215Q107 -215 84.5 -194.5Q62 -174 62 -143Q62 -119 78 -96Q94 -73 117 -52Q140 -31 166.5 -13.5Q193 4 214 17L233 28L256 14V9Q244 -4 229.5 -20Q215 -36 202 -53.5Q189 -71 180.5 -88Q172 -105 172 -120Q172 -146 188.5 -154Q205 -162 229 -162Q236 -162 243.5 -161Q251 -160 259 -158Z" glyph-name="ogonek" horiz-adv-x="336" unicode="˛" /><glyph d="M130 591Q111 591 99.5 578.5Q88 566 83 550L46 562Q49 627 77 656Q105 685 140 685Q157 685 177.5 679.5Q198 674 219.5 668Q241 662 261 656.5Q281 651 296 651Q316 651 327 664Q338 677 343 693L381 680Q378 615 349.5 586Q321 557 286 557Q269 557 248 562.5Q227 568 205 574Q183 580 163.5 585.5Q144 591 130 591Z" glyph-name="tilde" horiz-adv-x="431" unicode="˜" /><glyph d="M131 554 232 726L369 716V705L178 544ZM342 554 442 726L579 716V705L389 544Z" glyph-name="hungarumlaut" horiz-adv-x="565" unicode="˝" /><glyph d="M504 -8Q466 -8 443 2.5Q420 13 407.5 29.5Q395 46 391 66Q387 86 387 106V437H231V51H295V0H31V51H100V437H35V488H639L629 437H518V129Q518 96 532 81.5Q546 67 572 67Q584 67 597 69Q610 71 621.5 74Q633 77 642 80.5Q651 84 655 86L654 32Q632 21 608 12Q585 4 559 -2Q533 -8 504 -8Z" glyph-name="pi" horiz-adv-x="681" unicode="π" /><glyph d="M372 917 373 928L510 938L610 766L563 756ZM559 406 404 0H307L65 642H-2V700H300V642H220L401 146L530 485L472 642H405V700H728V642H626L803 148L983 642H879V700H1119V642H1048L807 0H709Z" glyph-name="Wgrave" horiz-adv-x="1114" unicode="Ẁ" /><glyph d="M246 705 247 716L384 726L484 554L437 544ZM502 488 628 126L719 437H650V488H833V437H783L640 0H541L421 354L305 0H205L55 437H7V488H264V437H196L293 125L409 488Z" glyph-name="wgrave" horiz-adv-x="840" unicode="ẁ" /><glyph d="M482 766 583 938L720 928V917L530 756ZM559 406 404 0H307L65 642H-2V700H300V642H220L401 146L530 485L472 642H405V700H728V642H626L803 148L983 642H879V700H1119V642H1048L807 0H709Z" glyph-name="Wacute" horiz-adv-x="1114" unicode="Ẃ" /><glyph d="M356 554 457 726L594 716V705L404 544ZM502 488 628 126L719 437H650V488H833V437H783L640 0H541L421 354L305 0H205L55 437H7V488H264V437H196L293 125L409 488Z" glyph-name="wacute" horiz-adv-x="840" unicode="ẃ" /><glyph d="M393 909 513 909V778H393ZM580 909 700 909V778H580ZM559 406 404 0H307L65 642H-2V700H300V642H220L401 146L530 485L472 642H405V700H728V642H626L803 148L983 642H879V700H1119V642H1048L807 0H709Z" glyph-name="Wdieresis" horiz-adv-x="1114" unicode="Ẅ" /><glyph d="M267 697 387 697V566H267ZM454 697 574 697V566H454ZM502 488 628 126L719 437H650V488H833V437H783L640 0H541L421 354L305 0H205L55 437H7V488H264V437H196L293 125L409 488Z" glyph-name="wdieresis" horiz-adv-x="840" unicode="ẅ" /><glyph d="M173 917 174 928L311 938L411 766L364 756ZM182 58 276 58V320L64 642H2V700H316V642H227L395 382L562 642H469V700H691V642H628L417 322V58H510V0H182Z" glyph-name="Ygrave" horiz-adv-x="693" unicode="Ỳ" /><glyph d="M102 705 103 716L240 726L340 554L293 544ZM52 -243 52 -191L175 -180L249 -12L60 437H8V488H191L323 143L431 437H347V488H551V437H497L209 -253Z" glyph-name="ygrave" horiz-adv-x="554" unicode="ỳ" /><glyph d="M62 327 492 327V264H62Z" glyph-name="endash" horiz-adv-x="554" unicode="–" /><glyph d="M62 327 825 327V264H62Z" glyph-name="emdash" horiz-adv-x="887" unicode="—" /><glyph d="M179 409 29 409V432L173 700H227Z" glyph-name="quoteleft" horiz-adv-x="261" unicode="‘" /><glyph d="M89 700 239 700V677L96 409H42Z" glyph-name="quoteright" horiz-adv-x="250" unicode="’" /><glyph d="M68 164 217 164V141L74 -147H20Z" glyph-name="quotesinglbase" horiz-adv-x="261" unicode="‚" /><glyph d="M179 409 29 409V432L173 700H227ZM395 409 245 409V432L388 700H443Z" glyph-name="quotedblleft" horiz-adv-x="477" unicode="“" /><glyph d="M89 700 239 700V677L96 409H42ZM305 700 455 700V677L312 409H258Z" glyph-name="quotedblright" horiz-adv-x="466" unicode="”" /><glyph d="M68 164 218 164V141L75 -142H21ZM284 164 434 164V141L291 -142H237Z" glyph-name="quotedblbase" horiz-adv-x="478" unicode="„" /><glyph d="M183 424 37 424V488H183V700H256V488H403V424H256V92H183Z" glyph-name="dagger" horiz-adv-x="440" unicode="†" /><glyph d="M183 0 183 213H37V277H183V424H37V488H183V700H256V488H403V424H256V277H403V213H256V0Z" glyph-name="daggerdbl" horiz-adv-x="440" unicode="‡" /><glyph d="M202 201Q174 201 148.5 212Q123 223 104 242.5Q85 262 74 288Q63 314 63 343Q63 373 74 398.5Q85 424 104 443.5Q123 463 148.5 474Q174 485 202 485Q231 485 256 474Q281 463 300 443.5Q319 424 330 398.5Q341 373 341 343Q341 314 330 288Q319 262 300 242.5Q281 223 256 212Q231 201 202 201Z" glyph-name="bullet" horiz-adv-x="404" unicode="•" /><glyph d="M56 152 196 152V0H56ZM394 152 535 152V0H394ZM733 152 873 152V0H733Z" glyph-name="ellipsis" horiz-adv-x="929" unicode="…" /><glyph d="M199 336Q168 336 138 347.5Q108 359 84 382Q60 405 45 439.5Q30 474 30 520Q30 566 45 600.5Q60 635 84 658.5Q108 682 138 693.5Q168 705 199 705Q230 705 260.5 693.5Q291 682 315 658.5Q339 635 354 600.5Q369 566 369 520Q369 474 354 439.5Q339 405 315 382Q291 359 260.5 347.5Q230 336 199 336ZM646 700 709 700L170 0H104ZM199 379Q238 379 252 415Q266 451 266 520Q266 589 252 624.5Q238 660 199 660Q161 660 146.5 624.5Q132 589 132 520Q132 451 146.5 415Q161 379 199 379ZM611 -10Q580 -10 550 2Q520 14 496 37Q472 60 457 94.5Q442 129 442 175Q442 221 457 255.5Q472 290 496 313Q520 336 550 347.5Q580 359 611 359Q642 359 672.5 347.5Q703 336 727 313Q751 290 766 255.5Q781 221 781 175Q781 129 766 94.5Q751 60 727 37Q703 14 672.5 2Q642 -10 611 -10ZM997 -10Q966 -10 935.5 2Q905 14 881 37Q857 60 842 94.5Q827 129 827 175Q827 221 842 255.5Q857 290 881 313Q905 336 935.5 347.5Q966 359 997 359Q1027 359 1057.5 347.5Q1088 336 1112 313Q1136 290 1151 255.5Q1166 221 1166 175Q1166 129 1151 94.5Q1136 60 1112 37Q1088 14 1057.5 2Q1027 -10 997 -10ZM611 34Q649 34 663.5 70Q678 106 678 175Q678 244 663.5 279.5Q649 315 611 315Q573 315 558.5 279.5Q544 244 544 175Q544 106 558.5 70Q573 34 611 34ZM997 34Q1035 34 1049 70Q1063 106 1063 175Q1063 244 1049 279.5Q1035 315 997 315Q958 315 943.5 279.5Q929 244 929 175Q929 106 943.5 70Q958 34 997 34Z" glyph-name="perthousand" horiz-adv-x="1194" unicode="‰" /><glyph d="M30 242 30 246L198 488H273L173 244L273 0H198Z" glyph-name="guilsinglleft" horiz-adv-x="308" unicode="‹" /><glyph d="M135 244 35 488H111L280 246V242L111 0H35Z" glyph-name="guilsinglright" horiz-adv-x="311" unicode="›" /><glyph d="M-228 -1 402 729L432 704L-198 -26Z" glyph-name="fraction" horiz-adv-x="203" unicode="⁄" /><glyph d="M177 427Q145 427 118 441Q91 455 71 480.5Q51 506 39.5 541Q28 576 28 618V632Q28 674 39.5 709Q51 744 71 769.5Q91 795 118 809Q145 823 177 823Q209 823 236 809Q263 795 283 769.5Q303 744 314 709Q325 674 325 632V618Q325 576 314 541Q303 506 283 480.5Q263 455 236 441Q209 427 177 427ZM177 456Q197 456 208 466Q219 476 224.5 492.5Q230 509 231 530Q232 551 232 573V676Q232 698 231 719.5Q230 741 224.5 757.5Q219 774 208 784Q197 794 177 794Q157 794 146 784Q135 774 129.5 757.5Q124 741 123 719.5Q122 698 122 676V573Q122 551 123 530Q124 509 129.5 492.5Q135 476 146 466Q157 456 177 456Z" glyph-name="zerosuperior" horiz-adv-x="354" unicode="⁰" /><glyph d="M135 463 172 463V546H16V598L176 818H256V596H320V546H256V463H290V433H135ZM172 596 172 763L52 596Z" glyph-name="foursuperior" horiz-adv-x="337" unicode="⁴" /><glyph d="M124 427Q100 427 74.5 430Q49 433 29 438L31 523H60L86 460Q94 458 103 457Q112 456 120 456Q163 456 186 476Q209 496 209 531Q209 551 199.5 565Q190 579 174.5 588Q159 597 138 601Q117 605 94 605Q81 605 67.5 604Q54 603 40 600L49 818H279L266 745H75L72 678Q85 680 97.5 681Q110 682 123 682Q158 682 187.5 674.5Q217 667 238.5 652Q260 637 272.5 614.5Q285 592 285 562Q285 532 273 507Q261 482 239 464.5Q217 447 188 437Q159 427 124 427Z" glyph-name="fivesuperior" horiz-adv-x="310" unicode="⁵" /><glyph d="M168 425Q139 425 112.5 434.5Q86 444 66 462Q46 480 34.5 507Q23 534 23 568Q23 624 50 669.5Q77 715 115.5 749.5Q154 784 195 806Q236 828 264 836L289 827Q271 817 251 800Q231 783 211.5 761.5Q192 740 174.5 716.5Q157 693 145 669Q167 674 184 674Q207 674 230 667.5Q253 661 272 647Q291 633 302.5 610.5Q314 588 314 556Q314 532 304.5 508.5Q295 485 277 466.5Q259 448 231.5 436.5Q204 425 168 425ZM169 455Q198 455 211 482.5Q224 510 224 544Q224 588 205 615.5Q186 643 152 643Q145 643 133 640Q123 620 117.5 593.5Q112 567 112 541Q112 506 125 480.5Q138 455 169 455Z" glyph-name="sixsuperior" horiz-adv-x="333" unicode="⁶" /><glyph d="M64 433 235 742H67L57 690H23L21 818H293V787L118 433Z" glyph-name="sevensuperior" horiz-adv-x="302" unicode="⁷" /><glyph d="M163 427Q95 427 60.5 455Q26 483 26 524Q26 558 49 581Q72 604 112 618L94 629Q67 646 54.5 668.5Q42 691 42 716Q42 740 52 759.5Q62 779 80 793Q98 807 122 815Q146 823 173 823Q197 823 219.5 817.5Q242 812 259 801Q276 790 286 774Q296 758 296 736Q296 699 273.5 680.5Q251 662 222 651L236 643Q272 624 292 601Q312 578 312 541Q312 519 302 498.5Q292 478 273 462Q254 446 226 436.5Q198 427 163 427ZM201 662Q221 675 233.5 695Q246 715 246 736Q246 764 228 780Q210 796 183 796Q157 796 139 781Q121 766 121 740Q121 719 136 704.5Q151 690 177 675ZM160 454Q186 454 208.5 469Q231 484 231 516Q231 541 210 557Q189 573 152 593L136 601Q113 589 99 567.5Q85 546 85 521Q85 492 105 473Q125 454 160 454Z" glyph-name="eightsuperior" horiz-adv-x="339" unicode="⁸" /><glyph d="M165 824Q194 824 220.5 815Q247 806 267 788Q287 770 298.5 743.5Q310 717 310 682Q310 626 283 580Q256 534 217.5 499.5Q179 465 138 443Q97 421 69 413L44 422Q62 432 81.5 449.5Q101 467 120.5 488Q140 509 157.5 533Q175 557 188 581Q169 575 149 575Q126 575 103 581.5Q80 588 61 602.5Q42 617 30.5 639.5Q19 662 19 693Q19 717 28.5 740.5Q38 764 56 782.5Q74 801 101.5 812.5Q129 824 165 824ZM164 794Q135 794 122 767Q109 740 109 706Q109 661 127.5 633.5Q146 606 180 606Q189 606 199 609Q210 629 215.5 656Q221 683 221 709Q221 744 208 769Q195 794 164 794Z" glyph-name="ninesuperior" horiz-adv-x="333" unicode="⁹" /><glyph d="M177 -124Q145 -124 118 -110Q91 -96 71 -70.5Q51 -45 39.5 -10Q28 25 28 67V81Q28 123 39.5 158Q51 193 71 218.5Q91 244 118 258Q145 272 177 272Q209 272 236 258Q263 244 283 218.5Q303 193 314 158Q325 123 325 81V67Q325 25 314 -10Q303 -45 283 -70.5Q263 -96 236 -110Q209 -124 177 -124ZM177 -95Q197 -95 208 -85Q219 -75 224.5 -58.5Q230 -42 231 -21Q232 0 232 22V125Q232 147 231 168.5Q230 190 224.5 206.5Q219 223 208 233Q197 243 177 243Q157 243 146 233Q135 223 129.5 206.5Q124 190 123 168.5Q122 147 122 125V22Q122 0 123 -21Q124 -42 129.5 -58.5Q135 -75 146 -85Q157 -95 177 -95Z" glyph-name="zeroinferior" horiz-adv-x="354" unicode="₀" /><glyph d="M33 -83 96 -80V212L21 189V221L146 267H184V-80L246 -83V-118H33Z" glyph-name="oneinferior" horiz-adv-x="255" unicode="₁" /><glyph d="M285 -118 25 -118V-82L122 25Q160 67 173.5 97.5Q187 128 187 162Q187 197 171 217.5Q155 238 122 238Q112 238 104 237Q96 236 89 234L65 164H33L31 252Q48 258 68 263Q87 267 109 270Q131 273 156 273Q192 273 216 264.5Q240 256 254 242.5Q268 229 274 212Q280 195 280 177Q280 153 270.5 131.5Q261 110 245 90.5Q229 71 208 52.5Q187 34 165 14L104 -45H244L271 4H299Z" glyph-name="twoinferior" horiz-adv-x="323" unicode="₂" /><glyph d="M121 -124Q97 -124 71.5 -119Q46 -114 30 -109L26 -20H56L89 -93Q92 -93 98.5 -94Q105 -95 112 -95Q154 -95 175.5 -73.5Q197 -52 197 -14Q197 27 172.5 46.5Q148 66 117 66H110L98 97Q122 99 139.5 108Q157 117 167.5 129.5Q178 142 183 156.5Q188 171 188 183Q188 209 168.5 223.5Q149 238 120 238Q112 238 105.5 237Q99 236 91 234L72 179H41L37 255Q55 260 75 264Q93 267 114 269.5Q135 272 158 272Q177 272 197.5 267.5Q218 263 235.5 253.5Q253 244 264 228.5Q275 213 275 190Q275 171 265.5 156Q256 141 241.5 129Q227 117 208.5 108.5Q190 100 172 95Q222 92 254.5 66Q287 40 287 -2Q287 -24 277 -45.5Q267 -67 246.5 -84.5Q226 -102 194.5 -113Q163 -124 121 -124Z" glyph-name="threeinferior" horiz-adv-x="314" unicode="₃" /><glyph d="M135 -88 172 -88V-5H16V47L176 267H256V45H320V-5H256V-88H290V-118H135ZM172 45 172 212L52 45Z" glyph-name="fourinferior" horiz-adv-x="337" unicode="₄" /><glyph d="M124 -124Q100 -124 74.5 -121Q49 -118 29 -113L31 -28H60L86 -91Q94 -93 103 -94Q112 -95 120 -95Q163 -95 186 -75Q209 -55 209 -20Q209 0 199.5 14Q190 28 174.5 37Q159 46 138 50Q117 54 94 54Q81 54 67.5 53Q54 52 40 49L49 267H279L266 194H75L72 127Q85 129 97.5 130Q110 131 123 131Q158 131 187.5 123.5Q217 116 238.5 101Q260 86 272.5 63.5Q285 41 285 11Q285 -19 273 -44Q261 -69 239 -86.5Q217 -104 188 -114Q159 -124 124 -124Z" glyph-name="fiveinferior" horiz-adv-x="310" unicode="₅" /><glyph d="M168 -126Q139 -126 112.5 -116.5Q86 -107 66 -89Q46 -71 34.5 -44.5Q23 -18 23 17Q23 73 50 118.5Q77 164 115.5 198.5Q154 233 195 255Q236 277 264 285L289 276Q271 266 251 249Q231 232 211.5 210.5Q192 189 174.5 165.5Q157 142 145 118Q167 123 184 123Q207 123 230 116.5Q253 110 272 96Q291 82 302.5 59.5Q314 37 314 5Q314 -19 304.5 -42.5Q295 -66 277 -84.5Q259 -103 231.5 -114.5Q204 -126 168 -126ZM169 -96Q198 -96 211 -68.5Q224 -41 224 -7Q224 37 205 64.5Q186 92 152 92Q145 92 133 89Q123 69 117.5 42.5Q112 16 112 -10Q112 -45 125 -70.5Q138 -96 169 -96Z" glyph-name="sixinferior" horiz-adv-x="333" unicode="₆" /><glyph d="M64 -118 235 191H67L57 139H23L21 267H293V236L118 -118Z" glyph-name="seveninferior" horiz-adv-x="302" unicode="₇" /><glyph d="M163 -124Q95 -124 60.5 -96Q26 -68 26 -27Q26 7 49 30Q72 53 112 67L94 78Q67 95 54.5 117.5Q42 140 42 165Q42 189 52 208.5Q62 228 80 242Q98 256 122 264Q146 272 173 272Q197 272 219.5 266.5Q242 261 259 250Q276 239 286 223Q296 207 296 185Q296 148 273.5 129.5Q251 111 222 100L236 92Q272 73 292 50Q312 27 312 -10Q312 -32 302 -52.5Q292 -73 273 -89Q254 -105 226 -114.5Q198 -124 163 -124ZM201 111Q221 124 233.5 144Q246 164 246 185Q246 213 228 229Q210 245 183 245Q157 245 139 230Q121 215 121 189Q121 168 136 153.5Q151 139 177 124ZM160 -97Q186 -97 208.5 -82Q231 -67 231 -35Q231 -10 210 6Q189 22 152 42L136 50Q113 38 99 16.5Q85 -5 85 -30Q85 -59 105 -78Q125 -97 160 -97Z" glyph-name="eightinferior" horiz-adv-x="339" unicode="₈" /><glyph d="M165 273Q194 273 220.5 264Q247 255 267 237Q287 219 298.5 192.5Q310 166 310 131Q310 75 283 29Q256 -17 217.5 -51.5Q179 -86 138 -108Q97 -130 69 -138L44 -129Q62 -119 81.5 -101.5Q101 -84 120.5 -63Q140 -42 157.5 -18Q175 6 188 30Q169 24 149 24Q126 24 103 30.5Q80 37 61 51.5Q42 66 30.5 88.5Q19 111 19 142Q19 166 28.5 189.5Q38 213 56 231.5Q74 250 101.5 261.5Q129 273 165 273ZM164 243Q135 243 122 216Q109 189 109 155Q109 110 127.5 82.5Q146 55 180 55Q189 55 199 58Q210 78 215.5 105Q221 132 221 158Q221 193 208 218Q195 243 164 243Z" glyph-name="nineinferior" horiz-adv-x="333" unicode="₉" /><glyph d="M690 34Q659 22 621 12Q586 3 543 -3.5Q500 -10 448 -10Q381 -10 323.5 8Q266 26 221.5 59Q177 92 146.5 139.5Q116 187 102 245H32V302H92Q91 313 90.5 324.5Q90 336 90 348Q90 377 93 402H32V459H103Q119 522 152.5 569Q186 616 232.5 647.5Q279 679 335.5 694.5Q392 710 453 710Q482 710 514.5 707Q547 704 579.5 699.5Q612 695 642.5 689.5Q673 684 697 678L691 506H633L596 633Q567 641 533.5 646.5Q500 652 468 652Q429 652 394 641Q359 630 330 607Q301 584 280 547Q259 510 249 459H465V402H242Q241 394 241 385Q241 376 241 366Q241 332 244 302H465V245H254Q276 154 333 101.5Q390 49 483 49Q530 49 558.5 56.5Q587 64 592 65L657 205H715Z" glyph-name="Euro" horiz-adv-x="757" unicode="€" /><glyph d="M249 -10Q178 -10 136 26.5Q94 63 94 136V209Q83 201 73 194Q64 187 56 181.5Q48 176 45 174L17 221Q23 225 36 234Q49 243 62 252Q77 262 94 274V542Q94 625 140 669Q186 713 256 713Q286 713 311.5 703Q337 693 356 673.5Q375 654 386 627Q397 600 397 565Q397 517 382 476Q367 435 343.5 401Q320 367 291 340Q262 313 234 292V138Q234 103 252.5 88Q271 73 294 73Q317 73 334.5 86.5Q352 100 356 126L404 104Q398 73 381.5 51Q365 29 343.5 15.5Q322 2 297.5 -4Q273 -10 249 -10ZM234 362Q266 388 285.5 415Q305 442 316.5 468.5Q328 495 332 519.5Q336 544 336 565Q336 596 322.5 613.5Q309 631 285 631Q254 631 244 607Q234 583 234 554Z" glyph-name="uni2113" horiz-adv-x="458" unicode="ℓ" /><glyph d="M457 362 510 362V653H457V700H638L722 506L804 700H970V653H918V362H970V315H764V362H822V631L717 383H675L565 627V362H619V315H457ZM113 362 170 362V653H93L75 574H36V700H399V574H362L344 653H265V362H324V315H113Z" glyph-name="trademark" horiz-adv-x="1027" unicode="™" /><glyph d="M370 664Q324 664 289 645Q254 626 230.5 594.5Q207 563 195 521.5Q183 480 183 434Q183 391 194 355Q205 319 224 292Q243 265 268.5 247Q294 229 323 222V0H87V191H124L156 119H268V193Q218 204 175 225.5Q132 247 100 278.5Q68 310 50 351.5Q32 393 32 444Q32 502 57 551Q82 600 127 635.5Q172 671 234 691Q296 711 370 711Q444 711 506 691Q568 671 612.5 635.5Q657 600 682 551Q707 502 707 444Q707 393 688.5 351.5Q670 310 638.5 278.5Q607 247 564 225.5Q521 204 471 193V119H584L615 191H651V0H416V222Q445 229 470.5 247Q496 265 514.5 292Q533 319 544 355Q555 391 555 434Q555 480 543 521.5Q531 563 508 594.5Q485 626 450 645Q415 664 370 664Z" glyph-name="Omega" horiz-adv-x="739" unicode="Ω" /><glyph d="M747 120Q691 58 614 23.5Q537 -11 443 -11Q357 -11 284 17.5Q211 46 157.5 95.5Q104 145 74 211Q44 277 44 353Q44 427 73.5 492.5Q103 558 156 607Q209 656 282.5 684Q356 712 443 712Q536 712 609 684.5Q682 657 732.5 609.5Q783 562 811 497.5Q839 433 842 359V344H193V160Q193 128 217.5 102Q242 76 279.5 58Q317 40 360.5 30Q404 20 443 20Q518 20 584.5 45Q651 70 699 120ZM193 375 692 375V522Q692 566 670.5 596.5Q649 627 614 646Q579 665 534.5 673.5Q490 682 443 682Q398 682 353.5 673.5Q309 665 273.5 646Q238 627 215.5 596.5Q193 566 193 522Z" glyph-name="estimated" horiz-adv-x="871" unicode="℮" /><glyph d="M67 -1 697 729L727 704L97 -26ZM45 350 108 353V645L33 622V654L158 700H196V353L258 350V315H45ZM623 -6Q599 -6 573.5 -1Q548 4 532 9L528 98H558L591 25Q594 25 600.5 24Q607 23 614 23Q656 23 677.5 44.5Q699 66 699 104Q699 145 674.5 164.5Q650 184 619 184H612L600 215Q624 217 641.5 226Q659 235 669.5 247.5Q680 260 685 274.5Q690 289 690 301Q690 327 670.5 341.5Q651 356 622 356Q614 356 607.5 355Q601 354 593 352L574 297H543L539 373Q557 378 577 382Q595 385 616 387.5Q637 390 660 390Q679 390 699.5 385.5Q720 381 737.5 371.5Q755 362 766 346.5Q777 331 777 308Q777 289 767.5 274Q758 259 743.5 247Q729 235 710.5 226.5Q692 218 674 213Q724 210 756.5 184Q789 158 789 116Q789 94 779 72.5Q769 51 748.5 33.5Q728 16 696.5 5Q665 -6 623 -6Z" glyph-name="onethird" horiz-adv-x="820" unicode="⅓" /><glyph d="M111 -1 741 729L771 704L141 -26ZM295 315 35 315V351L132 458Q170 500 183.5 530.5Q197 561 197 595Q197 630 181 650.5Q165 671 132 671Q122 671 114 670Q106 669 99 667L75 597H43L41 685Q58 691 78 696Q97 700 119 703Q141 706 166 706Q202 706 226 697.5Q250 689 264 675.5Q278 662 284 645Q290 628 290 610Q290 586 280.5 564.5Q271 543 255 523.5Q239 504 218 485.5Q197 467 175 447L114 388H254L281 437H309ZM666 -6Q642 -6 616.5 -1Q591 4 575 9L571 98H601L634 25Q637 25 643.5 24Q650 23 657 23Q699 23 720.5 44.5Q742 66 742 104Q742 145 717.5 164.5Q693 184 662 184H655L643 215Q667 217 684.5 226Q702 235 712.5 247.5Q723 260 728 274.5Q733 289 733 301Q733 327 713.5 341.5Q694 356 665 356Q657 356 650.5 355Q644 354 636 352L617 297H586L582 373Q600 378 620 382Q638 385 659 387.5Q680 390 703 390Q722 390 742.5 385.5Q763 381 780.5 371.5Q798 362 809 346.5Q820 331 820 308Q820 289 810.5 274Q801 259 786.5 247Q772 235 753.5 226.5Q735 218 717 213Q767 210 799.5 184Q832 158 832 116Q832 94 822 72.5Q812 51 791.5 33.5Q771 16 739.5 5Q708 -6 666 -6Z" glyph-name="twothirds" horiz-adv-x="863" unicode="⅔" /><glyph d="M68 -1 698 729L728 704L98 -26ZM46 350 109 353V645L34 622V654L159 700H197V353L259 350V315H46ZM665 -6Q597 -6 562.5 22Q528 50 528 91Q528 125 551 148Q574 171 614 185L596 196Q569 213 556.5 235.5Q544 258 544 283Q544 307 554 326.5Q564 346 582 360Q600 374 624 382Q648 390 675 390Q699 390 721.5 384.5Q744 379 761 368Q778 357 788 341Q798 325 798 303Q798 266 775.5 247.5Q753 229 724 218L738 210Q774 191 794 168Q814 145 814 108Q814 86 804 65.5Q794 45 775 29Q756 13 728 3.5Q700 -6 665 -6ZM703 229Q723 242 735.5 262Q748 282 748 303Q748 331 730 347Q712 363 685 363Q659 363 641 348Q623 333 623 307Q623 286 638 271.5Q653 257 679 242ZM662 21Q688 21 710.5 36Q733 51 733 83Q733 108 712 124Q691 140 654 160L638 168Q615 156 601 134.5Q587 113 587 88Q587 59 607 40Q627 21 662 21Z" glyph-name="oneeighth" horiz-adv-x="845" unicode="⅛" /><glyph d="M102 -1 732 729L762 704L132 -26ZM131 309Q107 309 81.5 314Q56 319 40 324L36 413H66L99 340Q102 340 108.5 339Q115 338 122 338Q164 338 185.5 359.5Q207 381 207 419Q207 460 182.5 479.5Q158 499 127 499H120L108 530Q132 532 149.5 541Q167 550 177.5 562.5Q188 575 193 589.5Q198 604 198 616Q198 642 178.5 656.5Q159 671 130 671Q122 671 115.5 670Q109 669 101 667L82 612H51L47 688Q65 693 85 697Q103 700 124 702.5Q145 705 168 705Q187 705 207.5 700.5Q228 696 245.5 686.5Q263 677 274 661.5Q285 646 285 623Q285 604 275.5 589Q266 574 251.5 562Q237 550 218.5 541.5Q200 533 182 528Q232 525 264.5 499Q297 473 297 431Q297 409 287 387.5Q277 366 256.5 348.5Q236 331 204.5 320Q173 309 131 309ZM698 -6Q630 -6 595.5 22Q561 50 561 91Q561 125 584 148Q607 171 647 185L629 196Q602 213 589.5 235.5Q577 258 577 283Q577 307 587 326.5Q597 346 615 360Q633 374 657 382Q681 390 708 390Q732 390 754.5 384.5Q777 379 794 368Q811 357 821 341Q831 325 831 303Q831 266 808.5 247.5Q786 229 757 218L771 210Q807 191 827 168Q847 145 847 108Q847 86 837 65.5Q827 45 808 29Q789 13 761 3.5Q733 -6 698 -6ZM736 229Q756 242 768.5 262Q781 282 781 303Q781 331 763 347Q745 363 718 363Q692 363 674 348Q656 333 656 307Q656 286 671 271.5Q686 257 712 242ZM695 21Q721 21 743.5 36Q766 51 766 83Q766 108 745 124Q724 140 687 160L671 168Q648 156 634 134.5Q620 113 620 88Q620 59 640 40Q660 21 695 21Z" glyph-name="threeeighths" horiz-adv-x="878" unicode="⅜" /><glyph d="M98 -1 728 729L758 704L128 -26ZM134 309Q110 309 84.5 312Q59 315 39 320L41 405H70L96 342Q104 340 113 339Q122 338 130 338Q173 338 196 358Q219 378 219 413Q219 433 209.5 447Q200 461 184.5 470Q169 479 148 483Q127 487 104 487Q91 487 77.5 486Q64 485 50 482L59 700H289L276 627H85L82 560Q95 562 107.5 563Q120 564 133 564Q168 564 197.5 556.5Q227 549 248.5 534Q270 519 282.5 496.5Q295 474 295 444Q295 414 283 389Q271 364 249 346.5Q227 329 198 319Q169 309 134 309ZM695 -6Q627 -6 592.5 22Q558 50 558 91Q558 125 581 148Q604 171 644 185L626 196Q599 213 586.5 235.5Q574 258 574 283Q574 307 584 326.5Q594 346 612 360Q630 374 654 382Q678 390 705 390Q729 390 751.5 384.5Q774 379 791 368Q808 357 818 341Q828 325 828 303Q828 266 805.5 247.5Q783 229 754 218L768 210Q804 191 824 168Q844 145 844 108Q844 86 834 65.5Q824 45 805 29Q786 13 758 3.5Q730 -6 695 -6ZM733 229Q753 242 765.5 262Q778 282 778 303Q778 331 760 347Q742 363 715 363Q689 363 671 348Q653 333 653 307Q653 286 668 271.5Q683 257 709 242ZM692 21Q718 21 740.5 36Q763 51 763 83Q763 108 742 124Q721 140 684 160L668 168Q645 156 631 134.5Q617 113 617 88Q617 59 637 40Q657 21 692 21Z" glyph-name="fiveeighths" horiz-adv-x="875" unicode="⅝" /><glyph d="M55 -1 685 729L715 704L85 -26ZM75 315 246 624H78L68 572H34L32 700H304V669L129 315ZM652 -6Q584 -6 549.5 22Q515 50 515 91Q515 125 538 148Q561 171 601 185L583 196Q556 213 543.5 235.5Q531 258 531 283Q531 307 541 326.5Q551 346 569 360Q587 374 611 382Q635 390 662 390Q686 390 708.5 384.5Q731 379 748 368Q765 357 775 341Q785 325 785 303Q785 266 762.5 247.5Q740 229 711 218L725 210Q761 191 781 168Q801 145 801 108Q801 86 791 65.5Q781 45 762 29Q743 13 715 3.5Q687 -6 652 -6ZM690 229Q710 242 722.5 262Q735 282 735 303Q735 331 717 347Q699 363 672 363Q646 363 628 348Q610 333 610 307Q610 286 625 271.5Q640 257 666 242ZM649 21Q675 21 697.5 36Q720 51 720 83Q720 108 699 124Q678 140 641 160L625 168Q602 156 588 134.5Q574 113 574 88Q574 59 594 40Q614 21 649 21Z" glyph-name="seveneighths" horiz-adv-x="832" unicode="⅞" /><glyph d="M321 664 400 664L196 400L861 438L862 304L196 332L400 68H321L29 364V368Z" glyph-name="arrowleft" horiz-adv-x="900" unicode="←" /><glyph d="M325 775 621 482V403L357 608L385 -58H251L288 608L25 403V482L321 775Z" glyph-name="arrowup" horiz-adv-x="646" unicode="↑" /><glyph d="M872 364 579 68H500L705 332L39 304V438L705 400L500 664H579L872 368Z" glyph-name="arrowright" horiz-adv-x="901" unicode="→" /><glyph d="M26 235 26 313L289 109L252 775H386L358 109L622 313V235L326 -58H322Z" glyph-name="arrowdown" horiz-adv-x="647" unicode="↓" /><glyph d="M59 674 476 676L532 621L201 579L691 127L596 33L152 530L110 199L55 255L57 671Z" glyph-name="arrowupleft" horiz-adv-x="724" unicode="↖" /><glyph d="M669 255 614 199L572 530L128 33L33 127L523 579L192 621L248 676L664 674L667 671Z" glyph-name="arrowupright" horiz-adv-x="724" unicode="↗" /><glyph d="M665 43 249 41L193 96L524 138L34 589L129 684L573 187L615 518L670 462L668 45Z" glyph-name="arrowdownright" horiz-adv-x="725" unicode="↘" /><glyph d="M55 462 110 518L152 187L596 684L691 589L201 138L532 96L476 41L59 43L57 45Z" glyph-name="arrowdownleft" horiz-adv-x="725" unicode="↙" /><glyph d="M272 -10Q223 -10 179.5 7.5Q136 25 103.5 57Q71 89 52.5 135.5Q34 182 34 240Q34 302 51.5 350Q69 398 99 431Q129 464 170 481Q211 498 257 498Q289 498 317.5 490.5Q346 483 366 467Q352 493 324 531.5Q296 570 263.5 610.5Q231 651 198 689.5Q165 728 140 755L180 763Q193 755 223 735Q253 715 290 683.5Q327 652 366.5 609.5Q406 567 439 514.5Q472 462 493 400.5Q514 339 514 268Q514 203 495.5 151.5Q477 100 444 64Q411 28 367 9Q323 -10 272 -10ZM273 40Q318 40 343.5 70.5Q369 101 369 165V323Q369 386 343.5 417Q318 448 273 448Q228 448 203 417.5Q178 387 178 324V165Q178 101 203 70.5Q228 40 273 40Z" glyph-name="partialdiff" horiz-adv-x="548" unicode="∂" /><glyph d="M29 49 321 701H448L730 50V0H29ZM581 54 342 623L94 54Z" glyph-name="Delta" horiz-adv-x="760" unicode="∆" /><glyph d="M37 58 125 58V642H37V700H800V642H711V58H800V0H476V58H571V642H267V58H360V0H37Z" glyph-name="product" horiz-adv-x="837" unicode="∏" /><glyph d="M35 57 290 334L35 659V700H610L615 548H569L518 644L228 646L425 389L174 118H558L610 213H656L628 0H35Z" glyph-name="summation" horiz-adv-x="680" unicode="∑" /><glyph d="M47 373 436 373V302H47Z" glyph-name="minus" horiz-adv-x="483" unicode="−" /><glyph d="M193 289 370 -129L641 774H718L399 -229L278 -255L91 162L-1 113L-27 169Z" glyph-name="radical" horiz-adv-x="697" unicode="√" /><glyph d="M235 108Q188 108 152.5 130Q117 152 93.5 186.5Q70 221 58.5 264.5Q47 308 47 351Q47 404 62 450.5Q77 497 104.5 531.5Q132 566 172.5 586.5Q213 607 264 607Q302 607 333.5 593Q365 579 392 555.5Q419 532 442 500.5Q465 469 484 434Q492 467 508.5 497.5Q525 528 549.5 551.5Q574 575 605 589.5Q636 604 672 604Q720 604 755.5 582.5Q791 561 814.5 526.5Q838 492 849.5 448.5Q861 405 861 362Q861 309 846 262.5Q831 216 803.5 181Q776 146 735.5 125.5Q695 105 644 105Q607 105 575 118Q543 131 516 153.5Q489 176 466.5 206.5Q444 237 425 272Q416 239 399 209.5Q382 180 358 157.5Q334 135 303 121.5Q272 108 235 108ZM683 225Q714 225 737 237Q760 249 775.5 269Q791 289 798.5 314Q806 339 806 365Q806 395 797 421.5Q788 448 770.5 467.5Q753 487 727.5 498Q702 509 669 509Q635 509 608.5 498Q582 487 562 470Q542 453 527.5 433Q513 413 503 396Q523 358 542 326.5Q561 295 582 272.5Q603 250 627.5 237.5Q652 225 683 225ZM239 203Q273 203 299.5 213.5Q326 224 346 240Q366 256 380.5 275Q395 294 405 311Q386 349 366.5 381Q347 413 326 436.5Q305 460 280.5 473.5Q256 487 225 487Q194 487 171 475Q148 463 132.5 443Q117 423 109.5 397.5Q102 372 102 346Q102 316 111 290Q120 264 137.5 244.5Q155 225 180.5 214Q206 203 239 203Z" glyph-name="infinity" horiz-adv-x="908" unicode="∞" /><glyph d="M301 -65Q301 -154 253 -196.5Q205 -239 116 -239Q91 -239 70.5 -236.5Q50 -234 34 -232Q16 -228 2 -224L-9 -103L33 -95L77 -182Q82 -183 87.5 -183Q93 -183 97 -183Q139 -183 154.5 -159.5Q170 -136 170 -94V579Q170 668 218.5 710.5Q267 753 356 753Q381 753 401.5 750.5Q422 748 438 746Q456 742 470 738L481 617L439 609L395 696Q390 697 384.5 697Q379 697 375 697Q333 697 317 673.5Q301 650 301 608Z" glyph-name="integral" horiz-adv-x="471" unicode="∫" /><glyph d="M43 354Q43 426 68 457.5Q93 489 132 489Q150 489 181.5 481Q213 473 247 463.5Q281 454 311 446Q341 438 355 438Q374 438 383.5 449.5Q393 461 393 492H446Q446 420 418 388.5Q390 357 350 357Q334 357 301 365Q268 373 233.5 382.5Q199 392 169 400Q139 408 128 408Q109 408 100 396.5Q91 385 91 354ZM43 184Q43 256 68 287Q93 318 132 318Q150 318 181.5 310Q213 302 247 292.5Q281 283 311 275Q341 267 355 267Q374 267 383.5 279Q393 291 393 321H446Q446 249 418 218Q390 187 350 187Q334 187 301 195Q268 203 233.5 212Q199 221 169 229Q139 237 128 237Q109 237 100 226Q91 215 91 184Z" glyph-name="approxequal" horiz-adv-x="483" unicode="≈" /><glyph d="M278 214 278 140H205V214H47V285H205V391H47V462H205V537H278V462H436V391H278V285H436V214Z" glyph-name="notequal" horiz-adv-x="483" unicode="≠" /><glyph d="M62 305 62 370L413 511V445L135 338L413 229V164ZM62 64 413 64V0H62Z" glyph-name="lessequal" horiz-adv-x="483" unicode="≤" /><glyph d="M70 229 348 338L70 445V511L421 370V305L70 164ZM70 0 70 64H421V0Z" glyph-name="greaterequal" horiz-adv-x="483" unicode="≥" /><glyph d="M20 700 720 700V0H20Z" glyph-name="filledbox" horiz-adv-x="740" unicode="■" /><glyph d="M429 700 839 0H20Z" glyph-name="triagup" horiz-adv-x="860" unicode="▲" /><glyph d="M720 350 20 -60V760Z" glyph-name="uni25B6" horiz-adv-x="740" unicode="▶" /><glyph d="M839 700 429 0L20 700Z" glyph-name="triagdn" horiz-adv-x="860" unicode="▼" /><glyph d="M720 -60 20 350L720 760Z" glyph-name="uni25C0" horiz-adv-x="740" unicode="◀" /><glyph d="M27 231 269 700H346L589 231L346 -250H269ZM519 230 308 642L97 230L308 -191Z" glyph-name="lozenge" horiz-adv-x="616" unicode="◊" /><glyph d="M370 0Q297 0 233.5 27.5Q170 55 122.5 102.5Q75 150 47.5 214Q20 278 20 350Q20 422 47.5 486Q75 550 122.5 597.5Q170 645 233.5 672.5Q297 700 370 700Q442 700 506 672.5Q570 645 617.5 597.5Q665 550 692.5 486Q720 422 720 350Q720 278 692.5 214Q665 150 617.5 102.5Q570 55 506 27.5Q442 0 370 0Z" glyph-name="uni2B24" horiz-adv-x="740" unicode="⬤" /><glyph d="M541 417Q567 455 606 476.5Q645 498 696 498Q784 498 834 435.5Q884 373 884 253Q884 188 866.5 139Q849 90 818.5 57Q788 24 747.5 7Q707 -10 662 -10Q619 -10 581.5 2Q544 14 515 37L454 -12L410 -7V612Q410 658 387 677.5Q364 697 322 697Q276 697 247.5 672.5Q219 648 219 592V488H312L304 437H219V51H289V0H30V51H88V437H24V488H88V571Q88 618 105.5 652.5Q123 687 153 709.5Q183 732 222.5 742.5Q262 753 305 753Q354 753 394 741Q434 729 463 710L513 743L543 741ZM641 415Q596 415 568.5 390Q541 365 541 311V79Q550 76 569.5 67.5Q589 59 618 59Q643 59 665.5 66.5Q688 74 704.5 90.5Q721 107 730.5 135Q740 163 740 203V286Q740 346 714.5 380.5Q689 415 641 415Z" glyph-name="f_b" horiz-adv-x="920" unicode="" /><glyph d="M69 -55 214 -55V-91L77 -265H20Z" glyph-name="commaaccent" horiz-adv-x="271" unicode="" /><glyph d="M380 695Q372 684 366 674Q360 664 356 651Q326 661 300 661Q258 661 238.5 637Q219 613 219 577V488H410V579Q410 669 458 711Q506 753 595 753Q620 753 640.5 750.5Q661 748 677 746Q695 742 709 738L720 617L678 609L634 696Q629 697 623.5 697Q618 697 614 697Q572 697 556.5 673.5Q541 650 541 608V488H648L638 437H541V51H611V0H351V51H410V437H219V51H289V0H30V51H88V437H24V488H88V556Q88 598 101.5 629.5Q115 661 138.5 681Q162 701 193 711Q224 721 259 721Q288 721 319 715Q350 709 380 695Z" glyph-name="f_f" horiz-adv-x="668" unicode="ﬀ" /><glyph d="M30 51 88 51V437H24V488H88V569Q88 622 105 658.5Q122 695 152.5 717Q183 739 224 748.5Q265 758 313 758Q355 758 397.5 752.5Q440 747 472 738L468 607L406 600L379 692Q369 694 358.5 694.5Q348 695 340 695Q286 695 252.5 669.5Q219 644 219 574V488H541V51H605V0H345V51H410V437H219V51H294V0H30Z" glyph-name="fi" horiz-adv-x="623" unicode="ﬁ" /><glyph d="M30 51 88 51V437H24V488H88V571Q88 618 105.5 652.5Q123 687 153 709.5Q183 732 222.5 742.5Q262 753 305 753Q354 753 394 741Q434 729 463 710L513 743L541 741V51H608V0H343V51H410V612Q410 658 387 677.5Q364 697 322 697Q276 697 247.5 672.5Q219 648 219 592V488H312L304 437H219V51H289V0H30Z" glyph-name="fl" horiz-adv-x="625" unicode="ﬂ" /><glyph d="M219 437 219 51H289V0H30V51H88V437H24V488H88V556Q88 598 101.5 629.5Q115 661 138.5 681Q162 701 193 711Q224 721 259 721Q288 721 319 715Q350 709 380 695Q372 684 366 674Q360 664 356 651Q326 661 300 661Q258 661 238.5 637Q219 613 219 577V488H410V569Q410 622 427 658.5Q444 695 474 717Q504 739 545 748.5Q586 758 634 758Q676 758 719 752.5Q762 747 794 738L789 607L727 600L701 692Q680 695 661 695Q607 695 574 669.5Q541 644 541 574V488H862V51H926V0H667V51H731V437H541V51H611V0H351V51H410V437Z" glyph-name="f_f_i" horiz-adv-x="944" unicode="ﬃ" /><glyph d="M400 51 400 437H219V51H289V0H30V51H88V437H24V488H88V556Q88 598 101.5 629.5Q115 661 138.5 681Q162 701 193 711Q224 721 259 721Q288 721 319 715Q350 709 380 695Q372 684 366 674Q360 664 356 651Q326 661 300 661Q258 661 238.5 637Q219 613 219 577V488H400V571Q400 618 417.5 652.5Q435 687 465 709.5Q495 732 534.5 742.5Q574 753 617 753Q666 753 706 741Q746 729 775 710L825 743L852 741V51H920V0H655V51H721V612Q721 658 698.5 677.5Q676 697 634 697Q588 697 559.5 672.5Q531 648 531 592V488H624L616 437H531V51H601V0H342V51Z" glyph-name="f_f_l" horiz-adv-x="937" unicode="ﬄ" /><glyph d="M409 149Q409 110 393.5 80.5Q378 51 351 31Q324 11 288.5 0.5Q253 -10 213 -10Q155 -10 116 -1Q77 8 45 19L41 160H87L129 55Q139 50 157 46Q175 42 200 42Q233 42 258 59.5Q283 77 283 109Q283 136 263 151Q243 166 206 184L150 213Q130 223 111.5 235Q93 247 78.5 263.5Q64 280 55.5 301Q47 322 47 349Q47 375 56.5 399.5Q66 424 85.5 444Q105 464 134.5 478Q164 492 204 496Q181 516 169.5 541.5Q158 567 158 590Q158 611 165.5 630.5Q173 650 188.5 665.5Q204 681 227 690Q250 699 280 699H647V488H780L770 437H647V129Q647 96 662.5 81.5Q678 67 707 67Q730 67 755.5 74Q781 81 789 86L788 32Q767 21 742 12Q720 4 694 -2Q668 -8 639 -8Q601 -8 577 1.5Q553 11 539.5 26Q526 41 521 60.5Q516 80 516 100V437H445V474L516 502V633H298Q264 633 245.5 613.5Q227 594 227 564Q227 550 232.5 532.5Q238 515 249 498Q302 496 340 488.5Q378 481 391 476L383 356H335L306 439Q293 444 279 445.5Q265 447 251 447Q216 447 191.5 431.5Q167 416 167 385Q167 361 182.5 346Q198 331 224 318L291 284Q312 274 333 262Q354 250 371 234Q388 218 398.5 197.5Q409 177 409 149Z" glyph-name="s_t" horiz-adv-x="795" unicode="ﬆ" /><glyph d="M93 700 237 700V677L105 456H50Z" glyph-name="apostrophemod" horiz-adv-x="276" unicode="" /><glyph d="M94 904 162 904V-87H94Z" glyph-name="bar.case" horiz-adv-x="256" unicode="" /><glyph d="M242 509Q242 436 203.5 402Q165 368 101 360Q165 352 203.5 318Q242 284 242 211V-10Q242 -29 247 -40.5Q252 -52 260.5 -58Q269 -64 280 -65.5Q291 -67 303 -67H344V-124H224Q161 -124 131 -95Q101 -66 101 -15V274Q101 301 88.5 318Q76 335 42 335H6V385H42Q76 385 88.5 401.5Q101 418 101 445V735Q101 786 131 815.5Q161 845 224 845H344V787H303Q291 787 280 785.5Q269 784 260.5 778Q252 772 247 760.5Q242 749 242 730Z" glyph-name="braceleft.case" horiz-adv-x="361" unicode="" /><glyph d="M123 730Q123 749 118 760.5Q113 772 105 778Q97 784 85.5 785.5Q74 787 62 787H21V845H141Q204 845 234 815.5Q264 786 264 735V445Q264 418 276.5 401.5Q289 385 323 385H359V335H323Q289 335 276.5 318Q264 301 264 274V-15Q264 -66 234 -95Q204 -124 141 -124H21V-67H62Q74 -67 85.5 -65.5Q97 -64 105 -58Q113 -52 118 -40.5Q123 -29 123 -10V211Q123 284 161.5 318Q200 352 264 360Q200 368 161.5 402Q123 436 123 509Z" glyph-name="braceright.case" horiz-adv-x="361" unicode="" /><glyph d="M92 845 362 845V787H233V-66H362V-123H92Z" glyph-name="bracketleft.case" horiz-adv-x="372" unicode="" /><glyph d="M11 -123 11 -66H140V787H11V845H281V-123Z" glyph-name="bracketright.case" horiz-adv-x="372" unicode="" /><glyph d="M454 27Q414 7 369 -1.5Q324 -10 269 -10Q208 -10 163.5 9.5Q119 29 90.5 62.5Q62 96 48 141Q34 186 34 238Q34 295 49.5 341.5Q65 388 95 421.5Q125 455 168.5 475Q212 495 268 498Q246 517 235 542Q224 567 224 590Q224 611 231.5 630.5Q239 650 254.5 665.5Q270 681 293 690Q316 699 346 699H713V488H846L836 437H713V129Q713 96 728.5 81.5Q744 67 773 67Q796 67 821.5 74Q847 81 855 86L854 32Q833 21 808 12Q786 4 760 -2Q734 -8 705 -8Q667 -8 643 1.5Q619 11 605.5 26Q592 41 587 60.5Q582 80 582 100V437H510V474L582 502V633H364Q329 633 311 613.5Q293 594 293 564Q293 550 298.5 532Q304 514 316 497Q337 495 358 491.5Q379 488 397 484.5Q415 481 428 478Q441 475 445 474L443 347H390L353 437Q328 443 304 443Q241 443 207.5 394.5Q174 346 174 252V236Q174 188 185.5 152.5Q197 117 217 94.5Q237 72 263.5 61Q290 50 321 50Q344 50 368 56L413 154H463Z" glyph-name="c_t" horiz-adv-x="861" unicode="" /><glyph d="M163 -6Q95 -6 60.5 22Q26 50 26 91Q26 125 49 148Q72 171 112 185L94 196Q67 213 54.5 235.5Q42 258 42 283Q42 307 52 326.5Q62 346 80 360Q98 374 122 382Q146 390 173 390Q197 390 219.5 384.5Q242 379 259 368Q276 357 286 341Q296 325 296 303Q296 266 273.5 247.5Q251 229 222 218L236 210Q272 191 292 168Q312 145 312 108Q312 86 302 65.5Q292 45 273 29Q254 13 226 3.5Q198 -6 163 -6ZM201 229Q221 242 233.5 262Q246 282 246 303Q246 331 228 347Q210 363 183 363Q157 363 139 348Q121 333 121 307Q121 286 136 271.5Q151 257 177 242ZM160 21Q186 21 208.5 36Q231 51 231 83Q231 108 210 124Q189 140 152 160L136 168Q113 156 99 134.5Q85 113 85 88Q85 59 105 40Q125 21 160 21Z" glyph-name="eight.denominator" horiz-adv-x="339" unicode="" /><glyph d="M163 309Q95 309 60.5 337Q26 365 26 406Q26 440 49 463Q72 486 112 500L94 511Q67 528 54.5 550.5Q42 573 42 598Q42 622 52 641.5Q62 661 80 675Q98 689 122 697Q146 705 173 705Q197 705 219.5 699.5Q242 694 259 683Q276 672 286 656Q296 640 296 618Q296 581 273.5 562.5Q251 544 222 533L236 525Q272 506 292 483Q312 460 312 423Q312 401 302 380.5Q292 360 273 344Q254 328 226 318.5Q198 309 163 309ZM201 544Q221 557 233.5 577Q246 597 246 618Q246 646 228 662Q210 678 183 678Q157 678 139 663Q121 648 121 622Q121 601 136 586.5Q151 572 177 557ZM160 336Q186 336 208.5 351Q231 366 231 398Q231 423 210 439Q189 455 152 475L136 483Q113 471 99 449.5Q85 428 85 403Q85 374 105 355Q125 336 160 336Z" glyph-name="eight.numerator" horiz-adv-x="339" unicode="" /><glyph d="M269 -10Q212 -10 169 4Q126 18 97 41.5Q68 65 53 97Q38 129 38 165Q38 228 77 269.5Q116 311 183 335L157 352Q107 381 83.5 422Q60 463 60 507Q60 549 77 584Q94 619 124.5 644Q155 669 197 682.5Q239 696 288 696Q328 696 364.5 686Q401 676 428.5 656.5Q456 637 472.5 608Q489 579 489 542Q489 509 477 484Q465 459 446 440.5Q427 422 404 409Q381 396 358 386L383 372Q447 339 482 297Q517 255 517 190Q517 150 499.5 113.5Q482 77 450 49.5Q418 22 372 6Q326 -10 269 -10ZM324 406Q359 428 384 465Q409 502 409 543Q409 591 378.5 621Q348 651 296 651Q246 651 214.5 622Q183 593 183 547Q183 508 208.5 481Q234 454 280 429ZM267 37Q291 37 314 44Q337 51 355 65.5Q373 80 384.5 101.5Q396 123 396 152Q396 199 357.5 230Q319 261 254 294L222 310Q180 286 154.5 249Q129 212 129 163Q129 108 167 72.5Q205 37 267 37Z" glyph-name="eight.posf" horiz-adv-x="554" unicode="" /><glyph d="M265 -10Q208 -10 164 4Q120 18 90 42Q60 66 45 98.5Q30 131 30 168Q30 233 70 275.5Q110 318 179 342L153 359Q102 389 77.5 430.5Q53 472 53 518Q53 561 70.5 596.5Q88 632 119 657Q150 682 192.5 696Q235 710 285 710Q326 710 363 699.5Q400 689 428 669Q456 649 473 619.5Q490 590 490 552Q490 518 477.5 493Q465 468 445.5 449Q426 430 402.5 417Q379 404 356 394L382 380Q447 346 482.5 303Q518 260 518 194Q518 153 500.5 116Q483 79 450 51Q417 23 370.5 6.5Q324 -10 265 -10ZM321 413Q357 436 382.5 473.5Q408 511 408 553Q408 603 377 633Q346 663 293 663Q242 663 210 634Q178 605 178 557Q178 518 203.5 490Q229 462 276 437ZM264 38Q288 38 311.5 45Q335 52 353.5 66.5Q372 81 383.5 103Q395 125 395 155Q395 204 355.5 235.5Q316 267 250 300L218 317Q176 292 149.5 254.5Q123 217 123 167Q123 110 162 74Q201 38 264 38Z" glyph-name="eight.tnum" horiz-adv-x="548" unicode="" /><glyph d="M121 -1 751 729L781 704L151 -26ZM170 309Q102 309 67.5 337Q33 365 33 406Q33 440 56 463Q79 486 119 500L101 511Q74 528 61.5 550.5Q49 573 49 598Q49 622 59 641.5Q69 661 87 675Q105 689 129 697Q153 705 180 705Q204 705 226.5 699.5Q249 694 266 683Q283 672 293 656Q303 640 303 618Q303 581 280.5 562.5Q258 544 229 533L243 525Q279 506 299 483Q319 460 319 423Q319 401 309 380.5Q299 360 280 344Q261 328 233 318.5Q205 309 170 309ZM208 544Q228 557 240.5 577Q253 597 253 618Q253 646 235 662Q217 678 190 678Q164 678 146 663Q128 648 128 622Q128 601 143 586.5Q158 572 184 557ZM167 336Q193 336 215.5 351Q238 366 238 398Q238 423 217 439Q196 455 159 475L143 483Q120 471 106 449.5Q92 428 92 403Q92 374 112 355Q132 336 167 336ZM726 391Q755 391 781.5 382Q808 373 828 355Q848 337 859.5 310.5Q871 284 871 249Q871 193 844 147Q817 101 778.5 66.5Q740 32 699 10Q658 -12 630 -20L605 -11Q623 -1 642.5 16.5Q662 34 681.5 55Q701 76 718.5 100Q736 124 749 148Q730 142 710 142Q687 142 664 148.5Q641 155 622 169.5Q603 184 591.5 206.5Q580 229 580 260Q580 284 589.5 307.5Q599 331 617 349.5Q635 368 662.5 379.5Q690 391 726 391ZM725 361Q696 361 683 334Q670 307 670 273Q670 228 688.5 200.5Q707 173 741 173Q750 173 760 176Q771 196 776.5 223Q782 250 782 276Q782 311 769 336Q756 361 725 361Z" glyph-name="eightninths" horiz-adv-x="899" unicode="" /><glyph d="M67 397 830 397V334H67Z" glyph-name="emdash.case" horiz-adv-x="897" unicode="" /><glyph d="M67 397 497 397V334H67Z" glyph-name="endash.case" horiz-adv-x="564" unicode="" /><glyph d="M84 700 224 700V543H84ZM129 470 179 470L221 260L228 -5H80L87 260Z" glyph-name="exclamdown.case" horiz-adv-x="308" unicode="" /><glyph d="M88 556Q88 598 101.5 629.5Q115 661 138.5 681Q162 701 193 711Q224 721 259 721Q288 721 319 715Q350 709 380 695Q372 684 366 674Q360 664 356 651Q326 661 300 661Q258 661 238.5 637Q219 613 219 577V488H410V571Q410 618 427.5 652.5Q445 687 475 709.5Q505 732 544 742.5Q583 753 626 753Q675 753 715 741Q755 729 784 710L835 743L864 741L862 417Q888 455 927 476.5Q966 498 1018 498Q1105 498 1155.5 435.5Q1206 373 1206 253Q1206 188 1188 139Q1170 90 1139.5 57Q1109 24 1068.5 7Q1028 -10 983 -10Q940 -10 902.5 2Q865 14 837 37L776 -12L731 -7V612Q731 658 708 677.5Q685 697 643 697Q597 697 569 672.5Q541 648 541 592V488H633L625 437H541V51H611V0H351V51H410V437H219V51H289V0H30V51H88V437H24V488H88ZM962 415Q917 415 889.5 390Q862 365 862 311V79Q872 76 891 67.5Q910 59 939 59Q964 59 986.5 66.5Q1009 74 1025.5 90.5Q1042 107 1051.5 135Q1061 163 1061 203V286Q1061 346 1035.5 380.5Q1010 415 962 415Z" glyph-name="f_f_b" horiz-adv-x="1241" unicode="" /><glyph d="M615 0 351 0V51H410V437H219V51H289V0H30V51H88V437H24V488H88V556Q88 598 101.5 629.5Q115 661 138.5 681Q162 701 193 711Q224 721 259 721Q288 721 319 715Q350 709 380 695Q372 684 366 674Q360 664 356 651Q326 661 300 661Q258 661 238.5 637Q219 613 219 577V488H410V571Q410 618 427.5 652.5Q445 687 475 709.5Q505 732 544 742.5Q583 753 626 753Q675 753 715 741Q755 729 784 710L835 743L867 741Q866 728 865.5 699Q865 670 864 633.5Q863 597 862.5 557.5Q862 518 861.5 483.5Q861 449 861 424.5Q861 400 861 394Q881 414 903 432.5Q925 451 948.5 465.5Q972 480 996.5 489Q1021 498 1046 498Q1109 498 1144 463.5Q1179 429 1179 357V51H1235V0H992V51H1048V334Q1048 366 1033.5 385.5Q1019 405 987 405Q965 405 936 392.5Q907 380 862 348V51H928V0H675V51H731V612Q731 658 708 677.5Q685 697 643 697Q597 697 569 672.5Q541 648 541 592V488H633L625 437H541V51H615Z" glyph-name="f_f_h" horiz-adv-x="1256" unicode="" /><glyph d="M219 437 219 51H289V0H30V51H88V437H24V488H88V556Q88 598 101.5 629.5Q115 661 138.5 681Q162 701 193 711Q224 721 259 721Q288 721 319 715Q350 709 380 695Q372 684 366 674Q360 664 356 651Q326 661 300 661Q258 661 238.5 637Q219 613 219 577V488H410V569Q410 622 427 658.5Q444 695 474 717Q504 739 545 748.5Q586 758 634 758Q676 758 719 752.5Q762 747 794 738L789 607L727 600L701 692Q680 695 661 695Q607 695 574 669.5Q541 644 541 574V488H852V-83Q852 -126 831 -162.5Q810 -199 748 -233L695 -263L663 -230L721 -162V437H541V51H620V0H351V51H410V437Z" glyph-name="f_f_j" horiz-adv-x="921" unicode="" /><glyph d="M1060 0 905 244H862V51H923V0H674V51H731V612Q731 658 708 677.5Q685 697 643 697Q597 697 569 672.5Q541 648 541 592V488H633L625 437H541V51H615V0H351V51H410V437H219V51H289V0H30V51H88V437H24V488H88V556Q88 598 101.5 629.5Q115 661 138.5 681Q162 701 193 711Q224 721 259 721Q288 721 319 715Q350 709 380 695Q372 684 366 674Q360 664 356 651Q326 661 300 661Q258 661 238.5 637Q219 613 219 577V488H410V571Q410 618 427.5 652.5Q445 687 475 709.5Q505 732 544 742.5Q583 753 626 753Q675 753 715 741Q755 729 784 710L835 743L862 741V295H914L1064 437H970V488H1208V437H1141L1008 313L1181 51H1235V0Z" glyph-name="f_f_k" horiz-adv-x="1233" unicode="" /><glyph d="M30 51 88 51V437H24V488H88V568Q88 615 105 649.5Q122 684 152 707.5Q182 731 222.5 742.5Q263 754 309 754Q363 754 403 739.5Q443 725 463 711L513 744L545 742Q545 729 544 700Q543 671 542.5 634.5Q542 598 541.5 558Q541 518 540.5 484Q540 450 539.5 425Q539 400 539 394Q560 414 582 432.5Q604 451 627 465.5Q650 480 675 489Q700 498 725 498Q788 498 823 463.5Q858 429 858 357V51H914V0H671V51H727V334Q727 366 712.5 385.5Q698 405 666 405Q644 405 615 392.5Q586 380 541 348V51H607V0H354V51H410V614Q410 660 387 679.5Q364 699 326 699Q277 699 248 674Q219 649 219 594V488H312L304 437H219V51H294V0H30Z" glyph-name="f_h" horiz-adv-x="935" unicode="" /><glyph d="M341 -230 400 -162V437H219V51H299V0H30V51H88V437H24V488H88V569Q88 622 105 658.5Q122 695 152.5 717Q183 739 224 748.5Q265 758 313 758Q355 758 397.5 752.5Q440 747 472 738L468 607L406 600L379 692Q369 694 358.5 694.5Q348 695 340 695Q286 695 252.5 669.5Q219 644 219 574V488H531V-83Q531 -126 510 -162.5Q489 -199 427 -233L374 -263Z" glyph-name="f_j" horiz-adv-x="600" unicode="" /><glyph d="M24 437 24 488H88V571Q88 618 105.5 652.5Q123 687 153 709.5Q183 732 222.5 742.5Q262 753 305 753Q354 753 394 741Q434 729 463 710L513 743L541 741V295H593L743 437H649V488H887V437H820L687 313L860 51H914V0H739L583 244H541V51H602V0H353V51H410V612Q410 658 387 677.5Q364 697 322 697Q276 697 247.5 672.5Q219 648 219 592V488H312L304 437H219V51H294V0H30V51H88V437Z" glyph-name="f_k" horiz-adv-x="912" unicode="" /><glyph d="M124 -6Q100 -6 74.5 -3Q49 0 29 5L31 90H60L86 27Q94 25 103 24Q112 23 120 23Q163 23 186 43Q209 63 209 98Q209 118 199.5 132Q190 146 174.5 155Q159 164 138 168Q117 172 94 172Q81 172 67.5 171Q54 170 40 167L49 385H279L266 312H75L72 245Q85 247 97.5 248Q110 249 123 249Q158 249 187.5 241.5Q217 234 238.5 219Q260 204 272.5 181.5Q285 159 285 129Q285 99 273 74Q261 49 239 31.5Q217 14 188 4Q159 -6 124 -6Z" glyph-name="five.denominator" horiz-adv-x="310" unicode="" /><glyph d="M124 309Q100 309 74.5 312Q49 315 29 320L31 405H60L86 342Q94 340 103 339Q112 338 120 338Q163 338 186 358Q209 378 209 413Q209 433 199.5 447Q190 461 174.5 470Q159 479 138 483Q117 487 94 487Q81 487 67.5 486Q54 485 40 482L49 700H279L266 627H75L72 560Q85 562 97.5 563Q110 564 123 564Q158 564 187.5 556.5Q217 549 238.5 534Q260 519 272.5 496.5Q285 474 285 444Q285 414 273 389Q261 364 239 346.5Q217 329 188 319Q159 309 124 309Z" glyph-name="five.numerator" horiz-adv-x="310" unicode="" /><glyph d="M200 -143Q161 -143 118.5 -139Q76 -135 43 -126L45 19H94L132 -88Q147 -92 164 -93.5Q181 -95 197 -95Q275 -95 316.5 -56.5Q358 -18 358 46Q358 85 340.5 111Q323 137 294.5 152.5Q266 168 229 175Q192 182 153 182Q131 182 108.5 180.5Q86 179 64 174L77 550H464L448 435H120L116 300Q136 302 156 304Q176 306 195 306Q252 306 302.5 293.5Q353 281 391 254.5Q429 228 451 188Q473 148 473 92Q473 39 452.5 -4.5Q432 -48 395 -78.5Q358 -109 308.5 -126Q259 -143 200 -143Z" glyph-name="five.posf" horiz-adv-x="514" unicode="" /><glyph d="M218 -10Q177 -10 134.5 -6Q92 -2 58 8L60 155H109L148 46Q164 42 181 40.5Q198 39 214 39Q295 39 337.5 79Q380 119 380 185Q380 224 362 251Q344 278 315 294Q286 310 248 317Q210 324 170 324Q147 324 124.5 322.5Q102 321 79 316L92 700H488L471 583H137L132 443Q152 446 172 448Q192 450 212 450Q270 450 322 437Q374 424 413 397.5Q452 371 474.5 329.5Q497 288 497 231Q497 177 476 132.5Q455 88 417.5 56.5Q380 25 329 7.5Q278 -10 218 -10Z" glyph-name="five.tnum" horiz-adv-x="548" unicode="" /><glyph d="M100 -1 730 729L760 704L130 -26ZM136 309Q112 309 86.5 312Q61 315 41 320L43 405H72L98 342Q106 340 115 339Q124 338 132 338Q175 338 198 358Q221 378 221 413Q221 433 211.5 447Q202 461 186.5 470Q171 479 150 483Q129 487 106 487Q93 487 79.5 486Q66 485 52 482L61 700H291L278 627H87L84 560Q97 562 109.5 563Q122 564 135 564Q170 564 199.5 556.5Q229 549 250.5 534Q272 519 284.5 496.5Q297 474 297 444Q297 414 285 389Q273 364 251 346.5Q229 329 200 319Q171 309 136 309ZM706 391Q735 391 761.5 382Q788 373 808 355Q828 337 839.5 310.5Q851 284 851 249Q851 193 824 147Q797 101 758.5 66.5Q720 32 679 10Q638 -12 610 -20L585 -11Q603 -1 622.5 16.5Q642 34 661.5 55Q681 76 698.5 100Q716 124 729 148Q710 142 690 142Q667 142 644 148.5Q621 155 602 169.5Q583 184 571.5 206.5Q560 229 560 260Q560 284 569.5 307.5Q579 331 597 349.5Q615 368 642.5 379.5Q670 391 706 391ZM705 361Q676 361 663 334Q650 307 650 273Q650 228 668.5 200.5Q687 173 721 173Q730 173 740 176Q751 196 756.5 223Q762 250 762 276Q762 311 749 336Q736 361 705 361Z" glyph-name="fiveninths" horiz-adv-x="879" unicode="" /><glyph d="M103 -1 733 729L763 704L133 -26ZM139 309Q115 309 89.5 312Q64 315 44 320L46 405H75L101 342Q109 340 118 339Q127 338 135 338Q178 338 201 358Q224 378 224 413Q224 433 214.5 447Q205 461 189.5 470Q174 479 153 483Q132 487 109 487Q96 487 82.5 486Q69 485 55 482L64 700H294L281 627H90L87 560Q100 562 112.5 563Q125 564 138 564Q173 564 202.5 556.5Q232 549 253.5 534Q275 519 287.5 496.5Q300 474 300 444Q300 414 288 389Q276 364 254 346.5Q232 329 203 319Q174 309 139 309ZM608 0 779 309H611L601 257H567L565 385H837V354L662 0Z" glyph-name="fivesevenths" horiz-adv-x="864" unicode="" /><glyph d="M98 -1 728 729L758 704L128 -26ZM134 309Q110 309 84.5 312Q59 315 39 320L41 405H70L96 342Q104 340 113 339Q122 338 130 338Q173 338 196 358Q219 378 219 413Q219 433 209.5 447Q200 461 184.5 470Q169 479 148 483Q127 487 104 487Q91 487 77.5 486Q64 485 50 482L59 700H289L276 627H85L82 560Q95 562 107.5 563Q120 564 133 564Q168 564 197.5 556.5Q227 549 248.5 534Q270 519 282.5 496.5Q295 474 295 444Q295 414 283 389Q271 364 249 346.5Q227 329 198 319Q169 309 134 309ZM703 -8Q674 -8 647.5 1.5Q621 11 601 29Q581 47 569.5 74Q558 101 558 135Q558 191 585 236.5Q612 282 650.5 316.5Q689 351 730 373Q771 395 799 403L824 394Q806 384 786 367Q766 350 746.5 328.5Q727 307 709.5 283.5Q692 260 680 236Q702 241 719 241Q742 241 765 234.5Q788 228 807 214Q826 200 837.5 177.5Q849 155 849 123Q849 99 839.5 75.5Q830 52 812 33.5Q794 15 766.5 3.5Q739 -8 703 -8ZM704 22Q733 22 746 49.5Q759 77 759 111Q759 155 740 182.5Q721 210 687 210Q680 210 668 207Q658 187 652.5 160.5Q647 134 647 108Q647 73 660 47.5Q673 22 704 22Z" glyph-name="fivesixths" horiz-adv-x="879" unicode="" /><glyph d="M135 30 172 30V113H16V165L176 385H256V163H320V113H256V30H290V0H135ZM172 163 172 330L52 163Z" glyph-name="four.denominator" horiz-adv-x="337" unicode="" /><glyph d="M134 345 171 345V428H15V480L175 700H255V478H319V428H255V345H289V315H134ZM171 478 171 645L51 478Z" glyph-name="four.numerator" horiz-adv-x="337" unicode="" /><glyph d="M293 -135 293 69H24V153L298 550H421V151H539V69H421V-135ZM293 151 293 462L81 151Z" glyph-name="four.posf" horiz-adv-x="553" unicode="" /><glyph d="M218 52 288 52V211H8V296L293 700H418V294H535V211H418V52H484V0H218ZM288 294 288 610L66 294Z" glyph-name="four.tnum" horiz-adv-x="548" unicode="" /><glyph d="M122 -1 752 729L782 704L152 -26ZM146 345 183 345V428H27V480L187 700H267V478H331V428H267V345H301V315H146ZM183 478 183 645L63 478ZM681 -6Q657 -6 631.5 -3Q606 0 586 5L588 90H617L643 27Q651 25 660 24Q669 23 677 23Q720 23 743 43Q766 63 766 98Q766 118 756.5 132Q747 146 731.5 155Q716 164 695 168Q674 172 651 172Q638 172 624.5 171Q611 170 597 167L606 385H836L823 312H632L629 245Q642 247 654.5 248Q667 249 680 249Q715 249 744.5 241.5Q774 234 795.5 219Q817 204 829.5 181.5Q842 159 842 129Q842 99 830 74Q818 49 796 31.5Q774 14 745 4Q716 -6 681 -6Z" glyph-name="fourfifths" horiz-adv-x="884" unicode="" /><glyph d="M122 -1 752 729L782 704L152 -26ZM146 345 183 345V428H27V480L187 700H267V478H331V428H267V345H301V315H146ZM183 478 183 645L63 478ZM728 391Q757 391 783.5 382Q810 373 830 355Q850 337 861.5 310.5Q873 284 873 249Q873 193 846 147Q819 101 780.5 66.5Q742 32 701 10Q660 -12 632 -20L607 -11Q625 -1 644.5 16.5Q664 34 683.5 55Q703 76 720.5 100Q738 124 751 148Q732 142 712 142Q689 142 666 148.5Q643 155 624 169.5Q605 184 593.5 206.5Q582 229 582 260Q582 284 591.5 307.5Q601 331 619 349.5Q637 368 664.5 379.5Q692 391 728 391ZM727 361Q698 361 685 334Q672 307 672 273Q672 228 690.5 200.5Q709 173 743 173Q752 173 762 176Q773 196 778.5 223Q784 250 784 276Q784 311 771 336Q758 361 727 361Z" glyph-name="fourninths" horiz-adv-x="904" unicode="" /><glyph d="M122 -1 752 729L782 704L152 -26ZM146 345 183 345V428H27V480L187 700H267V478H331V428H267V345H301V315H146ZM183 478 183 645L63 478ZM627 0 798 309H630L620 257H586L584 385H856V354L681 0Z" glyph-name="foursevenths" horiz-adv-x="883" unicode="" /><glyph d="M40 352 40 356L208 598H283L183 354L283 110H208ZM245 352 245 356L414 598H489L390 354L489 110H414Z" glyph-name="guillemotleft.case" horiz-adv-x="542" unicode="" /><glyph d="M153 354 53 598H129L298 356V352L129 110H53ZM359 354 259 598H335L503 356V352L335 110H259Z" glyph-name="guillemotright.case" horiz-adv-x="542" unicode="" /><glyph d="M40 352 40 356L208 598H283L183 354L283 110H208Z" glyph-name="guilsinglleft.case" horiz-adv-x="336" unicode="" /><glyph d="M153 354 53 598H129L298 356V352L129 110H53Z" glyph-name="guilsinglright.case" horiz-adv-x="337" unicode="" /><glyph d="M61 391 313 391V298H61Z" glyph-name="hyphen.case" horiz-adv-x="374" unicode="" /><glyph d="M92 711 225 711V578H92ZM25 51 94 51V437H29V488H225V51H289V0H25Z" glyph-name="i.TRK" horiz-adv-x="309" unicode="" /><glyph d="M1071 734Q1119 684 1146 615.5Q1173 547 1173 473Q1173 363 1124.5 265Q1076 167 999.5 85.5Q923 4 829.5 -59Q736 -122 646 -162Q628 -170 615 -170Q602 -170 583 -162Q490 -120 396.5 -55.5Q303 9 228.5 91Q154 173 107.5 270.5Q61 368 61 475Q61 550 88 618.5Q115 687 163 737Q208 784 269.5 807Q331 830 398 830Q465 830 520.5 806Q576 782 621 744Q669 787 723.5 807.5Q778 828 839 828Q906 828 966 804.5Q1026 781 1071 734ZM1127 474Q1127 541 1103 602Q1079 663 1033 708Q952 787 835 787Q769 787 714.5 762.5Q660 738 617 700Q567 743 511.5 765.5Q456 788 394 788Q281 788 200 710Q154 665 129 603.5Q104 542 104 473Q104 400 129 331.5Q154 263 194 205Q227 157 270 112Q313 67 367 25Q411 -11 453 -38.5Q495 -66 528 -85Q561 -104 582 -113.5Q603 -123 605 -124Q615 -128 624 -124Q626 -123 647 -113.5Q668 -104 701 -85Q734 -66 777 -39Q820 -12 865 24Q919 66 961.5 110.5Q1004 155 1036 203Q1080 266 1103.5 334.5Q1127 403 1127 474ZM835 751Q938 751 1008 682Q1048 643 1069.5 588Q1091 533 1091 473Q1091 402 1066 339Q1041 276 1006 223Q944 134 842 53Q804 23 767 -1.5Q730 -26 699.5 -44Q669 -62 646.5 -74Q624 -86 614 -90Q605 -86 583 -74Q561 -62 530 -44Q499 -26 462.5 -1Q426 24 388 54Q336 95 295.5 138Q255 181 224 226Q185 283 163 346.5Q141 410 141 474Q141 535 163 590Q185 645 226 684Q296 752 398 752Q455 752 503.5 729.5Q552 707 591 675Q536 619 491 540Q466 495 445.5 449.5Q425 404 410 361.5Q395 319 384.5 283Q374 247 368 221L319 231Q312 233 306 229Q300 225 298 218Q296 211 300 205.5Q304 200 312 198L447 169Q453 167 458.5 171Q464 175 466 182Q468 190 464 195.5Q460 201 453 203L405 213Q410 234 418.5 264.5Q427 295 439.5 331Q452 367 468 407Q484 447 504 487Q530 478 557.5 473Q585 468 614 468Q675 468 727 488Q747 449 763 409Q779 369 791 333Q803 297 811.5 266Q820 235 825 212L777 202Q770 200 765.5 194.5Q761 189 762 182Q764 174 770.5 170Q777 166 784 168L920 196Q927 198 931 203.5Q935 209 933 216Q932 224 925.5 228Q919 232 912 230L863 220Q863 221 862.5 221.5Q862 222 862 223Q856 249 845.5 285Q835 321 820 363.5Q805 406 785 452Q765 498 739 543Q696 621 644 674Q686 710 733.5 730.5Q781 751 835 751ZM270 575Q263 573 259 567Q255 561 257 553Q261 536 278 539L381 562L391 540Q388 536 385.5 531.5Q383 527 383 522Q383 511 391 503.5Q399 496 410 496Q421 496 427 504Q435 511 434 520.5Q433 530 430 538L368 697Q365 704 358.5 707Q352 710 344 707Q337 704 334 697.5Q331 691 334 683L368 597ZM834 545Q845 523 869 515Q899 507 924 522Q950 536 959.5 562Q969 588 956 611L923 678Q921 686 912.5 687.5Q904 689 899 686L762 612Q756 608 754 601Q752 594 756 587Q759 580 766.5 578Q774 576 781 580L808 595ZM437 655Q437 641 446 631.5Q455 622 469 622Q483 622 492.5 632Q502 642 502 654Q502 668 492.5 677.5Q483 687 469 687Q455 687 446 677.5Q437 668 437 655ZM614 506Q567 506 522 520Q543 555 566 588.5Q589 622 617 650Q641 624 664.5 591Q688 558 710 521Q667 506 614 506ZM840 613 900 645L924 595Q931 583 924.5 571Q918 559 907 553Q896 548 884 549Q872 550 866 561ZM242 412 357 372Q373 366 378 383Q381 390 378 397Q375 404 368 406L253 447L268 494Q270 502 267 508.5Q264 515 257 517Q249 519 242 516Q235 513 232 505L190 373Q188 366 191 359Q194 352 202 350Q219 345 224 362ZM1009 492Q1004 500 999 502Q991 504 984 501L855 439Q839 430 846 415L893 310Q902 295 916 301Q924 304 927 311Q930 318 926 324L886 414L920 429L935 396Q938 389 945 386.5Q952 384 958 387Q975 394 968 411L953 445L984 460L1015 388Q1019 381 1026 378.5Q1033 376 1040 379Q1047 382 1049.5 389Q1052 396 1049 403ZM763 97Q763 105 758 110Q753 115 745 115H567Q592 129 622 147Q652 165 678.5 188Q705 211 722.5 240Q740 269 740 304Q740 327 732 349Q724 371 708.5 388.5Q693 406 670 417Q647 428 617 428Q589 428 565 419.5Q541 411 523 396Q505 381 494.5 359.5Q484 338 484 312Q484 295 490.5 278.5Q497 262 508.5 248.5Q520 235 536.5 227Q553 219 573 219Q586 219 599.5 223Q613 227 624.5 236Q636 245 643 259Q650 273 650 292Q650 318 637.5 327Q625 336 614 336Q600 336 590.5 326.5Q581 317 581 304Q581 295 585.5 288.5Q590 282 597 277Q599 275 595 265Q591 255 571 255Q547 255 535 274.5Q523 294 523 313Q523 349 548 371Q573 393 614 393Q658 393 679 365.5Q700 338 700 305Q700 283 690.5 263Q681 243 665 226Q649 209 630 194Q611 179 591 166Q552 142 522.5 127.5Q493 113 490 110Q481 101 486 90Q488 85 493 82Q498 79 503 79H744Q763 79 763 97ZM582 3Q582 -11 591.5 -20.5Q601 -30 614 -30Q628 -30 638 -20Q648 -10 648 2Q648 16 638 25.5Q628 35 614 35Q600 35 591 25.5Q582 16 582 3Z" glyph-name="logo" horiz-adv-x="1231" unicode="" /><glyph d="M165 391Q194 391 220.5 382Q247 373 267 355Q287 337 298.5 310.5Q310 284 310 249Q310 193 283 147Q256 101 217.5 66.5Q179 32 138 10Q97 -12 69 -20L44 -11Q62 -1 81.5 16.5Q101 34 120.5 55Q140 76 157.5 100Q175 124 188 148Q169 142 149 142Q126 142 103 148.5Q80 155 61 169.5Q42 184 30.5 206.5Q19 229 19 260Q19 284 28.5 307.5Q38 331 56 349.5Q74 368 101.5 379.5Q129 391 165 391ZM164 361Q135 361 122 334Q109 307 109 273Q109 228 127.5 200.5Q146 173 180 173Q189 173 199 176Q210 196 215.5 223Q221 250 221 276Q221 311 208 336Q195 361 164 361Z" glyph-name="nine.denominator" horiz-adv-x="333" unicode="" /><glyph d="M165 706Q194 706 220.5 697Q247 688 267 670Q287 652 298.5 625.5Q310 599 310 564Q310 508 283 462Q256 416 217.5 381.5Q179 347 138 325Q97 303 69 295L44 304Q62 314 81.5 331.5Q101 349 120.5 370Q140 391 157.5 415Q175 439 188 463Q169 457 149 457Q126 457 103 463.5Q80 470 61 484.5Q42 499 30.5 521.5Q19 544 19 575Q19 599 28.5 622.5Q38 646 56 664.5Q74 683 101.5 694.5Q129 706 165 706ZM164 676Q135 676 122 649Q109 622 109 588Q109 543 127.5 515.5Q146 488 180 488Q189 488 199 491Q210 511 215.5 538Q221 565 221 591Q221 626 208 651Q195 676 164 676Z" glyph-name="nine.numerator" horiz-adv-x="333" unicode="" /><glyph d="M266 558Q314 558 358 542Q402 526 435.5 494.5Q469 463 489 416.5Q509 370 509 308Q509 242 486 183Q463 124 427 74Q391 24 346 -17Q301 -58 256.5 -88.5Q212 -119 173 -138.5Q134 -158 109 -166L68 -151Q91 -137 124 -108.5Q157 -80 192 -42Q227 -4 260.5 41Q294 86 319 134Q281 123 244 123Q204 123 164 135Q124 147 92.5 172.5Q61 198 41.5 237.5Q22 277 22 331Q22 373 37.5 413.5Q53 454 83.5 486.5Q114 519 160 538.5Q206 558 266 558ZM263 509Q236 509 216 495.5Q196 482 183 460Q170 438 164 409.5Q158 381 158 351Q158 272 193.5 223.5Q229 175 292 175Q303 175 314.5 177Q326 179 338 182Q355 217 364.5 261.5Q374 306 374 350Q374 382 368 410.5Q362 439 348.5 461Q335 483 314 496Q293 509 263 509Z" glyph-name="nine.posf" horiz-adv-x="544" unicode="" /><glyph d="M269 711Q319 711 363.5 695Q408 679 442.5 646.5Q477 614 497 566Q517 518 517 455Q517 387 493.5 327Q470 267 433 215.5Q396 164 350 122Q304 80 258.5 48.5Q213 17 173.5 -3Q134 -23 109 -31L66 -15Q90 -1 123.5 28Q157 57 193 96Q229 135 263.5 181.5Q298 228 324 277Q285 266 246 266Q205 266 164.5 278.5Q124 291 91.5 316.5Q59 342 39 382.5Q19 423 19 478Q19 522 35 563.5Q51 605 82.5 638Q114 671 160.5 691Q207 711 269 711ZM266 660Q238 660 217.5 646.5Q197 633 183.5 610.5Q170 588 163.5 559Q157 530 157 499Q157 418 194 368.5Q231 319 295 319Q306 319 318.5 320.5Q331 322 343 326Q360 362 370 407.5Q380 453 380 498Q380 530 373.5 559.5Q367 589 353.5 611.5Q340 634 318 647Q296 660 266 660Z" glyph-name="nine.tnum" horiz-adv-x="548" unicode="" /><glyph d="M33 35 96 38V330L21 307V339L146 385H184V38L246 35V0H33Z" glyph-name="one.denominator" horiz-adv-x="255" unicode="" /><glyph d="M32 350 95 353V645L20 622V654L145 700H183V353L245 350V315H32Z" glyph-name="one.numerator" horiz-adv-x="255" unicode="" /><glyph d="M43 57 169 62V463L39 431V483L266 550H305V62L429 57V0H43Z" glyph-name="one.posf" horiz-adv-x="439" unicode="" /><glyph d="M84 60 226 66V606L75 573V629L301 700H362V66L501 60V0H84Z" glyph-name="one.tnum" horiz-adv-x="548" unicode="" /><glyph d="M66 -1 696 729L726 704L96 -26ZM44 350 107 353V645L32 622V654L157 700H195V353L257 350V315H44ZM625 -6Q601 -6 575.5 -3Q550 0 530 5L532 90H561L587 27Q595 25 604 24Q613 23 621 23Q664 23 687 43Q710 63 710 98Q710 118 700.5 132Q691 146 675.5 155Q660 164 639 168Q618 172 595 172Q582 172 568.5 171Q555 170 541 167L550 385H780L767 312H576L573 245Q586 247 598.5 248Q611 249 624 249Q659 249 688.5 241.5Q718 234 739.5 219Q761 204 773.5 181.5Q786 159 786 129Q786 99 774 74Q762 49 740 31.5Q718 14 689 4Q660 -6 625 -6Z" glyph-name="onefifth" horiz-adv-x="820" unicode="" /><glyph d="M70 -1 700 729L730 704L100 -26ZM48 350 111 353V645L36 622V654L161 700H199V353L261 350V315H48ZM676 391Q705 391 731.5 382Q758 373 778 355Q798 337 809.5 310.5Q821 284 821 249Q821 193 794 147Q767 101 728.5 66.5Q690 32 649 10Q608 -12 580 -20L555 -11Q573 -1 592.5 16.5Q612 34 631.5 55Q651 76 668.5 100Q686 124 699 148Q680 142 660 142Q637 142 614 148.5Q591 155 572 169.5Q553 184 541.5 206.5Q530 229 530 260Q530 284 539.5 307.5Q549 331 567 349.5Q585 368 612.5 379.5Q640 391 676 391ZM675 361Q646 361 633 334Q620 307 620 273Q620 228 638.5 200.5Q657 173 691 173Q700 173 710 176Q721 196 726.5 223Q732 250 732 276Q732 311 719 336Q706 361 675 361Z" glyph-name="oneninth" horiz-adv-x="849" unicode="" /><glyph d="M73 -1 703 729L733 704L103 -26ZM51 350 114 353V645L39 622V654L164 700H202V353L264 350V315H51ZM578 0 749 309H581L571 257H537L535 385H807V354L632 0Z" glyph-name="oneseventh" horiz-adv-x="834" unicode="" /><glyph d="M68 -1 698 729L728 704L98 -26ZM46 350 109 353V645L34 622V654L159 700H197V353L259 350V315H46ZM673 -8Q644 -8 617.5 1.5Q591 11 571 29Q551 47 539.5 74Q528 101 528 135Q528 191 555 236.5Q582 282 620.5 316.5Q659 351 700 373Q741 395 769 403L794 394Q776 384 756 367Q736 350 716.5 328.5Q697 307 679.5 283.5Q662 260 650 236Q672 241 689 241Q712 241 735 234.5Q758 228 777 214Q796 200 807.5 177.5Q819 155 819 123Q819 99 809.5 75.5Q800 52 782 33.5Q764 15 736.5 3.5Q709 -8 673 -8ZM674 22Q703 22 716 49.5Q729 77 729 111Q729 155 710 182.5Q691 210 657 210Q650 210 638 207Q628 187 622.5 160.5Q617 134 617 108Q617 73 630 47.5Q643 22 674 22Z" glyph-name="onesixth" horiz-adv-x="849" unicode="" /><glyph d="M272 -140Q252 -121 212.5 -78Q173 -35 133.5 28Q94 91 64.5 173.5Q35 256 35 355Q35 454 64.5 538Q94 622 133.5 687Q173 752 212.5 796Q252 840 272 860L317 832Q296 798 271 754.5Q246 711 225 653.5Q204 596 190 522.5Q176 449 176 355Q176 261 190 189Q204 117 225 61.5Q246 6 271 -36Q296 -78 317 -112Z" glyph-name="parenleft.case" horiz-adv-x="339" unicode="" /><glyph d="M22 -112Q43 -78 68 -36Q93 6 114 61.5Q135 117 149 189Q163 261 163 355Q163 449 149 522.5Q135 596 114 653.5Q93 711 68 754.5Q43 798 22 832L67 860Q87 840 126.5 796Q166 752 205.5 687Q245 622 274.5 538Q304 454 304 355Q304 256 274.5 173.5Q245 91 205.5 28Q166 -35 126.5 -78Q87 -121 67 -140Z" glyph-name="parenright.case" horiz-adv-x="340" unicode="" /><glyph d="M321 543 181 543V700H321ZM280 461Q280 417 265 379.5Q250 342 231.5 306Q213 270 198 233Q183 196 183 153Q183 99 211 77Q239 55 283 55Q305 55 323.5 60Q342 65 347 66L363 175H414L431 30Q404 19 372 10Q343 2 308 -4Q273 -10 232 -10Q140 -10 87 31.5Q34 73 34 142Q34 178 47.5 208Q61 238 81 264.5Q101 291 125.5 315.5Q150 340 171 363.5Q192 387 207.5 411Q223 435 226 461Z" glyph-name="questiondown.case" horiz-adv-x="460" unicode="" /><glyph d="M43 485 183 700H233L192 463H43Z" glyph-name="revcommaaccent" horiz-adv-x="285" unicode="" /><glyph d="M64 0 235 309H67L57 257H23L21 385H293V354L118 0Z" glyph-name="seven.denominator" horiz-adv-x="302" unicode="" /><glyph d="M64 315 235 624H67L57 572H23L21 700H293V669L118 315Z" glyph-name="seven.numerator" horiz-adv-x="302" unicode="" /><glyph d="M403 430 109 430L90 331H35L33 550H491V499L196 -133H107Z" glyph-name="seven.posf" horiz-adv-x="506" unicode="" /><glyph d="M126 0 429 579H128L108 476H53L51 700H518V648L217 0Z" glyph-name="seven.tnum" horiz-adv-x="548" unicode="" /><glyph d="M58 -1 688 729L718 704L88 -26ZM78 315 249 624H81L71 572H37L35 700H307V669L132 315ZM664 391Q693 391 719.5 382Q746 373 766 355Q786 337 797.5 310.5Q809 284 809 249Q809 193 782 147Q755 101 716.5 66.5Q678 32 637 10Q596 -12 568 -20L543 -11Q561 -1 580.5 16.5Q600 34 619.5 55Q639 76 656.5 100Q674 124 687 148Q668 142 648 142Q625 142 602 148.5Q579 155 560 169.5Q541 184 529.5 206.5Q518 229 518 260Q518 284 527.5 307.5Q537 331 555 349.5Q573 368 600.5 379.5Q628 391 664 391ZM663 361Q634 361 621 334Q608 307 608 273Q608 228 626.5 200.5Q645 173 679 173Q688 173 698 176Q709 196 714.5 223Q720 250 720 276Q720 311 707 336Q694 361 663 361Z" glyph-name="sevenninths" horiz-adv-x="837" unicode="" /><glyph d="M168 -8Q139 -8 112.5 1.5Q86 11 66 29Q46 47 34.5 74Q23 101 23 135Q23 191 50 236.5Q77 282 115.5 316.5Q154 351 195 373Q236 395 264 403L289 394Q271 384 251 367Q231 350 211.5 328.5Q192 307 174.5 283.5Q157 260 145 236Q167 241 184 241Q207 241 230 234.5Q253 228 272 214Q291 200 302.5 177.5Q314 155 314 123Q314 99 304.5 75.5Q295 52 277 33.5Q259 15 231.5 3.5Q204 -8 168 -8ZM169 22Q198 22 211 49.5Q224 77 224 111Q224 155 205 182.5Q186 210 152 210Q145 210 133 207Q123 187 117.5 160.5Q112 134 112 108Q112 73 125 47.5Q138 22 169 22Z" glyph-name="six.denominator" horiz-adv-x="333" unicode="" /><glyph d="M169 307Q140 307 113.5 316.5Q87 326 67 344Q47 362 35.5 389Q24 416 24 450Q24 506 51 551.5Q78 597 116.5 631.5Q155 666 196 688Q237 710 265 718L290 709Q272 699 252 682Q232 665 212.5 643.5Q193 622 175.5 598.5Q158 575 146 551Q168 556 185 556Q208 556 231 549.5Q254 543 273 529Q292 515 303.5 492.5Q315 470 315 438Q315 414 305.5 390.5Q296 367 278 348.5Q260 330 232.5 318.5Q205 307 169 307ZM170 337Q199 337 212 364.5Q225 392 225 426Q225 470 206 497.5Q187 525 153 525Q146 525 134 522Q124 502 118.5 475.5Q113 449 113 423Q113 388 126 362.5Q139 337 170 337Z" glyph-name="six.numerator" horiz-adv-x="333" unicode="" /></font>
</defs>
</svg>
