<?xml version="1.0" encoding="iso-8859-1"?>
<!-- Generator: Adobe Illustrator 16.0.0, SVG Export Plug-In . SVG Version: 6.00 Build 0)  -->
<!DOCTYPE svg PUBLIC "-//W3C//DTD SVG 1.1//EN" "http://www.w3.org/Graphics/SVG/1.1/DTD/svg11.dtd">
<svg xmlns="http://www.w3.org/2000/svg" xmlns:xlink="http://www.w3.org/1999/xlink" version="1.1" id="Capa_1" x="0px" y="0px" width="512px" height="512px" viewBox="0 0 462.521 462.521" style="enable-background:new 0 0 462.521 462.521;" xml:space="preserve">
<g>
	<path d="M41.079,291.882v-28.739h99.709v28.739H41.079z M128.978,58.611c5.132,0,9.299-4.169,9.299-9.296   c0-5.119-4.167-9.289-9.299-9.289c-5.123,0-9.292,4.17-9.292,9.289C119.686,54.441,123.855,58.611,128.978,58.611z M189.303,58.611   c5.134,0,9.301-4.169,9.301-9.296c0-5.119-4.167-9.289-9.301-9.289c-5.122,0-9.292,4.17-9.292,9.289   C180.011,54.441,184.181,58.611,189.303,58.611z M140.896,216.339c0.582-11.224,9.805-20.196,21.163-20.196h48.055v-8.539H41.079   v28.739h99.817V216.339z M140.788,339.33H3.474V0h241.721v196.144H225.33v-23.75H25.865v59.16h114.923v16.384H25.865V307.1h114.923   V339.33z M164.799,49.314c0,13.516,10.993,24.509,24.503,24.509c13.513,0,24.516-10.993,24.516-24.509   c0-13.508-11.002-24.508-24.516-24.508C175.792,24.807,164.799,35.807,164.799,49.314z M104.474,49.314   c0,13.516,10.993,24.509,24.503,24.509c13.515,0,24.514-10.993,24.514-24.509c0-13.508-10.999-24.508-24.514-24.508   C115.467,24.807,104.474,35.807,104.474,49.314z M25.865,154.959H225.33V95.801H25.865V154.959z M41.079,111.013h169.04v28.739   H41.079V111.013z M175.461,128.338h23.142v-8.022h-23.142V128.338z M459.047,233.786v147.732c0,10.813-8.796,19.611-19.611,19.611   H177.21c-10.816,0-19.612-8.798-19.612-19.611V233.786c0-10.818,8.796-19.615,19.612-19.615h262.23   C450.251,214.171,459.047,222.968,459.047,233.786z M188.888,230.984l120.143,79.453l113.883-79.453H188.888z M442.237,238.01   l-132.954,92.739l-134.875-89.204v139.969c0,1.537,1.261,2.802,2.801,2.802h262.23c1.541,0,2.802-1.265,2.802-2.802V238.01H442.237   z M101.335,369.394c-0.839-0.645-2.011-0.657-2.865-0.013c-0.845,0.644-1.156,1.764-0.771,2.748l11.62,29.435H89.047   c-4.41-0.224-18.905-1.723-28.744-11.377c-6.917-6.785-10.285-16.343-10.285-29.235H21.797c0,20.573,6.299,37.191,18.736,49.383   c20.212,19.83,49.147,19.516,50.415,19.492l-0.006-0.247c1.984,0.169,3.417,0.247,3.417,0.247l14.96,0.043l-11.62,29.429   c-0.385,0.985-0.079,2.111,0.775,2.752c0.417,0.325,0.922,0.471,1.417,0.471c0.514,0,1.018-0.159,1.444-0.486l57.814-44.455   c0.577-0.438,0.92-1.139,0.92-1.858c0-0.733-0.348-1.425-0.92-1.873L101.335,369.394z" fill="#FFFFFF"/>
</g>
<g>
</g>
<g>
</g>
<g>
</g>
<g>
</g>
<g>
</g>
<g>
</g>
<g>
</g>
<g>
</g>
<g>
</g>
<g>
</g>
<g>
</g>
<g>
</g>
<g>
</g>
<g>
</g>
<g>
</g>
</svg>
