<?xml version="1.0" standalone="no"?>
<!DOCTYPE svg PUBLIC "-//W3C//DTD SVG 1.1//EN" "http://www.w3.org/Graphics/SVG/1.1/DTD/svg11.dtd" >
<svg xmlns="http://www.w3.org/2000/svg">
<metadata>
Copyright (c) 2013 by Fontsmith Ltd. All rights reserved.
</metadata>
<defs>
<font id="FSMeWeb-LightItalic" horiz-adv-x="562" >
  <font-face 
    font-family="FS Me Web Light"
    font-weight="300"
    font-style="italic"
    font-stretch="normal"
    units-per-em="1000"
    panose-1="2 0 5 6 4 0 0 9 0 4"
    ascent="750"
    descent="-250"
    x-height="528"
    cap-height="720"
    bbox="-148 -275.6 1184 1034"
    underline-thickness="50"
    underline-position="-50"
    slope="-8"
    unicode-range="U+000D-FB04"
  />
<missing-glyph horiz-adv-x="694" 
d="M90 0h514v720h-514v-720zM348 406l-176 263h350zM378 360l175 262v-524zM172 52l176 262l174 -262h-350zM142 622l174 -262l-174 -262v524z" />
    <glyph glyph-name="fi" unicode="fi" horiz-adv-x="536" 
d="M313 472q5 0 7.5 4.5t4.5 19.5l1 7q2 17 1 21t-6 4h-121l5 39q6 43 17.5 71.5t30.5 45.5t44 24.5t58 7.5q65 0 124 -30q6 -3 9 0t11 17l3 5q8 14 9 19t-4 7q-30 16 -67 26t-81 10q-93 0 -148.5 -47.5t-68.5 -153.5l-5 -41h-69q-5 0 -8 -3.5t-5 -20.5l-1 -7
q-2 -15 -0.5 -20t6.5 -5h69l-96 -695q-1 -5 4 -7.5t22 -2.5h8q16 0 22 2.5t7 7.5l96 695h121zM352 10q-1 -5 4.5 -7.5t22.5 -2.5h8q16 0 21.5 2.5t6.5 7.5l72 509q1 5 -4.5 7t-22.5 2h-8q-15 0 -21 -2t-7 -7z" />
    <glyph glyph-name="fl" unicode="fl" horiz-adv-x="567" 
d="M138 528h-69q-5 0 -7.5 -4.5t-4.5 -19.5l-1 -7q-2 -16 -1 -20.5t6 -4.5h69l-97 -695q-1 -5 4.5 -7.5t22.5 -2.5h8q15 0 21 2.5t7 7.5l97 695h121q5 0 8 5t5 19l1 7q2 16 0.5 20.5t-6.5 4.5h-121l6 39q5 36 14.5 66t27.5 51t45 33t67 12q51 0 93 -20q-2 -23 -5 -50.5
t-6.5 -57.5l-7 -60t-7.5 -58l-50 -351q-6 -42 -6 -66q0 -30 16.5 -48t51.5 -18q11 0 23 2t21 5q6 2 7.5 6t1.5 15v7q0 13 -1.5 16t-5.5 2q-5 -1 -10 -1.5t-12 -0.5q-15 0 -21 7t-6 23q0 13 3 31l48 348q11 78 18 148t10 120q1 16 -16 25q-27 13 -61.5 21t-69.5 8
q-100 0 -155 -53t-70 -160z" />
    <glyph glyph-name="f_f" unicode="ff" horiz-adv-x="612" 
d="M601 472q5 0 8 4t5 20l1 7q2 17 0.5 21t-6.5 4h-120l6 39q5 38 14 67t24.5 49t38.5 30.5t57 10.5q20 0 37 -3.5t32 -8.5q7 -2 10 1t10 19l3 7q7 15 6.5 19.5t-5.5 6.5q-20 8 -41.5 12.5t-46.5 4.5q-93 0 -140 -53.5t-63 -159.5l-6 -41h-224l6 39q5 38 14 67t24.5 49
t38.5 30.5t57 10.5q20 0 37 -3.5t32 -8.5q7 -2 10 1t10 19l3 7q7 15 6.5 19.5t-5.5 6.5q-20 8 -41.5 12.5t-46.5 4.5q-93 0 -140 -53.5t-63 -159.5l-6 -41h-69q-5 0 -7 -3t-4 -20l-1 -7q-2 -17 -1.5 -21.5t5.5 -4.5h69l-96 -695q-1 -5 4 -7.5t22 -2.5h8q29 0 30 10l96 695
h224l-96 -695q-1 -5 4 -7.5t22 -2.5h8q29 0 30 10l96 695h120z" />
    <glyph glyph-name="f_f_i" unicode="ffi" horiz-adv-x="824" 
d="M425 528l5 41q13 106 68.5 153.5t148.5 47.5q44 0 81 -10t67 -26q5 -2 4 -7t-9 -19l-3 -5q-8 -14 -11 -17t-9 0q-59 30 -124 30q-33 0 -58 -7.5t-44 -24.5t-30.5 -45.5t-17.5 -71.5l-5 -39h121q5 0 6 -4t-1 -21l-1 -7q-2 -15 -4.5 -19.5t-7.5 -4.5h-121l-96 -695
q-1 -5 -7 -7.5t-22 -2.5h-8q-17 0 -22 2.5t-4 7.5l96 695h-224l-96 -695q-1 -10 -30 -10h-8q-17 0 -22 2.5t-4 7.5l96 695h-69q-5 0 -5.5 4.5t1.5 21.5l1 7q2 17 4 20t7 3h69l6 41q16 106 63 159.5t140 53.5q25 0 46.5 -4.5t41.5 -12.5q5 -2 5.5 -6.5t-6.5 -19.5l-3 -7
q-7 -16 -10 -19t-10 -1q-15 5 -32 8.5t-37 3.5q-34 0 -57 -10.5t-38.5 -30.5t-24.5 -49t-14 -67l-6 -39h224zM712 519q1 5 7 7t21 2h8q17 0 22.5 -2t4.5 -7l-72 -509q-1 -5 -6.5 -7.5t-21.5 -2.5h-8q-17 0 -22.5 2.5t-4.5 7.5z" />
    <glyph glyph-name="f_j" unicode="fj" horiz-adv-x="536" 
d="M313 472q5 0 7.5 4.5t4.5 19.5l1 7q2 17 1 21t-6 4h-121l5 39q6 43 17.5 71.5t30.5 45.5t44 24.5t58 7.5q65 0 124 -30q6 -3 9 0t11 17l3 5q8 14 9 19t-4 7q-30 16 -67 26t-81 10q-93 0 -148.5 -47.5t-68.5 -153.5l-5 -41h-69q-5 0 -8 -3.5t-5 -20.5l-1 -7
q-2 -15 -0.5 -20t6.5 -5h69l-96 -695q-1 -5 4 -7.5t22 -2.5h8q16 0 22 2.5t7 7.5l96 695h121zM487 519q1 5 -4.5 7t-22.5 2h-8q-17 0 -22.5 -2t-6.5 -7l-75 -536q-13 -92 -41 -132.5t-80 -40.5q-13 0 -25 2.5t-22 5.5q-5 2 -7 -1.5t-7 -19.5l-2 -6q-5 -13 -5 -18t4 -7
q11 -5 28 -8t34 -3q76 0 123 54t64 176z" />
    <glyph glyph-name="f_f_j" unicode="ffj" horiz-adv-x="824" 
d="M417 472l-96 -695q-1 -5 4 -7.5t22 -2.5h8q16 0 22 2.5t7 7.5l96 695h121q5 0 7.5 4.5t4.5 19.5l1 7q2 17 1 21t-6 4h-121l5 39q6 43 17.5 71.5t30.5 45.5t44 24.5t58 7.5q65 0 124 -30q6 -3 9 0t11 17l3 5q8 14 9 19t-4 7q-30 16 -67 26t-81 10q-93 0 -148.5 -47.5
t-68.5 -153.5l-5 -41h-224l6 39q5 38 14 67t24.5 49t38.5 30.5t57 10.5q20 0 37 -3.5t32 -8.5q7 -2 10 1t10 19l3 7q7 15 6.5 19.5t-5.5 6.5q-20 8 -41.5 12.5t-46.5 4.5q-93 0 -140 -53.5t-63 -159.5l-6 -41h-69q-5 0 -7 -3t-4 -20l-1 -7q-2 -17 -1.5 -21.5t5.5 -4.5h69
l-96 -695q-1 -5 4 -7.5t22 -2.5h8q29 0 30 10l96 695h224zM775 519q1 5 -4.5 7t-22.5 2h-8q-17 0 -22.5 -2t-6.5 -7l-75 -536q-13 -92 -41 -132.5t-80 -40.5q-13 0 -25 2.5t-22 5.5q-5 2 -7 -1.5t-7 -19.5l-2 -6q-5 -13 -5 -18t4 -7q11 -5 28 -8t34 -3q76 0 123 54t64 176z
" />
    <glyph glyph-name="f_f_l" unicode="ffl" horiz-adv-x="855" 
d="M201 528l6 39q5 38 14 67t24.5 49t38.5 30.5t57 10.5q20 0 37 -3.5t32 -8.5q7 -2 10 1t10 19l3 7q7 15 6.5 19.5t-5.5 6.5q-20 8 -41.5 12.5t-46.5 4.5q-93 0 -140 -53.5t-63 -159.5l-6 -41h-69q-5 0 -7 -3t-4 -20l-1 -7q-2 -17 -1.5 -21.5t5.5 -4.5h69l-96 -695
q-1 -5 4 -7.5t22 -2.5h8q29 0 30 10l96 695h225l-97 -695q-1 -5 4.5 -7.5t22.5 -2.5h8q15 0 21 2.5t7 7.5l97 695h121q5 0 8 5t5 19l1 7q2 16 0.5 20.5t-6.5 4.5h-121l6 39q5 36 14.5 66t27.5 51t45 33t67 12q51 0 93 -20q-2 -23 -5 -50.5t-6.5 -57.5l-7 -60t-7.5 -58
l-50 -351q-6 -42 -6 -66q0 -30 16.5 -48t51.5 -18q11 0 23 2t21 5q6 2 7.5 6t1.5 15v7q0 13 -1.5 16t-5.5 2q-5 -1 -10 -1.5t-12 -0.5q-15 0 -21 7t-6 23q0 13 3 31l48 348q11 78 18 148t10 120q1 16 -16 25q-27 13 -61.5 21t-69.5 8q-100 0 -155 -53t-70 -160l-6 -41h-225z
" />
    <glyph glyph-name=".notdef" horiz-adv-x="694" 
d="M90 0h514v720h-514v-720zM348 406l-176 263h350zM378 360l175 262v-524zM172 52l176 262l174 -262h-350zM142 622l174 -262l-174 -262v524z" />
    <glyph glyph-name=".null" horiz-adv-x="0" 
 />
    <glyph glyph-name=".null" horiz-adv-x="0" 
 />
    <glyph glyph-name="nonmarkingreturn" unicode="&#xd;" horiz-adv-x="245" 
 />
    <glyph glyph-name="space" unicode=" " horiz-adv-x="245" 
 />
    <glyph glyph-name="nonbreakingspace" unicode="&#xa0;" horiz-adv-x="245" 
 />
    <glyph glyph-name="A" unicode="A" horiz-adv-x="614" 
d="M472 10q1 -6 7 -8t27 -2h10q21 0 27 2t4 9l-143 696q-2 8 -10.5 10.5t-30.5 2.5h-6q-23 0 -30 -2.5t-11 -10.5l-333 -696q-2 -5 2 -8t24 -3h5q18 0 25.5 2t10.5 8l85 184h302zM353 657l74 -407h-266z" />
    <glyph glyph-name="B" unicode="B" horiz-adv-x="554" 
d="M137 720l-101 -720h171q75 0 129 16t94 52q33 32 51.5 72t18.5 85q0 31 -9.5 56t-26.5 44t-40 32t-49 19q31 12 56.5 31.5t42.5 45t26.5 55t9.5 61.5q0 58 -33 94q-26 29 -69.5 43t-112.5 14h-158zM153 345h100q63 0 97 -12t56 -37q23 -28 23 -71q0 -36 -13.5 -69.5
t-40.5 -54.5q-28 -23 -68.5 -34t-99.5 -11h-95zM198 664h88q52 0 81.5 -8.5t47.5 -27.5q25 -25 25 -69q0 -35 -13 -65.5t-37 -52.5t-60.5 -33t-88.5 -11h-81z" />
    <glyph glyph-name="C" unicode="C" horiz-adv-x="552" 
d="M399 671q34 0 64 -8.5t66 -27.5q5 -3 8.5 -0.5t10.5 14.5l7 13q8 14 9 17.5t-4 6.5q-68 44 -157 44q-93 0 -160 -42.5t-111 -109t-65 -148.5t-21 -160q0 -63 15.5 -115t45.5 -88.5t75 -56.5t105 -20q49 0 93 9t86 29q6 3 6 8t-2 17l-2 10q-4 24 -15 19
q-33 -16 -70.5 -24.5t-73.5 -8.5q-98 0 -145 56t-47 163q0 67 15.5 138.5t49 130t87 96.5t130.5 38z" />
    <glyph glyph-name="D" unicode="D" horiz-adv-x="633" 
d="M137 720l-101 -720h160q92 0 156 18.5t113 63.5q37 35 63 77t42 89t23 96.5t7 99.5q0 115 -52 182q-38 47 -97 70.5t-155 23.5h-159zM198 664h84q81 0 126.5 -16.5t74.5 -51.5q46 -56 46 -156q0 -45 -6 -90t-19.5 -86.5t-35 -78t-52.5 -63.5q-20 -18 -42 -30.5t-48 -20.5
t-57.5 -11.5t-70.5 -3.5h-86z" />
    <glyph glyph-name="E" unicode="E" horiz-adv-x="523" 
d="M507 663q5 0 7.5 4t5.5 21l1 6q3 17 1.5 21.5t-7.5 4.5h-378l-101 -720h382q5 0 7.5 4t5.5 21l1 6q3 17 1 21.5t-7 4.5h-314l39 279h263q5 0 7.5 4t5.5 21l1 6q3 17 1 21.5t-7 4.5h-263l38 270h310z" />
    <glyph glyph-name="F" unicode="F" horiz-adv-x="468" 
d="M387 336q5 0 7 5t5 22l1 6q3 17 1.5 20.5t-6.5 3.5h-238l38 270h285q5 0 7 5t5 22l1 6q3 17 1.5 20.5t-6.5 3.5h-352l-99 -709q-1 -6 4 -8.5t25 -2.5h5q19 0 25.5 2.5t7.5 8.5l45 325h238z" />
    <glyph glyph-name="G" unicode="G" horiz-adv-x="623" 
d="M559 625q7 -5 21 17l4 7q8 13 9 17.5t-3 7.5q-32 26 -77.5 41t-102.5 15q-93 0 -161.5 -39.5t-113.5 -103.5t-67 -146t-22 -166q0 -63 15 -115t45 -89q32 -38 82 -59.5t121 -21.5q54 0 107.5 12.5t106.5 35.5l47 337h-225q-5 0 -7 -4t-5 -21l-1 -5q-3 -17 -2 -22t6 -5
h160l-34 -243q-29 -12 -67 -19.5t-74 -7.5q-54 0 -92.5 16t-63 45.5t-36 71t-11.5 92.5q0 47 7 95t21.5 92t37.5 82.5t54.5 67t72 45t91.5 16.5q45 0 82.5 -11.5t74.5 -34.5z" />
    <glyph glyph-name="H" unicode="H" horiz-adv-x="642" 
d="M618 711q1 6 -5.5 7.5t-25.5 1.5h-8q-18 0 -23 -2t-6 -7l-45 -318h-346l45 318q1 6 -5.5 7.5t-25.5 1.5h-8q-18 0 -23 -2t-6 -7l-99 -702q-1 -5 4.5 -7t22.5 -2h8q18 0 25 2t8 7l46 327h346l-46 -327q-1 -5 5 -7t23 -2h8q31 0 32 9z" />
    <glyph glyph-name="I" unicode="I" horiz-adv-x="357" 
d="M241 0q5 0 6.5 2.5t4.5 17.5l1 5q3 16 2 19t-6 3h-74l88 626h72q5 0 6.5 2.5t4.5 17.5l1 5q3 16 2 19t-6 3h-214q-5 0 -6.5 -2.5t-4.5 -17.5l-1 -5q-3 -14 -2 -18t6 -4h75l-88 -626h-74q-5 0 -6.5 -2.5t-4.5 -17.5l-1 -5q-3 -14 -2 -18t6 -4h215z" />
    <glyph glyph-name="J" unicode="J" horiz-adv-x="429" 
d="M375 720q-18 0 -23.5 -2t-6.5 -7l-70 -500q-7 -48 -15.5 -76.5t-27.5 -48.5q-36 -38 -100 -38q-26 0 -54 8.5t-54 24.5q-7 4 -11 2t-12 -15l-6 -10q-8 -14 -9 -17.5t5 -8.5q29 -20 65.5 -31t75.5 -11q40 0 78 13t64 37q29 27 44 62t23 93l72 516q1 5 -5.5 7t-24.5 2h-8z
" />
    <glyph glyph-name="K" unicode="K" horiz-adv-x="559" 
d="M37 9q-1 -5 4.5 -7t22.5 -2h8q17 0 24 2t8 7l36 254l117 108l160 -361q2 -6 8 -8t27 -2h16q19 0 23 2.5t1 10.5l-182 407q93 85 157 160t94 130q5 10 -22 10h-13q-16 0 -23 -1.5t-10 -6.5q-31 -50 -89 -117t-133 -138l-119 -112l51 366q1 9 -30 9h-8q-28 0 -29 -9z" />
    <glyph glyph-name="L" unicode="L" horiz-adv-x="483" 
d="M202 711q1 5 -6 7t-24 2h-8q-17 0 -22.5 -2t-6.5 -7l-98 -700q-1 -6 4 -8.5t21 -2.5h331q5 0 7 4t5 21l1 6q3 18 1.5 22t-6.5 4h-291z" />
    <glyph glyph-name="M" unicode="M" horiz-adv-x="761" 
d="M195 626l127 -489q2 -5 7 -6.5t23 -1.5h9q18 0 24 1.5t9 6.5l259 497l-65 -627q-1 -4 4 -5.5t24 -1.5h8q20 0 24 1.5t5 5.5l69 703q1 6 -5.5 8t-29.5 2h-8q-26 0 -32.5 -2.5t-9.5 -7.5l-268 -516l-131 516q-2 5 -7.5 7.5t-30.5 2.5h-8q-23 0 -29.5 -2t-7.5 -8l-133 -703
q-1 -4 3 -5.5t24 -1.5h6q19 0 24 1.5t6 5.5z" />
    <glyph glyph-name="N" unicode="N" horiz-adv-x="663" 
d="M463 10q2 -6 8.5 -8t29.5 -2h6q19 0 26.5 2t8.5 7l99 702q1 5 -4.5 7t-22.5 2h-6q-17 0 -22 -2t-6 -7l-86 -616l-280 615q-3 6 -10 8t-28 2h-6q-21 0 -28 -2t-8 -7l-99 -702q-1 -5 4 -7t22 -2h6q17 0 22.5 2t6.5 7l87 616z" />
    <glyph glyph-name="O" unicode="O" horiz-adv-x="679" 
d="M398 671q88 0 133.5 -56t45.5 -168q0 -65 -16 -135t-49.5 -128.5t-86.5 -96.5t-128 -38q-87 0 -133 53t-46 165q0 66 15.5 137t49 130.5t87 98t128.5 38.5zM409 730q-94 0 -162.5 -41.5t-113 -108t-66 -149t-21.5 -164.5q0 -68 17 -120t48.5 -87t76 -52.5t98.5 -17.5
q94 0 162.5 42t113 109.5t66 151.5t21.5 168q0 68 -17.5 118.5t-49 84t-75.5 50t-98 16.5z" />
    <glyph glyph-name="P" unicode="P" horiz-adv-x="514" 
d="M198 664h74q63 0 99 -10.5t58 -36.5q24 -29 24 -83q0 -46 -13.5 -87t-44.5 -68q-50 -44 -143 -44q-27 0 -52 2t-48 6zM37 9q-1 -5 4 -7t24 -2h7q18 0 25 2t8 7l40 279q54 -9 108 -9q59 0 107.5 15.5t80.5 44.5q45 41 64.5 94t19.5 110q0 38 -9.5 65t-26.5 47
q-32 37 -83.5 51t-123.5 14h-145z" />
    <glyph glyph-name="Q" unicode="Q" horiz-adv-x="679" 
d="M409 730q-94 0 -162.5 -41.5t-113 -108t-66 -149t-21.5 -164.5q0 -68 17 -120t48.5 -87t76 -52.5t98.5 -17.5q63 0 117 20q17 -29 37 -57.5t41 -54.5q4 -5 8.5 -3.5t14.5 9.5l11 9q11 10 14.5 14t-1.5 9q-22 25 -39.5 49.5t-31.5 51.5h-1q49 31 85.5 78t60.5 103
t35.5 118.5t11.5 124.5q0 68 -17.5 118.5t-49 84t-75.5 50t-98 16.5zM398 671q88 0 133.5 -56t45.5 -168q0 -48 -8.5 -99.5t-26.5 -99.5t-46 -89.5t-67 -68.5q-11 23 -19.5 46t-14.5 49q-2 7 -6 8t-19 -5l-10 -4q-12 -5 -16 -8t-2 -10q5 -26 14 -51.5t21 -51.5
q-39 -14 -80 -14q-87 0 -133 53t-46 165q0 66 15.5 137t49 130.5t87 98t128.5 38.5z" />
    <glyph glyph-name="R" unicode="R" horiz-adv-x="543" 
d="M245 305h15.5t15.5 1q10 -39 23 -79t28 -78t30.5 -73t32.5 -65q5 -8 11.5 -9.5t25.5 -1.5h10q23 0 28 3.5t1 9.5q-38 65 -66.5 137t-56.5 166q32 8 62.5 21.5t50.5 32.5q42 38 58 84t16 97q0 31 -8 58.5t-25 46.5q-28 33 -79 48.5t-132 15.5h-149l-100 -711q-1 -9 28 -9
h8q31 0 32 9l42 296h98zM198 665h85q56 0 92.5 -8t56.5 -29q14 -14 19.5 -34.5t5.5 -49.5q0 -47 -15.5 -83.5t-43.5 -59.5q-52 -42 -149 -42h-94z" />
    <glyph glyph-name="S" unicode="S" horiz-adv-x="503" 
d="M11 47q32 -23 79 -40t106 -17q55 0 101 15.5t79 45t51.5 71t18.5 92.5q0 37 -14 64.5t-36 49t-50.5 38.5t-56.5 33q-23 13 -45 26.5t-38.5 29t-26.5 34.5t-10 43q0 33 12 59.5t33 44.5t48.5 27.5t58.5 9.5q42 0 72.5 -11t57.5 -28q5 -3 9.5 -0.5t13.5 16.5l3 5
q9 12 10.5 17t-3.5 9q-29 22 -70 35.5t-88 13.5q-49 0 -90.5 -15.5t-71.5 -42.5t-46.5 -64t-16.5 -80q0 -34 11.5 -60.5t30 -48t43.5 -39.5t53 -34q26 -15 51 -30t44.5 -32t31.5 -37t12 -47q0 -75 -50 -114t-133 -39q-37 0 -75.5 12.5t-73.5 37.5q-5 4 -9.5 0t-13.5 -16
l-4 -5q-10 -14 -11.5 -19.5t3.5 -9.5z" />
    <glyph glyph-name="T" unicode="T" horiz-adv-x="506" 
d="M530 663q5 0 7 3.5t5 20.5l1 6q3 18 1.5 22.5t-6.5 4.5h-456q-5 0 -7 -3.5t-5 -20.5l-1 -6q-3 -17 -1.5 -22t6.5 -5h198l-92 -654q-1 -5 4.5 -7t22.5 -2h8q18 0 24.5 2t7.5 7l92 654h191z" />
    <glyph glyph-name="U" unicode="U" horiz-adv-x="656" 
d="M639 711q1 5 -5.5 7t-24.5 2h-6q-18 0 -24 -2t-7 -7l-61 -436q-9 -65 -28 -108.5t-48 -69.5q-26 -25 -62.5 -37t-80.5 -12t-77.5 12t-54.5 36q-16 19 -23 43t-7 65q0 15 2 33.5t4 37.5l61 436q1 5 -5 7t-25 2h-7q-19 0 -24.5 -2t-6.5 -7l-62 -445q-6 -41 -6 -79
q0 -44 11 -76t33 -57q28 -32 73.5 -48t105.5 -16t109 16.5t86 48.5q38 33 62.5 84t35.5 128z" />
    <glyph glyph-name="V" unicode="V" horiz-adv-x="582" 
d="M618 709q2 5 -2.5 8t-23.5 3h-12q-18 0 -23 -2t-8 -8l-288 -643l-113 642q-2 6 -7.5 8.5t-24.5 2.5h-11q-20 0 -25.5 -2.5t-3.5 -10.5l131 -693q2 -9 9 -11.5t33 -2.5h7q25 0 33.5 3t12.5 11z" />
    <glyph glyph-name="W" unicode="W" horiz-adv-x="936" 
d="M965 709q2 5 -2 8t-24 3h-10q-19 0 -24.5 -2t-7.5 -8l-257 -644l-78 644q-1 5 -5.5 7.5t-21.5 2.5h-13q-17 0 -22 -2.5t-7 -7.5l-258 -643l-78 642q-1 6 -7.5 8.5t-24.5 2.5h-11q-20 0 -25 -2.5t-4 -10.5l96 -693q2 -9 9 -11.5t33 -2.5h5q23 0 32.5 2.5t13.5 11.5
l236 577l71 -577q1 -9 10.5 -11.5t35.5 -2.5h5q23 0 32.5 2.5t13.5 11.5z" />
    <glyph glyph-name="X" unicode="X" horiz-adv-x="539" 
d="M402 9q2 -5 9 -7t24 -2h11q23 0 28 3.5t2 10.5l-159 361l235 330q5 8 1 11.5t-26 3.5h-7q-20 0 -25.5 -2t-10.5 -8l-193 -270l-117 271q-2 5 -8.5 7t-23.5 2h-12q-23 0 -27.5 -3t-1.5 -11l140 -323l-260 -368q-5 -8 -1.5 -11.5t23.5 -3.5h4q20 0 28 2t13 8l220 310z" />
    <glyph glyph-name="Y" unicode="Y" horiz-adv-x="513" 
d="M216 278l-38 -269q-1 -5 4.5 -7t22.5 -2h8q17 0 24 2t8 7l38 269l271 430q4 6 -1 9t-24 3h-9q-19 0 -25.5 -1.5t-10.5 -7.5l-223 -371l-118 369q-2 6 -8 8.5t-27 2.5h-8q-23 0 -27.5 -3.5t-2.5 -8.5z" />
    <glyph glyph-name="Z" unicode="Z" horiz-adv-x="528" 
d="M511 642q13 17 18.5 27.5t7.5 25.5l2 14q1 7 -3 9t-18 2h-391q-5 0 -7 -3.5t-5 -21.5l-1 -6q-2 -16 -1 -21t6 -5h334l-425 -580q-12 -17 -17.5 -27t-7.5 -26l-2 -19q-1 -6 2.5 -8.5t14.5 -2.5h420q5 0 6.5 3.5t4.5 20.5l1 6q3 19 2 23t-6 4h-362z" />
    <glyph glyph-name="a" unicode="a" horiz-adv-x="552" 
d="M490 369l22 147q2 8 -2.5 10t-20.5 2h-7q-15 0 -19 -2t-6 -8l-13 -53q-18 33 -50.5 53t-83.5 20q-68 0 -118.5 -31.5t-84 -81t-50.5 -110t-17 -118.5q0 -44 11 -82t34 -65.5t59 -43.5t86 -16q48 0 90.5 19.5t72.5 61.5l-1 -62q0 -5 4 -7t21 -2h3q15 0 20 1.5t6 6.5
q4 54 9.5 106t13.5 109zM409 246q-5 -35 -10.5 -59.5t-12.5 -42.5t-16 -30.5t-21 -24.5q-42 -40 -111 -40q-36 0 -60.5 12t-39.5 33t-21.5 49t-6.5 60q0 45 11.5 93.5t35.5 89t60.5 66.5t87.5 26q45 0 75 -21t50 -61z" />
    <glyph glyph-name="b" unicode="b" horiz-adv-x="538" 
d="M158 467l40 284q1 5 -4.5 7t-22.5 2h-8q-17 0 -22.5 -2t-6.5 -7l-100 -716q-1 -7 0.5 -10.5t9.5 -6.5q30 -12 69 -20t91 -8q73 0 128.5 29t92 77.5t55 111t18.5 128.5q0 40 -9.5 77t-30.5 64.5t-55.5 44t-83.5 16.5q-96 0 -161 -71zM122 206q6 46 12 83.5t11 59.5
q7 32 18.5 51t25.5 33q47 45 118 45q61 0 91.5 -37t30.5 -109q0 -56 -12.5 -107t-39 -90.5t-68 -63t-99.5 -23.5q-29 0 -58 5t-50 13z" />
    <glyph glyph-name="c" unicode="c" horiz-adv-x="472" 
d="M396 63q-4 14 -6 17t-10 -1q-32 -16 -65 -23t-68 -7q-38 0 -64 12t-42 33t-23.5 49.5t-7.5 61.5q0 49 13 97.5t39 87.5t65 63t91 24q61 0 115 -35q5 -4 10 -2t14 17l5 8q9 15 10 19.5t-4 8.5q-32 23 -67 34t-80 11q-69 0 -122 -30.5t-88 -79t-53 -108.5t-18 -118
q0 -45 11.5 -84t36 -67.5t61.5 -44.5t88 -16q42 0 83 9.5t75 27.5q5 3 6 7.5t-2 16.5z" />
    <glyph glyph-name="d" unicode="d" horiz-adv-x="571" 
d="M483 50q-18 0 -26.5 5.5t-8.5 27.5q0 12 3 32l90 636q1 5 -5 7t-23 2h-8q-17 0 -22 -2t-6 -7l-36 -255q-22 20 -55.5 31t-68.5 11q-70 0 -122.5 -31t-87.5 -80.5t-52.5 -110.5t-17.5 -121q0 -96 47 -150.5t138 -54.5q54 0 96 19t68 55q-2 -29 14 -47.5t44 -18.5
q10 0 19 1t14 3t6 5t3 15l1 8q2 14 1.5 17t-5.5 3zM405 244q-5 -35 -9.5 -59t-10.5 -42t-13.5 -30.5t-19.5 -22.5q-21 -20 -51 -30.5t-63 -10.5q-62 0 -97 37t-35 114q0 51 13 101t39 89t65 63t91 24q37 0 66 -12t52 -35z" />
    <glyph glyph-name="e" unicode="e" horiz-adv-x="531" 
d="M470 243q8 0 11.5 4t6.5 21q2 16 3 31t1 30q0 56 -16 101q-17 50 -56 79t-103 29q-68 0 -120 -30t-87 -78t-52.5 -108t-17.5 -120q0 -97 52.5 -154.5t153.5 -57.5q51 0 94.5 10t81.5 30q6 3 5.5 8.5t-3.5 16.5l-3 10q-5 14 -8 16.5t-8 0.5q-34 -15 -68.5 -23t-72.5 -8
t-68 10t-49 30q-37 37 -37 114q0 9 0.5 18.5t1.5 19.5h358zM120 295q25 99 74.5 140.5t113.5 41.5q32 0 54.5 -11.5t37 -31t21 -45.5t6.5 -55q0 -11 -0.5 -20.5t-1.5 -18.5h-305z" />
    <glyph glyph-name="f" unicode="f" horiz-adv-x="324" 
d="M313 472q5 0 8 4t5 20l1 7q2 17 0.5 21t-6.5 4h-120l6 39q5 38 14 67t24.5 49t38.5 30.5t57 10.5q20 0 37 -3.5t32 -8.5q7 -2 10 1t10 19l3 7q7 15 6.5 19.5t-5.5 6.5q-20 8 -41.5 12.5t-46.5 4.5q-93 0 -140 -53.5t-63 -159.5l-6 -41h-69q-5 0 -7 -3t-4 -20l-1 -7
q-2 -17 -1.5 -21.5t5.5 -4.5h69l-96 -695q-1 -5 4 -7.5t22 -2.5h8q29 0 30 10l96 695h120z" />
    <glyph glyph-name="g" unicode="g" horiz-adv-x="550" 
d="M519 519q1 5 -3.5 7t-24.5 2h-4q-17 0 -22 -2t-6 -7l-8 -48q-17 33 -52 50t-80 17q-66 0 -116 -30t-84 -78t-51.5 -108t-17.5 -120q0 -45 10.5 -82t32 -64t54.5 -41.5t77 -14.5q100 0 172 66q-9 -76 -25 -123q-23 -66 -65 -97.5t-113 -31.5q-66 0 -114 21q-7 3 -10 0
t-11 -20l-3 -6q-8 -16 -7.5 -20.5t4.5 -6.5q26 -12 61.5 -19.5t75.5 -7.5q87 0 143 37.5t86 106.5q16 37 26 82.5t19 111.5l24 174q9 68 17 131.5t15 120.5zM405 132q-31 -32 -71.5 -52t-83.5 -20q-131 0 -131 144q0 52 13 101.5t38 88t61 61.5t83 23q44 0 73.5 -18.5
t39.5 -47.5q7 -18 7 -53q0 -15 -2 -30.5t-6 -44.5z" />
    <glyph glyph-name="h" unicode="h" horiz-adv-x="568" 
d="M202 751q1 9 -28 9h-8q-17 0 -22 -2t-6 -7l-104 -740q-1 -6 4 -8.5t22 -2.5h8q17 0 23 3t7 8l28 197q7 46 12.5 84.5t10.5 60.5q5 20 15.5 39t24.5 33q26 24 56.5 36.5t71.5 12.5q36 0 63 -9t41 -29q17 -26 17 -68q0 -19 -2.5 -42t-6.5 -53l-37 -262q-1 -5 4 -8t22 -3h8
q17 0 23 3t7 8l43 307q2 18 3.5 34.5t1.5 30.5q0 67 -29 103q-43 52 -133 52q-58 0 -103.5 -21t-77.5 -60z" />
    <glyph glyph-name="i" unicode="i" horiz-adv-x="223" 
d="M117 704q0 -20 13 -33.5t32 -13.5q25 0 42 18t17 41q0 20 -13 34t-31 14q-25 0 -42.5 -19t-17.5 -41zM39 10q-1 -5 4.5 -7.5t22.5 -2.5h8q16 0 21.5 2.5t6.5 7.5l72 509q1 5 -4.5 7t-22.5 2h-8q-15 0 -21 -2t-7 -7z" />
    <glyph glyph-name="j" unicode="j" horiz-adv-x="241" 
d="M200 519q1 5 -4.5 7t-22.5 2h-8q-17 0 -22.5 -2t-6.5 -7l-75 -536q-7 -50 -18.5 -83.5t-28.5 -53.5t-40.5 -28t-53.5 -8q-13 0 -25 2.5t-22 5.5q-5 2 -7 -1.5t-7 -19.5l-2 -6q-5 -13 -5 -18t4 -7q11 -5 28 -8t34 -3q45 0 80 12t60 39t41.5 71t25.5 108zM143 704
q0 -20 13 -33.5t32 -13.5q25 0 42 18t17 41q0 20 -13 34t-31 14q-25 0 -42.5 -19t-17.5 -41z" />
    <glyph glyph-name="k" unicode="k" horiz-adv-x="469" 
d="M127 219l81 63l125 -271q3 -7 8.5 -9t27.5 -2h6q20 0 26.5 2.5t1.5 11.5l-142 309q31 26 60 53t53.5 52.5t45 48t35.5 40.5q5 7 0 9t-25 2h-5q-17 0 -24 -2.5t-12 -7.5q-41 -48 -90 -94.5t-98 -84.5l-64 -50l65 462q1 5 -5 7t-22 2h-9q-15 0 -21 -2t-7 -7l-104 -742
q-1 -5 3.5 -7t22.5 -2h8q28 0 29 9z" />
    <glyph glyph-name="l" unicode="l" horiz-adv-x="240" 
d="M152 460q6 43 12 85t11 80t8.5 70t5.5 56q1 5 -5 7t-23 2h-8q-18 0 -22.5 -2t-5.5 -7q-3 -29 -6.5 -58t-7 -61t-8.5 -68.5t-11 -80.5l-50 -351q-6 -42 -6 -66q0 -30 16.5 -48t51.5 -18q11 0 23 2t21 5q6 2 7.5 6t1.5 15v7q0 13 -1.5 16t-5.5 2q-5 -1 -10 -1.5t-12 -0.5
q-15 0 -21 7t-6 23q0 13 3 31z" />
    <glyph glyph-name="m" unicode="m" horiz-adv-x="906" 
d="M167 458l6 61q1 6 -4.5 7.5t-22.5 1.5h-8q-16 0 -20.5 -1.5t-5.5 -7.5q-3 -29 -7.5 -63t-9.5 -69l-53 -378q-1 -9 27 -9h8q12 0 19.5 2t8.5 7l28 199q6 46 12 84.5t11 60.5q11 42 32 66q26 29 59 42t71 13q74 0 99 -38q18 -25 18 -69q0 -18 -2.5 -41.5t-6.5 -52.5
l-37 -264q-1 -9 27 -9h8q12 0 19.5 2t8.5 7l38 272q3 23 6.5 41t6.5 31q11 42 32 66q26 29 58 42t72 13q75 0 101 -35q10 -14 13 -30t3 -42q0 -18 -2.5 -41.5t-6.5 -52.5l-37 -264q-1 -9 27 -9h8q11 0 19 2t9 7l43 309q6 37 6 67q0 65 -30 101q-20 26 -54.5 39t-78.5 13
q-57 0 -105 -23t-86 -74q-4 14 -9.5 24.5t-13.5 20.5q-41 52 -127 52q-110 0 -177 -80z" />
    <glyph glyph-name="n" unicode="n" horiz-adv-x="569" 
d="M171 519q1 5 -4.5 7t-20.5 2h-7q-16 0 -21.5 -2t-6.5 -7q-4 -34 -8 -67.5t-9 -64.5l-53 -376q-1 -6 3.5 -8.5t22.5 -2.5h8q17 0 23 2.5t7 8.5l28 197q6 46 12 84.5t11 60.5q5 23 15.5 40.5t23.5 31.5q26 24 57 36.5t72 12.5q36 0 62.5 -9t41.5 -29q18 -24 17.5 -61
t-9.5 -102l-37 -262q-1 -6 4 -8.5t22 -2.5h8q17 0 23 2.5t7 8.5l43 307q9 61 3 101.5t-27 66.5q-43 52 -133 52q-59 0 -105 -21.5t-79 -61.5z" />
    <glyph glyph-name="o" unicode="o" horiz-adv-x="554" 
d="M315 479q37 0 62 -12.5t40 -33.5t21.5 -49t6.5 -59q0 -47 -12.5 -96t-37.5 -89t-64 -65.5t-91 -25.5q-38 0 -63 12.5t-40 33.5t-21.5 49t-6.5 59q0 47 12.5 96t38 89t64 65.5t91.5 25.5zM229 -10q72 0 126 30.5t89 79t52.5 109t17.5 121.5q0 51 -13 92t-38 67
q-24 26 -58 37.5t-79 11.5q-73 0 -126.5 -30.5t-89 -79t-53 -109t-17.5 -121.5q0 -51 13 -92t38 -67q24 -26 58.5 -37.5t79.5 -11.5z" />
    <glyph glyph-name="p" unicode="p" horiz-adv-x="549" 
d="M175 469l4 50q1 6 -4 7.5t-22 1.5h-8q-16 0 -20.5 -2t-5.5 -7l-105 -743q-1 -5 4 -7t21 -2h8q30 0 31 9l37 262q22 -23 55 -35.5t75 -12.5q70 0 121.5 31t85 80.5t49.5 111.5t16 125q0 102 -47 151t-132 49q-49 0 -90.5 -17t-72.5 -52zM147 265q6 43 12 71.5t13 47
t14.5 29.5t15.5 20q20 21 49 33t70 12q59 0 93 -33.5t34 -110.5q0 -50 -11 -100.5t-35 -91.5t-61.5 -67t-89.5 -26q-39 0 -73 15t-54 38z" />
    <glyph glyph-name="q" unicode="q" horiz-adv-x="549" 
d="M514 490q2 9 -1.5 12.5t-10.5 6.5q-33 14 -69 21.5t-80 7.5q-76 0 -133.5 -29t-95.5 -77.5t-57.5 -111t-19.5 -129.5q0 -44 10.5 -81t32 -63.5t54 -41.5t77.5 -15q55 0 98.5 22.5t72.5 64.5l-12 -86t-10.5 -82.5t-8.5 -74t-6 -59.5q-1 -5 4.5 -6.5t22.5 -1.5h6
q17 0 23.5 1.5t7.5 6.5q5 54 14 128t20 152zM423 302q-7 -49 -14 -83t-15 -58t-18.5 -39.5t-23.5 -27.5q-24 -21 -52.5 -33t-60.5 -12q-122 0 -122 144q0 54 14 105.5t42.5 92t71 65.5t100.5 25q26 0 52 -5.5t48 -15.5z" />
    <glyph glyph-name="r" unicode="r" horiz-adv-x="340" 
d="M172 519q1 5 -3 7t-24 2h-5q-20 0 -24 -1t-5 -6q-5 -44 -10 -83.5t-11 -80.5l-49 -348q-1 -5 4 -7t23 -2h6q17 0 23.5 2t7.5 7l16 112q6 46 13 89.5t12 65.5q8 38 23.5 72.5t41.5 62.5q24 26 56.5 43t72.5 17q7 0 8.5 5t3.5 21l1 8q2 16 1.5 20t-4.5 6q-9 3 -28 3
q-44 0 -88.5 -33t-74.5 -96z" />
    <glyph glyph-name="s" unicode="s" horiz-adv-x="440" 
d="M403 460q9 11 11 16.5t-3 9.5q-26 24 -65 38t-86 14q-39 0 -74 -11.5t-61 -33t-41.5 -52.5t-15.5 -69q0 -27 7.5 -46.5t21.5 -33.5q16 -17 44 -29t63 -21q28 -7 49.5 -14t36.5 -16.5t23 -22.5t8 -33q0 -31 -12 -52t-32 -34.5t-45 -19.5t-51 -6q-37 0 -70 12t-58 29
q-5 4 -9.5 1.5t-14.5 -18.5l-4 -6q-9 -14 -10 -18t2 -7q26 -19 68 -33t92 -14q43 0 80.5 12.5t65 36t43 57t15.5 75.5q0 29 -9.5 49.5t-28 35t-45 25t-60.5 19.5q-23 6 -42 12t-33 14.5t-22 21t-8 32.5q0 28 10.5 47.5t28 31.5t38.5 17.5t42 5.5q39 0 67 -10t54 -30
q5 -4 10 -2t15 14z" />
    <glyph glyph-name="t" unicode="t" horiz-adv-x="357" 
d="M196 528l21 149q1 4 -4.5 5t-24.5 1h-7q-18 0 -22 -1t-5 -5l-21 -149h-68q-5 0 -6.5 -3.5t-3.5 -17.5l-1 -7q-2 -15 -1.5 -18.5t4.5 -3.5h69l-46 -328q-7 -50 -4.5 -79.5t20.5 -49.5q14 -14 37 -22.5t55 -8.5q24 0 50.5 4.5t51.5 14.5q4 2 5.5 6t-0.5 18l-1 7
q-2 14 -3.5 17t-8.5 1q-17 -6 -37 -9t-39 -3q-23 0 -36.5 5t-21.5 14q-11 12 -10 32t6 60l45 321h138q4 0 6 3.5t4 17.5l1 7q2 14 1.5 18t-4.5 4h-139z" />
    <glyph glyph-name="u" unicode="u" horiz-adv-x="566" 
d="M405 10q-1 -7 3 -8.5t20 -1.5h8q15 0 20 2t6 10q4 42 9 81l10 78l49 347q1 5 -4.5 7.5t-23.5 2.5h-7q-18 0 -23 -2.5t-6 -7.5l-35 -249q-6 -40 -12.5 -68.5t-15 -48.5t-18 -34t-20.5 -24q-48 -42 -120 -42q-40 0 -64.5 9.5t-38.5 29.5q-8 12 -11 26t-3 33t3 44t8 60
l37 264q1 5 -5 7.5t-23 2.5h-8q-18 0 -22.5 -2.5t-5.5 -7.5l-43 -308q-9 -65 -3.5 -104.5t25.5 -64.5q20 -26 56.5 -38.5t81.5 -12.5q57 0 103.5 23t76.5 66z" />
    <glyph glyph-name="v" unicode="v" horiz-adv-x="483" 
d="M123 517q-2 7 -7.5 9t-22.5 2h-12q-19 0 -23.5 -3t-4.5 -10l108 -498q3 -10 9.5 -13.5t29.5 -3.5h8q24 0 30 3t11 12q28 50 59 109t62.5 123.5t62.5 132t58 135.5q5 13 -27 13h-12q-14 0 -20 -2t-8 -9q-44 -115 -95.5 -228t-116.5 -236z" />
    <glyph glyph-name="w" unicode="w" horiz-adv-x="772" 
d="M129 516q-1 8 -5.5 10t-24.5 2h-8q-20 0 -26 -2.5t-5 -10.5l78 -498q2 -9 10.5 -13t28.5 -4h8q23 0 32 4.5t14 15.5l95 231q22 55 41 104.5t42 113.5q7 -63 13 -114.5t13 -102.5l32 -235q1 -8 8.5 -12.5t30.5 -4.5h8q23 0 32.5 5t15.5 16q30 59 55.5 113t49.5 112
t49.5 124t55.5 149q2 5 -3.5 7t-22.5 2h-8q-20 0 -24.5 -2t-6.5 -10q-20 -62 -40 -117.5t-42 -111t-47.5 -113t-55.5 -121.5l-64 465q-1 6 -8 8t-30 2h-12q-21 0 -29 -2t-10 -9l-181 -464z" />
    <glyph glyph-name="x" unicode="x" horiz-adv-x="486" 
d="M170 519q-2 5 -8.5 7t-28.5 2h-6q-26 0 -31 -3.5t-2 -9.5l116 -240l-207 -264q-3 -5 1 -8t25 -3h5q20 0 27.5 1.5t11.5 6.5l165 218l103 -213q3 -8 10 -10.5t29 -2.5h9q35 0 28 15l-132 267l179 233q6 7 2 10t-28 3h-7q-20 0 -25.5 -1.5t-10.5 -7.5l-139 -190z" />
    <glyph glyph-name="y" unicode="y" horiz-adv-x="499" 
d="M146 518q-2 6 -8.5 8t-25.5 2h-7q-24 0 -29 -3t-3 -9l128 -530q-44 -93 -88 -133t-104 -40q-15 0 -26 2t-21 6q-4 2 -7.5 -0.5t-11.5 -17.5l-5 -9q-8 -13 -8 -18t5 -7q14 -6 33 -9.5t36 -3.5q42 0 80 14t72 46q53 51 108 163l263 539q3 6 -3 8t-23 2h-5q-18 0 -24 -2
t-9 -8l-126 -261l-22 -46t-22.5 -47t-23.5 -50.5t-26 -56.5q-11 61 -20 110t-20 97z" />
    <glyph glyph-name="z" unicode="z" horiz-adv-x="445" 
d="M91 56l324 415q5 7 7.5 12.5t4.5 18.5l1 7q2 13 0.5 16t-7.5 3h-324q-5 0 -6.5 -3.5t-4.5 -20.5l-1 -6q-3 -18 -2 -22t6 -4h253l-324 -418q-5 -5 -6.5 -10.5t-3.5 -16.5l-1 -6q-2 -14 -0.5 -17.5t6.5 -3.5h348q5 0 7 3.5t4 20.5l1 7q2 18 1.5 21.5t-5.5 3.5h-278z" />
    <glyph glyph-name="ampersand" unicode="&#x26;" horiz-adv-x="687" 
d="M482 652q6 -2 9.5 0.5t8.5 14.5l4 10q6 14 7 18.5t-4 6.5q-27 13 -58 20t-64 7q-50 0 -91.5 -15.5t-71 -43t-46 -67t-16.5 -87.5q0 -61 34 -118q-72 -37 -117 -98.5t-45 -139.5q0 -37 13 -68t38 -53.5t62 -35.5t85 -13q68 0 125.5 27t106.5 75l93 -99q5 -5 10.5 -3.5
t16.5 12.5l11 11q11 11 13.5 15.5t-2.5 9.5l-98 103q42 53 73 117t51 135q2 5 -2.5 7t-21.5 2h-3q-16 0 -20 -2t-6 -7q-20 -63 -47 -117t-59 -97l-116 126q-38 40 -62.5 70t-38.5 55t-20 46.5t-6 45.5q0 36 11 64t30.5 47.5t46 29.5t58.5 10q31 0 56.5 -5t51.5 -16zM243 46
q-63 0 -102 33t-39 93q0 30 9.5 58t25.5 52t37.5 43t46.5 33q27 -37 75 -88l132 -141q-41 -40 -87.5 -61.5t-97.5 -21.5z" />
    <glyph glyph-name="at" unicode="@" horiz-adv-x="806" 
d="M458 538q-50 0 -92 -24t-72 -61t-47 -83t-17 -89q0 -51 27 -84.5t84 -33.5q38 0 74 21t59 56q2 -34 27 -55.5t67 -21.5q60 0 102.5 31t70 77t40.5 99.5t13 98.5q0 61 -22 109.5t-61 82.5t-93.5 51.5t-119.5 17.5q-98 0 -182 -35.5t-146.5 -97.5t-98 -145.5t-35.5 -179.5
q0 -66 21 -118.5t60 -89t94.5 -55.5t124.5 -19q101 0 186 28q5 2 6 7t0 13l-1 11q-1 17 -11 15q-84 -24 -162 -24q-121 0 -188 58t-67 171q0 82 30.5 156t83.5 129.5t124 88.5t151 33q56 0 101.5 -14.5t77.5 -42t49.5 -68t17.5 -91.5q0 -33 -9 -76.5t-28 -81.5t-48 -64.5
t-69 -26.5q-49 0 -49 44q0 18 3.5 32.5t9.5 31.5l71 204q3 8 -22 8h-10q-15 0 -19.5 -1t-6.5 -6l-10 -23q-16 17 -37.5 27t-51.5 10zM492 345q-23 -68 -62 -103q-34 -31 -73 -31q-35 0 -49.5 19.5t-14.5 50.5q0 33 11 70.5t32 69t50.5 52t66.5 20.5q26 0 44.5 -10.5
t31.5 -27.5z" />
    <glyph glyph-name="exclam" unicode="!" horiz-adv-x="301" 
d="M197 720q-24 0 -29.5 -3t-6.5 -9l-52 -504q0 -3 3 -5t16 -2h10q13 0 16.5 1.5t4.5 5.5l88 504q1 6 -6 9t-30 3h-14zM119 97q-27 0 -42.5 -20t-15.5 -43q0 -19 12.5 -31.5t30.5 -12.5q27 0 44 18.5t17 41.5q0 20 -13 33.5t-33 13.5z" />
    <glyph glyph-name="exclamdown" unicode="&#xa1;" horiz-adv-x="301" 
d="M111.993 -191.988q23.999 0 29.498 3q5.5 3 6.5 8.99902l51.9971 503.97q0 3 -3 4.99902q-3 2 -15.999 2h-10q-12.999 0 -16.499 -1.5q-3.49902 -1.49902 -4.49902 -5.49902l-87.9951 -503.97q-1 -5.99902 6 -8.99902q6.99902 -3 29.998 -3h13.999zM189.988 430.974
q26.998 0 42.4971 19.999t15.499 42.9971q0 18.999 -12.499 31.498t-30.498 12.499q-26.998 0 -43.9971 -18.498q-16.999 -18.499 -16.999 -41.498q0 -19.999 12.999 -33.498t32.998 -13.499z" />
    <glyph glyph-name="question" unicode="?" horiz-adv-x="411" 
d="M146 195q17 0 23 2t7 8l7 50q4 27 12 45t22 33t34.5 29.5t50.5 32.5q57 35 91 79.5t34 107.5q0 59 -34 94q-22 26 -56.5 39.5t-84.5 13.5q-43 0 -86 -12t-75 -28q-8 -4 -8.5 -7.5t3.5 -16.5l3 -10q4 -13 7.5 -16.5t10.5 -0.5q32 14 65.5 23t67.5 9q68 0 96 -37
q9 -12 14.5 -27.5t5.5 -33.5q0 -25 -7 -44t-20 -35t-31.5 -29.5t-40.5 -27.5q-37 -23 -61.5 -43t-40 -40t-24 -42t-12.5 -50l-8 -54q-1 -7 3.5 -9.5t21.5 -2.5h10zM129 96q-27 0 -42.5 -20t-15.5 -43q0 -19 12.5 -31.5t30.5 -12.5q27 0 44 18.5t17 41.5q0 20 -13 33.5
t-33 13.5z" />
    <glyph glyph-name="questiondown" unicode="&#xbf;" horiz-adv-x="411" 
d="M320.98 331.979q-16.999 0 -22.999 -2q-5.99902 -1.99902 -6.99902 -7.99902l-7 -49.9971q-4 -26.998 -11.999 -44.9971t-21.999 -32.998q-13.999 -14.999 -34.4971 -29.498q-20.499 -14.499 -50.4971 -32.498q-56.9971 -34.998 -90.9951 -79.4951
q-33.9971 -44.4971 -33.9971 -107.494q0 -58.9961 33.9971 -93.9941q21.999 -25.998 56.4971 -39.4971t84.4951 -13.499q42.9971 0 85.9941 11.999t74.9951 27.998q8 4 8.5 7.5q0.5 3.49902 -3.5 16.499l-3 9.99902q-3.99902 12.999 -7.49902 16.499t-10.499 0.5
q-31.998 -13.999 -65.4961 -22.999q-33.498 -8.99902 -67.4961 -8.99902q-67.9961 0 -95.9941 36.998q-9 11.999 -14.499 27.498q-5.5 15.499 -5.5 33.498q0 24.998 7 43.9971q6.99902 18.999 19.998 34.998q13 15.999 31.498 29.498q18.499 13.499 40.498 27.498
q36.998 22.999 61.4961 42.998q24.499 19.998 39.998 39.9971t23.998 41.9971q8.49902 21.999 12.499 49.9971l8 53.9971q1 7 -3.5 9.49902q-4.5 2.5 -21.499 2.5h-9.99902zM337.979 430.974q26.998 0 42.4971 19.999t15.499 42.9971q0 18.999 -12.499 31.498
t-30.498 12.499q-26.998 0 -43.9971 -18.498q-16.999 -18.499 -16.999 -41.498q0 -19.999 12.999 -33.498t32.998 -13.499z" />
    <glyph glyph-name="asterisk" unicode="*" horiz-adv-x="393" 
d="M193 564l-90 -109q-4 -4 -2.5 -8t12.5 -10l9 -5q11 -6 14.5 -6.5t5.5 3.5l72 117l36 -117q2 -4 5 -4t16 7l9 5q15 8 17 11t0 7l-57 109l127 23q8 2 9.5 6.5t-1.5 15.5l-3 11q-3 12 -5 15t-9 1l-123 -47l28 132q1 5 -2.5 7t-17.5 2h-10q-14 0 -16.5 -2t-3.5 -7l-7 -132
l-111 47q-6 2 -10 -1.5t-9 -14.5l-5 -11q-5 -11 -5.5 -15.5t5.5 -6.5z" />
    <glyph glyph-name="period" unicode="." horiz-adv-x="237" 
d="M111 106q-27 0 -45.5 -20t-18.5 -46q0 -22 14 -36t34 -14q27 0 46 19.5t19 45.5q0 22 -14.5 36.5t-34.5 14.5z" />
    <glyph glyph-name="comma" unicode="," horiz-adv-x="236" 
d="M5 -170q5 -7 8 -8t6 1q29 22 54.5 48t44 55t29.5 59.5t11 60.5q0 29 -14.5 44.5t-40.5 15.5t-41 -15t-15 -38q0 -13 5.5 -22.5t11.5 -18t11.5 -18t5.5 -22.5q0 -18 -8 -35t-20 -33t-26 -30t-26 -24q-5 -4 -4.5 -6.5t5.5 -9.5z" />
    <glyph glyph-name="colon" unicode=":" horiz-adv-x="236" 
d="M97 105q-27 0 -45.5 -19.5t-18.5 -45.5q0 -22 14 -36t34 -14q27 0 45.5 19.5t18.5 45.5q0 22 -14 36t-34 14zM152 496q-27 0 -45.5 -19.5t-18.5 -45.5q0 -22 14 -36t34 -14q27 0 45.5 19.5t18.5 45.5q0 22 -14 36t-34 14z" />
    <glyph glyph-name="semicolon" unicode=";" horiz-adv-x="235" 
d="M158 496q-27 0 -45.5 -19.5t-18.5 -45.5q0 -22 14 -36t34 -14q27 0 45.5 19.5t18.5 45.5q0 22 -14 36t-34 14zM-1 -170q5 -7 8 -8t6 1q29 22 54.5 48t44 55t29.5 59.5t11 60.5q0 29 -14.5 44.5t-40.5 15.5t-41 -15t-15 -38q0 -13 5.5 -22.5t11.5 -18t11.5 -18t5.5 -22.5
q0 -18 -8 -35t-20 -33t-26 -30t-26 -24q-5 -4 -4.5 -6.5t5.5 -9.5z" />
    <glyph glyph-name="ellipsis" unicode="&#x2026;" horiz-adv-x="709" 
d="M111 106q-27 0 -45.5 -20t-18.5 -46q0 -22 14 -36t34 -14q27 0 46 19.5t19 45.5q0 22 -14.5 36.5t-34.5 14.5zM347 106q-27 0 -45.5 -20t-18.5 -46q0 -22 14 -36t34 -14q27 0 46 19.5t19 45.5q0 22 -14.5 36.5t-34.5 14.5zM583 106q-27 0 -45.5 -20t-18.5 -46
q0 -22 14 -36t34 -14q27 0 46 19.5t19 45.5q0 22 -14.5 36.5t-34.5 14.5z" />
    <glyph glyph-name="periodcentered" unicode="&#xb7;" horiz-adv-x="236" 
d="M135 410q-27 0 -45.5 -20t-18.5 -46q0 -22 14 -36t34 -14q27 0 46 19.5t19 45.5q0 22 -14.5 36.5t-34.5 14.5z" />
    <glyph glyph-name="bullet" unicode="&#x2022;" horiz-adv-x="333" 
d="M58 338q0 -42 27.5 -71t70.5 -29q27 0 51 11t41.5 29t28 41t10.5 48q0 43 -27 72.5t-71 29.5q-27 0 -51 -11t-42 -29.5t-28 -42t-10 -48.5z" />
    <glyph glyph-name="slash" unicode="/" horiz-adv-x="328" 
d="M-18 -4q-3 -8 1.5 -10.5t22.5 -2.5h4q20 0 25.5 3t7.5 8l318 731q4 8 -1.5 10.5t-24.5 2.5h-4q-20 0 -25.5 -3t-7.5 -8z" />
    <glyph glyph-name="parenleft" unicode="(" horiz-adv-x="323" 
d="M85 204q0 -108 24.5 -188.5t61.5 -150.5q2 -4 6.5 -3.5t15.5 6.5l11 7q11 7 13.5 10.5t0.5 8.5q-34 67 -51.5 142.5t-17.5 165.5q0 137 46 274t140 254q4 5 3 8.5t-11 10.5l-9 7q-9 6 -13.5 6.5t-8.5 -3.5q-52 -59 -91.5 -126t-66 -138t-40 -145t-13.5 -146z" />
    <glyph glyph-name="brokenbar" unicode="&#xa6;" horiz-adv-x="270" 
d="M233 757q1 5 -4 7.5t-22 2.5h-8q-16 0 -20 -2.5t-5 -7.5l-54 -382q-1 -5 4 -7.5t20 -2.5h8q16 0 21 2.5t6 7.5zM150 170q1 5 -4 7.5t-21 2.5h-8q-15 0 -20 -2.5t-6 -7.5l-53 -382q-1 -5 3 -7.5t20 -2.5h8q16 0 21.5 2.5t6.5 7.5z" />
    <glyph glyph-name="parenright" unicode=")" horiz-adv-x="323" 
d="M245 420q0 108 -24.5 188.5t-61.5 150.5q-2 4 -6.5 3.5t-15.5 -6.5l-11 -7q-11 -7 -13.5 -10.5t-0.5 -8.5q34 -67 51.5 -142.5t17.5 -165.5q0 -137 -46 -274t-140 -254q-4 -5 -3 -8.5t11 -10.5l9 -7q9 -6 13.5 -6.5t8.5 3.5q52 58 91.5 125.5t66 138.5t40 145t13.5 146z
" />
    <glyph glyph-name="bracketleft" unicode="[" horiz-adv-x="324" 
d="M117 -80l110 781h121q5 0 7.5 3t4.5 18l1 9q2 16 1 19t-6 3h-184l-125 -885h184q6 0 8 3.5t4 17.5l1 9q2 16 0.5 19t-6.5 3h-121z" />
    <glyph glyph-name="backslash" unicode="\" horiz-adv-x="328" 
d="M146 727q-1 5 -5.5 8t-24.5 3h-4q-21 0 -25.5 -2.5t-3.5 -10.5l112 -731q1 -5 5.5 -8t25.5 -3h4q20 0 25 2.5t4 10.5z" />
    <glyph glyph-name="bracketright" unicode="]" horiz-adv-x="324" 
d="M214 701l-110 -781h-121q-5 0 -7.5 -3t-4.5 -18l-1 -9q-2 -16 -1 -19t6 -3h184l125 885h-184q-6 0 -8 -3.5t-4 -17.5l-1 -9q-2 -16 -0.5 -19t6.5 -3h121z" />
    <glyph glyph-name="braceleft" unicode="{" horiz-adv-x="323" 
d="M177 167q2 13 3 24.5t1 21.5q0 39 -15 61.5t-44 34.5q43 19 65 52t31 94l20 142q8 59 33 81.5t73 22.5h14q5 0 7 3t4 18l1 9q2 16 0 19t-8 3h-16q-66 0 -112.5 -35t-57.5 -114l-20 -143q-10 -65 -31.5 -91t-58.5 -31q-5 -1 -7 -5t-4 -18l-1 -10q-2 -14 -1.5 -18.5
t5.5 -5.5q31 -5 45.5 -20t14.5 -53q0 -11 -1.5 -24t-3.5 -25l-19 -136q-3 -23 -3 -42q0 -62 35.5 -88t94.5 -26h20q5 0 7 3.5t4 17.5l1 8q2 14 1 18.5t-6 4.5h-14q-42 0 -61 14.5t-19 54.5q0 14 3 35z" />
    <glyph glyph-name="bar" unicode="|" horiz-adv-x="270" 
d="M240 807q1 5 -3.5 7.5t-21.5 2.5h-8q-17 0 -21 -2.5t-5 -7.5l-151 -1070q-1 -5 3 -7.5t21 -2.5h8q16 0 21 2.5t6 7.5z" />
    <glyph glyph-name="braceright" unicode="}" horiz-adv-x="323" 
d="M153 454q-2 -13 -3 -24.5t-1 -21.5q0 -39 15 -61.5t44 -34.5q-43 -19 -65 -52t-31 -94l-20 -142q-8 -59 -33 -81.5t-73 -22.5h-14q-5 0 -7 -3t-4 -18l-1 -9q-2 -16 0 -19t8 -3h16q33 0 61.5 8.5t51 26.5t37 46t20.5 68l20 143q10 65 31 91t59 31q5 1 7 5t4 18l1 10
q2 14 1.5 18.5t-5.5 5.5q-31 5 -45.5 20t-14.5 53q0 11 1.5 24t3.5 25l19 136q3 22 3 42q0 62 -35.5 88t-94.5 26h-20q-5 0 -7 -3.5t-4 -17.5l-1 -8q-2 -14 -1 -18.5t6 -4.5h14q42 0 61 -14.5t19 -54.5q0 -14 -3 -35z" />
    <glyph glyph-name="hyphen" unicode="-" horiz-adv-x="374" 
d="M314 279q5 0 6.5 3.5t4.5 19.5l1 5q3 16 2 19.5t-6 3.5h-256q-5 0 -6.5 -3t-4.5 -19l-1 -5q-3 -16 -2 -20t6 -4h256z" />
    <glyph glyph-name="uni00AD" unicode="&#xad;" horiz-adv-x="374" 
d="M314 279q5 0 6.5 3.5t4.5 19.5l1 5q3 16 2 19.5t-6 3.5h-256q-5 0 -6.5 -3t-4.5 -19l-1 -5q-3 -16 -2 -20t6 -4h256z" />
    <glyph glyph-name="endash" unicode="&#x2013;" horiz-adv-x="490" 
d="M433 261q6 0 8.5 3.5t5.5 17.5l1 5q3 14 2 17.5t-7 3.5h-386q-5 0 -7 -3t-5 -17l-1 -5q-3 -14 -1.5 -18t6.5 -4h384z" />
    <glyph glyph-name="emdash" unicode="&#x2014;" horiz-adv-x="980" 
d="M924 261q6 0 8.5 3.5t5.5 17.5l1 5q3 14 2 17.5t-7 3.5h-877q-5 0 -7 -3t-5 -17l-1 -5q-3 -14 -1.5 -18t6.5 -4h875z" />
    <glyph glyph-name="underscore" unicode="_" horiz-adv-x="494" 
d="M451 -209q5 0 7 3.5t5 17.5l1 5q3 14 2.5 16.5t-5.5 2.5h-482q-4 0 -6 -3t-4 -16l-1 -5q-3 -14 -1.5 -17.5t6.5 -3.5h478z" />
    <glyph glyph-name="dagger" unicode="&#x2020;" horiz-adv-x="463" 
d="M451 412q5 0 7 3.5t4 18.5l1 6q2 15 1 19t-6 4h-171l35 248q1 5 -4.5 7t-22.5 2h-5q-17 0 -21.5 -2t-5.5 -7l-35 -248h-171q-5 0 -7 -3.5t-4 -18.5l-1 -6q-2 -15 -1 -19t6 -4h171l-76 -540q-1 -5 3.5 -7t22.5 -2h5q17 0 22 2t6 7l76 540h171z" />
    <glyph glyph-name="daggerdbl" unicode="&#x2021;" horiz-adv-x="463" 
d="M406 92q5 0 7 3.5t4 18.5l1 6q2 15 1 19t-6 4h-171l42 297h171q5 0 7 3.5t4 18.5l1 6q2 15 1 19t-6 4h-171l31 220q1 5 -4.5 7t-22.5 2h-4q-17 0 -22 -2t-6 -7l-31 -220h-171q-5 0 -7 -3.5t-4 -18.5l-1 -6q-2 -15 -1 -19t6 -4h171l-42 -297h-171q-5 0 -7 -3.5t-4 -18.5
l-1 -6q-2 -15 -1 -19t6 -4h171l-31 -220q-1 -5 3.5 -7t22.5 -2h4q17 0 22.5 2t6.5 7l31 220h171z" />
    <glyph glyph-name="section" unicode="&#xa7;" horiz-adv-x="491" 
d="M436 641q4 -2 7.5 -0.5t12.5 14.5l5 7q6 9 8.5 14.5t-1.5 7.5q-60 45 -150 45q-42 0 -78 -11.5t-63 -32.5t-42 -51.5t-15 -68.5q0 -43 22 -70q-41 -28 -67 -68t-26 -86q0 -30 11.5 -52t30 -37.5t43.5 -26.5t52 -19q28 -9 52.5 -17t42.5 -19t28 -25.5t10 -35.5
q0 -27 -12 -45.5t-31 -30.5t-43.5 -17t-48.5 -5q-34 0 -63.5 10t-55.5 27q-4 2 -7.5 0.5t-12.5 -14.5l-5 -7q-12 -18 -7 -22q64 -45 148 -45q38 0 74 10t64.5 31t45.5 52.5t17 74.5q0 20 -6 36.5t-17 29.5q42 28 68 70t26 90q0 33 -12 54.5t-33.5 36.5t-50 25t-59.5 19
q-35 10 -57.5 19t-35.5 19t-18 22t-5 27q0 27 11 46.5t29.5 32t42 18t47.5 5.5q38 0 68.5 -10t55.5 -27zM326 221q-26 17 -58 26.5t-63 19.5q-40 12 -68.5 29.5t-28.5 53.5t21 67t45 50q22 -14 48 -22.5t52 -16.5q23 -7 44.5 -14.5t38 -17.5t26.5 -24t10 -34
q0 -37 -20.5 -67t-46.5 -50z" />
    <glyph glyph-name="paragraph" unicode="&#xb6;" horiz-adv-x="605" 
d="M603 664q5 0 8 3t5 20l1 7q2 17 0.5 21.5t-6.5 4.5h-254q-69 0 -122.5 -17.5t-89.5 -49t-54.5 -75t-18.5 -95.5q0 -72 46.5 -119t131.5 -51l-62 -441q-1 -5 5 -7t22 -2h5q31 0 32 9l112 793h115l-112 -793q-1 -5 4 -7t23 -2h6q30 0 31 9l111 792h61z" />
    <glyph glyph-name="registered" unicode="&#xae;" horiz-adv-x="793" 
d="M457 731q-88 0 -163 -36t-130.5 -95.5t-87 -136t-31.5 -158.5q0 -68 22.5 -125.5t63.5 -99.5t97 -66t124 -24q88 0 162.5 37t129.5 97t86 137t31 157q0 67 -22 124.5t-62.5 99.5t-96.5 65.5t-123 23.5zM451 689q58 0 106 -20.5t82.5 -57t53.5 -87.5t19 -111
q0 -74 -28 -142.5t-76.5 -121.5t-113 -85t-137.5 -32q-58 0 -106 20.5t-82.5 57t-53.5 87t-19 111.5q0 73 28 142t76.5 122t113 85t137.5 32zM404 329q14 -43 31 -83.5t34 -66.5q4 -6 9.5 -7.5t19.5 -1.5h7q17 0 21 3.5t2 6.5q-22 38 -38.5 75t-31.5 82q16 4 31.5 10.5
t26.5 15.5q25 20 36.5 46t11.5 58q0 36 -21 59q-18 20 -49.5 29t-73.5 9h-113l-54 -387q-1 -4 3.5 -5.5t17.5 -1.5h6q24 0 25 7l21 152h78zM353 521h57q29 0 47 -4t30 -13q20 -15 20 -45q0 -20 -8.5 -38.5t-23.5 -29.5q-28 -22 -88 -22h-55z" />
    <glyph glyph-name="copyright" unicode="&#xa9;" horiz-adv-x="793" 
d="M535 551q-18 11 -41.5 17t-46.5 6q-52 0 -92.5 -21.5t-68 -56t-42 -78.5t-14.5 -90q0 -36 9.5 -66.5t28 -53t47.5 -35t68 -12.5q54 0 100 23q4 2 0 17l-2 8q-2 9 -3.5 12t-6.5 1q-20 -8 -39 -12t-42 -4q-56 0 -80.5 34t-24.5 85q0 37 9.5 73.5t29 66t49 47.5t69.5 18
q18 0 35.5 -4t34.5 -12q4 -2 6.5 0t8.5 13l3 5q7 11 7 14t-2 5zM457 731q-88 0 -163 -36t-130.5 -95.5t-87 -136t-31.5 -158.5q0 -68 22.5 -125.5t63.5 -99.5t97 -66t124 -24q88 0 162.5 37t129.5 97t86 137t31 157q0 67 -22 124.5t-62.5 99.5t-96.5 65.5t-123 23.5z
M451 689q58 0 106 -20.5t82.5 -57t53.5 -87.5t19 -111q0 -74 -28 -142.5t-76.5 -121.5t-113 -85t-137.5 -32q-58 0 -106 20.5t-82.5 57t-53.5 87t-19 111.5q0 73 28 142t76.5 122t113 85t137.5 32z" />
    <glyph glyph-name="trademark" unicode="&#x2122;" horiz-adv-x="874" 
d="M487 659l75 -258q1 -3 4.5 -4.5t16.5 -1.5h11q12 0 16 1t6 5l146 268l-26 -337q0 -4 3 -5t14 -1h11q12 0 16 1t4 5l30 388q1 5 -4 7.5t-22 2.5h-12q-15 0 -20 -1.5t-8 -6.5l-151 -276l-80 276q-2 5 -6.5 6.5t-19.5 1.5h-9q-17 0 -20.5 -2t-5.5 -8l-82 -387q-1 -4 2 -5.5
t14 -1.5h11q12 0 16 1t5 5zM83 730q-3 0 -4.5 -3t-3.5 -14l-1 -6q-2 -11 -1 -14.5t4 -3.5h124l-50 -357q-1 -4 2.5 -5t14.5 -1h12q20 0 21 6l50 357h125q3 0 4.5 3t3.5 15l1 6q2 11 1 14t-4 3h-299z" />
    <glyph glyph-name="quotedblleft" unicode="&#x201c;" horiz-adv-x="428" 
d="M414 721q-5 7 -8 8t-6 -1q-29 -22 -54.5 -48t-44 -55t-29.5 -59.5t-11 -60.5q0 -29 14.5 -44.5t40.5 -15.5t41 15t15 38q0 13 -5.5 22.5t-11.5 18t-11.5 17.5t-5.5 23q0 18 8 35t20 33t26 29.5t26 24.5q5 4 4.5 6.5t-5.5 9.5zM213 721q-5 7 -8 8t-6 -1q-29 -22 -54.5 -48
t-44 -55t-29.5 -59.5t-11 -60.5q0 -29 14.5 -44.5t40.5 -15.5t41 15t15 38q0 13 -5.5 22.5t-11.5 18t-11.5 17.5t-5.5 23q0 18 8 35t20 33t26 29.5t26 24.5q5 4 4.5 6.5t-5.5 9.5z" />
    <glyph glyph-name="quotedblright" unicode="&#x201d;" horiz-adv-x="428" 
d="M59 454q5 -7 8 -8t6 1q29 22 54.5 48t44 55t29.5 59.5t11 60.5q0 29 -14.5 44.5t-40.5 15.5t-41 -15t-15 -38q0 -13 5.5 -22.5t11.5 -18t11.5 -18t5.5 -22.5q0 -18 -8 -35t-20 -33t-26 -30t-26 -24q-5 -4 -4.5 -6.5t5.5 -9.5zM260 454q5 -7 8 -8t6 1q29 22 54.5 48t44 55
t29.5 59.5t11 60.5q0 29 -14.5 44.5t-40.5 15.5t-41 -15t-15 -38q0 -13 5.5 -22.5t11.5 -18t11.5 -18t5.5 -22.5q0 -18 -8 -35t-20 -33t-26 -30t-26 -24q-5 -4 -4.5 -6.5t5.5 -9.5z" />
    <glyph glyph-name="quoteleft" unicode="&#x2018;" horiz-adv-x="227" 
d="M213 721q-5 7 -8 8t-6 -1q-29 -22 -54.5 -48t-44 -55t-29.5 -59.5t-11 -60.5q0 -29 14.5 -44.5t40.5 -15.5t41 15t15 38q0 13 -5.5 22.5t-11.5 18t-11.5 17.5t-5.5 23q0 18 8 35t20 33t26 29.5t26 24.5q5 4 4.5 6.5t-5.5 9.5z" />
    <glyph glyph-name="quoteright" unicode="&#x2019;" horiz-adv-x="227" 
d="M59 454q5 -7 8 -8t6 1q29 22 54.5 48t44 55t29.5 59.5t11 60.5q0 29 -14.5 44.5t-40.5 15.5t-41 -15t-15 -38q0 -13 5.5 -22.5t11.5 -18t11.5 -18t5.5 -22.5q0 -18 -8 -35t-20 -33t-26 -30t-26 -24q-5 -4 -4.5 -6.5t5.5 -9.5z" />
    <glyph glyph-name="guillemotleft" unicode="&#xab;" horiz-adv-x="505" 
d="M74 309q2 8 3.5 10.5t4.5 6.5l158 194q5 5 8.5 5.5t13.5 -5.5l7 -4q9 -6 10 -9.5t-3 -8.5l-141 -194l87 -193q2 -4 0 -8t-13 -10l-7 -4q-11 -5 -15 -5t-7 5l-104 194q-2 5 -3.5 8.5t0.5 11.5zM276 309q2 8 3.5 10.5t4.5 6.5l158 194q5 5 8.5 5.5t13.5 -5.5l7 -4
q9 -6 10 -9.5t-3 -8.5l-141 -194l87 -193q2 -4 0 -8t-13 -10l-7 -4q-11 -5 -15 -5t-7 5l-104 194q-2 5 -3.5 8.5t0.5 11.5z" />
    <glyph glyph-name="guillemotright" unicode="&#xbb;" horiz-adv-x="505" 
d="M438 301q-2 -8 -3.5 -10.5t-4.5 -6.5l-158 -194q-5 -5 -8.5 -5.5t-13.5 5.5l-7 4q-9 6 -10 9.5t3 8.5l141 194l-87 193q-2 4 0 8t13 10l7 4q11 5 15 5t7 -5l104 -194q2 -5 3.5 -8.5t-0.5 -11.5zM236 301q-2 -8 -3.5 -10.5t-4.5 -6.5l-158 -194q-5 -5 -8.5 -5.5t-13.5 5.5
l-7 4q-9 6 -10 9.5t3 8.5l141 194l-87 193q-2 4 0 8t13 10l7 4q11 5 15 5t7 -5l104 -194q2 -5 3.5 -8.5t-0.5 -11.5z" />
    <glyph glyph-name="guilsinglleft" unicode="&#x2039;" horiz-adv-x="303" 
d="M74 309q2 8 3.5 10.5t4.5 6.5l158 194q5 5 8.5 5.5t13.5 -5.5l7 -4q9 -6 10 -9.5t-3 -8.5l-141 -194l87 -193q2 -4 0 -8t-13 -10l-7 -4q-11 -5 -15 -5t-7 5l-104 194q-2 5 -3.5 8.5t0.5 11.5z" />
    <glyph glyph-name="guilsinglright" unicode="&#x203a;" horiz-adv-x="303" 
d="M235 300q-2 -8 -3.5 -10.5t-4.5 -6.5l-158 -194q-5 -5 -8.5 -5.5t-13.5 5.5l-7 4q-9 6 -10 9.5t3 8.5l141 194l-87 193q-2 4 0 8t13 10l7 4q11 5 15 5t7 -5l104 -194q2 -5 3.5 -8.5t-0.5 -11.5z" />
    <glyph glyph-name="quotesinglbase" unicode="&#x201a;" horiz-adv-x="227" 
d="M11 -170q5 -7 8 -8t6 1q29 22 54.5 48t44 55t29.5 59.5t11 60.5q0 29 -14.5 44.5t-40.5 15.5t-41 -15t-15 -38q0 -13 5.5 -22.5t11.5 -18t11.5 -18t5.5 -22.5q0 -18 -8 -35t-20 -33t-26 -30t-26 -24q-5 -4 -4.5 -6.5t5.5 -9.5z" />
    <glyph glyph-name="quotedblbase" unicode="&#x201e;" horiz-adv-x="428" 
d="M11 -170q5 -7 8 -8t6 1q29 22 54.5 48t44 55t29.5 59.5t11 60.5q0 29 -14.5 44.5t-40.5 15.5t-41 -15t-15 -38q0 -13 5.5 -22.5t11.5 -18t11.5 -18t5.5 -22.5q0 -18 -8 -35t-20 -33t-26 -30t-26 -24q-5 -4 -4.5 -6.5t5.5 -9.5zM212 -170q5 -7 8 -8t6 1q29 22 54.5 48
t44 55t29.5 59.5t11 60.5q0 29 -14.5 44.5t-40.5 15.5t-41 -15t-15 -38q0 -13 5.5 -22.5t11.5 -18t11.5 -18t5.5 -22.5q0 -18 -8 -35t-20 -33t-26 -30t-26 -24q-5 -4 -4.5 -6.5t5.5 -9.5z" />
    <glyph glyph-name="grave" unicode="`" horiz-adv-x="346" 
d="M165 721q-18 0 -22.5 -2.5t-1.5 -7.5l70 -119q2 -4 6.5 -5t18.5 -1h4q24 0 21 7l-49 118q-2 5 -7 7.5t-25 2.5h-15z" />
    <glyph glyph-name="acute" unicode="&#xb4;" horiz-adv-x="346" 
d="M241 721q-20 0 -26 -2.5t-10 -7.5l-82 -117q-5 -8 18 -8h4q14 0 18.5 1t8.5 5l104 119q5 5 0.5 7.5t-24.5 2.5h-11z" />
    <glyph glyph-name="dieresis" unicode="&#xa8;" horiz-adv-x="346" 
d="M54 649q0 -17 11.5 -29.5t28.5 -12.5q25 0 39.5 16t14.5 36q0 17 -11.5 30t-29.5 13q-23 0 -38 -16.5t-15 -36.5zM252 649q0 -17 11.5 -29.5t28.5 -12.5q24 0 39 16t15 36q0 17 -11.5 30t-29.5 13q-23 0 -38 -16.5t-15 -36.5z" />
    <glyph glyph-name="circumflex" unicode="&#x2c6;" horiz-adv-x="346" 
d="M198 729q-14 0 -21.5 -2.5t-13.5 -7.5l-106 -100q-3 -3 -3 -5.5t5 -9.5l4 -6q8 -12 14 -7l131 97l97 -97q3 -3 5.5 -2t10.5 9l6 6q6 6 7 9t-1 6l-78 100q-5 5 -11 7.5t-20 2.5h-26z" />
    <glyph glyph-name="tilde" unicode="&#x2dc;" horiz-adv-x="346" 
d="M348 665q7 7 -1 19l-5 7q-5 8 -8 9t-6 -1q-18 -17 -32 -23.5t-29 -6.5q-17 0 -30.5 6t-27.5 13t-29.5 13t-35.5 6q-26 0 -50 -13.5t-40 -30.5q-6 -6 1 -18l4 -6q11 -14 17 -8q16 15 29.5 21.5t29.5 6.5t29.5 -6t27.5 -13t29.5 -13t36.5 -6q26 0 50 13.5t40 30.5z" />
    <glyph glyph-name="macron" unicode="&#xaf;" horiz-adv-x="346" 
d="M323 633q5 0 7 3.5t5 18.5l1 5q3 17 2 20.5t-6 3.5h-254q-5 0 -7 -3.5t-5 -18.5l-1 -5q-3 -15 -2 -19.5t6 -4.5h254z" />
    <glyph glyph-name="breve" unicode="&#x2d8;" horiz-adv-x="346" 
d="M195 595q59 0 98 27.5t48 81.5q1 4 -2.5 6t-16.5 2h-8q-13 0 -17 -1t-5 -6q-15 -69 -91 -69q-78 0 -78 68q0 5 -3.5 6.5t-16.5 1.5h-10q-13 0 -15 -1.5t-3 -4.5q-1 -5 -1 -8.5v-7.5q0 -45 34.5 -70t86.5 -25z" />
    <glyph glyph-name="dotaccent" unicode="&#x2d9;" horiz-adv-x="346" 
d="M153 654q0 -17 11.5 -29.5t30.5 -12.5q21 0 36 15.5t15 35.5q0 17 -11.5 29.5t-28.5 12.5q-23 0 -38 -15.5t-15 -35.5z" />
    <glyph glyph-name="ring" unicode="&#x2da;" horiz-adv-x="346" 
d="M108 657q0 -36 23.5 -57.5t57.5 -21.5q21 0 40.5 8t33.5 22t22.5 32.5t8.5 39.5q0 34 -23 56t-58 22q-49 0 -77 -29.5t-28 -71.5zM206 719q22 0 33 -13t11 -31q0 -24 -16.5 -41t-39.5 -17q-19 0 -31.5 12.5t-12.5 32.5q0 24 15 40.5t41 16.5z" />
    <glyph glyph-name="cedilla" unicode="&#xb8;" horiz-adv-x="346" 
d="M72 -109q23 5 52 5q26 0 41 -8.5t14 -28.5q0 -15 -6.5 -24.5t-16.5 -15.5t-22 -8t-23 -2q-28 0 -52 7q-4 1 -6 -1t-6 -13l-2 -6q-3 -9 -3 -12t3 -5q11 -5 29.5 -8.5t38.5 -3.5q54 0 88 26t34 74q0 31 -21 49.5t-57 18.5q-8 0 -15 -0.5t-13 -1.5l17 60q1 6 -19 6h-9
q-11 0 -14.5 -1t-4.5 -5z" />
    <glyph glyph-name="hungarumlaut" unicode="&#x2dd;" horiz-adv-x="346" 
d="M163 721q-18 0 -23.5 -2t-10.5 -8l-83 -118q-6 -7 19 -7h3q14 0 19 1t9 5l103 119q5 5 2 7.5t-23 2.5h-15zM317 721q-18 0 -24 -2t-11 -8l-82 -118q-6 -7 18 -7h4q14 0 19 1t9 5l103 119q5 5 0 7.5t-22 2.5h-14z" />
    <glyph glyph-name="ogonek" unicode="&#x2db;" horiz-adv-x="346" 
d="M214 -214q5 2 5 18v5q0 11 -2 14.5t-6 1.5q-23 -10 -52 -10q-46 0 -46 46q0 23 9.5 42.5t24 36t32 30t33.5 23.5q9 6 -13 6h-8q-17 0 -31 -7q-21 -11 -40 -25.5t-33.5 -32.5t-23 -38.5t-8.5 -43.5q0 -36 22 -58.5t64 -22.5q40 0 73 15z" />
    <glyph glyph-name="caron" unicode="&#x2c7;" horiz-adv-x="346" 
d="M204 583q23 0 34 10l106 100q4 3 3.5 5.5t-5.5 10.5l-4 6q-5 7 -7 8t-7 -2l-128 -97l-100 97q-3 3 -6 2t-10 -8l-6 -6q-7 -7 -7.5 -10t1.5 -6l78 -100q9 -10 32 -10h26z" />
    <glyph glyph-name="commaaccent" unicode="&#x326;" horiz-adv-x="346" 
d="M48 -268q5 -7 8 -7.5t6 1.5q45 34 76.5 80.5t31.5 93.5q0 22 -11 34.5t-31 12.5q-18 0 -31.5 -11t-13.5 -30q0 -11 3.5 -18.5t8 -14t8 -13.5t3.5 -17q0 -21 -17.5 -44.5t-45.5 -46.5q-5 -4 -3.5 -7.5t5.5 -8.5z" />
    <glyph glyph-name="grave.sc" horiz-adv-x="346" 
d="M205 763q-18 0 -22.5 -2.5t-1.5 -7.5l70 -119q2 -4 6.5 -5t18.5 -1h4q24 0 21 7l-49 118q-2 5 -7 7.5t-25 2.5h-15z" />
    <glyph glyph-name="acute.sc" horiz-adv-x="346" 
d="M281 763q-20 0 -26 -2.5t-10 -7.5l-82 -117q-5 -8 18 -8h4q14 0 18.5 1t8.5 5l104 119q5 5 0.5 7.5t-24.5 2.5h-11z" />
    <glyph glyph-name="dieresis.sc" horiz-adv-x="346" 
d="M94 691q0 -17 11.5 -29.5t28.5 -12.5q25 0 39.5 16t14.5 36q0 17 -11.5 30t-29.5 13q-23 0 -38 -16.5t-15 -36.5zM292 691q0 -17 11.5 -29.5t28.5 -12.5q24 0 39 16t15 36q0 17 -11.5 30t-29.5 13q-23 0 -38 -16.5t-15 -36.5z" />
    <glyph glyph-name="circumflex.sc" horiz-adv-x="346" 
d="M238 771q-14 0 -21.5 -2.5t-13.5 -7.5l-106 -100q-3 -3 -3 -5.5t5 -9.5l4 -6q8 -12 14 -7l131 97l97 -97q3 -3 5.5 -2t10.5 9l6 6q6 6 7 9t-1 6l-78 100q-5 5 -11 7.5t-20 2.5h-26z" />
    <glyph glyph-name="tilde.sc" horiz-adv-x="346" 
d="M388 707q7 7 -1 19l-5 7q-5 8 -8 9t-6 -1q-18 -17 -32 -23.5t-29 -6.5q-17 0 -30.5 6t-27.5 13t-29.5 13t-35.5 6q-26 0 -50 -13.5t-40 -30.5q-6 -6 1 -18l4 -6q11 -14 17 -8q16 15 29.5 21.5t29.5 6.5t29.5 -6t27.5 -13t29.5 -13t36.5 -6q26 0 50 13.5t40 30.5z" />
    <glyph glyph-name="macron.sc" horiz-adv-x="346" 
d="M363 675q5 0 7 3.5t5 18.5l1 5q3 17 2 20.5t-6 3.5h-254q-5 0 -7 -3.5t-5 -18.5l-1 -5q-3 -15 -2 -19.5t6 -4.5h254z" />
    <glyph glyph-name="breve.sc" horiz-adv-x="346" 
d="M235 637q59 0 98 27.5t48 81.5q1 4 -2.5 6t-16.5 2h-8q-13 0 -17 -1t-5 -6q-15 -69 -91 -69q-78 0 -78 68q0 5 -3.5 6.5t-16.5 1.5h-10q-13 0 -15 -1.5t-3 -4.5q-1 -5 -1 -8.5v-7.5q0 -45 34.5 -70t86.5 -25z" />
    <glyph glyph-name="dotaccent.sc" horiz-adv-x="346" 
d="M193 696q0 -17 11.5 -29.5t30.5 -12.5q21 0 36 15.5t15 35.5q0 17 -11.5 29.5t-28.5 12.5q-23 0 -38 -15.5t-15 -35.5z" />
    <glyph glyph-name="ring.sc" horiz-adv-x="346" 
d="M148 699q0 -36 23.5 -57.5t57.5 -21.5q21 0 40.5 8t33.5 22t22.5 32.5t8.5 39.5q0 34 -23 56t-58 22q-49 0 -77 -29.5t-28 -71.5zM246 761q22 0 33 -13t11 -31q0 -24 -16.5 -41t-39.5 -17q-19 0 -31.5 12.5t-12.5 32.5q0 24 15 40.5t41 16.5z" />
    <glyph glyph-name="hungarumlaut.sc" horiz-adv-x="346" 
d="M203 763q-18 0 -23.5 -2t-10.5 -8l-83 -118q-6 -7 19 -7h3q14 0 19 1t9 5l103 119q5 5 2 7.5t-23 2.5h-15zM357 763q-18 0 -24 -2t-11 -8l-82 -118q-6 -7 18 -7h4q14 0 19 1t9 5l103 119q5 5 0 7.5t-22 2.5h-14z" />
    <glyph glyph-name="caron.sc" horiz-adv-x="346" 
d="M244 625q23 0 34 10l106 100q4 3 3.5 5.5t-5.5 10.5l-4 6q-5 7 -7 8t-7 -2l-128 -97l-100 97q-3 3 -6 2t-10 -8l-6 -6q-7 -7 -7.5 -10t1.5 -6l78 -100q9 -10 32 -10h26z" />
    <glyph glyph-name="grave.cap" horiz-adv-x="346" 
d="M185 913q-18 0 -22.5 -2.5t-1.5 -7.5l70 -119q2 -4 6.5 -5t18.5 -1h4q24 0 21 7l-49 118q-2 5 -7 7.5t-25 2.5h-15z" />
    <glyph glyph-name="acute.cap" horiz-adv-x="346" 
d="M291 913q-20 0 -26 -2.5t-10 -7.5l-82 -117q-5 -8 18 -8h4q14 0 18.5 1t8.5 5l104 119q5 5 0.5 7.5t-24.5 2.5h-11z" />
    <glyph glyph-name="dieresis.cap" horiz-adv-x="346" 
d="M96 841q0 -17 11.5 -29.5t28.5 -12.5q25 0 39.5 16t14.5 36q0 17 -11.5 30t-29.5 13q-23 0 -38 -16.5t-15 -36.5zM294 841q0 -17 11.5 -29.5t28.5 -12.5q24 0 39 16t15 36q0 17 -11.5 30t-29.5 13q-23 0 -38 -16.5t-15 -36.5z" />
    <glyph glyph-name="circumflex.cap" horiz-adv-x="346" 
d="M242 921q-14 0 -21.5 -2.5t-13.5 -7.5l-106 -100q-3 -3 -3 -5.5t5 -9.5l4 -6q8 -12 14 -7l131 97l97 -97q3 -3 5.5 -2t10.5 9l6 6q6 6 7 9t-1 6l-78 100q-5 5 -11 7.5t-20 2.5h-26z" />
    <glyph glyph-name="tilde.cap" horiz-adv-x="346" 
d="M400 857q7 7 -1 19l-5 7q-5 8 -8 9t-6 -1q-18 -17 -32 -23.5t-29 -6.5q-17 0 -30.5 6t-27.5 13t-29.5 13t-35.5 6q-26 0 -50 -13.5t-40 -30.5q-6 -6 1 -18l4 -6q11 -14 17 -8q16 15 29.5 21.5t29.5 6.5t29.5 -6t27.5 -13t29.5 -13t36.5 -6q26 0 50 13.5t40 30.5z" />
    <glyph glyph-name="macron.cap" horiz-adv-x="346" 
d="M364 823q5 0 7 3.5t5 18.5l1 5q3 17 2 20.5t-6 3.5h-254q-5 0 -7 -3.5t-5 -18.5l-1 -5q-3 -15 -2 -19.5t6 -4.5h254z" />
    <glyph glyph-name="breve.cap" horiz-adv-x="346" 
d="M241 795q59 0 98 27.5t48 81.5q1 4 -2.5 6t-16.5 2h-8q-13 0 -17 -1t-5 -6q-15 -69 -91 -69q-78 0 -78 68q0 5 -3.5 6.5t-16.5 1.5h-10q-13 0 -15 -1.5t-3 -4.5q-1 -5 -1 -8.5v-7.5q0 -45 34.5 -70t86.5 -25z" />
    <glyph glyph-name="dotaccent.cap" horiz-adv-x="346" 
d="M195 836q0 -17 11.5 -29.5t30.5 -12.5q21 0 36 15.5t15 35.5q0 17 -11.5 29.5t-28.5 12.5q-23 0 -38 -15.5t-15 -35.5z" />
    <glyph glyph-name="ring.cap" horiz-adv-x="346" 
d="M158 857q0 -36 23.5 -57.5t57.5 -21.5q21 0 40.5 8t33.5 22t22.5 32.5t8.5 39.5q0 34 -23 56t-58 22q-49 0 -77 -29.5t-28 -71.5zM256 919q22 0 33 -13t11 -31q0 -24 -16.5 -41t-39.5 -17q-19 0 -31.5 12.5t-12.5 32.5q0 24 15 40.5t41 16.5z" />
    <glyph glyph-name="hungarumlaut.cap" horiz-adv-x="346" 
d="M233 913q-18 0 -23.5 -2t-10.5 -8l-83 -118q-6 -7 19 -7h3q14 0 19 1t9 5l103 119q5 5 2 7.5t-23 2.5h-15zM387 913q-18 0 -24 -2t-11 -8l-82 -118q-6 -7 18 -7h4q14 0 19 1t9 5l103 119q5 5 0 7.5t-22 2.5h-14z" />
    <glyph glyph-name="caron.cap" horiz-adv-x="346" 
d="M257 782q23 0 34 10l106 100q4 3 3.5 5.5t-5.5 10.5l-4 6q-5 7 -7 8t-7 -2l-128 -97l-100 97q-3 3 -6 2t-10 -8l-6 -6q-7 -7 -7.5 -10t1.5 -6l78 -100q9 -10 32 -10h26z" />
    <glyph glyph-name="periodcentered.cap" horiz-adv-x="236" 
d="M135 410q-27 0 -45.5 -20t-18.5 -46q0 -22 14 -36t34 -14q27 0 46 19.5t19 45.5q0 22 -14.5 36.5t-34.5 14.5z" />
    <glyph glyph-name="bullet.cap" horiz-adv-x="333" 
d="M58 361q0 -42 27.5 -71t70.5 -29q27 0 51 11t41.5 29t28 41t10.5 48q0 43 -27 72.5t-71 29.5q-27 0 -51 -11t-42 -29.5t-28 -42t-10 -48.5z" />
    <glyph glyph-name="parenleft.cap" horiz-adv-x="323" 
d="M85 240q0 -108 24.5 -188.5t61.5 -150.5q2 -4 6.5 -3.5t15.5 6.5l11 7q11 7 13.5 10.5t0.5 8.5q-34 67 -51.5 142.5t-17.5 165.5q0 137 46 274t140 254q4 5 3 8.5t-11 10.5l-9 7q-9 6 -13.5 6.5t-8.5 -3.5q-52 -59 -91.5 -126t-66 -138t-40 -145t-13.5 -146z" />
    <glyph glyph-name="parenright.cap" horiz-adv-x="323" 
d="M245 456q0 108 -24.5 188.5t-61.5 150.5q-2 4 -6.5 3.5t-15.5 -6.5l-11 -7q-11 -7 -13.5 -10.5t-0.5 -8.5q34 -67 51.5 -142.5t17.5 -165.5q0 -137 -46 -274t-140 -254q-4 -5 -3 -8.5t11 -10.5l9 -7q9 -6 13.5 -6.5t8.5 3.5q52 58 91.5 125.5t66 138.5t40 145t13.5 146z
" />
    <glyph glyph-name="bracketleft.cap" horiz-adv-x="324" 
d="M117 -33l110 781h121q5 0 7.5 3t4.5 18l1 9q2 16 1 19t-6 3h-184l-125 -885h184q6 0 8 3.5t4 17.5l1 9q2 16 0.5 19t-6.5 3h-121z" />
    <glyph glyph-name="bracketright.cap" horiz-adv-x="324" 
d="M214 748l-110 -781h-121q-5 0 -7.5 -3t-4.5 -18l-1 -9q-2 -16 -1 -19t6 -3h184l125 885h-184q-6 0 -8 -3.5t-4 -17.5l-1 -9q-2 -16 -0.5 -19t6.5 -3h121z" />
    <glyph glyph-name="braceleft.cap" horiz-adv-x="323" 
d="M177 214q2 13 3 24.5t1 21.5q0 39 -15 61.5t-44 34.5q43 19 65 52t31 94l20 142q8 59 33 81.5t73 22.5h14q5 0 7 3t4 18l1 9q2 16 0 19t-8 3h-16q-66 0 -112.5 -35t-57.5 -114l-20 -143q-10 -65 -31.5 -91t-58.5 -31q-5 -1 -7 -5t-4 -18l-1 -10q-2 -14 -1.5 -18.5
t5.5 -5.5q31 -5 45.5 -20t14.5 -53q0 -11 -1.5 -24t-3.5 -25l-19 -136q-3 -23 -3 -42q0 -62 35.5 -88t94.5 -26h20q5 0 7 3.5t4 17.5l1 8q2 14 1 18.5t-6 4.5h-14q-42 0 -61 14.5t-19 54.5q0 14 3 35z" />
    <glyph glyph-name="braceright.cap" horiz-adv-x="323" 
d="M153 501q-2 -13 -3 -24.5t-1 -21.5q0 -39 15 -61.5t44 -34.5q-43 -19 -65 -52t-31 -94l-20 -142q-8 -59 -33 -81.5t-73 -22.5h-14q-5 0 -7 -3t-4 -18l-1 -9q-2 -16 0 -19t8 -3h16q33 0 61.5 8.5t51 26.5t37 46t20.5 68l20 143q10 65 31 91t59 31q5 1 7 5t4 18l1 10
q2 14 1.5 18.5t-5.5 5.5q-31 5 -45.5 20t-14.5 53q0 11 1.5 24t3.5 25l19 136q3 22 3 42q0 62 -35.5 88t-94.5 26h-20q-5 0 -7 -3.5t-4 -17.5l-1 -8q-2 -14 -1 -18.5t6 -4.5h14q42 0 61 -14.5t19 -54.5q0 -14 -3 -35z" />
    <glyph glyph-name="questiondown.cap" horiz-adv-x="411" 
d="M309.981 523.968q-16.999 0 -22.999 -2q-6 -1.99902 -7 -7.99902l-6.99902 -49.9971q-4 -26.998 -11.999 -44.9971q-8 -17.999 -21.999 -32.998t-34.498 -29.498t-50.4971 -32.498q-56.9961 -34.998 -90.9941 -79.4951t-33.998 -107.494q0 -58.9961 33.998 -93.9941
q21.999 -25.998 56.4971 -39.4971q34.4971 -13.499 84.4941 -13.499q42.998 0 85.9951 11.999t74.9951 27.998q8 4 8.5 7.5q0.5 3.49902 -3.5 16.499l-3 9.99902q-4 12.999 -7.49902 16.499q-3.5 3.5 -10.5 0.5q-31.998 -13.999 -65.4961 -22.999
q-33.498 -8.99902 -67.4961 -8.99902q-67.9951 0 -95.9941 36.998q-8.99902 11.999 -14.499 27.498q-5.49902 15.499 -5.49902 33.498q0 24.998 6.99902 43.9971q7 18.999 19.999 34.998t31.498 29.498t40.498 27.498q36.9971 22.999 61.4961 42.998
q24.498 19.998 39.9971 39.9971t23.999 41.9971q8.49902 21.999 12.499 49.9971l7.99902 53.9971q1 7 -3.49902 9.49902q-4.5 2.5 -21.499 2.5h-9.99902zM326.98 622.962q26.998 0 42.4971 19.999t15.499 42.9971q0 18.999 -12.499 31.498t-30.498 12.499
q-26.999 0 -43.998 -18.498q-16.999 -18.499 -16.999 -41.498q0 -19.999 13 -33.498q12.999 -13.499 32.998 -13.499z" />
    <glyph glyph-name="exclamdown.cap" horiz-adv-x="301" 
d="M116.993 0q23.998 0 29.498 3q5.49902 3 6.49902 8.99902l51.9971 503.97q0 3 -3 4.99902q-2.99902 2 -15.999 2h-9.99902q-12.999 0 -16.499 -1.5q-3.5 -1.49902 -4.5 -5.49902l-87.9941 -503.97q-1 -5.99902 5.99902 -8.99902q7 -3 29.999 -3h13.999zM194.988 622.962
q26.998 0 42.4971 19.999t15.499 42.9971q0 18.999 -12.499 31.498t-30.498 12.499q-26.998 0 -43.9971 -18.498q-16.999 -18.499 -16.999 -41.498q0 -19.999 12.999 -33.498t32.998 -13.499z" />
    <glyph glyph-name="guillemotleft.cap" horiz-adv-x="505" 
d="M74 368q2 8 3.5 10.5t4.5 6.5l158 194q5 5 8.5 5.5t13.5 -5.5l7 -4q9 -6 10 -9.5t-3 -8.5l-141 -194l87 -193q2 -4 0 -8t-13 -10l-7 -4q-11 -5 -15 -5t-7 5l-104 194q-2 5 -3.5 8.5t0.5 11.5zM276 368q2 8 3.5 10.5t4.5 6.5l158 194q5 5 8.5 5.5t13.5 -5.5l7 -4
q9 -6 10 -9.5t-3 -8.5l-141 -194l87 -193q2 -4 0 -8t-13 -10l-7 -4q-11 -5 -15 -5t-7 5l-104 194q-2 5 -3.5 8.5t0.5 11.5z" />
    <glyph glyph-name="guillemotright.cap" horiz-adv-x="505" 
d="M438 358q-2 -8 -3.5 -10.5t-4.5 -6.5l-158 -194q-5 -5 -8.5 -5.5t-13.5 5.5l-7 4q-9 6 -10 9.5t3 8.5l141 194l-87 193q-2 4 0 8t13 10l7 4q11 5 15 5t7 -5l104 -194q2 -5 3.5 -8.5t-0.5 -11.5zM236 358q-2 -8 -3.5 -10.5t-4.5 -6.5l-158 -194q-5 -5 -8.5 -5.5t-13.5 5.5
l-7 4q-9 6 -10 9.5t3 8.5l141 194l-87 193q-2 4 0 8t13 10l7 4q11 5 15 5t7 -5l104 -194q2 -5 3.5 -8.5t-0.5 -11.5z" />
    <glyph glyph-name="guilsinglleft.cap" horiz-adv-x="303" 
d="M74 368q2 8 3.5 10.5t4.5 6.5l158 194q5 5 8.5 5.5t13.5 -5.5l7 -4q9 -6 10 -9.5t-3 -8.5l-141 -194l87 -193q2 -4 0 -8t-13 -10l-7 -4q-11 -5 -15 -5t-7 5l-104 194q-2 5 -3.5 8.5t0.5 11.5z" />
    <glyph glyph-name="guilsinglright.cap" horiz-adv-x="303" 
d="M235 358q-2 -8 -3.5 -10.5t-4.5 -6.5l-158 -194q-5 -5 -8.5 -5.5t-13.5 5.5l-7 4q-9 6 -10 9.5t3 8.5l141 194l-87 193q-2 4 0 8t13 10l7 4q11 5 15 5t7 -5l104 -194q2 -5 3.5 -8.5t-0.5 -11.5z" />
    <glyph glyph-name="hyphen.cap" horiz-adv-x="374" 
d="M314 321q5 0 6.5 3.5t4.5 19.5l1 5q3 16 2 19.5t-6 3.5h-256q-5 0 -6.5 -3t-4.5 -19l-1 -5q-3 -16 -2 -20t6 -4h256z" />
    <glyph glyph-name="uni00AD.cap" horiz-adv-x="374" 
d="M314 321q5 0 6.5 3.5t4.5 19.5l1 5q3 16 2 19.5t-6 3.5h-256q-5 0 -6.5 -3t-4.5 -19l-1 -5q-3 -16 -2 -20t6 -4h256z" />
    <glyph glyph-name="endash.cap" horiz-adv-x="490" 
d="M433 325q6 0 8.5 3.5t5.5 17.5l1 5q3 14 2 17.5t-7 3.5h-386q-5 0 -7 -3t-5 -17l-1 -5q-3 -14 -1.5 -18t6.5 -4h384z" />
    <glyph glyph-name="emdash.cap" horiz-adv-x="980" 
d="M924 325q6 0 8.5 3.5t5.5 17.5l1 5q3 14 2 17.5t-7 3.5h-877q-5 0 -7 -3t-5 -17l-1 -5q-3 -14 -1.5 -18t6.5 -4h875z" />
    <glyph glyph-name="afii00208.cap" horiz-adv-x="980" 
d="M924 325q6 0 8.5 3.5t5.5 17.5l1 5q3 14 2 17.5t-7 3.5h-877q-5 0 -7 -3t-5 -17l-1 -5q-3 -14 -1.5 -18t6.5 -4h875z" />
    <glyph glyph-name="A.sc" horiz-adv-x="549" 
d="M310 582q-20 0 -27 -2t-10 -8l-282 -563q-2 -5 3 -7t23 -2h7q29 0 33 9l71 145h253l31 -146q1 -5 7.5 -6.5t24.5 -1.5h8q18 0 25 2t5 7l-129 564q-2 5 -9.5 7t-26.5 2h-7zM307 517l64 -309h-219z" />
    <glyph glyph-name="B.sc" horiz-adv-x="495" 
d="M119 582l-82 -582h142q64 0 110.5 9.5t81.5 35.5q32 23 49.5 58t17.5 78q0 50 -28.5 79t-74.5 44q59 23 84 60.5t25 84.5q0 67 -49.5 100t-138.5 33h-137zM141 274h86q75 0 109 -25.5t34 -72.5q0 -61 -43 -91.5t-135 -30.5h-83zM177 528h72q69 0 98.5 -19.5t29.5 -66.5
q0 -26 -8 -45.5t-27 -36.5q-41 -35 -124 -35h-71z" />
    <glyph glyph-name="C.sc" horiz-adv-x="493" 
d="M481 532q6 11 7 15.5t-3 6.5q-61 38 -138 38t-134 -33.5t-94.5 -86.5t-56.5 -118t-19 -129q0 -53 13 -96.5t39.5 -74t66.5 -47.5t93 -17q83 0 155 33q9 4 3 24l-3 9q-7 21 -14 17q-28 -14 -59.5 -20t-61.5 -6q-43 0 -74 13.5t-51 38t-29.5 58t-9.5 73.5q0 51 13.5 105
t41 98.5t71 73.5t103.5 29q31 0 58 -7t58 -23q5 -2 8.5 0.5t9.5 13.5z" />
    <glyph glyph-name="D.sc" horiz-adv-x="561" 
d="M257 582q265 0 265 -233q0 -38 -6.5 -77.5t-21 -77t-37 -71t-53.5 -60.5q-42 -36 -95 -49.5t-130 -13.5h-142l82 582h138zM109 54h74q30 0 54.5 2.5t45.5 8t39 15t35 23.5q52 42 74.5 107t22.5 137q0 42 -10.5 76t-34.5 57t-63.5 35.5t-97.5 12.5h-71z" />
    <glyph glyph-name="E.sc" horiz-adv-x="459" 
d="M119 582l-82 -582h332q8 0 11 24l1 8q2 13 1 17.5t-6 4.5h-267l30 214h224q5 0 7 4.5t4 18.5l1 7q2 14 1 18.5t-6 4.5h-223l29 207h264q5 0 7 6t4 18l1 6q4 24 -5 24h-328z" />
    <glyph glyph-name="F.sc" horiz-adv-x="411" 
d="M118 582l-80 -573q-1 -5 5 -7t23 -2h6q16 0 22.5 2t7.5 7l36 259h203q5 0 6.5 4.5t3.5 18.5l1 7q2 14 1.5 18.5t-5.5 4.5h-203l30 207h242q8 0 11 24l1 8q2 13 1.5 17.5t-5.5 4.5h-307z" />
    <glyph glyph-name="G.sc" horiz-adv-x="551" 
d="M505 523q11 19 3 24q-27 20 -67.5 32.5t-91.5 12.5q-72 0 -129 -29.5t-96 -79.5t-60 -116.5t-21 -140.5q0 -108 55.5 -172t173.5 -64q48 0 95.5 10.5t90.5 28.5l38 278h-197q-5 0 -7 -3.5t-4 -14.5l-2 -13q-2 -15 -1.5 -19t5.5 -4h136l-27 -188q-23 -9 -54 -14.5
t-60 -5.5q-46 0 -79 13.5t-54 38t-30.5 58.5t-9.5 75q0 55 14.5 110t43.5 98.5t72.5 70.5t100.5 27q39 0 72 -8.5t64 -27.5q5 -3 9 -1.5t9 10.5z" />
    <glyph glyph-name="H.sc" horiz-adv-x="570" 
d="M146 582q-16 0 -21.5 -1.5t-6.5 -6.5l-80 -566q-1 -5 5 -6.5t22 -1.5h7q30 0 31 8l37 259h288l-37 -259q-1 -5 5 -6.5t22 -1.5h8q28 0 29 8l80 566q1 5 -5.5 6.5t-23.5 1.5h-8q-15 0 -21 -1.5t-7 -6.5l-36 -253h-287l35 253q1 5 -5.5 6.5t-23.5 1.5h-7z" />
    <glyph glyph-name="I.sc" horiz-adv-x="327" 
d="M112 582q-4 0 -6 -3.5t-4 -15.5l-1 -8q-2 -11 -1 -15t5 -4h63l-70 -490h-63q-4 0 -5.5 -3t-3.5 -16l-1 -8q-3 -19 4 -19h189q5 0 6.5 3t3.5 16l1 7q2 13 1.5 16.5t-5.5 3.5h-62l69 490h62q5 0 6.5 3t3.5 16l1 7q2 12 1 16t-5 4h-189z" />
    <glyph glyph-name="J.sc" horiz-adv-x="387" 
d="M324 582q-16 0 -22 -1.5t-7 -6.5l-57 -405q-9 -62 -35 -93t-82 -31q-23 0 -46 8.5t-44 20.5q-5 3 -9 1.5t-12 -13.5l-6 -10q-8 -13 -7.5 -17.5t4.5 -7.5q22 -17 53.5 -27t66.5 -10q80 0 124 43.5t57 132.5l58 408q1 5 -5.5 6.5t-23.5 1.5h-7z" />
    <glyph glyph-name="K.sc" horiz-adv-x="501" 
d="M146 582q-27 0 -28 -8l-80 -566q-1 -5 5 -6.5t22 -1.5h7q29 0 30 8l29 205l95 81l137 -286q2 -5 8.5 -6.5t24.5 -1.5h14q17 0 22 2.5t3 7.5l-159 328q78 69 133.5 131.5t78.5 103.5q3 5 -2 7t-20 2h-15q-13 0 -18.5 -1t-8.5 -6q-27 -41 -75.5 -93.5t-112.5 -109.5
l-95 -83l41 285q1 8 -29 8h-7z" />
    <glyph glyph-name="L.sc" horiz-adv-x="435" 
d="M146 582q-15 0 -21 -2t-7 -7l-77 -562q-1 -11 28 -11h280q3 0 5.5 4t4.5 19l1 9q2 14 0.5 18t-6.5 4h-245l73 519q1 5 -5.5 7t-23.5 2h-7z" />
    <glyph glyph-name="M.sc" horiz-adv-x="675" 
d="M174 582q23 0 28.5 -2.5t7.5 -7.5l113 -400l220 400q3 5 9.5 7.5t29.5 2.5h8q22 0 28.5 -2.5t5.5 -7.5l-54 -565q-1 -4 -6 -5.5t-22 -1.5h-7q-17 0 -22.5 1.5t-4.5 5.5l50 481l-210 -378q-2 -5 -8.5 -6t-23.5 -1h-6q-17 0 -22 1t-7 6l-107 373l-88 -476q-1 -4 -6 -5.5
t-22 -1.5h-6q-17 0 -22 1.5t-4 5.5l108 565q2 6 8 8t27 2h5z" />
    <glyph glyph-name="N.sc" horiz-adv-x="586" 
d="M154 582q21 0 27.5 -2t9.5 -8l236 -481l69 483q1 5 6.5 6.5t19.5 1.5h7q15 0 20.5 -2t4.5 -7l-79 -565q-1 -5 -8 -6.5t-25 -1.5h-5q-22 0 -28 2t-8 7l-237 482l-69 -483q-1 -8 -27 -8h-6q-16 0 -21.5 1.5t-4.5 6.5l80 566q1 5 7.5 6.5t26.5 1.5h4z" />
    <glyph glyph-name="O.sc" horiz-adv-x="601" 
d="M340 536q75 0 114.5 -47t39.5 -140q0 -54 -15 -108.5t-44 -97.5t-71.5 -70t-97.5 -27q-76 0 -115.5 46.5t-39.5 137.5q0 55 15 110t44 98.5t71.5 70.5t98.5 27zM350 592q-73 0 -130 -31t-96.5 -82t-60 -117t-20.5 -136q0 -117 58 -176.5t155 -59.5q73 0 130 31t96 82.5
t59.5 117.5t20.5 137q0 118 -58 176t-154 58z" />
    <glyph glyph-name="P.sc" horiz-adv-x="461" 
d="M119 582l-81 -574q-1 -5 5 -6.5t23 -1.5h6q30 0 31 8l32 220q45 -6 92 -6q61 0 104.5 17.5t71.5 47.5t41 68.5t13 80.5t-15.5 70.5t-43.5 45t-66.5 23.5t-84.5 7h-128zM177 528h65q34 0 61.5 -4.5t46.5 -15.5t29 -31t10 -51q0 -67 -39 -109t-123 -42q-46 0 -86 6z" />
    <glyph glyph-name="Q.sc" horiz-adv-x="600" 
d="M350 592q96 0 154 -58t58 -176q0 -50 -10.5 -98.5t-31 -91.5t-50 -78t-68.5 -59q25 -42 60 -75q7 -7 -11 -23l-10 -8q-10 -8 -14.5 -9.5t-8.5 2.5q-18 20 -35 42t-31 46q-23 -8 -46.5 -12t-49.5 -4q-97 0 -155 59.5t-58 176.5q0 70 20.5 136t60 117t96.5 82t130 31z
M340 536q-56 0 -98.5 -27t-71.5 -70.5t-44 -98.5t-15 -110q0 -91 39.5 -137.5t115.5 -46.5q32 0 59 9q-19 41 -29 80q-2 10 16 18l13 6q18 8 21 -4q11 -37 29 -75q29 21 51 51t37 65.5t23 74.5t8 78q0 93 -39.5 140t-114.5 47z" />
    <glyph glyph-name="R.sc" horiz-adv-x="487" 
d="M250 582q112 0 168 -45q43 -36 43 -97q0 -44 -18 -87t-62 -72q-16 -10 -36 -17t-43 -12q25 -71 50.5 -128t60.5 -113q3 -5 -2.5 -8t-24.5 -3h-11q-17 0 -24.5 3t-11.5 9q-30 50 -55 110t-45 120h-27h-76l-33 -234q-1 -8 -30 -8h-7q-29 0 -28 8l81 574h131zM143 294h81
q34 0 63 5t50 19q54 37 54 117q0 20 -5.5 37t-19.5 28q-20 16 -51 22t-71 6h-65z" />
    <glyph glyph-name="S.sc" horiz-adv-x="450" 
d="M413 528q6 11 7.5 15t-2.5 8q-5 5 -18 12t-31.5 13.5t-42 11t-48.5 4.5q-40 0 -75 -12t-60.5 -33.5t-40.5 -51.5t-15 -67q0 -50 32 -85t100 -71q22 -12 41 -23t33.5 -24t23 -30t8.5 -39q0 -51 -40.5 -81t-105.5 -30q-43 0 -73 12t-57 27q-6 4 -10.5 0.5t-12.5 -13.5
l-11 -14q-6 -8 -5.5 -12t4.5 -8q8 -8 24 -16t38 -15t48 -11.5t55 -4.5q47 0 86 13t66.5 36t43 54.5t15.5 68.5q0 33 -12 57.5t-32 43.5t-45.5 34.5t-52.5 30.5q-47 26 -71.5 49.5t-24.5 60.5q0 24 10 42.5t27.5 31t41 19t50.5 6.5q37 0 62 -10t45 -21q11 -6 21 14z" />
    <glyph glyph-name="T.sc" horiz-adv-x="450" 
d="M72 582q-5 0 -7 -4.5t-4 -18.5l-1 -8q-2 -14 -1 -19t6 -5h166l-74 -519q-1 -5 5 -6.5t21 -1.5h8q29 0 30 8l74 519h162q5 0 6.5 4.5t3.5 18.5l1 8q3 24 -4 24h-392z" />
    <glyph glyph-name="U.sc" horiz-adv-x="583" 
d="M142 582q-17 0 -22.5 -1.5t-6.5 -6.5l-51 -359q-2 -15 -3 -29.5t-1 -28.5q0 -85 50.5 -126t145.5 -41q106 0 170 56t81 176l49 351q1 9 -28 9h-7q-16 0 -22 -1.5t-7 -6.5l-50 -353q-14 -93 -58.5 -134.5t-120.5 -41.5q-67 0 -102 29t-35 96q0 11 1 25t3 26l50 353
q1 5 -5.5 6.5t-23.5 1.5h-7z" />
    <glyph glyph-name="V.sc" horiz-adv-x="519" 
d="M96 582q-18 0 -24.5 -2.5t-4.5 -7.5l117 -562q2 -6 9 -8t27 -2h11q20 0 28.5 2t11.5 8l266 562q2 5 -3 7.5t-22 2.5h-11q-16 0 -22 -2t-8 -7l-238 -509l-97 508q-1 5 -7.5 7.5t-23.5 2.5h-9z" />
    <glyph glyph-name="W.sc" horiz-adv-x="821" 
d="M103 582q-17 0 -23.5 -2t-5.5 -8l86 -561q1 -6 8.5 -8.5t27.5 -2.5h11q19 0 28 2.5t12 8.5l195 472l62 -473q1 -6 9.5 -8t29.5 -2h11q35 0 40 10l237 562q2 5 -3 7.5t-22 2.5h-9q-17 0 -22.5 -2t-7.5 -7l-209 -510l-67 510q-1 5 -6.5 7t-21.5 2h-14q-16 0 -21.5 -2
t-7.5 -7l-210 -511l-67 510q-1 10 -31 10h-9z" />
    <glyph glyph-name="X.sc" horiz-adv-x="484" 
d="M119 582q-19 0 -25 -3t-4 -8l123 -262l-224 -298q-9 -11 24 -11h6q17 0 25 2t12 7l183 247l113 -248q4 -8 32 -8h10q19 0 25 3t4 8l-140 291l204 269q9 11 -26 11h-7q-17 0 -23.5 -2t-10.5 -7l-161 -218l-100 219q-2 5 -9 6.5t-22 1.5h-9z" />
    <glyph glyph-name="Y.sc" horiz-adv-x="461" 
d="M91 582q-20 0 -26 -2.5t-4 -7.5l129 -347l-30 -217q-1 -5 4.5 -6.5t21.5 -1.5h8q29 0 30 8l31 217l229 347q6 10 -25 10h-10q-16 0 -23 -1.5t-10 -6.5l-187 -291l-101 290q-2 5 -8.5 7t-24.5 2h-4z" />
    <glyph glyph-name="Z.sc" horiz-adv-x="473" 
d="M109 582q-5 0 -6.5 -5t-3.5 -19l-1 -6q-2 -14 -1.5 -19.5t5.5 -5.5h283l-355 -450q-10 -13 -14.5 -22t-6.5 -20l-3 -25q-1 -5 3 -7.5t16 -2.5h361q4 0 6 4t4 18l1 9q2 15 1.5 19.5t-5.5 4.5h-307l356 452q9 12 14.5 21.5t7.5 20.5l3 23q1 6 -3 8t-18 2h-337z" />
    <glyph glyph-name="ampersand.sc" horiz-adv-x="606" 
d="M208 -10q58 0 107.5 21t89.5 59l87 -78q6 -6 24 12l9 9q10 10 12 15t-2 9l-90 81q35 42 60 92.5t42 107.5q2 5 -2.5 7t-20.5 2h-6q-14 0 -18.5 -2t-6.5 -7q-31 -96 -84 -162l-86 85q-35 34 -57.5 60.5t-35.5 48t-18 40.5t-5 39q0 54 32.5 82t83.5 28q50 0 94 -18
q5 -2 7.5 1.5t8.5 14.5l4 7q11 19 2 24q-24 11 -51 17.5t-57 6.5q-42 0 -77 -12t-60 -33.5t-39 -53t-14 -70.5q0 -26 8 -51.5t22 -50.5q-62 -29 -100 -76t-38 -110q0 -31 11.5 -57.5t33.5 -46t54.5 -30.5t75.5 -11zM219 43q-54 0 -86.5 27.5t-32.5 74.5q0 48 29 83.5
t70 55.5q11 -14 29.5 -35.5t44.5 -46.5l97 -94q-32 -29 -70 -47t-81 -18z" />
    <glyph glyph-name="at.sc" horiz-adv-x="709" 
d="M460 41q-2 9 -3.5 13t-6.5 2q-34 -9 -68 -14t-67 -5q-103 0 -162.5 50t-59.5 145q0 65 25.5 121.5t69.5 98.5t103 66.5t126 24.5q48 0 88 -12.5t68 -35.5t43.5 -57t15.5 -76q0 -26 -7.5 -58.5t-23 -61t-39 -48.5t-56.5 -20q-22 0 -32 10.5t-10 27.5q0 13 3 24t7 22
l58 165q1 3 -3 5.5t-17 2.5h-13q-12 0 -16.5 -1t-6.5 -6l-6 -12q-14 11 -32 18t-44 7q-44 0 -79.5 -19t-60.5 -48.5t-39 -66t-14 -71.5q0 -44 25 -72.5t76 -28.5q32 0 61 13.5t51 39.5q4 -23 24.5 -38t55.5 -15q51 0 87 23t59.5 58t34.5 76.5t11 78.5q0 52 -19.5 93.5
t-54.5 70t-82.5 44t-104.5 15.5q-81 0 -152 -27t-123.5 -75t-82.5 -114t-30 -144q0 -56 18.5 -100.5t53 -75t83 -46.5t108.5 -16q40 0 79.5 5.5t74.5 16.5q6 2 7.5 6t-0.5 14zM423 279q-18 -54 -49 -80q-27 -22 -58 -22q-29 0 -41.5 16t-12.5 42q0 25 8.5 52.5t25 51
t40 38.5t53.5 15q21 0 36.5 -7.5t26.5 -18.5z" />
    <glyph glyph-name="exclam.sc" horiz-adv-x="273" 
d="M127 160q20 0 21 6l71 405q1 6 -5.5 8.5t-27.5 2.5h-12q-21 0 -27.5 -2.5t-7.5 -7.5l-41 -406q0 -3 4 -4.5t16 -1.5h9zM100 -10q25 0 39.5 16.5t14.5 35.5q0 18 -12 30t-31 12q-24 0 -38 -16.5t-14 -36.5q0 -17 12 -29t29 -12z" />
    <glyph glyph-name="exclamdown.sc" horiz-adv-x="271" 
d="M89 0q-20 0 -27 2t-6 7l72 407q1 4 4.5 5t15.5 1h9q13 0 16.5 -1.5t3.5 -5.5l-41 -405q-1 -5 -7.5 -7.5t-27.5 -2.5h-12zM166 497q-19 0 -31 12.5t-12 30.5q0 20 14.5 36t38.5 16q18 0 29.5 -12t11.5 -29q0 -20 -13 -37t-38 -17z" />
    <glyph glyph-name="question.sc" horiz-adv-x="367" 
d="M130 158q27 0 28 8l6 46q4 31 24.5 52t66.5 44q53 26 83.5 65t30.5 94q0 32 -12.5 55.5t-33.5 39t-48 23t-55 7.5q-38 0 -74.5 -9.5t-64.5 -22.5q-5 -3 -5.5 -7t2.5 -16l3 -11q5 -21 16 -16q27 11 53.5 18t58.5 7q38 0 65.5 -19.5t27.5 -59.5t-24.5 -64t-62.5 -43
q-30 -15 -50.5 -29.5t-33 -30.5t-19.5 -34.5t-10 -41.5l-6 -45q-1 -5 4 -7.5t21 -2.5h9zM104 -10q25 0 39.5 16t14.5 36q0 17 -12 29.5t-31 12.5q-24 0 -38 -16.5t-14 -36.5q0 -18 12 -29.5t29 -11.5z" />
    <glyph glyph-name="questiondown.sc" horiz-adv-x="368" 
d="M258.984 423.975q-26.998 0 -27.998 -8l-6 -45.9971q-4 -30.998 -24.499 -51.9971q-20.498 -20.999 -66.4951 -43.9971q-52.9971 -25.999 -83.4951 -64.9961q-30.498 -38.998 -30.498 -93.9941q0 -31.998 12.499 -55.4971q12.499 -23.498 33.498 -38.9971
t47.9971 -22.999q26.998 -7.49902 54.9961 -7.49902q37.998 0 74.4961 9.49902q36.4971 9.49902 64.4961 22.499q4.99902 2.99902 5.49902 6.99902t-2.49902 15.999l-3 10.999q-5 20.999 -15.999 16q-26.999 -11 -53.4971 -17.999q-26.498 -7 -58.4961 -7
q-37.998 0 -65.4961 19.499t-27.498 59.4961q0 39.998 24.498 63.9961q24.499 23.999 62.4961 42.9971q29.998 14.999 50.4971 29.499q20.499 14.499 32.998 30.498t19.499 34.498q6.99902 18.498 9.99902 41.4971l6 44.9971q1 5 -4 7.5t-20.999 2.5h-8.99902z
M284.982 591.964q-24.998 0 -39.4971 -15.999t-14.499 -35.998q0 -16.999 11.999 -29.498t30.998 -12.499q23.998 0 37.9971 16.499q14 16.499 14 36.498q0 17.998 -12 29.498q-11.999 11.499 -28.998 11.499z" />
    <glyph glyph-name="slash.sc" horiz-adv-x="298" 
d="M26 0q17 0 22.5 2t7.5 7l255 564q2 5 -3 7t-21 2h-8q-16 0 -21.5 -1.5t-7.5 -6.5l-254 -564q-2 -5 2 -7.5t20 -2.5h8z" />
    <glyph glyph-name="backslash.sc" horiz-adv-x="298" 
d="M205 -10q17 0 22 2.5t4 7.5l-100 583q-1 5 -6 7t-21 2h-7q-17 0 -22 -2.5t-4 -7.5l99 -584q1 -4 6 -6t22 -2h7z" />
    <glyph glyph-name="parenleft.sc" horiz-adv-x="310" 
d="M193 -59q15 7 10 15q-29 57 -45 117t-16 140q0 119 40.5 228.5t115.5 196.5q5 7 -6 15l-11 8q-9 7 -14.5 6.5t-8.5 -3.5q-41 -41 -74 -92t-56.5 -109.5t-36 -122t-12.5 -128.5q0 -93 21.5 -160.5t53.5 -119.5q3 -5 8 -4t16 6z" />
    <glyph glyph-name="parenright.sc" horiz-adv-x="310" 
d="M28 -61q9 -6 13.5 -6.5t8.5 2.5q41 40 74.5 92t57 111t36.5 123t13 128q0 93 -22.5 160t-54.5 118q-3 5 -7.5 4.5t-15.5 -5.5l-10 -5q-12 -6 -14 -10.5t1 -9.5q28 -52 44 -114.5t16 -140.5q0 -118 -41 -226.5t-116 -196.5q-7 -7 10 -19z" />
    <glyph glyph-name="bracketleft.sc" horiz-adv-x="310" 
d="M210 -90q5 0 6.5 4.5t3.5 17.5l1 7q2 14 1 18t-6 4h-102l91 643h102q5 0 7 4.5t4 17.5l1 7q2 14 1 17.5t-6 3.5h-162l-105 -744h163z" />
    <glyph glyph-name="bracketright.sc" horiz-adv-x="310" 
d="M90 654q-5 0 -6.5 -4.5t-3.5 -17.5l-1 -7q-2 -14 -1 -18t6 -4h102l-89 -643h-102q-5 0 -7 -4.5t-4 -17.5l-1 -7q-2 -14 -1 -17.5t6 -3.5h162l103 744h-163z" />
    <glyph glyph-name="braceleft.sc" horiz-adv-x="310" 
d="M213 -89q5 0 6.5 5.5t3.5 17.5l1 6q3 22 -4 22h-14q-35 0 -50.5 15t-15.5 46q0 5 0.5 11.5t1.5 13.5l17 114q3 18 3 36q0 29 -12 50t-38 29q38 10 56 44.5t24 75.5l19 127q6 42 26.5 61.5t59.5 19.5h14q5 0 6 4.5l3 13.5l2 11q2 13 0.5 17t-6.5 4h-17q-58 0 -98 -31.5
t-50 -99.5l-19 -130q-6 -41 -24 -65t-49 -26q-7 0 -10 -22l-1 -7q-3 -22 4 -23q49 -7 49 -61q0 -8 -1 -17.5t-2 -17.5l-16 -110q-3 -17 -3 -31q0 -52 31.5 -77.5t84.5 -25.5h18z" />
    <glyph glyph-name="braceright.sc" horiz-adv-x="310" 
d="M83 655q-5 0 -6.5 -5.5t-3.5 -17.5l-1 -6q-3 -22 4 -22h14q35 0 50.5 -15t15.5 -46q0 -5 -0.5 -11.5t-1.5 -13.5l-17 -114q-3 -18 -3 -36q0 -29 12 -50t38 -29q-38 -10 -56 -44.5t-24 -75.5l-19 -127q-6 -42 -26.5 -61.5t-59.5 -19.5h-14q-5 0 -6 -4.5l-3 -13.5l-2 -11
q-2 -13 -0.5 -17t6.5 -4h17q58 0 98 31.5t50 99.5l19 130q6 41 24 65t49 26q7 0 10 22l1 7q3 22 -4 23q-49 7 -49 61q0 8 1 17.5t2 17.5l16 110q3 16 3 31q0 52 -31.5 77.5t-84.5 25.5h-18z" />
    <glyph glyph-name="FI.sc" horiz-adv-x="748" 
d="M118 582l-80 -573q-1 -5 5 -7t23 -2h6q16 0 22.5 2t7.5 7l36 259h203q5 0 6.5 4.5t3.5 18.5l1 7q2 14 1.5 18.5t-5.5 4.5h-203l30 207h242q8 0 11 24l1 8q2 13 1.5 17.5t-5.5 4.5h-307zM533 582q-4 0 -6 -3.5t-4 -15.5l-1 -8q-2 -11 -1 -15t5 -4h63l-70 -490h-63
q-4 0 -5.5 -3t-3.5 -16l-1 -8q-3 -19 4 -19h189q5 0 6.5 3t3.5 16l1 7q2 13 1.5 16.5t-5.5 3.5h-62l69 490h62q5 0 6.5 3t3.5 16l1 7q2 12 1 16t-5 4h-189z" />
    <glyph glyph-name="FL.sc" horiz-adv-x="856" 
d="M118 582l-80 -573q-1 -5 5 -7t23 -2h6q16 0 22.5 2t7.5 7l36 259h203q5 0 6.5 4.5t3.5 18.5l1 7q2 14 1.5 18.5t-5.5 4.5h-203l30 207h242q8 0 11 24l1 8q2 13 1.5 17.5t-5.5 4.5h-307zM567 582q-15 0 -21 -2t-7 -7l-77 -562q-1 -11 28 -11h280q3 0 5.5 4t4.5 19l1 9
q2 14 0.5 18t-6.5 4h-245l73 519q1 5 -5.5 7t-23.5 2h-7z" />
    <glyph glyph-name="zero.slash" 
d="M347 730q-61 0 -107 -24.5t-79.5 -64.5t-56 -92t-36.5 -107t-19.5 -108.5t-5.5 -97.5q0 -125 48 -185.5t136 -60.5q61 0 107 24.5t80 65.5t57 93.5t36.5 107.5t19.5 109t6 97q0 125 -49.5 184t-136.5 59zM463 481q0 -36 -4.5 -82t-15 -94t-27.5 -94t-42 -82.5
t-59.5 -58.5t-78.5 -22q-42 0 -68 22l273 535q11 -23 16.5 -54t5.5 -70zM339 672q40 0 67 -21l-273 -534q-20 48 -20 123q0 35 4 81t14.5 94t27 94t42 82.5t59.5 58.5t79 22z" />
    <glyph glyph-name="zero" unicode="0" 
d="M339 672q124 0 124 -191q0 -36 -4.5 -82t-15 -94t-27.5 -94t-42 -82.5t-59.5 -58.5t-78.5 -22q-61 0 -92 49t-31 143q0 35 4 81t14.5 94t27 94t42 82.5t59.5 58.5t79 22zM347 730q-61 0 -107 -24.5t-79.5 -64.5t-56 -92t-36.5 -107t-19.5 -108.5t-5.5 -97.5
q0 -125 48 -185.5t136 -60.5q61 0 107 24.5t80 65.5t57 93.5t36.5 107.5t19.5 109t6 97q0 125 -49.5 184t-136.5 59z" />
    <glyph glyph-name="one" unicode="1" horiz-adv-x="563" 
d="M119 54q-5 0 -8 -3.5t-5 -20.5l-1 -7q-2 -16 -0.5 -19.5t6.5 -3.5h288q5 0 7.5 3.5t4.5 19.5l1 7q2 17 1 20.5t-6 3.5h-105l92 659q1 7 -19 7h-13q-14 0 -22.5 -3t-19.5 -9l-191 -109q-6 -4 -6 -8t5 -16l4 -9q5 -12 9 -14.5t9 0.5l167 95l-83 -593h-115z" />
    <glyph glyph-name="two" unicode="2" 
d="M38 24q-2 -15 -0.5 -19.5t6.5 -4.5h370q5 0 7.5 4t4.5 21l1 8q2 18 1 21.5t-6 3.5h-303l146 147q38 39 77.5 81.5t72 88t53 94.5t20.5 103q0 76 -48 117t-124 41q-51 0 -99 -16t-87 -39q-6 -4 -6.5 -8t4.5 -17l3 -7q5 -13 9.5 -16t10.5 1q37 20 73.5 32t79.5 12
q51 0 84 -27.5t33 -83.5q0 -47 -20.5 -92.5t-51 -88t-65.5 -80t-64 -67.5l-166 -171q-8 -8 -10.5 -13.5t-4.5 -18.5z" />
    <glyph glyph-name="three" unicode="3" horiz-adv-x="563" 
d="M205 352q51 0 90 -12.5t64 -39.5q28 -30 28 -75q0 -39 -13 -74.5t-42 -58.5q-26 -23 -62.5 -33.5t-81.5 -10.5q-30 0 -63.5 7t-61.5 19q-8 3 -12 0t-12 -18l-3 -6q-7 -14 -7.5 -19t4.5 -8q29 -15 72 -24t88 -9q56 0 104 16.5t83 47.5t55 75.5t20 99.5q0 33 -11 58.5
t-29 44t-41.5 30t-47.5 16.5q33 10 61 29t48.5 45.5t31.5 58t11 65.5q0 31 -8.5 54.5t-22.5 41.5q-24 29 -61 43.5t-84 14.5q-41 0 -86 -11.5t-78 -28.5q-5 -3 -6 -7t3 -16l3 -10q4 -11 7 -14.5t12 0.5q29 12 64.5 21t69.5 9q32 0 57.5 -10t41.5 -32q10 -13 15.5 -29
t5.5 -37q0 -34 -14 -64t-37 -51q-28 -24 -66.5 -34.5t-85.5 -10.5h-16q-5 0 -7.5 -4t-4.5 -20l-1 -6q-2 -15 -0.5 -19t6.5 -4h20z" />
    <glyph glyph-name="four" unicode="4" 
d="M49 273q-7 -11 -12 -23t-7 -28l-2 -14q-2 -9 2.5 -12t16.5 -3h286l-26 -184q-1 -5 4.5 -7t22.5 -2h7q17 0 24 2t8 7l26 184h94q5 0 7 3t5 21l1 6q3 19 2 23t-7 4h-94l25 172q1 5 -5.5 7t-24.5 2h-7q-16 0 -22 -2t-7 -7l-25 -172h-241l277 459q4 7 -1 9t-26 2h-7
q-20 0 -24 -2t-7 -7z" />
    <glyph glyph-name="five" unicode="5" 
d="M226 662h272q5 0 7 4t4 21l1 8q2 17 1.5 21t-5.5 4h-338l-49 -348q31 8 62.5 13t66.5 5q92 0 130 -48q26 -32 26 -83q0 -47 -17.5 -92.5t-51.5 -74.5q-24 -20 -60.5 -32t-81.5 -12q-32 0 -62.5 6.5t-56.5 17.5q-8 3 -11.5 -1t-10.5 -15l-6 -10q-8 -13 -7.5 -17.5
t6.5 -7.5q9 -5 25 -10.5t36 -10t42.5 -7.5t44.5 -3q65 0 116.5 22t87.5 59t55 86.5t19 105.5q0 37 -10.5 66.5t-29.5 51.5q-54 63 -163 63q-22 0 -40 -2t-34 -6z" />
    <glyph glyph-name="six" unicode="6" 
d="M492 657q8 -3 12 -0.5t10 14.5l5 10q7 13 7 17.5t-4 6.5q-21 11 -49 18t-64 7q-59 0 -108 -23.5t-88 -62.5t-68 -91t-48.5 -109.5t-29 -116.5t-9.5 -113q0 -104 45.5 -164t143.5 -60q59 0 105.5 23t78.5 61.5t49 88.5t17 104q0 78 -43.5 128t-133.5 50q-45 0 -88.5 -15
t-80.5 -38q16 55 38.5 106t53.5 90t70 62.5t88 23.5q26 0 48 -4.5t43 -12.5zM138 336q35 21 78.5 37.5t87.5 16.5q36 0 60 -11t38.5 -29.5t20.5 -42.5t6 -50q0 -40 -12 -78t-34 -67.5t-54.5 -47.5t-72.5 -18q-68 0 -97.5 43.5t-29.5 130.5q0 59 9 116z" />
    <glyph glyph-name="seven" unicode="7" 
d="M531 641q6 11 9 19.5t5 19.5l5 31q1 5 -3 7t-18 2h-384q-5 0 -7.5 -3.5t-4.5 -20.5l-1 -8q-2 -16 -1 -21t6 -5h342l-358 -649q-4 -7 0 -10t24 -3h8q19 0 25 2.5t10 8.5z" />
    <glyph glyph-name="eight" unicode="8" 
d="M515 582q0 34 -13 61t-36 46.5t-54 30t-67 10.5q-45 0 -85.5 -15t-71 -42t-48.5 -63.5t-18 -78.5q0 -52 26 -85t75 -64q-38 -14 -72 -36.5t-59.5 -51.5t-40 -64.5t-14.5 -75.5q0 -41 14.5 -71.5t40.5 -51t61.5 -31t76.5 -10.5q53 0 100.5 17.5t83 48t56 72.5t20.5 92
q0 33 -12 57.5t-32.5 44.5t-46.5 35.5t-53 30.5q32 15 62.5 33.5t54 42t38 53t14.5 65.5zM241 46q-60 0 -98 29t-38 89q0 37 14.5 68t38 55t53 41.5t58.5 28.5q29 -15 56.5 -29.5t49.5 -31.5t35 -39t13 -51q0 -37 -15.5 -66.5t-41 -50.5t-58.5 -32t-67 -11zM335 675
q52 0 82.5 -27.5t30.5 -70.5q0 -31 -14.5 -57t-36.5 -46.5t-48 -36t-49 -25.5q-23 13 -43 26t-35 27.5t-23.5 32t-8.5 40.5q0 31 12.5 56.5t33 43.5t46.5 27.5t53 9.5z" />
    <glyph glyph-name="nine" unicode="9" 
d="M78 70q-8 4 -11 1.5t-9 -15.5l-5 -10q-7 -14 -7.5 -18t4.5 -7q23 -14 59 -22.5t71 -8.5q54 0 95 16.5t76 46.5q44 38 75 92.5t51 115t29.5 122.5t9.5 116q0 52 -11.5 94.5t-35 73t-59.5 47t-85 16.5q-59 0 -105 -23.5t-77.5 -61.5t-48.5 -87.5t-17 -101.5q0 -39 11 -72
t33 -57.5t55.5 -38t78.5 -13.5t89.5 15t79.5 38q-20 -83 -47 -142t-67 -94q-27 -24 -56.5 -35t-70.5 -11q-28 0 -55 6.5t-50 17.5zM437 384q-35 -21 -78.5 -37.5t-87.5 -16.5q-36 0 -60 10.5t-38.5 28.5t-20.5 41.5t-6 49.5q0 40 11 78.5t33 68.5t53.5 48.5t73.5 18.5
q68 0 98.5 -45t30.5 -133q0 -49 -9 -112z" />
    <glyph glyph-name="dollar" unicode="$" 
d="M45 47q25 -23 68.5 -38.5t95.5 -17.5l-12 -81q-1 -5 3 -6.5t18 -1.5h3q25 0 26 8l12 82q47 6 87.5 24.5t70 47t46.5 66.5t17 83q0 37 -13.5 65t-36 49.5t-51 38.5t-56.5 33q-23 13 -45 27t-38.5 30t-26.5 35.5t-10 43.5q0 33 13 59t34.5 43.5t50 26.5t58.5 9q37 0 68 -11
t58 -28q5 -3 9.5 -0.5t12.5 16.5l4 5q8 12 10 17t-3 9q-23 17 -53.5 29t-64.5 17l12 86q1 5 -4 6.5t-19 1.5h-3q-14 0 -18.5 -1.5t-5.5 -6.5l-11 -84q-44 -3 -83.5 -18.5t-69 -41t-46.5 -60.5t-17 -78q0 -34 11 -61t29.5 -49.5t43.5 -40.5t54 -34q26 -15 51 -29.5
t44.5 -31.5t31.5 -37.5t12 -47.5q0 -38 -17 -66.5t-43.5 -47.5t-59 -29t-63.5 -10q-37 0 -75.5 12t-73.5 38q-5 3 -9.5 -0.5t-13.5 -15.5l-5 -7q-10 -14 -11 -18.5t4 -8.5z" />
    <glyph glyph-name="cent" unicode="&#xa2;" 
d="M432 194q-31 -15 -63.5 -23t-70.5 -8q-76 0 -107.5 43t-31.5 115q0 50 14.5 94.5t41 78t63.5 53t83 19.5q33 0 62 -7.5t57 -28.5q5 -5 9.5 -3.5t15.5 16.5l5 7q10 14 10.5 18t-4.5 8q-24 19 -57 31.5t-69 14.5l14 100q1 5 -4 6.5t-20 1.5h-3q-14 0 -18 -1.5t-5 -6.5
l-14 -100q-61 -8 -108 -37.5t-78.5 -71.5t-48 -93t-16.5 -103q0 -40 9.5 -76t30 -64.5t52 -47t76.5 -23.5l-14 -98q-1 -5 3 -6.5t19 -1.5h3q14 0 19 1.5t6 6.5l14 97q41 2 76 12.5t66 27.5q6 4 6.5 7t-4.5 17l-3 9q-4 13 -6.5 16t-9.5 0z" />
    <glyph glyph-name="Euro" unicode="&#x20ac;" 
d="M428 413q4 0 5.5 3t4.5 17l1 5q3 14 1.5 18t-6.5 4h-233q29 97 86 154t144 57q30 0 60 -8.5t62 -25.5q5 -3 9 -1t11 15l6 11q7 12 8 17t-4 8q-29 20 -66 31.5t-83 11.5q-101 0 -182 -67.5t-122 -202.5h-69q-4 0 -5.5 -3t-4.5 -17l-1 -5q-3 -14 -1.5 -18t6.5 -4h63
q-6 -28 -10 -54t-6 -51h-76q-4 0 -5.5 -3t-4.5 -17l-1 -5q-3 -14 -1.5 -18t6.5 -4h80q1 -63 16.5 -115t45.5 -87q28 -32 67.5 -50.5t102.5 -18.5q44 0 82.5 10t74.5 27q7 3 7.5 8t-2.5 17l-3 10q-4 14 -6.5 16.5t-9.5 -0.5q-33 -14 -65.5 -21.5t-67.5 -7.5q-85 0 -126.5 54
t-43.5 158h221q4 0 5.5 3t4.5 17l1 5q3 14 1.5 18t-6.5 4h-227q3 54 16 105h240z" />
    <glyph glyph-name="florin" unicode="&#x192;" 
d="M472 385q5 0 7 3.5t4 17.5l1 6q2 15 1 18.5t-6 3.5h-130l19 72q13 49 26.5 82.5t31.5 54.5t40.5 30t53.5 9q12 0 25 -2t24 -5q6 -2 9.5 1t9.5 15l4 10q5 11 6 16t-4 8q-11 6 -29 10t-39 4q-43 0 -77.5 -13t-62 -41.5t-49 -74.5t-38.5 -113l-16 -63h-111q-5 0 -7 -3.5
t-4 -17.5l-1 -6q-2 -15 -1 -18.5t6 -3.5h105l-70 -267q-12 -47 -26 -80.5t-32 -54.5t-41 -31t-54 -10q-14 0 -26 2t-23 5q-5 2 -9 -1t-9 -17l-4 -10q-5 -11 -6 -15t4 -7q11 -6 28.5 -10t38.5 -4q41 0 75 12.5t62 41t50 74.5t40 114l68 258h136z" />
    <glyph glyph-name="sterling" unicode="&#xa3;" horiz-adv-x="563" 
d="M433 351q4 0 6 3t4 18l1 6q2 16 1.5 19t-5.5 3h-191l14 104q11 84 48 131.5t112 47.5q29 0 54.5 -7t46.5 -19q6 -3 10 -2t12 14l6 10q8 13 9 17.5t-4 7.5q-26 17 -60.5 26t-69.5 9q-54 0 -94 -16t-68.5 -46.5t-45.5 -74.5t-24 -100l-14 -102h-88q-5 0 -6.5 -3.5
t-3.5 -17.5l-1 -6q-2 -14 -1.5 -18t5.5 -4h88l-15 -108q-9 -60 -32 -103t-76 -78q-4 -3 -6.5 -9t-4.5 -20l-1 -6q-3 -17 -1.5 -22t6.5 -5h421q4 0 6 4t4 22l1 7q2 18 1.5 22t-4.5 4h-347q22 16 38.5 33.5t28.5 39.5t20.5 51t14.5 70l14 98h191z" />
    <glyph glyph-name="yen" unicode="&#xa5;" 
d="M372 381l199 327q4 6 -1.5 9t-23.5 3h-9q-17 0 -22 -1.5t-9 -7.5l-214 -371l-112 369q-2 7 -8.5 9t-26.5 2h-8q-21 0 -26.5 -3t-3.5 -9l103 -327h-95q-4 0 -6 -3t-4 -17l-1 -7q-2 -16 -1.5 -20t4.5 -4h119l17 -52l-5 -39h-143q-4 0 -6 -3t-4 -17l-1 -7q-2 -16 -1.5 -20
t4.5 -4h144l-26 -179q-1 -9 27 -9h8q31 0 32 9l26 179h142q4 0 6 3t4 17l1 7q2 17 1.5 20.5t-4.5 3.5h-143l5 39l32 52h119q3 0 5 3t4 17l1 7q2 17 1.5 20.5t-4.5 3.5h-96z" />
    <glyph glyph-name="numbersign" unicode="#" 
d="M253 0h11q10 0 14 2t7 8l70 205h114q5 0 7.5 3t4.5 14l1 6q2 12 0 14.5t-7 2.5h-105l75 215h105q5 0 7 2.5t4 13.5l1 7q2 11 0.5 14t-6.5 3h-97l69 200q2 5 -1 7.5t-14 2.5h-11q-10 0 -14 -2t-6 -8l-69 -200h-154l69 200q2 5 -1 7.5t-14 2.5h-12q-10 0 -14 -2t-6 -8
l-69 -200h-105q-5 0 -7 -2.5t-4 -13.5l-1 -7q-2 -11 -0.5 -14t6.5 -3h97l-77 -215h-95q-5 0 -7 -2.5t-4 -13.5l-1 -6q-2 -11 -0.5 -14.5t6.5 -3.5h88l-70 -205q-2 -5 0.5 -7.5t13.5 -2.5h13q9 0 13 2t7 8l70 205h154l-70 -205q-2 -5 0.5 -7.5t13.5 -2.5zM245 470h154
l-76 -215h-154z" />
    <glyph glyph-name="percent" unicode="%" horiz-adv-x="868" 
d="M262 683q76 0 76 -106q0 -29 -6 -64.5t-20.5 -66.5t-38 -52t-59.5 -21q-77 0 -77 106q0 30 6.5 65.5t21 66.5t38.5 51.5t59 20.5zM270 730q-53 0 -90 -24t-60.5 -61.5t-34.5 -83t-11 -87.5q0 -74 34.5 -111.5t95.5 -37.5q52 0 89.5 24.5t61.5 62t35 83t11 87.5
q0 74 -34.5 111t-96.5 37zM193 -5q-5 -8 -1.5 -10.5t18.5 -2.5h9q15 0 20 2.5t9 8.5l441 731q5 8 0.5 10.5t-19.5 2.5h-9q-17 0 -21 -2.5t-8 -8.5zM668 348q76 0 76 -106q0 -29 -6 -64.5t-20.5 -66.5t-38 -52t-59.5 -21q-77 0 -77 106q0 30 6.5 65.5t21 66.5t38.5 51.5
t59 20.5zM676 395q-53 0 -90 -24t-60.5 -61.5t-34.5 -83t-11 -87.5q0 -74 34.5 -111.5t95.5 -37.5q52 0 89.5 24.5t61.5 62t35 83t11 87.5q0 74 -34.5 111t-96.5 37z" />
    <glyph glyph-name="perthousand" unicode="&#x2030;" horiz-adv-x="1244" 
d="M262 683q76 0 76 -106q0 -29 -6 -64.5t-20.5 -66.5t-38 -52t-59.5 -21q-77 0 -77 106q0 30 6.5 65.5t21 66.5t38.5 51.5t59 20.5zM270 730q-53 0 -90 -24t-60.5 -61.5t-34.5 -83t-11 -87.5q0 -74 34.5 -111.5t95.5 -37.5q52 0 89.5 24.5t61.5 62t35 83t11 87.5
q0 74 -34.5 111t-96.5 37zM193 -5q-5 -8 -1.5 -10.5t18.5 -2.5h9q15 0 20 2.5t9 8.5l441 731q5 8 0.5 10.5t-19.5 2.5h-9q-17 0 -21 -2.5t-8 -8.5zM668 348q76 0 76 -106q0 -29 -6 -64.5t-20.5 -66.5t-38 -52t-59.5 -21q-77 0 -77 106q0 30 6.5 65.5t21 66.5t38.5 51.5
t59 20.5zM676 395q-53 0 -90 -24t-60.5 -61.5t-34.5 -83t-11 -87.5q0 -74 34.5 -111.5t95.5 -37.5q52 0 89.5 24.5t61.5 62t35 83t11 87.5q0 74 -34.5 111t-96.5 37zM1045 348q76 0 76 -106q0 -29 -6 -64.5t-20.5 -66.5t-38 -52t-59.5 -21q-77 0 -77 106q0 30 6.5 65.5
t21 66.5t38.5 51.5t59 20.5zM1053 395q-53 0 -90 -24t-60.5 -61.5t-34.5 -83t-11 -87.5q0 -74 34.5 -111.5t95.5 -37.5q52 0 89.5 24.5t61.5 62t35 83t11 87.5q0 74 -34.5 111t-96.5 37z" />
    <glyph glyph-name="plus" unicode="+" 
d="M231 126q-1 -5 3 -6.5t17 -1.5h3q23 0 24 8l30 215h208q5 0 7 3.5t5 17.5l1 5q3 14 2 17.5t-7 3.5h-210l31 214q1 8 -22 8h-3q-13 0 -17 -1.5t-5 -6.5l-31 -214h-209q-4 0 -5.5 -3t-4.5 -17l-1 -5q-3 -14 -1.5 -18t6.5 -4h209z" />
    <glyph glyph-name="minus" unicode="&#x2212;" 
d="M515 341q5 0 7.5 3.5t5.5 17.5l1 5q3 14 2 17.5t-7 3.5h-466q-4 0 -5.5 -3t-4.5 -17l-1 -5q-3 -14 -2 -18t7 -4h463z" />
    <glyph glyph-name="multiply" unicode="&#xd7;" 
d="M282 331l-169 -152q-5 -4 -8 -2t-11 11l-4 5q-8 10 -8.5 13t4.5 7l169 151l-127 151q-3 4 -2 7.5t12 12.5l5 4q12 10 16 11t8 -3l125 -150l168 150q5 4 8.5 3t11.5 -10l4 -4q8 -8 9 -12t-3 -8l-170 -152l127 -151q3 -4 1 -7.5t-12 -13.5l-4 -4q-11 -11 -15 -12t-8 4z" />
    <glyph glyph-name="less" unicode="&#x3c;" 
d="M49 374q2 13 4.5 17.5t8.5 7.5l475 251q6 3 9 1t8 -14l3 -7q5 -11 5 -15.5t-5 -7.5l-449 -237l382 -237q5 -3 3.5 -7.5t-9.5 -15.5l-5 -7q-8 -11 -11.5 -13.5t-9.5 0.5l-405 251q-5 3 -6 7.5t1 17.5z" />
    <glyph glyph-name="divide" unicode="&#xf7;" 
d="M516 341q5 0 7 3.5t5 17.5l1 5q3 14 2 17.5t-7 3.5h-466q-4 0 -5.5 -3t-4.5 -17l-1 -5q-3 -14 -1.5 -18t6.5 -4h464zM276 212q-24 0 -40 -17.5t-16 -39.5q0 -19 12.5 -31.5t29.5 -12.5q23 0 39.5 17t16.5 40q0 19 -12.5 31.5t-29.5 12.5zM333 619q-24 0 -40 -17.5
t-16 -39.5q0 -19 12.5 -31.5t29.5 -12.5q23 0 39.5 17t16.5 40q0 19 -12.5 31.5t-29.5 12.5z" />
    <glyph glyph-name="equal" unicode="=" 
d="M530 442q5 0 7 3.5t5 17.5l1 5q3 14 2 17.5t-7 3.5h-466q-4 0 -5.5 -3t-4.5 -17l-1 -5q-3 -14 -1.5 -18t6.5 -4h464zM502 239q5 0 7 3.5t5 17.5l1 5q3 14 2 17.5t-7 3.5h-466q-4 0 -5.5 -3t-4.5 -17l-1 -5q-3 -14 -1.5 -18t6.5 -4h464z" />
    <glyph glyph-name="logicalnot" unicode="&#xac;" 
d="M494 442l-27 -194q-1 -5 3 -6.5t17 -1.5h3q13 0 17.5 1.5t5.5 6.5l34 241h-475q-4 0 -5.5 -3t-4.5 -17l-1 -5q-3 -14 -1.5 -18t6.5 -4h428z" />
    <glyph glyph-name="greater" unicode="&#x3e;" 
d="M528 366q-2 -13 -4.5 -17.5t-8.5 -7.5l-475 -251q-6 -3 -9 -1t-8 14l-3 7q-5 11 -5 15.5t5 7.5l449 237l-382 237q-5 3 -3.5 7.5t9.5 15.5l5 7q8 11 11.5 14t9.5 -1l405 -251q5 -3 6 -7.5t-1 -17.5z" />
    <glyph glyph-name="notequal" unicode="&#x2260;" 
d="M501 239q5 0 7 3t5 17l1 5q3 15 2.5 18.5t-5.5 3.5h-254l106 156h166q5 0 7 3t5 17l1 5q3 15 2.5 18.5t-5.5 3.5h-144l63 94q2 3 -1 5t-14 2h-8q-12 0 -15.5 -1t-6.5 -6l-63 -94h-277q-5 0 -7 -3t-5 -17l-1 -5q-3 -15 -2.5 -18.5t5.5 -3.5h255l-106 -156h-167q-5 0 -7 -3
t-5 -17l-1 -5q-3 -15 -2.5 -18.5t5.5 -3.5h147l-64 -94q-3 -4 0 -6t15 -2h6q12 0 16.5 1.5t7.5 6.5l64 94h274z" />
    <glyph glyph-name="approxequal" unicode="&#x2248;" 
d="M413 447q-29 0 -52 12t-44 27q-24 17 -50.5 32.5t-64.5 15.5q-48 0 -85 -29.5t-61 -85.5q-2 -5 0.5 -7t11.5 -5l6 -2q11 -4 15 -3.5t6 5.5q17 37 43 57t58 20q29 0 50.5 -12t42.5 -28q23 -17 50.5 -32t67.5 -15q46 0 84 29t58 86q2 5 -0.5 6.5t-12.5 5.5l-8 3
q-10 4 -12.5 3t-4.5 -5q-17 -38 -40 -58t-58 -20zM384 243q-29 0 -52 12t-44 27q-24 17 -50.5 32.5t-64.5 15.5q-48 0 -85 -29.5t-61 -85.5q-2 -5 0.5 -7t11.5 -5l6 -2q11 -4 15 -3.5t6 5.5q17 37 43 57t58 20q29 0 50.5 -12t42.5 -28q23 -17 50.5 -32t67.5 -15q46 0 84 29
t58 86q2 5 -0.5 6.5t-12.5 5.5l-8 3q-10 4 -12.5 3t-4.5 -5q-17 -38 -40 -58t-58 -20z" />
    <glyph glyph-name="plusminus" unicode="&#xb1;" 
d="M530 421q4 0 6 2.5t4 16.5l1 6q2 14 1 18t-5 4h-210l30 214q1 5 -3 6.5t-18 1.5h-3q-14 0 -18 -1.5t-5 -6.5l-30 -214h-209q-4 0 -6 -2.5t-4 -16.5l-1 -6q-2 -14 -1 -18t5 -4h209l-30 -215q-1 -5 3 -6.5t18 -1.5h3q14 0 18 1.5t5 6.5l30 215h210zM471 0q4 0 6 2.5t4 16.5
l1 6q2 14 1 18t-5 4h-467q-4 0 -6 -2.5t-4 -16.5l-1 -6q-2 -14 -1 -18t5 -4h467z" />
    <glyph glyph-name="lessequal" unicode="&#x2264;" 
d="M58 440q-2 -12 -1 -17t6 -8l405 -251q5 -3 9 -0.5t12 13.5l5 7q8 11 9.5 15.5t-3.5 7.5l-383 234l450 240q5 3 5 7t-5 15l-3 7q-5 13 -8 15t-9 -1l-476 -251q-5 -3 -7.5 -8t-4.5 -17zM471 0q4 0 6 2.5t4 16.5l1 6q2 14 1 18t-5 4h-467q-4 0 -6 -2.5t-4 -16.5l-1 -6
q-2 -14 -1 -18t5 -4h467z" />
    <glyph glyph-name="greaterequal" unicode="&#x2265;" 
d="M541 448q2 12 0.5 17t-6.5 8l-404 251q-6 3 -10 0.5t-11 -13.5l-5 -7q-8 -11 -9.5 -15.5t3.5 -7.5l382 -234l-449 -240q-5 -3 -5 -7.5t5 -15.5l3 -7q4 -11 7 -13.5t10 0.5l475 251q6 3 8.5 8t4.5 17zM471 0q4 0 6 2.5t4 16.5l1 6q2 14 1 18t-5 4h-467q-4 0 -6 -2.5
t-4 -16.5l-1 -6q-2 -14 -1 -18t5 -4h467z" />
    <glyph glyph-name="asciicircum" unicode="^" 
d="M320 668l96 -325q2 -5 7 -7t23 -2h9q19 0 23.5 2.5t2.5 8.5l-122 375q-2 6 -7.5 8t-22.5 2h-4q-18 0 -23 -2t-9 -8l-226 -375q-4 -6 -0.5 -8.5t22.5 -2.5h9q17 0 23 2t9 7z" />
    <glyph glyph-name="asciitilde" unicode="~" 
d="M407 365q-33 0 -57.5 15t-49 33t-52.5 33t-67 15q-54 0 -95.5 -30.5t-68.5 -96.5q-4 -9 14 -13l7 -2q13 -4 17 -3.5t6 5.5q19 41 44.5 63t66.5 22q33 0 58 -15t49 -33t52 -33t67 -15q54 0 97 32t67 95q2 5 -1.5 7.5t-13.5 5.5l-7 2q-12 4 -15.5 3.5t-5.5 -5.5
q-20 -41 -45 -63t-67 -22z" />
    <glyph glyph-name="lozenge" unicode="&#x25ca;" horiz-adv-x="535" 
d="M231 58l-130 307l216 307l130 -307zM494 325q5 8 8 14.5t5 17.5l2 14q2 11 0.5 19t-4.5 15l-148 340q-2 4 -6 5.5t-17 1.5h-12q-13 0 -17 -1.5t-6 -5.5l-244 -340q-5 -8 -8 -14.5t-5 -17.5l-2 -14q-2 -11 -0.5 -19t4.5 -15l148 -340q2 -4 5 -5.5t16 -1.5h12q14 0 18 1.5
t7 5.5z" />
    <glyph glyph-name="degree" unicode="&#xb0;" horiz-adv-x="349" 
d="M214 691q75 0 75 -74q0 -24 -7.5 -46t-22 -38.5t-34.5 -26t-45 -9.5q-74 0 -74 73q0 24 7.5 46t22 38.5t34.5 26.5t44 10zM61 566q0 -52 30.5 -80.5t83.5 -28.5q36 0 65.5 13t50.5 35t32.5 51.5t11.5 61.5q1 55 -30.5 83.5t-84.5 28.5q-37 0 -66.5 -13.5t-50 -36
t-31.5 -52t-11 -62.5z" />
    <glyph glyph-name="quotesingle" unicode="'" horiz-adv-x="247" 
d="M131 449q15 0 18.5 1.5t4.5 5.5l44 254q1 6 -4 8t-22 2h-13q-17 0 -23 -2t-7 -8l-26 -254q-1 -4 2.5 -5.5t18.5 -1.5h7z" />
    <glyph glyph-name="quotedbl" unicode="&#x22;" horiz-adv-x="420" 
d="M132 449q14 0 18 1.5t5 5.5l44 254q1 6 -4 8t-22 2h-13q-18 0 -24 -2t-7 -8l-26 -254q-1 -4 3 -5.5t19 -1.5h7zM303 449q15 0 19 1.5t5 5.5l44 254q1 6 -4 8t-23 2h-13q-17 0 -23 -2t-7 -8l-26 -254q-1 -4 3 -5.5t18 -1.5h7z" />
    <glyph glyph-name="radical" unicode="&#x221a;" horiz-adv-x="631" 
d="M145 427l102 -498q1 -5 6.5 -7t25.5 -2h12q17 0 22.5 2t7.5 7l404 880q4 8 -1 10.5t-25 2.5h-4q-20 0 -25.5 -2.5t-8.5 -8.5l-365 -811l-87 460q-2 14 -5 19t-9 5h-111q-5 0 -6.5 -3.5t-4.5 -21.5l-1 -6q-3 -17 -2 -21.5t6 -4.5h69z" />
    <glyph glyph-name="currency" unicode="&#xa4;" 
d="M467 409q0 60 -27 99l88 118q5 6 0 8.5t-29 3.5q-20 0 -27.5 -2.5t-12.5 -9.5l-58 -80q-36 22 -86 22q-45 0 -83 -19l-34 77q-3 7 -10 9.5t-27 2.5q-23 0 -28 -2.5t-2 -9.5l51 -112q-39 -38 -58.5 -93.5t-19.5 -111.5q0 -59 26 -99l-87 -118q-5 -6 0 -8.5t29 -3.5
q20 0 27.5 2.5t12.5 9.5l58 79q34 -21 86 -21q46 0 82 18l35 -76q3 -7 10 -9.5t27 -2.5q23 0 28 2.5t2 9.5l-51 112q39 38 58.5 93t19.5 112zM165 316q0 33 9 68.5t27 64.5t45.5 47.5t64.5 18.5q26 0 44 -9t29.5 -24.5t16.5 -36t5 -43.5q0 -33 -9 -68.5t-27 -64.5
t-45.5 -47.5t-64.5 -18.5q-26 0 -44 9t-29.5 24.5t-16.5 36t-5 43.5z" />
    <glyph glyph-name="infinity" unicode="&#x221e;" horiz-adv-x="807" 
d="M376 328q-38 -45 -77.5 -74t-86.5 -29q-45 0 -72 24.5t-27 63.5q0 27 10 49.5t27 38.5t39.5 25t48.5 9q24 0 44 -8.5t36.5 -22.5t30.5 -34t27 -42zM402 293q32 -59 72.5 -88t99.5 -29q42 0 76 14t58 38t37.5 56t13.5 68q0 31 -11 56t-31 41.5t-46.5 25.5t-57.5 9
q-58 0 -105 -28.5t-95 -88.5q-32 60 -71 88.5t-97 28.5q-41 0 -75.5 -14t-59.5 -38.5t-39 -57t-14 -69.5q0 -31 11.5 -55t31 -40.5t46 -25t56.5 -8.5q58 0 105 28.5t95 88.5zM439 332q38 45 78 74t89 29q45 0 71 -25t26 -65q0 -27 -10 -49.5t-27.5 -38t-40 -24t-47.5 -8.5
t-45 8.5t-36.5 22.5t-30.5 33.5t-27 42.5z" />
    <glyph glyph-name="micro" unicode="&#xb5;" horiz-adv-x="566" 
d="M408 72q-1 -5 -1 -9.5v-9.5q0 -55 61 -55q12 0 20 1t13 3t6 5t3 15l1 7q2 15 1.5 18t-5.5 3q-21 0 -28.5 5.5t-7.5 25.5q0 7 1 17t3 21l56 399q1 5 -4.5 7.5t-22.5 2.5h-8q-17 0 -22 -2.5t-6 -7.5l-28 -196q-6 -46 -11.5 -79.5t-10.5 -55.5q-8 -34 -18.5 -54t-28.5 -37
q-25 -23 -55 -33t-67 -10q-70 0 -97 41q-15 22 -15 66q0 20 2.5 43t6.5 52l37 263q1 5 -4.5 7.5t-22.5 2.5h-8q-17 0 -22 -2.5t-6 -7.5l-80 -571q-6 -45 -10.5 -86t-8.5 -84q-1 -6 4.5 -8t25.5 -2h6q17 0 24 2.5t7 9.5q2 46 6.5 91.5t9.5 86.5l12 88q15 -25 47 -40t73 -15
q60 0 100.5 22t71.5 60z" />
    <glyph glyph-name="partialdiff" unicode="&#x2202;" horiz-adv-x="540" 
d="M161 656q21 8 46 13t51 5q49 0 81.5 -23.5t52 -62.5t28 -90t8.5 -106q-29 23 -68.5 38t-84.5 15q-56 0 -101 -22t-76 -59t-47.5 -85t-16.5 -99q0 -41 12 -76t36 -60.5t58.5 -39.5t79.5 -14q58 0 104 22t79.5 62.5t54.5 97.5t31 128q4 25 5.5 50t1.5 51q0 64 -12.5 123
t-40.5 105t-71.5 73.5t-105.5 27.5q-36 0 -66.5 -7t-55.5 -19q-5 -3 -6 -6.5t3 -15.5l3 -10q4 -12 7.5 -15t9.5 -1zM425 336q-6 -67 -21.5 -120.5t-40 -91t-59 -58t-77.5 -20.5q-62 0 -93.5 36t-31.5 96q0 40 11 78.5t33 68t54.5 47.5t74.5 18q44 0 82.5 -16.5t67.5 -37.5z
" />
    <glyph glyph-name="summation" unicode="&#x2211;" horiz-adv-x="556" 
d="M479 -167q5 0 8 3.5t5 21.5l1 7q2 17 0.5 21t-6.5 4h-423l346 363q5 5 6.5 10t3.5 18l2 11q2 11 1.5 16t-3.5 10l-239 345h415q5 0 8 4t5 21l1 7q2 17 0.5 21t-6.5 4h-484q-14 0 -18 -2t-5 -8l-2 -16q-3 -19 12 -41l254 -367l-365 -389q-12 -13 -16.5 -19.5t-6.5 -17.5
l-2 -15q-1 -6 2.5 -9t17.5 -3h488z" />
    <glyph glyph-name="product" unicode="&#x220f;" horiz-adv-x="684" 
d="M700 663q5 0 7 3.5t5 20.5l1 6q3 18 1.5 22.5t-6.5 4.5h-607q-5 0 -7 -3.5t-5 -20.5l-1 -6q-3 -17 -1.5 -22t6.5 -5h91l-115 -821q-1 -5 4.5 -7t22.5 -2h9q18 0 24.5 2t7.5 7l115 821h289l-115 -821q-1 -5 4.5 -7t22.5 -2h9q18 0 24.5 2t7.5 7l115 821h91z" />
    <glyph glyph-name="integral" unicode="&#x222b;" horiz-adv-x="356" 
d="M28 -89q-16 0 -38 5q-5 1 -8 -2t-8 -18l-3 -9q-5 -14 -5 -19.5t6 -7.5q11 -3 24 -5t27 -2q63 0 102.5 23.5t62 63t30.5 92t8 109.5q0 40 -3.5 78.5t-7.5 76t-7.5 75.5t-3.5 77q0 45 4 85.5t17 71t38.5 49t67.5 18.5q16 0 38 -5q7 -2 9.5 1.5t7.5 18.5l4 13q7 20 -3 23
q-11 3 -24 5t-27 2q-63 0 -102.5 -22.5t-62 -61.5t-30.5 -91.5t-8 -112.5q0 -40 3.5 -78.5t7.5 -76t7.5 -75.5t3.5 -77q0 -46 -4 -86.5t-17 -71t-38.5 -48.5t-67.5 -18z" />
    <glyph glyph-name="litre" unicode="&#x2113;" horiz-adv-x="240" 
d="M152 460q6 43 12 85t11 80t8.5 70t5.5 56q1 5 -5 7t-23 2h-8q-18 0 -22.5 -2t-5.5 -7q-3 -29 -6.5 -58t-7 -61t-8.5 -68.5t-11 -80.5l-50 -351q-6 -42 -6 -66q0 -30 16.5 -48t51.5 -18q11 0 23 2t21 5q6 2 7.5 6t1.5 15v7q0 13 -1.5 16t-5.5 2q-5 -1 -10 -1.5t-12 -0.5
q-15 0 -21 7t-6 23q0 13 3 31z" />
    <glyph glyph-name="estimated" unicode="&#x212e;" horiz-adv-x="922" 
d="M872 352v8q0 77 -32.5 144.5t-88 117.5t-130 79t-159.5 29t-160 -29t-131 -79t-88.5 -117.5t-32.5 -144.5t32.5 -144t88.5 -117.5t131 -79.5t160 -29q100 0 184 39t141 105h-60q-48 -57 -116 -89.5t-148 -32.5q-75 0 -140 30t-113 78q-9 12 -9 24v202q0 6 5 6h666z
M721 377q0 -6 -5 -6h-510q-5 0 -5 6v199q0 16 10 26q49 48 113 77t139 29q72 0 136 -27.5t112 -75.5q10 -12 10 -25v-203z" />
    <glyph glyph-name="numero" unicode="&#x2116;" horiz-adv-x="1043" 
d="M1029 509q0 -46 -13.5 -92.5t-39.5 -83.5t-66 -60t-92 -23q-74 0 -113 43t-39 116q0 46 13.5 92.5t40 83.5t66 60t91.5 23q73 0 112.5 -43t39.5 -116zM968 502q0 23 -5 43.5t-16.5 36t-29.5 24.5t-44 9q-37 0 -64.5 -18.5t-45.5 -47.5t-27 -64.5t-9 -68.5q0 -23 5 -43.5
t16.5 -36t29.5 -24.5t44 -9q37 0 64.5 18.5t45.5 47.5t27 64.5t9 68.5zM183 625l-87 -616q-1 -5 -6.5 -7t-22.5 -2h-6q-17 0 -22 2t-4 7l99 702q1 5 8 7t28 2h6q21 0 28 -2t10 -8l280 -615l86 616q1 5 6 7t22 2h6q17 0 22.5 -2t4.5 -7l-99 -702q-1 -5 -8.5 -7t-26.5 -2h-6
q-23 0 -29.5 2t-8.5 8z" />
    <glyph glyph-name="zero.otab" 
d="M314 535q69 0 104.5 -47.5t35.5 -127.5q0 -48 -11.5 -103t-36 -101.5t-64 -77.5t-95.5 -31q-71 0 -104.5 47t-33.5 127q0 50 10.5 105.5t35 102t63.5 76.5t96 30zM236 -10q79 0 134 34t89.5 88t49.5 120.5t15 131.5q0 56 -15 99t-41 71.5t-62 43t-79 14.5
q-78 0 -133 -34.5t-89.5 -88.5t-50 -120.5t-15.5 -130.5q0 -56 14.5 -99t41 -71.5t62.5 -43t79 -14.5z" />
    <glyph glyph-name="one.otab" horiz-adv-x="563" 
d="M409 0q5 0 7 4.5t4 17.5l1 10q2 13 0.5 17t-6.5 4h-105l75 521q1 8 -19 8h-13q-14 0 -22.5 -3t-19.5 -8l-188 -89q-12 -4 -1 -24l5 -10q10 -19 19 -15l164 73l-68 -453h-115q-5 0 -7.5 -4t-4.5 -18l-1 -10q-2 -14 0 -17.5t7 -3.5h288z" />
    <glyph glyph-name="two.otab" 
d="M424 0q8 0 11 25l1 8q2 14 0.5 19.5t-6.5 5.5h-303l142 115q48 39 87.5 73t67.5 67t43.5 66.5t15.5 72.5q0 67 -49.5 103.5t-127.5 36.5q-51 0 -98.5 -13t-85.5 -33q-6 -3 -6.5 -7.5t4.5 -15.5l4 -9q5 -11 9.5 -13.5t10.5 -0.5q36 15 72.5 24.5t79.5 9.5q53 0 86.5 -24
t33.5 -69q0 -30 -11 -54t-35 -49.5t-60.5 -56.5t-87.5 -74l-160 -136q-8 -7 -10 -15t-4 -20l-1 -11q-2 -14 0 -19.5t7 -5.5h370z" />
    <glyph glyph-name="three.otab" horiz-adv-x="563" 
d="M165 212q-5 0 -6.5 4t0.5 19l1 6q2 16 4.5 20t7.5 4h16q47 0 85.5 10.5t66.5 34.5q23 21 37 51t14 64q0 21 -5.5 37t-15.5 29q-16 22 -41.5 32t-57.5 10q-34 0 -69.5 -9t-64.5 -21q-9 -4 -12 -0.5t-7 14.5l-3 10q-4 12 -3 16t6 7q33 17 78 28.5t86 11.5q47 0 84 -14.5
t61 -43.5q14 -18 22.5 -41.5t8.5 -54.5q0 -34 -11 -65.5t-31.5 -58t-48.5 -45.5t-61 -29q24 -5 47.5 -16.5t41.5 -30t29 -44t11 -58.5q0 -55 -20 -99.5t-55 -75.5t-83 -47.5t-104 -16.5q-45 0 -88 9t-72 24q-5 3 -4.5 8t7.5 19l3 6q8 15 12 18t12 0q28 -12 61.5 -19t63.5 -7
q45 0 81.5 10.5t62.5 33.5q29 23 42 58.5t13 74.5q0 45 -28 75q-25 27 -64 39.5t-90 12.5h-20z" />
    <glyph glyph-name="four.otab" 
d="M312 571q3 5 7 7t24 2h7q21 0 26 -2t1 -9l-277 -459h241l25 172q1 5 7 7t22 2h7q18 0 24.5 -2t5.5 -7l-25 -172h94q6 0 7 -4t-2 -23l-1 -6q-3 -18 -5 -21t-7 -3h-94l-26 -184q-1 -5 -8 -7t-24 -2h-7q-17 0 -22.5 2t-4.5 7l26 184h-286q-12 0 -16.5 3t-2.5 12l2 14
q2 16 7 28t12 23z" />
    <glyph glyph-name="five.otab" 
d="M184 296q16 4 34 6t40 2q109 0 163 -63q19 -22 29.5 -51.5t10.5 -66.5q0 -56 -19 -105.5t-55 -86.5t-87.5 -59t-116.5 -22q-22 0 -44.5 3t-42.5 7.5t-36 10t-25 10.5q-6 3 -6.5 7.5t7.5 17.5l6 10q7 11 10.5 15t11.5 1q26 -11 56.5 -17.5t62.5 -6.5q45 0 81.5 12t60.5 32
q34 29 51.5 74.5t17.5 92.5q0 51 -26 83q-38 48 -130 48q-35 0 -66.5 -5t-62.5 -13l49 348h338q5 0 5.5 -4t-1.5 -21l-1 -8q-2 -17 -4 -21t-7 -4h-272z" />
    <glyph glyph-name="six.otab" 
d="M492 657q-21 8 -43 12.5t-48 4.5q-49 0 -88 -23.5t-70 -62.5t-53.5 -90t-38.5 -106q37 23 80.5 38t88.5 15q90 0 133.5 -50t43.5 -128q0 -54 -17 -104t-49 -88.5t-78.5 -61.5t-105.5 -23q-98 0 -143.5 60t-45.5 164q0 54 9.5 113t29 116.5t48.5 109.5t68 91t88 62.5
t108 23.5q36 0 64 -7t49 -18q4 -2 4 -6.5t-7 -17.5l-5 -10q-6 -12 -10 -14.5t-12 0.5zM138 336q-9 -57 -9 -116q0 -87 29.5 -130.5t97.5 -43.5q40 0 72.5 18t54.5 47.5t34 67.5t12 78q0 26 -6 50t-20.5 42.5t-38.5 29.5t-60 11q-44 0 -87.5 -16.5t-78.5 -37.5z" />
    <glyph glyph-name="seven.otab" 
d="M148 -129q-4 -6 -10 -8.5t-25 -2.5h-8q-20 0 -24 3t0 10l358 649h-342q-5 0 -6 5t1 21l1 8q2 17 4.5 20.5t7.5 3.5h384q14 0 18 -2t3 -7l-5 -31q-2 -11 -5 -19.5t-9 -19.5z" />
    <glyph glyph-name="eight.otab" 
d="M520 582q0 -36 -14.5 -65.5t-38 -53t-54 -42t-62.5 -33.5q27 -15 53 -30.5t46.5 -35.5t32.5 -44.5t12 -57.5q0 -50 -20.5 -92t-56 -72.5t-83 -48t-100.5 -17.5q-41 0 -76.5 10.5t-61.5 31t-40.5 51t-14.5 71.5q0 40 14.5 75.5t40 64.5t59.5 51.5t72 36.5q-49 31 -75 64
t-26 85q0 42 18 78.5t48.5 63.5t71 42t85.5 15q36 0 67 -10.5t54 -30t36 -46.5t13 -61zM246 46q34 0 67 11t58.5 32t41 50.5t15.5 66.5q0 29 -13 51t-35 39t-49.5 31.5t-56.5 29.5q-29 -11 -58.5 -28.5t-53 -41.5t-38 -55t-14.5 -68q0 -60 38 -89t98 -29zM340 675
q-27 0 -53 -9.5t-46.5 -27.5t-33 -43.5t-12.5 -56.5q0 -23 8.5 -40.5t23.5 -32t35 -27.5t43 -26q23 10 49 25.5t48 36t36.5 46.5t14.5 57q0 43 -30.5 70.5t-82.5 27.5z" />
    <glyph glyph-name="nine.otab" 
d="M58 -70q23 -11 50 -17.5t55 -6.5q41 0 70.5 11t56.5 35q40 35 67 94t47 142q-35 -23 -79.5 -38t-89.5 -15t-78.5 13.5t-55.5 38t-33 57.5t-11 72q0 52 17 101.5t48.5 87.5t77.5 61.5t105 23.5q49 0 85 -16.5t59.5 -47t35 -73t11.5 -94.5q0 -54 -9.5 -116t-29.5 -122.5
t-51 -115t-75 -92.5q-35 -30 -76 -46.5t-95 -16.5q-35 0 -71 8.5t-59 22.5q-5 3 -4.5 7t7.5 18l5 10q6 13 9 15.5t11 -1.5zM417 244q9 63 9 112q0 88 -30.5 133t-98.5 45q-42 0 -73.5 -18.5t-53.5 -48.5t-33 -68.5t-11 -78.5q0 -26 6 -49.5t20.5 -41.5t38.5 -28.5t60 -10.5
q44 0 87.5 16.5t78.5 37.5z" />
    <glyph glyph-name="dollar.otab" 
d="M219 -71q23 0 24 8l10 68q39 4 72.5 17t58 34t38.5 51.5t14 70.5q0 31 -12 54t-31.5 40t-43 30.5t-47.5 26.5q-19 10 -36 20t-30.5 21.5t-21.5 25.5t-8 32q0 28 10.5 46.5t27.5 30t40 16.5t47 5q30 0 56 -8t47 -20q5 -3 8.5 0t11.5 15l4 6q8 11 9.5 15.5t-3.5 7.5
q-20 14 -45 22.5t-51 12.5l9 66q1 8 -22 8h-5q-13 0 -17.5 -1.5t-5.5 -6.5l-9 -65q-37 -3 -69 -14t-56 -30.5t-38 -48t-14 -66.5q0 -28 9.5 -49.5t26 -38t37.5 -30t45 -25.5q21 -11 41.5 -22t36 -23.5t25 -28t9.5 -36.5q0 -30 -13 -51t-34 -33.5t-46.5 -18t-50.5 -5.5
q-30 0 -63.5 9.5t-62.5 28.5q-4 2 -9 0t-13 -15l-4 -6q-9 -13 -10.5 -18t3.5 -9q22 -18 57.5 -29t77.5 -14l-10 -68q-1 -5 3.5 -6.5t17.5 -1.5h5z" />
    <glyph glyph-name="cent.otab" 
d="M262 0q23 0 24 8l11 76q65 5 118 32q5 3 6 7t-4 17l-3 9q-4 11 -6.5 13.5t-8.5 0.5q-26 -11 -53.5 -17t-58.5 -6q-32 0 -54.5 9t-36.5 25.5t-20.5 39t-6.5 49.5q0 36 11.5 69.5t33 59t52.5 41t70 15.5q56 0 102 -30q5 -3 9.5 -2t12.5 13l5 8q9 13 10 18t-4 8
q-20 15 -48 25t-59 13l11 73q1 5 -3.5 6.5t-18.5 1.5h-5q-13 0 -17.5 -1.5t-5.5 -6.5l-11 -73q-52 -6 -91.5 -29.5t-66 -57.5t-40 -75.5t-13.5 -83.5q0 -66 34 -113.5t110 -56.5l-11 -77q-1 -5 3 -6.5t18 -1.5h5z" />
    <glyph glyph-name="Euro.otab" horiz-adv-x="561" 
d="M452 56q-4 12 -7 14.5t-8 0.5q-56 -24 -113 -24q-72 0 -107 43.5t-39 116.5h190q4 0 5.5 3.5t3.5 15.5l1 6q4 20 -4 20h-197q1 20 3.5 37.5t7.5 36.5h209q4 0 5.5 4t3.5 16l1 7q3 19 -5 19h-202q12 35 29.5 65t41.5 52t54 34.5t67 12.5q27 0 53 -7.5t54 -21.5
q5 -2 9.5 0.5t10.5 14.5l5 10q10 20 4 23q-54 37 -134 37q-47 0 -87.5 -16t-74 -45t-59 -69.5t-41.5 -89.5h-56q-4 0 -5.5 -4t-3.5 -15l-1 -6q-2 -12 -1.5 -16.5t5.5 -4.5h51q-4 -19 -7 -37.5t-4 -36.5h-63q-4 0 -5.5 -4t-3.5 -15l-1 -7q-2 -11 -1 -15t6 -4h67q2 -50 15 -90
t39 -68q25 -27 60 -43t89 -16q38 0 72.5 8t66.5 24q11 5 4 25z" />
    <glyph glyph-name="florin.otab" 
d="M428 304q5 0 6 4t3 17l1 7q2 13 1.5 16.5t-5.5 3.5h-110l15 52q10 34 21 59.5t25.5 41.5t32.5 24t43 8q11 0 23 -2t22 -5q5 -2 8.5 1.5t8.5 16.5l3 8q5 11 6 16t-4 7q-11 5 -27 9t-35 4q-77 0 -122 -51.5t-70 -142.5l-13 -46h-94q-5 0 -6.5 -3.5t-3.5 -15.5l-1 -8
q-2 -13 -1.5 -17t5.5 -4h89l-56 -202q-10 -36 -21 -62t-25 -43t-32.5 -25.5t-43.5 -8.5q-13 0 -24 2.5t-22 5.5q-7 2 -17 -18l-4 -9q-8 -19 -2 -22q23 -13 65 -13q74 0 118.5 50t72.5 151l54 194h116z" />
    <glyph glyph-name="sterling.otab" 
d="M433 0q4 0 5.5 5t3.5 19l1 7q2 14 1.5 19.5t-4.5 5.5h-293q38 24 57 59t28 95l10 69h163q4 0 6 3.5t4 16.5l1 8q2 12 1 16t-5 4h-164l11 79q8 61 38.5 96.5t92.5 35.5q46 0 87 -21q5 -3 8.5 0t11.5 14l5 8q12 19 5 23q-24 14 -54 22t-60 8q-92 0 -138.5 -50.5
t-59.5 -138.5l-11 -76h-73q-5 0 -6 -4t-3 -16l-1 -7q-2 -12 -2 -16.5t5 -4.5h74l-12 -79q-7 -45 -27 -80.5t-62 -61.5q-8 -5 -11 -27l-1 -7q-2 -14 -1 -19t6 -5h363z" />
    <glyph glyph-name="yen.otab" 
d="M417 149q4 0 5.5 3.5t3.5 15.5l1 7q2 12 1.5 16t-4.5 4h-124l4 30l26 40h104q3 0 4.5 3.5t3.5 15.5l1 6q2 12 1.5 16.5t-4.5 4.5h-83l166 261q6 10 -25 10h-14q-14 0 -20.5 -1.5t-9.5 -6.5l-174 -287l-91 286q-2 5 -9 7t-24 2h-4q-18 0 -24.5 -2.5t-4.5 -7.5l88 -261h-80
q-4 0 -6.5 -4t-3.5 -15l-1 -6q-2 -13 -1 -17t5 -4h102l14 -40l-4 -30h-122q-3 0 -5 -4t-4 -15l-1 -6q-2 -12 -1 -16.5t5 -4.5h122l-21 -141q-1 -8 26 -8h8q29 0 30 8l21 141h123z" />
    <glyph glyph-name="numbersign.otab" horiz-adv-x="563" 
d="M444 168q5 0 7 3.5t4 14.5l1 7q2 11 1 14.5t-6 3.5h-88l58 163h92q5 0 6.5 3.5t3.5 14.5l1 6q2 11 1 15t-6 4h-82l56 157q3 8 -16 8h-9q-11 0 -15 -1.5t-6 -6.5l-56 -157h-131l56 157q2 5 -1.5 6.5t-14.5 1.5h-10q-19 0 -21 -8l-56 -157h-88q-5 0 -6.5 -3t-3.5 -14l-1 -6
q-3 -20 5 -20h78l-58 -163h-82q-5 0 -6.5 -3t-3.5 -14l-1 -6q-3 -20 5 -20h73l-57 -160q-2 -5 1.5 -6.5t14.5 -1.5h10q19 0 21 8l57 160h130l-57 -160q-3 -8 16 -8h10q19 0 21 8l57 160h96zM244 374h131l-58 -163h-131z" />
    <glyph glyph-name="percent.otab" horiz-adv-x="769" 
d="M190 310q-64 0 -64 82q0 25 5.5 52t17 49t30.5 36.5t46 14.5q63 0 63 -82q0 -25 -5 -52t-17 -49t-30.5 -36.5t-45.5 -14.5zM182 262q43 0 74.5 17.5t52 46.5t30.5 66t10 76q0 31 -9.5 54.5t-25.5 39t-37 23t-45 7.5q-43 0 -74.5 -17.5t-52 -46t-30.5 -65.5t-10 -76
q0 -31 9.5 -54.5t25.5 -39t37 -23.5t45 -8zM198 -10q13 0 18 1.5t8 6.5l372 585q6 9 -19 9h-11q-14 0 -18 -1.5t-7 -6.5l-371 -584q-4 -5 -0.5 -7.5t17.5 -2.5h11zM542 38q-64 0 -64 82q0 25 5.5 52t17 49t30.5 36.5t46 14.5q63 0 63 -82q0 -25 -5 -52t-17 -49t-30.5 -36.5
t-45.5 -14.5zM534 -10q43 0 74.5 17.5t52 46.5t30.5 66t10 75q0 31 -9.5 54.5t-25.5 39.5t-37 23.5t-45 7.5q-43 0 -74.5 -17.5t-52 -46.5t-30.5 -65.5t-10 -75.5q0 -31 9.5 -54.5t25.5 -39t37.5 -23.5t44.5 -8z" />
    <glyph glyph-name="perthousand.otab" horiz-adv-x="1094" 
d="M190 310q-64 0 -64 82q0 25 5.5 52t17 49t30.5 36.5t46 14.5q63 0 63 -82q0 -25 -5 -52t-17 -49t-30.5 -36.5t-45.5 -14.5zM182 262q43 0 74.5 17.5t52 46.5t30.5 66t10 76q0 31 -9.5 54.5t-25.5 39t-37 23t-45 7.5q-43 0 -74.5 -17.5t-52 -46t-30.5 -65.5t-10 -76
q0 -31 9.5 -54.5t25.5 -39t37 -23.5t45 -8zM198 -10q13 0 18 1.5t8 6.5l372 585q6 9 -19 9h-11q-14 0 -18 -1.5t-7 -6.5l-371 -584q-4 -5 -0.5 -7.5t17.5 -2.5h11zM542 38q-64 0 -64 82q0 25 5.5 52t17 49t30.5 36.5t46 14.5q63 0 63 -82q0 -25 -5 -52t-17 -49t-30.5 -36.5
t-45.5 -14.5zM534 -10q43 0 74.5 17.5t52 46.5t30.5 66t10 75q0 31 -9.5 54.5t-25.5 39.5t-37 23.5t-45 7.5q-43 0 -74.5 -17.5t-52 -46.5t-30.5 -65.5t-10 -75.5q0 -31 9.5 -54.5t25.5 -39t37.5 -23.5t44.5 -8zM868 38q-64 0 -64 82q0 25 5.5 52t17 49t30.5 36.5t46 14.5
q63 0 63 -82q0 -25 -5 -52t-17 -49t-30.5 -36.5t-45.5 -14.5zM860 -10q43 0 74.5 17.5t52 46.5t30.5 66t10 75q0 31 -9.5 54.5t-25.5 39.5t-37 23.5t-45 7.5q-43 0 -74.5 -17.5t-52 -46.5t-30.5 -65.5t-10 -75.5q0 -31 9.5 -54.5t25.5 -39t37.5 -23.5t44.5 -8z" />
    <glyph glyph-name="zero.lprop" horiz-adv-x="566" 
d="M342 672q124 0 124 -191q0 -36 -4.5 -82t-15 -94t-27.5 -94t-42 -82.5t-59.5 -58.5t-78.5 -22q-61 0 -92 49t-31 143q0 35 4 81t14.5 94t27 94t42 82.5t59.5 58.5t79 22zM350 730q-61 0 -107 -24.5t-79.5 -64.5t-56 -92t-36.5 -107t-19.5 -108.5t-5.5 -97.5
q0 -125 48 -185.5t136 -60.5q61 0 107 24.5t80 65.5t57 93.5t36.5 107.5t19.5 109t6 97q0 125 -49.5 184t-136.5 59z" />
    <glyph glyph-name="one.lprop" horiz-adv-x="463" 
d="M69 54q-5 0 -8 -3.5t-5 -20.5l-1 -7q-2 -16 -0.5 -19.5t6.5 -3.5h288q5 0 7.5 3.5t4.5 19.5l1 7q2 17 1 20.5t-6 3.5h-105l92 659q1 7 -19 7h-13q-14 0 -22.5 -3t-19.5 -9l-191 -109q-6 -4 -6 -8t5 -16l4 -9q5 -12 9 -14.5t9 0.5l167 95l-83 -593h-115z" />
    <glyph glyph-name="two.lprop" horiz-adv-x="482" 
d="M-14 24q-2 -15 -0.5 -19.5t6.5 -4.5h370q5 0 7.5 4t4.5 21l1 8q2 18 1 21.5t-6 3.5h-303l146 147q38 39 77.5 81.5t72 88t53 94.5t20.5 103q0 76 -48 117t-124 41q-51 0 -99 -16t-87 -39q-6 -4 -6.5 -8t4.5 -17l3 -7q5 -13 9.5 -16t10.5 1q37 20 73.5 32t79.5 12
q51 0 84 -27.5t33 -83.5q0 -47 -20.5 -92.5t-51 -88t-65.5 -80t-64 -67.5l-166 -171q-8 -8 -10.5 -13.5t-4.5 -18.5z" />
    <glyph glyph-name="three.lprop" horiz-adv-x="478" 
d="M165 352q51 0 90 -12.5t64 -39.5q28 -30 28 -75q0 -39 -13 -74.5t-42 -58.5q-26 -23 -62.5 -33.5t-81.5 -10.5q-30 0 -63.5 7t-61.5 19q-8 3 -12 0t-12 -18l-3 -6q-7 -14 -7.5 -19t4.5 -8q29 -15 72 -24t88 -9q56 0 104 16.5t83 47.5t55 75.5t20 99.5q0 33 -11 58.5
t-29 44t-41.5 30t-47.5 16.5q33 10 61 29t48.5 45.5t31.5 58t11 65.5q0 31 -8.5 54.5t-22.5 41.5q-24 29 -61 43.5t-84 14.5q-41 0 -86 -11.5t-78 -28.5q-5 -3 -6 -7t3 -16l3 -10q4 -11 7 -14.5t12 0.5q29 12 64.5 21t69.5 9q32 0 57.5 -10t41.5 -32q10 -13 15.5 -29
t5.5 -37q0 -34 -14 -64t-37 -51q-28 -24 -66.5 -34.5t-85.5 -10.5h-16q-5 0 -7.5 -4t-4.5 -20l-1 -6q-2 -15 -0.5 -19t6.5 -4h20z" />
    <glyph glyph-name="four.lprop" horiz-adv-x="551" 
d="M46 273q-7 -11 -12 -23t-7 -28l-2 -14q-2 -9 2.5 -12t16.5 -3h286l-26 -184q-1 -5 4.5 -7t22.5 -2h7q17 0 24 2t8 7l26 184h94q5 0 7 3t5 21l1 6q3 19 2 23t-7 4h-94l25 172q1 5 -5.5 7t-24.5 2h-7q-16 0 -22 -2t-7 -7l-25 -172h-241l277 459q4 7 -1 9t-26 2h-7
q-20 0 -24 -2t-7 -7z" />
    <glyph glyph-name="five.lprop" horiz-adv-x="514" 
d="M202 662h272q5 0 7 4t4 21l1 8q2 17 1.5 21t-5.5 4h-338l-49 -348q31 8 62.5 13t66.5 5q92 0 130 -48q26 -32 26 -83q0 -47 -17.5 -92.5t-51.5 -74.5q-24 -20 -60.5 -32t-81.5 -12q-32 0 -62.5 6.5t-56.5 17.5q-8 3 -11.5 -1t-10.5 -15l-6 -10q-8 -13 -7.5 -17.5
t6.5 -7.5q9 -5 25 -10.5t36 -10t42.5 -7.5t44.5 -3q65 0 116.5 22t87.5 59t55 86.5t19 105.5q0 37 -10.5 66.5t-29.5 51.5q-54 63 -163 63q-22 0 -40 -2t-34 -6z" />
    <glyph glyph-name="six.lprop" horiz-adv-x="552" 
d="M480 657q8 -3 12 -0.5t10 14.5l5 10q7 13 7 17.5t-4 6.5q-21 11 -49 18t-64 7q-59 0 -108 -23.5t-88 -62.5t-68 -91t-48.5 -109.5t-29 -116.5t-9.5 -113q0 -104 45.5 -164t143.5 -60q59 0 105.5 23t78.5 61.5t49 88.5t17 104q0 78 -43.5 128t-133.5 50q-45 0 -88.5 -15
t-80.5 -38q16 55 38.5 106t53.5 90t70 62.5t88 23.5q26 0 48 -4.5t43 -12.5zM126 336q35 21 78.5 37.5t87.5 16.5q36 0 60 -11t38.5 -29.5t20.5 -42.5t6 -50q0 -40 -12 -78t-34 -67.5t-54.5 -47.5t-72.5 -18q-68 0 -97.5 43.5t-29.5 130.5q0 59 9 116z" />
    <glyph glyph-name="seven.lprop" horiz-adv-x="455" 
d="M471 641q6 11 9 19.5t5 19.5l5 31q1 5 -3 7t-18 2h-384q-5 0 -7.5 -3.5t-4.5 -20.5l-1 -8q-2 -16 -1 -21t6 -5h342l-358 -649q-4 -7 0 -10t24 -3h8q19 0 25 2.5t10 8.5z" />
    <glyph glyph-name="eight.lprop" horiz-adv-x="549" 
d="M512 582q0 34 -13 61t-36 46.5t-54 30t-67 10.5q-45 0 -85.5 -15t-71 -42t-48.5 -63.5t-18 -78.5q0 -52 26 -85t75 -64q-38 -14 -72 -36.5t-59.5 -51.5t-40 -64.5t-14.5 -75.5q0 -41 14.5 -71.5t40.5 -51t61.5 -31t76.5 -10.5q53 0 100.5 17.5t83 48t56 72.5t20.5 92
q0 33 -12 57.5t-32.5 44.5t-46.5 35.5t-53 30.5q32 15 62.5 33.5t54 42t38 53t14.5 65.5zM238 46q-60 0 -98 29t-38 89q0 37 14.5 68t38 55t53 41.5t58.5 28.5q29 -15 56.5 -29.5t49.5 -31.5t35 -39t13 -51q0 -37 -15.5 -66.5t-41 -50.5t-58.5 -32t-67 -11zM332 675
q52 0 82.5 -27.5t30.5 -70.5q0 -31 -14.5 -57t-36.5 -46.5t-48 -36t-49 -25.5q-23 13 -43 26t-35 27.5t-23.5 32t-8.5 40.5q0 31 12.5 56.5t33 43.5t46.5 27.5t53 9.5z" />
    <glyph glyph-name="nine.lprop" horiz-adv-x="546" 
d="M78 70q-8 4 -11 1.5t-9 -15.5l-5 -10q-7 -14 -7.5 -18t4.5 -7q23 -14 59 -22.5t71 -8.5q54 0 95 16.5t76 46.5q44 38 75 92.5t51 115t29.5 122.5t9.5 116q0 52 -11.5 94.5t-35 73t-59.5 47t-85 16.5q-59 0 -105 -23.5t-77.5 -61.5t-48.5 -87.5t-17 -101.5q0 -39 11 -72
t33 -57.5t55.5 -38t78.5 -13.5t89.5 15t79.5 38q-20 -83 -47 -142t-67 -94q-27 -24 -56.5 -35t-70.5 -11q-28 0 -55 6.5t-50 17.5zM437 384q-35 -21 -78.5 -37.5t-87.5 -16.5q-36 0 -60 10.5t-38.5 28.5t-20.5 41.5t-6 49.5q0 40 11 78.5t33 68.5t53.5 48.5t73.5 18.5
q68 0 98.5 -45t30.5 -133q0 -49 -9 -112z" />
    <glyph glyph-name="dollar.lprop" horiz-adv-x="513" 
d="M20 47q25 -23 68.5 -38.5t95.5 -17.5l-12 -81q-1 -5 3 -6.5t18 -1.5h3q25 0 26 8l12 82q47 6 87.5 24.5t70 47t46.5 66.5t17 83q0 37 -13.5 65t-36 49.5t-51 38.5t-56.5 33q-23 13 -45 27t-38.5 30t-26.5 35.5t-10 43.5q0 33 13 59t34.5 43.5t50 26.5t58.5 9q37 0 68 -11
t58 -28q5 -3 9.5 -0.5t12.5 16.5l4 5q8 12 10 17t-3 9q-23 17 -53.5 29t-64.5 17l12 86q1 5 -4 6.5t-19 1.5h-3q-14 0 -18.5 -1.5t-5.5 -6.5l-11 -84q-44 -3 -83.5 -18.5t-69 -41t-46.5 -60.5t-17 -78q0 -34 11 -61t29.5 -49.5t43.5 -40.5t54 -34q26 -15 51 -29.5
t44.5 -31.5t31.5 -37.5t12 -47.5q0 -38 -17 -66.5t-43.5 -47.5t-59 -29t-63.5 -10q-37 0 -75.5 12t-73.5 38q-5 3 -9.5 -0.5t-13.5 -15.5l-5 -7q-10 -14 -11 -18.5t4 -8.5z" />
    <glyph glyph-name="cent.lprop" horiz-adv-x="502" 
d="M399 194q-31 -15 -63.5 -23t-70.5 -8q-76 0 -107.5 43t-31.5 115q0 50 14.5 94.5t41 78t63.5 53t83 19.5q33 0 62 -7.5t57 -28.5q5 -5 9.5 -3.5t15.5 16.5l5 7q10 14 10.5 18t-4.5 8q-24 19 -57 31.5t-69 14.5l14 100q1 5 -4 6.5t-20 1.5h-3q-14 0 -18 -1.5t-5 -6.5
l-14 -100q-61 -8 -108 -37.5t-78.5 -71.5t-48 -93t-16.5 -103q0 -40 9.5 -76t30 -64.5t52 -47t76.5 -23.5l-14 -98q-1 -5 3 -6.5t19 -1.5h3q14 0 19 1.5t6 6.5l14 97q41 2 76 12.5t66 27.5q6 4 6.5 7t-4.5 17l-3 9q-4 13 -6.5 16t-9.5 0z" />
    <glyph glyph-name="Euro.lprop" 
d="M428 413q4 0 5.5 3t4.5 17l1 5q3 14 1.5 18t-6.5 4h-233q29 97 86 154t144 57q30 0 60 -8.5t62 -25.5q5 -3 9 -1t11 15l6 11q7 12 8 17t-4 8q-29 20 -66 31.5t-83 11.5q-101 0 -182 -67.5t-122 -202.5h-69q-4 0 -5.5 -3t-4.5 -17l-1 -5q-3 -14 -1.5 -18t6.5 -4h63
q-6 -28 -10 -54t-6 -51h-76q-4 0 -5.5 -3t-4.5 -17l-1 -5q-3 -14 -1.5 -18t6.5 -4h80q1 -63 16.5 -115t45.5 -87q28 -32 67.5 -50.5t102.5 -18.5q44 0 82.5 10t74.5 27q7 3 7.5 8t-2.5 17l-3 10q-4 14 -6.5 16.5t-9.5 -0.5q-33 -14 -65.5 -21.5t-67.5 -7.5q-85 0 -126.5 54
t-43.5 158h221q4 0 5.5 3t4.5 17l1 5q3 14 1.5 18t-6.5 4h-227q3 54 16 105h240z" />
    <glyph glyph-name="florin.lprop" 
d="M472 385q5 0 7 3.5t4 17.5l1 6q2 15 1 18.5t-6 3.5h-130l19 72q13 49 26.5 82.5t31.5 54.5t40.5 30t53.5 9q12 0 25 -2t24 -5q6 -2 9.5 1t9.5 15l4 10q5 11 6 16t-4 8q-11 6 -29 10t-39 4q-43 0 -77.5 -13t-62 -41.5t-49 -74.5t-38.5 -113l-16 -63h-111q-5 0 -7 -3.5
t-4 -17.5l-1 -6q-2 -15 -1 -18.5t6 -3.5h105l-70 -267q-12 -47 -26 -80.5t-32 -54.5t-41 -31t-54 -10q-14 0 -26 2t-23 5q-5 2 -9 -1t-9 -17l-4 -10q-5 -11 -6 -15t4 -7q11 -6 28.5 -10t38.5 -4q41 0 75 12.5t62 41t50 74.5t40 114l68 258h136z" />
    <glyph glyph-name="sterling.lprop" horiz-adv-x="533" 
d="M413 351q4 0 6 3t4 18l1 6q2 16 1.5 19t-5.5 3h-191l14 104q11 84 48 131.5t112 47.5q29 0 54.5 -7t46.5 -19q6 -3 10 -2t12 14l6 10q8 13 9 17.5t-4 7.5q-26 17 -60.5 26t-69.5 9q-54 0 -94 -16t-68.5 -46.5t-45.5 -74.5t-24 -100l-14 -102h-88q-5 0 -6.5 -3.5
t-3.5 -17.5l-1 -6q-2 -14 -1.5 -18t5.5 -4h88l-15 -108q-9 -60 -32 -103t-76 -78q-4 -3 -6.5 -9t-4.5 -20l-1 -6q-3 -17 -1.5 -22t6.5 -5h421q4 0 6 4t4 22l1 7q2 18 1.5 22t-4.5 4h-347q22 16 38.5 33.5t28.5 39.5t20.5 51t14.5 70l14 98h191z" />
    <glyph glyph-name="yen.lprop" horiz-adv-x="511" 
d="M342 381l199 327q4 6 -1.5 9t-23.5 3h-9q-17 0 -22 -1.5t-9 -7.5l-214 -371l-112 369q-2 7 -8.5 9t-26.5 2h-8q-21 0 -26.5 -3t-3.5 -9l103 -327h-95q-4 0 -6 -3t-4 -17l-1 -7q-2 -16 -1.5 -20t4.5 -4h119l17 -52l-5 -39h-143q-4 0 -6 -3t-4 -17l-1 -7q-2 -16 -1.5 -20
t4.5 -4h144l-26 -179q-1 -9 27 -9h8q31 0 32 9l26 179h142q4 0 6 3t4 17l1 7q2 17 1.5 20.5t-4.5 3.5h-143l5 39l32 52h119q3 0 5 3t4 17l1 7q2 17 1.5 20.5t-4.5 3.5h-96z" />
    <glyph glyph-name="numbersign.lprop" 
d="M253 0h11q10 0 14 2t7 8l70 205h114q5 0 7.5 3t4.5 14l1 6q2 12 0 14.5t-7 2.5h-105l75 215h105q5 0 7 2.5t4 13.5l1 7q2 11 0.5 14t-6.5 3h-97l69 200q2 5 -1 7.5t-14 2.5h-11q-10 0 -14 -2t-6 -8l-69 -200h-154l69 200q2 5 -1 7.5t-14 2.5h-12q-10 0 -14 -2t-6 -8
l-69 -200h-105q-5 0 -7 -2.5t-4 -13.5l-1 -7q-2 -11 -0.5 -14t6.5 -3h97l-77 -215h-95q-5 0 -7 -2.5t-4 -13.5l-1 -6q-2 -11 -0.5 -14.5t6.5 -3.5h88l-70 -205q-2 -5 0.5 -7.5t13.5 -2.5h13q9 0 13 2t7 8l70 205h154l-70 -205q-2 -5 0.5 -7.5t13.5 -2.5zM245 470h154
l-76 -215h-154z" />
    <glyph glyph-name="percent.lprop" horiz-adv-x="868" 
d="M262 683q76 0 76 -106q0 -29 -6 -64.5t-20.5 -66.5t-38 -52t-59.5 -21q-77 0 -77 106q0 30 6.5 65.5t21 66.5t38.5 51.5t59 20.5zM270 730q-53 0 -90 -24t-60.5 -61.5t-34.5 -83t-11 -87.5q0 -74 34.5 -111.5t95.5 -37.5q52 0 89.5 24.5t61.5 62t35 83t11 87.5
q0 74 -34.5 111t-96.5 37zM193 -5q-5 -8 -1.5 -10.5t18.5 -2.5h9q15 0 20 2.5t9 8.5l441 731q5 8 0.5 10.5t-19.5 2.5h-9q-17 0 -21 -2.5t-8 -8.5zM668 348q76 0 76 -106q0 -29 -6 -64.5t-20.5 -66.5t-38 -52t-59.5 -21q-77 0 -77 106q0 30 6.5 65.5t21 66.5t38.5 51.5
t59 20.5zM676 395q-53 0 -90 -24t-60.5 -61.5t-34.5 -83t-11 -87.5q0 -74 34.5 -111.5t95.5 -37.5q52 0 89.5 24.5t61.5 62t35 83t11 87.5q0 74 -34.5 111t-96.5 37z" />
    <glyph glyph-name="perthousand.lprop" horiz-adv-x="1244" 
d="M262 683q76 0 76 -106q0 -29 -6 -64.5t-20.5 -66.5t-38 -52t-59.5 -21q-77 0 -77 106q0 30 6.5 65.5t21 66.5t38.5 51.5t59 20.5zM270 730q-53 0 -90 -24t-60.5 -61.5t-34.5 -83t-11 -87.5q0 -74 34.5 -111.5t95.5 -37.5q52 0 89.5 24.5t61.5 62t35 83t11 87.5
q0 74 -34.5 111t-96.5 37zM193 -5q-5 -8 -1.5 -10.5t18.5 -2.5h9q15 0 20 2.5t9 8.5l441 731q5 8 0.5 10.5t-19.5 2.5h-9q-17 0 -21 -2.5t-8 -8.5zM668 348q76 0 76 -106q0 -29 -6 -64.5t-20.5 -66.5t-38 -52t-59.5 -21q-77 0 -77 106q0 30 6.5 65.5t21 66.5t38.5 51.5
t59 20.5zM676 395q-53 0 -90 -24t-60.5 -61.5t-34.5 -83t-11 -87.5q0 -74 34.5 -111.5t95.5 -37.5q52 0 89.5 24.5t61.5 62t35 83t11 87.5q0 74 -34.5 111t-96.5 37zM1045 348q76 0 76 -106q0 -29 -6 -64.5t-20.5 -66.5t-38 -52t-59.5 -21q-77 0 -77 106q0 30 6.5 65.5
t21 66.5t38.5 51.5t59 20.5zM1053 395q-53 0 -90 -24t-60.5 -61.5t-34.5 -83t-11 -87.5q0 -74 34.5 -111.5t95.5 -37.5q52 0 89.5 24.5t61.5 62t35 83t11 87.5q0 74 -34.5 111t-96.5 37z" />
    <glyph glyph-name="zero.oprop" horiz-adv-x="566" 
d="M314 535q69 0 104.5 -47.5t35.5 -127.5q0 -48 -11.5 -103t-36 -101.5t-64 -77.5t-95.5 -31q-71 0 -104.5 47t-33.5 127q0 50 10.5 105.5t35 102t63.5 76.5t96 30zM236 -10q79 0 134 34t89.5 88t49.5 120.5t15 131.5q0 56 -15 99t-41 71.5t-62 43t-79 14.5
q-78 0 -133 -34.5t-89.5 -88.5t-50 -120.5t-15.5 -130.5q0 -56 14.5 -99t41 -71.5t62.5 -43t79 -14.5z" />
    <glyph glyph-name="one.oprop" horiz-adv-x="463" 
d="M359 0q5 0 7 4.5t4 17.5l1 10q2 13 0.5 17t-6.5 4h-105l75 521q1 8 -19 8h-13q-14 0 -22.5 -3t-19.5 -8l-188 -89q-12 -4 -1 -24l5 -10q10 -19 19 -15l164 73l-68 -453h-115q-5 0 -7.5 -4t-4.5 -18l-1 -10q-2 -14 0 -17.5t7 -3.5h288z" />
    <glyph glyph-name="two.oprop" horiz-adv-x="482" 
d="M382 0q8 0 11 25l1 8q2 14 0.5 19.5t-6.5 5.5h-303l142 115q48 39 87.5 73t67.5 67t43.5 66.5t15.5 72.5q0 67 -49.5 102.5t-127.5 35.5q-51 0 -98.5 -12t-85.5 -32q-6 -3 -6.5 -7.5t4.5 -15.5l4 -9q5 -11 9.5 -13.5t10.5 -0.5q36 15 72.5 23.5t79.5 8.5q53 0 86.5 -23
t33.5 -68q0 -30 -11 -54t-35 -49.5t-60.5 -56.5t-87.5 -74l-160 -136q-8 -7 -10 -15t-4 -20l-1 -11q-2 -14 0 -19.5t7 -5.5h370z" />
    <glyph glyph-name="three.oprop" horiz-adv-x="478" 
d="M147 212q51 0 90 -12.5t64 -39.5q28 -30 28 -75q0 -39 -13 -74.5t-42 -58.5q-26 -23 -62.5 -33.5t-81.5 -10.5q-30 0 -63.5 7t-61.5 19q-8 3 -12 0t-12 -18l-3 -6q-7 -14 -7.5 -19t4.5 -8q29 -15 72 -24t88 -9q56 0 104 16.5t83 47.5t55 75.5t20 99.5q0 33 -11 58.5
t-29 44t-41.5 30t-47.5 16.5q33 10 61 29t48.5 45.5t31.5 58t11 65.5q0 31 -8.5 54.5t-22.5 41.5q-24 29 -61 43.5t-84 14.5q-41 0 -86 -11.5t-78 -28.5q-5 -3 -6 -7t3 -16l3 -10q4 -11 7 -14.5t12 0.5q29 12 64.5 21t69.5 9q32 0 57.5 -10t41.5 -32q10 -13 15.5 -29
t5.5 -37q0 -34 -14 -64t-37 -51q-28 -24 -66.5 -34.5t-85.5 -10.5h-16q-5 0 -7.5 -4t-4.5 -20l-1 -6q-2 -15 -0.5 -19t6.5 -4h20z" />
    <glyph glyph-name="four.oprop" horiz-adv-x="551" 
d="M36 133q-7 -11 -12 -23t-7 -28l-2 -14q-2 -9 2.5 -12t16.5 -3h286l-26 -184q-1 -5 4.5 -7t22.5 -2h7q17 0 24 2t8 7l26 184h94q5 0 7 3t5 21l1 6q3 19 2 23t-7 4h-94l25 172q1 5 -5.5 7t-24.5 2h-7q-16 0 -22 -2t-7 -7l-25 -172h-241l277 459q4 7 -1 9t-26 2h-7
q-20 0 -24 -2t-7 -7z" />
    <glyph glyph-name="five.oprop" horiz-adv-x="514" 
d="M187 522h272q5 0 7 4t4 21l1 8q2 17 1.5 21t-5.5 4h-338l-49 -348q31 8 62.5 13t66.5 5q92 0 130 -48q26 -32 26 -83q0 -47 -17.5 -92.5t-51.5 -74.5q-24 -20 -60.5 -32t-81.5 -12q-32 0 -62.5 6.5t-56.5 17.5q-8 3 -11.5 -1t-10.5 -15l-6 -10q-8 -13 -7.5 -17.5
t6.5 -7.5q9 -5 25 -10.5t36 -10t42.5 -7.5t44.5 -3q65 0 116.5 22t87.5 59t55 86.5t19 105.5q0 37 -10.5 66.5t-29.5 51.5q-54 63 -163 63q-22 0 -40 -2t-34 -6z" />
    <glyph glyph-name="six.oprop" horiz-adv-x="552" 
d="M500 657q8 -3 12 -0.5t10 14.5l5 10q7 13 7 17.5t-4 6.5q-21 11 -49 18t-64 7q-59 0 -108 -23.5t-88 -62.5t-68 -91t-48.5 -109.5t-29 -116.5t-9.5 -113q0 -104 45.5 -164t143.5 -60q59 0 105.5 23t78.5 61.5t49 88.5t17 104q0 78 -43.5 128t-133.5 50q-45 0 -88.5 -15
t-80.5 -38q16 55 38.5 106t53.5 90t70 62.5t88 23.5q26 0 48 -4.5t43 -12.5zM146 336q35 21 78.5 37.5t87.5 16.5q36 0 60 -11t38.5 -29.5t20.5 -42.5t6 -50q0 -40 -12 -78t-34 -67.5t-54.5 -47.5t-72.5 -18q-68 0 -97.5 43.5t-29.5 130.5q0 59 9 116z" />
    <glyph glyph-name="seven.oprop" horiz-adv-x="455" 
d="M441 501q6 11 9 19.5t5 19.5l5 31q1 5 -3 7t-18 2h-384q-5 0 -7.5 -3.5t-4.5 -20.5l-1 -8q-2 -16 -1 -21t6 -5h342l-358 -649q-4 -7 0 -10t24 -3h8q19 0 25 2.5t10 8.5z" />
    <glyph glyph-name="eight.oprop" horiz-adv-x="549" 
d="M512 582q0 34 -13 61t-36 46.5t-54 30t-67 10.5q-45 0 -85.5 -15t-71 -42t-48.5 -63.5t-18 -78.5q0 -52 26 -85t75 -64q-38 -14 -72 -36.5t-59.5 -51.5t-40 -64.5t-14.5 -75.5q0 -41 14.5 -71.5t40.5 -51t61.5 -31t76.5 -10.5q53 0 100.5 17.5t83 48t56 72.5t20.5 92
q0 33 -12 57.5t-32.5 44.5t-46.5 35.5t-53 30.5q32 15 62.5 33.5t54 42t38 53t14.5 65.5zM238 46q-60 0 -98 29t-38 89q0 37 14.5 68t38 55t53 41.5t58.5 28.5q29 -15 56.5 -29.5t49.5 -31.5t35 -39t13 -51q0 -37 -15.5 -66.5t-41 -50.5t-58.5 -32t-67 -11zM332 675
q52 0 82.5 -27.5t30.5 -70.5q0 -31 -14.5 -57t-36.5 -46.5t-48 -36t-49 -25.5q-23 13 -43 26t-35 27.5t-23.5 32t-8.5 40.5q0 31 12.5 56.5t33 43.5t46.5 27.5t53 9.5z" />
    <glyph glyph-name="nine.oprop" horiz-adv-x="546" 
d="M53 -70q-8 4 -11 1.5t-9 -15.5l-5 -10q-7 -14 -7.5 -18t4.5 -7q23 -14 59 -22.5t71 -8.5q54 0 95 16.5t76 46.5q44 38 75 92.5t51 115t29.5 122.5t9.5 116q0 52 -11.5 94.5t-35 73t-59.5 47t-85 16.5q-59 0 -105 -23.5t-77.5 -61.5t-48.5 -87.5t-17 -101.5q0 -39 11 -72
t33 -57.5t55.5 -38t78.5 -13.5t89.5 15t79.5 38q-20 -83 -47 -142t-67 -94q-27 -24 -56.5 -35t-70.5 -11q-28 0 -55 6.5t-50 17.5zM412 244q-35 -21 -78.5 -37.5t-87.5 -16.5q-36 0 -60 10.5t-38.5 28.5t-20.5 41.5t-6 49.5q0 40 11 78.5t33 68.5t53.5 48.5t73.5 18.5
q68 0 98.5 -45t30.5 -133q0 -49 -9 -112z" />
    <glyph glyph-name="dollar.oprop" horiz-adv-x="462" 
d="M158 -71q23 0 24 8l10 68q39 4 72.5 17t58 34t38.5 51.5t14 70.5q0 31 -12 54t-31.5 40t-43 30.5t-47.5 26.5q-19 10 -36 20t-30.5 21.5t-21.5 25.5t-8 32q0 28 10.5 46.5t27.5 30t40 16.5t47 5q30 0 56 -8t47 -20q5 -3 8.5 0t11.5 15l4 6q8 11 9.5 15.5t-3.5 7.5
q-20 14 -45 22.5t-51 12.5l9 66q1 8 -22 8h-5q-13 0 -17.5 -1.5t-5.5 -6.5l-9 -65q-37 -3 -69 -14t-56 -30.5t-38 -48t-14 -66.5q0 -28 9.5 -49.5t26 -38t37.5 -30t45 -25.5q21 -11 41.5 -22t36 -23.5t25 -28t9.5 -36.5q0 -30 -13 -51t-34 -33.5t-46.5 -18t-50.5 -5.5
q-30 0 -63.5 9.5t-62.5 28.5q-4 2 -9 0t-13 -15l-4 -6q-9 -13 -10.5 -18t3.5 -9q22 -18 57.5 -29t77.5 -14l-10 -68q-1 -5 3.5 -6.5t17.5 -1.5h5z" />
    <glyph glyph-name="cent.oprop" horiz-adv-x="458" 
d="M211 0q23 0 24 8l11 76q65 5 118 32q5 3 6 7t-4 17l-3 9q-4 11 -6.5 13.5t-8.5 0.5q-26 -11 -53.5 -17t-58.5 -6q-32 0 -54.5 9t-36.5 25.5t-20.5 39t-6.5 49.5q0 36 11.5 69.5t33 59t52.5 41t70 15.5q56 0 102 -30q5 -3 9.5 -2t12.5 13l5 8q9 13 10 18t-4 8
q-20 15 -48 25t-59 13l11 73q1 5 -3.5 6.5t-18.5 1.5h-5q-13 0 -17.5 -1.5t-5.5 -6.5l-11 -73q-52 -6 -91.5 -29.5t-66 -57.5t-40 -75.5t-13.5 -83.5q0 -66 34 -113.5t110 -56.5l-11 -77q-1 -5 3 -6.5t18 -1.5h5z" />
    <glyph glyph-name="Euro.oprop" horiz-adv-x="513" 
d="M438 56q-4 12 -7 14.5t-8 0.5q-56 -24 -113 -24q-72 0 -107 43.5t-39 116.5h190q4 0 5.5 3.5t3.5 15.5l1 6q4 20 -4 20h-197q1 20 3.5 37.5t7.5 36.5h209q4 0 5.5 4t3.5 16l1 7q3 19 -5 19h-202q12 35 29.5 65t41.5 52t54 34.5t67 12.5q27 0 53 -7.5t54 -21.5
q5 -2 9.5 0.5t10.5 14.5l5 10q10 20 4 23q-54 37 -134 37q-47 0 -87.5 -16t-74 -45t-59 -69.5t-41.5 -89.5h-56q-4 0 -5.5 -4t-3.5 -15l-1 -6q-2 -12 -1.5 -16.5t5.5 -4.5h51q-4 -19 -7 -37.5t-4 -36.5h-63q-4 0 -5.5 -4t-3.5 -15l-1 -7q-2 -11 -1 -15t6 -4h67q2 -50 15 -90
t39 -68q25 -27 60 -43t89 -16q38 0 72.5 8t66.5 24q11 5 4 25z" />
    <glyph glyph-name="florin.oprop" horiz-adv-x="510" 
d="M402 304q5 0 6 4t3 17l1 7q2 13 1.5 16.5t-5.5 3.5h-110l15 52q10 34 21 59.5t25.5 41.5t32.5 24t43 8q11 0 23 -2t22 -5q5 -2 8.5 1.5t8.5 16.5l3 8q5 11 6 16t-4 7q-11 5 -27 9t-35 4q-77 0 -122 -51.5t-70 -142.5l-13 -46h-94q-5 0 -6.5 -3.5t-3.5 -15.5l-1 -8
q-2 -13 -1.5 -17t5.5 -4h89l-56 -202q-10 -36 -21 -62t-25 -43t-32.5 -25.5t-43.5 -8.5q-13 0 -24 2.5t-22 5.5q-7 2 -17 -18l-4 -9q-8 -19 -2 -22q23 -13 65 -13q74 0 118.5 50t72.5 151l54 194h116z" />
    <glyph glyph-name="sterling.oprop" horiz-adv-x="484" 
d="M394 0q4 0 5.5 5t3.5 19l1 7q2 14 1.5 19.5t-4.5 5.5h-293q38 24 57 59t28 95l10 69h163q4 0 6 3.5t4 16.5l1 8q2 12 1 16t-5 4h-164l11 79q8 61 38.5 96.5t92.5 35.5q46 0 87 -21q5 -3 8.5 0t11.5 14l5 8q12 19 5 23q-24 14 -54 22t-60 8q-92 0 -138.5 -50.5
t-59.5 -138.5l-11 -76h-73q-5 0 -6 -4t-3 -16l-1 -7q-2 -12 -2 -16.5t5 -4.5h74l-12 -79q-7 -45 -27 -80.5t-62 -61.5q-8 -5 -11 -27l-1 -7q-2 -14 -1 -19t6 -5h363z" />
    <glyph glyph-name="yen.oprop" horiz-adv-x="472" 
d="M372 149q4 0 5.5 3.5t3.5 15.5l1 7q2 12 1.5 16t-4.5 4h-124l4 30l26 40h104q3 0 4.5 3.5t3.5 15.5l1 6q2 12 1.5 16.5t-4.5 4.5h-83l166 261q6 10 -25 10h-14q-14 0 -20.5 -1.5t-9.5 -6.5l-174 -287l-91 286q-2 5 -9 7t-24 2h-4q-18 0 -24.5 -2.5t-4.5 -7.5l88 -261h-80
q-4 0 -6.5 -4t-3.5 -15l-1 -6q-2 -13 -1 -17t5 -4h102l14 -40l-4 -30h-122q-3 0 -5 -4t-4 -15l-1 -6q-2 -12 -1 -16.5t5 -4.5h122l-21 -141q-1 -8 26 -8h8q29 0 30 8l21 141h123z" />
    <glyph glyph-name="numbersign.oprop" horiz-adv-x="511" 
d="M418 168q5 0 7 3.5t4 14.5l1 7q2 11 1 14.5t-6 3.5h-88l58 163h92q5 0 6.5 3.5t3.5 14.5l1 6q2 11 1 15t-6 4h-82l56 157q3 8 -16 8h-9q-11 0 -15 -1.5t-6 -6.5l-56 -157h-131l56 157q2 5 -1.5 6.5t-14.5 1.5h-10q-19 0 -21 -8l-56 -157h-88q-5 0 -6.5 -3t-3.5 -14l-1 -6
q-3 -20 5 -20h78l-58 -163h-82q-5 0 -6.5 -3t-3.5 -14l-1 -6q-3 -20 5 -20h73l-57 -160q-2 -5 1.5 -6.5t14.5 -1.5h10q19 0 21 8l57 160h130l-57 -160q-3 -8 16 -8h10q19 0 21 8l57 160h96zM218 374h131l-58 -163h-131z" />
    <glyph glyph-name="percent.oprop" horiz-adv-x="769" 
d="M190 310q-64 0 -64 82q0 25 5.5 52t17 49t30.5 36.5t46 14.5q63 0 63 -82q0 -25 -5 -52t-17 -49t-30.5 -36.5t-45.5 -14.5zM182 262q43 0 74.5 17.5t52 46.5t30.5 66t10 76q0 31 -9.5 54.5t-25.5 39t-37 23t-45 7.5q-43 0 -74.5 -17.5t-52 -46t-30.5 -65.5t-10 -76
q0 -31 9.5 -54.5t25.5 -39t37 -23.5t45 -8zM198 -10q13 0 18 1.5t8 6.5l372 585q6 9 -19 9h-11q-14 0 -18 -1.5t-7 -6.5l-371 -584q-4 -5 -0.5 -7.5t17.5 -2.5h11zM542 38q-64 0 -64 82q0 25 5.5 52t17 49t30.5 36.5t46 14.5q63 0 63 -82q0 -25 -5 -52t-17 -49t-30.5 -36.5
t-45.5 -14.5zM534 -10q43 0 74.5 17.5t52 46.5t30.5 66t10 75q0 31 -9.5 54.5t-25.5 39.5t-37 23.5t-45 7.5q-43 0 -74.5 -17.5t-52 -46.5t-30.5 -65.5t-10 -75.5q0 -31 9.5 -54.5t25.5 -39t37.5 -23.5t44.5 -8z" />
    <glyph glyph-name="perthousand.oprop" horiz-adv-x="1094" 
d="M190 310q-64 0 -64 82q0 25 5.5 52t17 49t30.5 36.5t46 14.5q63 0 63 -82q0 -25 -5 -52t-17 -49t-30.5 -36.5t-45.5 -14.5zM182 262q43 0 74.5 17.5t52 46.5t30.5 66t10 76q0 31 -9.5 54.5t-25.5 39t-37 23t-45 7.5q-43 0 -74.5 -17.5t-52 -46t-30.5 -65.5t-10 -76
q0 -31 9.5 -54.5t25.5 -39t37 -23.5t45 -8zM198 -10q13 0 18 1.5t8 6.5l372 585q6 9 -19 9h-11q-14 0 -18 -1.5t-7 -6.5l-371 -584q-4 -5 -0.5 -7.5t17.5 -2.5h11zM542 38q-64 0 -64 82q0 25 5.5 52t17 49t30.5 36.5t46 14.5q63 0 63 -82q0 -25 -5 -52t-17 -49t-30.5 -36.5
t-45.5 -14.5zM534 -10q43 0 74.5 17.5t52 46.5t30.5 66t10 75q0 31 -9.5 54.5t-25.5 39.5t-37 23.5t-45 7.5q-43 0 -74.5 -17.5t-52 -46.5t-30.5 -65.5t-10 -75.5q0 -31 9.5 -54.5t25.5 -39t37.5 -23.5t44.5 -8zM868 38q-64 0 -64 82q0 25 5.5 52t17 49t30.5 36.5t46 14.5
q63 0 63 -82q0 -25 -5 -52t-17 -49t-30.5 -36.5t-45.5 -14.5zM860 -10q43 0 74.5 17.5t52 46.5t30.5 66t10 75q0 31 -9.5 54.5t-25.5 39.5t-37 23.5t-45 7.5q-43 0 -74.5 -17.5t-52 -46.5t-30.5 -65.5t-10 -75.5q0 -31 9.5 -54.5t25.5 -39t37.5 -23.5t44.5 -8z" />
    <glyph glyph-name="a.sup" horiz-adv-x="353" 
d="M292 305q14 0 18 1.5t4 5.5q2 28 5.5 61t9.5 76l12 90l15 98q1 4 -2.5 6t-18.5 2h-3q-12 0 -16 -1.5t-6 -6.5l-7 -28q-11 18 -32 30t-52 12q-42 0 -73.5 -19.5t-53 -50t-32.5 -68.5t-11 -75q0 -30 6.5 -55t21 -44t36.5 -29.5t53 -10.5q32 0 58 12.5t44 33.5v-33
q0 -5 3.5 -6t17.5 -1h3zM277 464q-6 -42 -12.5 -60.5t-18.5 -30.5q-14 -14 -31.5 -20t-33.5 -6q-42 0 -58.5 29.5t-16.5 69.5q0 26 6.5 54t20 50.5t34.5 37t50 14.5q26 0 44.5 -13.5t28.5 -32.5z" />
    <glyph glyph-name="b.sup" horiz-adv-x="352" 
d="M52 333q-2 -11 6 -14q20 -8 47.5 -14t61.5 -6q49 0 84.5 18.5t58 48.5t33.5 68.5t11 78.5q0 29 -6.5 54t-20.5 44t-36 29.5t-53 10.5q-27 0 -51.5 -10.5t-41.5 -29.5l25 175q1 4 -2.5 6t-20.5 2h-5q-17 0 -21 -2t-4 -5zM121 439q8 59 14 87q5 21 10.5 30.5t12.5 16.5
q13 13 30 19.5t35 6.5q74 0 74 -91q0 -30 -7.5 -59.5t-22.5 -52t-38 -36.5t-54 -14q-17 0 -34 2.5t-32 7.5z" />
    <glyph glyph-name="c.sup" horiz-adv-x="307" 
d="M179 299q28 0 55.5 7t52.5 20q8 5 1 22l-2 5q-5 11 -7 14t-7 1q-20 -9 -40 -14.5t-40 -5.5q-23 0 -39.5 8t-26.5 21.5t-14.5 31.5t-4.5 38q0 28 7 55.5t21.5 49.5t35.5 36t50 14q41 0 79 -23q7 -4 21 16l2 3q11 17 4 23q-18 14 -45 22t-56 8q-44 0 -77.5 -19t-55.5 -49.5
t-33 -68.5t-11 -75q0 -61 32 -100.5t98 -39.5z" />
    <glyph glyph-name="d.sup" horiz-adv-x="364" 
d="M166 299q35 0 61 12t40 31q2 -19 13 -28.5t25 -9.5q8 0 15 0.5t12 2.5q3 2 5.5 5t3.5 11l1 8q3 17 -4 17q-10 0 -14.5 3t-4.5 14v8.5t1 10.5l57 401q1 5 -4.5 7t-19.5 2h-4q-15 0 -20 -1.5t-6 -6.5l-22 -159q-14 11 -33.5 17.5t-43.5 6.5q-44 0 -76.5 -20t-54.5 -51.5
t-33 -70t-11 -75.5q0 -63 30.5 -99t86.5 -36zM183 347q-35 0 -56 24t-21 73q0 28 7.5 56t22.5 50.5t37 36.5t51 14q21 0 39.5 -7t30.5 -18l-16 -114q-5 -41 -13 -60t-19 -31t-28.5 -18t-34.5 -6z" />
    <glyph glyph-name="e.sup" horiz-adv-x="342" 
d="M299 356q-6 17 -13 13q-24 -11 -44.5 -16t-40.5 -5q-50 0 -74 25q-21 22 -21 65v17h223q5 0 6.5 3.5t3.5 17.5q2 11 3 22t1 22q0 21 -4 40t-12 34q-14 26 -40 41.5t-64 15.5q-44 0 -77 -20t-54.5 -51.5t-32 -69.5t-10.5 -75q0 -64 33.5 -100t102.5 -36q65 0 115 28
q4 2 4.5 7t-3.5 16zM115 500q13 53 40 77.5t62 24.5q39 0 55.5 -25t16.5 -57v-10t-1 -10h-173z" />
    <glyph glyph-name="f.sup" horiz-adv-x="209" 
d="M75 155q17 0 20.5 2t4.5 6l62 438h74q4 0 5 3.5t3 14.5l1 7q2 12 1.5 15.5t-4.5 3.5h-73l2 17q5 44 20.5 69t51.5 25q27 0 50 -9q7 -3 14 16l1 3q7 20 2 22q-30 14 -64 14q-57 0 -89 -36t-40 -105l-2 -16h-46q-3 0 -5 -3.5t-4 -15.5l-1 -8q-2 -11 -1 -14t4 -3h47
l-62 -438q-1 -4 3 -6t21 -2h4z" />
    <glyph glyph-name="g.sup" horiz-adv-x="356" 
d="M181 354q-36 0 -54 24t-18 69q0 26 6.5 53.5t19.5 49.5t33.5 36t48.5 14q49 0 66 -31q7 -11 7 -32q0 -8 -1 -20t-3 -29l-13 -94q-17 -18 -41.5 -29t-50.5 -11zM168 305q26 0 51.5 9t45.5 29q-2 -15 -4.5 -34.5t-7.5 -33.5q-12 -38 -38.5 -55.5t-64.5 -17.5
q-20 0 -40.5 3.5t-37.5 11.5q-5 2 -8 -1.5t-8 -13.5l-3 -6q-5 -11 -5 -16t3 -7q7 -4 18.5 -7.5t25 -6t27.5 -4t26 -1.5q50 0 89 22.5t59 70.5q8 20 15 51.5t12 70.5l15 108q2 16 5 38t5.5 44.5t4.5 43.5t3 34q0 5 -4 6.5t-18 1.5h-4q-14 0 -18.5 -1.5t-5.5 -6.5l-4 -27
q-22 41 -86 41q-40 0 -70.5 -19.5t-51.5 -49.5t-31.5 -67.5t-10.5 -73.5q0 -59 28.5 -97.5t87.5 -38.5z" />
    <glyph glyph-name="h.sup" horiz-adv-x="367" 
d="M302 305q17 0 21 2t4 6l28 195q3 22 3 41q0 23 -5 39t-15 29q-28 34 -83 34q-29 0 -58 -11.5t-49 -31.5l25 178q1 4 -3.5 6t-21.5 2h-4q-18 0 -21 -2t-4 -6l-67 -474q-1 -4 3 -5.5t22 -1.5h3q18 0 21.5 2t4.5 6l18 126q4 29 7.5 52t6.5 37q5 20 11 30t13 16
q14 12 33.5 18.5t38.5 6.5q44 0 59 -22q10 -14 10 -38q0 -11 -2 -25t-4 -33l-24 -169q0 -3 3.5 -5t21.5 -2h4z" />
    <glyph glyph-name="i.sup" horiz-adv-x="150" 
d="M81 305q17 0 20.5 1.5t4.5 5.5l46 326q0 3 -3.5 5t-20.5 2h-4q-17 0 -21.5 -2t-5.5 -6l-45 -324q-1 -5 3 -6.5t22 -1.5h4zM138 712q19 0 30 14t11 29t-9.5 25t-25.5 10q-19 0 -30.5 -13.5t-11.5 -29.5q0 -15 10 -25t26 -10z" />
    <glyph glyph-name="j.sup" horiz-adv-x="179" 
d="M79 300q-8 -57 -26.5 -78.5t-53.5 -21.5q-7 0 -15 2t-15 4q-5 2 -11 -15l-4 -10q-4 -9 -3.5 -12.5t3.5 -5.5q6 -4 19 -6.5t24 -2.5q27 0 49.5 7.5t40 25t29 46t17.5 69.5l47 335q1 4 -2.5 6t-20.5 2h-4q-18 0 -22 -2t-5 -6zM166 712q20 0 30.5 14t10.5 29t-9.5 25
t-25.5 10q-19 0 -30.5 -13.5t-11.5 -29.5q0 -15 10 -25t26 -10z" />
    <glyph glyph-name="k.sup" horiz-adv-x="308" 
d="M274 305q17 0 21 3t2 7l-90 195q44 37 76.5 71.5t46.5 53.5q7 10 -22 10h-2q-17 0 -23 -1.5t-9 -5.5q-27 -31 -49 -52.5t-52 -46.5l-41 -34l40 281q1 4 -3.5 6t-20.5 2h-4q-17 0 -21.5 -2t-5.5 -6l-66 -473q-1 -5 3 -6.5t22 -1.5h3q17 0 21 1.5t5 5.5l19 133l40 32
l75 -164q2 -4 8 -6t23 -2h4z" />
    <glyph glyph-name="l.sup" horiz-adv-x="160" 
d="M140 332q0 15 -3 15h-8q-20 0 -20 17q0 4 0.5 8t1.5 9l30 216q10 71 14.5 120.5t5.5 68.5q0 5 -5 6.5t-19 1.5h-3q-16 0 -21.5 -1.5t-5.5 -6.5q-1 -25 -5.5 -72t-12.5 -104l-30 -217q-2 -13 -3 -24t-1 -19q0 -46 47 -46q15 0 30 5q4 2 6 5.5t2 12.5v5z" />
    <glyph glyph-name="m.sup" horiz-adv-x="576" 
d="M466 651q-35 0 -67 -14t-55 -42q-2 7 -6 13.5t-9 11.5q-14 17 -34 24t-43 7q-31 0 -58.5 -12t-47.5 -33l3 31q1 5 -3 6.5t-20 1.5h-4q-17 0 -20.5 -2t-4.5 -6q-2 -14 -5 -42t-8 -59l-31 -223q-1 -5 3 -6.5t21 -1.5h5q17 0 20.5 2t4.5 5l18 128q4 28 8 51.5t7 37.5
q5 20 11 29.5t13 15.5q16 13 34 19t33 6q19 0 33.5 -5.5t22.5 -16.5q10 -14 10 -38q0 -21 -6 -58l-24 -168q-1 -5 3.5 -6.5t21.5 -1.5h4q17 0 20.5 2t4.5 5l19 136q4 26 7 47t6 34q5 20 11 29.5t12 15.5q14 12 32.5 18.5t36.5 6.5q41 0 57 -22q10 -14 10 -38q0 -11 -2 -27
t-5 -35l-23 -164q-1 -5 3.5 -6.5t21.5 -1.5h4q17 0 20.5 2t4.5 5l27 191q2 12 3 24t1 21q0 44 -20 69q-28 34 -81 34z" />
    <glyph glyph-name="n.sup" horiz-adv-x="368" 
d="M123 645q-17 0 -21 -2t-5 -6q-2 -12 -4 -33t-6 -46l-34 -245q-1 -5 3 -6.5t22 -1.5h3q18 0 21.5 2t4.5 6l18 126q5 36 9 59t8.5 38t9.5 23t12 14q14 12 32.5 19t38.5 7q33 0 50.5 -13t18.5 -43q0 -22 -6 -62l-24 -169q-1 -4 3 -5.5t22 -1.5h4q17 0 20.5 2t4.5 6l28 196
q3 21 3 38q1 51 -26 77.5t-77 26.5q-31 0 -60.5 -12.5t-49.5 -32.5l3 31q1 4 -3 6t-20 2h-3z" />
    <glyph glyph-name="o.sup" horiz-adv-x="356" 
d="M177 299q41 0 74 16t56.5 44.5t36.5 67t13 83.5q0 74 -38 110q-33 31 -90 31q-40 0 -73 -16t-57 -44.5t-37 -67.5t-13 -85q0 -71 34 -106q31 -33 94 -33zM186 348q-23 0 -38.5 8t-24.5 21t-13 30.5t-4 37.5q0 34 8.5 62.5t23.5 49.5t36 33t46 12q23 0 38.5 -8t24.5 -21.5
t12.5 -31t3.5 -36.5q0 -34 -8.5 -62.5t-23.5 -49.5t-35.5 -33t-45.5 -12z" />
    <glyph glyph-name="p.sup" horiz-adv-x="354" 
d="M355 517q0 63 -29.5 98.5t-83.5 35.5q-29 0 -55 -11t-44 -33l3 30q1 5 -3 6.5t-20 1.5h-3q-17 0 -21 -2t-5 -6l-65 -474q-1 -5 4 -6.5t19 -1.5h4q15 0 20.5 1.5t6.5 6.5l22 157q27 -21 75 -21q44 0 77 20t54.5 51.5t32.5 70.5t11 76zM298 508q0 -26 -7 -54.5t-21.5 -52
t-36 -38.5t-51.5 -15q-22 0 -40 7.5t-29 18.5l14 101q7 46 11.5 66t15.5 31q26 29 70 29q34 0 54 -23t20 -70z" />
    <glyph glyph-name="q.sup" horiz-adv-x="353" 
d="M266 160q17 0 21.5 1.5t4.5 9.5q0 9 2.5 29.5t5.5 45.5t6.5 51.5t6.5 47.5l39 271q1 12 -6 15q-20 8 -48 14t-59 6q-44 0 -79 -16.5t-59.5 -45.5t-38 -68.5t-13.5 -84.5q0 -60 27 -98.5t87 -38.5q30 0 54.5 11t41.5 30q-9 -59 -14.5 -107t-5.5 -65q0 -5 4.5 -6.5
t18.5 -1.5h4zM281 498q-4 -31 -8 -52t-8 -35t-9.5 -23t-12.5 -16q-13 -11 -29.5 -17t-33.5 -6q-74 0 -74 91q0 31 8.5 61t24.5 52.5t39.5 36.5t53.5 14q34 0 62 -10z" />
    <glyph glyph-name="r.sup" horiz-adv-x="234" 
d="M81 305q16 0 20.5 2t5.5 5l10 73q2 13 4 27.5t4.5 28t4 24.5t3.5 17q5 20 14.5 40t24.5 37t35 28t43 11q5 0 6.5 5.5t3.5 15.5l2 8q4 18 -4 20q-3 1 -13 1q-27 0 -54.5 -18.5t-48.5 -59.5l7 67q1 4 -3 6t-20 2h-3q-17 0 -21.5 -2t-4.5 -6q-2 -15 -5 -44t-8 -61l-31 -220
q-1 -4 3.5 -5.5t21.5 -1.5h3z" />
    <glyph glyph-name="s.sup" horiz-adv-x="287" 
d="M288 597q12 16 6 22q-16 16 -41.5 24t-53.5 8q-27 0 -50.5 -7t-41.5 -20t-28.5 -32t-10.5 -43q0 -22 6 -35.5t15 -22.5q12 -13 29 -21t38 -14q13 -4 25 -8.5t21.5 -10.5t15 -15t5.5 -21q0 -23 -19.5 -39.5t-58.5 -16.5q-22 0 -43.5 6.5t-37.5 17.5q-9 6 -20 -13l-3 -6
q-12 -17 -6 -21q17 -13 43 -21.5t59 -8.5q28 0 53.5 7t44 20.5t29.5 34t11 46.5q0 35 -19.5 58t-72.5 38q-24 7 -43 17t-19 34q0 22 18 36.5t55 14.5q18 0 36 -6t35 -19q3 -2 7.5 0t12.5 13z" />
    <glyph glyph-name="t.sup" horiz-adv-x="232" 
d="M220 339q-1 16 -9 13q-11 -4 -22.5 -5.5t-22.5 -1.5q-38 0 -38 34q0 12 3 30l27 193h82q4 0 8 19l1 5q4 19 -3 19h-81l12 88q1 3 -2.5 5.5t-21.5 2.5h-4q-17 0 -21 -2t-5 -6l-12 -88h-45q-5 0 -9 -19l-1 -5q-4 -19 3 -19h46l-28 -198q-3 -20 -3 -37q0 -35 19.5 -51.5
t54.5 -16.5q18 0 36.5 3t32.5 11q4 2 4.5 6t-0.5 12z" />
    <glyph glyph-name="u.sup" horiz-adv-x="365" 
d="M163 299q68 0 110 44l-3 -31q0 -4 4 -5.5t19 -1.5h4q16 0 19.5 2t4.5 6q2 15 5 43.5t8 60.5l31 221q1 3 -3.5 5t-19.5 2h-5q-16 0 -20 -2t-5 -6l-23 -160q-4 -27 -7.5 -44.5t-8 -28.5t-9.5 -18t-11 -12q-14 -13 -33 -19t-40 -6q-42 0 -55 22q-10 16 -9 40.5t6 56.5
l24 169q1 4 -3 6t-21 2h-5q-17 0 -20.5 -2.5t-4.5 -5.5l-27 -195q-5 -32 -3.5 -61t18.5 -50q13 -17 34.5 -24.5t48.5 -7.5z" />
    <glyph glyph-name="v.sup" horiz-adv-x="311" 
d="M128 314q2 -5 7.5 -7t20.5 -2h5q18 0 24 1.5t9 6.5q36 62 75.5 145.5t75.5 174.5q3 8 -2 10t-21 2h-4q-17 0 -21 -1.5t-6 -5.5q-24 -69 -55 -138t-65 -136l-55 273q-1 8 -30 8h-6q-14 0 -18 -2t-3 -7z" />
    <glyph glyph-name="w.sup" horiz-adv-x="491" 
d="M357 305q14 0 21 2.5t10 8.5q17 34 33.5 69t32.5 73.5t32.5 81.5t34.5 93q2 7 -2 9.5t-18 2.5h-5q-17 0 -21 -2.5t-6 -7.5q-23 -75 -49.5 -141.5t-58.5 -136.5l-33 279q-1 5 -5.5 7t-19.5 2h-11q-17 0 -22 -2t-7 -7l-107 -273l-35 274q-1 4 -6 6t-22 2h-2q-16 0 -21 -1.5
t-4 -7.5l49 -322q1 -5 6.5 -7t24.5 -2h6q17 0 23 2t8 7l62 150q11 29 24 63.5t22 64.5q2 -31 3.5 -65.5t5.5 -62.5l18 -150q1 -9 29 -9h10z" />
    <glyph glyph-name="x.sup" horiz-adv-x="325" 
d="M246 312q2 -5 7 -6t24 -1h3q32 0 28 9l-87 170l118 151q5 5 -3 7.5t-25 2.5h-2q-17 0 -23 -1.5t-10 -6.5l-79 -109l-51 110q-2 5 -7 6t-23 1h-3q-19 0 -24 -1.5t-3 -6.5l74 -151l-136 -172q-6 -9 26 -9h4q16 0 22.5 1t9.5 6l99 131z" />
    <glyph glyph-name="y.sup" horiz-adv-x="320" 
d="M142 300q-27 -56 -50 -78t-55 -22q-11 0 -20 2t-16 4t-15 -14l-3 -6q-9 -19 -2 -22q11 -5 24 -7.5t27 -2.5q29 0 53 10t43 28q21 20 37.5 46.5t31.5 57.5l167 340q2 5 -3.5 7t-22.5 2h-5q-12 0 -17.5 -1.5t-7.5 -5.5l-79 -165q-14 -30 -27.5 -58.5t-23.5 -54.5
q-4 29 -8.5 56t-12.5 61l-37 161q-1 4 -5.5 5.5t-20.5 1.5h-2q-19 0 -25 -2t-4 -7z" />
    <glyph glyph-name="z.sup" horiz-adv-x="287" 
d="M260 305q4 0 5.5 3.5t3.5 15.5l1 7q2 13 1 16.5t-5 3.5h-164l194 250q3 5 5.5 10t3.5 12l1 7q2 15 -4 15h-214q-4 0 -5 -4.5t-4 -15.5l-2 -7q-3 -12 -1 -15.5t5 -3.5h151l-193 -250q-6 -9 -8 -20l-1 -8q-3 -16 5 -16h225z" />
    <glyph glyph-name="ordfeminine" unicode="&#xaa;" horiz-adv-x="425" 
d="M248 739q-44 0 -77 -20t-55 -51.5t-33.5 -69.5t-11.5 -75q0 -63 29.5 -99.5t88.5 -36.5q37 0 66 15.5t48 41.5v-45q0 -4 3.5 -5.5t18.5 -1.5h5q14 0 19 1t5 5q2 26 6.5 64.5t9.5 72.5l8 56q5 31 11 70.5t11 65.5q1 5 -4 6t-19 1h-5q-15 0 -18.5 -1.5t-4.5 -5.5l-9 -32
q-14 21 -38.5 32.5t-53.5 11.5zM318 564q-9 -68 -38 -100q-14 -14 -33 -23.5t-41 -9.5q-40 0 -58.5 24.5t-18.5 69.5q0 29 7 59.5t22 55t38 40.5t55 16q28 0 48 -13.5t31 -34.5z" />
    <glyph glyph-name="ordmasculine" unicode="&#xba;" horiz-adv-x="425" 
d="M212 435q-48 0 -65.5 27t-17.5 64q0 30 7.5 59.5t23 53.5t39.5 38.5t56 14.5q24 0 40 -7.5t25.5 -20t13.5 -29.5t4 -35q0 -30 -7.5 -59.5t-23 -53t-39.5 -38t-56 -14.5zM202 387q47 0 83.5 19t61 49.5t37.5 70t13 80.5q0 62 -33.5 97.5t-98.5 35.5q-47 0 -83.5 -18.5
t-61 -49.5t-37.5 -70t-13 -80q0 -63 33.5 -98.5t98.5 -35.5z" />
    <glyph glyph-name="zero.sup" horiz-adv-x="360" 
d="M197 437q-32 0 -52.5 27.5t-20.5 81.5q0 38 7 75.5t21.5 67.5t37 49t52.5 19q32 0 52 -27.5t20 -82.5q0 -38 -7 -75.5t-21 -67.5t-36.5 -48.5t-52.5 -18.5zM196 394q43 0 75 21t53 56.5t31.5 82.5t10.5 100q0 74 -33 110.5t-90 36.5q-43 0 -75 -21t-53.5 -57t-32.5 -83
t-11 -99q0 -71 34 -109t91 -38z" />
    <glyph glyph-name="onesuperior" unicode="&#xb9;" horiz-adv-x="360" 
d="M243 440l49 348q1 7 -18 7h-12q-10 0 -16 -2.5t-11 -4.5l-114 -61q-6 -4 2 -19l4 -8q8 -16 15 -13l91 48l-43 -295h-65q-3 0 -4 -2.5t-3 -12.5l-2 -13q-2 -8 -1 -10.5t5 -2.5h179q3 0 4 2.5t3 12.5l2 13q2 8 1 10.5t-5 2.5h-61z" />
    <glyph glyph-name="twosuperior" unicode="&#xb2;" horiz-adv-x="360" 
d="M307 399q3 0 4.5 2.5t3.5 13.5l2 14q2 9 1 11.5t-6 2.5h-182l87 77q25 22 48 44t41 45.5t28.5 47t10.5 48.5q0 47 -31 71.5t-79 24.5q-29 0 -59 -8t-52 -22q-6 -4 0 -17l3 -7q4 -8 7 -10.5t6 -0.5q43 20 83 20q32 0 51 -15t19 -41q0 -20 -11 -39.5t-28 -39t-37 -38.5
t-39 -37l-96 -89q-5 -5 -7 -12t-4 -16l-2 -15q-2 -11 0 -13t5 -2h233z" />
    <glyph glyph-name="threesuperior" unicode="&#xb3;" horiz-adv-x="361" 
d="M72 431q-8 -19 -2 -21q45 -16 99 -16q33 0 62 9.5t50 26.5t33 40.5t12 52.5q0 38 -21.5 60t-47.5 27q38 11 59 39t21 60q0 43 -30 67q-16 13 -37.5 19t-47.5 6q-25 0 -49 -5.5t-44 -15.5q-4 -2 -4 -5t3 -13l2 -7q4 -15 11 -12q3 2 22 9t50 7q17 0 32 -4t25 -13
q15 -14 15 -40q0 -34 -27 -53q-14 -11 -34 -16t-43 -5h-21q-3 0 -4.5 -2.5t-3.5 -13.5l-1 -9q-2 -11 -0.5 -13.5t4.5 -2.5h22q23 0 43 -5.5t33 -16.5q21 -18 21 -48q0 -36 -30 -58t-73 -22q-20 0 -41.5 3.5t-41.5 11.5q-4 2 -6 0t-6 -11z" />
    <glyph glyph-name="four.sup" horiz-adv-x="361" 
d="M347 499q3 0 4.5 2.5t3.5 13.5l2 14q2 9 1 11.5t-6 2.5h-48l13 88q1 6 -23 6h-6q-22 0 -23 -6l-13 -88h-132l168 244q6 8 -20 8h-10q-11 0 -16.5 -1.5t-8.5 -5.5l-151 -227q-10 -14 -11 -29l-3 -25q-1 -8 18 -8h161l-14 -94q0 -6 23 -6h6q23 0 23 6l14 94h48z" />
    <glyph glyph-name="five.sup" horiz-adv-x="360" 
d="M144 795l-27 -198q37 8 75 8q24 0 42.5 -4.5t30.5 -17.5q8 -8 12 -20t4 -29q0 -24 -9.5 -44t-29.5 -33q-30 -19 -76 -19q-23 0 -40 4t-34 9q-4 2 -6 -1.5t-7 -14.5l-3 -7q-5 -11 -4 -15t3 -5q17 -7 41.5 -10.5t47.5 -3.5q39 0 70.5 11t53.5 30t33.5 45.5t11.5 58.5
q0 24 -6.5 41.5t-18.5 31.5q-17 18 -42 27t-56 9q-19 0 -37 -3l16 106h156q2 0 4 3t4 13l2 14q2 9 1 11.5t-6 2.5h-206z" />
    <glyph glyph-name="six.sup" horiz-adv-x="361" 
d="M360 767q5 11 5 14.5t-4 5.5q-14 7 -31.5 10.5t-40.5 3.5q-56 0 -95 -29t-64 -70.5t-36 -88.5t-11 -83q0 -59 29 -97.5t92 -38.5q36 0 63 12.5t46 33.5t28.5 47.5t9.5 54.5q0 48 -27.5 76t-84.5 28q-25 0 -48 -6t-42 -18q7 25 18 49.5t27.5 44t39 31t52.5 11.5
q17 0 30 -3t27 -8q5 -2 7 1.5t7 12.5zM142 579q17 10 40 17t47 7q39 0 53.5 -19.5t14.5 -46.5q0 -18 -5.5 -36t-16.5 -32t-27.5 -23t-39.5 -9q-21 0 -34.5 7.5t-22 20t-12 28.5t-3.5 34q0 8 1.5 23t4.5 29z" />
    <glyph glyph-name="seven.sup" horiz-adv-x="360" 
d="M302 751l-207 -345q-4 -7 20 -7h10q22 0 25 6l196 332q2 5 4.5 11t3.5 13l4 27q1 4 -2.5 5.5t-14.5 1.5h-227q-2 0 -4 -3t-4 -13l-2 -14q-2 -9 -1 -11.5t6 -2.5h193z" />
    <glyph glyph-name="eight.sup" horiz-adv-x="361" 
d="M217 586q14 -5 28 -12t25.5 -16t18.5 -21t7 -27q0 -16 -8 -29.5t-21.5 -23.5t-30.5 -15.5t-36 -5.5q-33 0 -54.5 16.5t-21.5 44.5q0 17 8 31t21.5 25t30 19t33.5 14zM273 613q16 5 32 15t28.5 23t20 29.5t7.5 34.5q0 21 -9 37.5t-24 27t-35 16t-42 5.5q-25 0 -49 -7
t-43 -21t-30.5 -34.5t-11.5 -46.5q0 -31 18 -52.5t41 -30.5q-46 -16 -75 -47t-29 -73q0 -24 10 -42t26.5 -30t38.5 -17.5t47 -5.5q31 0 59 8.5t49.5 24.5t34 38.5t12.5 50.5q0 38 -23.5 61t-52.5 36zM231 635q-24 11 -42.5 25.5t-18.5 38.5q0 26 22 42.5t53 16.5
q29 0 46.5 -14t17.5 -37q0 -26 -24.5 -43.5t-53.5 -28.5z" />
    <glyph glyph-name="nine.sup" horiz-adv-x="361" 
d="M81 431q-5 -11 -5 -14.5t4 -5.5q14 -8 36 -12.5t43 -4.5q38 0 73 16t59.5 46.5t40 67t22.5 74t7 66.5q0 60 -29 98.5t-92 38.5q-36 0 -63 -12.5t-46 -33.5t-28.5 -47.5t-9.5 -54.5q0 -48 27.5 -76t84.5 -28q52 0 90 24q-5 -17 -11.5 -35.5t-16.5 -36t-23 -31.5t-31 -22
q-24 -11 -52 -11q-17 0 -30.5 3t-32.5 11q-5 2 -7 -1.5t-7 -12.5zM302 616q-17 -10 -40 -17t-47 -7q-39 0 -53.5 19.5t-14.5 46.5q0 18 5.5 36t16.5 32t27.5 23t39.5 9q21 0 34.5 -7.5t22 -19.5t12 -27.5t3.5 -31.5q0 -11 -1.5 -26.5t-4.5 -29.5z" />
    <glyph glyph-name="plus.sup" horiz-adv-x="361" 
d="M197 580l-17 -122q0 -6 16 -6h7q18 0 18 6l17 122h123q3 0 4 2.5t3 13.5l1 6q2 11 0.5 13.5t-3.5 2.5h-124l17 121q1 6 -16 6h-7q-10 0 -13 -1.5t-4 -4.5l-17 -121h-124q-3 0 -4 -2.5t-3 -13.5l-1 -6q-2 -11 -0.5 -13.5t3.5 -2.5h124z" />
    <glyph glyph-name="minus.sup" horiz-adv-x="360" 
d="M363 618q2 0 3.5 -2.5t-0.5 -13.5l-1 -6q-2 -11 -3 -13.5t-4 -2.5h-284q-2 0 -3.5 2.5t0.5 13.5l1 6q2 11 3 13.5t4 2.5h284z" />
    <glyph glyph-name="equal.sup" horiz-adv-x="361" 
d="M87 674q-3 0 -4 -2.5t-3 -13.5l-1 -6q-2 -11 -0.5 -13.5t3.5 -2.5h284q3 0 4 2.5t3 13.5l1 6q2 11 0.5 13.5t-3.5 2.5h-284zM72 562q-3 0 -4 -2.5t-3 -13.5l-1 -6q-2 -11 -0.5 -13.5t3.5 -2.5h284q3 0 4 2.5t3 13.5l1 6q2 11 0.5 13.5t-3.5 2.5h-284z" />
    <glyph glyph-name="parenleft.sup" horiz-adv-x="212" 
d="M181 331q6 2 9 4.5t0 8.5q-19 39 -30.5 77t-11.5 95q0 86 29 158t74 122q5 5 -8 15l-8 6q-9 7 -15 1q-24 -22 -46.5 -54t-39 -71.5t-26.5 -85t-10 -94.5q0 -57 15.5 -107t36.5 -81q3 -5 20 2z" />
    <glyph glyph-name="parenright.sup" horiz-adv-x="212" 
d="M116 812q-6 -2 -9 -4.5t0 -8.5q19 -39 30.5 -77t11.5 -95q0 -86 -29 -158t-74 -122q-2 -2 -1 -5.5t9 -9.5l8 -6q9 -7 15 -1q24 22 46.5 54t39 71.5t26.5 85t10 94.5q0 57 -15.5 107t-36.5 81q-3 5 -20 -2z" />
    <glyph glyph-name="period.sup" horiz-adv-x="162" 
d="M102 394q19 0 30 13t11 27q0 15 -10 24.5t-26 9.5q-19 0 -30 -12.5t-11 -27.5q0 -14 10 -24t26 -10z" />
    <glyph glyph-name="comma.sup" horiz-adv-x="162" 
d="M44 310q6 -8 11 -4q16 10 31 23.5t27 29.5t19 33.5t7 34.5t-9.5 29t-28.5 12q-17 0 -27.5 -11t-10.5 -25q0 -10 3 -15.5t7 -9.5t7 -8.5t3 -11.5q0 -16 -16.5 -32t-29.5 -26q-3 -2 -2 -6t3 -6z" />
    <glyph glyph-name="zero.sub" horiz-adv-x="360" 
d="M137 -37q-32 0 -52.5 27.5t-20.5 81.5q0 38 7 75.5t21.5 67.5t37 49t52.5 19q32 0 52 -27.5t20 -82.5q0 -38 -7 -75.5t-21 -67.5t-36.5 -48.5t-52.5 -18.5zM136 -80q43 0 75 21t53 56.5t31.5 82.5t10.5 100q0 74 -33 110.5t-90 36.5q-43 0 -75 -21t-53.5 -57t-32.5 -83
t-11 -99q0 -71 34 -109t91 -38z" />
    <glyph glyph-name="one.sub" horiz-adv-x="360" 
d="M183 -34l49 348q1 7 -18 7h-12q-10 0 -16 -2.5t-11 -4.5l-114 -61q-6 -4 2 -19l4 -8q8 -16 15 -13l91 48l-43 -295h-65q-3 0 -4 -2.5t-3 -12.5l-2 -13q-2 -8 -1 -10.5t5 -2.5h179q3 0 4 2.5t3 12.5l2 13q2 8 1 10.5t-5 2.5h-61z" />
    <glyph glyph-name="two.sub" horiz-adv-x="360" 
d="M247 -75q3 0 4.5 2.5t3.5 13.5l2 14q2 9 1 11.5t-6 2.5h-182l87 77q25 22 48 44t41 45.5t28.5 47t10.5 48.5q0 47 -31 71.5t-79 24.5q-29 0 -59 -8t-52 -22q-6 -4 0 -17l3 -7q4 -8 7 -10.5t6 -0.5q43 20 83 20q32 0 51 -15t19 -41q0 -20 -11 -39.5t-28 -39t-37 -38.5
t-39 -37l-96 -89q-5 -5 -7 -12t-4 -16l-2 -15q-2 -11 0 -13t5 -2h233z" />
    <glyph glyph-name="three.sub" horiz-adv-x="361" 
d="M12 -43q-8 -19 -2 -21q45 -16 99 -16q33 0 62 9.5t50 26.5t33 40.5t12 52.5q0 38 -21.5 60t-47.5 27q38 11 59 39t21 60q0 43 -30 67q-16 13 -37.5 19t-47.5 6q-25 0 -49 -5.5t-44 -15.5q-4 -2 -4 -5t3 -13l2 -7q4 -15 11 -12q3 2 22 9t50 7q17 0 32 -4t25 -13
q15 -14 15 -40q0 -34 -27 -53q-14 -11 -34 -16t-43 -5h-21q-3 0 -4.5 -2.5t-3.5 -13.5l-1 -9q-2 -11 -0.5 -13.5t4.5 -2.5h22q23 0 43 -5.5t33 -16.5q21 -18 21 -48q0 -36 -30 -58t-73 -22q-20 0 -41.5 3.5t-41.5 11.5q-4 2 -6 0t-6 -11z" />
    <glyph glyph-name="four.sub" horiz-adv-x="361" 
d="M287 25q3 0 4.5 2.5t3.5 13.5l2 14q2 9 1 11.5t-6 2.5h-48l13 88q1 6 -23 6h-6q-22 0 -23 -6l-13 -88h-132l168 244q6 8 -20 8h-10q-11 0 -16.5 -1.5t-8.5 -5.5l-151 -227q-10 -14 -11 -29l-3 -25q-1 -8 18 -8h161l-14 -94q0 -6 23 -6h6q23 0 23 6l14 94h48z" />
    <glyph glyph-name="five.sub" horiz-adv-x="360" 
d="M84 321l-27 -198q37 8 75 8q24 0 42.5 -4.5t30.5 -17.5q8 -8 12 -20t4 -29q0 -24 -9.5 -44t-29.5 -33q-30 -19 -76 -19q-23 0 -40 4t-34 9q-4 2 -6 -1.5t-7 -14.5l-3 -7q-5 -11 -4 -15t3 -5q17 -7 41.5 -10.5t47.5 -3.5q39 0 70.5 11t53.5 30t33.5 45.5t11.5 58.5
q0 24 -6.5 41.5t-18.5 31.5q-17 18 -42 27t-56 9q-19 0 -37 -3l16 106h156q2 0 4 3t4 13l2 14q2 9 1 11.5t-6 2.5h-206z" />
    <glyph glyph-name="six.sub" horiz-adv-x="361" 
d="M300 293q5 11 5 14.5t-4 5.5q-14 7 -31.5 10.5t-40.5 3.5q-56 0 -95 -29t-64 -70.5t-36 -88.5t-11 -83q0 -59 29 -97.5t92 -38.5q36 0 63 12.5t46 33.5t28.5 47.5t9.5 54.5q0 48 -27.5 76t-84.5 28q-25 0 -48 -6t-42 -18q7 25 18 49.5t27.5 44t39 31t52.5 11.5
q17 0 30 -3t27 -8q5 -2 7 1.5t7 12.5zM82 105q17 10 40 17t47 7q39 0 53.5 -19.5t14.5 -46.5q0 -18 -5.5 -36t-16.5 -32t-27.5 -23t-39.5 -9q-21 0 -34.5 7.5t-22 20t-12 28.5t-3.5 34q0 8 1.5 23t4.5 29z" />
    <glyph glyph-name="seven.sub" horiz-adv-x="360" 
d="M242 277l-207 -345q-4 -7 20 -7h10q22 0 25 6l196 332q2 5 4.5 11t3.5 13l4 27q1 4 -2.5 5.5t-14.5 1.5h-227q-2 0 -4 -3t-4 -13l-2 -14q-2 -9 -1 -11.5t6 -2.5h193z" />
    <glyph glyph-name="eight.sub" horiz-adv-x="361" 
d="M157 112q14 -5 28 -12t25.5 -16t18.5 -21t7 -27q0 -16 -8 -29.5t-21.5 -23.5t-30.5 -15.5t-36 -5.5q-33 0 -54.5 16.5t-21.5 44.5q0 17 8 31t21.5 25t30 19t33.5 14zM213 139q16 5 32 15t28.5 23t20 29.5t7.5 34.5q0 21 -9 37.5t-24 27t-35 16t-42 5.5q-25 0 -49 -7
t-43 -21t-30.5 -34.5t-11.5 -46.5q0 -31 18 -52.5t41 -30.5q-46 -16 -75 -47t-29 -73q0 -24 10 -42t26.5 -30t38.5 -17.5t47 -5.5q31 0 59 8.5t49.5 24.5t34 38.5t12.5 50.5q0 38 -23.5 61t-52.5 36zM171 161q-24 11 -42.5 25.5t-18.5 38.5q0 26 22 42.5t53 16.5
q29 0 46.5 -14t17.5 -37q0 -26 -24.5 -43.5t-53.5 -28.5z" />
    <glyph glyph-name="nine.sub" horiz-adv-x="361" 
d="M21 -43q-5 -11 -5 -14.5t4 -5.5q14 -8 36 -12.5t43 -4.5q38 0 73 16t59.5 46.5t40 67t22.5 74t7 66.5q0 60 -29 98.5t-92 38.5q-36 0 -63 -12.5t-46 -33.5t-28.5 -47.5t-9.5 -54.5q0 -48 27.5 -76t84.5 -28q52 0 90 24q-5 -17 -11.5 -35.5t-16.5 -36t-23 -31.5t-31 -22
q-24 -11 -52 -11q-17 0 -30.5 3t-32.5 11q-5 2 -7 -1.5t-7 -12.5zM242 142q-17 -10 -40 -17t-47 -7q-39 0 -53.5 19.5t-14.5 46.5q0 18 5.5 36t16.5 32t27.5 23t39.5 9q21 0 34.5 -7.5t22 -19.5t12 -27.5t3.5 -31.5q0 -11 -1.5 -26.5t-4.5 -29.5z" />
    <glyph glyph-name="plus.sub" horiz-adv-x="361" 
d="M137 106l-17 -122q0 -6 16 -6h7q18 0 18 6l17 122h123q3 0 4 2.5t3 13.5l1 6q2 11 0.5 13.5t-3.5 2.5h-124l17 121q1 6 -16 6h-7q-10 0 -13 -1.5t-4 -4.5l-17 -121h-124q-3 0 -4 -2.5t-3 -13.5l-1 -6q-2 -11 -0.5 -13.5t3.5 -2.5h124z" />
    <glyph glyph-name="minus.sub" horiz-adv-x="360" 
d="M303 144q2 0 3.5 -2.5t-0.5 -13.5l-1 -6q-2 -11 -3 -13.5t-4 -2.5h-284q-2 0 -3.5 2.5t0.5 13.5l1 6q2 11 3 13.5t4 2.5h284z" />
    <glyph glyph-name="equal.sub" horiz-adv-x="361" 
d="M27 200q-3 0 -4 -2.5t-3 -13.5l-1 -6q-2 -11 -0.5 -13.5t3.5 -2.5h284q3 0 4 2.5t3 13.5l1 6q2 11 0.5 13.5t-3.5 2.5h-284zM12 88q-3 0 -4 -2.5t-3 -13.5l-1 -6q-2 -11 -0.5 -13.5t3.5 -2.5h284q3 0 4 2.5t3 13.5l1 6q2 11 0.5 13.5t-3.5 2.5h-284z" />
    <glyph glyph-name="parenleft.sub" horiz-adv-x="212" 
d="M121 -143q6 2 9 4.5t0 8.5q-19 39 -30.5 77t-11.5 95q0 86 29 158t74 122q5 5 -8 15l-8 6q-9 7 -15 1q-24 -22 -46.5 -54t-39 -71.5t-26.5 -85t-10 -94.5q0 -57 15.5 -107t36.5 -81q3 -5 20 2z" />
    <glyph glyph-name="parenright.sub" horiz-adv-x="212" 
d="M56 338q-6 -2 -9 -4.5t0 -8.5q19 -39 30.5 -77t11.5 -95q0 -86 -29 -158t-74 -122q-2 -2 -1 -5.5t9 -9.5l8 -6q9 -7 15 -1q24 22 46.5 54t39 71.5t26.5 85t10 94.5q0 57 -15.5 107t-36.5 81q-3 5 -20 -2z" />
    <glyph glyph-name="period.sub" horiz-adv-x="162" 
d="M42 -80q19 0 30 13t11 27q0 15 -10 24.5t-26 9.5q-19 0 -30 -12.5t-11 -27.5q0 -14 10 -24t26 -10z" />
    <glyph glyph-name="comma.sub" horiz-adv-x="162" 
d="M-16 -164q6 -8 11 -4q16 10 31 23.5t27 29.5t19 33.5t7 34.5t-9.5 29t-28.5 12q-17 0 -27.5 -11t-10.5 -25q0 -10 3 -15.5t7 -9.5t7 -8.5t3 -11.5q0 -16 -16.5 -32t-29.5 -26q-3 -2 -2 -6t3 -6z" />
    <glyph glyph-name="zero.num" horiz-adv-x="360" 
d="M187 364q-32 0 -52.5 27.5t-20.5 81.5q0 38 7 75.5t21.5 67.5t37 49t52.5 19q32 0 52 -27.5t20 -82.5q0 -38 -7 -75.5t-21 -67.5t-36.5 -48.5t-52.5 -18.5zM186 321q43 0 75 21t53 56.5t31.5 82.5t10.5 100q0 74 -33 110.5t-90 36.5q-43 0 -75 -21t-53.5 -57t-32.5 -83
t-11 -99q0 -71 34 -109t91 -38z" />
    <glyph glyph-name="one.num" horiz-adv-x="360" 
d="M233 367l49 348q1 7 -18 7h-12q-10 0 -16 -2.5t-11 -4.5l-114 -61q-6 -4 2 -19l4 -8q8 -16 15 -13l91 48l-43 -295h-65q-3 0 -4 -2.5t-3 -12.5l-2 -13q-2 -8 -1 -10.5t5 -2.5h179q3 0 4 2.5t3 12.5l2 13q2 8 1 10.5t-5 2.5h-61z" />
    <glyph glyph-name="two.num" horiz-adv-x="360" 
d="M297 326q3 0 4.5 2.5t3.5 13.5l2 14q2 9 1 11.5t-6 2.5h-182l87 77q25 22 48 44t41 45.5t28.5 47t10.5 48.5q0 47 -31 71.5t-79 24.5q-29 0 -59 -8t-52 -22q-6 -4 0 -17l3 -7q4 -8 7 -10.5t6 -0.5q43 20 83 20q32 0 51 -15t19 -41q0 -20 -11 -39.5t-28 -39t-37 -38.5
t-39 -37l-96 -89q-5 -5 -7 -12t-4 -16l-2 -15q-2 -11 0 -13t5 -2h233z" />
    <glyph glyph-name="three.num" horiz-adv-x="361" 
d="M62 358q-8 -19 -2 -21q45 -16 99 -16q33 0 62 9.5t50 26.5t33 40.5t12 52.5q0 38 -21.5 60t-47.5 27q38 11 59 39t21 60q0 43 -30 67q-16 13 -37.5 19t-47.5 6q-25 0 -49 -5.5t-44 -15.5q-4 -2 -4 -5t3 -13l2 -7q4 -15 11 -12q3 2 22 9t50 7q17 0 32 -4t25 -13
q15 -14 15 -40q0 -34 -27 -53q-14 -11 -34 -16t-43 -5h-21q-3 0 -4.5 -2.5t-3.5 -13.5l-1 -9q-2 -11 -0.5 -13.5t4.5 -2.5h22q23 0 43 -5.5t33 -16.5q21 -18 21 -48q0 -36 -30 -58t-73 -22q-20 0 -41.5 3.5t-41.5 11.5q-4 2 -6 0t-6 -11z" />
    <glyph glyph-name="four.num" horiz-adv-x="361" 
d="M337 426q3 0 4.5 2.5t3.5 13.5l2 14q2 9 1 11.5t-6 2.5h-48l13 88q1 6 -23 6h-6q-22 0 -23 -6l-13 -88h-132l168 244q6 8 -20 8h-10q-11 0 -16.5 -1.5t-8.5 -5.5l-151 -227q-10 -14 -11 -29l-3 -25q-1 -8 18 -8h161l-14 -94q0 -6 23 -6h6q23 0 23 6l14 94h48z" />
    <glyph glyph-name="five.num" horiz-adv-x="360" 
d="M134 722l-27 -198q37 8 75 8q24 0 42.5 -4.5t30.5 -17.5q8 -8 12 -20t4 -29q0 -24 -9.5 -44t-29.5 -33q-30 -19 -76 -19q-23 0 -40 4t-34 9q-4 2 -6 -1.5t-7 -14.5l-3 -7q-5 -11 -4 -15t3 -5q17 -7 41.5 -10.5t47.5 -3.5q39 0 70.5 11t53.5 30t33.5 45.5t11.5 58.5
q0 24 -6.5 41.5t-18.5 31.5q-17 18 -42 27t-56 9q-19 0 -37 -3l16 106h156q2 0 4 3t4 13l2 14q2 9 1 11.5t-6 2.5h-206z" />
    <glyph glyph-name="six.num" horiz-adv-x="361" 
d="M350 694q5 11 5 14.5t-4 5.5q-14 7 -31.5 10.5t-40.5 3.5q-56 0 -95 -29t-64 -70.5t-36 -88.5t-11 -83q0 -59 29 -97.5t92 -38.5q36 0 63 12.5t46 33.5t28.5 47.5t9.5 54.5q0 48 -27.5 76t-84.5 28q-25 0 -48 -6t-42 -18q7 25 18 49.5t27.5 44t39 31t52.5 11.5
q17 0 30 -3t27 -8q5 -2 7 1.5t7 12.5zM132 506q17 10 40 17t47 7q39 0 53.5 -19.5t14.5 -46.5q0 -18 -5.5 -36t-16.5 -32t-27.5 -23t-39.5 -9q-21 0 -34.5 7.5t-22 20t-12 28.5t-3.5 34q0 8 1.5 23t4.5 29z" />
    <glyph glyph-name="seven.num" horiz-adv-x="360" 
d="M292 678l-207 -345q-4 -7 20 -7h10q22 0 25 6l196 332q2 5 4.5 11t3.5 13l4 27q1 4 -2.5 5.5t-14.5 1.5h-227q-2 0 -4 -3t-4 -13l-2 -14q-2 -9 -1 -11.5t6 -2.5h193z" />
    <glyph glyph-name="eight.num" horiz-adv-x="361" 
d="M207 513q14 -5 28 -12t25.5 -16t18.5 -21t7 -27q0 -16 -8 -29.5t-21.5 -23.5t-30.5 -15.5t-36 -5.5q-33 0 -54.5 16.5t-21.5 44.5q0 17 8 31t21.5 25t30 19t33.5 14zM263 540q16 5 32 15t28.5 23t20 29.5t7.5 34.5q0 21 -9 37.5t-24 27t-35 16t-42 5.5q-25 0 -49 -7
t-43 -21t-30.5 -34.5t-11.5 -46.5q0 -31 18 -52.5t41 -30.5q-46 -16 -75 -47t-29 -73q0 -24 10 -42t26.5 -30t38.5 -17.5t47 -5.5q31 0 59 8.5t49.5 24.5t34 38.5t12.5 50.5q0 38 -23.5 61t-52.5 36zM221 562q-24 11 -42.5 25.5t-18.5 38.5q0 26 22 42.5t53 16.5
q29 0 46.5 -14t17.5 -37q0 -26 -24.5 -43.5t-53.5 -28.5z" />
    <glyph glyph-name="nine.num" horiz-adv-x="361" 
d="M71 358q-5 -11 -5 -14.5t4 -5.5q14 -8 36 -12.5t43 -4.5q38 0 73 16t59.5 46.5t40 67t22.5 74t7 66.5q0 60 -29 98.5t-92 38.5q-36 0 -63 -12.5t-46 -33.5t-28.5 -47.5t-9.5 -54.5q0 -48 27.5 -76t84.5 -28q52 0 90 24q-5 -17 -11.5 -35.5t-16.5 -36t-23 -31.5t-31 -22
q-24 -11 -52 -11q-17 0 -30.5 3t-32.5 11q-5 2 -7 -1.5t-7 -12.5zM292 543q-17 -10 -40 -17t-47 -7q-39 0 -53.5 19.5t-14.5 46.5q0 18 5.5 36t16.5 32t27.5 23t39.5 9q21 0 34.5 -7.5t22 -19.5t12 -27.5t3.5 -31.5q0 -11 -1.5 -26.5t-4.5 -29.5z" />
    <glyph glyph-name="plus.num" horiz-adv-x="361" 
d="M187 507l-17 -122q0 -6 16 -6h7q18 0 18 6l17 122h123q3 0 4 2.5t3 13.5l1 6q2 11 0.5 13.5t-3.5 2.5h-124l17 121q1 6 -16 6h-7q-10 0 -13 -1.5t-4 -4.5l-17 -121h-124q-3 0 -4 -2.5t-3 -13.5l-1 -6q-2 -11 -0.5 -13.5t3.5 -2.5h124z" />
    <glyph glyph-name="minus.num" horiz-adv-x="360" 
d="M353 545q2 0 3.5 -2.5t-0.5 -13.5l-1 -6q-2 -11 -3 -13.5t-4 -2.5h-284q-2 0 -3.5 2.5t0.5 13.5l1 6q2 11 3 13.5t4 2.5h284z" />
    <glyph glyph-name="equal.num" horiz-adv-x="361" 
d="M77 601q-3 0 -4 -2.5t-3 -13.5l-1 -6q-2 -11 -0.5 -13.5t3.5 -2.5h284q3 0 4 2.5t3 13.5l1 6q2 11 0.5 13.5t-3.5 2.5h-284zM62 489q-3 0 -4 -2.5t-3 -13.5l-1 -6q-2 -11 -0.5 -13.5t3.5 -2.5h284q3 0 4 2.5t3 13.5l1 6q2 11 0.5 13.5t-3.5 2.5h-284z" />
    <glyph glyph-name="parenleft.num" horiz-adv-x="212" 
d="M171 258q6 2 9 4.5t0 8.5q-19 39 -30.5 77t-11.5 95q0 86 29 158t74 122q5 5 -8 15l-8 6q-9 7 -15 1q-24 -22 -46.5 -54t-39 -71.5t-26.5 -85t-10 -94.5q0 -57 15.5 -107t36.5 -81q3 -5 20 2z" />
    <glyph glyph-name="parenright.num" horiz-adv-x="212" 
d="M106 739q-6 -2 -9 -4.5t0 -8.5q19 -39 30.5 -77t11.5 -95q0 -86 -29 -158t-74 -122q-2 -2 -1 -5.5t9 -9.5l8 -6q9 -7 15 -1q24 22 46.5 54t39 71.5t26.5 85t10 94.5q0 57 -15.5 107t-36.5 81q-3 5 -20 -2z" />
    <glyph glyph-name="period.num" horiz-adv-x="162" 
d="M92 321q19 0 30 13t11 27q0 15 -10 24.5t-26 9.5q-19 0 -30 -12.5t-11 -27.5q0 -14 10 -24t26 -10z" />
    <glyph glyph-name="comma.num" horiz-adv-x="162" 
d="M34 237q6 -8 11 -4q16 10 31 23.5t27 29.5t19 33.5t7 34.5t-9.5 29t-28.5 12q-17 0 -27.5 -11t-10.5 -25q0 -10 3 -15.5t7 -9.5t7 -8.5t3 -11.5q0 -16 -16.5 -32t-29.5 -26q-3 -2 -2 -6t3 -6z" />
    <glyph glyph-name="zero.den" horiz-adv-x="360" 
d="M146 38q-32 0 -52.5 27.5t-20.5 81.5q0 38 7 75.5t21.5 67.5t37 49t52.5 19q32 0 52 -27.5t20 -82.5q0 -38 -7 -75.5t-21 -67.5t-36.5 -48.5t-52.5 -18.5zM145 -5q43 0 75 21t53 56.5t31.5 82.5t10.5 100q0 74 -33 110.5t-90 36.5q-43 0 -75 -21t-53.5 -57t-32.5 -83
t-11 -99q0 -71 34 -109t91 -38z" />
    <glyph glyph-name="one.den" horiz-adv-x="360" 
d="M193 41l49 348q1 7 -18 7h-12q-10 0 -16 -2.5t-11 -4.5l-114 -61q-6 -4 2 -19l4 -8q8 -16 15 -13l91 48l-43 -295h-65q-3 0 -4 -2.5t-3 -12.5l-2 -13q-2 -8 -1 -10.5t5 -2.5h179q3 0 4 2.5t3 12.5l2 13q2 8 1 10.5t-5 2.5h-61z" />
    <glyph glyph-name="two.den" horiz-adv-x="360" 
d="M257 0q3 0 4.5 2.5t3.5 13.5l2 14q2 9 1 11.5t-6 2.5h-182l87 77q25 22 48 44t41 45.5t28.5 47t10.5 48.5q0 47 -31 71.5t-79 24.5q-29 0 -59 -8t-52 -22q-6 -4 0 -17l3 -7q4 -8 7 -10.5t6 -0.5q43 20 83 20q32 0 51 -15t19 -41q0 -20 -11 -39.5t-28 -39t-37 -38.5
t-39 -37l-96 -89q-5 -5 -7 -12t-4 -16l-2 -15q-2 -11 0 -13t5 -2h233z" />
    <glyph glyph-name="three.den" horiz-adv-x="361" 
d="M22 32q-8 -19 -2 -21q45 -16 99 -16q33 0 62 9.5t50 26.5t33 40.5t12 52.5q0 38 -21.5 60t-47.5 27q38 11 59 39t21 60q0 43 -30 67q-16 13 -37.5 19t-47.5 6q-25 0 -49 -5.5t-44 -15.5q-4 -2 -4 -5t3 -13l2 -7q4 -15 11 -12q3 2 22 9t50 7q17 0 32 -4t25 -13
q15 -14 15 -40q0 -34 -27 -53q-14 -11 -34 -16t-43 -5h-21q-3 0 -4.5 -2.5t-3.5 -13.5l-1 -9q-2 -11 -0.5 -13.5t4.5 -2.5h22q23 0 43 -5.5t33 -16.5q21 -18 21 -48q0 -36 -30 -58t-73 -22q-20 0 -41.5 3.5t-41.5 11.5q-4 2 -6 0t-6 -11z" />
    <glyph glyph-name="four.den" horiz-adv-x="361" 
d="M297 100q3 0 4.5 2.5t3.5 13.5l2 14q2 9 1 11.5t-6 2.5h-48l13 88q1 6 -23 6h-6q-22 0 -23 -6l-13 -88h-132l168 244q6 8 -20 8h-10q-11 0 -16.5 -1.5t-8.5 -5.5l-151 -227q-10 -14 -11 -29l-3 -25q-1 -8 18 -8h161l-14 -94q0 -6 23 -6h6q23 0 23 6l14 94h48z" />
    <glyph glyph-name="five.den" horiz-adv-x="360" 
d="M94 396l-27 -198q37 8 75 8q24 0 42.5 -4.5t30.5 -17.5q8 -8 12 -20t4 -29q0 -24 -9.5 -44t-29.5 -33q-30 -19 -76 -19q-23 0 -40 4t-34 9q-4 2 -6 -1.5t-7 -14.5l-3 -7q-5 -11 -4 -15t3 -5q17 -7 41.5 -10.5t47.5 -3.5q39 0 70.5 11t53.5 30t33.5 45.5t11.5 58.5
q0 24 -6.5 41.5t-18.5 31.5q-17 18 -42 27t-56 9q-19 0 -37 -3l16 106h156q2 0 4 3t4 13l2 14q2 9 1 11.5t-6 2.5h-206z" />
    <glyph glyph-name="six.den" horiz-adv-x="361" 
d="M310 368q5 11 5 14.5t-4 5.5q-14 7 -31.5 10.5t-40.5 3.5q-56 0 -95 -29t-64 -70.5t-36 -88.5t-11 -83q0 -59 29 -97.5t92 -38.5q36 0 63 12.5t46 33.5t28.5 47.5t9.5 54.5q0 48 -27.5 76t-84.5 28q-25 0 -48 -6t-42 -18q7 25 18 49.5t27.5 44t39 31t52.5 11.5
q17 0 30 -3t27 -8q5 -2 7 1.5t7 12.5zM92 180q17 10 40 17t47 7q39 0 53.5 -19.5t14.5 -46.5q0 -18 -5.5 -36t-16.5 -32t-27.5 -23t-39.5 -9q-21 0 -34.5 7.5t-22 20t-12 28.5t-3.5 34q0 8 1.5 23t4.5 29z" />
    <glyph glyph-name="seven.den" horiz-adv-x="360" 
d="M252 352l-207 -345q-4 -7 20 -7h10q22 0 25 6l196 332q2 5 4.5 11t3.5 13l4 27q1 4 -2.5 5.5t-14.5 1.5h-227q-2 0 -4 -3t-4 -13l-2 -14q-2 -9 -1 -11.5t6 -2.5h193z" />
    <glyph glyph-name="eight.den" horiz-adv-x="361" 
d="M167 187q14 -5 28 -12t25.5 -16t18.5 -21t7 -27q0 -16 -8 -29.5t-21.5 -23.5t-30.5 -15.5t-36 -5.5q-33 0 -54.5 16.5t-21.5 44.5q0 17 8 31t21.5 25t30 19t33.5 14zM223 214q16 5 32 15t28.5 23t20 29.5t7.5 34.5q0 21 -9 37.5t-24 27t-35 16t-42 5.5q-25 0 -49 -7
t-43 -21t-30.5 -34.5t-11.5 -46.5q0 -31 18 -52.5t41 -30.5q-46 -16 -75 -47t-29 -73q0 -24 10 -42t26.5 -30t38.5 -17.5t47 -5.5q31 0 59 8.5t49.5 24.5t34 38.5t12.5 50.5q0 38 -23.5 61t-52.5 36zM181 236q-24 11 -42.5 25.5t-18.5 38.5q0 26 22 42.5t53 16.5
q29 0 46.5 -14t17.5 -37q0 -26 -24.5 -43.5t-53.5 -28.5z" />
    <glyph glyph-name="nine.den" horiz-adv-x="361" 
d="M31 32q-5 -11 -5 -14.5t4 -5.5q14 -8 36 -12.5t43 -4.5q38 0 73 16t59.5 46.5t40 67t22.5 74t7 66.5q0 60 -29 98.5t-92 38.5q-36 0 -63 -12.5t-46 -33.5t-28.5 -47.5t-9.5 -54.5q0 -48 27.5 -76t84.5 -28q52 0 90 24q-5 -17 -11.5 -35.5t-16.5 -36t-23 -31.5t-31 -22
q-24 -11 -52 -11q-17 0 -30.5 3t-32.5 11q-5 2 -7 -1.5t-7 -12.5zM252 217q-17 -10 -40 -17t-47 -7q-39 0 -53.5 19.5t-14.5 46.5q0 18 5.5 36t16.5 32t27.5 23t39.5 9q21 0 34.5 -7.5t22 -19.5t12 -27.5t3.5 -31.5q0 -11 -1.5 -26.5t-4.5 -29.5z" />
    <glyph glyph-name="plus.den" horiz-adv-x="361" 
d="M147 181l-17 -122q0 -6 16 -6h7q18 0 18 6l17 122h123q3 0 4 2.5t3 13.5l1 6q2 11 0.5 13.5t-3.5 2.5h-124l17 121q1 6 -16 6h-7q-10 0 -13 -1.5t-4 -4.5l-17 -121h-124q-3 0 -4 -2.5t-3 -13.5l-1 -6q-2 -11 -0.5 -13.5t3.5 -2.5h124z" />
    <glyph glyph-name="minus.den" horiz-adv-x="360" 
d="M313 219q2 0 3.5 -2.5t-0.5 -13.5l-1 -6q-2 -11 -3 -13.5t-4 -2.5h-284q-2 0 -3.5 2.5t0.5 13.5l1 6q2 11 3 13.5t4 2.5h284z" />
    <glyph glyph-name="equal.den" horiz-adv-x="361" 
d="M37 275q-3 0 -4 -2.5t-3 -13.5l-1 -6q-2 -11 -0.5 -13.5t3.5 -2.5h284q3 0 4 2.5t3 13.5l1 6q2 11 0.5 13.5t-3.5 2.5h-284zM22 163q-3 0 -4 -2.5t-3 -13.5l-1 -6q-2 -11 -0.5 -13.5t3.5 -2.5h284q3 0 4 2.5t3 13.5l1 6q2 11 0.5 13.5t-3.5 2.5h-284z" />
    <glyph glyph-name="parenleft.den" horiz-adv-x="212" 
d="M131 -68q6 2 9 4.5t0 8.5q-19 39 -30.5 77t-11.5 95q0 86 29 158t74 122q5 5 -8 15l-8 6q-9 7 -15 1q-24 -22 -46.5 -54t-39 -71.5t-26.5 -85t-10 -94.5q0 -57 15.5 -107t36.5 -81q3 -5 20 2z" />
    <glyph glyph-name="parenright.den" horiz-adv-x="212" 
d="M66 413q-6 -2 -9 -4.5t0 -8.5q19 -39 30.5 -77t11.5 -95q0 -86 -29 -158t-74 -122q-2 -2 -1 -5.5t9 -9.5l8 -6q9 -7 15 -1q24 22 46.5 54t39 71.5t26.5 85t10 94.5q0 57 -15.5 107t-36.5 81q-3 5 -20 -2z" />
    <glyph glyph-name="period.den" horiz-adv-x="162" 
d="M52 -5q19 0 30 13t11 27q0 15 -10 24.5t-26 9.5q-19 0 -30 -12.5t-11 -27.5q0 -14 10 -24t26 -10z" />
    <glyph glyph-name="comma.den" horiz-adv-x="162" 
d="M-6 -89q6 -8 11 -4q16 10 31 23.5t27 29.5t19 33.5t7 34.5t-9.5 29t-28.5 12q-17 0 -27.5 -11t-10.5 -25q0 -10 3 -15.5t7 -9.5t7 -8.5t3 -11.5q0 -16 -16.5 -32t-29.5 -26q-3 -2 -2 -6t3 -6z" />
    <glyph glyph-name="fraction" unicode="&#x2044;" horiz-adv-x="323" 
d="M-76 -5q-5 -8 -2.5 -10.5t17.5 -2.5h5q15 0 21 2.5t10 8.5l440 731q5 8 1 10.5t-21 2.5h-5q-16 0 -20 -2.5t-8 -8.5z" />
    <glyph glyph-name="onehalf" unicode="&#xbd;" horiz-adv-x="904" 
d="M233 367l49 348q1 7 -18 7h-12q-10 0 -16 -2.5t-11 -4.5l-114 -61q-6 -4 2 -19l4 -8q8 -16 15 -13l91 48l-43 -295h-65q-3 0 -4 -2.5t-3 -12.5l-2 -13q-2 -8 -1 -10.5t5 -2.5h179q3 0 4 2.5t3 12.5l2 13q2 8 1 10.5t-5 2.5h-61zM214 -5q-5 -8 -2.5 -10.5t17.5 -2.5h5
q15 0 21 2.5t10 8.5l440 731q5 8 1 10.5t-21 2.5h-5q-16 0 -20 -2.5t-8 -8.5zM800 0q3 0 4.5 2.5t3.5 13.5l2 14q2 9 1 11.5t-6 2.5h-182l87 77q25 22 48 44t41 45.5t28.5 47t10.5 48.5q0 47 -31 71.5t-79 24.5q-29 0 -59 -8t-52 -22q-6 -4 0 -17l3 -7q4 -8 7 -10.5t6 -0.5
q43 20 83 20q32 0 51 -15t19 -41q0 -20 -11 -39.5t-28 -39t-37 -38.5t-39 -37l-96 -89q-5 -5 -7 -12t-4 -16l-2 -15q-2 -11 0 -13t5 -2h233z" />
    <glyph glyph-name="onequarter" unicode="&#xbc;" horiz-adv-x="904" 
d="M233 367l49 348q1 7 -18 7h-12q-10 0 -16 -2.5t-11 -4.5l-114 -61q-6 -4 2 -19l4 -8q8 -16 15 -13l91 48l-43 -295h-65q-3 0 -4 -2.5t-3 -12.5l-2 -13q-2 -8 -1 -10.5t5 -2.5h179q3 0 4 2.5t3 12.5l2 13q2 8 1 10.5t-5 2.5h-61zM214 -5q-5 -8 -2.5 -10.5t17.5 -2.5h5
q15 0 21 2.5t10 8.5l440 731q5 8 1 10.5t-21 2.5h-5q-16 0 -20 -2.5t-8 -8.5zM840 100q3 0 4.5 2.5t3.5 13.5l2 14q2 9 1 11.5t-6 2.5h-48l13 88q1 6 -23 6h-6q-22 0 -23 -6l-13 -88h-132l168 244q6 8 -20 8h-10q-11 0 -16.5 -1.5t-8.5 -5.5l-151 -227q-10 -14 -11 -29
l-3 -25q-1 -8 18 -8h161l-14 -94q0 -6 23 -6h6q23 0 23 6l14 94h48z" />
    <glyph glyph-name="threequarters" unicode="&#xbe;" horiz-adv-x="905" 
d="M62 358q-8 -19 -2 -21q45 -16 99 -16q33 0 62 9.5t50 26.5t33 40.5t12 52.5q0 38 -21.5 60t-47.5 27q38 11 59 39t21 60q0 43 -30 67q-16 13 -37.5 19t-47.5 6q-25 0 -49 -5.5t-44 -15.5q-4 -2 -4 -5t3 -13l2 -7q4 -15 11 -12q3 2 22 9t50 7q17 0 32 -4t25 -13
q15 -14 15 -40q0 -34 -27 -53q-14 -11 -34 -16t-43 -5h-21q-3 0 -4.5 -2.5t-3.5 -13.5l-1 -9q-2 -11 -0.5 -13.5t4.5 -2.5h22q23 0 43 -5.5t33 -16.5q21 -18 21 -48q0 -36 -30 -58t-73 -22q-20 0 -41.5 3.5t-41.5 11.5q-4 2 -6 0t-6 -11zM215 -5q-5 -8 -2.5 -10.5t17.5 -2.5
h5q15 0 21 2.5t10 8.5l440 731q5 8 1 10.5t-21 2.5h-5q-16 0 -20 -2.5t-8 -8.5zM841 100q3 0 4.5 2.5t3.5 13.5l2 14q2 9 1 11.5t-6 2.5h-48l13 88q1 6 -23 6h-6q-22 0 -23 -6l-13 -88h-132l168 244q6 8 -20 8h-10q-11 0 -16.5 -1.5t-8.5 -5.5l-151 -227q-10 -14 -11 -29
l-3 -25q-1 -8 18 -8h161l-14 -94q0 -6 23 -6h6q23 0 23 6l14 94h48z" />
    <glyph glyph-name="onethird" unicode="&#x2153;" horiz-adv-x="904" 
d="M233 367l49 348q1 7 -18 7h-12q-10 0 -16 -2.5t-11 -4.5l-114 -61q-6 -4 2 -19l4 -8q8 -16 15 -13l91 48l-43 -295h-65q-3 0 -4 -2.5t-3 -12.5l-2 -13q-2 -8 -1 -10.5t5 -2.5h179q3 0 4 2.5t3 12.5l2 13q2 8 1 10.5t-5 2.5h-61zM214 -5q-5 -8 -2.5 -10.5t17.5 -2.5h5
q15 0 21 2.5t10 8.5l440 731q5 8 1 10.5t-21 2.5h-5q-16 0 -20 -2.5t-8 -8.5zM565 32q-8 -19 -2 -21q45 -16 99 -16q33 0 62 9.5t50 26.5t33 40.5t12 52.5q0 38 -21.5 60t-47.5 27q38 11 59 39t21 60q0 43 -30 67q-16 13 -37.5 19t-47.5 6q-25 0 -49 -5.5t-44 -15.5
q-4 -2 -4 -5t3 -13l2 -7q4 -15 11 -12q3 2 22 9t50 7q17 0 32 -4t25 -13q15 -14 15 -40q0 -34 -27 -53q-14 -11 -34 -16t-43 -5h-21q-3 0 -4.5 -2.5t-3.5 -13.5l-1 -9q-2 -11 -0.5 -13.5t4.5 -2.5h22q23 0 43 -5.5t33 -16.5q21 -18 21 -48q0 -36 -30 -58t-73 -22
q-20 0 -41.5 3.5t-41.5 11.5q-4 2 -6 0t-6 -11z" />
    <glyph glyph-name="twothirds" unicode="&#x2154;" horiz-adv-x="904" 
d="M297 326q3 0 4.5 2.5t3.5 13.5l2 14q2 9 1 11.5t-6 2.5h-182l87 77q25 22 48 44t41 45.5t28.5 47t10.5 48.5q0 47 -31 71.5t-79 24.5q-29 0 -59 -8t-52 -22q-6 -4 0 -17l3 -7q4 -8 7 -10.5t6 -0.5q43 20 83 20q32 0 51 -15t19 -41q0 -20 -11 -39.5t-28 -39t-37 -38.5
t-39 -37l-96 -89q-5 -5 -7 -12t-4 -16l-2 -15q-2 -11 0 -13t5 -2h233zM214 -5q-5 -8 -2.5 -10.5t17.5 -2.5h5q15 0 21 2.5t10 8.5l440 731q5 8 1 10.5t-21 2.5h-5q-16 0 -20 -2.5t-8 -8.5zM565 32q-8 -19 -2 -21q45 -16 99 -16q33 0 62 9.5t50 26.5t33 40.5t12 52.5
q0 38 -21.5 60t-47.5 27q38 11 59 39t21 60q0 43 -30 67q-16 13 -37.5 19t-47.5 6q-25 0 -49 -5.5t-44 -15.5q-4 -2 -4 -5t3 -13l2 -7q4 -15 11 -12q3 2 22 9t50 7q17 0 32 -4t25 -13q15 -14 15 -40q0 -34 -27 -53q-14 -11 -34 -16t-43 -5h-21q-3 0 -4.5 -2.5t-3.5 -13.5
l-1 -9q-2 -11 -0.5 -13.5t4.5 -2.5h22q23 0 43 -5.5t33 -16.5q21 -18 21 -48q0 -36 -30 -58t-73 -22q-20 0 -41.5 3.5t-41.5 11.5q-4 2 -6 0t-6 -11z" />
    <glyph glyph-name="uni2155" unicode="&#x2155;" horiz-adv-x="904" 
d="M233 367l49 348q1 7 -18 7h-12q-10 0 -16 -2.5t-11 -4.5l-114 -61q-6 -4 2 -19l4 -8q8 -16 15 -13l91 48l-43 -295h-65q-3 0 -4 -2.5t-3 -12.5l-2 -13q-2 -8 -1 -10.5t5 -2.5h179q3 0 4 2.5t3 12.5l2 13q2 8 1 10.5t-5 2.5h-61zM214 -5q-5 -8 -2.5 -10.5t17.5 -2.5h5
q15 0 21 2.5t10 8.5l440 731q5 8 1 10.5t-21 2.5h-5q-16 0 -20 -2.5t-8 -8.5zM637 396l-27 -198q37 8 75 8q24 0 42.5 -4.5t30.5 -17.5q8 -8 12 -20t4 -29q0 -24 -9.5 -44t-29.5 -33q-30 -19 -76 -19q-23 0 -40 4t-34 9q-4 2 -6 -1.5t-7 -14.5l-3 -7q-5 -11 -4 -15t3 -5
q17 -7 41.5 -10.5t47.5 -3.5q39 0 70.5 11t53.5 30t33.5 45.5t11.5 58.5q0 24 -6.5 41.5t-18.5 31.5q-17 18 -42 27t-56 9q-19 0 -37 -3l16 106h156q2 0 4 3t4 13l2 14q2 9 1 11.5t-6 2.5h-206z" />
    <glyph glyph-name="uni2156" unicode="&#x2156;" horiz-adv-x="904" 
d="M297 326q3 0 4.5 2.5t3.5 13.5l2 14q2 9 1 11.5t-6 2.5h-182l87 77q25 22 48 44t41 45.5t28.5 47t10.5 48.5q0 47 -31 71.5t-79 24.5q-29 0 -59 -8t-52 -22q-6 -4 0 -17l3 -7q4 -8 7 -10.5t6 -0.5q43 20 83 20q32 0 51 -15t19 -41q0 -20 -11 -39.5t-28 -39t-37 -38.5
t-39 -37l-96 -89q-5 -5 -7 -12t-4 -16l-2 -15q-2 -11 0 -13t5 -2h233zM214 -5q-5 -8 -2.5 -10.5t17.5 -2.5h5q15 0 21 2.5t10 8.5l440 731q5 8 1 10.5t-21 2.5h-5q-16 0 -20 -2.5t-8 -8.5zM637 396l-27 -198q37 8 75 8q24 0 42.5 -4.5t30.5 -17.5q8 -8 12 -20t4 -29
q0 -24 -9.5 -44t-29.5 -33q-30 -19 -76 -19q-23 0 -40 4t-34 9q-4 2 -6 -1.5t-7 -14.5l-3 -7q-5 -11 -4 -15t3 -5q17 -7 41.5 -10.5t47.5 -3.5q39 0 70.5 11t53.5 30t33.5 45.5t11.5 58.5q0 24 -6.5 41.5t-18.5 31.5q-17 18 -42 27t-56 9q-19 0 -37 -3l16 106h156q2 0 4 3
t4 13l2 14q2 9 1 11.5t-6 2.5h-206z" />
    <glyph glyph-name="uni2157" unicode="&#x2157;" horiz-adv-x="904" 
d="M62 358q-8 -19 -2 -21q45 -16 99 -16q33 0 62 9.5t50 26.5t33 40.5t12 52.5q0 38 -21.5 60t-47.5 27q38 11 59 39t21 60q0 43 -30 67q-16 13 -37.5 19t-47.5 6q-25 0 -49 -5.5t-44 -15.5q-4 -2 -4 -5t3 -13l2 -7q4 -15 11 -12q3 2 22 9t50 7q17 0 32 -4t25 -13
q15 -14 15 -40q0 -34 -27 -53q-14 -11 -34 -16t-43 -5h-21q-3 0 -4.5 -2.5t-3.5 -13.5l-1 -9q-2 -11 -0.5 -13.5t4.5 -2.5h22q23 0 43 -5.5t33 -16.5q21 -18 21 -48q0 -36 -30 -58t-73 -22q-20 0 -41.5 3.5t-41.5 11.5q-4 2 -6 0t-6 -11zM215 -5q-5 -8 -2.5 -10.5t17.5 -2.5
h5q15 0 21 2.5t10 8.5l440 731q5 8 1 10.5t-21 2.5h-5q-16 0 -20 -2.5t-8 -8.5zM638 396l-27 -198q37 8 75 8q24 0 42.5 -4.5t30.5 -17.5q8 -8 12 -20t4 -29q0 -24 -9.5 -44t-29.5 -33q-30 -19 -76 -19q-23 0 -40 4t-34 9q-4 2 -6 -1.5t-7 -14.5l-3 -7q-5 -11 -4 -15t3 -5
q17 -7 41.5 -10.5t47.5 -3.5q39 0 70.5 11t53.5 30t33.5 45.5t11.5 58.5q0 24 -6.5 41.5t-18.5 31.5q-17 18 -42 27t-56 9q-19 0 -37 -3l16 106h156q2 0 4 3t4 13l2 14q2 9 1 11.5t-6 2.5h-206z" />
    <glyph glyph-name="uni2158" unicode="&#x2158;" horiz-adv-x="904" 
d="M337 426q3 0 4.5 2.5t3.5 13.5l2 14q2 9 1 11.5t-6 2.5h-48l13 88q1 6 -23 6h-6q-22 0 -23 -6l-13 -88h-132l168 244q6 8 -20 8h-10q-11 0 -16.5 -1.5t-8.5 -5.5l-151 -227q-10 -14 -11 -29l-3 -25q-1 -8 18 -8h161l-14 -94q0 -6 23 -6h6q23 0 23 6l14 94h48zM215 -5
q-5 -8 -2.5 -10.5t17.5 -2.5h5q15 0 21 2.5t10 8.5l440 731q5 8 1 10.5t-21 2.5h-5q-16 0 -20 -2.5t-8 -8.5zM638 396l-27 -198q37 8 75 8q24 0 42.5 -4.5t30.5 -17.5q8 -8 12 -20t4 -29q0 -24 -9.5 -44t-29.5 -33q-30 -19 -76 -19q-23 0 -40 4t-34 9q-4 2 -6 -1.5t-7 -14.5
l-3 -7q-5 -11 -4 -15t3 -5q17 -7 41.5 -10.5t47.5 -3.5q39 0 70.5 11t53.5 30t33.5 45.5t11.5 58.5q0 24 -6.5 41.5t-18.5 31.5q-17 18 -42 27t-56 9q-19 0 -37 -3l16 106h156q2 0 4 3t4 13l2 14q2 9 1 11.5t-6 2.5h-206z" />
    <glyph glyph-name="uni2159" unicode="&#x2159;" horiz-adv-x="904" 
d="M233 367l49 348q1 7 -18 7h-12q-10 0 -16 -2.5t-11 -4.5l-114 -61q-6 -4 2 -19l4 -8q8 -16 15 -13l91 48l-43 -295h-65q-3 0 -4 -2.5t-3 -12.5l-2 -13q-2 -8 -1 -10.5t5 -2.5h179q3 0 4 2.5t3 12.5l2 13q2 8 1 10.5t-5 2.5h-61zM214 -5q-5 -8 -2.5 -10.5t17.5 -2.5h5
q15 0 21 2.5t10 8.5l440 731q5 8 1 10.5t-21 2.5h-5q-16 0 -20 -2.5t-8 -8.5zM853 368q5 11 5 14.5t-4 5.5q-14 7 -31.5 10.5t-40.5 3.5q-56 0 -95 -29t-64 -70.5t-36 -88.5t-11 -83q0 -59 29 -97.5t92 -38.5q36 0 63 12.5t46 33.5t28.5 47.5t9.5 54.5q0 48 -27.5 76
t-84.5 28q-25 0 -48 -6t-42 -18q7 25 18 49.5t27.5 44t39 31t52.5 11.5q17 0 30 -3t27 -8q5 -2 7 1.5t7 12.5zM635 180q17 10 40 17t47 7q39 0 53.5 -19.5t14.5 -46.5q0 -18 -5.5 -36t-16.5 -32t-27.5 -23t-39.5 -9q-21 0 -34.5 7.5t-22 20t-12 28.5t-3.5 34q0 8 1.5 23
t4.5 29z" />
    <glyph glyph-name="uni215A" unicode="&#x215a;" horiz-adv-x="904" 
d="M134 722l-27 -198q37 8 75 8q24 0 42.5 -4.5t30.5 -17.5q8 -8 12 -20t4 -29q0 -24 -9.5 -44t-29.5 -33q-30 -19 -76 -19q-23 0 -40 4t-34 9q-4 2 -6 -1.5t-7 -14.5l-3 -7q-5 -11 -4 -15t3 -5q17 -7 41.5 -10.5t47.5 -3.5q39 0 70.5 11t53.5 30t33.5 45.5t11.5 58.5
q0 24 -6.5 41.5t-18.5 31.5q-17 18 -42 27t-56 9q-19 0 -37 -3l16 106h156q2 0 4 3t4 13l2 14q2 9 1 11.5t-6 2.5h-206zM214 -5q-5 -8 -2.5 -10.5t17.5 -2.5h5q15 0 21 2.5t10 8.5l440 731q5 8 1 10.5t-21 2.5h-5q-16 0 -20 -2.5t-8 -8.5zM853 368q5 11 5 14.5t-4 5.5
q-14 7 -31.5 10.5t-40.5 3.5q-56 0 -95 -29t-64 -70.5t-36 -88.5t-11 -83q0 -59 29 -97.5t92 -38.5q36 0 63 12.5t46 33.5t28.5 47.5t9.5 54.5q0 48 -27.5 76t-84.5 28q-25 0 -48 -6t-42 -18q7 25 18 49.5t27.5 44t39 31t52.5 11.5q17 0 30 -3t27 -8q5 -2 7 1.5t7 12.5z
M635 180q17 10 40 17t47 7q39 0 53.5 -19.5t14.5 -46.5q0 -18 -5.5 -36t-16.5 -32t-27.5 -23t-39.5 -9q-21 0 -34.5 7.5t-22 20t-12 28.5t-3.5 34q0 8 1.5 23t4.5 29z" />
    <glyph glyph-name="oneeighth" unicode="&#x215b;" horiz-adv-x="904" 
d="M233 367l49 348q1 7 -18 7h-12q-10 0 -16 -2.5t-11 -4.5l-114 -61q-6 -4 2 -19l4 -8q8 -16 15 -13l91 48l-43 -295h-65q-3 0 -4 -2.5t-3 -12.5l-2 -13q-2 -8 -1 -10.5t5 -2.5h179q3 0 4 2.5t3 12.5l2 13q2 8 1 10.5t-5 2.5h-61zM214 -5q-5 -8 -2.5 -10.5t17.5 -2.5h5
q15 0 21 2.5t10 8.5l440 731q5 8 1 10.5t-21 2.5h-5q-16 0 -20 -2.5t-8 -8.5zM710 187q14 -5 28 -12t25.5 -16t18.5 -21t7 -27q0 -16 -8 -29.5t-21.5 -23.5t-30.5 -15.5t-36 -5.5q-33 0 -54.5 16.5t-21.5 44.5q0 17 8 31t21.5 25t30 19t33.5 14zM766 214q16 5 32 15t28.5 23
t20 29.5t7.5 34.5q0 21 -9 37.5t-24 27t-35 16t-42 5.5q-25 0 -49 -7t-43 -21t-30.5 -34.5t-11.5 -46.5q0 -31 18 -52.5t41 -30.5q-46 -16 -75 -47t-29 -73q0 -24 10 -42t26.5 -30t38.5 -17.5t47 -5.5q31 0 59 8.5t49.5 24.5t34 38.5t12.5 50.5q0 38 -23.5 61t-52.5 36z
M724 236q-24 11 -42.5 25.5t-18.5 38.5q0 26 22 42.5t53 16.5q29 0 46.5 -14t17.5 -37q0 -26 -24.5 -43.5t-53.5 -28.5z" />
    <glyph glyph-name="threeeighths" unicode="&#x215c;" horiz-adv-x="905" 
d="M62 358q-8 -19 -2 -21q45 -16 99 -16q33 0 62 9.5t50 26.5t33 40.5t12 52.5q0 38 -21.5 60t-47.5 27q38 11 59 39t21 60q0 43 -30 67q-16 13 -37.5 19t-47.5 6q-25 0 -49 -5.5t-44 -15.5q-4 -2 -4 -5t3 -13l2 -7q4 -15 11 -12q3 2 22 9t50 7q17 0 32 -4t25 -13
q15 -14 15 -40q0 -34 -27 -53q-14 -11 -34 -16t-43 -5h-21q-3 0 -4.5 -2.5t-3.5 -13.5l-1 -9q-2 -11 -0.5 -13.5t4.5 -2.5h22q23 0 43 -5.5t33 -16.5q21 -18 21 -48q0 -36 -30 -58t-73 -22q-20 0 -41.5 3.5t-41.5 11.5q-4 2 -6 0t-6 -11zM215 -5q-5 -8 -2.5 -10.5t17.5 -2.5
h5q15 0 21 2.5t10 8.5l440 731q5 8 1 10.5t-21 2.5h-5q-16 0 -20 -2.5t-8 -8.5zM711 187q14 -5 28 -12t25.5 -16t18.5 -21t7 -27q0 -16 -8 -29.5t-21.5 -23.5t-30.5 -15.5t-36 -5.5q-33 0 -54.5 16.5t-21.5 44.5q0 17 8 31t21.5 25t30 19t33.5 14zM767 214q16 5 32 15
t28.5 23t20 29.5t7.5 34.5q0 21 -9 37.5t-24 27t-35 16t-42 5.5q-25 0 -49 -7t-43 -21t-30.5 -34.5t-11.5 -46.5q0 -31 18 -52.5t41 -30.5q-46 -16 -75 -47t-29 -73q0 -24 10 -42t26.5 -30t38.5 -17.5t47 -5.5q31 0 59 8.5t49.5 24.5t34 38.5t12.5 50.5q0 38 -23.5 61
t-52.5 36zM725 236q-24 11 -42.5 25.5t-18.5 38.5q0 26 22 42.5t53 16.5q29 0 46.5 -14t17.5 -37q0 -26 -24.5 -43.5t-53.5 -28.5z" />
    <glyph glyph-name="fiveeighths" unicode="&#x215d;" horiz-adv-x="904" 
d="M134 722l-27 -198q37 8 75 8q24 0 42.5 -4.5t30.5 -17.5q8 -8 12 -20t4 -29q0 -24 -9.5 -44t-29.5 -33q-30 -19 -76 -19q-23 0 -40 4t-34 9q-4 2 -6 -1.5t-7 -14.5l-3 -7q-5 -11 -4 -15t3 -5q17 -7 41.5 -10.5t47.5 -3.5q39 0 70.5 11t53.5 30t33.5 45.5t11.5 58.5
q0 24 -6.5 41.5t-18.5 31.5q-17 18 -42 27t-56 9q-19 0 -37 -3l16 106h156q2 0 4 3t4 13l2 14q2 9 1 11.5t-6 2.5h-206zM214 -5q-5 -8 -2.5 -10.5t17.5 -2.5h5q15 0 21 2.5t10 8.5l440 731q5 8 1 10.5t-21 2.5h-5q-16 0 -20 -2.5t-8 -8.5zM710 187q14 -5 28 -12t25.5 -16
t18.5 -21t7 -27q0 -16 -8 -29.5t-21.5 -23.5t-30.5 -15.5t-36 -5.5q-33 0 -54.5 16.5t-21.5 44.5q0 17 8 31t21.5 25t30 19t33.5 14zM766 214q16 5 32 15t28.5 23t20 29.5t7.5 34.5q0 21 -9 37.5t-24 27t-35 16t-42 5.5q-25 0 -49 -7t-43 -21t-30.5 -34.5t-11.5 -46.5
q0 -31 18 -52.5t41 -30.5q-46 -16 -75 -47t-29 -73q0 -24 10 -42t26.5 -30t38.5 -17.5t47 -5.5q31 0 59 8.5t49.5 24.5t34 38.5t12.5 50.5q0 38 -23.5 61t-52.5 36zM724 236q-24 11 -42.5 25.5t-18.5 38.5q0 26 22 42.5t53 16.5q29 0 46.5 -14t17.5 -37q0 -26 -24.5 -43.5
t-53.5 -28.5z" />
    <glyph glyph-name="seveneighths" unicode="&#x215e;" horiz-adv-x="904" 
d="M292 678l-207 -345q-4 -7 20 -7h10q22 0 25 6l196 332q2 5 4.5 11t3.5 13l4 27q1 4 -2.5 5.5t-14.5 1.5h-227q-2 0 -4 -3t-4 -13l-2 -14q-2 -9 -1 -11.5t6 -2.5h193zM214 -5q-5 -8 -2.5 -10.5t17.5 -2.5h5q15 0 21 2.5t10 8.5l440 731q5 8 1 10.5t-21 2.5h-5
q-16 0 -20 -2.5t-8 -8.5zM710 187q14 -5 28 -12t25.5 -16t18.5 -21t7 -27q0 -16 -8 -29.5t-21.5 -23.5t-30.5 -15.5t-36 -5.5q-33 0 -54.5 16.5t-21.5 44.5q0 17 8 31t21.5 25t30 19t33.5 14zM766 214q16 5 32 15t28.5 23t20 29.5t7.5 34.5q0 21 -9 37.5t-24 27t-35 16
t-42 5.5q-25 0 -49 -7t-43 -21t-30.5 -34.5t-11.5 -46.5q0 -31 18 -52.5t41 -30.5q-46 -16 -75 -47t-29 -73q0 -24 10 -42t26.5 -30t38.5 -17.5t47 -5.5q31 0 59 8.5t49.5 24.5t34 38.5t12.5 50.5q0 38 -23.5 61t-52.5 36zM724 236q-24 11 -42.5 25.5t-18.5 38.5
q0 26 22 42.5t53 16.5q29 0 46.5 -14t17.5 -37q0 -26 -24.5 -43.5t-53.5 -28.5z" />
    <glyph glyph-name="Agrave" unicode="&#xc0;" horiz-adv-x="614" 
d="M472 10q1 -6 7 -8t27 -2h10q21 0 27 2t4 9l-143 696q-2 8 -10.5 10.5t-30.5 2.5h-6q-23 0 -30 -2.5t-11 -10.5l-333 -696q-2 -5 2 -8t24 -3h5q18 0 25.5 2t10.5 8l85 184h302zM353 657l74 -407h-266zM321 913q-18 0 -22.5 -2.5t-1.5 -7.5l70 -119q2 -4 6.5 -5t18.5 -1h4
q24 0 21 7l-49 118q-2 5 -7 7.5t-25 2.5h-15z" />
    <glyph glyph-name="Aacute" unicode="&#xc1;" horiz-adv-x="614" 
d="M472 10q1 -6 7 -8t27 -2h10q21 0 27 2t4 9l-143 696q-2 8 -10.5 10.5t-30.5 2.5h-6q-23 0 -30 -2.5t-11 -10.5l-333 -696q-2 -5 2 -8t24 -3h5q18 0 25.5 2t10.5 8l85 184h302zM353 657l74 -407h-266zM441 913q-20 0 -26 -2.5t-10 -7.5l-82 -117q-5 -8 18 -8h4
q14 0 18.5 1t8.5 5l104 119q5 5 0.5 7.5t-24.5 2.5h-11z" />
    <glyph glyph-name="Acircumflex" unicode="&#xc2;" horiz-adv-x="614" 
d="M472 10q1 -6 7 -8t27 -2h10q21 0 27 2t4 9l-143 696q-2 8 -10.5 10.5t-30.5 2.5h-6q-23 0 -30 -2.5t-11 -10.5l-333 -696q-2 -5 2 -8t24 -3h5q18 0 25.5 2t10.5 8l85 184h302zM353 657l74 -407h-266zM367 921q-14 0 -21.5 -2.5t-13.5 -7.5l-106 -100q-3 -3 -3 -5.5
t5 -9.5l4 -6q8 -12 14 -7l131 97l97 -97q3 -3 5.5 -2t10.5 9l6 6q6 6 7 9t-1 6l-78 100q-5 5 -11 7.5t-20 2.5h-26z" />
    <glyph glyph-name="Atilde" unicode="&#xc3;" horiz-adv-x="614" 
d="M472 10q1 -6 7 -8t27 -2h10q21 0 27 2t4 9l-143 696q-2 8 -10.5 10.5t-30.5 2.5h-6q-23 0 -30 -2.5t-11 -10.5l-333 -696q-2 -5 2 -8t24 -3h5q18 0 25.5 2t10.5 8l85 184h302zM353 657l74 -407h-266zM523 857q7 7 -1 19l-5 7q-5 8 -8 9t-6 -1q-18 -17 -32 -23.5t-29 -6.5
q-17 0 -30.5 6t-27.5 13t-29.5 13t-35.5 6q-26 0 -50 -13.5t-40 -30.5q-6 -6 1 -18l4 -6q11 -14 17 -8q16 15 29.5 21.5t29.5 6.5t29.5 -6t27.5 -13t29.5 -13t36.5 -6q26 0 50 13.5t40 30.5z" />
    <glyph glyph-name="Adieresis" unicode="&#xc4;" horiz-adv-x="614" 
d="M472 10q1 -6 7 -8t27 -2h10q21 0 27 2t4 9l-143 696q-2 8 -10.5 10.5t-30.5 2.5h-6q-23 0 -30 -2.5t-11 -10.5l-333 -696q-2 -5 2 -8t24 -3h5q18 0 25.5 2t10.5 8l85 184h302zM353 657l74 -407h-266zM228 841q0 -17 11.5 -29.5t28.5 -12.5q25 0 39.5 16t14.5 36
q0 17 -11.5 30t-29.5 13q-23 0 -38 -16.5t-15 -36.5zM426 841q0 -17 11.5 -29.5t28.5 -12.5q24 0 39 16t15 36q0 17 -11.5 30t-29.5 13q-23 0 -38 -16.5t-15 -36.5z" />
    <glyph glyph-name="Amacron" unicode="&#x100;" horiz-adv-x="614" 
d="M472 10q1 -6 7 -8t27 -2h10q21 0 27 2t4 9l-143 696q-2 8 -10.5 10.5t-30.5 2.5h-6q-23 0 -30 -2.5t-11 -10.5l-333 -696q-2 -5 2 -8t24 -3h5q18 0 25.5 2t10.5 8l85 184h302zM353 657l74 -407h-266zM502 823q5 0 7 3.5t5 18.5l1 5q3 17 2 20.5t-6 3.5h-254q-5 0 -7 -3.5
t-5 -18.5l-1 -5q-3 -15 -2 -19.5t6 -4.5h254z" />
    <glyph glyph-name="Abreve" unicode="&#x102;" horiz-adv-x="614" 
d="M472 10q1 -6 7 -8t27 -2h10q21 0 27 2t4 9l-143 696q-2 8 -10.5 10.5t-30.5 2.5h-6q-23 0 -30 -2.5t-11 -10.5l-333 -696q-2 -5 2 -8t24 -3h5q18 0 25.5 2t10.5 8l85 184h302zM353 657l74 -407h-266zM372 795q59 0 98 27.5t48 81.5q1 4 -2.5 6t-16.5 2h-8q-13 0 -17 -1
t-5 -6q-15 -69 -91 -69q-78 0 -78 68q0 5 -3.5 6.5t-16.5 1.5h-10q-13 0 -15 -1.5t-3 -4.5q-1 -5 -1 -8.5v-7.5q0 -45 34.5 -70t86.5 -25z" />
    <glyph glyph-name="Acaron" unicode="&#x1cd;" horiz-adv-x="614" 
d="M472 10q1 -6 7 -8t27 -2h10q21 0 27 2t4 9l-143 696q-2 8 -10.5 10.5t-30.5 2.5h-6q-23 0 -30 -2.5t-11 -10.5l-333 -696q-2 -5 2 -8t24 -3h5q18 0 25.5 2t10.5 8l85 184h302zM353 657l74 -407h-266zM377 782q23 0 34 10l106 100q4 3 3.5 5.5t-5.5 10.5l-4 6q-5 7 -7 8
t-7 -2l-128 -97l-100 97q-3 3 -6 2t-10 -8l-6 -6q-7 -7 -7.5 -10t1.5 -6l78 -100q9 -10 32 -10h26z" />
    <glyph glyph-name="Aring" unicode="&#xc5;" horiz-adv-x="613" 
d="M280 772q0 -21 9.5 -39.5t26.5 -28.5l-333 -693q-2 -5 2 -8t24 -3h5q17 0 24.5 2t10.5 8l86 184h302l34 -184q2 -6 8.5 -8t26.5 -2h10q21 0 26 3t4 8l-142 691q29 13 45.5 38t16.5 54q0 34 -23 56t-58 22q-23 0 -42 -8.5t-33 -22t-22 -32t-8 -37.5zM352 657l75 -407h-266
zM380 833q20 0 31 -12.5t11 -30.5q0 -26 -16.5 -42.5t-39.5 -16.5q-18 0 -31 11t-13 31q0 27 17.5 43.5t40.5 16.5z" />
    <glyph glyph-name="Aringacute" unicode="&#x1fa;" horiz-adv-x="614" 
d="M275 772q0 19 8 37.5t22 32t33 22t42 8.5q35 0 58 -22t23 -56q0 -29 -16.5 -54t-45.5 -38l142 -691q1 -5 -4 -8t-26 -3h-10q-20 0 -26.5 2t-8.5 8l-34 184h-302l-86 -184q-3 -6 -10.5 -8t-24.5 -2h-5q-20 0 -24 3t-2 8l333 693q-17 10 -26.5 28.5t-9.5 39.5zM156 250h266
l-75 407zM375 833q-23 0 -40.5 -16.5t-17.5 -43.5q0 -20 13 -31t31 -11q23 0 39.5 16.5t16.5 42.5q0 18 -11 30.5t-31 12.5zM452 1034q20 0 24.5 -2.5t-0.5 -7.5l-104 -119q-4 -4 -8.5 -5t-18.5 -1h-4q-23 0 -18 8l82 117q4 5 10 7.5t26 2.5h11z" />
    <glyph glyph-name="Aogonek" unicode="&#x104;" horiz-adv-x="614" 
d="M518 -214q5 2 5 18v5q0 12 -1.5 15t-6.5 1q-12 -4 -24.5 -7t-25.5 -3q-23 0 -35.5 12t-12.5 34q0 27 10.5 51t27.5 42.5t39 30.5t45 16q6 1 7.5 3t0.5 7l-143 696q-2 8 -10.5 10.5t-30.5 2.5h-6q-23 0 -30 -2.5t-11 -10.5l-333 -696q-2 -5 2 -8t24 -3h5q18 0 25.5 2
t10.5 8l85 184h302l35 -185q-24 -12 -44.5 -29.5t-35.5 -38t-24 -43.5t-9 -46q0 -36 22 -58.5t64 -22.5q40 0 73 15zM353 657l74 -407h-266z" />
    <glyph glyph-name="AE" unicode="&#xc6;" horiz-adv-x="877" 
d="M491 720q-17 0 -23 -2t-11 -9l-489 -698q-4 -5 0 -8t25 -3h6q19 0 26.5 2.5t11.5 7.5l131 189h250l-28 -199h382q5 0 7.5 4t5.5 21l1 6q3 17 1 21.5t-7 4.5h-314l39 279h263q5 0 7.5 4t5.5 21l1 6q3 17 1 21.5t-7 4.5h-263l38 270h310q5 0 7.5 4t5.5 21l1 6
q3 17 1.5 21.5t-7.5 4.5h-378zM207 256l274 392l-55 -392h-219z" />
    <glyph glyph-name="AEacute" unicode="&#x1fc;" horiz-adv-x="877" 
d="M491 720q-17 0 -23 -2t-11 -9l-489 -698q-4 -5 0 -8t25 -3h6q19 0 26.5 2.5t11.5 7.5l131 189h250l-28 -199h382q5 0 7.5 4t5.5 21l1 6q3 17 1 21.5t-7 4.5h-314l39 279h263q5 0 7.5 4t5.5 21l1 6q3 17 1 21.5t-7 4.5h-263l38 270h310q5 0 7.5 4t5.5 21l1 6
q3 17 1.5 21.5t-7.5 4.5h-378zM207 256l274 392l-55 -392h-219zM719 913q-20 0 -26 -2.5t-10 -7.5l-82 -117q-5 -8 18 -8h4q14 0 18.5 1t8.5 5l104 119q5 5 0.5 7.5t-24.5 2.5h-11z" />
    <glyph glyph-name="Cacute" unicode="&#x106;" horiz-adv-x="552" 
d="M399 671q34 0 64 -8.5t66 -27.5q5 -3 8.5 -0.5t10.5 14.5l7 13q8 14 9 17.5t-4 6.5q-68 44 -157 44q-93 0 -160 -42.5t-111 -109t-65 -148.5t-21 -160q0 -63 15.5 -115t45.5 -88.5t75 -56.5t105 -20q49 0 93 9t86 29q6 3 6 8t-2 17l-2 10q-4 24 -15 19
q-33 -16 -70.5 -24.5t-73.5 -8.5q-98 0 -145 56t-47 163q0 67 15.5 138.5t49 130t87 96.5t130.5 38zM466 913q-20 0 -26 -2.5t-10 -7.5l-82 -117q-5 -8 18 -8h4q14 0 18.5 1t8.5 5l104 119q5 5 0.5 7.5t-24.5 2.5h-11z" />
    <glyph glyph-name="Ccedilla" unicode="&#xc7;" horiz-adv-x="552" 
d="M224 -109q23 5 52 5q26 0 41 -8.5t14 -28.5q0 -15 -6.5 -24.5t-16.5 -15.5t-22 -8t-23 -2q-28 0 -52 7q-4 1 -6 -1t-6 -13l-2 -6q-3 -9 -3 -12t3 -5q11 -5 29.5 -8.5t38.5 -3.5q54 0 88 26t34 74q0 31 -21 49.5t-57 18.5q-8 0 -15 -0.5t-13 -1.5l16 57q46 1 87.5 9.5
t81.5 28.5q6 3 6 8t-2 17l-2 10q-4 24 -15 19q-33 -16 -70.5 -24.5t-73.5 -8.5q-98 0 -145 56t-47 163q0 67 15.5 138.5t49 130t87 96.5t130.5 38q34 0 64 -8.5t66 -27.5q5 -3 8.5 -0.5t10.5 14.5l7 13q8 14 9 17.5t-4 6.5q-68 44 -157 44q-93 0 -160 -42.5t-111 -109
t-65 -148.5t-21 -160q0 -59 13 -107.5t38.5 -84.5t64 -58t89.5 -28z" />
    <glyph glyph-name="Ccircumflex" unicode="&#x108;" horiz-adv-x="552" 
d="M399 671q34 0 64 -8.5t66 -27.5q5 -3 8.5 -0.5t10.5 14.5l7 13q8 14 9 17.5t-4 6.5q-68 44 -157 44q-93 0 -160 -42.5t-111 -109t-65 -148.5t-21 -160q0 -63 15.5 -115t45.5 -88.5t75 -56.5t105 -20q49 0 93 9t86 29q6 3 6 8t-2 17l-2 10q-4 24 -15 19
q-33 -16 -70.5 -24.5t-73.5 -8.5q-98 0 -145 56t-47 163q0 67 15.5 138.5t49 130t87 96.5t130.5 38zM420 921q-14 0 -21.5 -2.5t-13.5 -7.5l-106 -100q-3 -3 -3 -5.5t5 -9.5l4 -6q8 -12 14 -7l131 97l97 -97q3 -3 5.5 -2t10.5 9l6 6q6 6 7 9t-1 6l-78 100q-5 5 -11 7.5
t-20 2.5h-26z" />
    <glyph glyph-name="Ccaron" unicode="&#x10c;" horiz-adv-x="552" 
d="M399 671q34 0 64 -8.5t66 -27.5q5 -3 8.5 -0.5t10.5 14.5l7 13q8 14 9 17.5t-4 6.5q-68 44 -157 44q-93 0 -160 -42.5t-111 -109t-65 -148.5t-21 -160q0 -63 15.5 -115t45.5 -88.5t75 -56.5t105 -20q49 0 93 9t86 29q6 3 6 8t-2 17l-2 10q-4 24 -15 19
q-33 -16 -70.5 -24.5t-73.5 -8.5q-98 0 -145 56t-47 163q0 67 15.5 138.5t49 130t87 96.5t130.5 38zM420 782q23 0 34 10l106 100q4 3 3.5 5.5t-5.5 10.5l-4 6q-5 7 -7 8t-7 -2l-128 -97l-100 97q-3 3 -6 2t-10 -8l-6 -6q-7 -7 -7.5 -10t1.5 -6l78 -100q9 -10 32 -10h26z
" />
    <glyph glyph-name="Cdotaccent" unicode="&#x10a;" horiz-adv-x="552" 
d="M399 671q34 0 64 -8.5t66 -27.5q5 -3 8.5 -0.5t10.5 14.5l7 13q8 14 9 17.5t-4 6.5q-68 44 -157 44q-93 0 -160 -42.5t-111 -109t-65 -148.5t-21 -160q0 -63 15.5 -115t45.5 -88.5t75 -56.5t105 -20q49 0 93 9t86 29q6 3 6 8t-2 17l-2 10q-4 24 -15 19
q-33 -16 -70.5 -24.5t-73.5 -8.5q-98 0 -145 56t-47 163q0 67 15.5 138.5t49 130t87 96.5t130.5 38zM379 836q0 -17 11.5 -29.5t30.5 -12.5q21 0 36 15.5t15 35.5q0 17 -11.5 29.5t-28.5 12.5q-23 0 -38 -15.5t-15 -35.5z" />
    <glyph glyph-name="Dcaron" unicode="&#x10e;" horiz-adv-x="633" 
d="M137 720l-101 -720h160q92 0 156 18.5t113 63.5q37 35 63 77t42 89t23 96.5t7 99.5q0 115 -52 182q-38 47 -97 70.5t-155 23.5h-159zM198 664h84q81 0 126.5 -16.5t74.5 -51.5q46 -56 46 -156q0 -45 -6 -90t-19.5 -86.5t-35 -78t-52.5 -63.5q-20 -18 -42 -30.5t-48 -20.5
t-57.5 -11.5t-70.5 -3.5h-86zM383 782q23 0 34 10l106 100q4 3 3.5 5.5t-5.5 10.5l-4 6q-5 7 -7 8t-7 -2l-128 -97l-100 97q-3 3 -6 2t-10 -8l-6 -6q-7 -7 -7.5 -10t1.5 -6l78 -100q9 -10 32 -10h26z" />
    <glyph glyph-name="Dcroat" unicode="&#x110;" horiz-adv-x="639" 
d="M144 720l-47 -330h-56q-5 0 -7 -3.5t-4 -18.5l-1 -6q-2 -15 -1 -19t6 -4h56l-47 -339h160q92 0 156 18.5t113 63.5q37 35 63 77t42 89t23 96.5t7 99.5q0 115 -52 182q-38 47 -97 70.5t-155 23.5h-159zM205 664h84q81 0 126.5 -16.5t74.5 -51.5q46 -56 46 -156
q0 -45 -6 -89.5t-19.5 -85.5t-35.5 -77t-53 -63q-20 -18 -42 -31t-47.5 -21.5t-57 -12.5t-70.5 -4h-86l40 283h165q5 0 7 3.5t4 18.5l1 6q2 15 1 19t-6 4h-165z" />
    <glyph glyph-name="Eth" unicode="&#xd0;" horiz-adv-x="639" 
d="M144 720l-47 -330h-56q-5 0 -7 -3.5t-4 -18.5l-1 -6q-2 -15 -1 -19t6 -4h56l-47 -339h160q92 0 156 18.5t113 63.5q37 35 63 77t42 89t23 96.5t7 99.5q0 115 -52 182q-38 47 -97 70.5t-155 23.5h-159zM205 664h84q81 0 126.5 -16.5t74.5 -51.5q46 -56 46 -156
q0 -45 -6 -89.5t-19.5 -85.5t-35.5 -77t-53 -63q-20 -18 -42 -31t-47.5 -21.5t-57 -12.5t-70.5 -4h-86l40 283h165q5 0 7 3.5t4 18.5l1 6q2 15 1 19t-6 4h-165z" />
    <glyph glyph-name="Egrave" unicode="&#xc8;" horiz-adv-x="523" 
d="M507 663q5 0 7.5 4t5.5 21l1 6q3 17 1.5 21.5t-7.5 4.5h-378l-101 -720h382q5 0 7.5 4t5.5 21l1 6q3 17 1 21.5t-7 4.5h-314l39 279h263q5 0 7.5 4t5.5 21l1 6q3 17 1 21.5t-7 4.5h-263l38 270h310zM297 913q-18 0 -22.5 -2.5t-1.5 -7.5l70 -119q2 -4 6.5 -5t18.5 -1h4
q24 0 21 7l-49 118q-2 5 -7 7.5t-25 2.5h-15z" />
    <glyph glyph-name="Eacute" unicode="&#xc9;" horiz-adv-x="523" 
d="M507 663q5 0 7.5 4t5.5 21l1 6q3 17 1.5 21.5t-7.5 4.5h-378l-101 -720h382q5 0 7.5 4t5.5 21l1 6q3 17 1 21.5t-7 4.5h-314l39 279h263q5 0 7.5 4t5.5 21l1 6q3 17 1 21.5t-7 4.5h-263l38 270h310zM397 913q-20 0 -26 -2.5t-10 -7.5l-82 -117q-5 -8 18 -8h4q14 0 18.5 1
t8.5 5l104 119q5 5 0.5 7.5t-24.5 2.5h-11z" />
    <glyph glyph-name="Ecircumflex" unicode="&#xca;" horiz-adv-x="523" 
d="M507 663q5 0 7.5 4t5.5 21l1 6q3 17 1.5 21.5t-7.5 4.5h-378l-101 -720h382q5 0 7.5 4t5.5 21l1 6q3 17 1 21.5t-7 4.5h-314l39 279h263q5 0 7.5 4t5.5 21l1 6q3 17 1 21.5t-7 4.5h-263l38 270h310zM344 921q-14 0 -21.5 -2.5t-13.5 -7.5l-106 -100q-3 -3 -3 -5.5t5 -9.5
l4 -6q8 -12 14 -7l131 97l97 -97q3 -3 5.5 -2t10.5 9l6 6q6 6 7 9t-1 6l-78 100q-5 5 -11 7.5t-20 2.5h-26z" />
    <glyph glyph-name="Ecaron" unicode="&#x11a;" horiz-adv-x="523" 
d="M507 663q5 0 7.5 4t5.5 21l1 6q3 17 1.5 21.5t-7.5 4.5h-378l-101 -720h382q5 0 7.5 4t5.5 21l1 6q3 17 1 21.5t-7 4.5h-314l39 279h263q5 0 7.5 4t5.5 21l1 6q3 17 1 21.5t-7 4.5h-263l38 270h310zM352 782q23 0 34 10l106 100q4 3 3.5 5.5t-5.5 10.5l-4 6q-5 7 -7 8
t-7 -2l-128 -97l-100 97q-3 3 -6 2t-10 -8l-6 -6q-7 -7 -7.5 -10t1.5 -6l78 -100q9 -10 32 -10h26z" />
    <glyph glyph-name="Edieresis" unicode="&#xcb;" horiz-adv-x="523" 
d="M507 663q5 0 7.5 4t5.5 21l1 6q3 17 1.5 21.5t-7.5 4.5h-378l-101 -720h382q5 0 7.5 4t5.5 21l1 6q3 17 1 21.5t-7 4.5h-314l39 279h263q5 0 7.5 4t5.5 21l1 6q3 17 1 21.5t-7 4.5h-263l38 270h310zM201 841q0 -17 11.5 -29.5t28.5 -12.5q25 0 39.5 16t14.5 36
q0 17 -11.5 30t-29.5 13q-23 0 -38 -16.5t-15 -36.5zM399 841q0 -17 11.5 -29.5t28.5 -12.5q24 0 39 16t15 36q0 17 -11.5 30t-29.5 13q-23 0 -38 -16.5t-15 -36.5z" />
    <glyph glyph-name="Emacron" unicode="&#x112;" horiz-adv-x="523" 
d="M507 663q5 0 7.5 4t5.5 21l1 6q3 17 1.5 21.5t-7.5 4.5h-378l-101 -720h382q5 0 7.5 4t5.5 21l1 6q3 17 1 21.5t-7 4.5h-314l39 279h263q5 0 7.5 4t5.5 21l1 6q3 17 1 21.5t-7 4.5h-263l38 270h310zM468 823q5 0 7 3.5t5 18.5l1 5q3 17 2 20.5t-6 3.5h-254q-5 0 -7 -3.5
t-5 -18.5l-1 -5q-3 -15 -2 -19.5t6 -4.5h254z" />
    <glyph glyph-name="Ebreve" unicode="&#x114;" horiz-adv-x="523" 
d="M507 663q5 0 7.5 4t5.5 21l1 6q3 17 1.5 21.5t-7.5 4.5h-378l-101 -720h382q5 0 7.5 4t5.5 21l1 6q3 17 1 21.5t-7 4.5h-314l39 279h263q5 0 7.5 4t5.5 21l1 6q3 17 1 21.5t-7 4.5h-263l38 270h310zM334 795q59 0 98 27.5t48 81.5q1 4 -2.5 6t-16.5 2h-8q-13 0 -17 -1
t-5 -6q-15 -69 -91 -69q-78 0 -78 68q0 5 -3.5 6.5t-16.5 1.5h-10q-13 0 -15 -1.5t-3 -4.5q-1 -5 -1 -8.5v-7.5q0 -45 34.5 -70t86.5 -25z" />
    <glyph glyph-name="Edotaccent" unicode="&#x116;" horiz-adv-x="523" 
d="M507 663q5 0 7.5 4t5.5 21l1 6q3 17 1.5 21.5t-7.5 4.5h-378l-101 -720h382q5 0 7.5 4t5.5 21l1 6q3 17 1 21.5t-7 4.5h-314l39 279h263q5 0 7.5 4t5.5 21l1 6q3 17 1 21.5t-7 4.5h-263l38 270h310zM299 836q0 -17 11.5 -29.5t30.5 -12.5q21 0 36 15.5t15 35.5
q0 17 -11.5 29.5t-28.5 12.5q-23 0 -38 -15.5t-15 -35.5z" />
    <glyph glyph-name="Eogonek" unicode="&#x118;" horiz-adv-x="523" 
d="M507 663q5 0 7.5 4t5.5 21l1 6q3 17 1.5 21.5t-7.5 4.5h-378l-101 -720h306q-46 -23 -75.5 -63t-29.5 -83q0 -38 22 -60.5t64 -22.5q40 0 73 15q5 2 5 18v5q0 12 -1.5 15t-6.5 1q-12 -4 -24.5 -7t-25.5 -3q-23 0 -35.5 12.5t-12.5 37.5q0 45 35.5 81t87.5 55q6 2 8.5 6
t4.5 18l1 6q3 17 1 21.5t-7 4.5h-314l39 279h263q5 0 7.5 4t5.5 21l1 6q3 17 1 21.5t-7 4.5h-263l38 270h310z" />
    <glyph glyph-name="Gcircumflex" unicode="&#x11c;" horiz-adv-x="623" 
d="M559 625q7 -5 21 17l4 7q8 13 9 17.5t-3 7.5q-32 26 -77.5 41t-102.5 15q-93 0 -161.5 -39.5t-113.5 -103.5t-67 -146t-22 -166q0 -63 15 -115t45 -89q32 -38 82 -59.5t121 -21.5q54 0 107.5 12.5t106.5 35.5l47 337h-225q-5 0 -7 -4t-5 -21l-1 -5q-3 -17 -2 -22t6 -5
h160l-34 -243q-29 -12 -67 -19.5t-74 -7.5q-54 0 -92.5 16t-63 45.5t-36 71t-11.5 92.5q0 47 7 95t21.5 92t37.5 82.5t54.5 67t72 45t91.5 16.5q45 0 82.5 -11.5t74.5 -34.5zM419 921q-14 0 -21.5 -2.5t-13.5 -7.5l-106 -100q-3 -3 -3 -5.5t5 -9.5l4 -6q8 -12 14 -7l131 97
l97 -97q3 -3 5.5 -2t10.5 9l6 6q6 6 7 9t-1 6l-78 100q-5 5 -11 7.5t-20 2.5h-26z" />
    <glyph glyph-name="Gbreve" unicode="&#x11e;" horiz-adv-x="623" 
d="M559 625q7 -5 21 17l4 7q8 13 9 17.5t-3 7.5q-32 26 -77.5 41t-102.5 15q-93 0 -161.5 -39.5t-113.5 -103.5t-67 -146t-22 -166q0 -63 15 -115t45 -89q32 -38 82 -59.5t121 -21.5q54 0 107.5 12.5t106.5 35.5l47 337h-225q-5 0 -7 -4t-5 -21l-1 -5q-3 -17 -2 -22t6 -5
h160l-34 -243q-29 -12 -67 -19.5t-74 -7.5q-54 0 -92.5 16t-63 45.5t-36 71t-11.5 92.5q0 47 7 95t21.5 92t37.5 82.5t54.5 67t72 45t91.5 16.5q45 0 82.5 -11.5t74.5 -34.5zM410 795q59 0 98 27.5t48 81.5q1 4 -2.5 6t-16.5 2h-8q-13 0 -17 -1t-5 -6q-15 -69 -91 -69
q-78 0 -78 68q0 5 -3.5 6.5t-16.5 1.5h-10q-13 0 -15 -1.5t-3 -4.5q-1 -5 -1 -8.5v-7.5q0 -45 34.5 -70t86.5 -25z" />
    <glyph glyph-name="Gdotaccent" unicode="&#x120;" horiz-adv-x="623" 
d="M559 625q7 -5 21 17l4 7q8 13 9 17.5t-3 7.5q-32 26 -77.5 41t-102.5 15q-93 0 -161.5 -39.5t-113.5 -103.5t-67 -146t-22 -166q0 -63 15 -115t45 -89q32 -38 82 -59.5t121 -21.5q54 0 107.5 12.5t106.5 35.5l47 337h-225q-5 0 -7 -4t-5 -21l-1 -5q-3 -17 -2 -22t6 -5
h160l-34 -243q-29 -12 -67 -19.5t-74 -7.5q-54 0 -92.5 16t-63 45.5t-36 71t-11.5 92.5q0 47 7 95t21.5 92t37.5 82.5t54.5 67t72 45t91.5 16.5q45 0 82.5 -11.5t74.5 -34.5zM370 836q0 -17 11.5 -29.5t30.5 -12.5q21 0 36 15.5t15 35.5q0 17 -11.5 29.5t-28.5 12.5
q-23 0 -38 -15.5t-15 -35.5z" />
    <glyph glyph-name="Gcommaaccent" unicode="&#x122;" horiz-adv-x="623" 
d="M559 625q7 -5 21 17l4 7q8 13 9 17.5t-3 7.5q-32 26 -77.5 41t-102.5 15q-93 0 -161.5 -39.5t-113.5 -103.5t-67 -146t-22 -166q0 -63 15 -115t45 -89q32 -38 82 -59.5t121 -21.5q54 0 107.5 12.5t106.5 35.5l47 337h-225q-5 0 -7 -4t-5 -21l-1 -5q-3 -17 -2 -22t6 -5
h160l-34 -243q-29 -12 -67 -19.5t-74 -7.5q-54 0 -92.5 16t-63 45.5t-36 71t-11.5 92.5q0 47 7 95t21.5 92t37.5 82.5t54.5 67t72 45t91.5 16.5q45 0 82.5 -11.5t74.5 -34.5zM222 -268q5 -7 8 -7.5t6 1.5q45 34 76.5 80.5t31.5 93.5q0 22 -11 34.5t-31 12.5q-18 0 -31.5 -11
t-13.5 -30q0 -11 3.5 -18.5t8 -14t8 -13.5t3.5 -17q0 -21 -17.5 -44.5t-45.5 -46.5q-5 -4 -3.5 -7.5t5.5 -8.5z" />
    <glyph glyph-name="Hcircumflex" unicode="&#x124;" horiz-adv-x="642" 
d="M618 711q1 6 -5.5 7.5t-25.5 1.5h-8q-18 0 -23 -2t-6 -7l-45 -318h-346l45 318q1 6 -5.5 7.5t-25.5 1.5h-8q-18 0 -23 -2t-6 -7l-99 -702q-1 -5 4.5 -7t22.5 -2h8q18 0 25 2t8 7l46 327h346l-46 -327q-1 -5 5 -7t23 -2h8q31 0 32 9zM391 921q-14 0 -21.5 -2.5t-13.5 -7.5
l-106 -100q-3 -3 -3 -5.5t5 -9.5l4 -6q8 -12 14 -7l131 97l97 -97q3 -3 5.5 -2t10.5 9l6 6q6 6 7 9t-1 6l-78 100q-5 5 -11 7.5t-20 2.5h-26z" />
    <glyph glyph-name="Hbar" unicode="&#x126;" horiz-adv-x="656" 
d="M63 543h56l-75 -534q-1 -5 4.5 -7t22.5 -2h8q18 0 25 2t8 7l46 327h346l-46 -327q-1 -5 5 -7t23 -2h8q31 0 32 9l75 534h56q5 0 7 3.5t4 18.5l1 6q2 15 1 19t-6 4h-56l17 117q1 6 -5.5 7.5t-25.5 1.5h-8q-18 0 -23 -2t-6 -7l-17 -117h-346l17 117q1 6 -5.5 7.5t-25.5 1.5
h-8q-18 0 -23 -2t-6 -7l-17 -117h-56q-5 0 -7 -3.5t-4 -18.5l-1 -6q-2 -15 -1 -19t6 -4zM166 393l21 150h346l-21 -150h-346z" />
    <glyph glyph-name="Igrave" unicode="&#xcc;" horiz-adv-x="357" 
d="M241 0q5 0 6.5 2.5t4.5 17.5l1 5q3 16 2 19t-6 3h-74l88 626h72q5 0 6.5 2.5t4.5 17.5l1 5q3 16 2 19t-6 3h-214q-5 0 -6.5 -2.5t-4.5 -17.5l-1 -5q-3 -14 -2 -18t6 -4h75l-88 -626h-74q-5 0 -6.5 -2.5t-4.5 -17.5l-1 -5q-3 -14 -2 -18t6 -4h215zM197 913
q-18 0 -22.5 -2.5t-1.5 -7.5l70 -119q2 -4 6.5 -5t18.5 -1h4q24 0 21 7l-49 118q-2 5 -7 7.5t-25 2.5h-15z" />
    <glyph glyph-name="Iacute" unicode="&#xcd;" horiz-adv-x="357" 
d="M241 0q5 0 6.5 2.5t4.5 17.5l1 5q3 16 2 19t-6 3h-74l88 626h72q5 0 6.5 2.5t4.5 17.5l1 5q3 16 2 19t-6 3h-214q-5 0 -6.5 -2.5t-4.5 -17.5l-1 -5q-3 -14 -2 -18t6 -4h75l-88 -626h-74q-5 0 -6.5 -2.5t-4.5 -17.5l-1 -5q-3 -14 -2 -18t6 -4h215zM314 913q-20 0 -26 -2.5
t-10 -7.5l-82 -117q-5 -8 18 -8h4q14 0 18.5 1t8.5 5l104 119q5 5 0.5 7.5t-24.5 2.5h-11z" />
    <glyph glyph-name="Icircumflex" unicode="&#xce;" horiz-adv-x="357" 
d="M241 0q5 0 6.5 2.5t4.5 17.5l1 5q3 16 2 19t-6 3h-74l88 626h72q5 0 6.5 2.5t4.5 17.5l1 5q3 16 2 19t-6 3h-214q-5 0 -6.5 -2.5t-4.5 -17.5l-1 -5q-3 -14 -2 -18t6 -4h75l-88 -626h-74q-5 0 -6.5 -2.5t-4.5 -17.5l-1 -5q-3 -14 -2 -18t6 -4h215zM253 921
q-14 0 -21.5 -2.5t-13.5 -7.5l-106 -100q-3 -3 -3 -5.5t5 -9.5l4 -6q8 -12 14 -7l131 97l97 -97q3 -3 5.5 -2t10.5 9l6 6q6 6 7 9t-1 6l-78 100q-5 5 -11 7.5t-20 2.5h-26z" />
    <glyph glyph-name="Itilde" unicode="&#x128;" horiz-adv-x="357" 
d="M241 0q5 0 6.5 2.5t4.5 17.5l1 5q3 16 2 19t-6 3h-74l88 626h72q5 0 6.5 2.5t4.5 17.5l1 5q3 16 2 19t-6 3h-214q-5 0 -6.5 -2.5t-4.5 -17.5l-1 -5q-3 -14 -2 -18t6 -4h75l-88 -626h-74q-5 0 -6.5 -2.5t-4.5 -17.5l-1 -5q-3 -14 -2 -18t6 -4h215zM396 857q7 7 -1 19l-5 7
q-5 8 -8 9t-6 -1q-18 -17 -32 -23.5t-29 -6.5q-17 0 -30.5 6t-27.5 13t-29.5 13t-35.5 6q-26 0 -50 -13.5t-40 -30.5q-6 -6 1 -18l4 -6q11 -14 17 -8q16 15 29.5 21.5t29.5 6.5t29.5 -6t27.5 -13t29.5 -13t36.5 -6q26 0 50 13.5t40 30.5z" />
    <glyph glyph-name="Idieresis" unicode="&#xcf;" horiz-adv-x="357" 
d="M241 0q5 0 6.5 2.5t4.5 17.5l1 5q3 16 2 19t-6 3h-74l88 626h72q5 0 6.5 2.5t4.5 17.5l1 5q3 16 2 19t-6 3h-214q-5 0 -6.5 -2.5t-4.5 -17.5l-1 -5q-3 -14 -2 -18t6 -4h75l-88 -626h-74q-5 0 -6.5 -2.5t-4.5 -17.5l-1 -5q-3 -14 -2 -18t6 -4h215zM109 841
q0 -17 11.5 -29.5t28.5 -12.5q25 0 39.5 16t14.5 36q0 17 -11.5 30t-29.5 13q-23 0 -38 -16.5t-15 -36.5zM307 841q0 -17 11.5 -29.5t28.5 -12.5q24 0 39 16t15 36q0 17 -11.5 30t-29.5 13q-23 0 -38 -16.5t-15 -36.5z" />
    <glyph glyph-name="Imacron" unicode="&#x12a;" horiz-adv-x="357" 
d="M241 0q5 0 6.5 2.5t4.5 17.5l1 5q3 16 2 19t-6 3h-74l88 626h72q5 0 6.5 2.5t4.5 17.5l1 5q3 16 2 19t-6 3h-214q-5 0 -6.5 -2.5t-4.5 -17.5l-1 -5q-3 -14 -2 -18t6 -4h75l-88 -626h-74q-5 0 -6.5 -2.5t-4.5 -17.5l-1 -5q-3 -14 -2 -18t6 -4h215zM373 823q5 0 7 3.5
t5 18.5l1 5q3 17 2 20.5t-6 3.5h-254q-5 0 -7 -3.5t-5 -18.5l-1 -5q-3 -15 -2 -19.5t6 -4.5h254z" />
    <glyph glyph-name="Ibreve" unicode="&#x12c;" horiz-adv-x="357" 
d="M241 0q5 0 6.5 2.5t4.5 17.5l1 5q3 16 2 19t-6 3h-74l88 626h72q5 0 6.5 2.5t4.5 17.5l1 5q3 16 2 19t-6 3h-214q-5 0 -6.5 -2.5t-4.5 -17.5l-1 -5q-3 -14 -2 -18t6 -4h75l-88 -626h-74q-5 0 -6.5 -2.5t-4.5 -17.5l-1 -5q-3 -14 -2 -18t6 -4h215zM245 795q59 0 98 27.5
t48 81.5q1 4 -2.5 6t-16.5 2h-8q-13 0 -17 -1t-5 -6q-15 -69 -91 -69q-78 0 -78 68q0 5 -3.5 6.5t-16.5 1.5h-10q-13 0 -15 -1.5t-3 -4.5q-1 -5 -1 -8.5v-7.5q0 -45 34.5 -70t86.5 -25z" />
    <glyph glyph-name="Idotaccent" unicode="&#x130;" horiz-adv-x="357" 
d="M241 0q5 0 6.5 2.5t4.5 17.5l1 5q3 16 2 19t-6 3h-74l88 626h72q5 0 6.5 2.5t4.5 17.5l1 5q3 16 2 19t-6 3h-214q-5 0 -6.5 -2.5t-4.5 -17.5l-1 -5q-3 -14 -2 -18t6 -4h75l-88 -626h-74q-5 0 -6.5 -2.5t-4.5 -17.5l-1 -5q-3 -14 -2 -18t6 -4h215zM205 836
q0 -17 11.5 -29.5t30.5 -12.5q21 0 36 15.5t15 35.5q0 17 -11.5 29.5t-28.5 12.5q-23 0 -38 -15.5t-15 -35.5z" />
    <glyph glyph-name="Iogonek" unicode="&#x12e;" horiz-adv-x="357" 
d="M126 0q-46 -23 -74.5 -62.5t-28.5 -83.5q0 -38 22.5 -60.5t64.5 -22.5q39 0 72 15q5 2 5 18v5q0 12 -1.5 15t-6.5 1q-12 -4 -24 -7t-25 -3q-23 0 -36 12.5t-13 37.5q0 50 42 90q25 23 55 34t57 11h6q5 0 6.5 2.5t4.5 17.5l1 5q3 16 2 19t-6 3h-74l88 626h72q5 0 6.5 2.5
t4.5 17.5l1 5q3 16 2 19t-6 3h-214q-5 0 -6.5 -2.5t-4.5 -17.5l-1 -5q-3 -14 -2 -18t6 -4h75l-88 -626h-74q-5 0 -6.5 -2.5t-4.5 -17.5l-1 -5q-3 -14 -2 -18t6 -4h100z" />
    <glyph glyph-name="IJ" unicode="&#x132;" horiz-adv-x="786" 
d="M241 0q5 0 6.5 2.5t4.5 17.5l1 5q3 16 2 19t-6 3h-74l88 626h72q5 0 6.5 2.5t4.5 17.5l1 5q3 16 2 19t-6 3h-214q-5 0 -6.5 -2.5t-4.5 -17.5l-1 -5q-3 -14 -2 -18t6 -4h75l-88 -626h-74q-5 0 -6.5 -2.5t-4.5 -17.5l-1 -5q-3 -14 -2 -18t6 -4h215zM732 720q-18 0 -23.5 -2
t-6.5 -7l-70 -500q-7 -48 -15.5 -76.5t-27.5 -48.5q-36 -38 -100 -38q-26 0 -54 8.5t-54 24.5q-7 4 -11 2t-12 -15l-6 -10q-8 -14 -9 -17.5t5 -8.5q29 -20 65.5 -31t75.5 -11q40 0 78 13t64 37q29 27 44 62t23 93l72 516q1 5 -5.5 7t-24.5 2h-8z" />
    <glyph glyph-name="Jcircumflex" unicode="&#x134;" horiz-adv-x="429" 
d="M375 720q-18 0 -23.5 -2t-6.5 -7l-70 -500q-7 -48 -15.5 -76.5t-27.5 -48.5q-36 -38 -100 -38q-26 0 -54 8.5t-54 24.5q-7 4 -11 2t-12 -15l-6 -10q-8 -14 -9 -17.5t5 -8.5q29 -20 65.5 -31t75.5 -11q40 0 78 13t64 37q29 27 44 62t23 93l72 516q1 5 -5.5 7t-24.5 2h-8z
M391 921q-14 0 -21.5 -2.5t-13.5 -7.5l-106 -100q-3 -3 -3 -5.5t5 -9.5l4 -6q8 -12 14 -7l131 97l97 -97q3 -3 5.5 -2t10.5 9l6 6q6 6 7 9t-1 6l-78 100q-5 5 -11 7.5t-20 2.5h-26z" />
    <glyph glyph-name="Kcommaaccent" unicode="&#x136;" horiz-adv-x="559" 
d="M37 9q-1 -5 4.5 -7t22.5 -2h8q17 0 24 2t8 7l36 254l117 108l160 -361q2 -6 8 -8t27 -2h16q19 0 23 2.5t1 10.5l-182 407q93 85 157 160t94 130q5 10 -22 10h-13q-16 0 -23 -1.5t-10 -6.5q-31 -50 -89 -117t-133 -138l-119 -112l51 366q1 9 -30 9h-8q-28 0 -29 -9z
M175 -268q5 -7 8 -7.5t6 1.5q45 34 76.5 80.5t31.5 93.5q0 22 -11 34.5t-31 12.5q-18 0 -31.5 -11t-13.5 -30q0 -11 3.5 -18.5t8 -14t8 -13.5t3.5 -17q0 -21 -17.5 -44.5t-45.5 -46.5q-5 -4 -3.5 -7.5t5.5 -8.5z" />
    <glyph glyph-name="Lacute" unicode="&#x139;" horiz-adv-x="483" 
d="M202 711q1 5 -6 7t-24 2h-8q-17 0 -22.5 -2t-6.5 -7l-98 -700q-1 -6 4 -8.5t21 -2.5h331q5 0 7 4t5 21l1 6q3 18 1.5 22t-6.5 4h-291zM262 913q-20 0 -26 -2.5t-10 -7.5l-82 -117q-5 -8 18 -8h4q14 0 18.5 1t8.5 5l104 119q5 5 0.5 7.5t-24.5 2.5h-11z" />
    <glyph glyph-name="Lcaron" unicode="&#x13d;" horiz-adv-x="483" 
d="M202 711q1 5 -6 7t-24 2h-8q-17 0 -22.5 -2t-6.5 -7l-98 -700q-1 -6 4 -8.5t21 -2.5h331q5 0 7 4t5 21l1 6q3 18 1.5 22t-6.5 4h-291zM250 515q5 -7 8 -7.5t6 1.5q45 34 76.5 80.5t31.5 93.5q0 22 -11 34.5t-31 12.5q-18 0 -31.5 -11t-13.5 -30q0 -11 3.5 -18.5t8 -14
t8 -13.5t3.5 -17q0 -21 -17.5 -44.5t-45.5 -46.5q-5 -4 -3.5 -7.5t5.5 -8.5z" />
    <glyph glyph-name="Lcommaaccent" unicode="&#x13b;" horiz-adv-x="483" 
d="M202 711q1 5 -6 7t-24 2h-8q-17 0 -22.5 -2t-6.5 -7l-98 -700q-1 -6 4 -8.5t21 -2.5h331q5 0 7 4t5 21l1 6q3 18 1.5 22t-6.5 4h-291zM140 -268q5 -7 8 -7.5t6 1.5q45 34 76.5 80.5t31.5 93.5q0 22 -11 34.5t-31 12.5q-18 0 -31.5 -11t-13.5 -30q0 -11 3.5 -18.5t8 -14
t8 -13.5t3.5 -17q0 -21 -17.5 -44.5t-45.5 -46.5q-5 -4 -3.5 -7.5t5.5 -8.5z" />
    <glyph glyph-name="Lslash" unicode="&#x141;" horiz-adv-x="485" 
d="M203 711q1 5 -6 7t-24 2h-8q-17 0 -22.5 -2t-6.5 -7l-53 -379l-72 -51q-4 -2 -5 -6t-3 -15l-1 -8q-2 -15 0.5 -18.5t8.5 0.5l64 46l-37 -269q-1 -6 4 -8.5t21 -2.5h331q5 0 7 4t5 21l1 6q3 18 1.5 22t-6.5 4h-291l39 276l138 98q5 4 7 8t4 17l1 8q2 15 -1 17.5t-8 -1.5
l-134 -95z" />
    <glyph glyph-name="Ldot" unicode="&#x13f;" horiz-adv-x="483" 
d="M202 711q1 5 -6 7t-24 2h-8q-17 0 -22.5 -2t-6.5 -7l-98 -700q-1 -6 4 -8.5t21 -2.5h331q5 0 7 4t5 21l1 6q3 18 1.5 22t-6.5 4h-291zM283 357q0 -17 11.5 -29.5t30.5 -12.5q21 0 36 15.5t15 35.5q0 17 -11.5 29.5t-28.5 12.5q-23 0 -38 -15.5t-15 -35.5z" />
    <glyph glyph-name="Nacute" unicode="&#x143;" horiz-adv-x="663" 
d="M463 10q2 -6 8.5 -8t29.5 -2h6q19 0 26.5 2t8.5 7l99 702q1 5 -4.5 7t-22.5 2h-6q-17 0 -22 -2t-6 -7l-86 -616l-280 615q-3 6 -10 8t-28 2h-6q-21 0 -28 -2t-8 -7l-99 -702q-1 -5 4 -7t22 -2h6q17 0 22.5 2t6.5 7l87 616zM455 913q-20 0 -26 -2.5t-10 -7.5l-82 -117
q-5 -8 18 -8h4q14 0 18.5 1t8.5 5l104 119q5 5 0.5 7.5t-24.5 2.5h-11z" />
    <glyph glyph-name="Ncaron" unicode="&#x147;" horiz-adv-x="663" 
d="M463 10q2 -6 8.5 -8t29.5 -2h6q19 0 26.5 2t8.5 7l99 702q1 5 -4.5 7t-22.5 2h-6q-17 0 -22 -2t-6 -7l-86 -616l-280 615q-3 6 -10 8t-28 2h-6q-21 0 -28 -2t-8 -7l-99 -702q-1 -5 4 -7t22 -2h6q17 0 22.5 2t6.5 7l87 616zM415 782q23 0 34 10l106 100q4 3 3.5 5.5
t-5.5 10.5l-4 6q-5 7 -7 8t-7 -2l-128 -97l-100 97q-3 3 -6 2t-10 -8l-6 -6q-7 -7 -7.5 -10t1.5 -6l78 -100q9 -10 32 -10h26z" />
    <glyph glyph-name="Ntilde" unicode="&#xd1;" horiz-adv-x="663" 
d="M463 10q2 -6 8.5 -8t29.5 -2h6q19 0 26.5 2t8.5 7l99 702q1 5 -4.5 7t-22.5 2h-6q-17 0 -22 -2t-6 -7l-86 -616l-280 615q-3 6 -10 8t-28 2h-6q-21 0 -28 -2t-8 -7l-99 -702q-1 -5 4 -7t22 -2h6q17 0 22.5 2t6.5 7l87 616zM542 857q7 7 -1 19l-5 7q-5 8 -8 9t-6 -1
q-18 -17 -32 -23.5t-29 -6.5q-17 0 -30.5 6t-27.5 13t-29.5 13t-35.5 6q-26 0 -50 -13.5t-40 -30.5q-6 -6 1 -18l4 -6q11 -14 17 -8q16 15 29.5 21.5t29.5 6.5t29.5 -6t27.5 -13t29.5 -13t36.5 -6q26 0 50 13.5t40 30.5z" />
    </font>
</defs>
</svg>
