<?xml version="1.0" encoding="iso-8859-1"?>
<!-- Generator: Adobe Illustrator 19.0.0, SVG Export Plug-In . SVG Version: 6.00 Build 0)  -->
<svg xmlns="http://www.w3.org/2000/svg" xmlns:xlink="http://www.w3.org/1999/xlink" version="1.1" id="Layer_1" x="0px" y="0px" viewBox="0 0 210.414 210.414" style="enable-background:new 0 0 210.414 210.414;" xml:space="preserve" width="512px" height="512px">
<g>
	<g>
		<g>
			<path d="M155.877,27.276H54.537c-8.586,0-15.571,6.992-15.571,15.586s6.985,15.586,15.571,15.586h101.341     c8.586,0,15.571-6.992,15.571-15.586S164.464,27.276,155.877,27.276z M155.877,50.655H54.537c-4.289,0-7.778-3.495-7.778-7.793     s3.489-7.793,7.778-7.793h101.341c4.289,0,7.778,3.495,7.778,7.793S160.166,50.655,155.877,50.655z" fill="#FFFFFF"/>
			<path d="M183.138,46.759h23.379c2.152,0,3.897-1.745,3.897-3.897s-1.745-3.897-3.897-3.897h-23.379     c-2.152,0-3.897,1.745-3.897,3.897S180.986,46.759,183.138,46.759z" fill="#FFFFFF"/>
			<path d="M27.276,38.966H3.897C1.745,38.966,0,40.71,0,42.862s1.745,3.897,3.897,3.897h23.379c2.152,0,3.897-1.745,3.897-3.897     S29.428,38.966,27.276,38.966z" fill="#FFFFFF"/>
			<path d="M155.877,89.621H54.537c-8.586,0-15.571,6.992-15.571,15.586c0,8.594,6.985,15.586,15.571,15.586h101.341     c8.586,0,15.571-6.992,15.571-15.586C171.449,96.613,164.464,89.621,155.877,89.621z M155.877,113H54.537     c-4.289,0-7.778-3.495-7.778-7.793c0-4.298,3.489-7.793,7.778-7.793h101.341c4.289,0,7.778,3.495,7.778,7.793     C163.655,109.505,160.166,113,155.877,113z" fill="#FFFFFF"/>
			<path d="M155.877,151.966H54.537c-8.586,0-15.571,6.992-15.571,15.586s6.985,15.586,15.571,15.586h101.341     c8.586,0,15.571-6.992,15.571-15.586S164.464,151.966,155.877,151.966z M155.877,175.345H54.537     c-4.289,0-7.778-3.495-7.778-7.793c0-4.298,3.489-7.793,7.778-7.793h101.341c4.289,0,7.778,3.495,7.778,7.793     C163.656,171.85,160.166,175.345,155.877,175.345z" fill="#FFFFFF"/>
			<path d="M206.517,101.31h-23.379c-2.152,0-3.897,1.745-3.897,3.897c0,2.152,1.745,3.897,3.897,3.897h23.379     c2.152,0,3.897-1.745,3.897-3.897C210.414,103.055,208.669,101.31,206.517,101.31z" fill="#FFFFFF"/>
			<path d="M206.517,163.655h-23.379c-2.152,0-3.897,1.745-3.897,3.897c0,2.152,1.745,3.897,3.897,3.897h23.379     c2.152,0,3.897-1.745,3.897-3.897C210.414,165.4,208.669,163.655,206.517,163.655z" fill="#FFFFFF"/>
			<path d="M27.276,101.31H3.897c-2.152,0-3.897,1.745-3.897,3.897c0,2.152,1.745,3.897,3.897,3.897h23.379     c2.152,0,3.897-1.745,3.897-3.897C31.172,103.055,29.428,101.31,27.276,101.31z" fill="#FFFFFF"/>
			<path d="M27.276,163.655H3.897C1.745,163.655,0,165.4,0,167.552c0,2.152,1.745,3.897,3.897,3.897h23.379     c2.152,0,3.897-1.745,3.897-3.897C31.172,165.4,29.428,163.655,27.276,163.655z" fill="#FFFFFF"/>
		</g>
	</g>
</g>
<g>
</g>
<g>
</g>
<g>
</g>
<g>
</g>
<g>
</g>
<g>
</g>
<g>
</g>
<g>
</g>
<g>
</g>
<g>
</g>
<g>
</g>
<g>
</g>
<g>
</g>
<g>
</g>
<g>
</g>
</svg>
