<?xml version="1.0" standalone="no"?>
<!DOCTYPE svg PUBLIC "-//W3C//DTD SVG 1.1//EN" "http://www.w3.org/Graphics/SVG/1.1/DTD/svg11.dtd" >
<svg xmlns="http://www.w3.org/2000/svg">
<metadata>
Copyright (c) 2013 by Fontsmith Ltd. All rights reserved.
</metadata>
<defs>
<font id="FSMeWeb-Light" horiz-adv-x="362" >
  <font-face 
    font-family="FS Me Web Light"
    font-weight="300"
    font-stretch="normal"
    units-per-em="1000"
    panose-1="2 0 5 6 4 0 0 2 0 4"
    ascent="750"
    descent="-250"
    x-height="528"
    cap-height="720"
    bbox="-81.3333 -275.333 1220 1033"
    underline-thickness="50"
    underline-position="-50"
    unicode-range="U+000D-FB04"
  />
<missing-glyph horiz-adv-x="694" 
d="M90 0h514v720h-514v-720zM348 406l-176 263h350zM378 360l175 262v-524zM172 52l176 262l174 -262h-350zM142 622l174 -262l-174 -262v524z" />
    <glyph glyph-name="fi" unicode="fi" horiz-adv-x="548" 
d="M299 472q5 0 7 5t2 19v7q0 15 -2 20t-7 5h-123v39q0 40 6.5 68.5t22 46.5t40.5 26t62 8q33 0 64 -7.5t66 -23.5q7 -3 10 0.5t9 17.5l2 5q6 14 6 19t-5 7q-31 15 -72 25.5t-79 10.5q-101 0 -149 -47t-48 -154v-41h-70q-5 0 -7 -5t-2 -20v-7q0 -14 2 -19t7 -5h70v-462
q0 -5 6 -7.5t23 -2.5h8q16 0 22 2.5t6 7.5v462h123zM405 10q0 -5 5.5 -7.5t23.5 -2.5h8q17 0 22.5 2.5t5.5 7.5v509q0 5 -6 7t-23 2h-8q-16 0 -22 -2t-6 -7v-509z" />
    <glyph glyph-name="fl" unicode="fl" horiz-adv-x="588" 
d="M414 132q0 -42 3.5 -66.5t11.5 -37.5q12 -17 29.5 -22.5t36.5 -5.5q9 0 20 1.5t21 4.5q8 2 9.5 6.5t-0.5 15.5l-1 7q-2 13 -3.5 16t-5.5 2q-5 -1 -9.5 -1.5t-10.5 -0.5q-23 0 -29.5 14t-6.5 47v348q0 82 -1.5 150.5t-6.5 117.5q-2 17 -21 25q-29 13 -66.5 21t-73.5 8
q-199 0 -199 -213v-41h-70q-5 0 -7 -5t-2 -20v-7q0 -14 2 -19t7 -5h70v-462q0 -5 6 -7.5t23 -2.5h8q16 0 22 2.5t6 7.5v462h123q5 0 7 5t2 19v7q0 15 -2 20t-7 5h-123v39q0 36 5.5 66t20.5 51t41 33t67 12q26 0 51 -5t46 -15q3 -46 5 -108t2 -118v-351z" />
    <glyph glyph-name="f_f" unicode="ff" horiz-adv-x="650" 
d="M176 528v39q0 38 5 67t18 49t35 30.5t57 10.5q20 0 38 -3.5t34 -8.5q7 -2 10 2.5t7 17.5l2 7q6 22 -3 26q-43 17 -91 17q-95 0 -136 -56.5t-41 -156.5v-41h-70q-5 0 -7 -5t-2 -20v-7q0 -14 2 -19t7 -5h70v-462q0 -5 6 -7.5t23 -2.5h8q16 0 22 2.5t6 7.5v462h255v-462
q0 -5 6 -7.5t23 -2.5h8q16 0 22 2.5t6 7.5v462h123q5 0 7 5t2 19v7q0 15 -2 20t-7 5h-123v39q0 38 5 67t18 49t35 30.5t57 10.5q20 0 38 -3.5t34 -8.5q7 -2 10 2.5t7 17.5l2 7q6 22 -3 26q-43 17 -91 17q-95 0 -136 -56.5t-41 -156.5v-41h-255z" />
    <glyph glyph-name="f_f_i" unicode="ffi" horiz-adv-x="868" 
d="M431 528v41q0 107 48 154t149 47q38 0 79 -10.5t72 -25.5q5 -2 5 -7t-6 -19l-2 -5q-6 -14 -9 -17.5t-10 -0.5q-35 16 -66 23.5t-64 7.5q-37 0 -62 -8t-40.5 -26t-22 -46.5t-6.5 -68.5v-39h123q5 0 7 -5t2 -20v-7q0 -14 -2 -19t-7 -5h-123v-462q0 -5 -6 -7.5t-22 -2.5h-8
q-17 0 -23 2.5t-6 7.5v462h-255v-462q0 -5 -6 -7.5t-22 -2.5h-8q-17 0 -23 2.5t-6 7.5v462h-70q-5 0 -7 5t-2 19v7q0 15 2 20t7 5h70v41q0 100 41 156.5t136 56.5q48 0 91 -17q9 -4 3 -26l-2 -7q-4 -13 -7 -17.5t-10 -2.5q-16 5 -34 8.5t-38 3.5q-35 0 -57 -10.5t-35 -30.5
t-18 -49t-5 -67v-39h255zM725 519q0 5 6 7t22 2h8q17 0 23 -2t6 -7v-509q0 -5 -5.5 -7.5t-22.5 -2.5h-8q-18 0 -23.5 2.5t-5.5 7.5v509z" />
    <glyph glyph-name="f_j" unicode="fj" horiz-adv-x="549" 
d="M176 472v-462q0 -5 -6 -7.5t-22 -2.5h-8q-17 0 -23 2.5t-6 7.5v462h-70q-5 0 -7 5t-2 19v7q0 15 2 20t7 5h70v41q0 107 48 154t149 47q38 0 79 -10.5t72 -25.5q5 -2 5 -7t-6 -19l-2 -5q-6 -14 -9 -17.5t-10 -0.5q-35 16 -66 23.5t-64 7.5q-37 0 -62 -8t-40.5 -26
t-22 -46.5t-6.5 -68.5v-39h123q5 0 7 -5t2 -20v-7q0 -14 -2 -19t-7 -5h-123zM470 -9q0 -128 -46 -182t-133 -54q-18 0 -36 3t-29 8q-3 2 -4 6t1 18l1 6q2 14 4 18.5t7 2.5q11 -3 23 -5t27 -2q67 0 93.5 41t26.5 138v530q0 9 28 9h8q17 0 23 -2t6 -7v-528z" />
    <glyph glyph-name="f_f_j" unicode="ffj" horiz-adv-x="869" 
d="M431 528v41q0 107 48 154t149 47q38 0 79 -10.5t72 -25.5q5 -2 5 -7t-6 -19l-2 -5q-6 -14 -9 -17.5t-10 -0.5q-35 16 -66 23.5t-64 7.5q-37 0 -62 -8t-40.5 -26t-22 -46.5t-6.5 -68.5v-39h123q5 0 7 -5t2 -20v-7q0 -14 -2 -19t-7 -5h-123v-462q0 -5 -6 -7.5t-22 -2.5h-8
q-17 0 -23 2.5t-6 7.5v462h-255v-462q0 -5 -6 -7.5t-22 -2.5h-8q-17 0 -23 2.5t-6 7.5v462h-70q-5 0 -7 5t-2 19v7q0 15 2 20t7 5h70v41q0 100 41 156.5t136 56.5q48 0 91 -17q9 -4 3 -26l-2 -7q-4 -13 -7 -17.5t-10 -2.5q-16 5 -34 8.5t-38 3.5q-35 0 -57 -10.5t-35 -30.5
t-18 -49t-5 -67v-39h255zM790 -9q0 -128 -46 -182t-133 -54q-18 0 -36 3t-29 8q-3 2 -4 6t1 18l1 6q2 14 4 18.5t7 2.5q11 -3 23 -5t27 -2q67 0 93.5 41t26.5 138v530q0 9 28 9h8q17 0 23 -2t6 -7v-528z" />
    <glyph glyph-name="f_f_l" unicode="ffl" horiz-adv-x="908" 
d="M176 472v-462q0 -5 -6 -7.5t-22 -2.5h-8q-17 0 -23 2.5t-6 7.5v462h-70q-5 0 -7 5t-2 19v7q0 15 2 20t7 5h70v41q0 100 41 156.5t136 56.5q48 0 91 -17q9 -4 3 -26l-2 -7q-4 -13 -7 -17.5t-10 -2.5q-16 5 -34 8.5t-38 3.5q-35 0 -57 -10.5t-35 -30.5t-18 -49t-5 -67v-39
h255v41q0 213 199 213q36 0 73.5 -8t66.5 -21q19 -8 21 -25q5 -49 6.5 -117.5t1.5 -150.5v-348q0 -33 6.5 -47t29.5 -14q6 0 10.5 0.5t9.5 1.5q4 1 5.5 -2t3.5 -16l1 -7q2 -11 0.5 -15.5t-9.5 -6.5q-10 -3 -21 -4.5t-20 -1.5q-19 0 -36.5 5.5t-29.5 22.5q-8 13 -11.5 37.5
t-3.5 66.5v351q0 56 -2 118t-5 108q-21 10 -46 15t-51 5q-41 0 -67 -12t-41 -33t-20.5 -51t-5.5 -66v-39h123q5 0 7 -5t2 -20v-7q0 -14 -2 -19t-7 -5h-123v-462q0 -5 -6 -7.5t-22 -2.5h-8q-17 0 -23 2.5t-6 7.5v462h-255z" />
    <glyph glyph-name=".notdef" horiz-adv-x="694" 
d="M90 0h514v720h-514v-720zM348 406l-176 263h350zM378 360l175 262v-524zM172 52l176 262l174 -262h-350zM142 622l174 -262l-174 -262v524z" />
    <glyph glyph-name=".null" horiz-adv-x="0" 
 />
    <glyph glyph-name=".null" horiz-adv-x="0" 
 />
    <glyph glyph-name="nonmarkingreturn" unicode="&#xd;" horiz-adv-x="250" 
 />
    <glyph glyph-name="space" unicode=" " horiz-adv-x="250" 
 />
    <glyph glyph-name="nonbreakingspace" unicode="&#xa0;" horiz-adv-x="250" 
 />
    <glyph glyph-name="A" unicode="A" horiz-adv-x="626" 
d="M524 10q2 -6 9.5 -8t27.5 -2h10q22 0 27 3t3 8l-246 696q-3 8 -11.5 10.5t-31.5 2.5h-2q-23 0 -31.5 -2.5t-11.5 -10.5l-242 -696q-2 -5 3 -8t26 -3h5q17 0 25 2t10 8l61 184h308zM310 657l135 -407h-272z" />
    <glyph glyph-name="B" unicode="B" horiz-adv-x="565" 
d="M82 720v-720h177q69 0 124 16t90 52q23 24 36.5 57t13.5 77q0 37 -12 67t-32.5 52t-48 37t-58.5 22q21 7 41.5 20.5t36.5 33.5t25.5 46.5t9.5 58.5q0 79 -48 124q-31 29 -77.5 43t-116.5 14h-161zM151 345h105q111 0 160 -49q36 -36 36 -96q0 -65 -39 -99
q-25 -23 -64.5 -34t-97.5 -11h-100v289zM151 664h90q51 0 83.5 -8t54.5 -28q17 -16 26.5 -39.5t9.5 -56.5q0 -56 -35 -91q-22 -22 -57.5 -33t-88.5 -11h-83v267z" />
    <glyph glyph-name="C" unicode="C" horiz-adv-x="564" 
d="M355 671q35 0 67.5 -9t71.5 -27q5 -2 8.5 0t9.5 14l5 11q6 12 6.5 16.5t-4.5 7.5q-35 22 -79 34t-89 12q-65 0 -120 -23.5t-96 -71t-64 -119t-23 -166.5q0 -81 19 -147.5t56 -113.5t90.5 -73t122.5 -26q50 0 96 10.5t84 30.5q6 3 6 8.5t-5 17.5l-4 10q-8 20 -18 15
q-32 -16 -68.5 -24.5t-73.5 -8.5q-118 0 -175.5 80.5t-57.5 226.5q0 72 14.5 130t43.5 99t73.5 63.5t103.5 22.5z" />
    <glyph glyph-name="D" unicode="D" horiz-adv-x="646" 
d="M82 720v-720h163q91 0 154 22t107 66q93 93 93 275q0 173 -85 263q-45 47 -108.5 70.5t-161.5 23.5h-162zM151 664h86q41 0 73.5 -4.5t58 -13t46 -21.5t37.5 -31q38 -39 56.5 -97.5t18.5 -135.5q0 -78 -18 -138t-58 -99q-34 -33 -85 -50.5t-127 -17.5h-88v608z" />
    <glyph glyph-name="E" unicode="E" horiz-adv-x="534" 
d="M472 0q5 0 7 5t2 22v4q0 16 -2 21t-7 5h-321v279h269q5 0 7 5t2 22v4q0 16 -2 21t-7 5h-269v270h317q5 0 7 5t2 22v4q0 16 -2 21t-7 5h-386v-720h390z" />
    <glyph glyph-name="F" unicode="F" horiz-adv-x="479" 
d="M151 336h243q5 0 7 5t2 22v4q0 16 -2 21t-7 5h-243v270h291q5 0 7 5t2 22v4q0 16 -2 21t-7 5h-360v-709q0 -6 6 -8.5t27 -2.5h5q20 0 25.5 2.5t5.5 8.5v325z" />
    <glyph glyph-name="G" unicode="G" horiz-adv-x="636" 
d="M525 625q5 -3 9 0t9 14l5 11q5 11 6 16t-4 8q-37 26 -85.5 41t-106.5 15q-72 0 -129.5 -26t-98 -75t-62 -118.5t-21.5 -156.5q0 -91 24 -163t72 -120q38 -38 92 -59.5t126 -21.5q56 0 109 13.5t102 34.5v337h-230q-5 0 -7 -5t-2 -22v-4q0 -16 2 -21t7 -5h163v-243
q-29 -12 -66 -19.5t-74 -7.5q-66 0 -112.5 23t-76 64.5t-43.5 98.5t-14 125q0 70 15 127.5t44.5 98.5t74.5 63.5t105 22.5q46 0 84.5 -11t82.5 -35z" />
    <glyph glyph-name="H" unicode="H" horiz-adv-x="656" 
d="M82 9q0 -9 29 -9h8q32 0 32 9v327h354v-327q0 -9 29 -9h8q32 0 32 9v702q0 9 -32 9h-8q-29 0 -29 -9v-318h-354v318q0 9 -32 9h-8q-29 0 -29 -9v-702z" />
    <glyph glyph-name="I" unicode="I" horiz-adv-x="365" 
d="M292 0q5 0 7 3.5t2 17.5v4q0 15 -2 18.5t-7 3.5h-75v626h75q5 0 7 3.5t2 17.5v4q0 15 -2 18.5t-7 3.5h-219q-5 0 -7 -3.5t-2 -18.5v-4q0 -14 2 -17.5t7 -3.5h75v-626h-75q-5 0 -7 -3.5t-2 -18.5v-4q0 -14 2 -17.5t7 -3.5h219z" />
    <glyph glyph-name="J" unicode="J" horiz-adv-x="438" 
d="M324 720q-29 0 -29 -9v-500q0 -89 -30 -126q-14 -17 -38.5 -27t-53.5 -10q-28 0 -56 8.5t-60 24.5q-8 4 -12 1t-10 -14l-5 -10q-6 -12 -6 -16.5t7 -9.5q29 -20 67.5 -31t80.5 -11t77.5 13t58.5 37q26 27 37.5 64.5t11.5 90.5v516q0 9 -32 9h-8z" />
    <glyph glyph-name="K" unicode="K" horiz-adv-x="571" 
d="M82 9q0 -9 29 -9h8q32 0 32 9v254l104 108l214 -361q4 -6 10 -8t28 -2h16q20 0 23.5 3.5t-0.5 9.5l-244 407q82 85 136.5 160t77.5 130q2 6 -2.5 8t-18.5 2h-14q-17 0 -21 -1.5t-6 -6.5q-25 -50 -73.5 -116.5t-126.5 -149.5l-103 -110v375q0 9 -32 9h-8q-29 0 -29 -9
v-702z" />
    <glyph glyph-name="L" unicode="L" horiz-adv-x="495" 
d="M151 711q0 9 -32 9h-8q-29 0 -29 -9v-700q0 -6 5 -8.5t23 -2.5h338q5 0 7 5t2 22v4q0 16 -2 21t-7 5h-297v654z" />
    <glyph glyph-name="M" unicode="M" horiz-adv-x="777" 
d="M143 720h-5q-23 0 -30 -2t-7 -8l-34 -703q0 -4 5 -5.5t25 -1.5h4q20 0 25 1.5t5 5.5l23 619l200 -489q2 -5 8 -6.5t25 -1.5h8q19 0 25 1.5t8 6.5l193 497l23 -627q0 -4 5 -5.5t25 -1.5h6q20 0 25 1.5t5 5.5l-30 703q0 6 -7 8t-30 2h-5q-27 0 -35 -2.5t-10 -7.5l-199 -516
l-208 516q-2 5 -9.5 7.5t-33.5 2.5z" />
    <glyph glyph-name="N" unicode="N" horiz-adv-x="677" 
d="M516 10q4 -6 12 -8t33 -2h7q17 0 23 2t6 7v702q0 5 -5.5 7t-22.5 2h-7q-17 0 -22 -2t-5 -7v-616l-374 615q-4 6 -12 8t-33 2h-7q-17 0 -23 -2t-6 -7v-702q0 -5 5 -7t22 -2h7q17 0 22.5 2t5.5 7v616z" />
    <glyph glyph-name="O" unicode="O" horiz-adv-x="693" 
d="M353 671q105 0 163 -78t58 -226q0 -75 -16.5 -134.5t-47 -100t-73.5 -62t-97 -21.5q-105 0 -163 78.5t-58 226.5q0 76 16.5 135t46.5 99.5t73.5 61.5t97.5 21zM356 730q-71 0 -128 -26.5t-97.5 -76t-62 -119.5t-21.5 -158q0 -90 21.5 -157.5t60 -112.5t91.5 -67.5
t117 -22.5q71 0 128 26.5t97.5 76t62 120t21.5 158.5q0 90 -21.5 157t-60 112t-91.5 67.5t-117 22.5z" />
    <glyph glyph-name="P" unicode="P" horiz-adv-x="525" 
d="M151 664h79q57 0 97.5 -10.5t66.5 -36.5q19 -19 29 -46.5t10 -65.5q0 -82 -45 -127q-43 -43 -134 -43q-28 0 -53.5 2t-49.5 6v321zM82 9q0 -9 29 -9h8q32 0 32 9v279q57 -9 112 -9q60 0 104.5 16t73.5 45q32 32 47.5 74.5t15.5 93.5t-14.5 86.5t-39.5 60.5
q-38 37 -91.5 51t-125.5 14h-151v-711z" />
    <glyph glyph-name="Q" unicode="Q" horiz-adv-x="693" 
d="M356 730q-71 0 -128 -26.5t-97.5 -76t-62 -119.5t-21.5 -158q0 -90 21.5 -157.5t60 -112.5t91.5 -67.5t117 -22.5q32 0 61 5.5t55 15.5q45 -62 96 -113q5 -5 9.5 -3.5t13.5 9.5l10 9q9 8 11.5 13t-2.5 10q-25 25 -47 50t-41 52q68 46 105.5 131t37.5 202q0 90 -21.5 157
t-60 112t-91.5 67.5t-117 22.5zM353 671q105 0 163 -78t58 -226q0 -99 -27.5 -169t-78.5 -108q-14 23 -26 46.5t-23 48.5q-3 7 -6.5 8.5t-16.5 -3.5l-14 -6q-11 -5 -13.5 -8t-0.5 -10q9 -26 22 -51.5t29 -51.5q-37 -14 -79 -14q-105 0 -163 78.5t-58 226.5q0 76 16.5 135
t46.5 99.5t73.5 61.5t97.5 21z" />
    <glyph glyph-name="R" unicode="R" horiz-adv-x="554" 
d="M255 305h14t14 1q15 -37 34 -78.5t40 -81t42.5 -75t41.5 -60.5q6 -8 13 -9.5t27 -1.5h10q23 0 26.5 4t0.5 9q-25 34 -46 67t-40.5 69t-39.5 76.5t-43 90.5q64 17 103 56q26 26 41 63t15 85q0 88 -50 136q-34 33 -87.5 48.5t-136.5 15.5h-152v-711q0 -9 29 -9h8q32 0 32 9
v296h104zM151 665h87q60 0 100 -11t64 -37q33 -35 33 -101q0 -70 -41 -111q-48 -46 -147 -46h-96v306z" />
    <glyph glyph-name="S" unicode="S" horiz-adv-x="513" 
d="M49 47q32 -24 83.5 -40.5t110.5 -16.5q51 0 93 14.5t72 40t46.5 61.5t16.5 80q0 45 -16.5 77t-43.5 56.5t-60.5 43.5t-67.5 36q-28 15 -54 29.5t-46 32.5t-32 40t-12 51q0 57 40 89t100 32q38 0 71.5 -11t63.5 -28q5 -3 9 -0.5t12 16.5l3 5q7 12 8 17t-5 9
q-32 22 -76 35.5t-90 13.5q-41 0 -77.5 -13t-65 -36.5t-45 -57t-16.5 -74.5t14.5 -72t38 -54.5t53.5 -42t62 -34.5q31 -16 60.5 -32t52.5 -34.5t37 -42t14 -54.5q0 -60 -45.5 -98t-120.5 -38q-38 0 -79 12t-81 38q-5 3 -9 -0.5t-12 -15.5l-3 -5q-8 -14 -8.5 -19.5t4.5 -9.5z
" />
    <glyph glyph-name="T" unicode="T" horiz-adv-x="516" 
d="M227 663v-654q0 -9 29 -9h8q32 0 32 9v654h195q9 0 9 26v4q0 15 -2 21t-7 6h-466q-9 0 -9 -26v-4q0 -15 2 -21t7 -6h202z" />
    <glyph glyph-name="U" unicode="U" horiz-adv-x="670" 
d="M595 711q0 9 -32 9h-7q-29 0 -29 -9v-436q0 -65 -13 -108.5t-39 -69.5q-48 -49 -139 -49q-45 0 -80.5 12t-59.5 37q-26 26 -39 69.5t-13 108.5v436q0 9 -32 9h-8q-29 0 -29 -9v-445q0 -77 17 -128t52 -84q67 -64 192 -64q61 0 109 16.5t81 48.5q35 33 52 84t17 128v444z
" />
    <glyph glyph-name="V" unicode="V" horiz-adv-x="594" 
d="M574 709q2 5 -3 8t-25 3h-7q-19 0 -24 -2t-7 -8l-202 -643l-212 642q-2 6 -9 8.5t-25 2.5h-11q-21 0 -26 -2.5t-3 -10.5l234 -693q3 -9 12.5 -11.5t32.5 -2.5h5q23 0 32.5 2.5t12.5 11.5z" />
    <glyph glyph-name="W" unicode="W" horiz-adv-x="956" 
d="M928 709q2 5 -3 8t-25 3h-7q-19 0 -24 -2t-7 -8l-170 -644l-175 644q-2 5 -7 7.5t-22 2.5h-8q-17 0 -22 -2.5t-7 -7.5l-173 -643l-174 642q-2 6 -9 8.5t-25 2.5h-11q-21 0 -26 -2.5t-3 -10.5l198 -693q3 -9 12.5 -11.5t32.5 -2.5h5q23 0 33 2.5t12 11.5l158 577l158 -577
q2 -9 12.5 -11.5t33.5 -2.5h5q23 0 33 2.5t12 11.5z" />
    <glyph glyph-name="X" unicode="X" horiz-adv-x="550" 
d="M455 9q5 -9 34 -9h12q21 0 26.5 3.5t1.5 10.5l-216 366l195 325q5 8 0 11.5t-25 3.5h-5q-20 0 -27.5 -2t-11.5 -8l-157 -275l-161 276q-5 9 -34 9h-12q-21 0 -26.5 -3.5t-1.5 -10.5l193 -328l-217 -363q-5 -8 0 -11.5t25 -3.5h5q20 0 27.5 2t11.5 8l179 313z" />
    <glyph glyph-name="Y" unicode="Y" horiz-adv-x="523" 
d="M254 0h8q32 0 32 9v269l214 430q3 6 -2 9t-22 3h-9q-19 0 -25 -1.5t-9 -7.5l-175 -371l-177 369q-3 6 -10 8.5t-28 2.5h-8q-22 0 -26.5 -3.5t-2.5 -8.5l211 -430v-269q0 -9 29 -9z" />
    <glyph glyph-name="Z" unicode="Z" horiz-adv-x="538" 
d="M474 642q10 17 14 27t4 26v15q0 6 -4 8t-18 2h-399q-9 0 -9 -26v-4q0 -15 2 -21t7 -6h341l-351 -580q-10 -17 -14 -27t-4 -26v-20q0 -6 4 -8t18 -2h426q9 0 9 26v4q0 15 -2 21t-7 6h-369z" />
    <glyph glyph-name="a" unicode="a" horiz-adv-x="563" 
d="M484 369v61.5t1 53.5q0 8 0.5 16.5t0.5 15.5q0 8 -3 10t-19 2h-7q-16 0 -21.5 -2t-6.5 -8l-5 -53q-23 33 -59.5 53t-88.5 20q-50 0 -92 -20t-72.5 -57t-47.5 -89.5t-17 -116.5q0 -54 13 -102.5t40 -84.5t68.5 -57t98.5 -21q53 0 95.5 21t65.5 60l8 -62q1 -5 5.5 -7
t21.5 -2h3q15 0 20 1.5t5 6.5q-4 53 -5.5 101.5t-1.5 113.5v146zM419 246q0 -35 -1.5 -59.5t-6 -42t-11.5 -30t-17 -24.5q-37 -41 -110 -41q-45 0 -75 18t-48 48t-25.5 68t-7.5 77q0 100 43.5 159t119.5 59q48 0 81 -22t58 -60v-150z" />
    <glyph glyph-name="b" unicode="b" horiz-adv-x="557" 
d="M76 35q0 -7 2.5 -10.5t10.5 -6.5q32 -12 73 -20t94 -8q61 0 108 20t79.5 57.5t49.5 91t17 119.5q0 49 -11.5 95.5t-37 83t-66.5 59t-100 22.5q-97 0 -154 -71v284q0 9 -29 9h-8q-12 0 -20 -2t-8 -7v-716zM141 206q0 46 0.5 83.5t2.5 59.5q2 32 11 51t22 33q40 45 114 45
q75 0 112 -53t37 -154q0 -104 -45.5 -163.5t-141.5 -59.5q-30 0 -59.5 5t-52.5 13v140z" />
    <glyph glyph-name="c" unicode="c" horiz-adv-x="483" 
d="M446 493q-68 45 -156 45q-52 0 -96.5 -18.5t-77 -54t-51 -88t-18.5 -121.5q0 -56 14 -104.5t42.5 -84.5t72 -56.5t101.5 -20.5q46 0 87.5 9.5t73.5 27.5q5 3 5.5 7.5t-4.5 16.5l-4 11q-5 14 -9 17.5t-11 -0.5q-29 -16 -62 -23t-69 -7q-46 0 -78 17.5t-51.5 46.5t-28.5 68
t-9 81q0 104 49 159.5t129 55.5q64 0 122 -35q7 -4 11.5 -1.5t11.5 16.5l4 8q7 14 7 19t-5 9z" />
    <glyph glyph-name="d" unicode="d" horiz-adv-x="581" 
d="M527 50q-12 0 -20 2t-13 8.5t-7 19.5t-2 35v636q0 9 -29 9h-8q-12 0 -20 -2t-8 -7v-255q-26 20 -61.5 31t-71.5 11q-60 0 -105 -23.5t-75 -63t-45 -91t-15 -107.5q0 -125 57.5 -194t164.5 -69q112 0 157 74q6 -66 68 -66q10 0 19.5 1t14.5 3t5.5 5.5t0.5 17.5v4
q0 15 -1 18t-6 3zM420 244q0 -35 -1 -59t-4.5 -42t-10 -30.5t-16.5 -22.5q-19 -20 -48 -30.5t-63 -10.5q-73 0 -116.5 52t-43.5 155q0 50 12.5 91t35.5 70t55.5 44.5t72.5 15.5q38 0 69 -12t58 -35v-186z" />
    <glyph glyph-name="e" unicode="e" horiz-adv-x="541" 
d="M482 243q8 0 11 4t3 21q0 45 -8.5 86t-25.5 76q-25 50 -69 79t-109 29q-56 0 -100 -22t-74.5 -60t-46.5 -90.5t-16 -113.5q0 -122 62.5 -192t179.5 -70q98 0 173 39q9 5 1 26l-4 10q-6 15 -10 17.5t-12 -1.5q-29 -14 -64 -22t-73 -8q-39 0 -71 10t-55 30q-53 45 -57 152
h365zM118 295q5 49 19.5 84t36 56.5t49.5 31.5t60 10q38 0 65 -15.5t45 -41t26.5 -58.5t9.5 -67h-311z" />
    <glyph glyph-name="f" unicode="f" horiz-adv-x="330" 
d="M299 472q5 0 7 5t2 19v7q0 15 -2 20t-7 5h-123v39q0 38 5 67t18 49t35 30.5t57 10.5q20 0 38 -3.5t34 -8.5q7 -2 10 2.5t7 17.5l2 7q6 22 -3 26q-43 17 -91 17q-95 0 -136 -56.5t-41 -156.5v-41h-70q-5 0 -7 -5t-2 -20v-7q0 -14 2 -19t7 -5h70v-462q0 -5 6 -7.5t23 -2.5
h8q16 0 22 2.5t6 7.5v462h123z" />
    <glyph glyph-name="g" unicode="g" horiz-adv-x="561" 
d="M484 519q0 5 -4.5 7t-24.5 2h-4q-17 0 -22.5 -2t-5.5 -7l-1 -48q-26 37 -63 52t-82 15q-50 0 -92 -19.5t-72.5 -55.5t-48 -88t-17.5 -117q0 -55 13.5 -102.5t39.5 -82t65.5 -54t92.5 -19.5q102 0 165 66q0 -35 -1.5 -69t-4.5 -54q-13 -66 -56 -97t-112 -31q-36 0 -64.5 5
t-54.5 16q-8 3 -11 -0.5t-9 -20.5l-2 -6q-5 -16 -4 -21t6 -7q25 -11 63 -18.5t76 -7.5q82 0 139 36t80 108q11 37 15.5 82.5t4.5 111.5v174q0 34 -0.5 70t-1 70t-1 63t-1.5 49zM423 132q-27 -32 -65.5 -52t-82.5 -20q-80 0 -119 52t-39 150q0 97 42.5 155t126.5 58
q46 0 76 -18t44 -45q11 -20 14 -47t3 -81v-152z" />
    <glyph glyph-name="h" unicode="h" horiz-adv-x="580" 
d="M143 751q0 9 -29 9h-8q-12 0 -20 -2t-8 -7v-740q0 -5 5.5 -8t23.5 -3h8q16 0 22 3t6 8v197q0 46 0.5 84.5t2.5 60.5q2 20 10 39t20 33q23 24 52.5 36.5t71.5 12.5q37 0 65.5 -9t45.5 -29q10 -12 16.5 -27t10 -34.5t4.5 -44t1 -57.5v-262q0 -5 5.5 -8t23.5 -3h8
q17 0 22.5 3t5.5 8v307q0 61 -11.5 101.5t-37.5 66.5q-50 52 -143 52q-59 0 -102 -21t-71 -60v294z" />
    <glyph glyph-name="i" unicode="i" horiz-adv-x="221" 
d="M59 710q0 -23 15.5 -38t36.5 -15t36.5 15t15.5 38t-15.5 38.5t-36.5 15.5t-36.5 -15.5t-15.5 -38.5zM78 10q0 -5 5.5 -7.5t23.5 -2.5h8q17 0 22.5 2.5t5.5 7.5v509q0 5 -6 7t-23 2h-8q-16 0 -22 -2t-6 -7v-509z" />
    <glyph glyph-name="j" unicode="j" horiz-adv-x="246" 
d="M83 710q0 -23 15.5 -38t36.5 -15t36.5 15t15.5 38t-15.5 38.5t-36.5 15.5t-36.5 -15.5t-15.5 -38.5zM167 519q0 5 -6 7t-23 2h-8q-28 0 -28 -9v-530q0 -97 -26.5 -138t-93.5 -41q-15 0 -27 2t-23 5q-5 2 -7 -2.5t-4 -18.5l-1 -6q-2 -14 -1 -18t4 -6q11 -5 29 -8t36 -3
q87 0 133 54t46 182v528z" />
    <glyph glyph-name="k" unicode="k" horiz-adv-x="478" 
d="M115 0q12 0 20 2t8 7v210l73 63l166 -271q2 -3 4 -5.5t6 -3.5t11 -1.5t20 -0.5h4q18 0 25.5 2.5t1.5 11.5l-190 309q28 26 53.5 53t47.5 52.5t39.5 48t29.5 40.5q5 7 -0.5 9t-25.5 2h-5q-18 0 -25 -2.5t-11 -7.5q-35 -48 -78 -94.5t-88 -84.5l-58 -50v462q0 9 -29 9h-8
q-12 0 -20 -2t-8 -7v-742q0 -9 29 -9h8z" />
    <glyph glyph-name="l" unicode="l" horiz-adv-x="245" 
d="M136 460v82t-0.5 81.5t-1.5 72.5t-2 55q0 5 -6 7t-23 2h-8q-16 0 -22 -2t-6 -7q1 -30 2 -59t1.5 -61t0.5 -68v-80v-351q0 -42 3.5 -66.5t11.5 -37.5q12 -17 29.5 -22.5t36.5 -5.5q9 0 20 1.5t21 4.5q8 2 9.5 6.5t-0.5 15.5l-1 7q-2 13 -3.5 16t-5.5 2q-5 -1 -9.5 -1.5
t-10.5 -0.5q-23 0 -29.5 14t-6.5 47v348z" />
    <glyph glyph-name="m" unicode="m" horiz-adv-x="924" 
d="M111 528h-8q-15 0 -20.5 -1.5t-5.5 -7.5q2 -29 2 -63v-69v-378q0 -9 29 -9h8q12 0 20 2t8 7v199q0 46 0.5 84.5t2.5 60.5q5 42 23 66q22 29 54.5 42t70.5 13q74 0 106 -38q10 -12 16.5 -27t10 -34.5t4.5 -44t1 -57.5v-264q0 -9 29 -9h8q12 0 20 2t8 7v272q0 46 3 72
q5 42 23 66q22 29 53.5 42t71.5 13q74 0 106 -38q10 -12 16.5 -27t10 -34.5t4.5 -44t1 -57.5v-264q0 -9 29 -9h8q12 0 20 2t8 7v309q0 61 -11.5 101.5t-37.5 66.5q-25 26 -61.5 39t-81.5 13q-59 0 -104.5 -23t-77.5 -74q-5 14 -12.5 24.5t-16.5 20.5q-50 52 -137 52
q-56 0 -98.5 -19.5t-70.5 -60.5l-3 61q0 6 -6.5 7.5t-22.5 1.5z" />
    <glyph glyph-name="n" unicode="n" horiz-adv-x="581" 
d="M138 519q0 5 -6 7t-21 2h-7q-27 0 -27 -9q2 -34 2 -67.5v-64.5v-376q0 -5 5.5 -8t23.5 -3h8q16 0 22 3t6 8v197q0 46 0.5 84.5t2.5 60.5q2 20 10 39t20 33q23 24 52.5 36.5t71.5 12.5q37 0 65.5 -9t45.5 -29q10 -12 16.5 -27t10 -34.5t4.5 -44t1 -57.5v-262q0 -5 5.5 -8
t23.5 -3h8q17 0 22.5 3t5.5 8v307q0 61 -11.5 101.5t-37.5 66.5q-50 52 -143 52q-60 0 -103.5 -21.5t-72.5 -61.5z" />
    <glyph glyph-name="o" unicode="o" horiz-adv-x="566" 
d="M117 259q0 59 14 101t38 68.5t55 38.5t65 12q47 0 78 -18.5t49 -48.5t25.5 -67.5t7.5 -75.5q0 -60 -14 -101.5t-38 -68t-55.5 -38.5t-65.5 -12q-47 0 -77.5 18.5t-48.5 48.5t-25.5 67.5t-7.5 75.5zM273 -10q56 0 101.5 18t77.5 54t49.5 89.5t17.5 124.5q0 72 -21 126
t-58 87q-29 26 -65.5 37.5t-81.5 11.5q-56 0 -101.5 -18t-77.5 -54t-49.5 -89.5t-17.5 -124.5q0 -72 21 -126t58 -87q29 -26 65.5 -37.5t81.5 -11.5z" />
    <glyph glyph-name="p" unicode="p" horiz-adv-x="560" 
d="M112 528h-8q-16 0 -21.5 -2t-5.5 -7v-743q0 -5 6 -7t22 -2h8q29 0 29 9v262q26 -23 59 -35.5t77 -12.5q57 0 101 23.5t73.5 63t45 91t15.5 107.5q0 130 -58 196.5t-157 66.5q-50 0 -90 -17t-67 -52l-3 50q0 9 -26 9zM142 265q0 43 2.5 71.5t6.5 47t10 29.5t13 20
q17 21 45 33t70 12q35 0 63.5 -11.5t48.5 -36.5t31 -64t11 -94q0 -50 -11 -91.5t-32 -70.5t-52 -45t-70 -16q-42 0 -77.5 15t-58.5 38v163z" />
    <glyph glyph-name="q" unicode="q" horiz-adv-x="560" 
d="M483 490q0 9 -3.5 13t-10.5 6q-33 13 -72 21t-84 8q-61 0 -110.5 -20t-84 -57.5t-53 -91t-18.5 -119.5q0 -56 13 -103.5t39 -82.5t65.5 -54.5t92.5 -19.5q56 0 97 22.5t64 64.5q0 -44 0.5 -88.5t1.5 -84.5t2 -73.5t2 -55.5q0 -5 6 -6.5t23 -1.5h6q17 0 23.5 1.5t6.5 6.5
q-2 24 -3 56t-1.5 68.5t-1 76.5t-0.5 79v435zM418 302q0 -49 -2 -83t-7.5 -58t-13.5 -39.5t-20 -27.5q-21 -21 -48 -33t-59 -12q-75 0 -113 52.5t-38 155.5q0 50 13 91.5t37.5 71t61 45.5t84.5 16q27 0 54 -5.5t51 -15.5v-158z" />
    <glyph glyph-name="r" unicode="r" horiz-adv-x="347" 
d="M139 521q0 3 -4.5 5t-24.5 2h-5q-19 0 -23.5 -2t-4.5 -5q1 -42 1.5 -82.5t0.5 -81.5v-348q0 -5 5.5 -7t23.5 -2h6q18 0 24 2t6 7v112q0 46 0.5 89.5t2.5 65.5q2 38 13.5 72.5t33.5 62.5q21 26 51.5 43t71.5 17q7 0 8.5 8t1.5 23v8q0 12 -1.5 16t-5.5 5q-11 3 -30 3
q-45 0 -85.5 -33t-62.5 -96z" />
    <glyph glyph-name="s" unicode="s" horiz-adv-x="449" 
d="M382 460q8 11 9 16.5t-4 9.5q-31 24 -72 38t-86 14q-39 0 -71 -10t-55.5 -29t-36.5 -47t-13 -64q0 -60 41 -96q19 -17 49.5 -29t67.5 -21q32 -8 56.5 -16t41.5 -19t25.5 -26.5t8.5 -38.5q0 -52 -35.5 -75t-95.5 -23q-34 0 -69.5 12t-63.5 29q-6 4 -10.5 1.5t-12.5 -18.5
l-3 -6q-7 -13 -7.5 -17.5t4.5 -7.5q29 -19 70 -33t94 -14q84 0 136.5 41t52.5 119q0 37 -12.5 61.5t-35 41t-52.5 27.5t-66 20q-26 7 -47.5 13.5t-38 16.5t-25.5 25.5t-9 40.5q0 42 29.5 64t80.5 22q38 0 68.5 -10t59.5 -30q5 -4 10 -2t13 14z" />
    <glyph glyph-name="t" unicode="t" horiz-adv-x="365" 
d="M309 478q5 0 6 4.5t1 18.5v3q0 14 -1 19t-6 5h-141v149q0 3 -4.5 4.5t-24.5 1.5h-7q-21 0 -25 -1t-4 -5v-149h-69q-5 0 -6 -5t-1 -19v-3q0 -14 1 -18.5t5 -4.5h70v-328q0 -50 7.5 -79.5t27.5 -49.5q16 -14 39.5 -22.5t54.5 -8.5q26 0 53.5 4.5t51.5 14.5q4 2 5 6t-3 18
l-2 7q-4 14 -5.5 17t-8.5 1q-17 -6 -36.5 -9t-39.5 -3q-21 0 -35.5 4.5t-25.5 15.5q-12 12 -15 33.5t-3 57.5v321h141v0z" />
    <glyph glyph-name="u" unicode="u" horiz-adv-x="578" 
d="M442 10q1 -7 5 -8.5t21 -1.5h8q15 0 20 2t4 10q-2 42 -2.5 81t-0.5 78v347q0 5 -5.5 7.5t-23.5 2.5h-8q-18 0 -23 -2.5t-5 -7.5v-249q0 -40 -3 -68.5t-8 -48.5t-13.5 -34t-18.5 -24q-20 -20 -48 -31t-66 -11q-77 0 -111 40q-20 23 -24 60t-4 102v264q0 5 -5.5 7.5
t-23.5 2.5h-8q-18 0 -23 -2.5t-5 -7.5v-308q0 -62 10.5 -102.5t36.5 -66.5q23 -26 62 -38.5t86 -12.5q60 0 103 23t68 66z" />
    <glyph glyph-name="v" unicode="v" horiz-adv-x="493" 
d="M90 517q-2 7 -8.5 9t-24.5 2h-12q-19 0 -23.5 -3t-2.5 -10l181 -498q4 -10 11 -13.5t31 -3.5h8q25 0 33 3t12 12q21 50 43.5 109t44.5 123.5t43 132t39 135.5q4 13 -29 13h-9q-15 0 -20.5 -2t-7.5 -9q-28 -115 -64 -228t-84 -236z" />
    <glyph glyph-name="w" unicode="w" horiz-adv-x="788" 
d="M96 516q-2 8 -7.5 10t-25.5 2h-8q-20 0 -25.5 -2.5t-3.5 -10.5l151 -498q3 -9 12 -13t30 -4h8q23 0 32 4.5t12 15.5l64 231q15 55 27 104.5t26 113.5q16 -63 30 -114.5t28 -102.5l66 -235q2 -8 10.5 -12.5t31.5 -4.5h8q23 0 30.5 5t12.5 16q22 59 41 113t36 112t33.5 124
t35.5 149q2 5 -4 7t-23 2h-5q-20 0 -24 -2t-6 -10q-12 -62 -25 -118t-28.5 -111.5t-33.5 -112.5t-40 -121l-132 465q-2 6 -8 8t-30 2h-9q-22 0 -28.5 -2t-8.5 -9l-120 -464z" />
    <glyph glyph-name="x" unicode="x" horiz-adv-x="496" 
d="M137 519q-3 5 -9.5 7t-29.5 2h-6q-25 0 -30.5 -3.5t-1.5 -9.5l152 -240l-172 -264q-3 -5 2.5 -8t26.5 -3h5q18 0 26 1.5t11 6.5l137 218l136 -213q5 -8 12 -10.5t30 -2.5h9q16 0 23.5 3.5t2.5 11.5l-173 267l150 233q5 7 -1.5 10t-27.5 3h-7q-20 0 -26 -1.5t-10 -7.5
l-114 -190z" />
    <glyph glyph-name="y" unicode="y" horiz-adv-x="509" 
d="M104 518q-2 6 -9.5 8t-26.5 2h-8q-22 0 -27 -3t-3 -9l206 -530q-16 -47 -33 -79.5t-37.5 -53.5t-45 -30.5t-55.5 -9.5q-15 0 -28 2.5t-25 6.5q-5 2 -7.5 -2.5t-7.5 -17.5l-3 -9q-4 -12 -4 -17t5 -7q15 -7 36 -10t38 -3q42 0 79 14t66 46q23 25 44.5 66t42.5 97l192 539
q2 6 -6 8t-23 2h-5q-18 0 -23.5 -2t-7.5 -8l-92 -261q-17 -47 -32 -93t-35 -107q-20 61 -36.5 110t-34.5 97z" />
    <glyph glyph-name="z" unicode="z" horiz-adv-x="455" 
d="M123 56l271 415q5 7 6 12.5t1 18.5v4q0 15 -1.5 18.5t-7.5 3.5h-330q-5 0 -6.5 -4.5t-1.5 -22.5v-3q0 -17 1.5 -21.5t6.5 -4.5h258l-272 -418q-4 -5 -5 -10.5t-1 -16.5v-5q0 -14 2 -18t7 -4h356q5 0 6.5 4.5t1.5 21.5v3q0 18 -1.5 22.5t-6.5 4.5h-284z" />
    <glyph glyph-name="ampersand" unicode="&#x26;" horiz-adv-x="701" 
d="M443 652q7 -2 9.5 0.5t6.5 14.5l3 10q4 14 4 18.5t-5 6.5q-27 13 -61 20t-67 7q-43 0 -79 -13.5t-62.5 -38t-41 -59t-14.5 -76.5q0 -39 12 -73t38 -71q-64 -33 -99 -86t-35 -121q0 -42 15.5 -79t45 -64t71.5 -42.5t96 -15.5q69 0 124.5 27t98.5 75l109 -99q6 -5 11 -3.5
t15 12.5l10 11q9 11 10.5 15.5t-3.5 9.5l-114 103q35 53 57 117t32 135q0 5 -4 7t-21 2h-3q-16 0 -20.5 -2t-5.5 -7q-21 -127 -76 -214l-131 120q-44 40 -75 72t-51 60t-29.5 55t-9.5 58q0 32 10 56.5t27.5 40.5t40.5 24t50 8t55 -5.5t56 -15.5zM286 46q-36 0 -66 10.5
t-51.5 30t-34 47.5t-12.5 63q0 52 25.5 93.5t70.5 67.5q18 -20 40 -41.5t50 -46.5l155 -141q-36 -40 -80.5 -61.5t-96.5 -21.5z" />
    <glyph glyph-name="at" unicode="@" horiz-adv-x="822" 
d="M437 538q-48 0 -85 -20.5t-63 -53t-39.5 -73.5t-13.5 -82q0 -64 33.5 -105t99.5 -41q38 0 72 21t53 56q6 -32 34 -54.5t73 -22.5q38 0 72.5 16.5t60.5 48.5t41.5 80t15.5 111q0 73 -26.5 130.5t-72.5 97.5t-108.5 61.5t-135.5 21.5q-83 0 -157 -28t-130.5 -80t-89.5 -126
t-33 -166q0 -81 26.5 -144t73.5 -106.5t111 -66.5t139 -23q51 0 99.5 8.5t86.5 21.5q8 2 5 16l-4 14q-2 10 -4.5 13t-8.5 1q-39 -11 -80.5 -17.5t-81.5 -6.5q-69 0 -124 19t-94 55.5t-59.5 90.5t-20.5 125q0 73 25.5 136.5t71 110t108.5 73t139 26.5q63 0 115 -17.5
t89.5 -51t58.5 -82t21 -110.5q0 -48 -9.5 -86t-26 -64.5t-39 -40t-47.5 -13.5q-59 0 -59 64q0 11 1.5 21.5t3.5 22.5l43 204q1 8 -21 8h-10q-17 0 -22 -1t-7 -6l-7 -23q-18 17 -41 27t-52 10zM497 345q-14 -69 -48 -103q-31 -31 -71 -31q-42 0 -59.5 28.5t-17.5 69.5
q0 36 9.5 69t27 58.5t42.5 41t56 15.5q27 0 47.5 -10.5t35.5 -27.5z" />
    <glyph glyph-name="exclam" unicode="!" horiz-adv-x="307" 
d="M144 720q-24 0 -30.5 -3t-6.5 -9l19 -504q0 -4 4 -5.5t17 -1.5h10q13 0 17 1.5t4 5.5l17 504q0 6 -6.5 9t-30.5 3h-14zM152 97q-21 0 -36 -15.5t-15 -38.5t15 -38t36 -15q23 0 38 15t15 38t-15 38.5t-38 15.5z" />
    <glyph glyph-name="exclamdown" unicode="&#xa1;" horiz-adv-x="307" 
d="M144 -191.988q-24 0 -30.5 3t-6.5 8.99902l19 503.97q0 4 4 5.49902q4 1.5 17 1.5h10q13 0 17 -1.5q4 -1.49902 4 -5.49902l17 -503.97q0 -5.99902 -6.5 -8.99902t-30.5 -3h-14zM152 430.974q-21 0 -36 15.499t-15 38.498q0 22.998 15 37.9971t36 14.999q23 0 38 -14.999
t15 -37.9971q0 -22.999 -15 -38.498t-38 -15.499z" />
    <glyph glyph-name="question" unicode="?" horiz-adv-x="419" 
d="M167 195q17 0 23 1.5t6 6.5v60q0 24 6 41t18 31.5t31 28.5t45 31q19 13 37.5 27t33 32.5t23.5 42.5t9 56q0 38 -13 69t-37 54q-26 26 -63.5 39.5t-88.5 13.5q-22 0 -45 -3.5t-44.5 -9t-39.5 -13t-30 -14.5q-6 -5 -6 -9.5t6 -16.5l5 -10q5 -11 9 -14.5t10 -0.5
q31 14 64 23t68 9q68 0 103 -37q14 -15 21.5 -35t7.5 -45q0 -19 -4.5 -34t-14 -28.5t-25.5 -26.5t-38 -28q-32 -21 -54 -39t-36 -36.5t-20 -40.5t-6 -51v-66q0 -5 6 -6.5t23 -1.5h10zM111 42q0 -23 15 -38t37 -15q23 0 38.5 15t15.5 38t-15.5 38.5t-38.5 15.5
q-22 0 -37 -15.5t-15 -38.5z" />
    <glyph glyph-name="questiondown" unicode="&#xbf;" horiz-adv-x="419" 
d="M251.984 331.979q-16.999 0 -22.998 -1.5q-6 -1.5 -6 -6.49902v-59.9961q0 -23.999 -6 -40.998q-5.99902 -16.999 -17.998 -31.498q-12 -14.499 -30.998 -28.498q-18.999 -13.999 -44.998 -30.998q-18.998 -12.999 -37.4971 -26.999q-18.499 -13.999 -32.998 -32.498
q-14.499 -18.498 -23.499 -42.4971q-8.99902 -23.998 -8.99902 -55.9961q0 -37.998 12.999 -68.9961t36.998 -53.9971q25.998 -25.998 63.4961 -39.4971q37.4971 -13.499 88.4941 -13.499q21.999 0 44.9971 3.49902q22.999 3.5 44.498 9q21.498 5.5 39.4971 12.999
q17.999 7.5 29.998 14.499q6 5 6 9.5q0 4.49902 -6 16.498l-5 10q-4.99902 10.999 -8.99902 14.499t-9.99902 0.5q-30.998 -13.999 -63.9961 -22.999q-32.998 -8.99902 -67.9961 -8.99902q-67.9961 0 -102.994 36.998q-13.999 14.999 -21.498 34.9971
q-7.5 19.999 -7.5 44.998q0 18.998 4.5 33.998q4.5 14.999 13.999 28.498t25.498 26.498t37.998 27.998q31.998 20.999 53.9971 38.998q21.998 17.999 35.9971 36.498q14 18.498 19.999 40.4971q6 21.999 6 50.9971v65.9961q0 4.99902 -6 6.49902q-5.99902 1.5 -22.998 1.5
h-10zM307.981 484.971q0 22.998 -14.999 37.9971t-36.998 14.999q-22.999 0 -38.498 -14.999t-15.499 -37.9971q0 -22.999 15.499 -38.498t38.498 -15.499q21.999 0 36.998 15.499t14.999 38.498z" />
    <glyph glyph-name="asterisk" unicode="*" horiz-adv-x="401" 
d="M177 564l-77 -109q-3 -4 -2 -7t15 -11l9 -5q13 -8 16.5 -7.5t5.5 4.5l56 117l54 -117q2 -4 5.5 -4.5t15.5 7.5l9 5q14 8 15 11t-1 7l-74 109l127 23q11 3 4 22l-4 11q-4 10 -7 14t-9 2l-120 -47l11 132q0 5 -3 7t-18 2h-10q-14 0 -17.5 -2t-3.5 -7l12 -132l-120 47
q-7 2 -10 -2t-7 -14l-4 -11q-7 -19 4 -22z" />
    <glyph glyph-name="period" unicode="." horiz-adv-x="241" 
d="M120 106q-23 0 -39.5 -16.5t-16.5 -41.5q0 -26 16.5 -42t39.5 -16t40 16t17 42q0 25 -17 41.5t-40 16.5z" />
    <glyph glyph-name="comma" unicode="," horiz-adv-x="241" 
d="M46 -170q6 -7 9.5 -7.5t7.5 2.5q49 39 78.5 96t29.5 116q0 29 -16.5 49t-45.5 20q-21 0 -36.5 -13t-15.5 -35q0 -16 7 -26t16 -20t16 -21t7 -28q0 -14 -6 -29t-15 -30t-20 -28.5t-22 -24.5q-6 -6 2 -16z" />
    <glyph glyph-name="colon" unicode=":" horiz-adv-x="240" 
d="M64 48q0 -26 16.5 -42t39.5 -16t39.5 16t16.5 42q0 24 -16.5 40.5t-39.5 16.5t-39.5 -16.5t-16.5 -40.5zM64 438q0 -25 16.5 -41.5t39.5 -16.5t39.5 16.5t16.5 41.5q0 24 -16.5 41t-39.5 17t-39.5 -17t-16.5 -41z" />
    <glyph glyph-name="semicolon" unicode=";" horiz-adv-x="240" 
d="M64 438q0 -25 16.5 -41.5t39.5 -16.5t39.5 16.5t16.5 41.5q0 24 -16.5 41t-39.5 17t-39.5 -17t-16.5 -41zM53 -170q6 -7 9.5 -7.5t7.5 2.5q49 39 78.5 96t29.5 116q0 29 -16.5 49t-45.5 20q-21 0 -36.5 -13t-15.5 -35q0 -16 7 -26t16 -20t16 -21t7 -28q0 -14 -6 -29
t-15 -30t-20 -28.5t-22 -24.5q-6 -6 2 -16z" />
    <glyph glyph-name="ellipsis" unicode="&#x2026;" horiz-adv-x="723" 
d="M120 106q-23 0 -39.5 -16.5t-16.5 -41.5q0 -26 16.5 -42t39.5 -16t40 16t17 42q0 25 -17 41.5t-40 16.5zM361 106q-23 0 -39.5 -16.5t-16.5 -41.5q0 -26 16.5 -42t39.5 -16t40 16t17 42q0 25 -17 41.5t-40 16.5zM602 106q-23 0 -39.5 -16.5t-16.5 -41.5q0 -26 16.5 -42
t39.5 -16t40 16t17 42q0 25 -17 41.5t-40 16.5z" />
    <glyph glyph-name="periodcentered" unicode="&#xb7;" horiz-adv-x="241" 
d="M120 410q-23 0 -39.5 -16.5t-16.5 -41.5q0 -26 16.5 -42t39.5 -16t40 16t17 42q0 25 -17 41.5t-40 16.5z" />
    <glyph glyph-name="bullet" unicode="&#x2022;" horiz-adv-x="339" 
d="M54 353q0 -24 9 -45t24.5 -36.5t36.5 -24.5t45 -9t45 9t37 24.5t25 36.5t9 45t-9 45t-25 37t-37 25t-45 9t-45 -9t-36.5 -25t-24.5 -37t-9 -45z" />
    <glyph glyph-name="slash" unicode="/" horiz-adv-x="334" 
d="M25 -4q-2 -8 3 -10.5t25 -2.5h4q20 0 25 3t7 8l220 731q2 8 -3 10.5t-25 2.5h-4q-20 0 -25 -3t-7 -8z" />
    <glyph glyph-name="parenleft" unicode="(" horiz-adv-x="330" 
d="M92 312q0 -77 12.5 -143.5t32.5 -122.5t46 -101.5t52 -79.5q3 -4 7.5 -3.5t14.5 6.5l11 7q11 7 12.5 10.5t-1.5 8.5q-54 81 -88 185t-34 233t34 233t88 185q3 5 1.5 8.5t-12.5 10.5l-11 7q-10 6 -14.5 6.5t-7.5 -3.5q-26 -35 -52 -80t-46 -101t-32.5 -122.5t-12.5 -143.5
z" />
    <glyph glyph-name="brokenbar" unicode="&#xa6;" horiz-adv-x="276" 
d="M168 757q0 5 -5 7.5t-22 2.5h-8q-16 0 -21 -2.5t-5 -7.5v-382q0 -5 5 -7.5t21 -2.5h8q17 0 22 2.5t5 7.5v382zM168 170q0 5 -5 7.5t-22 2.5h-8q-16 0 -21 -2.5t-5 -7.5v-382q0 -5 5 -7.5t21 -2.5h8q17 0 22 2.5t5 7.5v382z" />
    <glyph glyph-name="parenright" unicode=")" horiz-adv-x="330" 
d="M238 312q0 77 -12.5 143.5t-33 122.5t-46 101t-51.5 80q-3 4 -7.5 3.5t-14.5 -6.5l-11 -7q-11 -7 -12.5 -10.5t1.5 -8.5q54 -81 88 -185t34 -233t-34 -233t-88 -185q-3 -5 -1.5 -8.5t12.5 -10.5l11 -7q10 -6 14.5 -6.5t7.5 3.5q26 34 51.5 79.5t46 101.5t33 122.5
t12.5 143.5z" />
    <glyph glyph-name="bracketleft" unicode="[" horiz-adv-x="330" 
d="M296 -132q5 0 7 3.5t2 17.5v9q0 15 -2 18.5t-7 3.5h-124v781h124q5 0 7 3.5t2 17.5v9q0 15 -2 18.5t-7 3.5h-188v-885h188z" />
    <glyph glyph-name="backslash" unicode="\" horiz-adv-x="334" 
d="M89 727q-2 5 -7 8t-25 3h-4q-20 0 -25 -2.5t-3 -10.5l220 -731q2 -5 7 -8t25 -3h4q20 0 25 2.5t3 10.5z" />
    <glyph glyph-name="bracketright" unicode="]" horiz-adv-x="330" 
d="M222 -132v885h-188q-5 0 -7 -3.5t-2 -18.5v-9q0 -14 2 -17.5t7 -3.5h124v-781h-124q-5 0 -7 -3.5t-2 -18.5v-9q0 -14 2 -17.5t7 -3.5h188z" />
    <glyph glyph-name="braceleft" unicode="{" horiz-adv-x="330" 
d="M198 167q0 61 -17.5 93t-58.5 51q41 19 58.5 51t17.5 93v142q0 59 23 81.5t71 22.5h14q5 0 7 3.5t2 17.5v9q0 15 -2 18.5t-7 3.5h-20q-68 0 -110 -35t-42 -114v-143q0 -65 -18 -91t-55 -31q-5 -1 -7 -4.5t-2 -17.5v-13q0 -14 2 -17.5t7 -4.5q37 -5 55 -31t18 -91v-143
q0 -40 11 -68t31 -46t48 -26.5t62 -8.5h20q5 0 7 3.5t2 18.5v9q0 14 -2 17.5t-7 3.5h-14q-48 0 -71 22.5t-23 81.5v143z" />
    <glyph glyph-name="bar" unicode="|" horiz-adv-x="276" 
d="M168 807q0 5 -5 7.5t-22 2.5h-8q-16 0 -21 -2.5t-5 -7.5v-1070q0 -5 5 -7.5t21 -2.5h8q17 0 22 2.5t5 7.5v1070z" />
    <glyph glyph-name="braceright" unicode="}" horiz-adv-x="330" 
d="M132 24q0 -59 -23 -81.5t-71 -22.5h-14q-5 0 -7 -3.5t-2 -17.5v-9q0 -15 2 -18.5t7 -3.5h20q34 0 62 8.5t48 26.5t31 46t11 68v143q0 65 17.5 91t55.5 31q5 1 7 4.5t2 17.5v13q0 14 -2 17.5t-7 4.5q-38 5 -55.5 31t-17.5 91v143q0 40 -11 68t-31 46t-48 26.5t-62 8.5h-20
q-5 0 -7 -3.5t-2 -18.5v-9q0 -14 2 -17.5t7 -3.5h14q48 0 71 -22.5t23 -81.5v-142q0 -61 17.5 -93t58.5 -51q-41 -19 -58.5 -51t-17.5 -93v-143z" />
    <glyph glyph-name="hyphen" unicode="-" horiz-adv-x="382" 
d="M60 330q-5 0 -6.5 -4.5t-1.5 -18.5v-3q0 -25 8 -25h262q8 0 8 25v3q0 14 -1.5 18.5t-6.5 4.5h-262z" />
    <glyph glyph-name="uni00AD" unicode="&#xad;" horiz-adv-x="382" 
d="M60 330q-5 0 -6.5 -4.5t-1.5 -18.5v-3q0 -25 8 -25h262q8 0 8 25v3q0 14 -1.5 18.5t-6.5 4.5h-262z" />
    <glyph glyph-name="endash" unicode="&#x2013;" horiz-adv-x="500" 
d="M52 308q-5 0 -6.5 -4t-1.5 -17v-3q0 -23 8 -23h396q8 0 8 23v3q0 13 -1.5 17t-6.5 4h-396z" />
    <glyph glyph-name="emdash" unicode="&#x2014;" horiz-adv-x="1000" 
d="M52 308q-5 0 -6.5 -4t-1.5 -17v-3q0 -23 8 -23h896q8 0 8 23v3q0 13 -1.5 17t-6.5 4h-896z" />
    <glyph glyph-name="underscore" unicode="_" horiz-adv-x="504" 
d="M7 -164q-5 0 -6.5 -4t-1.5 -17v-1q0 -23 8 -23h490q8 0 8 23v1q0 13 -1.5 17t-6.5 4h-490z" />
    <glyph glyph-name="dagger" unicode="&#x2020;" horiz-adv-x="473" 
d="M267 412h174q8 0 8 25v3q0 14 -1.5 18.5t-6.5 4.5h-174v248q0 5 -6 7t-23 2h-2q-30 0 -30 -9v-248h-174q-5 0 -6.5 -4.5t-1.5 -18.5v-3q0 -25 8 -25h174v-540q0 -9 30 -9h2q17 0 23 2t6 7v540z" />
    <glyph glyph-name="daggerdbl" unicode="&#x2021;" horiz-adv-x="473" 
d="M267 440h174q8 0 8 25v3q0 14 -1.5 18.5t-6.5 4.5h-174v220q0 5 -6 7t-23 2h-2q-30 0 -30 -9v-220h-174q-5 0 -6.5 -4.5t-1.5 -18.5v-3q0 -25 8 -25h174v-297h-174q-8 0 -8 -25v-3q0 -14 1.5 -18.5t6.5 -4.5h174v-220q0 -9 30 -9h2q17 0 23 2t6 7v220h174q5 0 6.5 4.5
t1.5 18.5v3q0 25 -8 25h-174v297z" />
    <glyph glyph-name="section" unicode="&#xa7;" horiz-adv-x="501" 
d="M397 641q4 -2 7 -0.5t11 14.5l4 7q10 17 4 22q-66 45 -154 45q-43 0 -77 -11t-58 -30.5t-37 -46t-13 -57.5q0 -30 9 -51.5t24 -37.5q-34 -23 -53.5 -58.5t-19.5 -79.5q0 -48 23 -76.5t57.5 -46t74.5 -28.5t74.5 -23.5t57.5 -31t23 -51.5q0 -42 -34 -65.5t-90 -23.5
q-36 0 -67 10t-60 27q-4 2 -7 0.5t-11 -14.5l-4 -7q-10 -17 -4 -22q66 -45 154 -45q43 0 77 11t58 30.5t37 46t13 57.5q0 29 -9 50.5t-25 38.5q34 23 54 58.5t20 79.5q0 48 -23 76.5t-57.5 46t-74.5 28.5t-74.5 23.5t-57.5 31t-23 51.5q0 42 34 65.5t90 23.5q36 0 67 -10
t60 -27zM397 325q0 -61 -52 -104q-35 19 -77 30.5t-78.5 24t-61.5 32.5t-25 56q0 60 51 103q23 -13 50 -21.5t54 -16.5t52 -16t44.5 -19.5t31 -28t11.5 -40.5z" />
    <glyph glyph-name="paragraph" unicode="&#xb6;" horiz-adv-x="617" 
d="M560 664q8 0 8 25v8q0 14 -1.5 18.5t-6.5 4.5h-288q-113 0 -171.5 -56.5t-58.5 -151.5q0 -43 14.5 -78.5t41.5 -62t65.5 -41.5t86.5 -17v-441q0 -5 6 -7t22 -2h6q31 0 31 9v793h118v-793q0 -5 6 -7t22 -2h6q31 0 31 9v792h62z" />
    <glyph glyph-name="registered" unicode="&#xae;" horiz-adv-x="809" 
d="M406 731q-77 0 -143 -28.5t-115 -78.5t-77 -117.5t-28 -145.5t28 -145.5t77 -117.5t115 -79t142 -29q75 0 141 29t114.5 79t76.5 117.5t28 145.5t-27.5 145.5t-76 117.5t-114 78.5t-141.5 28.5zM406 689q66 0 122.5 -25.5t98 -70t65 -104t23.5 -128.5q0 -70 -24 -130
t-66 -104.5t-98.5 -69.5t-122.5 -25t-122.5 25.5t-98 70t-65 104.5t-23.5 129t24 128.5t66 104t99 70t122 25.5zM410 329q21 -43 44 -83.5t44 -66.5q5 -6 10.5 -7.5t20.5 -1.5h7q17 0 20 3.5t1 6.5q-28 38 -49.5 75t-44.5 82q34 10 54 28q17 15 27 35.5t10 47.5
q0 26 -8.5 45t-22.5 33q-21 20 -54.5 29t-75.5 9h-116v-387q0 -7 23 -7h6q25 0 25 7v152h79zM331 521h51q61 0 87 -17q28 -19 28 -56q0 -34 -23 -55q-27 -24 -87 -24h-56v152z" />
    <glyph glyph-name="copyright" unicode="&#xa9;" horiz-adv-x="809" 
d="M521 551q-18 11 -42 17t-49 6q-49 0 -84.5 -17.5t-59 -46.5t-34.5 -67t-11 -79q0 -42 11.5 -78.5t34 -64.5t55.5 -44t76 -16q29 0 56 6.5t47 17.5q3 2 3.5 5.5t-3.5 11.5l-5 11q-4 8 -6 9.5t-6 -0.5q-36 -16 -75 -16q-36 0 -61.5 13t-41.5 34.5t-23 50.5t-7 62
q0 34 7.5 63.5t24 52t42 35.5t60.5 13q34 0 74 -16q7 -3 12 9l5 11q4 8 3.5 11.5t-3.5 5.5zM406 731q-77 0 -143 -28.5t-115 -78.5t-77 -117.5t-28 -145.5t28 -145.5t77 -117.5t115 -79t142 -29q75 0 141 29t114.5 79t76.5 117.5t28 145.5t-27.5 145.5t-76 117.5t-114 78.5
t-141.5 28.5zM406 689q66 0 122.5 -25.5t98 -70t65 -104t23.5 -128.5q0 -70 -24 -130t-66 -104.5t-98.5 -69.5t-122.5 -25t-122.5 25.5t-98 70t-65 104.5t-23.5 129t24 128.5t66 104t99 70t122 25.5z" />
    <glyph glyph-name="trademark" unicode="&#x2122;" horiz-adv-x="891" 
d="M455 730h-12q-17 0 -20.5 -2.5t-4.5 -7.5l-28 -388q0 -3 3.5 -4.5t14.5 -1.5h14q17 0 17 6l20 327l115 -258q2 -3 6 -4.5t17 -1.5h9q19 0 21 6l111 268l22 -337q0 -3 3.5 -4.5t14.5 -1.5h14q17 0 17 6l-26 388q0 5 -4 7.5t-21 2.5h-15q-15 0 -20 -1.5t-7 -6.5l-113 -276
l-121 276q-2 5 -7 6.5t-20 1.5zM36 730q-6 0 -6 -17v-6q0 -11 1.5 -14.5t4.5 -3.5h127v-357q0 -3 3.5 -4.5t14.5 -1.5h16q17 0 17 6v357h127q3 0 4.5 3.5t1.5 14.5v6q0 17 -6 17h-305z" />
    <glyph glyph-name="quotedblleft" unicode="&#x201c;" horiz-adv-x="436" 
d="M380 721q-6 7 -9.5 7.5t-7.5 -2.5q-49 -39 -78.5 -96t-29.5 -116q0 -29 16.5 -49t45.5 -20q21 0 36.5 13t15.5 35q0 16 -7 26t-16 20t-16 21t-7 28q0 13 6 28.5t15 30.5t20 28.5t22 24.5q6 6 -2 16zM175 721q-6 7 -9.5 7.5t-7.5 -2.5q-49 -39 -78.5 -96t-29.5 -116
q0 -29 16.5 -49t45.5 -20q21 0 36.5 13t15.5 35q0 16 -7 26t-16 20t-16 21t-7 28q0 13 6 28.5t15 30.5t20 28.5t22 24.5q6 6 -2 16z" />
    <glyph glyph-name="quotedblright" unicode="&#x201d;" horiz-adv-x="436" 
d="M56 454q6 -7 9.5 -7.5t7.5 2.5q49 39 78.5 96t29.5 116q0 29 -16.5 49t-45.5 20q-21 0 -36.5 -13t-15.5 -35q0 -16 7 -26t16 -20t16 -21t7 -28q0 -14 -6 -29t-15 -30t-20 -28.5t-22 -24.5q-6 -6 2 -16zM261 454q6 -7 9.5 -7.5t7.5 2.5q49 39 78.5 96t29.5 116
q0 29 -16.5 49t-45.5 20q-21 0 -36.5 -13t-15.5 -35q0 -16 7 -26t16 -20t16 -21t7 -28q0 -14 -6 -29t-15 -30t-20 -28.5t-22 -24.5q-6 -6 2 -16z" />
    <glyph glyph-name="quoteleft" unicode="&#x2018;" horiz-adv-x="231" 
d="M175 721q-6 7 -9.5 7.5t-7.5 -2.5q-49 -39 -78.5 -96t-29.5 -116q0 -29 16.5 -49t45.5 -20q21 0 36.5 13t15.5 35q0 16 -7 26t-16 20t-16 21t-7 28q0 13 6 28.5t15 30.5t20 28.5t22 24.5q6 6 -2 16z" />
    <glyph glyph-name="quoteright" unicode="&#x2019;" horiz-adv-x="231" 
d="M56 454q6 -7 9.5 -7.5t7.5 2.5q49 39 78.5 96t29.5 116q0 29 -16.5 49t-45.5 20q-21 0 -36.5 -13t-15.5 -35q0 -16 7 -26t16 -20t16 -21t7 -28q0 -14 -6 -29t-15 -30t-20 -28.5t-22 -24.5q-6 -6 2 -16z" />
    <glyph glyph-name="guillemotleft" unicode="&#xab;" horiz-adv-x="515" 
d="M72 307q0 8 1.5 12t3.5 7l134 194q4 5 8 5t14 -5l7 -4q11 -6 12 -10t-1 -8l-117 -194l117 -193q2 -4 1 -8t-12 -10l-7 -4q-10 -5 -14 -5t-8 5l-134 194q-2 3 -3.5 7t-1.5 12v5zM278 307q0 8 1.5 12t3.5 7l134 194q4 5 8 5t14 -5l7 -4q11 -6 12 -10t-1 -8l-117 -194
l117 -193q2 -4 1 -8t-12 -10l-7 -4q-10 -5 -14 -5t-8 5l-134 194q-2 3 -3.5 7t-1.5 12v5z" />
    <glyph glyph-name="guillemotright" unicode="&#xbb;" horiz-adv-x="515" 
d="M237 302q0 -8 -1.5 -12t-3.5 -7l-134 -194q-4 -5 -8 -5t-14 5l-7 4q-11 6 -12 10t1 8l117 193l-117 194q-2 4 -1 8t12 10l7 4q10 5 14 5t8 -5l134 -194q2 -3 3.5 -7t1.5 -12v-5zM443 302q0 -8 -1.5 -12t-3.5 -7l-134 -194q-4 -5 -8 -5t-14 5l-7 4q-11 6 -12 10t1 8
l117 193l-117 194q-2 4 -1 8t12 10l7 4q10 5 14 5t8 -5l134 -194q2 -3 3.5 -7t1.5 -12v-5z" />
    <glyph glyph-name="guilsinglleft" unicode="&#x2039;" horiz-adv-x="309" 
d="M72 307q0 8 1.5 12t3.5 7l134 194q4 5 8 5t14 -5l7 -4q11 -6 12 -10t-1 -8l-117 -194l117 -193q2 -4 1 -8t-12 -10l-7 -4q-10 -5 -14 -5t-8 5l-134 194q-2 3 -3.5 7t-1.5 12v5z" />
    <glyph glyph-name="guilsinglright" unicode="&#x203a;" horiz-adv-x="309" 
d="M237 302q0 -8 -1.5 -12t-3.5 -7l-134 -194q-4 -5 -8 -5t-14 5l-7 4q-11 6 -12 10t1 8l117 193l-117 194q-2 4 -1 8t12 10l7 4q10 5 14 5t8 -5l134 -194q2 -3 3.5 -7t1.5 -12v-5z" />
    <glyph glyph-name="quotesinglbase" unicode="&#x201a;" horiz-adv-x="231" 
d="M52 -171q6 -7 9.5 -7.5t7.5 2.5q49 39 78.5 96t29.5 116q0 29 -16.5 49t-45.5 20q-21 0 -36.5 -13t-15.5 -35q0 -16 7 -26t16 -20t16 -21t7 -28q0 -14 -6 -29t-15 -30t-20 -28.5t-22 -24.5q-6 -6 2 -16z" />
    <glyph glyph-name="quotedblbase" unicode="&#x201e;" horiz-adv-x="436" 
d="M52 -171q6 -7 9.5 -7.5t7.5 2.5q49 39 78.5 96t29.5 116q0 29 -16.5 49t-45.5 20q-21 0 -36.5 -13t-15.5 -35q0 -16 7 -26t16 -20t16 -21t7 -28q0 -14 -6 -29t-15 -30t-20 -28.5t-22 -24.5q-6 -6 2 -16zM257 -171q6 -7 9.5 -7.5t7.5 2.5q49 39 78.5 96t29.5 116
q0 29 -16.5 49t-45.5 20q-21 0 -36.5 -13t-15.5 -35q0 -16 7 -26t16 -20t16 -21t7 -28q0 -14 -6 -29t-15 -30t-20 -28.5t-22 -24.5q-6 -6 2 -16z" />
    <glyph glyph-name="ordmasculine" unicode="&#xba;" horiz-adv-x="425" 
d="M209 362q-30 0 -49.5 11t-31 29t-15.5 40.5t-4 45.5q0 67 29.5 99t77.5 32q30 0 49.5 -11.5t31 -29.5t15.5 -40.5t4 -45.5q0 -67 -29.5 -98.5t-77.5 -31.5zM206 314q77 0 123 45.5t46 136.5q0 78 -40.5 124t-115.5 46q-77 0 -123 -45.5t-46 -136.5q0 -78 40.5 -124
t115.5 -46z" />
    <glyph glyph-name="ordfeminine" unicode="&#xaa;" horiz-adv-x="425" 
d="M202 666q-38 0 -66.5 -15t-47.5 -40.5t-28.5 -58.5t-9.5 -69q0 -38 11 -71t31 -56q17 -20 42.5 -31t58.5 -11q38 0 65 15.5t43 41.5l6 -45q1 -4 5.5 -5.5t22.5 -1.5q14 0 19 1t5 5q0 6 -0.5 22.5t-1 37t-1 41.5t-0.5 36v56q0 15 0.5 36t1 41.5t1 37t0.5 22.5q0 4 -5 5
t-19 1q-18 0 -22.5 -1.5t-5.5 -5.5l-5 -32q-17 21 -43.5 32.5t-56.5 11.5zM299 491q0 -70 -26 -102q-11 -14 -27.5 -22.5t-38.5 -8.5q-51 0 -74.5 35.5t-23.5 93.5q0 63 25.5 99.5t76.5 36.5q29 0 51 -13.5t37 -34.5v-84z" />
    <glyph glyph-name="onesuperior" unicode="&#xb9;" 
d="M287 399q3 0 4.5 3t1.5 14v4q0 11 -1 14.5t-5 3.5h-60v348q0 7 -15 7h-18q-11 0 -19 -2.5t-16 -7.5l-96 -56q-5 -3 -5 -7t6 -14l3 -5q6 -10 9 -12t7 0l89 52v-303h-64q-4 0 -5 -3.5t-1 -14.5v-4q0 -11 1.5 -14t4.5 -3h179z" />
    <glyph glyph-name="twosuperior" unicode="&#xb2;" 
d="M51 744q5 -9 8 -11t8 1q19 10 41.5 16.5t45.5 6.5q35 0 56.5 -15t21.5 -53q0 -17 -5 -33.5t-16.5 -35t-30.5 -41.5t-47 -53l-79 -85q-4 -4 -6 -8t-2 -13v-5q0 -16 7 -16h234q5 0 6.5 3t1.5 16v4q0 13 -1.5 16.5t-6.5 3.5h-173l83 87q25 26 42 47t27.5 40t15 37.5
t4.5 39.5q0 52 -34 79.5t-91 27.5q-35 0 -65 -9t-50 -22q-4 -2 -4 -5.5t5 -12.5z" />
    <glyph glyph-name="threesuperior" unicode="&#xb3;" 
d="M47 432q-5 -11 -4.5 -15t5.5 -6q23 -10 47.5 -14.5t49.5 -4.5q30 0 57.5 7.5t49 22.5t34 37.5t12.5 53.5q0 22 -7.5 39t-19.5 29t-27 19t-30 9q30 8 50 32.5t20 57.5q0 27 -11.5 46t-30 31t-42.5 18t-49 6q-26 0 -51.5 -6t-45.5 -17q-5 -2 -4 -5.5t5 -11.5l3 -7
q4 -8 6.5 -10.5t9.5 0.5q17 8 36 11.5t37 3.5q33 0 57.5 -14t24.5 -48q0 -18 -8 -31.5t-22 -21.5t-32 -12t-38 -4h-27q-3 0 -4.5 -2t-1.5 -13v-11q0 -11 1.5 -13.5t4.5 -2.5h29q53 0 83 -19t30 -56q0 -36 -27.5 -55.5t-69.5 -19.5q-41 0 -81 16q-7 2 -9.5 -0.5t-6.5 -10.5z
" />
    <glyph glyph-name="grave" unicode="`" horiz-adv-x="354" 
d="M129 721q-17 0 -21 -2.5t0 -7.5l88 -119q3 -4 8 -5t19 -1h4q24 0 20 7l-67 118q-3 5 -9.5 7.5t-26.5 2.5h-15z" />
    <glyph glyph-name="acute" unicode="&#xb4;" horiz-adv-x="354" 
d="M209 721q-20 0 -26.5 -2.5t-9.5 -7.5l-67 -118q-4 -7 20 -7h4q14 0 19 1t8 5l88 119q4 5 0 7.5t-21 2.5h-15z" />
    <glyph glyph-name="dieresis" unicode="&#xa8;" horiz-adv-x="354" 
d="M28 654q0 -20 13.5 -33.5t33.5 -13.5t34 13.5t14 33.5t-14 34t-34 14t-33.5 -14t-13.5 -34zM230 654q0 -20 13.5 -33.5t33.5 -13.5t34 13.5t14 33.5t-14 34t-34 14t-33.5 -14t-13.5 -34z" />
    <glyph glyph-name="circumflex" unicode="&#x2c6;" horiz-adv-x="354" 
d="M164 729q-15 0 -22 -2.5t-12 -7.5l-94 -100q-5 -5 4 -16l5 -6q10 -11 16 -6l116 97l116 -97q6 -5 16 6l5 6q9 11 4 16l-94 100q-5 5 -12 7.5t-22 2.5h-26z" />
    <glyph glyph-name="tilde" unicode="&#x2dc;" horiz-adv-x="354" 
d="M327 665q5 6 -2 16l-8 10q-6 8 -9.5 9t-6.5 -1q-17 -16 -29.5 -23t-28.5 -7q-17 0 -31.5 6t-29 13t-30.5 13t-37 6q-26 0 -50 -13.5t-38 -30.5q-5 -6 2 -16l8 -10q10 -13 16 -8q17 16 29.5 23t28.5 7q17 0 31.5 -6t29 -13t30.5 -13t37 -6q26 0 50 13.5t38 30.5z" />
    <glyph glyph-name="macron" unicode="&#xaf;" horiz-adv-x="354" 
d="M46 684q-5 0 -6.5 -4.5t-1.5 -18.5v-3q0 -25 8 -25h262q8 0 8 25v3q0 14 -1.5 18.5t-6.5 4.5h-262z" />
    <glyph glyph-name="breve" unicode="&#x2d8;" horiz-adv-x="354" 
d="M177 595q28 0 53 7.5t43.5 22t29 35t10.5 46.5q0 3 -2.5 4.5t-16.5 1.5h-12q-13 0 -15.5 -1.5t-3.5 -8.5q-4 -32 -26 -49t-60 -17t-60 17t-26 49q-1 7 -3.5 8.5t-15.5 1.5h-12q-14 0 -16.5 -1.5t-2.5 -4.5q0 -26 10.5 -46.5t29 -35t43 -22t53.5 -7.5z" />
    <glyph glyph-name="dotaccent" unicode="&#x2d9;" horiz-adv-x="354" 
d="M130 680q0 -20 13 -33t33 -13t33.5 13t13.5 33t-13.5 33.5t-33.5 13.5t-33 -13.5t-13 -33.5z" />
    <glyph glyph-name="ring" unicode="&#x2da;" horiz-adv-x="354" 
d="M83 668q0 -19 7.5 -35.5t20.5 -28.5t30 -19t36 -7t36 7t30 19t20.5 28.5t7.5 35.5t-7.5 35.5t-20.5 28.5t-30 19t-36 7t-36 -7t-30 -19t-20.5 -28.5t-7.5 -35.5zM126 668q0 23 15 37t36 14q23 0 36 -15t13 -36t-13 -36t-36 -15q-21 0 -36 14t-15 37z" />
    <glyph glyph-name="cedilla" unicode="&#xb8;" horiz-adv-x="354" 
d="M100 -109q11 2 26.5 3.5t26.5 1.5q28 0 44.5 -10t16.5 -33t-16.5 -33.5t-45.5 -10.5q-13 0 -27 2t-28 5q-4 1 -6 -1.5t-4 -12.5l-1 -5q-3 -16 2 -18q10 -5 30.5 -8.5t41.5 -3.5q29 0 49.5 7.5t34 20t20 28.5t6.5 34q0 35 -25 56.5t-65 21.5q-7 0 -13.5 -0.5t-13.5 -1.5
l8 60q1 3 -2.5 4.5t-14.5 1.5h-12q-11 0 -14.5 -1t-4.5 -5z" />
    <glyph glyph-name="hungarumlaut" unicode="&#x2dd;" horiz-adv-x="354" 
d="M131 721q-20 0 -26.5 -2.5t-9.5 -7.5l-67 -118q-4 -7 20 -7h4q14 0 19 1t8 5l88 119q4 5 0 7.5t-21 2.5h-15zM288 721q-20 0 -26.5 -2.5t-9.5 -7.5l-67 -118q-4 -7 20 -7h4q14 0 19 1t8 5l88 119q4 5 0 7.5t-21 2.5h-15z" />
    <glyph glyph-name="ogonek" unicode="&#x2db;" horiz-adv-x="354" 
d="M261 -213q5 2 2 18l-1 5q-2 10 -4.5 12.5t-5.5 1.5q-11 -3 -23.5 -6t-25.5 -3q-27 0 -42.5 15t-15.5 42q0 32 19.5 62t63.5 59q9 6 -13 6h-8q-11 0 -17.5 -1.5t-13.5 -5.5q-38 -21 -63 -55t-25 -74q0 -43 29.5 -67.5t70.5 -24.5q38 0 73 16z" />
    <glyph glyph-name="caron" unicode="&#x2c7;" horiz-adv-x="354" 
d="M190 583q15 0 22 2.5t12 7.5l94 100q5 5 -4 16l-5 6q-10 11 -16 6l-116 -97l-116 97q-6 5 -16 -6l-5 -6q-9 -11 -4 -16l94 -100q5 -5 12 -7.5t22 -2.5h26z" />
    <glyph glyph-name="commaaccent" unicode="&#x326;" horiz-adv-x="354" 
d="M130 -270q8 -8 14 -4q41 32 63 76t22 91q0 22 -13 38t-36 16q-17 0 -29 -10.5t-12 -27.5q0 -12 5.5 -20t11.5 -15.5t11.5 -16.5t5.5 -22q0 -21 -16 -45.5t-33 -41.5q-6 -6 1 -13z" />
    <glyph glyph-name="grave.cap" horiz-adv-x="354" 
d="M129 913q-17 0 -21 -2.5t0 -7.5l88 -119q3 -4 8 -5t19 -1h4q24 0 20 7l-67 118q-3 5 -9.5 7.5t-26.5 2.5h-15z" />
    <glyph glyph-name="acute.cap" horiz-adv-x="354" 
d="M209 913q-20 0 -26.5 -2.5t-9.5 -7.5l-67 -118q-4 -7 20 -7h4q14 0 19 1t8 5l88 119q4 5 0 7.5t-21 2.5h-15z" />
    <glyph glyph-name="dieresis.cap" horiz-adv-x="354" 
d="M28 846q0 -20 13.5 -33.5t33.5 -13.5t34 13.5t14 33.5t-14 34t-34 14t-33.5 -14t-13.5 -34zM230 846q0 -20 13.5 -33.5t33.5 -13.5t34 13.5t14 33.5t-14 34t-34 14t-33.5 -14t-13.5 -34z" />
    <glyph glyph-name="circumflex.cap" horiz-adv-x="354" 
d="M164 921q-15 0 -22 -2.5t-12 -7.5l-94 -100q-5 -5 4 -16l5 -6q10 -11 16 -6l116 97l116 -97q6 -5 16 6l5 6q9 11 4 16l-94 100q-5 5 -12 7.5t-22 2.5h-26z" />
    <glyph glyph-name="tilde.cap" horiz-adv-x="354" 
d="M327 857q5 6 -2 16l-8 10q-6 8 -9.5 9t-6.5 -1q-17 -16 -29.5 -23t-28.5 -7q-17 0 -31.5 6t-29 13t-30.5 13t-37 6q-26 0 -50 -13.5t-38 -30.5q-5 -6 2 -16l8 -10q10 -13 16 -8q17 16 29.5 23t28.5 7q17 0 31.5 -6t29 -13t30.5 -13t37 -6q26 0 50 13.5t38 30.5z" />
    <glyph glyph-name="macron.cap" horiz-adv-x="354" 
d="M46 874q-5 0 -6.5 -4.5t-1.5 -18.5v-3q0 -25 8 -25h262q8 0 8 25v3q0 14 -1.5 18.5t-6.5 4.5h-262z" />
    <glyph glyph-name="breve.cap" horiz-adv-x="354" 
d="M177 795q28 0 53 7.5t43.5 22t29 35t10.5 46.5q0 3 -2.5 4.5t-16.5 1.5h-12q-13 0 -15.5 -1.5t-3.5 -8.5q-4 -32 -26 -49t-60 -17t-60 17t-26 49q-1 7 -3.5 8.5t-15.5 1.5h-12q-14 0 -16.5 -1.5t-2.5 -4.5q0 -26 10.5 -46.5t29 -35t43 -22t53.5 -7.5z" />
    <glyph glyph-name="dotaccent.cap" horiz-adv-x="354" 
d="M130 840q0 -20 13 -33t33 -13t33.5 13t13.5 33t-13.5 33.5t-33.5 13.5t-33 -13.5t-13 -33.5z" />
    <glyph glyph-name="ring.cap" horiz-adv-x="354" 
d="M83 868q0 -19 7.5 -35.5t20.5 -28.5t30 -19t36 -7t36 7t30 19t20.5 28.5t7.5 35.5t-7.5 35.5t-20.5 28.5t-30 19t-36 7t-36 -7t-30 -19t-20.5 -28.5t-7.5 -35.5zM126 868q0 23 15 37t36 14q23 0 36 -15t13 -36t-13 -36t-36 -15q-21 0 -36 14t-15 37z" />
    <glyph glyph-name="hungarumlaut.cap" horiz-adv-x="354" 
d="M131 913q-20 0 -26.5 -2.5t-9.5 -7.5l-67 -118q-4 -7 20 -7h4q14 0 19 1t8 5l88 119q4 5 0 7.5t-21 2.5h-15zM288 913q-20 0 -26.5 -2.5t-9.5 -7.5l-67 -118q-4 -7 20 -7h4q14 0 19 1t8 5l88 119q4 5 0 7.5t-21 2.5h-15z" />
    <glyph glyph-name="caron.cap" horiz-adv-x="354" 
d="M130 798q5 -5 12 -7.5t22 -2.5h26q15 0 22 2.5t12 7.5l94 100q3 4 2.5 6.5t-6.5 9.5l-5 6q-6 7 -9 8t-7 -2l-116 -97l-116 97q-4 3 -7 2t-9 -8l-5 -6q-6 -7 -6.5 -9.5t2.5 -6.5z" />
    <glyph glyph-name="periodcentered.cap" horiz-adv-x="241" 
d="M120 410q-23 0 -39.5 -16.5t-16.5 -41.5q0 -26 16.5 -42t39.5 -16t40 16t17 42q0 25 -17 41.5t-40 16.5z" />
    <glyph glyph-name="bullet.cap" horiz-adv-x="339" 
d="M54 376q0 -24 9 -45t24.5 -36.5t36.5 -24.5t45 -9t45 9t37 24.5t25 36.5t9 45t-9 45t-25 37t-37 25t-45 9t-45 -9t-36.5 -25t-24.5 -37t-9 -45z" />
    <glyph glyph-name="parenleft.cap" horiz-adv-x="330" 
d="M92 348q0 -77 12.5 -143.5t32.5 -122.5t46 -101.5t52 -79.5q3 -4 7.5 -3.5t14.5 6.5l11 7q11 7 12.5 10.5t-1.5 8.5q-54 81 -88 185t-34 233t34 233t88 185q3 5 1.5 8.5t-12.5 10.5l-11 7q-10 6 -14.5 6.5t-7.5 -3.5q-26 -35 -52 -80t-46 -101t-32.5 -122.5t-12.5 -143.5
z" />
    <glyph glyph-name="parenright.cap" horiz-adv-x="330" 
d="M238 348q0 77 -12.5 143.5t-33 122.5t-46 101t-51.5 80q-3 4 -7.5 3.5t-14.5 -6.5l-11 -7q-11 -7 -12.5 -10.5t1.5 -8.5q54 -81 88 -185t34 -233t-34 -233t-88 -185q-3 -5 -1.5 -8.5t12.5 -10.5l11 -7q10 -6 14.5 -6.5t7.5 3.5q26 34 51.5 79.5t46 101.5t33 122.5
t12.5 143.5z" />
    <glyph glyph-name="bracketleft.cap" horiz-adv-x="330" 
d="M296 -85q5 0 7 3.5t2 17.5v9q0 15 -2 18.5t-7 3.5h-124v781h124q5 0 7 3.5t2 17.5v9q0 15 -2 18.5t-7 3.5h-188v-885h188z" />
    <glyph glyph-name="bracketright.cap" horiz-adv-x="330" 
d="M222 -85v885h-188q-5 0 -7 -3.5t-2 -18.5v-9q0 -14 2 -17.5t7 -3.5h124v-781h-124q-5 0 -7 -3.5t-2 -18.5v-9q0 -14 2 -17.5t7 -3.5h188z" />
    <glyph glyph-name="braceleft.cap" horiz-adv-x="330" 
d="M198 214q0 61 -17.5 93t-58.5 51q41 19 58.5 51t17.5 93v142q0 59 23 81.5t71 22.5h14q5 0 7 3.5t2 17.5v9q0 15 -2 18.5t-7 3.5h-20q-68 0 -110 -35t-42 -114v-143q0 -65 -18 -91t-55 -31q-5 -1 -7 -4.5t-2 -17.5v-13q0 -14 2 -17.5t7 -4.5q37 -5 55 -31t18 -91v-143
q0 -40 11 -68t31 -46t48 -26.5t62 -8.5h20q5 0 7 3.5t2 18.5v9q0 14 -2 17.5t-7 3.5h-14q-48 0 -71 22.5t-23 81.5v143z" />
    <glyph glyph-name="braceright.cap" horiz-adv-x="330" 
d="M132 71q0 -59 -23 -81.5t-71 -22.5h-14q-5 0 -7 -3.5t-2 -17.5v-9q0 -15 2 -18.5t7 -3.5h20q34 0 62 8.5t48 26.5t31 46t11 68v143q0 65 17.5 91t55.5 31q5 1 7 4.5t2 17.5v13q0 14 -2 17.5t-7 4.5q-38 5 -55.5 31t-17.5 91v143q0 40 -11 68t-31 46t-48 26.5t-62 8.5h-20
q-5 0 -7 -3.5t-2 -18.5v-9q0 -14 2 -17.5t7 -3.5h14q48 0 71 -22.5t23 -81.5v-142q0 -61 17.5 -93t58.5 -51q-41 -19 -58.5 -51t-17.5 -93v-143z" />
    <glyph glyph-name="questiondown.cap" horiz-adv-x="419" 
d="M252 524q-17 0 -23 -1.5t-6 -6.5v-60q0 -24 -6 -41t-18 -31.5t-31 -28.5t-45 -31q-19 -13 -37.5 -27t-33 -32.5t-23.5 -42.5t-9 -56q0 -76 50 -123q26 -26 63.5 -39.5t88.5 -13.5q22 0 45 3.5t44.5 9t39.5 12.5t30 15q6 5 6 9.5t-6 16.5l-5 10q-5 11 -9 14.5t-10 0.5
q-31 -14 -64 -23t-68 -9q-68 0 -103 37q-14 15 -21.5 35t-7.5 45q0 37 18.5 62.5t63.5 54.5q32 21 54 38.5t36 36.5t20 41t6 51v66q0 5 -6 6.5t-23 1.5h-10zM308 677q0 23 -15 38t-37 15q-23 0 -38.5 -15t-15.5 -38t15.5 -38.5t38.5 -15.5q22 0 37 15.5t15 38.5z" />
    <glyph glyph-name="exclamdown.cap" horiz-adv-x="307" 
d="M158 0q24 0 30.5 3t6.5 9l-17 504q0 4 -4 5.5t-17 1.5h-10q-13 0 -17 -1.5t-4 -5.5l-19 -504q0 -6 6.5 -9t30.5 -3h14zM152 623q23 0 38 15.5t15 38.5t-15 38t-38 15q-21 0 -36 -15t-15 -38t15 -38.5t36 -15.5z" />
    <glyph glyph-name="guillemotleft.cap" horiz-adv-x="515" 
d="M72 365q0 8 1.5 12t3.5 7l134 194q4 5 8 5t14 -5l7 -4q11 -6 12 -10t-1 -8l-117 -194l117 -193q2 -4 1 -8t-12 -10l-7 -4q-10 -5 -14 -5t-8 5l-134 194q-2 3 -3.5 7t-1.5 12v5zM278 365q0 8 1.5 12t3.5 7l134 194q4 5 8 5t14 -5l7 -4q11 -6 12 -10t-1 -8l-117 -194
l117 -193q2 -4 1 -8t-12 -10l-7 -4q-10 -5 -14 -5t-8 5l-134 194q-2 3 -3.5 7t-1.5 12v5z" />
    <glyph glyph-name="guillemotright.cap" horiz-adv-x="515" 
d="M237 360q0 -8 -1.5 -12t-3.5 -7l-134 -194q-4 -5 -8 -5t-14 5l-7 4q-11 6 -12 10t1 8l117 193l-117 194q-2 4 -1 8t12 10l7 4q10 5 14 5t8 -5l134 -194q2 -3 3.5 -7t1.5 -12v-5zM443 360q0 -8 -1.5 -12t-3.5 -7l-134 -194q-4 -5 -8 -5t-14 5l-7 4q-11 6 -12 10t1 8
l117 193l-117 194q-2 4 -1 8t12 10l7 4q10 5 14 5t8 -5l134 -194q2 -3 3.5 -7t1.5 -12v-5z" />
    <glyph glyph-name="guilsinglleft.cap" horiz-adv-x="309" 
d="M72 365q0 8 1.5 12t3.5 7l134 194q4 5 8 5t14 -5l7 -4q11 -6 12 -10t-1 -8l-117 -194l117 -193q2 -4 1 -8t-12 -10l-7 -4q-10 -5 -14 -5t-8 5l-134 194q-2 3 -3.5 7t-1.5 12v5z" />
    <glyph glyph-name="guilsinglright.cap" horiz-adv-x="309" 
d="M237 360q0 -8 -1.5 -12t-3.5 -7l-134 -194q-4 -5 -8 -5t-14 5l-7 4q-11 6 -12 10t1 8l117 193l-117 194q-2 4 -1 8t12 10l7 4q10 5 14 5t8 -5l134 -194q2 -3 3.5 -7t1.5 -12v-5z" />
    <glyph glyph-name="hyphen.cap" horiz-adv-x="382" 
d="M60 372q-5 0 -6.5 -4.5t-1.5 -18.5v-3q0 -25 8 -25h262q8 0 8 25v3q0 14 -1.5 18.5t-6.5 4.5h-262z" />
    <glyph glyph-name="uni00AD.cap" horiz-adv-x="382" 
d="M60 372q-5 0 -6.5 -4.5t-1.5 -18.5v-3q0 -25 8 -25h262q8 0 8 25v3q0 14 -1.5 18.5t-6.5 4.5h-262z" />
    <glyph glyph-name="endash.cap" horiz-adv-x="500" 
d="M52 372q-5 0 -6.5 -4t-1.5 -17v-3q0 -23 8 -23h396q8 0 8 23v3q0 13 -1.5 17t-6.5 4h-396z" />
    <glyph glyph-name="emdash.cap" horiz-adv-x="1000" 
d="M52 372q-5 0 -6.5 -4t-1.5 -17v-3q0 -23 8 -23h896q8 0 8 23v3q0 13 -1.5 17t-6.5 4h-896z" />
    <glyph glyph-name="afii00208.cap" horiz-adv-x="1000" 
d="M52 372q-5 0 -6.5 -4t-1.5 -17v-3q0 -23 8 -23h896q8 0 8 23v3q0 13 -1.5 17t-6.5 4h-896z" />
    <glyph glyph-name="zero.slash" horiz-adv-x="574" 
d="M294 730q-118 0 -182.5 -97t-64.5 -288q0 -182 62 -268.5t169 -86.5q119 0 183.5 99t64.5 288q0 93 -16 159.5t-46 109.5t-73 63.5t-97 20.5zM455 372q0 -160 -44 -242t-129 -82q-41 0 -68 17l184 554q57 -74 57 -247zM290 672q33 0 63 -14l-184 -549q-50 76 -50 243
q0 161 44.5 240.5t126.5 79.5z" />
    <glyph glyph-name="zero" unicode="0" horiz-adv-x="574" 
d="M290 672q81 0 123 -74t42 -226q0 -160 -44 -242t-129 -82q-163 0 -163 304q0 161 44.5 240.5t126.5 79.5zM294 730q-118 0 -182.5 -97t-64.5 -288q0 -182 62 -268.5t169 -86.5q119 0 183.5 99t64.5 288q0 93 -16 159.5t-46 109.5t-73 63.5t-97 20.5z" />
    <glyph glyph-name="one" unicode="1" horiz-adv-x="574" 
d="M158 54q-5 0 -7 -4t-2 -20v-7q0 -15 2 -19t7 -4h294q5 0 7 4t2 19v7q0 16 -2 20t-7 4h-108v659q0 7 -20 7h-13q-14 0 -22.5 -3t-19.5 -9l-178 -108q-7 -5 -7 -9.5t7 -16.5l5 -9q7 -12 11 -14.5t11 1.5l157 95v-593h-117z" />
    <glyph glyph-name="two" unicode="2" horiz-adv-x="574" 
d="M81 25q0 -15 2 -20t7 -5h378q5 0 7 5t2 20v8q0 16 -2 20.5t-7 4.5h-309l127 147q43 50 76.5 94t56 84t34 78.5t11.5 77.5q0 45 -15.5 80.5t-42.5 60t-63.5 37.5t-78.5 13q-51 0 -98.5 -16t-84.5 -39q-5 -4 -4.5 -9t5.5 -16l5 -10q6 -11 10.5 -13t11.5 2q35 19 71 31
t80 12q58 0 97 -34.5t39 -102.5q0 -31 -9.5 -63.5t-29 -69t-49.5 -78.5t-72 -91l-145 -171q-8 -9 -9 -16t-1 -18v-3z" />
    <glyph glyph-name="three" unicode="3" horiz-adv-x="574" 
d="M203 352q52 0 94 -12.5t71 -39.5q20 -18 30.5 -43t10.5 -58q0 -35 -11 -61t-31 -45q-48 -45 -138 -45q-31 0 -66 7t-66 19q-8 3 -11.5 0t-8.5 -14l-4 -10q-5 -14 -4.5 -19t6.5 -8q32 -15 76.5 -24t86.5 -9q47 0 90.5 13t76.5 39.5t52.5 66.5t19.5 93q0 39 -13.5 70
t-35.5 53.5t-50 37t-56 20.5q57 17 93 61t36 106q0 39 -12.5 69t-34.5 53q-29 29 -68.5 43.5t-87.5 14.5q-42 0 -86 -11.5t-76 -28.5q-5 -3 -4.5 -8.5t5.5 -17.5l4 -10q5 -11 9 -13t12 2q29 12 63.5 21t68.5 9q32 0 60 -10t48 -32q14 -16 22.5 -37.5t8.5 -50.5
q0 -31 -9.5 -53.5t-26.5 -39.5q-25 -24 -62.5 -34.5t-85.5 -10.5h-17q-5 0 -7 -4t-2 -20v-6q0 -15 2 -19t7 -4h21z" />
    <glyph glyph-name="four" unicode="4" horiz-adv-x="574" 
d="M55 273q-11 -22 -11 -51v-21q0 -5 6 -6.5t26 -1.5h281v-184q0 -9 29 -9h7q32 0 32 9v184h96q6 0 7.5 4.5t1.5 22.5v2q0 18 -1.5 23t-7.5 5h-96v172q0 9 -32 9h-7q-29 0 -29 -9v-172h-245l215 457q4 8 -2 10.5t-26 2.5h-7q-20 0 -25 -3t-7 -8z" />
    <glyph glyph-name="five" unicode="5" horiz-adv-x="574" 
d="M180 662h277q5 0 7 5t2 20v8q0 16 -2 20.5t-7 4.5h-344v-348q30 8 61 13t65 5q97 0 142 -48q41 -43 41 -118q0 -83 -48 -129q-23 -23 -58 -35t-81 -12q-33 0 -65.5 6.5t-60.5 17.5q-8 3 -12 -0.5t-8 -12.5l-4 -10q-5 -14 -4.5 -19.5t6.5 -8.5q10 -6 26.5 -11.5t36.5 -10
t42.5 -7t45.5 -2.5q58 0 104.5 17.5t79.5 49t50.5 75t17.5 96.5q0 49 -16 87.5t-44 65.5q-65 63 -176 63q-42 0 -74 -8v226z" />
    <glyph glyph-name="six" unicode="6" horiz-adv-x="574" 
d="M452 657q8 -3 12 -1.5t9 12.5l4 10q5 12 5.5 17.5t-4.5 8.5q-24 12 -54 19t-67 7q-76 0 -130.5 -39t-90 -100.5t-52 -138t-16.5 -152.5q0 -71 13.5 -128t42 -97.5t71.5 -62.5t103 -22q52 0 93 17.5t69 49t42.5 73.5t14.5 92q0 48 -13.5 88.5t-39.5 70.5t-65.5 47
t-91.5 17q-46 0 -88 -15t-76 -38q8 55 24 106t41.5 90t62 62.5t86.5 23.5t95 -17zM138 336q33 21 74.5 37.5t86.5 16.5q43 0 72 -15t46 -40t24 -56t7 -63q0 -76 -38.5 -123t-110.5 -47q-89 0 -125 73t-36 217z" />
    <glyph glyph-name="seven" unicode="7" horiz-adv-x="574" 
d="M491 641q5 11 6.5 19t1.5 20v34q0 4 -4.5 5t-17.5 1h-391q-5 0 -7 -4.5t-2 -20.5v-8q0 -15 2 -20t7 -5h349l-272 -649q-3 -8 2.5 -10.5t25.5 -2.5h8q20 0 25 3t7 8z" />
    <glyph glyph-name="eight" unicode="8" horiz-adv-x="574" 
d="M488 560q0 39 -16 70.5t-43 53.5t-62.5 34t-74.5 12t-75 -12t-64 -34.5t-44.5 -55.5t-16.5 -75q0 -33 10 -59t27 -46t40 -36.5t49 -29.5q-35 -12 -64.5 -32t-50.5 -46t-33 -57t-12 -65q0 -48 18.5 -84t49 -60t70.5 -36t83 -12q49 0 92 14.5t75 41t50.5 64.5t18.5 86
q0 39 -15 67.5t-39 51t-55 40t-64 33.5q28 13 54.5 30t46.5 38t32.5 47t12.5 57zM448 189q0 -32 -12.5 -58.5t-34.5 -45t-52 -29t-65 -10.5q-33 0 -61.5 9.5t-50 27.5t-33.5 44t-12 59q0 57 36.5 101.5t105.5 69.5q33 -16 65.5 -31.5t57.5 -34.5t40.5 -43.5t15.5 -58.5z
M159 559q0 49 35 82.5t96 33.5q58 0 94.5 -32.5t36.5 -84.5q0 -48 -36.5 -84.5t-92.5 -61.5q-27 13 -51 27.5t-42.5 32t-29 39t-10.5 48.5z" />
    <glyph glyph-name="nine" unicode="9" horiz-adv-x="574" 
d="M117 69q-8 4 -12 2t-9 -13l-4 -10q-5 -12 -5.5 -17.5t4.5 -8.5q25 -14 64 -23t75 -9q55 0 94 16.5t71 46.5q56 54 83 148t27 218q0 70 -14 127t-43 98t-72.5 63.5t-103.5 22.5q-52 0 -92 -18t-67.5 -49.5t-42 -74t-14.5 -91.5q0 -48 13.5 -88.5t39.5 -70t65.5 -46.5
t91.5 -17q46 0 89 15t76 38q-9 -82 -28.5 -141.5t-54.5 -94.5q-24 -24 -52.5 -35t-70.5 -11q-29 0 -56 6t-52 17zM436 384q-33 -21 -75 -37.5t-87 -16.5q-44 0 -72.5 15t-45.5 39.5t-24 55.5t-7 63q0 77 38 124t109 47q89 0 126.5 -74t37.5 -216z" />
    <glyph glyph-name="dollar" unicode="$" horiz-adv-x="574" 
d="M84 47q29 -23 75 -38.5t100 -17.5v-81q0 -5 4.5 -6.5t18.5 -1.5h3q25 0 25 8v82q44 4 80.5 20t62 41t39.5 59t14 74q0 45 -16.5 77t-43.5 56.5t-60.5 43.5t-67.5 36q-28 15 -54 29.5t-46 32.5t-32 40t-12 51q0 57 40 89t100 32q38 0 71.5 -11t63.5 -28q5 -3 9 -0.5
t12 16.5l3 5q7 12 8 17t-5 9q-26 17 -59 29t-68 17v86q0 8 -25 8h-3q-14 0 -18.5 -1.5t-4.5 -6.5v-84q-39 -2 -73.5 -15.5t-61 -36.5t-42 -55.5t-15.5 -72.5q0 -41 14.5 -72t38 -54.5t53.5 -42t62 -34.5q31 -16 60.5 -32t52.5 -34.5t37 -42t14 -54.5q0 -60 -45.5 -98
t-120.5 -38q-38 0 -79 12t-81 38q-5 3 -9 -0.5t-12 -15.5l-3 -5q-8 -14 -8.5 -19.5t4.5 -9.5z" />
    <glyph glyph-name="cent" unicode="&#xa2;" horiz-adv-x="574" 
d="M458 194q-29 -15 -59.5 -23t-66.5 -8q-47 0 -80 16t-54 44t-30.5 64.5t-9.5 78.5q0 91 45.5 146.5t132.5 55.5q32 0 62 -8.5t64 -31.5q9 -6 20 13l6 10q6 11 7.5 15.5t-6.5 9.5q-27 20 -61.5 32t-73.5 15v99q0 8 -25 8h-3q-14 0 -18.5 -1.5t-4.5 -6.5v-100
q-51 -5 -91 -27t-67.5 -57t-42 -81t-14.5 -98q0 -44 12 -87t37 -78t63.5 -58.5t91.5 -29.5v-98q0 -5 4.5 -6.5t18.5 -1.5h3q25 0 25 8v97q42 2 75.5 13.5t62.5 28.5q6 4 7 8t-5 18l-4 9q-6 13 -10.5 14t-10.5 -2z" />
    <glyph glyph-name="Euro" unicode="&#x20ac;" horiz-adv-x="574" 
d="M41 460q-5 0 -6.5 -3.5t-1.5 -17.5v-3q0 -14 1.5 -18.5t6.5 -4.5h65q-1 -15 -1.5 -30.5t-0.5 -31.5v-21.5t1 -21.5h-77q-5 0 -6.5 -3.5t-1.5 -17.5v-3q0 -14 1.5 -18.5t6.5 -4.5h82q10 -63 33 -115t59 -87q33 -32 76.5 -50.5t101.5 -18.5q48 0 86.5 10.5t73.5 27.5
q6 3 6 8t-5 17l-4 10q-8 20 -18 15q-32 -14 -62.5 -21.5t-62.5 -7.5q-91 0 -143 57t-68 155h226q5 0 6.5 4.5t1.5 18.5v3q0 14 -1.5 17.5t-6.5 3.5h-232q-1 11 -1 23v25v28.5t2 28.5h244q5 0 6.5 4.5t1.5 18.5v3q0 14 -1.5 17.5t-6.5 3.5h-238q16 97 65.5 154t138.5 57
q59 0 130 -34q5 -2 9 0.5t9 13.5l5 11q5 11 6 16t-4 8q-32 19 -72.5 31.5t-87.5 12.5q-103 0 -176 -67.5t-95 -202.5h-71z" />
    <glyph glyph-name="florin" unicode="&#x192;" horiz-adv-x="574" 
d="M229 118q-11 -87 -39.5 -131.5t-91.5 -44.5q-12 0 -25 2t-26 5q-6 2 -9 -1t-7 -15l-3 -10q-3 -11 -3.5 -16t4.5 -8q12 -6 31 -10t40 -4q85 0 133 58t64 184l32 258h139q5 0 6.5 5t1.5 19v3q0 14 -1.5 18t-6.5 4h-133l9 72q10 87 39 131.5t92 44.5q12 0 25 -2t26 -5
q6 -2 9 1t7 15l3 10q3 11 3.5 16t-4.5 8q-12 6 -31 10t-40 4q-85 0 -133 -58t-64 -184l-8 -63h-114q-5 0 -6.5 -4t-1.5 -18v-3q0 -14 1.5 -19t6.5 -5h108z" />
    <glyph glyph-name="sterling" unicode="&#xa3;" horiz-adv-x="574" 
d="M484 658q7 -4 11.5 -2t10.5 13l5 10q10 20 1 25q-31 17 -65 26t-66 9q-54 0 -93.5 -17.5t-65 -48.5t-38 -74.5t-12.5 -94.5v-104h-89q-5 0 -6.5 -4.5t-1.5 -18.5v-1q0 -25 8 -25h89v-108q0 -60 -17.5 -103t-65.5 -78q-4 -3 -5.5 -9t-1.5 -20v-5q0 -28 8 -28h429q8 0 8 28
v5q0 26 -8 26h-354q21 18 36 36t24 40t13 50.5t4 67.5v98h195q8 0 8 25v1q0 14 -1.5 18.5t-6.5 4.5h-195v104q0 38 6.5 71t22 57t43 37.5t69.5 13.5q50 0 101 -25z" />
    <glyph glyph-name="yen" unicode="&#xa5;" horiz-adv-x="574" 
d="M107 381q-5 0 -6.5 -4.5t-1.5 -18.5v-3q0 -25 8 -25h121l25 -52v-39h-146q-5 0 -6.5 -4.5t-1.5 -18.5v-3q0 -25 8 -25h146v-179q0 -9 29 -9h8q32 0 32 9v179h146q8 0 8 25v3q0 14 -1.5 18.5t-6.5 4.5h-146v39l24 52h122q8 0 8 25v3q0 14 -1.5 18.5t-6.5 4.5h-98l156 327
q3 6 -2 9t-22 3h-9q-19 0 -25 -1.5t-9 -7.5l-165 -371l-167 369q-3 6 -10 8.5t-28 2.5h-8q-22 0 -26.5 -3.5t-2.5 -8.5l152 -327h-97z" />
    <glyph glyph-name="numbersign" unicode="#" horiz-adv-x="574" 
d="M303 0h12q10 0 13.5 2t5.5 8l43 205h116q5 0 7 3t2 14v6q0 11 -2 14t-7 3h-107l46 215h107q5 0 7 3t2 14v6q0 11 -2 14t-7 3h-99l42 200q1 5 -2 7.5t-14 2.5h-12q-17 0 -19 -10l-42 -200h-157l42 200q1 5 -2 7.5t-14 2.5h-13q-17 0 -19 -10l-42 -200h-107q-5 0 -7 -3
t-2 -14v-6q0 -11 2 -14t7 -3h99l-48 -215h-97q-5 0 -7 -3t-2 -14v-6q0 -11 2 -14t7 -3h90l-43 -205q-1 -5 2 -7.5t14 -2.5h13q10 0 13.5 2t5.5 8l43 205h157l-43 -205q-1 -5 2 -7.5t14 -2.5zM228 470h157l-47 -215h-157z" />
    <glyph glyph-name="percent" unicode="%" horiz-adv-x="886" 
d="M214 683q47 0 71 -38t24 -111q0 -78 -26 -119.5t-74 -41.5t-72 38.5t-24 111.5q0 80 28 120t73 40zM217 730q-78 0 -122.5 -54t-44.5 -157q0 -99 42 -146.5t114 -47.5q78 0 122.5 54.5t44.5 156.5q0 100 -42 147t-114 47zM242 -5q-4 -8 -0.5 -10.5t18.5 -2.5h10
q15 0 20.5 2.5t8.5 8.5l345 731q4 8 0 10.5t-19 2.5h-10q-17 0 -21.5 -2.5t-7.5 -8.5zM677 348q47 0 71 -38t24 -111q0 -78 -26 -119.5t-74 -41.5t-72 38.5t-24 111.5q0 80 28 120t73 40zM680 395q-78 0 -122.5 -54t-44.5 -157q0 -99 42 -146.5t114 -47.5q78 0 122.5 54.5
t44.5 156.5q0 100 -42 147t-114 47z" />
    <glyph glyph-name="perthousand" unicode="&#x2030;" horiz-adv-x="1270" 
d="M214 683q47 0 71 -38t24 -111q0 -78 -26 -119.5t-74 -41.5t-72 38.5t-24 111.5q0 80 28 120t73 40zM217 730q-78 0 -122.5 -54t-44.5 -157q0 -99 42 -146.5t114 -47.5q78 0 122.5 54.5t44.5 156.5q0 100 -42 147t-114 47zM242 -5q-4 -8 -0.5 -10.5t18.5 -2.5h10
q15 0 20.5 2.5t8.5 8.5l345 731q4 8 0 10.5t-19 2.5h-10q-17 0 -21.5 -2.5t-7.5 -8.5zM677 348q47 0 71 -38t24 -111q0 -78 -26 -119.5t-74 -41.5t-72 38.5t-24 111.5q0 80 28 120t73 40zM680 395q-78 0 -122.5 -54t-44.5 -157q0 -99 42 -146.5t114 -47.5q78 0 122.5 54.5
t44.5 156.5q0 100 -42 147t-114 47zM1061 348q47 0 71 -38t24 -111q0 -78 -26 -119.5t-74 -41.5t-72 38.5t-24 111.5q0 80 28 120t73 40zM1064 395q-78 0 -122.5 -54t-44.5 -157q0 -99 42 -146.5t114 -47.5q78 0 122.5 54.5t44.5 156.5q0 100 -42 147t-114 47z" />
    <glyph glyph-name="plus" unicode="+" horiz-adv-x="574" 
d="M263 126q0 -5 4.5 -6.5t17.5 -1.5h3q22 0 22 8v215h215q8 0 8 22v3q0 13 -1.5 17.5t-6.5 4.5h-215v214q0 8 -22 8h-3q-13 0 -17.5 -1.5t-4.5 -6.5v-214h-214q-5 0 -6.5 -4.5t-1.5 -17.5v-3q0 -22 8 -22h214v-215z" />
    <glyph glyph-name="minus" unicode="&#x2212;" horiz-adv-x="574" 
d="M525 341q8 0 8 22v3q0 13 -1.5 17.5t-6.5 4.5h-476q-5 0 -6.5 -4.5t-1.5 -17.5v-3q0 -22 8 -22h476z" />
    <glyph glyph-name="multiply" unicode="&#xd7;" horiz-adv-x="574" 
d="M286 331l-151 -152q-6 -6 -21 10l-2 2q-9 9 -11.5 13.5t1.5 8.5l151 151l-151 151q-6 6 10 22l2 2q8 8 12.5 11t8.5 -1l151 -152l152 152q4 4 8.5 1.5t13.5 -11.5l2 -2q8 -8 11 -12.5t-1 -8.5l-152 -152l152 -152q4 -4 1 -8.5t-11 -12.5l-2 -2q-16 -16 -22 -10z" />
    <glyph glyph-name="less" unicode="&#x3c;" horiz-adv-x="574" 
d="M42 374q0 12 2 17t7 8l449 251q6 3 10 0.5t10 -13.5l4 -7q6 -11 7 -15.5t-4 -7.5l-425 -237l425 -237q5 -3 4 -7.5t-7 -15.5l-4 -7q-6 -11 -10 -13.5t-10 0.5l-449 251q-5 3 -7 8t-2 17v8z" />
    <glyph glyph-name="divide" unicode="&#xf7;" horiz-adv-x="574" 
d="M296 619q-20 0 -34 -15t-14 -37t14 -36t34 -14t34.5 14t14.5 36t-14.5 37t-34.5 15zM296 212q-20 0 -34 -14t-14 -37q0 -21 14 -35.5t34 -14.5t34.5 14.5t14.5 35.5q0 23 -14.5 37t-34.5 14zM525 342q8 0 8 22v1q0 13 -1.5 17.5t-6.5 4.5h-476q-5 0 -6.5 -4.5t-1.5 -17.5
v-1q0 -22 8 -22h476z" />
    <glyph glyph-name="equal" unicode="=" horiz-adv-x="574" 
d="M525 442q8 0 8 22v3q0 13 -1.5 17.5t-6.5 4.5h-476q-5 0 -6.5 -4.5t-1.5 -17.5v-3q0 -22 8 -22h476zM525 239q8 0 8 22v3q0 13 -1.5 17.5t-6.5 4.5h-476q-5 0 -6.5 -4.5t-1.5 -17.5v-3q0 -22 8 -22h476z" />
    <glyph glyph-name="logicalnot" unicode="&#xac;" horiz-adv-x="574" 
d="M41 463q0 -22 8 -22h437v-194q0 -5 4.5 -6.5t17.5 -1.5h3q22 0 22 8v241h-484q-5 0 -6.5 -4.5t-1.5 -17.5v-3z" />
    <glyph glyph-name="greater" unicode="&#x3e;" horiz-adv-x="574" 
d="M532 366q0 -12 -2 -17t-7 -8l-449 -251q-6 -3 -10 -0.5t-10 13.5l-4 7q-6 11 -7 15.5t4 7.5l425 237l-425 237q-5 3 -4 7.5t7 15.5l4 7q6 11 10 13.5t10 -0.5l449 -251q5 -3 7 -8t2 -17v-8z" />
    <glyph glyph-name="notequal" unicode="&#x2260;" horiz-adv-x="574" 
d="M145 145q-2 -3 1 -5.5t15 -2.5h9q13 0 16 2t5 6l51 94h283q8 0 8 22v3q0 13 -1.5 17.5t-6.5 4.5h-258l85 156h173q8 0 8 22v3q0 13 -1.5 17.5t-6.5 4.5h-147l51 94q2 3 -1.5 5t-14.5 2h-9q-12 0 -15.5 -1.5t-5.5 -5.5l-51 -94h-283q-5 0 -6.5 -4.5t-1.5 -17.5v-3
q0 -22 8 -22h257l-85 -156h-172q-5 0 -6.5 -4.5t-1.5 -17.5v-3q0 -22 8 -22h147z" />
    <glyph glyph-name="approxequal" unicode="&#x2248;" horiz-adv-x="574" 
d="M402 447q-32 0 -57.5 13.5t-50.5 30t-52 30t-63 13.5q-52 0 -88.5 -29t-48.5 -86q-1 -5 1.5 -7t9.5 -4l13 -4q11 -3 13.5 -2.5t4.5 5.5q12 37 32.5 57t55.5 20q32 0 57.5 -13.5t50.5 -30t52 -30t63 -13.5q52 0 88.5 29t48.5 86q1 5 -1.5 7t-9.5 4l-13 4q-11 3 -13.5 2
t-4.5 -5q-12 -37 -32.5 -57t-55.5 -20zM402 243q-32 0 -57.5 13.5t-50.5 30t-52 30t-63 13.5q-52 0 -88.5 -29t-48.5 -86q-1 -5 1.5 -7t9.5 -4l13 -4q11 -3 13.5 -2.5t4.5 5.5q12 37 32.5 57t55.5 20q32 0 57.5 -13.5t50.5 -30t52 -30t63 -13.5q52 0 88.5 29t48.5 86
q1 5 -1.5 7t-9.5 4l-13 4q-11 3 -13.5 2t-4.5 -5q-12 -37 -32.5 -57t-55.5 -20z" />
    <glyph glyph-name="plusminus" unicode="&#xb1;" horiz-adv-x="574" 
d="M263 206q0 -8 23 -8h1q23 0 23 8v215h215q8 0 8 22v3q0 13 -1.5 17.5t-6.5 4.5h-215v214q0 8 -23 8h-1q-23 0 -23 -8v-214h-214q-5 0 -6.5 -4.5t-1.5 -17.5v-3q0 -22 8 -22h214v-215zM525 0q8 0 8 22v3q0 13 -1.5 17.5t-6.5 4.5h-476q-5 0 -6.5 -4.5t-1.5 -17.5v-3
q0 -22 8 -22h476z" />
    <glyph glyph-name="lessequal" unicode="&#x2264;" horiz-adv-x="574" 
d="M41 440q0 -12 2 -17t7 -8l449 -251q6 -3 10 -0.5t10 13.5l4 7q6 11 7 15.5t-4 7.5l-425 237l425 237q5 3 4 7.5t-7 15.5l-4 7q-6 11 -10 13.5t-10 -0.5l-449 -251q-5 -3 -7 -8t-2 -17v-8zM525 0q8 0 8 22v3q0 13 -1.5 17.5t-6.5 4.5h-476q-5 0 -6.5 -4.5t-1.5 -17.5v-3
q0 -22 8 -22h476z" />
    <glyph glyph-name="greaterequal" unicode="&#x2265;" horiz-adv-x="574" 
d="M533 448q0 12 -2 17t-7 8l-449 251q-6 3 -10 0.5t-10 -13.5l-4 -7q-6 -11 -7 -15.5t4 -7.5l425 -237l-425 -237q-5 -3 -4 -7.5t7 -15.5l4 -7q6 -11 10 -13.5t10 0.5l449 251q5 3 7 8t2 17v8zM525 0q8 0 8 22v3q0 13 -1.5 17.5t-6.5 4.5h-476q-5 0 -6.5 -4.5t-1.5 -17.5
v-3q0 -22 8 -22h476z" />
    <glyph glyph-name="asciicircum" unicode="^" horiz-adv-x="574" 
d="M286 730q-18 0 -24 -2t-9 -8l-177 -375q-3 -6 2 -8.5t22 -2.5h9q17 0 23.5 2t8.5 7l146 325l146 -325q2 -5 8.5 -7t23.5 -2h9q17 0 22 2.5t2 8.5l-177 375q-3 6 -9 8t-24 2h-2z" />
    <glyph glyph-name="asciitilde" unicode="~" horiz-adv-x="574" 
d="M414 365q-35 0 -63 15t-55.5 33t-58 33t-69.5 15q-57 0 -97 -32t-54 -95q-1 -8 12 -12l14 -4q12 -4 15 -3t5 6q14 41 36 63t61 22q35 0 63 -15t55.5 -33t58 -33t69.5 -15q57 0 97 32t54 95q1 8 -12 12l-14 4q-12 4 -15 3t-5 -6q-14 -41 -36 -63t-61 -22z" />
    <glyph glyph-name="lozenge" unicode="&#x25ca;" horiz-adv-x="545" 
d="M272 58l-177 307l177 307l177 -307zM278 -22q13 0 17.5 1.5t6.5 5.5l200 340q7 13 7 33v14q0 20 -7 33l-200 340q-2 4 -6.5 5.5t-17.5 1.5h-12q-13 0 -17.5 -1.5t-6.5 -5.5l-200 -340q-7 -13 -7 -33v-14q0 -20 7 -33l200 -340q2 -4 6.5 -5.5t17.5 -1.5h12z" />
    <glyph glyph-name="degree" unicode="&#xb0;" horiz-adv-x="357" 
d="M181 691q44 0 66 -24.5t22 -70.5q0 -48 -25 -73.5t-68 -25.5q-89 0 -89 95q0 48 25.5 73.5t68.5 25.5zM41 590q0 -66 37 -99.5t97 -33.5q65 0 103 38t38 102q0 68 -37 100.5t-97 32.5q-65 0 -103 -37.5t-38 -102.5z" />
    <glyph glyph-name="quotesingle" unicode="'" horiz-adv-x="253" 
d="M130 449q15 0 19 1.5t4 5.5l9 254q0 6 -5.5 8t-23.5 2h-13q-18 0 -23.5 -2t-5.5 -8l9 -254q0 -4 4 -5.5t19 -1.5h7z" />
    <glyph glyph-name="quotedbl" unicode="&#x22;" horiz-adv-x="428" 
d="M130 449q15 0 19 1.5t4 5.5l9 254q0 6 -5.5 8t-23.5 2h-13q-18 0 -23.5 -2t-5.5 -8l9 -254q0 -4 4 -5.5t19 -1.5h7zM305 449q15 0 19 1.5t4 5.5l9 254q0 6 -5.5 8t-23.5 2h-13q-18 0 -23.5 -2t-5.5 -8l9 -254q0 -4 4 -5.5t19 -1.5h7z" />
    <glyph glyph-name="radical" unicode="&#x221a;" horiz-adv-x="644" 
d="M132 427l177 -501q2 -4 7 -5t26 -1h12q17 0 21.5 1t6.5 5l287 883q2 8 -3 10.5t-25 2.5h-5q-20 0 -25 -3t-7 -8l-256 -811l-155 460q-5 14 -8.5 19t-9.5 5h-113q-8 0 -8 -26v-6q0 -25 8 -25h70z" />
    <glyph glyph-name="currency" unicode="&#xa4;" horiz-adv-x="574" 
d="M467 368q0 89 -44 144l68 114q4 5 -1.5 8t-29.5 4q-20 0 -26.5 -2t-11.5 -10l-45 -77q-36 19 -82 19q-50 0 -88 -20l-46 78q-5 7 -11 9.5t-24 2.5q-26 0 -32 -3t-2 -9l68 -114q-26 -28 -39.5 -68.5t-13.5 -93.5q0 -89 44 -144l-68 -114q-4 -5 1.5 -8t29.5 -4q20 0 26.5 2
t11.5 10l45 77q36 -19 82 -19q50 0 88 20l46 -78q5 -7 11 -9.5t24 -2.5q26 0 32 3t2 9l-68 114q26 28 39.5 68.5t13.5 93.5zM405 363q0 -42 -10 -72.5t-26.5 -50t-39 -28.5t-46.5 -9q-34 0 -56 14t-35 35.5t-18 48.5t-5 54q0 42 10 72.5t26.5 50t39 28.5t46.5 9q34 0 56 -14
t35 -35.5t18 -48.5t5 -54z" />
    <glyph glyph-name="infinity" unicode="&#x221e;" horiz-adv-x="823" 
d="M379 328q-33 -45 -69 -74t-84 -29q-51 0 -83 29.5t-32 75.5t32 75.5t83 29.5q48 0 84 -31t69 -76zM411 293q41 -60 84.5 -88.5t103.5 -28.5q34 0 64.5 10.5t53.5 30t36.5 48.5t13.5 65t-13.5 65t-36.5 48.5t-53.5 30t-64.5 10.5q-60 0 -103.5 -28.5t-84.5 -88.5
q-41 60 -84.5 88.5t-103.5 28.5q-34 0 -64.5 -10.5t-53.5 -30t-36.5 -48.5t-13.5 -65t13.5 -65t36.5 -48.5t53.5 -30t64.5 -10.5q60 0 103.5 28.5t84.5 88.5zM443 332q33 45 69 74t84 29q51 0 83 -29.5t32 -75.5t-32 -75.5t-83 -29.5q-48 0 -84 31t-69 76z" />
    <glyph glyph-name="micro" unicode="&#xb5;" horiz-adv-x="589" 
d="M435 72q1 -35 19 -54.5t53 -19.5q12 0 20.5 1t13.5 3t5.5 5.5t0.5 17.5v4q0 15 -1 18t-6 3q-13 0 -21 2t-13 9.5t-7 21t-2 36.5v399q0 5 -5.5 7.5t-23.5 2.5h-8q-18 0 -23 -2.5t-5 -7.5v-196q0 -92 -3 -135q-3 -34 -11 -54t-24 -37q-22 -23 -51.5 -33t-67.5 -10
q-35 0 -61 11t-43 30q-19 23 -24 61.5t-5 99.5v263q0 5 -5.5 7.5t-23.5 2.5h-8q-18 0 -23 -2.5t-5 -7.5v-571q0 -45 1 -86.5t4 -83.5q1 -6 7 -8t26 -2h6q18 0 24.5 2.5t5.5 9.5q-9 82 -9 180v86q18 -25 52.5 -40t76.5 -15q62 0 100 22t64 60z" />
    <glyph glyph-name="partialdiff" unicode="&#x2202;" horiz-adv-x="551" 
d="M117 657q45 17 95 17q49 0 86 -23.5t62.5 -62.5t41.5 -90t24 -106q-34 23 -76 38t-88 15q-52 0 -91.5 -17t-65.5 -47t-39.5 -70.5t-13.5 -88.5q0 -50 14.5 -92t42.5 -73.5t68.5 -49t93.5 -17.5q60 0 103 22t71.5 62.5t42 97.5t13.5 128q0 76 -17 152.5t-52 138
t-89.5 100.5t-130.5 39q-37 0 -67 -7t-54 -19q-5 -3 -4.5 -8.5t5.5 -17.5l4 -10q5 -11 9 -12.5t12 1.5zM431 336q0 -144 -36.5 -217t-124.5 -73q-72 0 -110.5 47t-38.5 123q0 32 7 63t24 56t45.5 40t72.5 15q45 0 86.5 -16.5t74.5 -37.5z" />
    <glyph glyph-name="summation" unicode="&#x2211;" horiz-adv-x="567" 
d="M49 -103q-11 -12 -14.5 -20t-3.5 -19v-18q0 -5 4.5 -6t17.5 -1h498q9 0 9 26v4q0 15 -2 21t-7 6h-427l294 363q4 5 5.5 10.5t1.5 16.5v14q0 11 -1.5 15.5t-4.5 8.5l-290 345h423q5 0 7 6t2 21v4q0 26 -9 26h-494q-13 0 -17.5 -1t-4.5 -6v-18q0 -11 3.5 -19t14.5 -20
l312 -375z" />
    <glyph glyph-name="product" unicode="&#x220f;" horiz-adv-x="698" 
d="M658 663q5 0 7 6t2 21v4q0 26 -9 26h-619q-9 0 -9 -26v-4q0 -15 2 -21t7 -6h93v-821q0 -9 29 -9h8q32 0 32 9v821h295v-821q0 -9 32 -9h8q29 0 29 9v821h93z" />
    <glyph glyph-name="integral" unicode="&#x222b;" horiz-adv-x="364" 
d="M185 48q0 -66 -22.5 -101.5t-81.5 -35.5q-17 0 -39 5q-5 1 -7.5 -1.5t-6.5 -18.5l-3 -13q-3 -13 -3 -16.5t4 -5.5q14 -5 29.5 -6.5t29.5 -1.5q83 0 128 50t45 145q0 66 -12.5 126.5t-27.5 119.5t-27.5 118t-12.5 123q0 66 22.5 101.5t81.5 35.5q17 0 39 -5q5 -1 7.5 1.5
t6.5 18.5l3 13q3 13 3 16.5t-4 5.5q-14 5 -29.5 6.5t-29.5 1.5q-83 0 -128 -50t-45 -145q0 -66 12.5 -126.5t27.5 -119.5t27.5 -118t12.5 -123z" />
    <glyph glyph-name="litre" unicode="&#x2113;" horiz-adv-x="245" 
d="M136 460v82t-0.5 81.5t-1.5 72.5t-2 55q0 5 -6 7t-23 2h-8q-16 0 -22 -2t-6 -7q1 -30 2 -59t1.5 -61t0.5 -68v-80v-351q0 -42 3.5 -66.5t11.5 -37.5q12 -17 29.5 -22.5t36.5 -5.5q9 0 20 1.5t21 4.5q8 2 9.5 6.5t-0.5 15.5l-1 7q-2 13 -3.5 16t-5.5 2q-5 -1 -9.5 -1.5
t-10.5 -0.5q-23 0 -29.5 14t-6.5 47v348z" />
    <glyph glyph-name="estimated" unicode="&#x212e;" horiz-adv-x="922" 
d="M872 352v8q0 77 -32.5 144.5t-88 117.5t-130 79t-159.5 29t-160 -29t-131 -79t-88.5 -117.5t-32.5 -144.5t32.5 -144t88.5 -117.5t131 -79.5t160 -29q100 0 184 39t141 105h-60q-48 -57 -116 -89.5t-148 -32.5q-75 0 -140 30t-113 78q-9 12 -9 24v202q0 6 5 6h666z
M721 377q0 -6 -5 -6h-510q-5 0 -5 6v199q0 16 10 26q49 48 113 77t139 29q72 0 136 -27.5t112 -75.5q10 -12 10 -25v-203z" />
    <glyph glyph-name="numero" unicode="&#x2116;" horiz-adv-x="1077" 
d="M733 455q0 -27 5 -54t18 -48.5t35 -35.5t56 -14q24 0 46.5 9t39 28.5t26.5 50t10 72.5q0 27 -5 54t-18 48.5t-35 35.5t-56 14q-24 0 -46.5 -9t-39 -28.5t-26.5 -50t-10 -72.5zM1031 468q0 -104 -51 -161t-137 -57q-43 0 -75.5 15t-54 42t-32 63.5t-10.5 79.5
q0 104 51 161t137 57q43 0 75.5 -15t54 -42t32 -63.5t10.5 -79.5zM142 625v-616q0 -5 -5.5 -7t-22.5 -2h-7q-17 0 -22 2t-5 7v702q0 5 6 7t23 2h7q25 0 33 -2t12 -8l374 -615v616q0 5 5 7t22 2h7q17 0 22.5 -2t5.5 -7v-702q0 -5 -6 -7t-23 -2h-7q-25 0 -33 2t-12 8z" />
    <glyph glyph-name="zero.lprop" horiz-adv-x="573" 
d="M290 672q81 0 123 -74t42 -226q0 -160 -44 -242t-129 -82q-163 0 -163 304q0 161 44.5 240.5t126.5 79.5zM294 730q-118 0 -182.5 -97t-64.5 -288q0 -182 62 -268.5t169 -86.5q119 0 183.5 99t64.5 288q0 93 -16 159.5t-46 109.5t-73 63.5t-97 20.5z" />
    <glyph glyph-name="one.lprop" horiz-adv-x="474" 
d="M108 54q-5 0 -7 -4t-2 -20v-7q0 -15 2 -19t7 -4h294q5 0 7 4t2 19v7q0 16 -2 20t-7 4h-108v659q0 7 -20 7h-13q-14 0 -22.5 -3t-19.5 -9l-178 -108q-7 -5 -7 -9.5t7 -16.5l5 -9q7 -12 11 -14.5t11 1.5l157 95v-593h-117z" />
    <glyph glyph-name="two.lprop" horiz-adv-x="525" 
d="M33 25q0 -15 2 -20t7 -5h378q5 0 7 5t2 20v8q0 16 -2 20.5t-7 4.5h-309l127 147q43 50 76.5 94t56 84t34 78.5t11.5 77.5q0 45 -15.5 80.5t-42.5 60t-63.5 37.5t-78.5 13q-51 0 -98.5 -16t-84.5 -39q-5 -4 -4.5 -9t5.5 -16l5 -10q6 -11 10.5 -13t11.5 2q35 19 71 31
t80 12q58 0 97 -34.5t39 -102.5q0 -31 -9.5 -63.5t-29 -69t-49.5 -78.5t-72 -91l-145 -171q-8 -9 -9 -16t-1 -18v-3z" />
    <glyph glyph-name="three.lprop" horiz-adv-x="527" 
d="M169 352q52 0 94 -12.5t71 -39.5q20 -18 30.5 -43t10.5 -58q0 -35 -11 -61t-31 -45q-48 -45 -138 -45q-31 0 -66 7t-66 19q-8 3 -11.5 0t-8.5 -14l-4 -10q-5 -14 -4.5 -19t6.5 -8q32 -15 76.5 -24t86.5 -9q47 0 90.5 13t76.5 39.5t52.5 66.5t19.5 93q0 39 -13.5 70
t-35.5 53.5t-50 37t-56 20.5q57 17 93 61t36 106q0 39 -12.5 69t-34.5 53q-29 29 -68.5 43.5t-87.5 14.5q-42 0 -86 -11.5t-76 -28.5q-5 -3 -4.5 -8.5t5.5 -17.5l4 -10q5 -11 9 -13t12 2q29 12 63.5 21t68.5 9q32 0 60 -10t48 -32q14 -16 22.5 -37.5t8.5 -50.5
q0 -31 -9.5 -53.5t-26.5 -39.5q-25 -24 -62.5 -34.5t-85.5 -10.5h-17q-5 0 -7 -4t-2 -20v-6q0 -15 2 -19t7 -4h21z" />
    <glyph glyph-name="four.lprop" horiz-adv-x="554" 
d="M41 273q-11 -22 -11 -51v-21q0 -5 6 -6.5t26 -1.5h281v-184q0 -9 29 -9h7q32 0 32 9v184h96q6 0 7.5 4.5t1.5 22.5v2q0 18 -1.5 23t-7.5 5h-96v172q0 9 -32 9h-7q-29 0 -29 -9v-172h-245l215 457q4 8 -2 10.5t-26 2.5h-7q-20 0 -25 -3t-7 -8z" />
    <glyph glyph-name="five.lprop" horiz-adv-x="525" 
d="M150 662h277q5 0 7 5t2 20v8q0 16 -2 20.5t-7 4.5h-344v-348q30 8 61 13t65 5q97 0 142 -48q41 -43 41 -118q0 -83 -48 -129q-23 -23 -58 -35t-81 -12q-33 0 -65.5 6.5t-60.5 17.5q-8 3 -12 -0.5t-8 -12.5l-4 -10q-5 -14 -4.5 -19.5t6.5 -8.5q10 -6 26.5 -11.5t36.5 -10
t42.5 -7t45.5 -2.5q58 0 104.5 17.5t79.5 49t50.5 75t17.5 96.5q0 49 -16 87.5t-44 65.5q-65 63 -176 63q-42 0 -74 -8v226z" />
    <glyph glyph-name="six.lprop" horiz-adv-x="545" 
d="M431 657q8 -3 12 -1.5t9 12.5l4 10q5 12 5.5 17.5t-4.5 8.5q-24 12 -54 19t-67 7q-76 0 -130.5 -39t-90 -100.5t-52 -138t-16.5 -152.5q0 -71 13.5 -128t42 -97.5t71.5 -62.5t103 -22q52 0 93 17.5t69 49t42.5 73.5t14.5 92q0 48 -13.5 88.5t-39.5 70.5t-65.5 47
t-91.5 17q-46 0 -88 -15t-76 -38q8 55 24 106t41.5 90t62 62.5t86.5 23.5t95 -17zM117 336q33 21 74.5 37.5t86.5 16.5q43 0 72 -15t46 -40t24 -56t7 -63q0 -76 -38.5 -123t-110.5 -47q-89 0 -125 73t-36 217z" />
    <glyph glyph-name="seven.lprop" horiz-adv-x="460" 
d="M434 641q5 11 6.5 19t1.5 20v34q0 4 -4.5 5t-17.5 1h-391q-5 0 -7 -4.5t-2 -20.5v-8q0 -15 2 -20t7 -5h349l-272 -649q-3 -8 2.5 -10.5t25.5 -2.5h8q20 0 25 3t7 8z" />
    <glyph glyph-name="eight.lprop" horiz-adv-x="563" 
d="M483 560q0 39 -16 70.5t-43 53.5t-62.5 34t-74.5 12t-75 -12t-64 -34.5t-44.5 -55.5t-16.5 -75q0 -33 10 -59t27 -46t40 -36.5t49 -29.5q-35 -12 -64.5 -32t-50.5 -46t-33 -57t-12 -65q0 -48 18.5 -84t49 -60t70.5 -36t83 -12q49 0 92 14.5t75 41t50.5 64.5t18.5 86
q0 39 -15 67.5t-39 51t-55 40t-64 33.5q28 13 54.5 30t46.5 38t32.5 47t12.5 57zM443 189q0 -32 -12.5 -58.5t-34.5 -45t-52 -29t-65 -10.5q-33 0 -61.5 9.5t-50 27.5t-33.5 44t-12 59q0 57 36.5 101.5t105.5 69.5q33 -16 65.5 -31.5t57.5 -34.5t40.5 -43.5t15.5 -58.5z
M154 559q0 49 35 82.5t96 33.5q58 0 94.5 -32.5t36.5 -84.5q0 -48 -36.5 -84.5t-92.5 -61.5q-27 13 -51 27.5t-42.5 32t-29 39t-10.5 48.5z" />
    <glyph glyph-name="nine.lprop" horiz-adv-x="545" 
d="M110 69q-8 4 -12 2t-9 -13l-4 -10q-5 -12 -5.5 -17.5t4.5 -8.5q25 -14 64 -23t75 -9q55 0 94 16.5t71 46.5q56 54 83 148t27 218q0 70 -14 127t-43 98t-72.5 63.5t-103.5 22.5q-52 0 -92 -18t-67.5 -49.5t-42 -74t-14.5 -91.5q0 -48 13.5 -88.5t39.5 -70t65.5 -46.5
t91.5 -17q46 0 89 15t76 38q-9 -82 -28.5 -141.5t-54.5 -94.5q-24 -24 -52.5 -35t-70.5 -11q-29 0 -56 6t-52 17zM429 384q-33 -21 -75 -37.5t-87 -16.5q-44 0 -72.5 15t-45.5 39.5t-24 55.5t-7 63q0 77 38 124t109 47q89 0 126.5 -74t37.5 -216z" />
    <glyph glyph-name="dollar.lprop" horiz-adv-x="525" 
d="M53 47q29 -23 75 -38.5t100 -17.5v-81q0 -5 4.5 -6.5t18.5 -1.5h3q25 0 25 8v82q44 4 80.5 20t62 41t39.5 59t14 74q0 45 -16.5 77t-43.5 56.5t-60.5 43.5t-67.5 36q-28 15 -54 29.5t-46 32.5t-32 40t-12 51q0 57 40 89t100 32q38 0 71.5 -11t63.5 -28q5 -3 9 -0.5
t12 16.5l3 5q7 12 8 17t-5 9q-26 17 -59 29t-68 17v86q0 8 -25 8h-3q-14 0 -18.5 -1.5t-4.5 -6.5v-84q-39 -2 -73.5 -15.5t-61 -36.5t-42 -55.5t-15.5 -72.5q0 -41 14.5 -72t38 -54.5t53.5 -42t62 -34.5q31 -16 60.5 -32t52.5 -34.5t37 -42t14 -54.5q0 -60 -45.5 -98
t-120.5 -38q-38 0 -79 12t-81 38q-5 3 -9 -0.5t-12 -15.5l-3 -5q-8 -14 -8.5 -19.5t4.5 -9.5z" />
    <glyph glyph-name="cent.lprop" horiz-adv-x="514" 
d="M424 194q-29 -15 -59.5 -23t-66.5 -8q-47 0 -80 16t-54 44t-30.5 64.5t-9.5 78.5q0 91 45.5 146.5t132.5 55.5q32 0 62 -8.5t64 -31.5q9 -6 20 13l6 10q6 11 7.5 15.5t-6.5 9.5q-27 20 -61.5 32t-73.5 15v99q0 8 -25 8h-3q-14 0 -18.5 -1.5t-4.5 -6.5v-100
q-51 -5 -91 -27t-67.5 -57t-42 -81t-14.5 -98q0 -44 12 -87t37 -78t63.5 -58.5t91.5 -29.5v-98q0 -5 4.5 -6.5t18.5 -1.5h3q25 0 25 8v97q42 2 75.5 13.5t62.5 28.5q6 4 7 8t-5 18l-4 9q-6 13 -10.5 14t-10.5 -2z" />
    <glyph glyph-name="Euro.lprop" horiz-adv-x="597" 
d="M55 460q-5 0 -6.5 -3.5t-1.5 -17.5v-3q0 -14 1.5 -18.5t6.5 -4.5h65q-1 -15 -1.5 -30.5t-0.5 -31.5v-21.5t1 -21.5h-77q-5 0 -6.5 -3.5t-1.5 -17.5v-3q0 -14 1.5 -18.5t6.5 -4.5h82q10 -63 33 -115t59 -87q33 -32 76.5 -50.5t101.5 -18.5q48 0 86.5 10.5t73.5 27.5
q6 3 6 8t-5 17l-4 10q-8 20 -18 15q-32 -14 -62.5 -21.5t-62.5 -7.5q-91 0 -143 57t-68 155h226q5 0 6.5 4.5t1.5 18.5v3q0 14 -1.5 17.5t-6.5 3.5h-232q-1 11 -1 23v25v28.5t2 28.5h244q5 0 6.5 4.5t1.5 18.5v3q0 14 -1.5 17.5t-6.5 3.5h-238q16 97 65.5 154t138.5 57
q59 0 130 -34q5 -2 9 0.5t9 13.5l5 11q5 11 6 16t-4 8q-32 19 -72.5 31.5t-87.5 12.5q-103 0 -176 -67.5t-95 -202.5h-71z" />
    <glyph glyph-name="florin.lprop" horiz-adv-x="498" 
d="M168 118q-11 -87 -39.5 -131.5t-91.5 -44.5q-12 0 -25 2t-26 5q-6 2 -9 -1t-7 -15l-3 -10q-3 -11 -3.5 -16t4.5 -8q12 -6 31 -10t40 -4q85 0 133 58t64 184l32 258h139q5 0 6.5 5t1.5 19v3q0 14 -1.5 18t-6.5 4h-133l9 72q10 87 39 131.5t92 44.5q12 0 25 -2t26 -5
q6 -2 9 1t7 15l3 10q3 11 3.5 16t-4.5 8q-12 6 -31 10t-40 4q-85 0 -133 -58t-64 -184l-8 -63h-114q-5 0 -6.5 -4t-1.5 -18v-3q0 -14 1.5 -19t6.5 -5h108z" />
    <glyph glyph-name="sterling.lprop" horiz-adv-x="554" 
d="M463 658q7 -4 11.5 -2t10.5 13l5 10q10 20 1 25q-31 17 -65 26t-66 9q-54 0 -93.5 -17.5t-65 -48.5t-38 -74.5t-12.5 -94.5v-104h-89q-5 0 -6.5 -4.5t-1.5 -18.5v-1q0 -25 8 -25h89v-108q0 -60 -17.5 -103t-65.5 -78q-4 -3 -5.5 -9t-1.5 -20v-5q0 -28 8 -28h429q8 0 8 28
v5q0 26 -8 26h-354q21 18 36 36t24 40t13 50.5t4 67.5v98h195q8 0 8 25v1q0 14 -1.5 18.5t-6.5 4.5h-195v104q0 38 6.5 71t22 57t43 37.5t69.5 13.5q50 0 101 -25z" />
    <glyph glyph-name="yen.lprop" horiz-adv-x="533" 
d="M84 381q-5 0 -6.5 -4.5t-1.5 -18.5v-3q0 -25 8 -25h121l25 -52v-39h-146q-5 0 -6.5 -4.5t-1.5 -18.5v-3q0 -25 8 -25h146v-179q0 -9 29 -9h8q32 0 32 9v179h146q8 0 8 25v3q0 14 -1.5 18.5t-6.5 4.5h-146v39l24 52h122q8 0 8 25v3q0 14 -1.5 18.5t-6.5 4.5h-98l156 327
q3 6 -2 9t-22 3h-9q-19 0 -25 -1.5t-9 -7.5l-165 -371l-167 369q-3 6 -10 8.5t-28 2.5h-8q-22 0 -26.5 -3.5t-2.5 -8.5l152 -327h-97z" />
    <glyph glyph-name="numbersign.lprop" horiz-adv-x="594" 
d="M313 0h12q10 0 13.5 2t5.5 8l43 205h116q5 0 7 3t2 14v6q0 11 -2 14t-7 3h-107l46 215h107q5 0 7 3t2 14v6q0 11 -2 14t-7 3h-99l42 200q1 5 -2 7.5t-14 2.5h-12q-17 0 -19 -10l-42 -200h-157l42 200q1 5 -2 7.5t-14 2.5h-13q-17 0 -19 -10l-42 -200h-107q-5 0 -7 -3
t-2 -14v-6q0 -11 2 -14t7 -3h99l-48 -215h-97q-5 0 -7 -3t-2 -14v-6q0 -11 2 -14t7 -3h90l-43 -205q-1 -5 2 -7.5t14 -2.5h13q10 0 13.5 2t5.5 8l43 205h157l-43 -205q-1 -5 2 -7.5t14 -2.5zM238 470h157l-47 -215h-157z" />
    <glyph glyph-name="percent.lprop" horiz-adv-x="886" 
d="M214 683q47 0 71 -38t24 -111q0 -78 -26 -119.5t-74 -41.5t-72 38.5t-24 111.5q0 80 28 120t73 40zM217 730q-78 0 -122.5 -54t-44.5 -157q0 -99 42 -146.5t114 -47.5q78 0 122.5 54.5t44.5 156.5q0 100 -42 147t-114 47zM242 -5q-4 -8 -0.5 -10.5t18.5 -2.5h10
q15 0 20.5 2.5t8.5 8.5l345 731q4 8 0 10.5t-19 2.5h-10q-17 0 -21.5 -2.5t-7.5 -8.5zM677 348q47 0 71 -38t24 -111q0 -78 -26 -119.5t-74 -41.5t-72 38.5t-24 111.5q0 80 28 120t73 40zM680 395q-78 0 -122.5 -54t-44.5 -157q0 -99 42 -146.5t114 -47.5q78 0 122.5 54.5
t44.5 156.5q0 100 -42 147t-114 47z" />
    <glyph glyph-name="perthousand.lprop" horiz-adv-x="1270" 
d="M214 683q47 0 71 -38t24 -111q0 -78 -26 -119.5t-74 -41.5t-72 38.5t-24 111.5q0 80 28 120t73 40zM217 730q-78 0 -122.5 -54t-44.5 -157q0 -99 42 -146.5t114 -47.5q78 0 122.5 54.5t44.5 156.5q0 100 -42 147t-114 47zM242 -5q-4 -8 -0.5 -10.5t18.5 -2.5h10
q15 0 20.5 2.5t8.5 8.5l345 731q4 8 0 10.5t-19 2.5h-10q-17 0 -21.5 -2.5t-7.5 -8.5zM677 348q47 0 71 -38t24 -111q0 -78 -26 -119.5t-74 -41.5t-72 38.5t-24 111.5q0 80 28 120t73 40zM680 395q-78 0 -122.5 -54t-44.5 -157q0 -99 42 -146.5t114 -47.5q78 0 122.5 54.5
t44.5 156.5q0 100 -42 147t-114 47zM1061 348q47 0 71 -38t24 -111q0 -78 -26 -119.5t-74 -41.5t-72 38.5t-24 111.5q0 80 28 120t73 40zM1064 395q-78 0 -122.5 -54t-44.5 -157q0 -99 42 -146.5t114 -47.5q78 0 122.5 54.5t44.5 156.5q0 100 -42 147t-114 47z" />
    <glyph glyph-name="fraction" unicode="&#x2044;" horiz-adv-x="323" 
d="M336 738q-17 0 -21.5 -2.5t-7.5 -8.5l-344 -731q-4 -8 -0.5 -10.5t18.5 -2.5h7q17 0 21.5 2.5t7.5 8.5l344 731q4 8 0.5 10.5t-18.5 2.5h-7z" />
    <glyph glyph-name="onehalf" unicode="&#xbd;" horiz-adv-x="904" 
d="M309 329q3 0 4.5 3t1.5 14v4q0 11 -1 14.5t-5 3.5h-60v348q0 7 -15 7h-18q-11 0 -19 -2.5t-16 -7.5l-96 -56q-5 -3 -5 -7t6 -14l3 -5q6 -10 9 -12t7 0l89 52v-303h-64q-4 0 -5 -3.5t-1 -14.5v-4q0 -11 1.5 -14t4.5 -3h179zM616 738q-17 0 -21.5 -2.5t-7.5 -8.5l-344 -731
q-4 -8 -0.5 -10.5t18.5 -2.5h7q17 0 21.5 2.5t7.5 8.5l344 731q4 8 0.5 10.5t-18.5 2.5h-7zM568 345q5 -9 8 -11t8 1q19 10 41.5 16.5t45.5 6.5q35 0 56.5 -15t21.5 -53q0 -17 -5 -33.5t-16.5 -35t-30.5 -41.5t-47 -53l-79 -85q-4 -4 -6 -8t-2 -13v-5q0 -16 7 -16h234
q5 0 6.5 3t1.5 16v4q0 13 -1.5 16.5t-6.5 3.5h-173l83 87q25 26 42 47t27.5 40t15 37.5t4.5 39.5q0 52 -34 79.5t-91 27.5q-35 0 -65 -9t-50 -22q-4 -2 -4 -5.5t5 -12.5z" />
    <glyph glyph-name="onequarter" unicode="&#xbc;" horiz-adv-x="904" 
d="M323 329q3 0 4.5 3t1.5 14v4q0 11 -1 14.5t-5 3.5h-60v348q0 7 -15 7h-18q-11 0 -19 -2.5t-16 -7.5l-96 -56q-5 -3 -5 -7t6 -14l3 -5q6 -10 9 -12t7 0l89 52v-303h-64q-4 0 -5 -3.5t-1 -14.5v-4q0 -11 1.5 -14t4.5 -3h179zM638 738q-17 0 -21.5 -2.5t-7.5 -8.5l-344 -731
q-4 -8 -0.5 -10.5t18.5 -2.5h7q17 0 21.5 2.5t7.5 8.5l344 731q4 8 0.5 10.5t-18.5 2.5h-7zM729 384q6 10 -22 10h-4q-15 0 -19 -1.5t-6 -5.5l-117 -223q-7 -14 -7 -29v-27q0 -5 4.5 -6.5t16.5 -1.5h160v-92q0 -5 4.5 -6.5t19.5 -1.5h7q14 0 18.5 2t4.5 6v92h48q3 0 4.5 3.5
t1.5 14.5v5q0 12 -1 15.5t-5 3.5h-48v89q0 4 -4.5 6t-18.5 2h-7q-15 0 -19.5 -1.5t-4.5 -6.5v-89h-133z" />
    <glyph glyph-name="threequarters" unicode="&#xbe;" horiz-adv-x="904" 
d="M616 738q-17 0 -21.5 -2.5t-7.5 -8.5l-344 -731q-4 -8 -0.5 -10.5t18.5 -2.5h7q17 0 21.5 2.5t7.5 8.5l344 731q4 8 0.5 10.5t-18.5 2.5h-7zM707 384q6 10 -22 10h-4q-15 0 -19 -1.5t-6 -5.5l-117 -223q-7 -14 -7 -29v-27q0 -5 4.5 -6.5t16.5 -1.5h160v-92q0 -5 4.5 -6.5
t19.5 -1.5h7q14 0 18.5 2t4.5 6v92h48q3 0 4.5 3.5t1.5 14.5v5q0 12 -1 15.5t-5 3.5h-48v89q0 4 -4.5 6t-18.5 2h-7q-15 0 -19.5 -1.5t-4.5 -6.5v-89h-133zM89 362q-5 -11 -4.5 -15t5.5 -6q23 -10 47.5 -14.5t49.5 -4.5q30 0 57.5 7.5t49 22.5t34 37.5t12.5 53.5
q0 22 -7.5 39t-19.5 29t-27 19t-30 9q30 8 50 32.5t20 57.5q0 27 -11.5 46t-30 31t-42.5 18t-49 6q-26 0 -51.5 -6t-45.5 -17q-5 -2 -4 -5.5t5 -11.5l3 -7q4 -8 6.5 -10.5t9.5 0.5q17 8 36 11.5t37 3.5q33 0 57.5 -14t24.5 -48q0 -18 -8 -31.5t-22 -21.5t-32 -12t-38 -4h-27
q-3 0 -4.5 -2t-1.5 -13v-11q0 -11 1.5 -13.5t4.5 -2.5h29q53 0 83 -19t30 -56q0 -36 -27.5 -55.5t-69.5 -19.5q-41 0 -81 16q-7 2 -9.5 -0.5t-6.5 -10.5z" />
    <glyph glyph-name="Agrave" unicode="&#xc0;" horiz-adv-x="626" 
d="M524 10q2 -6 9.5 -8t27.5 -2h10q22 0 27 3t3 8l-246 696q-3 8 -11.5 10.5t-31.5 2.5h-2q-23 0 -31.5 -2.5t-11.5 -10.5l-242 -696q-2 -5 3 -8t26 -3h5q17 0 25 2t10 8l61 184h308zM310 657l135 -407h-272zM265 913q-17 0 -21 -2.5t0 -7.5l88 -119q3 -4 8 -5t19 -1h4
q24 0 20 7l-67 118q-3 5 -9.5 7.5t-26.5 2.5h-15z" />
    <glyph glyph-name="Aacute" unicode="&#xc1;" horiz-adv-x="626" 
d="M524 10q2 -6 9.5 -8t27.5 -2h10q22 0 27 3t3 8l-246 696q-3 8 -11.5 10.5t-31.5 2.5h-2q-23 0 -31.5 -2.5t-11.5 -10.5l-242 -696q-2 -5 3 -8t26 -3h5q17 0 25 2t10 8l61 184h308zM310 657l135 -407h-272zM345 913q-20 0 -26.5 -2.5t-9.5 -7.5l-67 -118q-4 -7 20 -7h4
q14 0 19 1t8 5l88 119q4 5 0 7.5t-21 2.5h-15z" />
    <glyph glyph-name="Acircumflex" unicode="&#xc2;" horiz-adv-x="626" 
d="M524 10q2 -6 9.5 -8t27.5 -2h10q22 0 27 3t3 8l-246 696q-3 8 -11.5 10.5t-31.5 2.5h-2q-23 0 -31.5 -2.5t-11.5 -10.5l-242 -696q-2 -5 3 -8t26 -3h5q17 0 25 2t10 8l61 184h308zM310 657l135 -407h-272zM300 921q-15 0 -22 -2.5t-12 -7.5l-94 -100q-5 -5 4 -16l5 -6
q10 -11 16 -6l116 97l116 -97q6 -5 16 6l5 6q9 11 4 16l-94 100q-5 5 -12 7.5t-22 2.5h-26z" />
    <glyph glyph-name="Atilde" unicode="&#xc3;" horiz-adv-x="626" 
d="M524 10q2 -6 9.5 -8t27.5 -2h10q22 0 27 3t3 8l-246 696q-3 8 -11.5 10.5t-31.5 2.5h-2q-23 0 -31.5 -2.5t-11.5 -10.5l-242 -696q-2 -5 3 -8t26 -3h5q17 0 25 2t10 8l61 184h308zM310 657l135 -407h-272zM463 857q5 6 -2 16l-8 10q-6 8 -9.5 9t-6.5 -1
q-17 -16 -29.5 -23t-28.5 -7q-17 0 -31.5 6t-29 13t-30.5 13t-37 6q-26 0 -50 -13.5t-38 -30.5q-5 -6 2 -16l8 -10q10 -13 16 -8q17 16 29.5 23t28.5 7q17 0 31.5 -6t29 -13t30.5 -13t37 -6q26 0 50 13.5t38 30.5z" />
    <glyph glyph-name="Adieresis" unicode="&#xc4;" horiz-adv-x="626" 
d="M524 10q2 -6 9.5 -8t27.5 -2h10q22 0 27 3t3 8l-246 696q-3 8 -11.5 10.5t-31.5 2.5h-2q-23 0 -31.5 -2.5t-11.5 -10.5l-242 -696q-2 -5 3 -8t26 -3h5q17 0 25 2t10 8l61 184h308zM310 657l135 -407h-272zM162 846q0 -20 13.5 -33.5t33.5 -13.5t34 13.5t14 33.5t-14 34
t-34 14t-33.5 -14t-13.5 -34zM364 846q0 -20 13.5 -33.5t33.5 -13.5t34 13.5t14 33.5t-14 34t-34 14t-33.5 -14t-13.5 -34z" />
    <glyph glyph-name="Amacron" unicode="&#x100;" horiz-adv-x="626" 
d="M524 10q2 -6 9.5 -8t27.5 -2h10q22 0 27 3t3 8l-246 696q-3 8 -11.5 10.5t-31.5 2.5h-2q-23 0 -31.5 -2.5t-11.5 -10.5l-242 -696q-2 -5 3 -8t26 -3h5q17 0 25 2t10 8l61 184h308zM310 657l135 -407h-272zM182 874q-5 0 -6.5 -4.5t-1.5 -18.5v-3q0 -25 8 -25h262
q8 0 8 25v3q0 14 -1.5 18.5t-6.5 4.5h-262z" />
    <glyph glyph-name="Abreve" unicode="&#x102;" horiz-adv-x="626" 
d="M524 10q2 -6 9.5 -8t27.5 -2h10q22 0 27 3t3 8l-246 696q-3 8 -11.5 10.5t-31.5 2.5h-2q-23 0 -31.5 -2.5t-11.5 -10.5l-242 -696q-2 -5 3 -8t26 -3h5q17 0 25 2t10 8l61 184h308zM310 657l135 -407h-272zM313 795q28 0 53 7.5t43.5 22t29 35t10.5 46.5q0 3 -2.5 4.5
t-16.5 1.5h-12q-13 0 -15.5 -1.5t-3.5 -8.5q-4 -32 -26 -49t-60 -17t-60 17t-26 49q-1 7 -3.5 8.5t-15.5 1.5h-12q-14 0 -16.5 -1.5t-2.5 -4.5q0 -26 10.5 -46.5t29 -35t43 -22t53.5 -7.5z" />
    <glyph glyph-name="Acaron" unicode="&#x1cd;" horiz-adv-x="626" 
d="M524 10q2 -6 9.5 -8t27.5 -2h10q22 0 27 3t3 8l-246 696q-3 8 -11.5 10.5t-31.5 2.5h-2q-23 0 -31.5 -2.5t-11.5 -10.5l-242 -696q-2 -5 3 -8t26 -3h5q17 0 25 2t10 8l61 184h308zM310 657l135 -407h-272zM263 798q5 -5 12 -7.5t22 -2.5h26q15 0 22 2.5t12 7.5l94 100
q3 4 2.5 6.5t-6.5 9.5l-5 6q-6 7 -9 8t-7 -2l-116 -97l-116 97q-4 3 -7 2t-9 -8l-5 -6q-6 -7 -6.5 -9.5t2.5 -6.5z" />
    <glyph glyph-name="Aring" unicode="&#xc5;" horiz-adv-x="626" 
d="M219 782q0 -26 13 -46.5t34 -31.5l-241 -693q-2 -5 3 -8t26 -3h5q17 0 25 2t10 8l61 184h308l61 -184q2 -6 9.5 -8t27.5 -2h10q22 0 27 3t3 8l-245 691q23 11 37 32t14 48q0 19 -7.5 35.5t-20.5 28.5t-30 19t-36 7t-36 -7t-30 -19t-20.5 -28.5t-7.5 -35.5zM310 657
l135 -407h-272zM262 782q0 23 15 37t36 14q23 0 36 -15t13 -36t-13 -36t-36 -15q-21 0 -36 14t-15 37z" />
    <glyph glyph-name="Aringacute" unicode="&#x1fa;" horiz-adv-x="626" 
d="M219 782q0 19 7.5 35.5t20.5 28.5t30 19t36 7t36 -7t30 -19t20.5 -28.5t7.5 -35.5q0 -27 -14 -48t-37 -32l245 -691q2 -5 -3 -8t-27 -3h-10q-20 0 -27.5 2t-9.5 8l-61 184h-308l-61 -184q-2 -6 -10 -8t-25 -2h-5q-21 0 -26 3t-3 8l241 693q-21 11 -34 31.5t-13 46.5z
M173 250h272l-135 407zM262 782q0 -23 15 -37t36 -14q23 0 36 15t13 36t-13 36t-36 15q-21 0 -36 -14t-15 -37zM360 1033q17 0 21 -2.5t0 -7.5l-88 -119q-3 -4 -8 -5t-19 -1h-4q-24 0 -20 7l67 118q3 5 9.5 7.5t26.5 2.5h15z" />
    <glyph glyph-name="Aogonek" unicode="&#x104;" horiz-adv-x="626" 
d="M599 -213q5 2 2 18l-1 5q-2 10 -4.5 12.5t-5.5 1.5q-11 -3 -23.5 -6t-25.5 -3q-27 0 -42.5 14.5t-15.5 42.5q0 34 21 67q15 24 39.5 40.5t50.5 21.5q10 1 7 10l-246 696q-3 8 -11.5 10.5t-31.5 2.5h-2q-23 0 -31.5 -2.5t-11.5 -10.5l-242 -696q-2 -5 3 -8t26 -3h5
q17 0 25 2t10 8l61 184h308l61 -185q-47 -26 -72.5 -63.5t-25.5 -80.5t29.5 -68.5t70.5 -25.5q38 0 73 16zM310 657l135 -407h-272z" />
    <glyph glyph-name="AE" unicode="&#xc6;" horiz-adv-x="895" 
d="M10 11q-3 -5 1.5 -8t27.5 -3h6q17 0 25 2.5t11 7.5l107 189h255v-199h390q5 0 7 5t2 22v4q0 16 -2 21t-7 5h-321v279h269q5 0 7 5t2 22v4q0 16 -2 21t-7 5h-269v270h317q5 0 7 5t2 22v4q0 16 -2 21t-7 5h-386q-20 0 -24.5 -2.5t-8.5 -8.5zM220 256l223 392v-392h-223z
" />
    <glyph glyph-name="AEacute" unicode="&#x1fc;" horiz-adv-x="895" 
d="M10 11q-3 -5 1.5 -8t27.5 -3h6q17 0 25 2.5t11 7.5l107 189h255v-199h390q5 0 7 5t2 22v4q0 16 -2 21t-7 5h-321v279h269q5 0 7 5t2 22v4q0 16 -2 21t-7 5h-269v270h317q5 0 7 5t2 22v4q0 16 -2 21t-7 5h-386q-20 0 -24.5 -2.5t-8.5 -8.5zM220 256l223 392v-392h-223z
M666 913q-20 0 -26.5 -2.5t-9.5 -7.5l-67 -118q-4 -7 20 -7h4q14 0 19 1t8 5l88 119q4 5 0 7.5t-21 2.5h-15z" />
    <glyph glyph-name="Cacute" unicode="&#x106;" horiz-adv-x="564" 
d="M355 671q35 0 67.5 -9t71.5 -27q5 -2 8.5 0t9.5 14l5 11q6 12 6.5 16.5t-4.5 7.5q-35 22 -79 34t-89 12q-65 0 -120 -23.5t-96 -71t-64 -119t-23 -166.5q0 -81 19 -147.5t56 -113.5t90.5 -73t122.5 -26q50 0 96 10.5t84 30.5q6 3 6 8.5t-5 17.5l-4 10q-8 20 -18 15
q-32 -16 -68.5 -24.5t-73.5 -8.5q-118 0 -175.5 80.5t-57.5 226.5q0 72 14.5 130t43.5 99t73.5 63.5t103.5 22.5zM384 913q-20 0 -26.5 -2.5t-9.5 -7.5l-67 -118q-4 -7 20 -7h4q14 0 19 1t8 5l88 119q4 5 0 7.5t-21 2.5h-15z" />
    <glyph glyph-name="Ccedilla" unicode="&#xc7;" horiz-adv-x="564" 
d="M288 -109q11 2 26.5 3.5t26.5 1.5q28 0 44.5 -10t16.5 -33t-16.5 -33.5t-45.5 -10.5q-13 0 -27 2t-28 5q-4 1 -6 -1.5t-4 -12.5l-1 -5q-3 -16 2 -18q10 -5 30.5 -8.5t41.5 -3.5q29 0 49.5 7.5t34 20t20 28.5t6.5 34q0 35 -25 56.5t-65 21.5q-7 0 -13.5 -0.5t-13.5 -1.5
l7 57q47 2 89.5 11.5t78.5 29.5q6 3 6 8.5t-5 17.5l-4 10q-8 20 -18 15q-32 -16 -68.5 -24.5t-73.5 -8.5q-118 0 -175.5 80.5t-57.5 226.5q0 72 14.5 130t43.5 99t73.5 63.5t103.5 22.5q35 0 67.5 -9t71.5 -27q5 -2 8.5 0t9.5 14l5 11q6 12 6.5 16.5t-4.5 7.5q-35 22 -79 34
t-89 12q-65 0 -120 -23.5t-96 -71t-64 -119t-23 -166.5q0 -76 16.5 -139t49 -109.5t79.5 -75t108 -34.5z" />
    <glyph glyph-name="Ccircumflex" unicode="&#x108;" horiz-adv-x="564" 
d="M355 671q35 0 67.5 -9t71.5 -27q5 -2 8.5 0t9.5 14l5 11q6 12 6.5 16.5t-4.5 7.5q-35 22 -79 34t-89 12q-65 0 -120 -23.5t-96 -71t-64 -119t-23 -166.5q0 -81 19 -147.5t56 -113.5t90.5 -73t122.5 -26q50 0 96 10.5t84 30.5q6 3 6 8.5t-5 17.5l-4 10q-8 20 -18 15
q-32 -16 -68.5 -24.5t-73.5 -8.5q-118 0 -175.5 80.5t-57.5 226.5q0 72 14.5 130t43.5 99t73.5 63.5t103.5 22.5zM339 921q-15 0 -22 -2.5t-12 -7.5l-94 -100q-5 -5 4 -16l5 -6q10 -11 16 -6l116 97l116 -97q6 -5 16 6l5 6q9 11 4 16l-94 100q-5 5 -12 7.5t-22 2.5h-26z" />
    <glyph glyph-name="Ccaron" unicode="&#x10c;" horiz-adv-x="564" 
d="M355 671q35 0 67.5 -9t71.5 -27q5 -2 8.5 0t9.5 14l5 11q6 12 6.5 16.5t-4.5 7.5q-35 22 -79 34t-89 12q-65 0 -120 -23.5t-96 -71t-64 -119t-23 -166.5q0 -81 19 -147.5t56 -113.5t90.5 -73t122.5 -26q50 0 96 10.5t84 30.5q6 3 6 8.5t-5 17.5l-4 10q-8 20 -18 15
q-32 -16 -68.5 -24.5t-73.5 -8.5q-118 0 -175.5 80.5t-57.5 226.5q0 72 14.5 130t43.5 99t73.5 63.5t103.5 22.5zM305 798q5 -5 12 -7.5t22 -2.5h26q15 0 22 2.5t12 7.5l94 100q3 4 2.5 6.5t-6.5 9.5l-5 6q-6 7 -9 8t-7 -2l-116 -97l-116 97q-4 3 -7 2t-9 -8l-5 -6
q-6 -7 -6.5 -9.5t2.5 -6.5z" />
    <glyph glyph-name="Cdotaccent" unicode="&#x10a;" horiz-adv-x="564" 
d="M355 671q35 0 67.5 -9t71.5 -27q5 -2 8.5 0t9.5 14l5 11q6 12 6.5 16.5t-4.5 7.5q-35 22 -79 34t-89 12q-65 0 -120 -23.5t-96 -71t-64 -119t-23 -166.5q0 -81 19 -147.5t56 -113.5t90.5 -73t122.5 -26q50 0 96 10.5t84 30.5q6 3 6 8.5t-5 17.5l-4 10q-8 20 -18 15
q-32 -16 -68.5 -24.5t-73.5 -8.5q-118 0 -175.5 80.5t-57.5 226.5q0 72 14.5 130t43.5 99t73.5 63.5t103.5 22.5zM302 840q0 -20 13 -33t33 -13t33.5 13t13.5 33t-13.5 33.5t-33.5 13.5t-33 -13.5t-13 -33.5z" />
    <glyph glyph-name="Dcaron" unicode="&#x10e;" horiz-adv-x="646" 
d="M82 720v-720h163q91 0 154 22t107 66q93 93 93 275q0 173 -85 263q-45 47 -108.5 70.5t-161.5 23.5h-162zM151 664h86q41 0 73.5 -4.5t58 -13t46 -21.5t37.5 -31q38 -39 56.5 -97.5t18.5 -135.5q0 -78 -18 -138t-58 -99q-34 -33 -85 -50.5t-127 -17.5h-88v608zM274 798
q5 -5 12 -7.5t22 -2.5h26q15 0 22 2.5t12 7.5l94 100q3 4 2.5 6.5t-6.5 9.5l-5 6q-6 7 -9 8t-7 -2l-116 -97l-116 97q-4 3 -7 2t-9 -8l-5 -6q-6 -7 -6.5 -9.5t2.5 -6.5z" />
    <glyph glyph-name="Dcroat" unicode="&#x110;" horiz-adv-x="652" 
d="M88 720v-330h-58q-5 0 -6.5 -4.5t-1.5 -18.5v-3q0 -25 8 -25h58v-339h163q91 0 154 22t107 66q93 93 93 275q0 173 -85 263q-45 47 -108.5 70.5t-161.5 23.5h-162zM157 339h169q8 0 8 25v3q0 14 -1.5 18.5t-6.5 4.5h-169v274h86q41 0 73.5 -4.5t58 -13t46 -21.5t37.5 -31
q38 -39 56.5 -97.5t18.5 -135.5q0 -78 -18 -138t-58 -99q-34 -33 -85 -50.5t-127 -17.5h-88v283z" />
    <glyph glyph-name="Eth" unicode="&#xd0;" horiz-adv-x="652" 
d="M88 720v-330h-58q-5 0 -6.5 -4.5t-1.5 -18.5v-3q0 -25 8 -25h58v-339h163q91 0 154 22t107 66q93 93 93 275q0 173 -85 263q-45 47 -108.5 70.5t-161.5 23.5h-162zM157 339h169q8 0 8 25v3q0 14 -1.5 18.5t-6.5 4.5h-169v274h86q41 0 73.5 -4.5t58 -13t46 -21.5t37.5 -31
q38 -39 56.5 -97.5t18.5 -135.5q0 -78 -18 -138t-58 -99q-34 -33 -85 -50.5t-127 -17.5h-88v283z" />
    <glyph glyph-name="Egrave" unicode="&#xc8;" horiz-adv-x="534" 
d="M472 0q5 0 7 5t2 22v4q0 16 -2 21t-7 5h-321v279h269q5 0 7 5t2 22v4q0 16 -2 21t-7 5h-269v270h317q5 0 7 5t2 22v4q0 16 -2 21t-7 5h-386v-720h390zM219 913q-17 0 -21 -2.5t0 -7.5l88 -119q3 -4 8 -5t19 -1h4q24 0 20 7l-67 118q-3 5 -9.5 7.5t-26.5 2.5h-15z" />
    <glyph glyph-name="Eacute" unicode="&#xc9;" horiz-adv-x="534" 
d="M472 0q5 0 7 5t2 22v4q0 16 -2 21t-7 5h-321v279h269q5 0 7 5t2 22v4q0 16 -2 21t-7 5h-269v270h317q5 0 7 5t2 22v4q0 16 -2 21t-7 5h-386v-720h390zM339 913q-20 0 -26.5 -2.5t-9.5 -7.5l-67 -118q-4 -7 20 -7h4q14 0 19 1t8 5l88 119q4 5 0 7.5t-21 2.5h-15z" />
    <glyph glyph-name="Ecircumflex" unicode="&#xca;" horiz-adv-x="534" 
d="M472 0q5 0 7 5t2 22v4q0 16 -2 21t-7 5h-321v279h269q5 0 7 5t2 22v4q0 16 -2 21t-7 5h-269v270h317q5 0 7 5t2 22v4q0 16 -2 21t-7 5h-386v-720h390zM264 921q-15 0 -22 -2.5t-12 -7.5l-94 -100q-5 -5 4 -16l5 -6q10 -11 16 -6l116 97l116 -97q6 -5 16 6l5 6q9 11 4 16
l-94 100q-5 5 -12 7.5t-22 2.5h-26z" />
    <glyph glyph-name="Ecaron" unicode="&#x11a;" horiz-adv-x="534" 
d="M472 0q5 0 7 5t2 22v4q0 16 -2 21t-7 5h-321v279h269q5 0 7 5t2 22v4q0 16 -2 21t-7 5h-269v270h317q5 0 7 5t2 22v4q0 16 -2 21t-7 5h-386v-720h390zM240 798q5 -5 12 -7.5t22 -2.5h26q15 0 22 2.5t12 7.5l94 100q3 4 2.5 6.5t-6.5 9.5l-5 6q-6 7 -9 8t-7 -2l-116 -97
l-116 97q-4 3 -7 2t-9 -8l-5 -6q-6 -7 -6.5 -9.5t2.5 -6.5z" />
    <glyph glyph-name="Edieresis" unicode="&#xcb;" horiz-adv-x="534" 
d="M472 0q5 0 7 5t2 22v4q0 16 -2 21t-7 5h-321v279h269q5 0 7 5t2 22v4q0 16 -2 21t-7 5h-269v270h317q5 0 7 5t2 22v4q0 16 -2 21t-7 5h-386v-720h390zM140 846q0 -20 13.5 -33.5t33.5 -13.5t34 13.5t14 33.5t-14 34t-34 14t-33.5 -14t-13.5 -34zM342 846
q0 -20 13.5 -33.5t33.5 -13.5t34 13.5t14 33.5t-14 34t-34 14t-33.5 -14t-13.5 -34z" />
    <glyph glyph-name="Emacron" unicode="&#x112;" horiz-adv-x="534" 
d="M472 0q5 0 7 5t2 22v4q0 16 -2 21t-7 5h-321v279h269q5 0 7 5t2 22v4q0 16 -2 21t-7 5h-269v270h317q5 0 7 5t2 22v4q0 16 -2 21t-7 5h-386v-720h390zM147 874q-5 0 -6.5 -4.5t-1.5 -18.5v-3q0 -25 8 -25h262q8 0 8 25v3q0 14 -1.5 18.5t-6.5 4.5h-262z" />
    <glyph glyph-name="Ebreve" unicode="&#x114;" horiz-adv-x="534" 
d="M472 0q5 0 7 5t2 22v4q0 16 -2 21t-7 5h-321v279h269q5 0 7 5t2 22v4q0 16 -2 21t-7 5h-269v270h317q5 0 7 5t2 22v4q0 16 -2 21t-7 5h-386v-720h390zM281 795q28 0 53 7.5t43.5 22t29 35t10.5 46.5q0 3 -2.5 4.5t-16.5 1.5h-12q-13 0 -15.5 -1.5t-3.5 -8.5
q-4 -32 -26 -49t-60 -17t-60 17t-26 49q-1 7 -3.5 8.5t-15.5 1.5h-12q-14 0 -16.5 -1.5t-2.5 -4.5q0 -26 10.5 -46.5t29 -35t43 -22t53.5 -7.5z" />
    <glyph glyph-name="Edotaccent" unicode="&#x116;" horiz-adv-x="534" 
d="M472 0q5 0 7 5t2 22v4q0 16 -2 21t-7 5h-321v279h269q5 0 7 5t2 22v4q0 16 -2 21t-7 5h-269v270h317q5 0 7 5t2 22v4q0 16 -2 21t-7 5h-386v-720h390zM239 840q0 -20 13 -33t33 -13t33.5 13t13.5 33t-13.5 33.5t-33.5 13.5t-33 -13.5t-13 -33.5z" />
    <glyph glyph-name="Eogonek" unicode="&#x118;" horiz-adv-x="534" 
d="M472 0q5 1 7 6t2 21v4q0 16 -2 21t-7 5h-321v279h269q5 0 7 5t2 22v4q0 16 -2 21t-7 5h-269v270h317q5 0 7 5t2 22v4q0 16 -2 21t-7 5h-386v-720h293q-39 -23 -61.5 -59t-22.5 -72q0 -50 29.5 -74t70.5 -24q38 0 73 16q5 2 2 18l-1 5q-2 10 -4.5 12.5t-5.5 1.5
q-11 -3 -24 -6t-27 -3q-25 0 -40.5 14.5t-15.5 42.5q0 27 10.5 49t28 39t39.5 27t46 13z" />
    <glyph glyph-name="Gcircumflex" unicode="&#x11c;" horiz-adv-x="636" 
d="M525 625q5 -3 9 0t9 14l5 11q5 11 6 16t-4 8q-37 26 -85.5 41t-106.5 15q-72 0 -129.5 -26t-98 -75t-62 -118.5t-21.5 -156.5q0 -91 24 -163t72 -120q38 -38 92 -59.5t126 -21.5q56 0 109 13.5t102 34.5v337h-230q-5 0 -7 -5t-2 -22v-4q0 -16 2 -21t7 -5h163v-243
q-29 -12 -66 -19.5t-74 -7.5q-66 0 -112.5 23t-76 64.5t-43.5 98.5t-14 125q0 70 15 127.5t44.5 98.5t74.5 63.5t105 22.5q46 0 84.5 -11t82.5 -35zM345 921q-15 0 -22 -2.5t-12 -7.5l-94 -100q-5 -5 4 -16l5 -6q10 -11 16 -6l116 97l116 -97q6 -5 16 6l5 6q9 11 4 16
l-94 100q-5 5 -12 7.5t-22 2.5h-26z" />
    <glyph glyph-name="Gbreve" unicode="&#x11e;" horiz-adv-x="636" 
d="M525 625q5 -3 9 0t9 14l5 11q5 11 6 16t-4 8q-37 26 -85.5 41t-106.5 15q-72 0 -129.5 -26t-98 -75t-62 -118.5t-21.5 -156.5q0 -91 24 -163t72 -120q38 -38 92 -59.5t126 -21.5q56 0 109 13.5t102 34.5v337h-230q-5 0 -7 -5t-2 -22v-4q0 -16 2 -21t7 -5h163v-243
q-29 -12 -66 -19.5t-74 -7.5q-66 0 -112.5 23t-76 64.5t-43.5 98.5t-14 125q0 70 15 127.5t44.5 98.5t74.5 63.5t105 22.5q46 0 84.5 -11t82.5 -35zM358 795q28 0 53 7.5t43.5 22t29 35t10.5 46.5q0 3 -2.5 4.5t-16.5 1.5h-12q-13 0 -15.5 -1.5t-3.5 -8.5q-4 -32 -26 -49
t-60 -17t-60 17t-26 49q-1 7 -3.5 8.5t-15.5 1.5h-12q-14 0 -16.5 -1.5t-2.5 -4.5q0 -26 10.5 -46.5t29 -35t43 -22t53.5 -7.5z" />
    <glyph glyph-name="Gdotaccent" unicode="&#x120;" horiz-adv-x="636" 
d="M525 625q5 -3 9 0t9 14l5 11q5 11 6 16t-4 8q-37 26 -85.5 41t-106.5 15q-72 0 -129.5 -26t-98 -75t-62 -118.5t-21.5 -156.5q0 -91 24 -163t72 -120q38 -38 92 -59.5t126 -21.5q56 0 109 13.5t102 34.5v337h-230q-5 0 -7 -5t-2 -22v-4q0 -16 2 -21t7 -5h163v-243
q-29 -12 -66 -19.5t-74 -7.5q-66 0 -112.5 23t-76 64.5t-43.5 98.5t-14 125q0 70 15 127.5t44.5 98.5t74.5 63.5t105 22.5q46 0 84.5 -11t82.5 -35zM311 840q0 -20 13 -33t33 -13t33.5 13t13.5 33t-13.5 33.5t-33.5 13.5t-33 -13.5t-13 -33.5z" />
    <glyph glyph-name="Gcommaaccent" unicode="&#x122;" horiz-adv-x="636" 
d="M525 625q5 -3 9 0t9 14l5 11q5 11 6 16t-4 8q-37 26 -85.5 41t-106.5 15q-72 0 -129.5 -26t-98 -75t-62 -118.5t-21.5 -156.5q0 -91 24 -163t72 -120q38 -38 92 -59.5t126 -21.5q56 0 109 13.5t102 34.5v337h-230q-5 0 -7 -5t-2 -22v-4q0 -16 2 -21t7 -5h163v-243
q-29 -12 -66 -19.5t-74 -7.5q-66 0 -112.5 23t-76 64.5t-43.5 98.5t-14 125q0 70 15 127.5t44.5 98.5t74.5 63.5t105 22.5q46 0 84.5 -11t82.5 -35zM312 -270q8 -8 14 -4q41 32 63 76t22 91q0 22 -13 38t-36 16q-17 0 -29 -10.5t-12 -27.5q0 -12 5.5 -20t11.5 -15.5
t11.5 -16.5t5.5 -22q0 -21 -16 -45.5t-33 -41.5q-6 -6 1 -13z" />
    <glyph glyph-name="Hcircumflex" unicode="&#x124;" horiz-adv-x="656" 
d="M82 9q0 -9 29 -9h8q32 0 32 9v327h354v-327q0 -9 29 -9h8q32 0 32 9v702q0 9 -32 9h-8q-29 0 -29 -9v-318h-354v318q0 9 -32 9h-8q-29 0 -29 -9v-702zM315 921q-15 0 -22 -2.5t-12 -7.5l-94 -100q-5 -5 4 -16l5 -6q10 -11 16 -6l116 97l116 -97q6 -5 16 6l5 6q9 11 4 16
l-94 100q-5 5 -12 7.5t-22 2.5h-26z" />
    <glyph glyph-name="Hbar" unicode="&#x126;" horiz-adv-x="668" 
d="M88 9q0 -9 29 -9h8q32 0 32 9v327h354v-327q0 -9 29 -9h8q32 0 32 9v534h58q8 0 8 25v3q0 14 -1.5 18.5t-6.5 4.5h-58v117q0 9 -32 9h-8q-29 0 -29 -9v-117h-354v117q0 9 -32 9h-8q-29 0 -29 -9v-117h-58q-5 0 -6.5 -4.5t-1.5 -18.5v-3q0 -25 8 -25h58v-534zM157 393v150
h354v-150h-354z" />
    <glyph glyph-name="Igrave" unicode="&#xcc;" horiz-adv-x="365" 
d="M292 0q5 0 7 3.5t2 17.5v4q0 15 -2 18.5t-7 3.5h-75v626h75q5 0 7 3.5t2 17.5v4q0 15 -2 18.5t-7 3.5h-219q-5 0 -7 -3.5t-2 -18.5v-4q0 -14 2 -17.5t7 -3.5h75v-626h-75q-5 0 -7 -3.5t-2 -18.5v-4q0 -14 2 -17.5t7 -3.5h219zM135 913q-17 0 -21 -2.5t0 -7.5l88 -119
q3 -4 8 -5t19 -1h4q24 0 20 7l-67 118q-3 5 -9.5 7.5t-26.5 2.5h-15z" />
    <glyph glyph-name="Iacute" unicode="&#xcd;" horiz-adv-x="365" 
d="M292 0q5 0 7 3.5t2 17.5v4q0 15 -2 18.5t-7 3.5h-75v626h75q5 0 7 3.5t2 17.5v4q0 15 -2 18.5t-7 3.5h-219q-5 0 -7 -3.5t-2 -18.5v-4q0 -14 2 -17.5t7 -3.5h75v-626h-75q-5 0 -7 -3.5t-2 -18.5v-4q0 -14 2 -17.5t7 -3.5h219zM215 913q-20 0 -26.5 -2.5t-9.5 -7.5
l-67 -118q-4 -7 20 -7h4q14 0 19 1t8 5l88 119q4 5 0 7.5t-21 2.5h-15z" />
    <glyph glyph-name="Icircumflex" unicode="&#xce;" horiz-adv-x="365" 
d="M292 0q5 0 7 3.5t2 17.5v4q0 15 -2 18.5t-7 3.5h-75v626h75q5 0 7 3.5t2 17.5v4q0 15 -2 18.5t-7 3.5h-219q-5 0 -7 -3.5t-2 -18.5v-4q0 -14 2 -17.5t7 -3.5h75v-626h-75q-5 0 -7 -3.5t-2 -18.5v-4q0 -14 2 -17.5t7 -3.5h219zM169 921q-15 0 -22 -2.5t-12 -7.5l-94 -100
q-5 -5 4 -16l5 -6q10 -11 16 -6l116 97l116 -97q6 -5 16 6l5 6q9 11 4 16l-94 100q-5 5 -12 7.5t-22 2.5h-26z" />
    <glyph glyph-name="Itilde" unicode="&#x128;" horiz-adv-x="365" 
d="M292 0q5 0 7 3.5t2 17.5v4q0 15 -2 18.5t-7 3.5h-75v626h75q5 0 7 3.5t2 17.5v4q0 15 -2 18.5t-7 3.5h-219q-5 0 -7 -3.5t-2 -18.5v-4q0 -14 2 -17.5t7 -3.5h75v-626h-75q-5 0 -7 -3.5t-2 -18.5v-4q0 -14 2 -17.5t7 -3.5h219zM332 857q5 6 -2 16l-8 10q-6 8 -9.5 9
t-6.5 -1q-17 -16 -29.5 -23t-28.5 -7q-17 0 -31.5 6t-29 13t-30.5 13t-37 6q-26 0 -50 -13.5t-38 -30.5q-5 -6 2 -16l8 -10q10 -13 16 -8q17 16 29.5 23t28.5 7q17 0 31.5 -6t29 -13t30.5 -13t37 -6q26 0 50 13.5t38 30.5z" />
    <glyph glyph-name="Idieresis" unicode="&#xcf;" horiz-adv-x="365" 
d="M292 0q5 0 7 3.5t2 17.5v4q0 15 -2 18.5t-7 3.5h-75v626h75q5 0 7 3.5t2 17.5v4q0 15 -2 18.5t-7 3.5h-219q-5 0 -7 -3.5t-2 -18.5v-4q0 -14 2 -17.5t7 -3.5h75v-626h-75q-5 0 -7 -3.5t-2 -18.5v-4q0 -14 2 -17.5t7 -3.5h219zM34 846q0 -20 13.5 -33.5t33.5 -13.5
t34 13.5t14 33.5t-14 34t-34 14t-33.5 -14t-13.5 -34zM236 846q0 -20 13.5 -33.5t33.5 -13.5t34 13.5t14 33.5t-14 34t-34 14t-33.5 -14t-13.5 -34z" />
    <glyph glyph-name="Imacron" unicode="&#x12a;" horiz-adv-x="365" 
d="M292 0q5 0 7 3.5t2 17.5v4q0 15 -2 18.5t-7 3.5h-75v626h75q5 0 7 3.5t2 17.5v4q0 15 -2 18.5t-7 3.5h-219q-5 0 -7 -3.5t-2 -18.5v-4q0 -14 2 -17.5t7 -3.5h75v-626h-75q-5 0 -7 -3.5t-2 -18.5v-4q0 -14 2 -17.5t7 -3.5h219zM51 874q-5 0 -6.5 -4.5t-1.5 -18.5v-3
q0 -25 8 -25h262q8 0 8 25v3q0 14 -1.5 18.5t-6.5 4.5h-262z" />
    <glyph glyph-name="Ibreve" unicode="&#x12c;" horiz-adv-x="365" 
d="M292 0q5 0 7 3.5t2 17.5v4q0 15 -2 18.5t-7 3.5h-75v626h75q5 0 7 3.5t2 17.5v4q0 15 -2 18.5t-7 3.5h-219q-5 0 -7 -3.5t-2 -18.5v-4q0 -14 2 -17.5t7 -3.5h75v-626h-75q-5 0 -7 -3.5t-2 -18.5v-4q0 -14 2 -17.5t7 -3.5h219zM182 795q28 0 53 7.5t43.5 22t29 35
t10.5 46.5q0 3 -2.5 4.5t-16.5 1.5h-12q-13 0 -15.5 -1.5t-3.5 -8.5q-4 -32 -26 -49t-60 -17t-60 17t-26 49q-1 7 -3.5 8.5t-15.5 1.5h-12q-14 0 -16.5 -1.5t-2.5 -4.5q0 -26 10.5 -46.5t29 -35t43 -22t53.5 -7.5z" />
    <glyph glyph-name="Idotaccent" unicode="&#x130;" horiz-adv-x="365" 
d="M292 0q5 0 7 3.5t2 17.5v4q0 15 -2 18.5t-7 3.5h-75v626h75q5 0 7 3.5t2 17.5v4q0 15 -2 18.5t-7 3.5h-219q-5 0 -7 -3.5t-2 -18.5v-4q0 -14 2 -17.5t7 -3.5h75v-626h-75q-5 0 -7 -3.5t-2 -18.5v-4q0 -14 2 -17.5t7 -3.5h219zM136 840q0 -20 13 -33t33 -13t33.5 13
t13.5 33t-13.5 33.5t-33.5 13.5t-33 -13.5t-13 -33.5z" />
    <glyph glyph-name="Iogonek" unicode="&#x12e;" horiz-adv-x="365" 
d="M180 0q-41 -22 -62 -58.5t-21 -72.5q0 -50 29.5 -74t70.5 -24q38 0 73 16q5 2 2 18l-1 5q-2 10 -4.5 12.5t-5.5 1.5q-11 -3 -25 -6t-28 -3q-54 0 -54 57q0 22 8.5 43.5t22.5 38.5q18 22 43 34t57 12h7q5 0 7 3.5t2 17.5v4q0 15 -2 18.5t-7 3.5h-75v626h75q5 0 7 3.5
t2 17.5v4q0 15 -2 18.5t-7 3.5h-219q-5 0 -7 -3.5t-2 -18.5v-4q0 -14 2 -17.5t7 -3.5h75v-626h-75q-5 0 -7 -3.5t-2 -18.5v-4q0 -14 2 -17.5t7 -3.5h107z" />
    <glyph glyph-name="IJ" unicode="&#x132;" horiz-adv-x="803" 
d="M292 0q5 0 7 3.5t2 17.5v4q0 15 -2 18.5t-7 3.5h-75v626h75q5 0 7 3.5t2 17.5v4q0 15 -2 18.5t-7 3.5h-219q-5 0 -7 -3.5t-2 -18.5v-4q0 -14 2 -17.5t7 -3.5h75v-626h-75q-5 0 -7 -3.5t-2 -18.5v-4q0 -14 2 -17.5t7 -3.5h219zM689 720q-29 0 -29 -9v-500q0 -89 -30 -126
q-14 -17 -38.5 -27t-53.5 -10q-28 0 -56 8.5t-60 24.5q-8 4 -12 1t-10 -14l-5 -10q-6 -12 -6 -16.5t7 -9.5q29 -20 67.5 -31t80.5 -11t77.5 13t58.5 37q26 27 37.5 64.5t11.5 90.5v516q0 9 -32 9h-8z" />
    <glyph glyph-name="Jcircumflex" unicode="&#x134;" horiz-adv-x="438" 
d="M324 720q-29 0 -29 -9v-500q0 -89 -30 -126q-14 -17 -38.5 -27t-53.5 -10q-28 0 -56 8.5t-60 24.5q-8 4 -12 1t-10 -14l-5 -10q-6 -12 -6 -16.5t7 -9.5q29 -20 67.5 -31t80.5 -11t77.5 13t58.5 37q26 27 37.5 64.5t11.5 90.5v516q0 9 -32 9h-8zM316 921q-15 0 -22 -2.5
t-12 -7.5l-94 -100q-5 -5 4 -16l5 -6q10 -11 16 -6l116 97l116 -97q6 -5 16 6l5 6q9 11 4 16l-94 100q-5 5 -12 7.5t-22 2.5h-26z" />
    <glyph glyph-name="Kcommaaccent" unicode="&#x136;" horiz-adv-x="571" 
d="M82 9q0 -9 29 -9h8q32 0 32 9v254l104 108l214 -361q4 -6 10 -8t28 -2h16q20 0 23.5 3.5t-0.5 9.5l-244 407q82 85 136.5 160t77.5 130q2 6 -2.5 8t-18.5 2h-14q-17 0 -21 -1.5t-6 -6.5q-25 -50 -73.5 -116.5t-126.5 -149.5l-103 -110v375q0 9 -32 9h-8q-29 0 -29 -9
v-702zM258 -270q8 -8 14 -4q41 32 63 76t22 91q0 22 -13 38t-36 16q-17 0 -29 -10.5t-12 -27.5q0 -12 5.5 -20t11.5 -15.5t11.5 -16.5t5.5 -22q0 -21 -16 -45.5t-33 -41.5q-6 -6 1 -13z" />
    <glyph glyph-name="Lacute" unicode="&#x139;" horiz-adv-x="495" 
d="M151 711q0 9 -32 9h-8q-29 0 -29 -9v-700q0 -6 5 -8.5t23 -2.5h338q5 0 7 5t2 22v4q0 16 -2 21t-7 5h-297v654zM177 913q-20 0 -26.5 -2.5t-9.5 -7.5l-67 -118q-4 -7 20 -7h4q14 0 19 1t8 5l88 119q4 5 0 7.5t-21 2.5h-15z" />
    <glyph glyph-name="Lcaron" unicode="&#x13d;" horiz-adv-x="495" 
d="M151 711q0 9 -32 9h-8q-29 0 -29 -9v-700q0 -6 5 -8.5t23 -2.5h338q5 0 7 5t2 22v4q0 16 -2 21t-7 5h-297v654zM242 523q8 -8 14 -4q41 32 63 76t22 91q0 22 -13 38t-36 16q-17 0 -29 -10.5t-12 -27.5q0 -12 5.5 -20t11.5 -15.5t11.5 -16.5t5.5 -22q0 -21 -16 -45.5
t-33 -41.5q-6 -6 1 -13z" />
    <glyph glyph-name="Lcommaaccent" unicode="&#x13b;" horiz-adv-x="495" 
d="M151 711q0 9 -32 9h-8q-29 0 -29 -9v-700q0 -6 5 -8.5t23 -2.5h338q5 0 7 5t2 22v4q0 16 -2 21t-7 5h-297v654zM226 -270q8 -8 14 -4q41 32 63 76t22 91q0 22 -13 38t-36 16q-17 0 -29 -10.5t-12 -27.5q0 -12 5.5 -20t11.5 -15.5t11.5 -16.5t5.5 -22q0 -21 -16 -45.5
t-33 -41.5q-6 -6 1 -13z" />
    <glyph glyph-name="Lslash" unicode="&#x141;" horiz-adv-x="495" 
d="M448 0q5 0 7 5t2 22v4q0 16 -2 21t-7 5h-297v276l126 98q5 4 6.5 8.5t1.5 17.5v8q0 14 -3.5 16.5t-8.5 -1.5l-122 -95v326q0 9 -32 9h-8q-29 0 -29 -9v-379l-63 -49q-5 -4 -6.5 -8.5t-1.5 -16.5v-10q0 -23 12 -14l59 46v-269q0 -6 5 -8.5t23 -2.5h338z" />
    <glyph glyph-name="Ldot" unicode="&#x13f;" horiz-adv-x="495" 
d="M151 711q0 9 -32 9h-8q-29 0 -29 -9v-700q0 -6 5 -8.5t23 -2.5h338q5 0 7 5t2 22v4q0 16 -2 21t-7 5h-297v654zM271 383q0 -20 13 -33t33 -13t33.5 13t13.5 33t-13.5 33.5t-33.5 13.5t-33 -13.5t-13 -33.5z" />
    <glyph glyph-name="Nacute" unicode="&#x143;" horiz-adv-x="677" 
d="M516 10q4 -6 12 -8t33 -2h7q17 0 23 2t6 7v702q0 5 -5.5 7t-22.5 2h-7q-17 0 -22 -2t-5 -7v-616l-374 615q-4 6 -12 8t-33 2h-7q-17 0 -23 -2t-6 -7v-702q0 -5 5 -7t22 -2h7q17 0 22.5 2t5.5 7v616zM397 913q-20 0 -26.5 -2.5t-9.5 -7.5l-67 -118q-4 -7 20 -7h4
q14 0 19 1t8 5l88 119q4 5 0 7.5t-21 2.5h-15z" />
    <glyph glyph-name="Ncaron" unicode="&#x147;" horiz-adv-x="677" 
d="M516 10q4 -6 12 -8t33 -2h7q17 0 23 2t6 7v702q0 5 -5.5 7t-22.5 2h-7q-17 0 -22 -2t-5 -7v-616l-374 615q-4 6 -12 8t-33 2h-7q-17 0 -23 -2t-6 -7v-702q0 -5 5 -7t22 -2h7q17 0 22.5 2t5.5 7v616zM299 798q5 -5 12 -7.5t22 -2.5h26q15 0 22 2.5t12 7.5l94 100
q3 4 2.5 6.5t-6.5 9.5l-5 6q-6 7 -9 8t-7 -2l-116 -97l-116 97q-4 3 -7 2t-9 -8l-5 -6q-6 -7 -6.5 -9.5t2.5 -6.5z" />
    <glyph glyph-name="Ntilde" unicode="&#xd1;" horiz-adv-x="677" 
d="M516 10q4 -6 12 -8t33 -2h7q17 0 23 2t6 7v702q0 5 -5.5 7t-22.5 2h-7q-17 0 -22 -2t-5 -7v-616l-374 615q-4 6 -12 8t-33 2h-7q-17 0 -23 -2t-6 -7v-702q0 -5 5 -7t22 -2h7q17 0 22.5 2t5.5 7v616zM488 857q5 6 -2 16l-8 10q-6 8 -9.5 9t-6.5 -1q-17 -16 -29.5 -23
t-28.5 -7q-17 0 -31.5 6t-29 13t-30.5 13t-37 6q-26 0 -50 -13.5t-38 -30.5q-5 -6 2 -16l8 -10q10 -13 16 -8q17 16 29.5 23t28.5 7q17 0 31.5 -6t29 -13t30.5 -13t37 -6q26 0 50 13.5t38 30.5z" />
    <glyph glyph-name="Ncommaaccent" unicode="&#x145;" horiz-adv-x="677" 
d="M516 10q4 -6 12 -8t33 -2h7q17 0 23 2t6 7v702q0 5 -5.5 7t-22.5 2h-7q-17 0 -22 -2t-5 -7v-616l-374 615q-4 6 -12 8t-33 2h-7q-17 0 -23 -2t-6 -7v-702q0 -5 5 -7t22 -2h7q17 0 22.5 2t5.5 7v616zM293 -270q8 -8 14 -4q41 32 63 76t22 91q0 22 -13 38t-36 16
q-17 0 -29 -10.5t-12 -27.5q0 -12 5.5 -20t11.5 -15.5t11.5 -16.5t5.5 -22q0 -21 -16 -45.5t-33 -41.5q-6 -6 1 -13z" />
    <glyph glyph-name="Eng" unicode="&#x14a;" horiz-adv-x="677" 
d="M412 -140q-15 0 -27 2t-23 5q-5 2 -7 -2.5t-4 -18.5l-1 -6q-2 -14 -1 -18t4 -6q11 -5 29 -8t36 -3q87 0 133 54t46 182v670q0 5 -5.5 7t-22.5 2h-7q-17 0 -22 -2t-5 -7v-596l-374 595q-4 6 -12 8t-33 2h-7q-17 0 -23 -2t-6 -7v-702q0 -5 5 -7t22 -2h7q17 0 22.5 2t5.5 7
v616l391 -624q-5 -76 -33 -108.5t-88 -32.5z" />
    <glyph glyph-name="Ograve" unicode="&#xd2;" horiz-adv-x="693" 
d="M353 671q105 0 163 -78t58 -226q0 -75 -16.5 -134.5t-47 -100t-73.5 -62t-97 -21.5q-105 0 -163 78.5t-58 226.5q0 76 16.5 135t46.5 99.5t73.5 61.5t97.5 21zM356 730q-71 0 -128 -26.5t-97.5 -76t-62 -119.5t-21.5 -158q0 -90 21.5 -157.5t60 -112.5t91.5 -67.5
t117 -22.5q71 0 128 26.5t97.5 76t62 120t21.5 158.5q0 90 -21.5 157t-60 112t-91.5 67.5t-117 22.5zM309 913q-17 0 -21 -2.5t0 -7.5l88 -119q3 -4 8 -5t19 -1h4q24 0 20 7l-67 118q-3 5 -9.5 7.5t-26.5 2.5h-15z" />
    <glyph glyph-name="Oacute" unicode="&#xd3;" horiz-adv-x="693" 
d="M353 671q105 0 163 -78t58 -226q0 -75 -16.5 -134.5t-47 -100t-73.5 -62t-97 -21.5q-105 0 -163 78.5t-58 226.5q0 76 16.5 135t46.5 99.5t73.5 61.5t97.5 21zM356 730q-71 0 -128 -26.5t-97.5 -76t-62 -119.5t-21.5 -158q0 -90 21.5 -157.5t60 -112.5t91.5 -67.5
t117 -22.5q71 0 128 26.5t97.5 76t62 120t21.5 158.5q0 90 -21.5 157t-60 112t-91.5 67.5t-117 22.5zM389 913q-20 0 -26.5 -2.5t-9.5 -7.5l-67 -118q-4 -7 20 -7h4q14 0 19 1t8 5l88 119q4 5 0 7.5t-21 2.5h-15z" />
    <glyph glyph-name="Ocircumflex" unicode="&#xd4;" horiz-adv-x="693" 
d="M353 671q105 0 163 -78t58 -226q0 -75 -16.5 -134.5t-47 -100t-73.5 -62t-97 -21.5q-105 0 -163 78.5t-58 226.5q0 76 16.5 135t46.5 99.5t73.5 61.5t97.5 21zM356 730q-71 0 -128 -26.5t-97.5 -76t-62 -119.5t-21.5 -158q0 -90 21.5 -157.5t60 -112.5t91.5 -67.5
t117 -22.5q71 0 128 26.5t97.5 76t62 120t21.5 158.5q0 90 -21.5 157t-60 112t-91.5 67.5t-117 22.5zM343 921q-15 0 -22 -2.5t-12 -7.5l-94 -100q-5 -5 4 -16l5 -6q10 -11 16 -6l116 97l116 -97q6 -5 16 6l5 6q9 11 4 16l-94 100q-5 5 -12 7.5t-22 2.5h-26z" />
    <glyph glyph-name="Otilde" unicode="&#xd5;" horiz-adv-x="693" 
d="M353 671q105 0 163 -78t58 -226q0 -75 -16.5 -134.5t-47 -100t-73.5 -62t-97 -21.5q-105 0 -163 78.5t-58 226.5q0 76 16.5 135t46.5 99.5t73.5 61.5t97.5 21zM356 730q-71 0 -128 -26.5t-97.5 -76t-62 -119.5t-21.5 -158q0 -90 21.5 -157.5t60 -112.5t91.5 -67.5
t117 -22.5q71 0 128 26.5t97.5 76t62 120t21.5 158.5q0 90 -21.5 157t-60 112t-91.5 67.5t-117 22.5zM504 857q5 6 -2 16l-8 10q-6 8 -9.5 9t-6.5 -1q-17 -16 -29.5 -23t-28.5 -7q-17 0 -31.5 6t-29 13t-30.5 13t-37 6q-26 0 -50 -13.5t-38 -30.5q-5 -6 2 -16l8 -10
q10 -13 16 -8q17 16 29.5 23t28.5 7q17 0 31.5 -6t29 -13t30.5 -13t37 -6q26 0 50 13.5t38 30.5z" />
    <glyph glyph-name="Odieresis" unicode="&#xd6;" horiz-adv-x="693" 
d="M353 671q105 0 163 -78t58 -226q0 -75 -16.5 -134.5t-47 -100t-73.5 -62t-97 -21.5q-105 0 -163 78.5t-58 226.5q0 76 16.5 135t46.5 99.5t73.5 61.5t97.5 21zM356 730q-71 0 -128 -26.5t-97.5 -76t-62 -119.5t-21.5 -158q0 -90 21.5 -157.5t60 -112.5t91.5 -67.5
t117 -22.5q71 0 128 26.5t97.5 76t62 120t21.5 158.5q0 90 -21.5 157t-60 112t-91.5 67.5t-117 22.5zM208 846q0 -20 13.5 -33.5t33.5 -13.5t34 13.5t14 33.5t-14 34t-34 14t-33.5 -14t-13.5 -34zM410 846q0 -20 13.5 -33.5t33.5 -13.5t34 13.5t14 33.5t-14 34t-34 14
t-33.5 -14t-13.5 -34z" />
    <glyph glyph-name="Omacron" unicode="&#x14c;" horiz-adv-x="693" 
d="M353 671q105 0 163 -78t58 -226q0 -75 -16.5 -134.5t-47 -100t-73.5 -62t-97 -21.5q-105 0 -163 78.5t-58 226.5q0 76 16.5 135t46.5 99.5t73.5 61.5t97.5 21zM356 730q-71 0 -128 -26.5t-97.5 -76t-62 -119.5t-21.5 -158q0 -90 21.5 -157.5t60 -112.5t91.5 -67.5
t117 -22.5q71 0 128 26.5t97.5 76t62 120t21.5 158.5q0 90 -21.5 157t-60 112t-91.5 67.5t-117 22.5zM215 874q-5 0 -6.5 -4.5t-1.5 -18.5v-3q0 -25 8 -25h262q8 0 8 25v3q0 14 -1.5 18.5t-6.5 4.5h-262z" />
    <glyph glyph-name="Obreve" unicode="&#x14e;" horiz-adv-x="693" 
d="M353 671q105 0 163 -78t58 -226q0 -75 -16.5 -134.5t-47 -100t-73.5 -62t-97 -21.5q-105 0 -163 78.5t-58 226.5q0 76 16.5 135t46.5 99.5t73.5 61.5t97.5 21zM356 730q-71 0 -128 -26.5t-97.5 -76t-62 -119.5t-21.5 -158q0 -90 21.5 -157.5t60 -112.5t91.5 -67.5
t117 -22.5q71 0 128 26.5t97.5 76t62 120t21.5 158.5q0 90 -21.5 157t-60 112t-91.5 67.5t-117 22.5zM346 795q28 0 53 7.5t43.5 22t29 35t10.5 46.5q0 3 -2.5 4.5t-16.5 1.5h-12q-13 0 -15.5 -1.5t-3.5 -8.5q-4 -32 -26 -49t-60 -17t-60 17t-26 49q-1 7 -3.5 8.5t-15.5 1.5
h-12q-14 0 -16.5 -1.5t-2.5 -4.5q0 -26 10.5 -46.5t29 -35t43 -22t53.5 -7.5z" />
    <glyph glyph-name="Ohungarumlaut" unicode="&#x150;" horiz-adv-x="693" 
d="M353 671q105 0 163 -78t58 -226q0 -75 -16.5 -134.5t-47 -100t-73.5 -62t-97 -21.5q-105 0 -163 78.5t-58 226.5q0 76 16.5 135t46.5 99.5t73.5 61.5t97.5 21zM356 730q-71 0 -128 -26.5t-97.5 -76t-62 -119.5t-21.5 -158q0 -90 21.5 -157.5t60 -112.5t91.5 -67.5
t117 -22.5q71 0 128 26.5t97.5 76t62 120t21.5 158.5q0 90 -21.5 157t-60 112t-91.5 67.5t-117 22.5zM318 913q-20 0 -26.5 -2.5t-9.5 -7.5l-67 -118q-4 -7 20 -7h4q14 0 19 1t8 5l88 119q4 5 0 7.5t-21 2.5h-15zM475 913q-20 0 -26.5 -2.5t-9.5 -7.5l-67 -118q-4 -7 20 -7
h4q14 0 19 1t8 5l88 119q4 5 0 7.5t-21 2.5h-15z" />
    <glyph glyph-name="Oslash" unicode="&#xd8;" horiz-adv-x="693" 
d="M356 730q-71 0 -128 -26.5t-97.5 -76t-62 -119.5t-21.5 -158q0 -85 18.5 -148.5t52.5 -108.5l-65 -91q-3 -5 -1 -9.5t14 -13.5l12 -9q12 -9 17.5 -9.5t8.5 4.5l59 82q70 -57 174 -57q71 0 128 26.5t97.5 76t62 120t21.5 158.5q0 82 -18 145.5t-51 108.5l68 95q3 5 1 9.5
t-14 13.5l-12 9q-12 9 -17.5 9.5t-8.5 -4.5l-62 -86q-35 29 -80 44t-96 15zM353 671q85 0 141 -54l-333 -464q-20 38 -31 88t-11 113q0 76 16.5 135t46.5 99.5t73.5 61.5t97.5 21zM574 367q0 -75 -16.5 -134.5t-47 -100t-73.5 -62t-97 -21.5q-85 0 -139 51l332 464
q41 -76 41 -197z" />
    <glyph glyph-name="Oslashacute" unicode="&#x1fe;" horiz-adv-x="693" 
d="M356 730q-71 0 -128 -26.5t-97.5 -76t-62 -119.5t-21.5 -158q0 -85 18.5 -148.5t52.5 -108.5l-65 -91q-3 -5 -1 -9.5t14 -13.5l12 -9q12 -9 17.5 -9.5t8.5 4.5l59 82q70 -57 174 -57q71 0 128 26.5t97.5 76t62 120t21.5 158.5q0 82 -18 145.5t-51 108.5l68 95q3 5 1 9.5
t-14 13.5l-12 9q-12 9 -17.5 9.5t-8.5 -4.5l-62 -86q-35 29 -80 44t-96 15zM353 671q85 0 141 -54l-333 -464q-20 38 -31 88t-11 113q0 76 16.5 135t46.5 99.5t73.5 61.5t97.5 21zM574 367q0 -75 -16.5 -134.5t-47 -100t-73.5 -62t-97 -21.5q-85 0 -139 51l332 464
q41 -76 41 -197zM399 913q-20 0 -26.5 -2.5t-9.5 -7.5l-67 -118q-4 -7 20 -7h4q14 0 19 1t8 5l88 119q4 5 0 7.5t-21 2.5h-15z" />
    <glyph glyph-name="OE" unicode="&#x152;" horiz-adv-x="939" 
d="M877 0q5 0 7 5t2 22v4q0 16 -2 21t-7 5h-321v279h269q5 0 7 5t2 22v4q0 16 -2 21t-7 5h-269v270h317q5 0 7 5t2 22v4q0 16 -2 21t-7 5h-389q-26 4 -56 7t-62 3q-75 0 -134 -25.5t-100 -74.5t-63 -120.5t-22 -164.5q0 -92 21.5 -158.5t61.5 -110.5t95.5 -65t123.5 -21
q33 0 70 3t68 7h390zM353 46q-114 0 -174 76.5t-60 229.5q0 157 64 239t182 82q31 0 63 -3.5t59 -8.5v-606q-34 -4 -69 -6.5t-65 -2.5z" />
    <glyph glyph-name="Thorn" unicode="&#xde;" horiz-adv-x="536" 
d="M151 711q0 9 -32 9h-8q-29 0 -29 -9v-702q0 -9 29 -9h8q32 0 32 9v176q25 -5 53.5 -7.5t60.5 -2.5q113 0 176 49t63 149q0 98 -63 147t-176 49q-32 0 -60.5 -2.5t-53.5 -7.5v152zM263 513q78 0 124 -32.5t46 -108.5q0 -38 -12 -65t-34 -44t-53.5 -24.5t-70.5 -7.5
q-32 0 -60.5 2.5t-51.5 6.5v264q23 4 51.5 6.5t60.5 2.5z" />
    <glyph glyph-name="Racute" unicode="&#x154;" horiz-adv-x="554" 
d="M255 305h14t14 1q15 -37 34 -78.5t40 -81t42.5 -75t41.5 -60.5q6 -8 13 -9.5t27 -1.5h10q23 0 26.5 4t0.5 9q-25 34 -46 67t-40.5 69t-39.5 76.5t-43 90.5q64 17 103 56q26 26 41 63t15 85q0 88 -50 136q-34 33 -87.5 48.5t-136.5 15.5h-152v-711q0 -9 29 -9h8q32 0 32 9
v296h104zM151 665h87q60 0 100 -11t64 -37q33 -35 33 -101q0 -70 -41 -111q-48 -46 -147 -46h-96v306zM339 913q-20 0 -26.5 -2.5t-9.5 -7.5l-67 -118q-4 -7 20 -7h4q14 0 19 1t8 5l88 119q4 5 0 7.5t-21 2.5h-15z" />
    <glyph glyph-name="Rcaron" unicode="&#x158;" horiz-adv-x="554" 
d="M255 305h14t14 1q15 -37 34 -78.5t40 -81t42.5 -75t41.5 -60.5q6 -8 13 -9.5t27 -1.5h10q23 0 26.5 4t0.5 9q-25 34 -46 67t-40.5 69t-39.5 76.5t-43 90.5q64 17 103 56q26 26 41 63t15 85q0 88 -50 136q-34 33 -87.5 48.5t-136.5 15.5h-152v-711q0 -9 29 -9h8q32 0 32 9
v296h104zM151 665h87q60 0 100 -11t64 -37q33 -35 33 -101q0 -70 -41 -111q-48 -46 -147 -46h-96v306zM254 798q5 -5 12 -7.5t22 -2.5h26q15 0 22 2.5t12 7.5l94 100q3 4 2.5 6.5t-6.5 9.5l-5 6q-6 7 -9 8t-7 -2l-116 -97l-116 97q-4 3 -7 2t-9 -8l-5 -6q-6 -7 -6.5 -9.5
t2.5 -6.5z" />
    <glyph glyph-name="Rcommaaccent" unicode="&#x156;" horiz-adv-x="554" 
d="M255 305h14t14 1q15 -37 34 -78.5t40 -81t42.5 -75t41.5 -60.5q6 -8 13 -9.5t27 -1.5h10q23 0 26.5 4t0.5 9q-25 34 -46 67t-40.5 69t-39.5 76.5t-43 90.5q64 17 103 56q26 26 41 63t15 85q0 88 -50 136q-34 33 -87.5 48.5t-136.5 15.5h-152v-711q0 -9 29 -9h8q32 0 32 9
v296h104zM151 665h87q60 0 100 -11t64 -37q33 -35 33 -101q0 -70 -41 -111q-48 -46 -147 -46h-96v306zM248 -270q8 -8 14 -4q41 32 63 76t22 91q0 22 -13 38t-36 16q-17 0 -29 -10.5t-12 -27.5q0 -12 5.5 -20t11.5 -15.5t11.5 -16.5t5.5 -22q0 -21 -16 -45.5t-33 -41.5
q-6 -6 1 -13z" />
    <glyph glyph-name="Sacute" unicode="&#x15a;" horiz-adv-x="513" 
d="M49 47q32 -24 83.5 -40.5t110.5 -16.5q51 0 93 14.5t72 40t46.5 61.5t16.5 80q0 45 -16.5 77t-43.5 56.5t-60.5 43.5t-67.5 36q-28 15 -54 29.5t-46 32.5t-32 40t-12 51q0 57 40 89t100 32q38 0 71.5 -11t63.5 -28q5 -3 9 -0.5t12 16.5l3 5q7 12 8 17t-5 9
q-32 22 -76 35.5t-90 13.5q-41 0 -77.5 -13t-65 -36.5t-45 -57t-16.5 -74.5t14.5 -72t38 -54.5t53.5 -42t62 -34.5q31 -16 60.5 -32t52.5 -34.5t37 -42t14 -54.5q0 -60 -45.5 -98t-120.5 -38q-38 0 -79 12t-81 38q-5 3 -9 -0.5t-12 -15.5l-3 -5q-8 -14 -8.5 -19.5t4.5 -9.5z
M313 913q-20 0 -26.5 -2.5t-9.5 -7.5l-67 -118q-4 -7 20 -7h4q14 0 19 1t8 5l88 119q4 5 0 7.5t-21 2.5h-15z" />
    <glyph glyph-name="Scircumflex" unicode="&#x15c;" horiz-adv-x="513" 
d="M49 47q32 -24 83.5 -40.5t110.5 -16.5q51 0 93 14.5t72 40t46.5 61.5t16.5 80q0 45 -16.5 77t-43.5 56.5t-60.5 43.5t-67.5 36q-28 15 -54 29.5t-46 32.5t-32 40t-12 51q0 57 40 89t100 32q38 0 71.5 -11t63.5 -28q5 -3 9 -0.5t12 16.5l3 5q7 12 8 17t-5 9
q-32 22 -76 35.5t-90 13.5q-41 0 -77.5 -13t-65 -36.5t-45 -57t-16.5 -74.5t14.5 -72t38 -54.5t53.5 -42t62 -34.5q31 -16 60.5 -32t52.5 -34.5t37 -42t14 -54.5q0 -60 -45.5 -98t-120.5 -38q-38 0 -79 12t-81 38q-5 3 -9 -0.5t-12 -15.5l-3 -5q-8 -14 -8.5 -19.5t4.5 -9.5z
M263 921q-15 0 -22 -2.5t-12 -7.5l-94 -100q-5 -5 4 -16l5 -6q10 -11 16 -6l116 97l116 -97q6 -5 16 6l5 6q9 11 4 16l-94 100q-5 5 -12 7.5t-22 2.5h-26z" />
    <glyph glyph-name="Scaron" unicode="&#x160;" horiz-adv-x="513" 
d="M49 47q32 -24 83.5 -40.5t110.5 -16.5q51 0 93 14.5t72 40t46.5 61.5t16.5 80q0 45 -16.5 77t-43.5 56.5t-60.5 43.5t-67.5 36q-28 15 -54 29.5t-46 32.5t-32 40t-12 51q0 57 40 89t100 32q38 0 71.5 -11t63.5 -28q5 -3 9 -0.5t12 16.5l3 5q7 12 8 17t-5 9
q-32 22 -76 35.5t-90 13.5q-41 0 -77.5 -13t-65 -36.5t-45 -57t-16.5 -74.5t14.5 -72t38 -54.5t53.5 -42t62 -34.5q31 -16 60.5 -32t52.5 -34.5t37 -42t14 -54.5q0 -60 -45.5 -98t-120.5 -38q-38 0 -79 12t-81 38q-5 3 -9 -0.5t-12 -15.5l-3 -5q-8 -14 -8.5 -19.5t4.5 -9.5z
M229 785q5 -5 12 -7.5t22 -2.5h26q15 0 22 2.5t12 7.5l94 100q3 4 2.5 6.5t-6.5 9.5l-5 6q-6 7 -9 8t-7 -2l-116 -97l-116 97q-4 3 -7 2t-9 -8l-5 -6q-6 -7 -6.5 -9.5t2.5 -6.5z" />
    <glyph glyph-name="Scedilla" unicode="&#x15e;" horiz-adv-x="513" 
d="M206 -109q11 2 26.5 3.5t26.5 1.5q28 0 44.5 -10t16.5 -33t-16.5 -33.5t-45.5 -10.5q-13 0 -27 2t-28 5q-4 1 -6 -1.5t-4 -12.5l-1 -5q-3 -16 2 -18q10 -5 30.5 -8.5t41.5 -3.5q29 0 49.5 7.5t34 20t20 28.5t6.5 34q0 35 -25 56.5t-65 21.5q-7 0 -13.5 -0.5t-13.5 -1.5
l7 58q46 3 84 18.5t65 41t41.5 60t14.5 75.5q0 45 -16.5 77t-43.5 56.5t-60.5 43.5t-67.5 36q-28 15 -54 29.5t-46 32.5t-32 40t-12 51q0 57 40 89t100 32q38 0 71.5 -11t63.5 -28q5 -3 9 -0.5t12 16.5l3 5q7 12 8 17t-5 9q-32 22 -76 35.5t-90 13.5q-41 0 -77.5 -13
t-65 -36.5t-45 -57t-16.5 -74.5t14.5 -72t38 -54.5t53.5 -42t62 -34.5q31 -16 60.5 -32t52.5 -34.5t37 -42t14 -54.5q0 -60 -45.5 -98t-120.5 -38q-38 0 -79 12t-81 38q-5 3 -9 -0.5t-12 -15.5l-3 -5q-8 -14 -8.5 -19.5t4.5 -9.5q28 -22 72.5 -37.5t96.5 -18.5z" />
    <glyph glyph-name="Scommaaccent" unicode="&#x218;" horiz-adv-x="513" 
d="M49 47q32 -24 83.5 -40.5t110.5 -16.5q51 0 93 14.5t72 40t46.5 61.5t16.5 80q0 45 -16.5 77t-43.5 56.5t-60.5 43.5t-67.5 36q-28 15 -54 29.5t-46 32.5t-32 40t-12 51q0 57 40 89t100 32q38 0 71.5 -11t63.5 -28q5 -3 9 -0.5t12 16.5l3 5q7 12 8 17t-5 9
q-32 22 -76 35.5t-90 13.5q-41 0 -77.5 -13t-65 -36.5t-45 -57t-16.5 -74.5t14.5 -72t38 -54.5t53.5 -42t62 -34.5q31 -16 60.5 -32t52.5 -34.5t37 -42t14 -54.5q0 -60 -45.5 -98t-120.5 -38q-38 0 -79 12t-81 38q-5 3 -9 -0.5t-12 -15.5l-3 -5q-8 -14 -8.5 -19.5t4.5 -9.5z
M217 -270q8 -8 14 -4q41 32 63 76t22 91q0 22 -13 38t-36 16q-17 0 -29 -10.5t-12 -27.5q0 -12 5.5 -20t11.5 -15.5t11.5 -16.5t5.5 -22q0 -21 -16 -45.5t-33 -41.5q-6 -6 1 -13z" />
    <glyph glyph-name="Tcaron" unicode="&#x164;" horiz-adv-x="516" 
d="M227 663v-654q0 -9 29 -9h8q32 0 32 9v654h195q9 0 9 26v4q0 15 -2 21t-7 6h-466q-9 0 -9 -26v-4q0 -15 2 -21t7 -6h202zM211 798q5 -5 12 -7.5t22 -2.5h26q15 0 22 2.5t12 7.5l94 100q3 4 2.5 6.5t-6.5 9.5l-5 6q-6 7 -9 8t-7 -2l-116 -97l-116 97q-4 3 -7 2t-9 -8
l-5 -6q-6 -7 -6.5 -9.5t2.5 -6.5z" />
    <glyph glyph-name="Tcommaaccent" unicode="&#x162;" horiz-adv-x="516" 
d="M227 663v-654q0 -9 29 -9h8q32 0 32 9v654h195q9 0 9 26v4q0 15 -2 21t-7 6h-466q-9 0 -9 -26v-4q0 -15 2 -21t7 -6h202zM208 -270q8 -8 14 -4q41 32 63 76t22 91q0 22 -13 38t-36 16q-17 0 -29 -10.5t-12 -27.5q0 -12 5.5 -20t11.5 -15.5t11.5 -16.5t5.5 -22
q0 -21 -16 -45.5t-33 -41.5q-6 -6 1 -13z" />
    <glyph glyph-name="uni021A" unicode="&#x21a;" horiz-adv-x="516" 
d="M227 663v-654q0 -9 29 -9h8q32 0 32 9v654h195q9 0 9 26v4q0 15 -2 21t-7 6h-466q-9 0 -9 -26v-4q0 -15 2 -21t7 -6h202zM208 -270q8 -8 14 -4q41 32 63 76t22 91q0 22 -13 38t-36 16q-17 0 -29 -10.5t-12 -27.5q0 -12 5.5 -20t11.5 -15.5t11.5 -16.5t5.5 -22
q0 -21 -16 -45.5t-33 -41.5q-6 -6 1 -13z" />
    <glyph glyph-name="Tbar" unicode="&#x166;" horiz-adv-x="516" 
d="M105 390q-5 0 -6.5 -4.5t-1.5 -18.5v-3q0 -25 8 -25h122v-330q0 -9 29 -9h8q32 0 32 9v330h115q8 0 8 25v3q0 14 -1.5 18.5t-6.5 4.5h-115v273h195q9 0 9 26v4q0 15 -2 21t-7 6h-466q-9 0 -9 -26v-4q0 -15 2 -21t7 -6h202v-273h-122z" />
    <glyph glyph-name="Ugrave" unicode="&#xd9;" horiz-adv-x="670" 
d="M595 711q0 9 -32 9h-7q-29 0 -29 -9v-436q0 -65 -13 -108.5t-39 -69.5q-48 -49 -139 -49q-45 0 -80.5 12t-59.5 37q-26 26 -39 69.5t-13 108.5v436q0 9 -32 9h-8q-29 0 -29 -9v-445q0 -77 17 -128t52 -84q67 -64 192 -64q61 0 109 16.5t81 48.5q35 33 52 84t17 128v444z
M287 913q-17 0 -21 -2.5t0 -7.5l88 -119q3 -4 8 -5t19 -1h4q24 0 20 7l-67 118q-3 5 -9.5 7.5t-26.5 2.5h-15z" />
    <glyph glyph-name="Uacute" unicode="&#xda;" horiz-adv-x="670" 
d="M595 711q0 9 -32 9h-7q-29 0 -29 -9v-436q0 -65 -13 -108.5t-39 -69.5q-48 -49 -139 -49q-45 0 -80.5 12t-59.5 37q-26 26 -39 69.5t-13 108.5v436q0 9 -32 9h-8q-29 0 -29 -9v-445q0 -77 17 -128t52 -84q67 -64 192 -64q61 0 109 16.5t81 48.5q35 33 52 84t17 128v444z
M383 913q-20 0 -26.5 -2.5t-9.5 -7.5l-67 -118q-4 -7 20 -7h4q14 0 19 1t8 5l88 119q4 5 0 7.5t-21 2.5h-15z" />
    <glyph glyph-name="Ucircumflex" unicode="&#xdb;" horiz-adv-x="670" 
d="M595 711q0 9 -32 9h-7q-29 0 -29 -9v-436q0 -65 -13 -108.5t-39 -69.5q-48 -49 -139 -49q-45 0 -80.5 12t-59.5 37q-26 26 -39 69.5t-13 108.5v436q0 9 -32 9h-8q-29 0 -29 -9v-445q0 -77 17 -128t52 -84q67 -64 192 -64q61 0 109 16.5t81 48.5q35 33 52 84t17 128v444z
M322 921q-15 0 -22 -2.5t-12 -7.5l-94 -100q-5 -5 4 -16l5 -6q10 -11 16 -6l116 97l116 -97q6 -5 16 6l5 6q9 11 4 16l-94 100q-5 5 -12 7.5t-22 2.5h-26z" />
    <glyph glyph-name="Utilde" unicode="&#x168;" horiz-adv-x="670" 
d="M595 711q0 9 -32 9h-7q-29 0 -29 -9v-436q0 -65 -13 -108.5t-39 -69.5q-48 -49 -139 -49q-45 0 -80.5 12t-59.5 37q-26 26 -39 69.5t-13 108.5v436q0 9 -32 9h-8q-29 0 -29 -9v-445q0 -77 17 -128t52 -84q67 -64 192 -64q61 0 109 16.5t81 48.5q35 33 52 84t17 128v444z
M485 857q5 6 -2 16l-8 10q-6 8 -9.5 9t-6.5 -1q-17 -16 -29.5 -23t-28.5 -7q-17 0 -31.5 6t-29 13t-30.5 13t-37 6q-26 0 -50 -13.5t-38 -30.5q-5 -6 2 -16l8 -10q10 -13 16 -8q17 16 29.5 23t28.5 7q17 0 31.5 -6t29 -13t30.5 -13t37 -6q26 0 50 13.5t38 30.5z" />
    <glyph glyph-name="Udieresis" unicode="&#xdc;" horiz-adv-x="670" 
d="M595 711q0 9 -32 9h-7q-29 0 -29 -9v-436q0 -65 -13 -108.5t-39 -69.5q-48 -49 -139 -49q-45 0 -80.5 12t-59.5 37q-26 26 -39 69.5t-13 108.5v436q0 9 -32 9h-8q-29 0 -29 -9v-445q0 -77 17 -128t52 -84q67 -64 192 -64q61 0 109 16.5t81 48.5q35 33 52 84t17 128v444z
M188 846q0 -20 13.5 -33.5t33.5 -13.5t34 13.5t14 33.5t-14 34t-34 14t-33.5 -14t-13.5 -34zM390 846q0 -20 13.5 -33.5t33.5 -13.5t34 13.5t14 33.5t-14 34t-34 14t-33.5 -14t-13.5 -34z" />
    <glyph glyph-name="Umacron" unicode="&#x16a;" horiz-adv-x="670" 
d="M595 711q0 9 -32 9h-7q-29 0 -29 -9v-436q0 -65 -13 -108.5t-39 -69.5q-48 -49 -139 -49q-45 0 -80.5 12t-59.5 37q-26 26 -39 69.5t-13 108.5v436q0 9 -32 9h-8q-29 0 -29 -9v-445q0 -77 17 -128t52 -84q67 -64 192 -64q61 0 109 16.5t81 48.5q35 33 52 84t17 128v444z
M204 874q-5 0 -6.5 -4.5t-1.5 -18.5v-3q0 -25 8 -25h262q8 0 8 25v3q0 14 -1.5 18.5t-6.5 4.5h-262z" />
    <glyph glyph-name="Ubreve" unicode="&#x16c;" horiz-adv-x="670" 
d="M595 711q0 9 -32 9h-7q-29 0 -29 -9v-436q0 -65 -13 -108.5t-39 -69.5q-48 -49 -139 -49q-45 0 -80.5 12t-59.5 37q-26 26 -39 69.5t-13 108.5v436q0 9 -32 9h-8q-29 0 -29 -9v-445q0 -77 17 -128t52 -84q67 -64 192 -64q61 0 109 16.5t81 48.5q35 33 52 84t17 128v444z
M335 795q28 0 53 7.5t43.5 22t29 35t10.5 46.5q0 3 -2.5 4.5t-16.5 1.5h-12q-13 0 -15.5 -1.5t-3.5 -8.5q-4 -32 -26 -49t-60 -17t-60 17t-26 49q-1 7 -3.5 8.5t-15.5 1.5h-12q-14 0 -16.5 -1.5t-2.5 -4.5q0 -26 10.5 -46.5t29 -35t43 -22t53.5 -7.5z" />
    <glyph glyph-name="Uring" unicode="&#x16e;" horiz-adv-x="670" 
d="M595 711q0 9 -32 9h-7q-29 0 -29 -9v-436q0 -65 -13 -108.5t-39 -69.5q-48 -49 -139 -49q-45 0 -80.5 12t-59.5 37q-26 26 -39 69.5t-13 108.5v436q0 9 -32 9h-8q-29 0 -29 -9v-445q0 -77 17 -128t52 -84q67 -64 192 -64q61 0 109 16.5t81 48.5q35 33 52 84t17 128v444z
M241 868q0 -19 7.5 -35.5t20.5 -28.5t30 -19t36 -7t36 7t30 19t20.5 28.5t7.5 35.5t-7.5 35.5t-20.5 28.5t-30 19t-36 7t-36 -7t-30 -19t-20.5 -28.5t-7.5 -35.5zM284 868q0 23 15 37t36 14q23 0 36 -15t13 -36t-13 -36t-36 -15q-21 0 -36 14t-15 37z" />
    <glyph glyph-name="Uhungarumlaut" unicode="&#x170;" horiz-adv-x="670" 
d="M595 711q0 9 -32 9h-7q-29 0 -29 -9v-436q0 -65 -13 -108.5t-39 -69.5q-48 -49 -139 -49q-45 0 -80.5 12t-59.5 37q-26 26 -39 69.5t-13 108.5v436q0 9 -32 9h-8q-29 0 -29 -9v-445q0 -77 17 -128t52 -84q67 -64 192 -64q61 0 109 16.5t81 48.5q35 33 52 84t17 128v444z
M309 913q-20 0 -26.5 -2.5t-9.5 -7.5l-67 -118q-4 -7 20 -7h4q14 0 19 1t8 5l88 119q4 5 0 7.5t-21 2.5h-15zM466 913q-20 0 -26.5 -2.5t-9.5 -7.5l-67 -118q-4 -7 20 -7h4q14 0 19 1t8 5l88 119q4 5 0 7.5t-21 2.5h-15z" />
    <glyph glyph-name="Uogonek" unicode="&#x172;" horiz-adv-x="670" 
d="M476 -213q5 2 2 18l-1 5q-2 10 -4.5 12.5t-5.5 1.5q-11 -3 -23.5 -6t-25.5 -3q-27 0 -42.5 15.5t-15.5 41.5q0 23 9.5 41.5t26.5 35.5q26 27 62.5 52t67.5 54q35 33 52 84t17 128v444q0 9 -32 9h-7q-29 0 -29 -9v-436q0 -65 -13 -108.5t-39 -69.5q-48 -49 -139 -49
q-45 0 -80.5 12t-59.5 37q-26 26 -39 69.5t-13 108.5v436q0 9 -32 9h-8q-29 0 -29 -9v-445q0 -77 17 -128t52 -84q67 -64 192 -64q11 0 24.5 1t22.5 3q-34 -25 -58 -57.5t-24 -72.5q0 -22 8.5 -39t22.5 -29t32.5 -18.5t38.5 -6.5q38 0 73 16z" />
    <glyph glyph-name="Wgrave" unicode="&#x1e80;" horiz-adv-x="956" 
d="M928 709q2 5 -3 8t-25 3h-7q-19 0 -24 -2t-7 -8l-170 -644l-175 644q-2 5 -7 7.5t-22 2.5h-8q-17 0 -22 -2.5t-7 -7.5l-173 -643l-174 642q-2 6 -9 8.5t-25 2.5h-11q-21 0 -26 -2.5t-3 -10.5l198 -693q3 -9 12.5 -11.5t32.5 -2.5h5q23 0 33 2.5t12 11.5l158 577l158 -577
q2 -9 12.5 -11.5t33.5 -2.5h5q23 0 33 2.5t12 11.5zM435 913q-17 0 -21 -2.5t0 -7.5l88 -119q3 -4 8 -5t19 -1h4q24 0 20 7l-67 118q-3 5 -9.5 7.5t-26.5 2.5h-15z" />
    <glyph glyph-name="Wacute" unicode="&#x1e82;" horiz-adv-x="956" 
d="M928 709q2 5 -3 8t-25 3h-7q-19 0 -24 -2t-7 -8l-170 -644l-175 644q-2 5 -7 7.5t-22 2.5h-8q-17 0 -22 -2.5t-7 -7.5l-173 -643l-174 642q-2 6 -9 8.5t-25 2.5h-11q-21 0 -26 -2.5t-3 -10.5l198 -693q3 -9 12.5 -11.5t32.5 -2.5h5q23 0 33 2.5t12 11.5l158 577l158 -577
q2 -9 12.5 -11.5t33.5 -2.5h5q23 0 33 2.5t12 11.5zM514 913q-20 0 -26.5 -2.5t-9.5 -7.5l-67 -118q-4 -7 20 -7h4q14 0 19 1t8 5l88 119q4 5 0 7.5t-21 2.5h-15z" />
    <glyph glyph-name="Wcircumflex" unicode="&#x174;" horiz-adv-x="956" 
d="M928 709q2 5 -3 8t-25 3h-7q-19 0 -24 -2t-7 -8l-170 -644l-175 644q-2 5 -7 7.5t-22 2.5h-8q-17 0 -22 -2.5t-7 -7.5l-173 -643l-174 642q-2 6 -9 8.5t-25 2.5h-11q-21 0 -26 -2.5t-3 -10.5l198 -693q3 -9 12.5 -11.5t32.5 -2.5h5q23 0 33 2.5t12 11.5l158 577l158 -577
q2 -9 12.5 -11.5t33.5 -2.5h5q23 0 33 2.5t12 11.5zM469 921q-15 0 -22 -2.5t-12 -7.5l-94 -100q-5 -5 4 -16l5 -6q10 -11 16 -6l116 97l116 -97q6 -5 16 6l5 6q9 11 4 16l-94 100q-5 5 -12 7.5t-22 2.5h-26z" />
    <glyph glyph-name="Wdieresis" unicode="&#x1e84;" horiz-adv-x="956" 
d="M928 709q2 5 -3 8t-25 3h-7q-19 0 -24 -2t-7 -8l-170 -644l-175 644q-2 5 -7 7.5t-22 2.5h-8q-17 0 -22 -2.5t-7 -7.5l-173 -643l-174 642q-2 6 -9 8.5t-25 2.5h-11q-21 0 -26 -2.5t-3 -10.5l198 -693q3 -9 12.5 -11.5t32.5 -2.5h5q23 0 33 2.5t12 11.5l158 577l158 -577
q2 -9 12.5 -11.5t33.5 -2.5h5q23 0 33 2.5t12 11.5zM333 846q0 -20 13.5 -33.5t33.5 -13.5t34 13.5t14 33.5t-14 34t-34 14t-33.5 -14t-13.5 -34zM535 846q0 -20 13.5 -33.5t33.5 -13.5t34 13.5t14 33.5t-14 34t-34 14t-33.5 -14t-13.5 -34z" />
    <glyph glyph-name="Ygrave" unicode="&#x1ef2;" horiz-adv-x="523" 
d="M254 0h8q32 0 32 9v269l214 430q3 6 -2 9t-22 3h-9q-19 0 -25 -1.5t-9 -7.5l-175 -371l-177 369q-3 6 -10 8.5t-28 2.5h-8q-22 0 -26.5 -3.5t-2.5 -8.5l211 -430v-269q0 -9 29 -9zM218 913q-17 0 -21 -2.5t0 -7.5l88 -119q3 -4 8 -5t19 -1h4q24 0 20 7l-67 118
q-3 5 -9.5 7.5t-26.5 2.5h-15z" />
    <glyph glyph-name="Yacute" unicode="&#xdd;" horiz-adv-x="523" 
d="M254 0h8q32 0 32 9v269l214 430q3 6 -2 9t-22 3h-9q-19 0 -25 -1.5t-9 -7.5l-175 -371l-177 369q-3 6 -10 8.5t-28 2.5h-8q-22 0 -26.5 -3.5t-2.5 -8.5l211 -430v-269q0 -9 29 -9zM318 913q-20 0 -26.5 -2.5t-9.5 -7.5l-67 -118q-4 -7 20 -7h4q14 0 19 1t8 5l88 119
q4 5 0 7.5t-21 2.5h-15z" />
    <glyph glyph-name="Ycircumflex" unicode="&#x176;" horiz-adv-x="523" 
d="M254 0h8q32 0 32 9v269l214 430q3 6 -2 9t-22 3h-9q-19 0 -25 -1.5t-9 -7.5l-175 -371l-177 369q-3 6 -10 8.5t-28 2.5h-8q-22 0 -26.5 -3.5t-2.5 -8.5l211 -430v-269q0 -9 29 -9zM250 921q-15 0 -22 -2.5t-12 -7.5l-94 -100q-5 -5 4 -16l5 -6q10 -11 16 -6l116 97
l116 -97q6 -5 16 6l5 6q9 11 4 16l-94 100q-5 5 -12 7.5t-22 2.5h-26z" />
    <glyph glyph-name="Ydieresis" unicode="&#x178;" horiz-adv-x="523" 
d="M254 0h8q32 0 32 9v269l214 430q3 6 -2 9t-22 3h-9q-19 0 -25 -1.5t-9 -7.5l-175 -371l-177 369q-3 6 -10 8.5t-28 2.5h-8q-22 0 -26.5 -3.5t-2.5 -8.5l211 -430v-269q0 -9 29 -9zM113 846q0 -20 13.5 -33.5t33.5 -13.5t34 13.5t14 33.5t-14 34t-34 14t-33.5 -14
t-13.5 -34zM315 846q0 -20 13.5 -33.5t33.5 -13.5t34 13.5t14 33.5t-14 34t-34 14t-33.5 -14t-13.5 -34z" />
    <glyph glyph-name="Zacute" unicode="&#x179;" horiz-adv-x="538" 
d="M474 642q10 17 14 27t4 26v15q0 6 -4 8t-18 2h-399q-9 0 -9 -26v-4q0 -15 2 -21t7 -6h341l-351 -580q-10 -17 -14 -27t-4 -26v-20q0 -6 4 -8t18 -2h426q9 0 9 26v4q0 15 -2 21t-7 6h-369zM331 913q-20 0 -26.5 -2.5t-9.5 -7.5l-67 -118q-4 -7 20 -7h4q14 0 19 1t8 5
l88 119q4 5 0 7.5t-21 2.5h-15z" />
    <glyph glyph-name="Zcaron" unicode="&#x17d;" horiz-adv-x="538" 
d="M474 642q10 17 14 27t4 26v15q0 6 -4 8t-18 2h-399q-9 0 -9 -26v-4q0 -15 2 -21t7 -6h341l-351 -580q-10 -17 -14 -27t-4 -26v-20q0 -6 4 -8t18 -2h426q9 0 9 26v4q0 15 -2 21t-7 6h-369zM230 785q5 -5 12 -7.5t22 -2.5h26q15 0 22 2.5t12 7.5l94 100q3 4 2.5 6.5
t-6.5 9.5l-5 6q-6 7 -9 8t-7 -2l-116 -97l-116 97q-4 3 -7 2t-9 -8l-5 -6q-6 -7 -6.5 -9.5t2.5 -6.5z" />
    <glyph glyph-name="Zdotaccent" unicode="&#x17b;" horiz-adv-x="538" 
d="M474 642q10 17 14 27t4 26v15q0 6 -4 8t-18 2h-399q-9 0 -9 -26v-4q0 -15 2 -21t7 -6h341l-351 -580q-10 -17 -14 -27t-4 -26v-20q0 -6 4 -8t18 -2h426q9 0 9 26v4q0 15 -2 21t-7 6h-369zM238 840q0 -20 13 -33t33 -13t33.5 13t13.5 33t-13.5 33.5t-33.5 13.5t-33 -13.5
t-13 -33.5z" />
    <glyph glyph-name="agrave" unicode="&#xe0;" horiz-adv-x="563" 
d="M484 369v61.5t1 53.5q0 8 0.5 16.5t0.5 15.5q0 8 -3 10t-19 2h-7q-16 0 -21.5 -2t-6.5 -8l-5 -53q-23 33 -59.5 53t-88.5 20q-50 0 -92 -20t-72.5 -57t-47.5 -89.5t-17 -116.5q0 -54 13 -102.5t40 -84.5t68.5 -57t98.5 -21q53 0 95.5 21t65.5 60l8 -62q1 -5 5.5 -7
t21.5 -2h3q15 0 20 1.5t5 6.5q-4 53 -5.5 101.5t-1.5 113.5v146zM419 246q0 -35 -1.5 -59.5t-6 -42t-11.5 -30t-17 -24.5q-37 -41 -110 -41q-45 0 -75 18t-48 48t-25.5 68t-7.5 77q0 100 43.5 159t119.5 59q48 0 81 -22t58 -60v-150zM234 721q-17 0 -21 -2.5t0 -7.5l88 -119
q3 -4 8 -5t19 -1h4q24 0 20 7l-67 118q-3 5 -9.5 7.5t-26.5 2.5h-15z" />
    <glyph glyph-name="aacute" unicode="&#xe1;" horiz-adv-x="563" 
d="M484 369v61.5t1 53.5q0 8 0.5 16.5t0.5 15.5q0 8 -3 10t-19 2h-7q-16 0 -21.5 -2t-6.5 -8l-5 -53q-23 33 -59.5 53t-88.5 20q-50 0 -92 -20t-72.5 -57t-47.5 -89.5t-17 -116.5q0 -54 13 -102.5t40 -84.5t68.5 -57t98.5 -21q53 0 95.5 21t65.5 60l8 -62q1 -5 5.5 -7
t21.5 -2h3q15 0 20 1.5t5 6.5q-4 53 -5.5 101.5t-1.5 113.5v146zM419 246q0 -35 -1.5 -59.5t-6 -42t-11.5 -30t-17 -24.5q-37 -41 -110 -41q-45 0 -75 18t-48 48t-25.5 68t-7.5 77q0 100 43.5 159t119.5 59q48 0 81 -22t58 -60v-150zM334 721q-20 0 -26.5 -2.5t-9.5 -7.5
l-67 -118q-4 -7 20 -7h4q14 0 19 1t8 5l88 119q4 5 0 7.5t-21 2.5h-15z" />
    <glyph glyph-name="acircumflex" unicode="&#xe2;" horiz-adv-x="563" 
d="M484 369v61.5t1 53.5q0 8 0.5 16.5t0.5 15.5q0 8 -3 10t-19 2h-7q-16 0 -21.5 -2t-6.5 -8l-5 -53q-23 33 -59.5 53t-88.5 20q-50 0 -92 -20t-72.5 -57t-47.5 -89.5t-17 -116.5q0 -54 13 -102.5t40 -84.5t68.5 -57t98.5 -21q53 0 95.5 21t65.5 60l8 -62q1 -5 5.5 -7
t21.5 -2h3q15 0 20 1.5t5 6.5q-4 53 -5.5 101.5t-1.5 113.5v146zM419 246q0 -35 -1.5 -59.5t-6 -42t-11.5 -30t-17 -24.5q-37 -41 -110 -41q-45 0 -75 18t-48 48t-25.5 68t-7.5 77q0 100 43.5 159t119.5 59q48 0 81 -22t58 -60v-150zM268 729q-15 0 -22 -2.5t-12 -7.5
l-94 -100q-5 -5 4 -16l5 -6q10 -11 16 -6l116 97l116 -97q6 -5 16 6l5 6q9 11 4 16l-94 100q-5 5 -12 7.5t-22 2.5h-26z" />
    <glyph glyph-name="atilde" unicode="&#xe3;" horiz-adv-x="563" 
d="M484 369v61.5t1 53.5q0 8 0.5 16.5t0.5 15.5q0 8 -3 10t-19 2h-7q-16 0 -21.5 -2t-6.5 -8l-5 -53q-23 33 -59.5 53t-88.5 20q-50 0 -92 -20t-72.5 -57t-47.5 -89.5t-17 -116.5q0 -54 13 -102.5t40 -84.5t68.5 -57t98.5 -21q53 0 95.5 21t65.5 60l8 -62q1 -5 5.5 -7
t21.5 -2h3q15 0 20 1.5t5 6.5q-4 53 -5.5 101.5t-1.5 113.5v146zM419 246q0 -35 -1.5 -59.5t-6 -42t-11.5 -30t-17 -24.5q-37 -41 -110 -41q-45 0 -75 18t-48 48t-25.5 68t-7.5 77q0 100 43.5 159t119.5 59q48 0 81 -22t58 -60v-150zM431 665q5 6 -2 16l-8 10q-6 8 -9.5 9
t-6.5 -1q-17 -16 -29.5 -23t-28.5 -7q-17 0 -31.5 6t-29 13t-30.5 13t-37 6q-26 0 -50 -13.5t-38 -30.5q-5 -6 2 -16l8 -10q10 -13 16 -8q17 16 29.5 23t28.5 7q17 0 31.5 -6t29 -13t30.5 -13t37 -6q26 0 50 13.5t38 30.5z" />
    <glyph glyph-name="adieresis" unicode="&#xe4;" horiz-adv-x="563" 
d="M484 369v61.5t1 53.5q0 8 0.5 16.5t0.5 15.5q0 8 -3 10t-19 2h-7q-16 0 -21.5 -2t-6.5 -8l-5 -53q-23 33 -59.5 53t-88.5 20q-50 0 -92 -20t-72.5 -57t-47.5 -89.5t-17 -116.5q0 -54 13 -102.5t40 -84.5t68.5 -57t98.5 -21q53 0 95.5 21t65.5 60l8 -62q1 -5 5.5 -7
t21.5 -2h3q15 0 20 1.5t5 6.5q-4 53 -5.5 101.5t-1.5 113.5v146zM419 246q0 -35 -1.5 -59.5t-6 -42t-11.5 -30t-17 -24.5q-37 -41 -110 -41q-45 0 -75 18t-48 48t-25.5 68t-7.5 77q0 100 43.5 159t119.5 59q48 0 81 -22t58 -60v-150zM133 654q0 -20 13.5 -33.5t33.5 -13.5
t34 13.5t14 33.5t-14 34t-34 14t-33.5 -14t-13.5 -34zM335 654q0 -20 13.5 -33.5t33.5 -13.5t34 13.5t14 33.5t-14 34t-34 14t-33.5 -14t-13.5 -34z" />
    <glyph glyph-name="amacron" unicode="&#x101;" horiz-adv-x="563" 
d="M484 369v61.5t1 53.5q0 8 0.5 16.5t0.5 15.5q0 8 -3 10t-19 2h-7q-16 0 -21.5 -2t-6.5 -8l-5 -53q-23 33 -59.5 53t-88.5 20q-50 0 -92 -20t-72.5 -57t-47.5 -89.5t-17 -116.5q0 -54 13 -102.5t40 -84.5t68.5 -57t98.5 -21q53 0 95.5 21t65.5 60l8 -62q1 -5 5.5 -7
t21.5 -2h3q15 0 20 1.5t5 6.5q-4 53 -5.5 101.5t-1.5 113.5v146zM419 246q0 -35 -1.5 -59.5t-6 -42t-11.5 -30t-17 -24.5q-37 -41 -110 -41q-45 0 -75 18t-48 48t-25.5 68t-7.5 77q0 100 43.5 159t119.5 59q48 0 81 -22t58 -60v-150zM150 684q-5 0 -6.5 -4.5t-1.5 -18.5v-3
q0 -25 8 -25h262q8 0 8 25v3q0 14 -1.5 18.5t-6.5 4.5h-262z" />
    <glyph glyph-name="abreve" unicode="&#x103;" horiz-adv-x="563" 
d="M484 369v61.5t1 53.5q0 8 0.5 16.5t0.5 15.5q0 8 -3 10t-19 2h-7q-16 0 -21.5 -2t-6.5 -8l-5 -53q-23 33 -59.5 53t-88.5 20q-50 0 -92 -20t-72.5 -57t-47.5 -89.5t-17 -116.5q0 -54 13 -102.5t40 -84.5t68.5 -57t98.5 -21q53 0 95.5 21t65.5 60l8 -62q1 -5 5.5 -7
t21.5 -2h3q15 0 20 1.5t5 6.5q-4 53 -5.5 101.5t-1.5 113.5v146zM419 246q0 -35 -1.5 -59.5t-6 -42t-11.5 -30t-17 -24.5q-37 -41 -110 -41q-45 0 -75 18t-48 48t-25.5 68t-7.5 77q0 100 43.5 159t119.5 59q48 0 81 -22t58 -60v-150zM281 595q28 0 53 7.5t43.5 22t29 35
t10.5 46.5q0 3 -2.5 4.5t-16.5 1.5h-12q-13 0 -15.5 -1.5t-3.5 -8.5q-4 -32 -26 -49t-60 -17t-60 17t-26 49q-1 7 -3.5 8.5t-15.5 1.5h-12q-14 0 -16.5 -1.5t-2.5 -4.5q0 -26 10.5 -46.5t29 -35t43 -22t53.5 -7.5z" />
    <glyph glyph-name="acaron" unicode="&#x1ce;" horiz-adv-x="563" 
d="M484 369v61.5t1 53.5q0 8 0.5 16.5t0.5 15.5q0 8 -3 10t-19 2h-7q-16 0 -21.5 -2t-6.5 -8l-5 -53q-23 33 -59.5 53t-88.5 20q-50 0 -92 -20t-72.5 -57t-47.5 -89.5t-17 -116.5q0 -54 13 -102.5t40 -84.5t68.5 -57t98.5 -21q53 0 95.5 21t65.5 60l8 -62q1 -5 5.5 -7
t21.5 -2h3q15 0 20 1.5t5 6.5q-4 53 -5.5 101.5t-1.5 113.5v146zM419 246q0 -35 -1.5 -59.5t-6 -42t-11.5 -30t-17 -24.5q-37 -41 -110 -41q-45 0 -75 18t-48 48t-25.5 68t-7.5 77q0 100 43.5 159t119.5 59q48 0 81 -22t58 -60v-150zM294 583q15 0 22 2.5t12 7.5l94 100
q5 5 -4 16l-5 6q-10 11 -16 6l-116 -97l-116 97q-6 5 -16 -6l-5 -6q-9 -11 -4 -16l94 -100q5 -5 12 -7.5t22 -2.5h26z" />
    <glyph glyph-name="aring" unicode="&#xe5;" horiz-adv-x="563" 
d="M484 369v61.5t1 53.5q0 8 0.5 16.5t0.5 15.5q0 8 -3 10t-19 2h-7q-16 0 -21.5 -2t-6.5 -8l-5 -53q-23 33 -59.5 53t-88.5 20q-50 0 -92 -20t-72.5 -57t-47.5 -89.5t-17 -116.5q0 -54 13 -102.5t40 -84.5t68.5 -57t98.5 -21q53 0 95.5 21t65.5 60l8 -62q1 -5 5.5 -7
t21.5 -2h3q15 0 20 1.5t5 6.5q-4 53 -5.5 101.5t-1.5 113.5v146zM419 246q0 -35 -1.5 -59.5t-6 -42t-11.5 -30t-17 -24.5q-37 -41 -110 -41q-45 0 -75 18t-48 48t-25.5 68t-7.5 77q0 100 43.5 159t119.5 59q48 0 81 -22t58 -60v-150zM187 668q0 -19 7.5 -35.5t20.5 -28.5
t30 -19t36 -7t36 7t30 19t20.5 28.5t7.5 35.5t-7.5 35.5t-20.5 28.5t-30 19t-36 7t-36 -7t-30 -19t-20.5 -28.5t-7.5 -35.5zM230 668q0 23 15 37t36 14q23 0 36 -15t13 -36t-13 -36t-36 -15q-21 0 -36 14t-15 37z" />
    <glyph glyph-name="aringacute" unicode="&#x1fb;" horiz-adv-x="563" 
d="M484 369v61.5t1 53.5q0 8 0.5 16.5t0.5 15.5q0 8 -3 10t-19 2h-7q-16 0 -21.5 -2t-6.5 -8l-5 -53q-23 33 -59.5 53t-88.5 20q-50 0 -92 -20t-72.5 -57t-47.5 -89.5t-17 -116.5q0 -54 13 -102.5t40 -84.5t68.5 -57t98.5 -21q53 0 95.5 21t65.5 60l8 -62q1 -5 5.5 -7
t21.5 -2h3q15 0 20 1.5t5 6.5q-4 53 -5.5 101.5t-1.5 113.5v146zM419 246q0 -35 -1.5 -59.5t-6 -42t-11.5 -30t-17 -24.5q-37 -41 -110 -41q-45 0 -75 18t-48 48t-25.5 68t-7.5 77q0 100 43.5 159t119.5 59q48 0 81 -22t58 -60v-150zM187 658q0 -19 7.5 -35.5t20.5 -28.5
t30 -19t36 -7t36 7t30 19t20.5 28.5t7.5 35.5t-7.5 35.5t-20.5 28.5t-30 19t-36 7t-36 -7t-30 -19t-20.5 -28.5t-7.5 -35.5zM230 658q0 23 15 37t36 14q23 0 36 -15t13 -36t-13 -36t-36 -15q-21 0 -36 14t-15 37zM319 903q-20 0 -26.5 -2.5t-9.5 -7.5l-67 -118q-4 -7 20 -7
h4q14 0 19 1t8 5l88 119q4 5 0 7.5t-21 2.5h-15z" />
    <glyph glyph-name="aogonek" unicode="&#x105;" horiz-adv-x="563" 
d="M484 369v61.5t1 53.5q0 8 0.5 16.5t0.5 15.5q0 8 -3 10t-19 2h-7q-16 0 -21.5 -2t-6.5 -8l-5 -53q-23 33 -59.5 53t-88.5 20q-50 0 -92 -20t-72.5 -57t-47.5 -89.5t-17 -116.5q0 -54 13 -102.5t40 -84.5t68.5 -57t98.5 -21q53 0 95.5 21t65.5 60l8 -56q-53 -20 -87 -58.5
t-34 -89.5q0 -45 29.5 -70.5t70.5 -25.5q38 0 73 16q5 2 2 18l-1 5q-2 10 -4.5 12.5t-5.5 1.5q-11 -3 -23.5 -6t-25.5 -3q-27 0 -42.5 14.5t-15.5 42.5q0 34 21 67q14 23 38 38.5t51 22.5q6 2 7.5 3.5t1.5 8.5q-2 27 -3.5 51t-2 48.5t-1 51.5t-0.5 60v146zM419 246
q0 -35 -1.5 -59.5t-6 -42t-11.5 -30t-17 -24.5q-37 -41 -110 -41q-45 0 -75 18t-48 48t-25.5 68t-7.5 77q0 100 43.5 159t119.5 59q48 0 81 -22t58 -60v-150z" />
    <glyph glyph-name="ae" unicode="&#xe6;" horiz-adv-x="863" 
d="M804 243q8 0 11 4t3 21q0 45 -8.5 86t-25.5 76q-25 50 -69 79t-104 29q-64 0 -108.5 -28t-69.5 -77q-7 27 -23.5 46.5t-40.5 32.5t-53.5 19.5t-62.5 6.5q-41 0 -86 -8.5t-81 -24.5q-5 -2 -5 -8t5 -20l2 -6q5 -14 8.5 -17.5t9.5 -1.5q35 14 70.5 20.5t67.5 6.5
q78 0 112 -34t32 -115l-1 -33q-66 26 -133 26q-97 0 -153 -42.5t-56 -127.5q0 -40 13.5 -70.5t37.5 -51t56.5 -31t69.5 -10.5q74 0 124 29t81 68q22 -42 70 -69.5t114 -27.5q98 0 173 39q9 5 1 26l-4 10q-6 15 -10 17.5t-12 -1.5q-29 -14 -64 -22t-73 -8q-39 0 -66.5 10
t-49.5 31t-35.5 59t-15.5 92h349zM236 48q-57 0 -89 27.5t-32 81.5q0 60 39.5 87t101.5 27q36 0 69.5 -8.5t59.5 -20.5q1 -59 18 -105q-28 -42 -70 -65.5t-97 -23.5zM456 295q6 91 45.5 136.5t107.5 45.5q36 0 62.5 -15.5t44 -41t26 -58.5t9.5 -67h-295z" />
    <glyph glyph-name="aeacute" unicode="&#x1fd;" horiz-adv-x="863" 
d="M804 243q8 0 11 4t3 21q0 45 -8.5 86t-25.5 76q-25 50 -69 79t-104 29q-64 0 -108.5 -28t-69.5 -77q-7 27 -23.5 46.5t-40.5 32.5t-53.5 19.5t-62.5 6.5q-41 0 -86 -8.5t-81 -24.5q-5 -2 -5 -8t5 -20l2 -6q5 -14 8.5 -17.5t9.5 -1.5q35 14 70.5 20.5t67.5 6.5
q78 0 112 -34t32 -115l-1 -33q-66 26 -133 26q-97 0 -153 -42.5t-56 -127.5q0 -40 13.5 -70.5t37.5 -51t56.5 -31t69.5 -10.5q74 0 124 29t81 68q22 -42 70 -69.5t114 -27.5q98 0 173 39q9 5 1 26l-4 10q-6 15 -10 17.5t-12 -1.5q-29 -14 -64 -22t-73 -8q-39 0 -66.5 10
t-49.5 31t-35.5 59t-15.5 92h349zM236 48q-57 0 -89 27.5t-32 81.5q0 60 39.5 87t101.5 27q36 0 69.5 -8.5t59.5 -20.5q1 -59 18 -105q-28 -42 -70 -65.5t-97 -23.5zM456 295q6 91 45.5 136.5t107.5 45.5q36 0 62.5 -15.5t44 -41t26 -58.5t9.5 -67h-295zM511 721
q-20 0 -26.5 -2.5t-9.5 -7.5l-67 -118q-4 -7 20 -7h4q14 0 19 1t8 5l88 119q4 5 0 7.5t-21 2.5h-15z" />
    <glyph glyph-name="cacute" unicode="&#x107;" horiz-adv-x="483" 
d="M446 493q-68 45 -156 45q-52 0 -96.5 -18.5t-77 -54t-51 -88t-18.5 -121.5q0 -56 14 -104.5t42.5 -84.5t72 -56.5t101.5 -20.5q46 0 87.5 9.5t73.5 27.5q5 3 5.5 7.5t-4.5 16.5l-4 11q-5 14 -9 17.5t-11 -0.5q-29 -16 -62 -23t-69 -7q-46 0 -78 17.5t-51.5 46.5t-28.5 68
t-9 81q0 104 49 159.5t129 55.5q64 0 122 -35q7 -4 11.5 -1.5t11.5 16.5l4 8q7 14 7 19t-5 9zM338 721q-20 0 -26.5 -2.5t-9.5 -7.5l-67 -118q-4 -7 20 -7h4q14 0 19 1t8 5l88 119q4 5 0 7.5t-21 2.5h-15z" />
    <glyph glyph-name="ccedilla" unicode="&#xe7;" horiz-adv-x="483" 
d="M229 -109q11 2 26.5 3.5t26.5 1.5q28 0 44.5 -10t16.5 -33t-16.5 -33.5t-45.5 -10.5q-13 0 -27 2t-28 5q-4 1 -6 -1.5t-4 -12.5l-1 -5q-3 -16 2 -18q10 -5 30.5 -8.5t41.5 -3.5q29 0 49.5 7.5t34 20t20 28.5t6.5 34q0 35 -25 56.5t-65 21.5q-7 0 -13.5 -0.5t-13.5 -1.5
l7 57q43 2 81.5 11t67.5 26q5 3 5.5 7.5t-4.5 16.5l-4 11q-5 14 -9 17.5t-11 -0.5q-29 -16 -62 -23t-69 -7q-46 0 -78 17.5t-51.5 46.5t-28.5 68t-9 81q0 104 49 159.5t129 55.5q64 0 122 -35q7 -4 11.5 -1.5t11.5 16.5l4 8q7 14 7 19t-5 9q-68 45 -156 45
q-52 0 -96.5 -18.5t-77 -54t-51 -88t-18.5 -121.5q0 -52 12 -97.5t36 -80.5t60.5 -57.5t86.5 -28.5z" />
    <glyph glyph-name="ccircumflex" unicode="&#x109;" horiz-adv-x="483" 
d="M446 493q-68 45 -156 45q-52 0 -96.5 -18.5t-77 -54t-51 -88t-18.5 -121.5q0 -56 14 -104.5t42.5 -84.5t72 -56.5t101.5 -20.5q46 0 87.5 9.5t73.5 27.5q5 3 5.5 7.5t-4.5 16.5l-4 11q-5 14 -9 17.5t-11 -0.5q-29 -16 -62 -23t-69 -7q-46 0 -78 17.5t-51.5 46.5t-28.5 68
t-9 81q0 104 49 159.5t129 55.5q64 0 122 -35q7 -4 11.5 -1.5t11.5 16.5l4 8q7 14 7 19t-5 9zM278 729q-15 0 -22 -2.5t-12 -7.5l-94 -100q-5 -5 4 -16l5 -6q10 -11 16 -6l116 97l116 -97q6 -5 16 6l5 6q9 11 4 16l-94 100q-5 5 -12 7.5t-22 2.5h-26z" />
    <glyph glyph-name="ccaron" unicode="&#x10d;" horiz-adv-x="483" 
d="M446 493q-68 45 -156 45q-52 0 -96.5 -18.5t-77 -54t-51 -88t-18.5 -121.5q0 -56 14 -104.5t42.5 -84.5t72 -56.5t101.5 -20.5q46 0 87.5 9.5t73.5 27.5q5 3 5.5 7.5t-4.5 16.5l-4 11q-5 14 -9 17.5t-11 -0.5q-29 -16 -62 -23t-69 -7q-46 0 -78 17.5t-51.5 46.5t-28.5 68
t-9 81q0 104 49 159.5t129 55.5q64 0 122 -35q7 -4 11.5 -1.5t11.5 16.5l4 8q7 14 7 19t-5 9zM304 583q15 0 22 2.5t12 7.5l94 100q5 5 -4 16l-5 6q-10 11 -16 6l-116 -97l-116 97q-6 5 -16 -6l-5 -6q-9 -11 -4 -16l94 -100q5 -5 12 -7.5t22 -2.5h26z" />
    <glyph glyph-name="cdotaccent" unicode="&#x10b;" horiz-adv-x="483" 
d="M446 493q-68 45 -156 45q-52 0 -96.5 -18.5t-77 -54t-51 -88t-18.5 -121.5q0 -56 14 -104.5t42.5 -84.5t72 -56.5t101.5 -20.5q46 0 87.5 9.5t73.5 27.5q5 3 5.5 7.5t-4.5 16.5l-4 11q-5 14 -9 17.5t-11 -0.5q-29 -16 -62 -23t-69 -7q-46 0 -78 17.5t-51.5 46.5t-28.5 68
t-9 81q0 104 49 159.5t129 55.5q64 0 122 -35q7 -4 11.5 -1.5t11.5 16.5l4 8q7 14 7 19t-5 9zM245 680q0 -20 13 -33t33 -13t33.5 13t13.5 33t-13.5 33.5t-33.5 13.5t-33 -13.5t-13 -33.5z" />
    <glyph glyph-name="dcaron" unicode="&#x10f;" horiz-adv-x="631" 
d="M527 50q-12 0 -20 2t-13 8.5t-7 19.5t-2 35v636q0 9 -29 9h-8q-12 0 -20 -2t-8 -7v-255q-26 20 -61.5 31t-71.5 11q-60 0 -105 -23.5t-75 -63t-45 -91t-15 -107.5q0 -125 57.5 -194t164.5 -69q112 0 157 74q6 -66 68 -66q10 0 19.5 1t14.5 3t5.5 5.5t0.5 17.5v4
q0 15 -1 18t-6 3zM420 244q0 -35 -1 -59t-4.5 -42t-10 -30.5t-16.5 -22.5q-19 -20 -48 -30.5t-63 -10.5q-73 0 -116.5 52t-43.5 155q0 50 12.5 91t35.5 70t55.5 44.5t72.5 15.5q38 0 69 -12t58 -35v-186zM542 513q8 -8 14 -4q41 32 63 76t22 91q0 22 -13 38t-36 16
q-17 0 -29 -10.5t-12 -27.5q0 -12 5.5 -20t11.5 -15.5t11.5 -16.5t5.5 -22q0 -21 -16 -45.5t-33 -41.5q-6 -6 1 -13z" />
    <glyph glyph-name="dcroat" unicode="&#x111;" horiz-adv-x="581" 
d="M260 669q-5 0 -6.5 -4.5t-1.5 -18.5v-1q0 -25 8 -25h160v-124q-26 20 -61.5 31t-71.5 11q-60 0 -105 -23.5t-75 -63t-45 -91t-15 -107.5q0 -125 57.5 -194t164.5 -69q112 0 157 74q6 -66 68 -66q10 0 19.5 1t14.5 3t5.5 5.5t0.5 17.5v4q0 15 -1 18t-6 3q-12 0 -20 2
t-13 8.5t-7 19.5t-2 35v505h67q8 0 8 25v1q0 14 -1.5 18.5t-6.5 4.5h-67v82q0 9 -29 9h-8q-12 0 -20 -2t-8 -7v-82h-160zM420 244q0 -35 -1 -59t-4.5 -42t-10 -30.5t-16.5 -22.5q-19 -20 -48 -30.5t-63 -10.5q-73 0 -116.5 52t-43.5 155q0 50 12.5 91t35.5 70t55.5 44.5
t72.5 15.5q38 0 69 -12t58 -35v-186z" />
    <glyph glyph-name="eth" unicode="&#xf0;" horiz-adv-x="566" 
d="M427 724q3 2 3.5 5.5t-4.5 11.5l-6 12q-6 13 -14 9l-126 -58q-70 45 -140 71q-6 2 -9 -0.5t-8 -11.5l-5 -9q-6 -11 -6 -15t5 -7l50 -25t54 -31l-115 -54q-7 -3 1 -17l6 -12q6 -13 14 -9l137 64q51 -36 87.5 -78.5t61.5 -94.5q-28 20 -62 30.5t-71 10.5q-50 0 -92.5 -20
t-74 -55.5t-49 -84.5t-17.5 -107q0 -62 17 -110t48 -81t73.5 -50.5t93.5 -17.5q47 0 89.5 15.5t75 50.5t51.5 91.5t19 139.5q0 128 -50 223t-143 165zM445 294q0 -121 -38 -183t-123 -62q-80 0 -123.5 54t-43.5 148q0 43 11 81t33 65.5t54.5 43.5t74.5 16q39 0 73.5 -12.5
t65.5 -35.5q8 -21 12 -53.5t4 -61.5z" />
    <glyph glyph-name="egrave" unicode="&#xe8;" horiz-adv-x="541" 
d="M482 243q8 0 11 4t3 21q0 45 -8.5 86t-25.5 76q-25 50 -69 79t-109 29q-56 0 -100 -22t-74.5 -60t-46.5 -90.5t-16 -113.5q0 -122 62.5 -192t179.5 -70q98 0 173 39q9 5 1 26l-4 10q-6 15 -10 17.5t-12 -1.5q-29 -14 -64 -22t-73 -8q-39 0 -71 10t-55 30q-53 45 -57 152
h365zM118 295q5 49 19.5 84t36 56.5t49.5 31.5t60 10q38 0 65 -15.5t45 -41t26.5 -58.5t9.5 -67h-311zM233 721q-17 0 -21 -2.5t0 -7.5l88 -119q3 -4 8 -5t19 -1h4q24 0 20 7l-67 118q-3 5 -9.5 7.5t-26.5 2.5h-15z" />
    <glyph glyph-name="eacute" unicode="&#xe9;" horiz-adv-x="541" 
d="M482 243q8 0 11 4t3 21q0 45 -8.5 86t-25.5 76q-25 50 -69 79t-109 29q-56 0 -100 -22t-74.5 -60t-46.5 -90.5t-16 -113.5q0 -122 62.5 -192t179.5 -70q98 0 173 39q9 5 1 26l-4 10q-6 15 -10 17.5t-12 -1.5q-29 -14 -64 -22t-73 -8q-39 0 -71 10t-55 30q-53 45 -57 152
h365zM118 295q5 49 19.5 84t36 56.5t49.5 31.5t60 10q38 0 65 -15.5t45 -41t26.5 -58.5t9.5 -67h-311zM323 721q-20 0 -26.5 -2.5t-9.5 -7.5l-67 -118q-4 -7 20 -7h4q14 0 19 1t8 5l88 119q4 5 0 7.5t-21 2.5h-15z" />
    <glyph glyph-name="ecircumflex" unicode="&#xea;" horiz-adv-x="541" 
d="M482 243q8 0 11 4t3 21q0 45 -8.5 86t-25.5 76q-25 50 -69 79t-109 29q-56 0 -100 -22t-74.5 -60t-46.5 -90.5t-16 -113.5q0 -122 62.5 -192t179.5 -70q98 0 173 39q9 5 1 26l-4 10q-6 15 -10 17.5t-12 -1.5q-29 -14 -64 -22t-73 -8q-39 0 -71 10t-55 30q-53 45 -57 152
h365zM118 295q5 49 19.5 84t36 56.5t49.5 31.5t60 10q38 0 65 -15.5t45 -41t26.5 -58.5t9.5 -67h-311zM267 729q-15 0 -22 -2.5t-12 -7.5l-94 -100q-5 -5 4 -16l5 -6q10 -11 16 -6l116 97l116 -97q6 -5 16 6l5 6q9 11 4 16l-94 100q-5 5 -12 7.5t-22 2.5h-26z" />
    <glyph glyph-name="ecaron" unicode="&#x11b;" horiz-adv-x="541" 
d="M482 243q8 0 11 4t3 21q0 45 -8.5 86t-25.5 76q-25 50 -69 79t-109 29q-56 0 -100 -22t-74.5 -60t-46.5 -90.5t-16 -113.5q0 -122 62.5 -192t179.5 -70q98 0 173 39q9 5 1 26l-4 10q-6 15 -10 17.5t-12 -1.5q-29 -14 -64 -22t-73 -8q-39 0 -71 10t-55 30q-53 45 -57 152
h365zM118 295q5 49 19.5 84t36 56.5t49.5 31.5t60 10q38 0 65 -15.5t45 -41t26.5 -58.5t9.5 -67h-311zM297 583q15 0 22 2.5t12 7.5l94 100q5 5 -4 16l-5 6q-10 11 -16 6l-116 -97l-116 97q-6 5 -16 -6l-5 -6q-9 -11 -4 -16l94 -100q5 -5 12 -7.5t22 -2.5h26z" />
    <glyph glyph-name="edieresis" unicode="&#xeb;" horiz-adv-x="541" 
d="M482 243q8 0 11 4t3 21q0 45 -8.5 86t-25.5 76q-25 50 -69 79t-109 29q-56 0 -100 -22t-74.5 -60t-46.5 -90.5t-16 -113.5q0 -122 62.5 -192t179.5 -70q98 0 173 39q9 5 1 26l-4 10q-6 15 -10 17.5t-12 -1.5q-29 -14 -64 -22t-73 -8q-39 0 -71 10t-55 30q-53 45 -57 152
h365zM118 295q5 49 19.5 84t36 56.5t49.5 31.5t60 10q38 0 65 -15.5t45 -41t26.5 -58.5t9.5 -67h-311zM132 654q0 -20 13.5 -33.5t33.5 -13.5t34 13.5t14 33.5t-14 34t-34 14t-33.5 -14t-13.5 -34zM334 654q0 -20 13.5 -33.5t33.5 -13.5t34 13.5t14 33.5t-14 34t-34 14
t-33.5 -14t-13.5 -34z" />
    <glyph glyph-name="emacron" unicode="&#x113;" horiz-adv-x="541" 
d="M482 243q8 0 11 4t3 21q0 45 -8.5 86t-25.5 76q-25 50 -69 79t-109 29q-56 0 -100 -22t-74.5 -60t-46.5 -90.5t-16 -113.5q0 -122 62.5 -192t179.5 -70q98 0 173 39q9 5 1 26l-4 10q-6 15 -10 17.5t-12 -1.5q-29 -14 -64 -22t-73 -8q-39 0 -71 10t-55 30q-53 45 -57 152
h365zM118 295q5 49 19.5 84t36 56.5t49.5 31.5t60 10q38 0 65 -15.5t45 -41t26.5 -58.5t9.5 -67h-311zM152 684q-5 0 -6.5 -4.5t-1.5 -18.5v-3q0 -25 8 -25h262q8 0 8 25v3q0 14 -1.5 18.5t-6.5 4.5h-262z" />
    <glyph glyph-name="ebreve" unicode="&#x115;" horiz-adv-x="541" 
d="M482 243q8 0 11 4t3 21q0 45 -8.5 86t-25.5 76q-25 50 -69 79t-109 29q-56 0 -100 -22t-74.5 -60t-46.5 -90.5t-16 -113.5q0 -122 62.5 -192t179.5 -70q98 0 173 39q9 5 1 26l-4 10q-6 15 -10 17.5t-12 -1.5q-29 -14 -64 -22t-73 -8q-39 0 -71 10t-55 30q-53 45 -57 152
h365zM118 295q5 49 19.5 84t36 56.5t49.5 31.5t60 10q38 0 65 -15.5t45 -41t26.5 -58.5t9.5 -67h-311zM285 595q28 0 53 7.5t43.5 22t29 35t10.5 46.5q0 3 -2.5 4.5t-16.5 1.5h-12q-13 0 -15.5 -1.5t-3.5 -8.5q-4 -32 -26 -49t-60 -17t-60 17t-26 49q-1 7 -3.5 8.5
t-15.5 1.5h-12q-14 0 -16.5 -1.5t-2.5 -4.5q0 -26 10.5 -46.5t29 -35t43 -22t53.5 -7.5z" />
    <glyph glyph-name="edotaccent" unicode="&#x117;" horiz-adv-x="541" 
d="M482 243q8 0 11 4t3 21q0 45 -8.5 86t-25.5 76q-25 50 -69 79t-109 29q-56 0 -100 -22t-74.5 -60t-46.5 -90.5t-16 -113.5q0 -122 62.5 -192t179.5 -70q98 0 173 39q9 5 1 26l-4 10q-6 15 -10 17.5t-12 -1.5q-29 -14 -64 -22t-73 -8q-39 0 -71 10t-55 30q-53 45 -57 152
h365zM118 295q5 49 19.5 84t36 56.5t49.5 31.5t60 10q38 0 65 -15.5t45 -41t26.5 -58.5t9.5 -67h-311zM239 680q0 -20 13 -33t33 -13t33.5 13t13.5 33t-13.5 33.5t-33.5 13.5t-33 -13.5t-13 -33.5z" />
    <glyph glyph-name="eogonek" unicode="&#x119;" horiz-adv-x="541" 
d="M444 -213q5 2 2 18l-1 5q-2 10 -4.5 12.5t-5.5 1.5q-11 -3 -23.5 -6t-25.5 -3q-27 0 -42.5 16t-15.5 44q0 49 38.5 87.5t95.5 66.5q9 5 1 26l-4 10q-6 15 -10 17.5t-12 -1.5q-29 -14 -64 -22t-73 -8q-39 0 -71 10t-55 30q-53 45 -57 152h365q8 0 11 4t3 21q0 45 -8.5 86
t-25.5 76q-25 50 -69 79t-109 29q-56 0 -100 -22t-74.5 -60t-46.5 -90.5t-16 -113.5q0 -122 62.5 -192t179.5 -70q25 0 49 3q-30 -23 -48.5 -55.5t-18.5 -67.5q0 -48 29.5 -73.5t70.5 -25.5q38 0 73 16zM118 295q5 49 19.5 84t36 56.5t49.5 31.5t60 10q38 0 65 -15.5t45 -41
t26.5 -58.5t9.5 -67h-311z" />
    <glyph glyph-name="gcircumflex" unicode="&#x11d;" horiz-adv-x="561" 
d="M484 519q0 5 -4.5 7t-24.5 2h-4q-17 0 -22.5 -2t-5.5 -7l-1 -48q-26 37 -63 52t-82 15q-50 0 -92 -19.5t-72.5 -55.5t-48 -88t-17.5 -117q0 -55 13.5 -102.5t39.5 -82t65.5 -54t92.5 -19.5q102 0 165 66q0 -35 -1.5 -69t-4.5 -54q-13 -66 -56 -97t-112 -31q-36 0 -64.5 5
t-54.5 16q-8 3 -11 -0.5t-9 -20.5l-2 -6q-5 -16 -4 -21t6 -7q25 -11 63 -18.5t76 -7.5q82 0 139 36t80 108q11 37 15.5 82.5t4.5 111.5v174q0 34 -0.5 70t-1 70t-1 63t-1.5 49zM423 132q-27 -32 -65.5 -52t-82.5 -20q-80 0 -119 52t-39 150q0 97 42.5 155t126.5 58
q46 0 76 -18t44 -45q11 -20 14 -47t3 -81v-152zM267 729q-15 0 -22 -2.5t-12 -7.5l-94 -100q-5 -5 4 -16l5 -6q10 -11 16 -6l116 97l116 -97q6 -5 16 6l5 6q9 11 4 16l-94 100q-5 5 -12 7.5t-22 2.5h-26z" />
    <glyph glyph-name="gbreve" unicode="&#x11f;" horiz-adv-x="561" 
d="M484 519q0 5 -4.5 7t-24.5 2h-4q-17 0 -22.5 -2t-5.5 -7l-1 -48q-26 37 -63 52t-82 15q-50 0 -92 -19.5t-72.5 -55.5t-48 -88t-17.5 -117q0 -55 13.5 -102.5t39.5 -82t65.5 -54t92.5 -19.5q102 0 165 66q0 -35 -1.5 -69t-4.5 -54q-13 -66 -56 -97t-112 -31q-36 0 -64.5 5
t-54.5 16q-8 3 -11 -0.5t-9 -20.5l-2 -6q-5 -16 -4 -21t6 -7q25 -11 63 -18.5t76 -7.5q82 0 139 36t80 108q11 37 15.5 82.5t4.5 111.5v174q0 34 -0.5 70t-1 70t-1 63t-1.5 49zM423 132q-27 -32 -65.5 -52t-82.5 -20q-80 0 -119 52t-39 150q0 97 42.5 155t126.5 58
q46 0 76 -18t44 -45q11 -20 14 -47t3 -81v-152zM280 595q28 0 53 7.5t43.5 22t29 35t10.5 46.5q0 3 -2.5 4.5t-16.5 1.5h-12q-13 0 -15.5 -1.5t-3.5 -8.5q-4 -32 -26 -49t-60 -17t-60 17t-26 49q-1 7 -3.5 8.5t-15.5 1.5h-12q-14 0 -16.5 -1.5t-2.5 -4.5q0 -26 10.5 -46.5
t29 -35t43 -22t53.5 -7.5z" />
    <glyph glyph-name="gdotaccent" unicode="&#x121;" horiz-adv-x="561" 
d="M484 519q0 5 -4.5 7t-24.5 2h-4q-17 0 -22.5 -2t-5.5 -7l-1 -48q-26 37 -63 52t-82 15q-50 0 -92 -19.5t-72.5 -55.5t-48 -88t-17.5 -117q0 -55 13.5 -102.5t39.5 -82t65.5 -54t92.5 -19.5q102 0 165 66q0 -35 -1.5 -69t-4.5 -54q-13 -66 -56 -97t-112 -31q-36 0 -64.5 5
t-54.5 16q-8 3 -11 -0.5t-9 -20.5l-2 -6q-5 -16 -4 -21t6 -7q25 -11 63 -18.5t76 -7.5q82 0 139 36t80 108q11 37 15.5 82.5t4.5 111.5v174q0 34 -0.5 70t-1 70t-1 63t-1.5 49zM423 132q-27 -32 -65.5 -52t-82.5 -20q-80 0 -119 52t-39 150q0 97 42.5 155t126.5 58
q46 0 76 -18t44 -45q11 -20 14 -47t3 -81v-152zM237 680q0 -20 13 -33t33 -13t33.5 13t13.5 33t-13.5 33.5t-33.5 13.5t-33 -13.5t-13 -33.5z" />
    <glyph glyph-name="gcommaaccent" unicode="&#x123;" horiz-adv-x="561" 
d="M331 814q7 -7 1 -13q-17 -17 -33 -41.5t-16 -45.5q0 -14 5.5 -22.5t11.5 -16t11.5 -15.5t5.5 -20q0 -17 -12 -27.5t-29 -10.5q-23 0 -36 16t-13 38q0 47 22 91t63 76q6 4 14 -4zM484 519q1 -20 1.5 -49t1 -63t1 -70t0.5 -70v-174q0 -66 -4.5 -111.5t-15.5 -82.5
q-23 -72 -80 -108t-139 -36q-38 0 -76 7.5t-63 18.5q-5 2 -6 7t4 21l2 6q6 17 9 20.5t11 0.5q26 -11 54.5 -16t64.5 -5q69 0 112 31t56 97q3 20 4.5 54t1.5 69q-63 -66 -165 -66q-53 0 -92.5 19.5t-65.5 54t-39.5 82t-13.5 102.5q0 65 17.5 117t48 88t72.5 55.5t92 19.5
q45 0 82 -15t63 -52l1 48q0 5 5.5 7t22.5 2h4q20 0 24.5 -2t4.5 -7zM423 284q0 54 -3 81t-14 47q-14 27 -44 45t-76 18q-84 0 -126.5 -58t-42.5 -155q0 -98 39 -150t119 -52q44 0 82.5 20t65.5 52v152z" />
    <glyph glyph-name="hcircumflex" unicode="&#x125;" horiz-adv-x="580" 
d="M143 751q0 9 -29 9h-8q-12 0 -20 -2t-8 -7v-740q0 -5 5.5 -8t23.5 -3h8q16 0 22 3t6 8v197q0 46 0.5 84.5t2.5 60.5q2 20 10 39t20 33q23 24 52.5 36.5t71.5 12.5q37 0 65.5 -9t45.5 -29q10 -12 16.5 -27t10 -34.5t4.5 -44t1 -57.5v-262q0 -5 5.5 -8t23.5 -3h8
q17 0 22.5 3t5.5 8v307q0 61 -11.5 101.5t-37.5 66.5q-50 52 -143 52q-59 0 -102 -21t-71 -60v294zM98 902q-15 0 -22 -2.5t-12 -7.5l-94 -100q-5 -5 4 -16l5 -6q10 -11 16 -6l116 97l116 -97q6 -5 16 6l5 6q9 11 4 16l-94 100q-5 5 -12 7.5t-22 2.5h-26z" />
    <glyph glyph-name="hbar" unicode="&#x127;" horiz-adv-x="580" 
d="M143 751q0 9 -29 9h-8q-12 0 -20 -2t-8 -7v-82h-67q-5 0 -6.5 -4.5t-1.5 -18.5v-1q0 -25 8 -25h67v-609q0 -5 5.5 -8t23.5 -3h8q16 0 22 3t6 8v197q0 46 0.5 84.5t2.5 60.5q2 20 10 39t20 33q23 24 52.5 36.5t71.5 12.5q37 0 65.5 -9t45.5 -29q10 -12 16.5 -27t10 -34.5
t4.5 -44t1 -57.5v-262q0 -5 5.5 -8t23.5 -3h8q17 0 22.5 3t5.5 8v307q0 61 -11.5 101.5t-37.5 66.5q-50 52 -143 52q-59 0 -102 -21t-71 -60v163h160q8 0 8 25v1q0 14 -1.5 18.5t-6.5 4.5h-160v82z" />
    <glyph glyph-name="dotlessi" unicode="&#x131;" horiz-adv-x="222" 
d="M78 10q0 -5 5.5 -7.5t23.5 -2.5h8q17 0 22.5 2.5t5.5 7.5v509q0 5 -6 7t-23 2h-8q-16 0 -22 -2t-6 -7v-509z" />
    <glyph glyph-name="igrave" unicode="&#xec;" horiz-adv-x="222" 
d="M78 10q0 -5 5.5 -7.5t23.5 -2.5h8q17 0 22.5 2.5t5.5 7.5v509q0 5 -6 7t-23 2h-8q-16 0 -22 -2t-6 -7v-509zM64 721q-17 0 -21 -2.5t0 -7.5l88 -119q3 -4 8 -5t19 -1h4q24 0 20 7l-67 118q-3 5 -9.5 7.5t-26.5 2.5h-15z" />
    <glyph glyph-name="iacute" unicode="&#xed;" horiz-adv-x="222" 
d="M78 10q0 -5 5.5 -7.5t23.5 -2.5h8q17 0 22.5 2.5t5.5 7.5v509q0 5 -6 7t-23 2h-8q-16 0 -22 -2t-6 -7v-509zM154 721q-20 0 -26.5 -2.5t-9.5 -7.5l-67 -118q-4 -7 20 -7h4q14 0 19 1t8 5l88 119q4 5 0 7.5t-21 2.5h-15z" />
    <glyph glyph-name="icircumflex" unicode="&#xee;" horiz-adv-x="222" 
d="M78 10q0 -5 5.5 -7.5t23.5 -2.5h8q17 0 22.5 2.5t5.5 7.5v509q0 5 -6 7t-23 2h-8q-16 0 -22 -2t-6 -7v-509zM98 729q-15 0 -22 -2.5t-12 -7.5l-94 -100q-5 -5 4 -16l5 -6q10 -11 16 -6l116 97l116 -97q6 -5 16 6l5 6q9 11 4 16l-94 100q-5 5 -12 7.5t-22 2.5h-26z" />
    <glyph glyph-name="itilde" unicode="&#x129;" horiz-adv-x="222" 
d="M78 10q0 -5 5.5 -7.5t23.5 -2.5h8q17 0 22.5 2.5t5.5 7.5v509q0 5 -6 7t-23 2h-8q-16 0 -22 -2t-6 -7v-509zM261 665q5 6 -2 16l-8 10q-6 8 -9.5 9t-6.5 -1q-17 -16 -29.5 -23t-28.5 -7q-17 0 -31.5 6t-29 13t-30.5 13t-37 6q-26 0 -50 -13.5t-38 -30.5q-5 -6 2 -16
l8 -10q10 -13 16 -8q17 16 29.5 23t28.5 7q17 0 31.5 -6t29 -13t30.5 -13t37 -6q26 0 50 13.5t38 30.5z" />
    <glyph glyph-name="idieresis" unicode="&#xef;" horiz-adv-x="222" 
d="M78 10q0 -5 5.5 -7.5t23.5 -2.5h8q17 0 22.5 2.5t5.5 7.5v509q0 5 -6 7t-23 2h-8q-16 0 -22 -2t-6 -7v-509zM-37 654q0 -20 13.5 -33.5t33.5 -13.5t34 13.5t14 33.5t-14 34t-34 14t-33.5 -14t-13.5 -34zM165 654q0 -20 13.5 -33.5t33.5 -13.5t34 13.5t14 33.5t-14 34
t-34 14t-33.5 -14t-13.5 -34z" />
    <glyph glyph-name="imacron" unicode="&#x12b;" horiz-adv-x="222" 
d="M78 10q0 -5 5.5 -7.5t23.5 -2.5h8q17 0 22.5 2.5t5.5 7.5v509q0 5 -6 7t-23 2h-8q-16 0 -22 -2t-6 -7v-509zM-20 684q-5 0 -6.5 -4.5t-1.5 -18.5v-3q0 -25 8 -25h262q8 0 8 25v3q0 14 -1.5 18.5t-6.5 4.5h-262z" />
    <glyph glyph-name="ibreve" unicode="&#x12d;" horiz-adv-x="222" 
d="M78 10q0 -5 5.5 -7.5t23.5 -2.5h8q17 0 22.5 2.5t5.5 7.5v509q0 5 -6 7t-23 2h-8q-16 0 -22 -2t-6 -7v-509zM111 595q28 0 53 7.5t43.5 22t29 35t10.5 46.5q0 3 -2.5 4.5t-16.5 1.5h-12q-13 0 -15.5 -1.5t-3.5 -8.5q-4 -32 -26 -49t-60 -17t-60 17t-26 49q-1 7 -3.5 8.5
t-15.5 1.5h-12q-14 0 -16.5 -1.5t-2.5 -4.5q0 -26 10.5 -46.5t29 -35t43 -22t53.5 -7.5z" />
    <glyph glyph-name="iogonek" unicode="&#x12f;" horiz-adv-x="221" 
d="M7 -133q0 -46 29.5 -71t70.5 -25q38 0 73 16q5 2 2 18l-1 5q-2 10 -4.5 12.5t-5.5 1.5q-11 -3 -23.5 -6t-25.5 -3q-27 0 -42.5 14.5t-15.5 42.5q0 39 20.5 69t49.5 59q6 6 7.5 9.5t1.5 8.5v501q0 5 -6 7t-23 2h-8q-16 0 -22 -2t-6 -7v-519q-29 -25 -50 -58t-21 -75z
M59 710q0 -23 15.5 -38t36.5 -15t36.5 15t15.5 38t-15.5 38.5t-36.5 15.5t-36.5 -15.5t-15.5 -38.5z" />
    <glyph glyph-name="ij" unicode="&#x133;" horiz-adv-x="467" 
d="M59 710q0 -23 15.5 -38t36.5 -15t36.5 15t15.5 38t-15.5 38.5t-36.5 15.5t-36.5 -15.5t-15.5 -38.5zM78 10q0 -5 5.5 -7.5t23.5 -2.5h8q17 0 22.5 2.5t5.5 7.5v509q0 5 -6 7t-23 2h-8q-16 0 -22 -2t-6 -7v-509zM304 710q0 -23 15.5 -38t36.5 -15t36.5 15t15.5 38
t-15.5 38.5t-36.5 15.5t-36.5 -15.5t-15.5 -38.5zM388 519q0 5 -6 7t-23 2h-8q-28 0 -28 -9v-530q0 -97 -26.5 -138t-93.5 -41q-15 0 -27 2t-23 5q-5 2 -7 -2.5t-4 -18.5l-1 -6q-2 -14 -1 -18t4 -6q11 -5 29 -8t36 -3q87 0 133 54t46 182v528z" />
    <glyph glyph-name="jcircumflex" unicode="&#x135;" horiz-adv-x="246" 
d="M167 519q0 5 -6 7t-23 2h-8q-28 0 -28 -9v-530q0 -97 -26.5 -138t-93.5 -41q-15 0 -27 2t-23 5q-5 2 -7 -2.5t-4 -18.5l-1 -6q-2 -14 -1 -18t4 -6q11 -5 29 -8t36 -3q87 0 133 54t46 182v528zM123 729q-15 0 -22 -2.5t-12 -7.5l-94 -100q-5 -5 4 -16l5 -6q10 -11 16 -6
l116 97l116 -97q6 -5 16 6l5 6q9 11 4 16l-94 100q-5 5 -12 7.5t-22 2.5h-26z" />
    <glyph glyph-name="kcommaaccent" unicode="&#x137;" horiz-adv-x="478" 
d="M115 0q12 0 20 2t8 7v210l73 63l166 -271q2 -3 4 -5.5t6 -3.5t11 -1.5t20 -0.5h4q18 0 25.5 2.5t1.5 11.5l-190 309q28 26 53.5 53t47.5 52.5t39.5 48t29.5 40.5q5 7 -0.5 9t-25.5 2h-5q-18 0 -25 -2.5t-11 -7.5q-35 -48 -78 -94.5t-88 -84.5l-58 -50v462q0 9 -29 9h-8
q-12 0 -20 -2t-8 -7v-742q0 -9 29 -9h8zM210 -270q8 -8 14 -4q41 32 63 76t22 91q0 22 -13 38t-36 16q-17 0 -29 -10.5t-12 -27.5q0 -12 5.5 -20t11.5 -15.5t11.5 -16.5t5.5 -22q0 -21 -16 -45.5t-33 -41.5q-6 -6 1 -13z" />
    <glyph glyph-name="kgreenlandic" unicode="&#x138;" horiz-adv-x="478" 
d="M115 0q12 0 20 2t8 7v210l73 63l166 -271q2 -3 4 -5.5t6 -3.5t11 -1.5t20 -0.5h4q18 0 25.5 2.5t1.5 11.5l-190 309q28 26 53.5 53t47.5 52.5t39.5 48t29.5 40.5q5 7 -0.5 9t-25.5 2h-5q-18 0 -25 -2.5t-11 -7.5q-35 -48 -78 -94.5t-88 -84.5l-58 -50v230q0 9 -29 9h-8
q-12 0 -20 -2t-8 -7v-510q0 -9 29 -9h8z" />
    <glyph glyph-name="lacute" unicode="&#x13a;" horiz-adv-x="245" 
d="M136 460v82t-0.5 81.5t-1.5 72.5t-2 55q0 5 -6 7t-23 2h-8q-16 0 -22 -2t-6 -7q1 -30 2 -59t1.5 -61t0.5 -68v-80v-351q0 -42 3.5 -66.5t11.5 -37.5q12 -17 29.5 -22.5t36.5 -5.5q9 0 20 1.5t21 4.5q8 2 9.5 6.5t-0.5 15.5l-1 7q-2 13 -3.5 16t-5.5 2q-5 -1 -9.5 -1.5
t-10.5 -0.5q-23 0 -29.5 14t-6.5 47v348zM155 925q-20 0 -26.5 -2.5t-9.5 -7.5l-67 -118q-4 -7 20 -7h4q14 0 19 1t8 5l88 119q4 5 0 7.5t-21 2.5h-15z" />
    <glyph glyph-name="lcaron" unicode="&#x13e;" horiz-adv-x="282" 
d="M136 460v82t-0.5 81.5t-1.5 72.5t-2 55q0 5 -6 7t-23 2h-8q-16 0 -22 -2t-6 -7q1 -30 2 -59t1.5 -61t0.5 -68v-80v-351q0 -42 3.5 -66.5t11.5 -37.5q12 -17 29.5 -22.5t36.5 -5.5q9 0 20 1.5t21 4.5q8 2 9.5 6.5t-0.5 15.5l-1 7q-2 13 -3.5 16t-5.5 2q-5 -1 -9.5 -1.5
t-10.5 -0.5q-23 0 -29.5 14t-6.5 47v348zM193 513q8 -8 14 -4q41 32 63 76t22 91q0 22 -13 38t-36 16q-17 0 -29 -10.5t-12 -27.5q0 -12 5.5 -20t11.5 -15.5t11.5 -16.5t5.5 -22q0 -21 -16 -45.5t-33 -41.5q-6 -6 1 -13z" />
    <glyph glyph-name="lcommaaccent" unicode="&#x13c;" horiz-adv-x="245" 
d="M136 460v82t-0.5 81.5t-1.5 72.5t-2 55q0 5 -6 7t-23 2h-8q-16 0 -22 -2t-6 -7q1 -30 2 -59t1.5 -61t0.5 -68v-80v-351q0 -42 3.5 -66.5t11.5 -37.5q12 -17 29.5 -22.5t36.5 -5.5q9 0 20 1.5t21 4.5q8 2 9.5 6.5t-0.5 15.5l-1 7q-2 13 -3.5 16t-5.5 2q-5 -1 -9.5 -1.5
t-10.5 -0.5q-23 0 -29.5 14t-6.5 47v348zM79 -270q8 -8 14 -4q41 32 63 76t22 91q0 22 -13 38t-36 16q-17 0 -29 -10.5t-12 -27.5q0 -12 5.5 -20t11.5 -15.5t11.5 -16.5t5.5 -22q0 -21 -16 -45.5t-33 -41.5q-6 -6 1 -13z" />
    <glyph glyph-name="lslash" unicode="&#x142;" horiz-adv-x="245" 
d="M136 460v82t-0.5 81.5t-1.5 72.5t-2 55q0 5 -6 7t-23 2h-8q-16 0 -22 -2t-6 -7q1 -30 2 -59t1.5 -61t0.5 -68v-80v-109l-57 -44q-5 -4 -6.5 -8.5t-1.5 -16.5v-9q0 -23 12 -14l53 41v-191q0 -42 3.5 -66.5t11.5 -37.5q12 -17 29.5 -22.5t36.5 -5.5q9 0 20 1.5t21 4.5
q8 2 9.5 6.5t-0.5 15.5l-1 7q-2 13 -3.5 16t-5.5 2q-5 -1 -9.5 -1.5t-10.5 -0.5q-23 0 -29.5 14t-6.5 47v261l77 60q5 4 6.5 8.5t1.5 17.5v7q0 14 -3.5 16.5t-8.5 -1.5l-73 -57v36z" />
    <glyph glyph-name="longs" unicode="&#x17f;" horiz-adv-x="299" 
d="M176 567q0 38 5 67t18 49t35 30.5t57 10.5q20 0 38 -3.5t34 -8.5q7 -2 10 2.5t7 17.5l2 7q6 22 -3 26q-43 17 -91 17q-95 0 -136 -56.5t-41 -156.5v-41h-70q-5 0 -7 -5t-2 -20v-7q0 -14 2 -19t7 -5h70v-462q0 -5 6 -7.5t23 -2.5h8q16 0 22 2.5t6 7.5v557z" />
    <glyph glyph-name="ldot" unicode="&#x140;" horiz-adv-x="293" 
d="M136 460v82t-0.5 81.5t-1.5 72.5t-2 55q0 5 -6 7t-23 2h-8q-16 0 -22 -2t-6 -7q1 -30 2 -59t1.5 -61t0.5 -68v-80v-351q0 -42 3.5 -66.5t11.5 -37.5q12 -17 29.5 -22.5t36.5 -5.5q9 0 20 1.5t21 4.5q8 2 9.5 6.5t-0.5 15.5l-1 7q-2 13 -3.5 16t-5.5 2q-5 -1 -9.5 -1.5
t-10.5 -0.5q-23 0 -29.5 14t-6.5 47v348zM202 356q0 -20 13 -33t33 -13t33.5 13t13.5 33t-13.5 33.5t-33.5 13.5t-33 -13.5t-13 -33.5z" />
    <glyph glyph-name="nacute" unicode="&#x144;" horiz-adv-x="581" 
d="M138 519q0 5 -6 7t-21 2h-7q-27 0 -27 -9q2 -34 2 -67.5v-64.5v-376q0 -5 5.5 -8t23.5 -3h8q16 0 22 3t6 8v197q0 46 0.5 84.5t2.5 60.5q2 20 10 39t20 33q23 24 52.5 36.5t71.5 12.5q37 0 65.5 -9t45.5 -29q10 -12 16.5 -27t10 -34.5t4.5 -44t1 -57.5v-262q0 -5 5.5 -8
t23.5 -3h8q17 0 22.5 3t5.5 8v307q0 61 -11.5 101.5t-37.5 66.5q-50 52 -143 52q-60 0 -103.5 -21.5t-72.5 -61.5zM353 721q-20 0 -26.5 -2.5t-9.5 -7.5l-67 -118q-4 -7 20 -7h4q14 0 19 1t8 5l88 119q4 5 0 7.5t-21 2.5h-15z" />
    <glyph glyph-name="ncaron" unicode="&#x148;" horiz-adv-x="581" 
d="M138 519q0 5 -6 7t-21 2h-7q-27 0 -27 -9q2 -34 2 -67.5v-64.5v-376q0 -5 5.5 -8t23.5 -3h8q16 0 22 3t6 8v197q0 46 0.5 84.5t2.5 60.5q2 20 10 39t20 33q23 24 52.5 36.5t71.5 12.5q37 0 65.5 -9t45.5 -29q10 -12 16.5 -27t10 -34.5t4.5 -44t1 -57.5v-262q0 -5 5.5 -8
t23.5 -3h8q17 0 22.5 3t5.5 8v307q0 61 -11.5 101.5t-37.5 66.5q-50 52 -143 52q-60 0 -103.5 -21.5t-72.5 -61.5zM327 583q15 0 22 2.5t12 7.5l94 100q5 5 -4 16l-5 6q-10 11 -16 6l-116 -97l-116 97q-6 5 -16 -6l-5 -6q-9 -11 -4 -16l94 -100q5 -5 12 -7.5t22 -2.5h26z
" />
    <glyph glyph-name="ntilde" unicode="&#xf1;" horiz-adv-x="581" 
d="M138 519q0 5 -6 7t-21 2h-7q-27 0 -27 -9q2 -34 2 -67.5v-64.5v-376q0 -5 5.5 -8t23.5 -3h8q16 0 22 3t6 8v197q0 46 0.5 84.5t2.5 60.5q2 20 10 39t20 33q23 24 52.5 36.5t71.5 12.5q37 0 65.5 -9t45.5 -29q10 -12 16.5 -27t10 -34.5t4.5 -44t1 -57.5v-262q0 -5 5.5 -8
t23.5 -3h8q17 0 22.5 3t5.5 8v307q0 61 -11.5 101.5t-37.5 66.5q-50 52 -143 52q-60 0 -103.5 -21.5t-72.5 -61.5zM454 665q5 6 -2 16l-8 10q-6 8 -9.5 9t-6.5 -1q-17 -16 -29.5 -23t-28.5 -7q-17 0 -31.5 6t-29 13t-30.5 13t-37 6q-26 0 -50 -13.5t-38 -30.5q-5 -6 2 -16
l8 -10q10 -13 16 -8q17 16 29.5 23t28.5 7q17 0 31.5 -6t29 -13t30.5 -13t37 -6q26 0 50 13.5t38 30.5z" />
    <glyph glyph-name="ncommaaccent" unicode="&#x146;" horiz-adv-x="581" 
d="M138 519q0 5 -6 7t-21 2h-7q-27 0 -27 -9q2 -34 2 -67.5v-64.5v-376q0 -5 5.5 -8t23.5 -3h8q16 0 22 3t6 8v197q0 46 0.5 84.5t2.5 60.5q2 20 10 39t20 33q23 24 52.5 36.5t71.5 12.5q37 0 65.5 -9t45.5 -29q10 -12 16.5 -27t10 -34.5t4.5 -44t1 -57.5v-262q0 -5 5.5 -8
t23.5 -3h8q17 0 22.5 3t5.5 8v307q0 61 -11.5 101.5t-37.5 66.5q-50 52 -143 52q-60 0 -103.5 -21.5t-72.5 -61.5zM246 -270q8 -8 14 -4q41 32 63 76t22 91q0 22 -13 38t-36 16q-17 0 -29 -10.5t-12 -27.5q0 -12 5.5 -20t11.5 -15.5t11.5 -16.5t5.5 -22q0 -21 -16 -45.5
t-33 -41.5q-6 -6 1 -13z" />
    <glyph glyph-name="napostrophe" unicode="&#x149;" horiz-adv-x="640" 
d="M197 519q0 5 -6 7t-21 2h-7q-27 0 -27 -9q2 -34 2 -67.5v-64.5v-376q0 -5 5.5 -8t23.5 -3h8q16 0 22 3t6 8v197q0 46 0.5 84.5t2.5 60.5q2 20 10 39t20 33q23 24 52.5 36.5t71.5 12.5q37 0 65.5 -9t45.5 -29q10 -12 16.5 -27t10 -34.5t4.5 -44t1 -57.5v-262q0 -5 5.5 -8
t23.5 -3h8q17 0 22.5 3t5.5 8v307q0 61 -11.5 101.5t-37.5 66.5q-50 52 -143 52q-60 0 -103.5 -21.5t-72.5 -61.5zM0 454q6 -7 9.5 -7.5t7.5 2.5q49 39 78.5 96t29.5 116q0 29 -16.5 49t-45.5 20q-21 0 -36.5 -13t-15.5 -35q0 -16 7 -26t16 -20t16 -21t7 -28q0 -14 -6 -29
t-15 -30t-20 -28.5t-22 -24.5q-6 -6 2 -16z" />
    <glyph glyph-name="eng" unicode="&#x14b;" horiz-adv-x="581" 
d="M444 39q0 -97 -26.5 -138t-93.5 -41q-15 0 -27 2t-23 5q-5 2 -7 -2.5t-4 -18.5l-1 -6q-2 -14 -1 -18t4 -6q11 -5 29 -8t36 -3q87 0 133 54t46 182v277q0 61 -11.5 101.5t-37.5 66.5q-50 52 -143 52q-60 0 -103.5 -21.5t-72.5 -61.5l-3 64q0 5 -6 7t-21 2h-7q-27 0 -27 -9
q2 -34 2 -67.5v-64.5v-376q0 -5 5.5 -8t23.5 -3h8q16 0 22 3t6 8v197q0 46 0.5 84.5t2.5 60.5q2 20 10 39t20 33q23 24 52.5 36.5t71.5 12.5q37 0 65.5 -9t45.5 -29q10 -12 16.5 -27t10 -34.5t4.5 -44t1 -57.5v-234z" />
    <glyph glyph-name="ograve" unicode="&#xf2;" horiz-adv-x="566" 
d="M117 259q0 59 14 101t38 68.5t55 38.5t65 12q47 0 78 -18.5t49 -48.5t25.5 -67.5t7.5 -75.5q0 -60 -14 -101.5t-38 -68t-55.5 -38.5t-65.5 -12q-47 0 -77.5 18.5t-48.5 48.5t-25.5 67.5t-7.5 75.5zM273 -10q56 0 101.5 18t77.5 54t49.5 89.5t17.5 124.5q0 72 -21 126
t-58 87q-29 26 -65.5 37.5t-81.5 11.5q-56 0 -101.5 -18t-77.5 -54t-49.5 -89.5t-17.5 -124.5q0 -72 21 -126t58 -87q29 -26 65.5 -37.5t81.5 -11.5zM245 721q-17 0 -21 -2.5t0 -7.5l88 -119q3 -4 8 -5t19 -1h4q24 0 20 7l-67 118q-3 5 -9.5 7.5t-26.5 2.5h-15z" />
    <glyph glyph-name="oacute" unicode="&#xf3;" horiz-adv-x="566" 
d="M117 259q0 59 14 101t38 68.5t55 38.5t65 12q47 0 78 -18.5t49 -48.5t25.5 -67.5t7.5 -75.5q0 -60 -14 -101.5t-38 -68t-55.5 -38.5t-65.5 -12q-47 0 -77.5 18.5t-48.5 48.5t-25.5 67.5t-7.5 75.5zM273 -10q56 0 101.5 18t77.5 54t49.5 89.5t17.5 124.5q0 72 -21 126
t-58 87q-29 26 -65.5 37.5t-81.5 11.5q-56 0 -101.5 -18t-77.5 -54t-49.5 -89.5t-17.5 -124.5q0 -72 21 -126t58 -87q29 -26 65.5 -37.5t81.5 -11.5zM325 721q-20 0 -26.5 -2.5t-9.5 -7.5l-67 -118q-4 -7 20 -7h4q14 0 19 1t8 5l88 119q4 5 0 7.5t-21 2.5h-15z" />
    <glyph glyph-name="ocircumflex" unicode="&#xf4;" horiz-adv-x="566" 
d="M117 259q0 59 14 101t38 68.5t55 38.5t65 12q47 0 78 -18.5t49 -48.5t25.5 -67.5t7.5 -75.5q0 -60 -14 -101.5t-38 -68t-55.5 -38.5t-65.5 -12q-47 0 -77.5 18.5t-48.5 48.5t-25.5 67.5t-7.5 75.5zM273 -10q56 0 101.5 18t77.5 54t49.5 89.5t17.5 124.5q0 72 -21 126
t-58 87q-29 26 -65.5 37.5t-81.5 11.5q-56 0 -101.5 -18t-77.5 -54t-49.5 -89.5t-17.5 -124.5q0 -72 21 -126t58 -87q29 -26 65.5 -37.5t81.5 -11.5zM280 729q-15 0 -22 -2.5t-12 -7.5l-94 -100q-5 -5 4 -16l5 -6q10 -11 16 -6l116 97l116 -97q6 -5 16 6l5 6q9 11 4 16
l-94 100q-5 5 -12 7.5t-22 2.5h-26z" />
    <glyph glyph-name="otilde" unicode="&#xf5;" horiz-adv-x="566" 
d="M117 259q0 59 14 101t38 68.5t55 38.5t65 12q47 0 78 -18.5t49 -48.5t25.5 -67.5t7.5 -75.5q0 -60 -14 -101.5t-38 -68t-55.5 -38.5t-65.5 -12q-47 0 -77.5 18.5t-48.5 48.5t-25.5 67.5t-7.5 75.5zM273 -10q56 0 101.5 18t77.5 54t49.5 89.5t17.5 124.5q0 72 -21 126
t-58 87q-29 26 -65.5 37.5t-81.5 11.5q-56 0 -101.5 -18t-77.5 -54t-49.5 -89.5t-17.5 -124.5q0 -72 21 -126t58 -87q29 -26 65.5 -37.5t81.5 -11.5zM443 665q5 6 -2 16l-8 10q-6 8 -9.5 9t-6.5 -1q-17 -16 -29.5 -23t-28.5 -7q-17 0 -31.5 6t-29 13t-30.5 13t-37 6
q-26 0 -50 -13.5t-38 -30.5q-5 -6 2 -16l8 -10q10 -13 16 -8q17 16 29.5 23t28.5 7q17 0 31.5 -6t29 -13t30.5 -13t37 -6q26 0 50 13.5t38 30.5z" />
    <glyph glyph-name="odieresis" unicode="&#xf6;" horiz-adv-x="566" 
d="M117 259q0 59 14 101t38 68.5t55 38.5t65 12q47 0 78 -18.5t49 -48.5t25.5 -67.5t7.5 -75.5q0 -60 -14 -101.5t-38 -68t-55.5 -38.5t-65.5 -12q-47 0 -77.5 18.5t-48.5 48.5t-25.5 67.5t-7.5 75.5zM273 -10q56 0 101.5 18t77.5 54t49.5 89.5t17.5 124.5q0 72 -21 126
t-58 87q-29 26 -65.5 37.5t-81.5 11.5q-56 0 -101.5 -18t-77.5 -54t-49.5 -89.5t-17.5 -124.5q0 -72 21 -126t58 -87q29 -26 65.5 -37.5t81.5 -11.5zM144 654q0 -20 13.5 -33.5t33.5 -13.5t34 13.5t14 33.5t-14 34t-34 14t-33.5 -14t-13.5 -34zM346 654q0 -20 13.5 -33.5
t33.5 -13.5t34 13.5t14 33.5t-14 34t-34 14t-33.5 -14t-13.5 -34z" />
    <glyph glyph-name="omacron" unicode="&#x14d;" horiz-adv-x="566" 
d="M117 259q0 59 14 101t38 68.5t55 38.5t65 12q47 0 78 -18.5t49 -48.5t25.5 -67.5t7.5 -75.5q0 -60 -14 -101.5t-38 -68t-55.5 -38.5t-65.5 -12q-47 0 -77.5 18.5t-48.5 48.5t-25.5 67.5t-7.5 75.5zM273 -10q56 0 101.5 18t77.5 54t49.5 89.5t17.5 124.5q0 72 -21 126
t-58 87q-29 26 -65.5 37.5t-81.5 11.5q-56 0 -101.5 -18t-77.5 -54t-49.5 -89.5t-17.5 -124.5q0 -72 21 -126t58 -87q29 -26 65.5 -37.5t81.5 -11.5zM156 684q-5 0 -6.5 -4.5t-1.5 -18.5v-3q0 -25 8 -25h262q8 0 8 25v3q0 14 -1.5 18.5t-6.5 4.5h-262z" />
    <glyph glyph-name="obreve" unicode="&#x14f;" horiz-adv-x="566" 
d="M117 259q0 59 14 101t38 68.5t55 38.5t65 12q47 0 78 -18.5t49 -48.5t25.5 -67.5t7.5 -75.5q0 -60 -14 -101.5t-38 -68t-55.5 -38.5t-65.5 -12q-47 0 -77.5 18.5t-48.5 48.5t-25.5 67.5t-7.5 75.5zM273 -10q56 0 101.5 18t77.5 54t49.5 89.5t17.5 124.5q0 72 -21 126
t-58 87q-29 26 -65.5 37.5t-81.5 11.5q-56 0 -101.5 -18t-77.5 -54t-49.5 -89.5t-17.5 -124.5q0 -72 21 -126t58 -87q29 -26 65.5 -37.5t81.5 -11.5zM287 595q28 0 53 7.5t43.5 22t29 35t10.5 46.5q0 3 -2.5 4.5t-16.5 1.5h-12q-13 0 -15.5 -1.5t-3.5 -8.5q-4 -32 -26 -49
t-60 -17t-60 17t-26 49q-1 7 -3.5 8.5t-15.5 1.5h-12q-14 0 -16.5 -1.5t-2.5 -4.5q0 -26 10.5 -46.5t29 -35t43 -22t53.5 -7.5z" />
    <glyph glyph-name="ohungarumlaut" unicode="&#x151;" horiz-adv-x="566" 
d="M117 259q0 59 14 101t38 68.5t55 38.5t65 12q47 0 78 -18.5t49 -48.5t25.5 -67.5t7.5 -75.5q0 -60 -14 -101.5t-38 -68t-55.5 -38.5t-65.5 -12q-47 0 -77.5 18.5t-48.5 48.5t-25.5 67.5t-7.5 75.5zM273 -10q56 0 101.5 18t77.5 54t49.5 89.5t17.5 124.5q0 72 -21 126
t-58 87q-29 26 -65.5 37.5t-81.5 11.5q-56 0 -101.5 -18t-77.5 -54t-49.5 -89.5t-17.5 -124.5q0 -72 21 -126t58 -87q29 -26 65.5 -37.5t81.5 -11.5zM247 721q-20 0 -26.5 -2.5t-9.5 -7.5l-67 -118q-4 -7 20 -7h4q14 0 19 1t8 5l88 119q4 5 0 7.5t-21 2.5h-15zM404 721
q-20 0 -26.5 -2.5t-9.5 -7.5l-67 -118q-4 -7 20 -7h4q14 0 19 1t8 5l88 119q4 5 0 7.5t-21 2.5h-15z" />
    <glyph glyph-name="oslash" unicode="&#xf8;" horiz-adv-x="566" 
d="M273 -10q56 0 101.5 18t77.5 54t49.5 89.5t17.5 124.5q0 60 -14.5 107t-40.5 80l44 62q5 7 2.5 11.5t-16.5 14.5l-4 3q-14 10 -19 11.5t-10 -4.5l-41 -57q-52 34 -127 34q-56 0 -101.5 -18t-77.5 -54t-49.5 -89.5t-17.5 -124.5q0 -61 15 -109t42 -81l-39 -53
q-5 -6 -3 -10.5t15 -13.5l6 -4q14 -10 19.5 -10.5t9.5 4.5l35 48q49 -33 126 -33zM117 259q0 59 14 101t38 68.5t55 38.5t65 12q29 0 52 -7.5t40 -21.5l-235 -329q-16 29 -22.5 65.5t-6.5 72.5zM449 269q0 -60 -14 -101.5t-38 -68t-55.5 -38.5t-65.5 -12q-29 0 -51.5 7
t-39.5 20l235 327q16 -29 22.5 -64t6.5 -70z" />
    <glyph glyph-name="oslashacute" unicode="&#x1ff;" horiz-adv-x="566" 
d="M273 -10q56 0 101.5 18t77.5 54t49.5 89.5t17.5 124.5q0 60 -14.5 107t-40.5 80l44 62q5 7 2.5 11.5t-16.5 14.5l-4 3q-14 10 -19 11.5t-10 -4.5l-41 -57q-52 34 -127 34q-56 0 -101.5 -18t-77.5 -54t-49.5 -89.5t-17.5 -124.5q0 -61 15 -109t42 -81l-39 -53
q-5 -6 -3 -10.5t15 -13.5l6 -4q14 -10 19.5 -10.5t9.5 4.5l35 48q49 -33 126 -33zM117 259q0 59 14 101t38 68.5t55 38.5t65 12q29 0 52 -7.5t40 -21.5l-235 -329q-16 29 -22.5 65.5t-6.5 72.5zM449 269q0 -60 -14 -101.5t-38 -68t-55.5 -38.5t-65.5 -12q-29 0 -51.5 7
t-39.5 20l235 327q16 -29 22.5 -64t6.5 -70zM331 721q-20 0 -26.5 -2.5t-9.5 -7.5l-67 -118q-4 -7 20 -7h4q14 0 19 1t8 5l88 119q4 5 0 7.5t-21 2.5h-15z" />
    <glyph glyph-name="oe" unicode="&#x153;" horiz-adv-x="909" 
d="M657 538q-65 0 -112.5 -28.5t-75.5 -82.5q-9 18 -20.5 33.5t-24.5 28.5q-27 26 -62.5 37.5t-78.5 11.5q-53 0 -96.5 -18t-74.5 -54t-48 -89.5t-17 -123.5q0 -72 20.5 -126.5t55.5 -87.5q27 -26 62.5 -37.5t78.5 -11.5q67 0 118 28.5t81 85.5q20 -50 71 -82t126 -32
q51 0 91.5 9.5t78.5 29.5q9 5 1 26l-4 10q-6 15 -10 17.5t-12 -1.5q-31 -15 -66.5 -22.5t-70.5 -7.5q-39 0 -66.5 10t-49.5 31t-35.5 59t-15.5 92h349q8 0 11 4t3 21q0 45 -8.5 86t-25.5 76q-25 50 -69 79t-104 29zM116 260q0 59 13 100.5t35.5 68t52 38.5t62.5 12
q45 0 75 -18.5t47 -48.5t24 -67.5t7 -75.5q0 -59 -13.5 -101t-36 -68.5t-52.5 -38.5t-63 -12q-45 0 -74 19t-46.5 49t-24 67.5t-6.5 75.5zM502 295q6 88 45.5 135t107.5 47q36 0 62.5 -15.5t44 -41t26 -58.5t9.5 -67h-295z" />
    <glyph glyph-name="thorn" unicode="&#xfe;" horiz-adv-x="561" 
d="M143 761q0 9 -29 9h-8q-17 0 -22.5 -2t-5.5 -7v-985q0 -5 6 -7t22 -2h8q29 0 29 9v262q26 -23 59 -35.5t77 -12.5q57 0 101 23.5t73.5 63t45 91t15.5 107.5q0 130 -58 196.5t-157 66.5q-103 0 -156 -68v291zM143 265q0 43 2.5 71.5t6.5 47t10 29.5t13 20q17 21 45 33
t70 12q35 0 63.5 -11.5t48.5 -36.5t31 -64t11 -94q0 -50 -11 -91.5t-32 -70.5t-52 -45t-70 -16q-42 0 -77.5 15t-58.5 38v163z" />
    <glyph glyph-name="racute" unicode="&#x155;" horiz-adv-x="347" 
d="M139 521q0 3 -4.5 5t-24.5 2h-5q-19 0 -23.5 -2t-4.5 -5q1 -42 1.5 -82.5t0.5 -81.5v-348q0 -5 5.5 -7t23.5 -2h6q18 0 24 2t6 7v112q0 46 0.5 89.5t2.5 65.5q2 38 13.5 72.5t33.5 62.5q21 26 51.5 43t71.5 17q7 0 8.5 8t1.5 23v8q0 12 -1.5 16t-5.5 5q-11 3 -30 3
q-45 0 -85.5 -33t-62.5 -96zM266 721q-20 0 -26.5 -2.5t-9.5 -7.5l-67 -118q-4 -7 20 -7h4q14 0 19 1t8 5l88 119q4 5 0 7.5t-21 2.5h-15z" />
    <glyph glyph-name="rcaron" unicode="&#x159;" horiz-adv-x="347" 
d="M139 521q0 3 -4.5 5t-24.5 2h-5q-19 0 -23.5 -2t-4.5 -5q1 -42 1.5 -82.5t0.5 -81.5v-348q0 -5 5.5 -7t23.5 -2h6q18 0 24 2t6 7v112q0 46 0.5 89.5t2.5 65.5q2 38 13.5 72.5t33.5 62.5q21 26 51.5 43t71.5 17q7 0 8.5 8t1.5 23v8q0 12 -1.5 16t-5.5 5q-11 3 -30 3
q-45 0 -85.5 -33t-62.5 -96zM219 583q15 0 22 2.5t12 7.5l94 100q5 5 -4 16l-5 6q-10 11 -16 6l-116 -97l-116 97q-6 5 -16 -6l-5 -6q-9 -11 -4 -16l94 -100q5 -5 12 -7.5t22 -2.5h26z" />
    <glyph glyph-name="rcommaaccent" unicode="&#x157;" horiz-adv-x="347" 
d="M139 521q0 3 -4.5 5t-24.5 2h-5q-19 0 -23.5 -2t-4.5 -5q1 -42 1.5 -82.5t0.5 -81.5v-348q0 -5 5.5 -7t23.5 -2h6q18 0 24 2t6 7v112q0 46 0.5 89.5t2.5 65.5q2 38 13.5 72.5t33.5 62.5q21 26 51.5 43t71.5 17q7 0 8.5 8t1.5 23v8q0 12 -1.5 16t-5.5 5q-11 3 -30 3
q-45 0 -85.5 -33t-62.5 -96zM61 -270q8 -8 14 -4q41 32 63 76t22 91q0 22 -13 38t-36 16q-17 0 -29 -10.5t-12 -27.5q0 -12 5.5 -20t11.5 -15.5t11.5 -16.5t5.5 -22q0 -21 -16 -45.5t-33 -41.5q-6 -6 1 -13z" />
    <glyph glyph-name="sacute" unicode="&#x15b;" horiz-adv-x="449" 
d="M382 460q8 11 9 16.5t-4 9.5q-31 24 -72 38t-86 14q-39 0 -71 -10t-55.5 -29t-36.5 -47t-13 -64q0 -60 41 -96q19 -17 49.5 -29t67.5 -21q32 -8 56.5 -16t41.5 -19t25.5 -26.5t8.5 -38.5q0 -52 -35.5 -75t-95.5 -23q-34 0 -69.5 12t-63.5 29q-6 4 -10.5 1.5t-12.5 -18.5
l-3 -6q-7 -13 -7.5 -17.5t4.5 -7.5q29 -19 70 -33t94 -14q84 0 136.5 41t52.5 119q0 37 -12.5 61.5t-35 41t-52.5 27.5t-66 20q-26 7 -47.5 13.5t-38 16.5t-25.5 25.5t-9 40.5q0 42 29.5 64t80.5 22q38 0 68.5 -10t59.5 -30q5 -4 10 -2t13 14zM282 721q-20 0 -26.5 -2.5
t-9.5 -7.5l-67 -118q-4 -7 20 -7h4q14 0 19 1t8 5l88 119q4 5 0 7.5t-21 2.5h-15z" />
    <glyph glyph-name="scircumflex" unicode="&#x15d;" horiz-adv-x="449" 
d="M382 460q8 11 9 16.5t-4 9.5q-31 24 -72 38t-86 14q-39 0 -71 -10t-55.5 -29t-36.5 -47t-13 -64q0 -60 41 -96q19 -17 49.5 -29t67.5 -21q32 -8 56.5 -16t41.5 -19t25.5 -26.5t8.5 -38.5q0 -52 -35.5 -75t-95.5 -23q-34 0 -69.5 12t-63.5 29q-6 4 -10.5 1.5t-12.5 -18.5
l-3 -6q-7 -13 -7.5 -17.5t4.5 -7.5q29 -19 70 -33t94 -14q84 0 136.5 41t52.5 119q0 37 -12.5 61.5t-35 41t-52.5 27.5t-66 20q-26 7 -47.5 13.5t-38 16.5t-25.5 25.5t-9 40.5q0 42 29.5 64t80.5 22q38 0 68.5 -10t59.5 -30q5 -4 10 -2t13 14zM214 729q-15 0 -22 -2.5
t-12 -7.5l-94 -100q-5 -5 4 -16l5 -6q10 -11 16 -6l116 97l116 -97q6 -5 16 6l5 6q9 11 4 16l-94 100q-5 5 -12 7.5t-22 2.5h-26z" />
    <glyph glyph-name="scaron" unicode="&#x161;" horiz-adv-x="449" 
d="M382 460q8 11 9 16.5t-4 9.5q-31 24 -72 38t-86 14q-39 0 -71 -10t-55.5 -29t-36.5 -47t-13 -64q0 -60 41 -96q19 -17 49.5 -29t67.5 -21q32 -8 56.5 -16t41.5 -19t25.5 -26.5t8.5 -38.5q0 -52 -35.5 -75t-95.5 -23q-34 0 -69.5 12t-63.5 29q-6 4 -10.5 1.5t-12.5 -18.5
l-3 -6q-7 -13 -7.5 -17.5t4.5 -7.5q29 -19 70 -33t94 -14q84 0 136.5 41t52.5 119q0 37 -12.5 61.5t-35 41t-52.5 27.5t-66 20q-26 7 -47.5 13.5t-38 16.5t-25.5 25.5t-9 40.5q0 42 29.5 64t80.5 22q38 0 68.5 -10t59.5 -30q5 -4 10 -2t13 14zM244 583q15 0 22 2.5t12 7.5
l94 100q5 5 -4 16l-5 6q-10 11 -16 6l-116 -97l-116 97q-6 5 -16 -6l-5 -6q-9 -11 -4 -16l94 -100q5 -5 12 -7.5t22 -2.5h26z" />
    <glyph glyph-name="scedilla" unicode="&#x15f;" horiz-adv-x="449" 
d="M179 -109q11 2 26.5 3.5t26.5 1.5q28 0 44.5 -10t16.5 -33t-16.5 -33.5t-45.5 -10.5q-13 0 -27 2t-28 5q-4 1 -6 -1.5t-4 -12.5l-1 -5q-3 -16 2 -18q10 -5 30.5 -8.5t41.5 -3.5q29 0 49.5 7.5t34 20t20 28.5t6.5 34q0 35 -25 56.5t-65 21.5q-7 0 -13.5 -0.5t-13.5 -1.5
l7 58q74 6 119 46.5t45 112.5q0 37 -12.5 61.5t-35 41t-52.5 27.5t-66 20q-26 7 -47.5 13.5t-38 16.5t-25.5 25.5t-9 40.5q0 42 29.5 64t80.5 22q38 0 68.5 -10t59.5 -30q5 -4 10 -2t13 14l4 6q8 11 9 16.5t-4 9.5q-31 24 -72 38t-86 14q-39 0 -71 -10t-55.5 -29t-36.5 -47
t-13 -64q0 -60 41 -96q19 -17 49.5 -29t67.5 -21q32 -8 56.5 -16t41.5 -19t25.5 -26.5t8.5 -38.5q0 -52 -35.5 -75t-95.5 -23q-34 0 -69.5 12t-63.5 29q-6 4 -10.5 1.5t-12.5 -18.5l-3 -6q-7 -13 -7.5 -17.5t4.5 -7.5q26 -17 61 -30t80 -16z" />
    <glyph glyph-name="scommaaccent" unicode="&#x219;" horiz-adv-x="449" 
d="M382 460q8 11 9 16.5t-4 9.5q-31 24 -72 38t-86 14q-39 0 -71 -10t-55.5 -29t-36.5 -47t-13 -64q0 -60 41 -96q19 -17 49.5 -29t67.5 -21q32 -8 56.5 -16t41.5 -19t25.5 -26.5t8.5 -38.5q0 -52 -35.5 -75t-95.5 -23q-34 0 -69.5 12t-63.5 29q-6 4 -10.5 1.5t-12.5 -18.5
l-3 -6q-7 -13 -7.5 -17.5t4.5 -7.5q29 -19 70 -33t94 -14q84 0 136.5 41t52.5 119q0 37 -12.5 61.5t-35 41t-52.5 27.5t-66 20q-26 7 -47.5 13.5t-38 16.5t-25.5 25.5t-9 40.5q0 42 29.5 64t80.5 22q38 0 68.5 -10t59.5 -30q5 -4 10 -2t13 14zM171 -270q8 -8 14 -4
q41 32 63 76t22 91q0 22 -13 38t-36 16q-17 0 -29 -10.5t-12 -27.5q0 -12 5.5 -20t11.5 -15.5t11.5 -16.5t5.5 -22q0 -21 -16 -45.5t-33 -41.5q-6 -6 1 -13z" />
    <glyph glyph-name="germandbls" unicode="&#xdf;" horiz-adv-x="605" 
d="M143 528q0 53 9 89t26 58t41.5 31.5t55.5 9.5q54 0 80.5 -25.5t26.5 -66.5q0 -26 -9.5 -46t-32.5 -44q-18 -18 -30 -33.5t-19.5 -30t-10.5 -29.5t-3 -32q0 -48 31.5 -82t93.5 -58q24 -9 43 -18.5t33 -22.5t21.5 -30.5t7.5 -44.5q0 -54 -32.5 -80t-87.5 -26q-31 0 -60.5 8
t-52.5 21q-5 3 -9.5 -1t-12.5 -19l-2 -4q-11 -22 -4 -26q31 -17 67.5 -26.5t74.5 -9.5q39 0 72 9.5t57 30t37.5 51.5t13.5 74q0 36 -9 62t-26.5 45t-42.5 33t-56 26q-56 22 -76 42.5t-20 48.5q0 11 2 20.5t7 19t13.5 21t22.5 25.5q32 32 45.5 61.5t13.5 67.5q0 34 -13 60.5
t-35 45t-51.5 28t-63.5 9.5q-100 0 -150.5 -58.5t-50.5 -185.5v-516q0 -5 5.5 -7.5t23.5 -2.5h8q17 0 22.5 2.5t5.5 7.5v518z" />
    <glyph glyph-name="tcaron" unicode="&#x165;" horiz-adv-x="365" 
d="M309 478q5 0 6 4.5t1 18.5v3q0 14 -1 19t-6 5h-141v149q0 3 -4.5 4.5t-24.5 1.5h-7q-21 0 -25 -1t-4 -5v-149h-69q-5 0 -6 -5t-1 -19v-3q0 -14 1 -18.5t5 -4.5h70v-328q0 -50 7.5 -79.5t27.5 -49.5q16 -14 39.5 -22.5t54.5 -8.5q26 0 53.5 4.5t51.5 14.5q4 2 5 6t-3 18
l-2 7q-4 14 -5.5 17t-8.5 1q-17 -6 -36.5 -9t-39.5 -3q-21 0 -35.5 4.5t-25.5 15.5q-12 12 -15 33.5t-3 57.5v321h141v0zM233 597q8 -8 14 -4q41 32 63 76t22 91q0 22 -13 38t-36 16q-17 0 -29 -10.5t-12 -27.5q0 -12 5.5 -20t11.5 -15.5t11.5 -16.5t5.5 -22
q0 -21 -16 -45.5t-33 -41.5q-6 -6 1 -13z" />
    <glyph glyph-name="tcommaaccent" unicode="&#x163;" horiz-adv-x="365" 
d="M309 478q5 0 6 4.5t1 18.5v3q0 14 -1 19t-6 5h-141v149q0 3 -4.5 4.5t-24.5 1.5h-7q-21 0 -25 -1t-4 -5v-149h-69q-5 0 -6 -5t-1 -19v-3q0 -14 1 -18.5t5 -4.5h70v-328q0 -50 7.5 -79.5t27.5 -49.5q16 -14 39.5 -22.5t54.5 -8.5q26 0 53.5 4.5t51.5 14.5q4 2 5 6t-3 18
l-2 7q-4 14 -5.5 17t-8.5 1q-17 -6 -36.5 -9t-39.5 -3q-21 0 -35.5 4.5t-25.5 15.5q-12 12 -15 33.5t-3 57.5v321h141v0zM174 -270q8 -8 14 -4q41 32 63 76t22 91q0 22 -13 38t-36 16q-17 0 -29 -10.5t-12 -27.5q0 -12 5.5 -20t11.5 -15.5t11.5 -16.5t5.5 -22
q0 -21 -16 -45.5t-33 -41.5q-6 -6 1 -13z" />
    <glyph glyph-name="uni021B" unicode="&#x21b;" horiz-adv-x="365" 
d="M309 478q5 0 6 4.5t1 18.5v3q0 14 -1 19t-6 5h-141v149q0 3 -4.5 4.5t-24.5 1.5h-7q-21 0 -25 -1t-4 -5v-149h-69q-5 0 -6 -5t-1 -19v-3q0 -14 1 -18.5t5 -4.5h70v-328q0 -50 7.5 -79.5t27.5 -49.5q16 -14 39.5 -22.5t54.5 -8.5q26 0 53.5 4.5t51.5 14.5q4 2 5 6t-3 18
l-2 7q-4 14 -5.5 17t-8.5 1q-17 -6 -36.5 -9t-39.5 -3q-21 0 -35.5 4.5t-25.5 15.5q-12 12 -15 33.5t-3 57.5v321h141v0zM174 -270q8 -8 14 -4q41 32 63 76t22 91q0 22 -13 38t-36 16q-17 0 -29 -10.5t-12 -27.5q0 -12 5.5 -20t11.5 -15.5t11.5 -16.5t5.5 -22
q0 -21 -16 -45.5t-33 -41.5q-6 -6 1 -13z" />
    <glyph glyph-name="tbar" unicode="&#x167;" horiz-adv-x="365" 
d="M38 302q-5 0 -6.5 -4.5t-1.5 -18.5v-1q0 -25 8 -25h65v-103q0 -50 7.5 -79.5t27.5 -49.5q16 -14 39.5 -22.5t54.5 -8.5q26 0 53.5 4.5t51.5 14.5q4 2 5 6t-3 18l-2 7q-4 14 -5.5 17t-8.5 1q-17 -6 -36.5 -9t-39.5 -3q-21 0 -35.5 4.5t-25.5 15.5q-12 12 -15 33.5t-3 57.5
v96h127q8 0 8 25v1q0 14 -1.5 18.5t-6.5 4.5h-127v176h141q5 0 6 4.5t1 18.5v3q0 14 -1 19t-6 5h-141v149q0 3 -4.5 4.5t-24.5 1.5h-7q-21 0 -25 -1t-4 -5v-149h-69q-5 0 -6 -5t-1 -19v-3q0 -14 1 -18.5t5 -4.5h70v-176h-65z" />
    <glyph glyph-name="ugrave" unicode="&#xf9;" horiz-adv-x="578" 
d="M442 10q1 -7 5 -8.5t21 -1.5h8q15 0 20 2t4 10q-2 42 -2.5 81t-0.5 78v347q0 5 -5.5 7.5t-23.5 2.5h-8q-18 0 -23 -2.5t-5 -7.5v-249q0 -40 -3 -68.5t-8 -48.5t-13.5 -34t-18.5 -24q-20 -20 -48 -31t-66 -11q-77 0 -111 40q-20 23 -24 60t-4 102v264q0 5 -5.5 7.5
t-23.5 2.5h-8q-18 0 -23 -2.5t-5 -7.5v-308q0 -62 10.5 -102.5t36.5 -66.5q23 -26 62 -38.5t86 -12.5q60 0 103 23t68 66zM241 721q-17 0 -21 -2.5t0 -7.5l88 -119q3 -4 8 -5t19 -1h4q24 0 20 7l-67 118q-3 5 -9.5 7.5t-26.5 2.5h-15z" />
    <glyph glyph-name="uacute" unicode="&#xfa;" horiz-adv-x="578" 
d="M442 10q1 -7 5 -8.5t21 -1.5h8q15 0 20 2t4 10q-2 42 -2.5 81t-0.5 78v347q0 5 -5.5 7.5t-23.5 2.5h-8q-18 0 -23 -2.5t-5 -7.5v-249q0 -40 -3 -68.5t-8 -48.5t-13.5 -34t-18.5 -24q-20 -20 -48 -31t-66 -11q-77 0 -111 40q-20 23 -24 60t-4 102v264q0 5 -5.5 7.5
t-23.5 2.5h-8q-18 0 -23 -2.5t-5 -7.5v-308q0 -62 10.5 -102.5t36.5 -66.5q23 -26 62 -38.5t86 -12.5q60 0 103 23t68 66zM333 721q-20 0 -26.5 -2.5t-9.5 -7.5l-67 -118q-4 -7 20 -7h4q14 0 19 1t8 5l88 119q4 5 0 7.5t-21 2.5h-15z" />
    <glyph glyph-name="ucircumflex" unicode="&#xfb;" horiz-adv-x="578" 
d="M442 10q1 -7 5 -8.5t21 -1.5h8q15 0 20 2t4 10q-2 42 -2.5 81t-0.5 78v347q0 5 -5.5 7.5t-23.5 2.5h-8q-18 0 -23 -2.5t-5 -7.5v-249q0 -40 -3 -68.5t-8 -48.5t-13.5 -34t-18.5 -24q-20 -20 -48 -31t-66 -11q-77 0 -111 40q-20 23 -24 60t-4 102v264q0 5 -5.5 7.5
t-23.5 2.5h-8q-18 0 -23 -2.5t-5 -7.5v-308q0 -62 10.5 -102.5t36.5 -66.5q23 -26 62 -38.5t86 -12.5q60 0 103 23t68 66zM276 729q-15 0 -22 -2.5t-12 -7.5l-94 -100q-5 -5 4 -16l5 -6q10 -11 16 -6l116 97l116 -97q6 -5 16 6l5 6q9 11 4 16l-94 100q-5 5 -12 7.5t-22 2.5
h-26z" />
    <glyph glyph-name="utilde" unicode="&#x169;" horiz-adv-x="578" 
d="M442 10q1 -7 5 -8.5t21 -1.5h8q15 0 20 2t4 10q-2 42 -2.5 81t-0.5 78v347q0 5 -5.5 7.5t-23.5 2.5h-8q-18 0 -23 -2.5t-5 -7.5v-249q0 -40 -3 -68.5t-8 -48.5t-13.5 -34t-18.5 -24q-20 -20 -48 -31t-66 -11q-77 0 -111 40q-20 23 -24 60t-4 102v264q0 5 -5.5 7.5
t-23.5 2.5h-8q-18 0 -23 -2.5t-5 -7.5v-308q0 -62 10.5 -102.5t36.5 -66.5q23 -26 62 -38.5t86 -12.5q60 0 103 23t68 66zM439 665q5 6 -2 16l-8 10q-6 8 -9.5 9t-6.5 -1q-17 -16 -29.5 -23t-28.5 -7q-17 0 -31.5 6t-29 13t-30.5 13t-37 6q-26 0 -50 -13.5t-38 -30.5
q-5 -6 2 -16l8 -10q10 -13 16 -8q17 16 29.5 23t28.5 7q17 0 31.5 -6t29 -13t30.5 -13t37 -6q26 0 50 13.5t38 30.5z" />
    <glyph glyph-name="udieresis" unicode="&#xfc;" horiz-adv-x="578" 
d="M442 10q1 -7 5 -8.5t21 -1.5h8q15 0 20 2t4 10q-2 42 -2.5 81t-0.5 78v347q0 5 -5.5 7.5t-23.5 2.5h-8q-18 0 -23 -2.5t-5 -7.5v-249q0 -40 -3 -68.5t-8 -48.5t-13.5 -34t-18.5 -24q-20 -20 -48 -31t-66 -11q-77 0 -111 40q-20 23 -24 60t-4 102v264q0 5 -5.5 7.5
t-23.5 2.5h-8q-18 0 -23 -2.5t-5 -7.5v-308q0 -62 10.5 -102.5t36.5 -66.5q23 -26 62 -38.5t86 -12.5q60 0 103 23t68 66zM140 654q0 -20 13.5 -33.5t33.5 -13.5t34 13.5t14 33.5t-14 34t-34 14t-33.5 -14t-13.5 -34zM342 654q0 -20 13.5 -33.5t33.5 -13.5t34 13.5t14 33.5
t-14 34t-34 14t-33.5 -14t-13.5 -34z" />
    <glyph glyph-name="umacron" unicode="&#x16b;" horiz-adv-x="578" 
d="M442 10q1 -7 5 -8.5t21 -1.5h8q15 0 20 2t4 10q-2 42 -2.5 81t-0.5 78v347q0 5 -5.5 7.5t-23.5 2.5h-8q-18 0 -23 -2.5t-5 -7.5v-249q0 -40 -3 -68.5t-8 -48.5t-13.5 -34t-18.5 -24q-20 -20 -48 -31t-66 -11q-77 0 -111 40q-20 23 -24 60t-4 102v264q0 5 -5.5 7.5
t-23.5 2.5h-8q-18 0 -23 -2.5t-5 -7.5v-308q0 -62 10.5 -102.5t36.5 -66.5q23 -26 62 -38.5t86 -12.5q60 0 103 23t68 66zM158 684q-5 0 -6.5 -4.5t-1.5 -18.5v-3q0 -25 8 -25h262q8 0 8 25v3q0 14 -1.5 18.5t-6.5 4.5h-262z" />
    <glyph glyph-name="ubreve" unicode="&#x16d;" horiz-adv-x="578" 
d="M442 10q1 -7 5 -8.5t21 -1.5h8q15 0 20 2t4 10q-2 42 -2.5 81t-0.5 78v347q0 5 -5.5 7.5t-23.5 2.5h-8q-18 0 -23 -2.5t-5 -7.5v-249q0 -40 -3 -68.5t-8 -48.5t-13.5 -34t-18.5 -24q-20 -20 -48 -31t-66 -11q-77 0 -111 40q-20 23 -24 60t-4 102v264q0 5 -5.5 7.5
t-23.5 2.5h-8q-18 0 -23 -2.5t-5 -7.5v-308q0 -62 10.5 -102.5t36.5 -66.5q23 -26 62 -38.5t86 -12.5q60 0 103 23t68 66zM289 595q28 0 53 7.5t43.5 22t29 35t10.5 46.5q0 3 -2.5 4.5t-16.5 1.5h-12q-13 0 -15.5 -1.5t-3.5 -8.5q-4 -32 -26 -49t-60 -17t-60 17t-26 49
q-1 7 -3.5 8.5t-15.5 1.5h-12q-14 0 -16.5 -1.5t-2.5 -4.5q0 -26 10.5 -46.5t29 -35t43 -22t53.5 -7.5z" />
    <glyph glyph-name="uring" unicode="&#x16f;" horiz-adv-x="578" 
d="M442 10q1 -7 5 -8.5t21 -1.5h8q15 0 20 2t4 10q-2 42 -2.5 81t-0.5 78v347q0 5 -5.5 7.5t-23.5 2.5h-8q-18 0 -23 -2.5t-5 -7.5v-249q0 -40 -3 -68.5t-8 -48.5t-13.5 -34t-18.5 -24q-20 -20 -48 -31t-66 -11q-77 0 -111 40q-20 23 -24 60t-4 102v264q0 5 -5.5 7.5
t-23.5 2.5h-8q-18 0 -23 -2.5t-5 -7.5v-308q0 -62 10.5 -102.5t36.5 -66.5q23 -26 62 -38.5t86 -12.5q60 0 103 23t68 66zM195 668q0 -19 7.5 -35.5t20.5 -28.5t30 -19t36 -7t36 7t30 19t20.5 28.5t7.5 35.5t-7.5 35.5t-20.5 28.5t-30 19t-36 7t-36 -7t-30 -19t-20.5 -28.5
t-7.5 -35.5zM238 668q0 23 15 37t36 14q23 0 36 -15t13 -36t-13 -36t-36 -15q-21 0 -36 14t-15 37z" />
    <glyph glyph-name="uhungarumlaut" unicode="&#x171;" horiz-adv-x="578" 
d="M442 10q1 -7 5 -8.5t21 -1.5h8q15 0 20 2t4 10q-2 42 -2.5 81t-0.5 78v347q0 5 -5.5 7.5t-23.5 2.5h-8q-18 0 -23 -2.5t-5 -7.5v-249q0 -40 -3 -68.5t-8 -48.5t-13.5 -34t-18.5 -24q-20 -20 -48 -31t-66 -11q-77 0 -111 40q-20 23 -24 60t-4 102v264q0 5 -5.5 7.5
t-23.5 2.5h-8q-18 0 -23 -2.5t-5 -7.5v-308q0 -62 10.5 -102.5t36.5 -66.5q23 -26 62 -38.5t86 -12.5q60 0 103 23t68 66zM253 721q-20 0 -26.5 -2.5t-9.5 -7.5l-67 -118q-4 -7 20 -7h4q14 0 19 1t8 5l88 119q4 5 0 7.5t-21 2.5h-15zM410 721q-20 0 -26.5 -2.5t-9.5 -7.5
l-67 -118q-4 -7 20 -7h4q14 0 19 1t8 5l88 119q4 5 0 7.5t-21 2.5h-15z" />
    <glyph glyph-name="uogonek" unicode="&#x173;" horiz-adv-x="578" 
d="M324 -133q0 -45 29.5 -70.5t70.5 -25.5q38 0 73 16q5 2 2 18l-1 5q-2 10 -4.5 12.5t-5.5 1.5q-11 -3 -23.5 -6t-25.5 -3q-27 0 -42.5 14.5t-15.5 42.5q0 34 21 67q14 23 38 38.5t51 22.5q6 2 7.5 4t1.5 8q-3 54 -3 159v347q0 5 -5.5 7.5t-23.5 2.5h-8q-18 0 -23 -2.5
t-5 -7.5v-249q0 -40 -3 -68.5t-8 -48.5t-13.5 -34t-18.5 -24q-20 -20 -48 -31t-66 -11q-77 0 -111 40q-20 23 -24 60t-4 102v264q0 5 -5.5 7.5t-23.5 2.5h-8q-18 0 -23 -2.5t-5 -7.5v-308q0 -62 10.5 -102.5t36.5 -66.5q23 -26 62 -38.5t86 -12.5q60 0 103 23t68 66l4 -65
q-51 -20 -84 -58.5t-33 -88.5z" />
    <glyph glyph-name="wgrave" unicode="&#x1e81;" horiz-adv-x="788" 
d="M96 516q-2 8 -7.5 10t-25.5 2h-8q-20 0 -25.5 -2.5t-3.5 -10.5l151 -498q3 -9 12 -13t30 -4h8q23 0 32 4.5t12 15.5l64 231q15 55 27 104.5t26 113.5q16 -63 30 -114.5t28 -102.5l66 -235q2 -8 10.5 -12.5t31.5 -4.5h8q23 0 30.5 5t12.5 16q22 59 41 113t36 112t33.5 124
t35.5 149q2 5 -4 7t-23 2h-5q-20 0 -24 -2t-6 -10q-12 -62 -25 -118t-28.5 -111.5t-33.5 -112.5t-40 -121l-132 465q-2 6 -8 8t-30 2h-9q-22 0 -28.5 -2t-8.5 -9l-120 -464zM339 721q-17 0 -21 -2.5t0 -7.5l88 -119q3 -4 8 -5t19 -1h4q24 0 20 7l-67 118q-3 5 -9.5 7.5
t-26.5 2.5h-15z" />
    <glyph glyph-name="wacute" unicode="&#x1e83;" horiz-adv-x="788" 
d="M96 516q-2 8 -7.5 10t-25.5 2h-8q-20 0 -25.5 -2.5t-3.5 -10.5l151 -498q3 -9 12 -13t30 -4h8q23 0 32 4.5t12 15.5l64 231q15 55 27 104.5t26 113.5q16 -63 30 -114.5t28 -102.5l66 -235q2 -8 10.5 -12.5t31.5 -4.5h8q23 0 30.5 5t12.5 16q22 59 41 113t36 112t33.5 124
t35.5 149q2 5 -4 7t-23 2h-5q-20 0 -24 -2t-6 -10q-12 -62 -25 -118t-28.5 -111.5t-33.5 -112.5t-40 -121l-132 465q-2 6 -8 8t-30 2h-9q-22 0 -28.5 -2t-8.5 -9l-120 -464zM423 721q-20 0 -26.5 -2.5t-9.5 -7.5l-67 -118q-4 -7 20 -7h4q14 0 19 1t8 5l88 119q4 5 0 7.5
t-21 2.5h-15z" />
    <glyph glyph-name="wcircumflex" unicode="&#x175;" horiz-adv-x="788" 
d="M96 516q-2 8 -7.5 10t-25.5 2h-8q-20 0 -25.5 -2.5t-3.5 -10.5l151 -498q3 -9 12 -13t30 -4h8q23 0 32 4.5t12 15.5l64 231q15 55 27 104.5t26 113.5q16 -63 30 -114.5t28 -102.5l66 -235q2 -8 10.5 -12.5t31.5 -4.5h8q23 0 30.5 5t12.5 16q22 59 41 113t36 112t33.5 124
t35.5 149q2 5 -4 7t-23 2h-5q-20 0 -24 -2t-6 -10q-12 -62 -25 -118t-28.5 -111.5t-33.5 -112.5t-40 -121l-132 465q-2 6 -8 8t-30 2h-9q-22 0 -28.5 -2t-8.5 -9l-120 -464zM375 729q-15 0 -22 -2.5t-12 -7.5l-94 -100q-5 -5 4 -16l5 -6q10 -11 16 -6l116 97l116 -97
q6 -5 16 6l5 6q9 11 4 16l-94 100q-5 5 -12 7.5t-22 2.5h-26z" />
    <glyph glyph-name="wdieresis" unicode="&#x1e85;" horiz-adv-x="788" 
d="M96 516q-2 8 -7.5 10t-25.5 2h-8q-20 0 -25.5 -2.5t-3.5 -10.5l151 -498q3 -9 12 -13t30 -4h8q23 0 32 4.5t12 15.5l64 231q15 55 27 104.5t26 113.5q16 -63 30 -114.5t28 -102.5l66 -235q2 -8 10.5 -12.5t31.5 -4.5h8q23 0 30.5 5t12.5 16q22 59 41 113t36 112t33.5 124
t35.5 149q2 5 -4 7t-23 2h-5q-20 0 -24 -2t-6 -10q-12 -62 -25 -118t-28.5 -111.5t-33.5 -112.5t-40 -121l-132 465q-2 6 -8 8t-30 2h-9q-22 0 -28.5 -2t-8.5 -9l-120 -464zM240 654q0 -20 13.5 -33.5t33.5 -13.5t34 13.5t14 33.5t-14 34t-34 14t-33.5 -14t-13.5 -34z
M442 654q0 -20 13.5 -33.5t33.5 -13.5t34 13.5t14 33.5t-14 34t-34 14t-33.5 -14t-13.5 -34z" />
    <glyph glyph-name="ygrave" unicode="&#x1ef3;" horiz-adv-x="509" 
d="M104 518q-2 6 -9.5 8t-26.5 2h-8q-22 0 -27 -3t-3 -9l206 -530q-16 -47 -33 -79.5t-37.5 -53.5t-45 -30.5t-55.5 -9.5q-15 0 -28 2.5t-25 6.5q-5 2 -7.5 -2.5t-7.5 -17.5l-3 -9q-4 -12 -4 -17t5 -7q15 -7 36 -10t38 -3q42 0 79 14t66 46q23 25 44.5 66t42.5 97l192 539
q2 6 -6 8t-23 2h-5q-18 0 -23.5 -2t-7.5 -8l-92 -261q-17 -47 -32 -93t-35 -107q-20 61 -36.5 110t-34.5 97zM217 721q-17 0 -21 -2.5t0 -7.5l88 -119q3 -4 8 -5t19 -1h4q24 0 20 7l-67 118q-3 5 -9.5 7.5t-26.5 2.5h-15z" />
    <glyph glyph-name="yacute" unicode="&#xfd;" horiz-adv-x="509" 
d="M104 518q-2 6 -9.5 8t-26.5 2h-8q-22 0 -27 -3t-3 -9l206 -530q-16 -47 -33 -79.5t-37.5 -53.5t-45 -30.5t-55.5 -9.5q-15 0 -28 2.5t-25 6.5q-5 2 -7.5 -2.5t-7.5 -17.5l-3 -9q-4 -12 -4 -17t5 -7q15 -7 36 -10t38 -3q42 0 79 14t66 46q23 25 44.5 66t42.5 97l192 539
q2 6 -6 8t-23 2h-5q-18 0 -23.5 -2t-7.5 -8l-92 -261q-17 -47 -32 -93t-35 -107q-20 61 -36.5 110t-34.5 97zM322 721q-20 0 -26.5 -2.5t-9.5 -7.5l-67 -118q-4 -7 20 -7h4q14 0 19 1t8 5l88 119q4 5 0 7.5t-21 2.5h-15z" />
    <glyph glyph-name="ycircumflex" unicode="&#x177;" horiz-adv-x="509" 
d="M104 518q-2 6 -9.5 8t-26.5 2h-8q-22 0 -27 -3t-3 -9l206 -530q-16 -47 -33 -79.5t-37.5 -53.5t-45 -30.5t-55.5 -9.5q-15 0 -28 2.5t-25 6.5q-5 2 -7.5 -2.5t-7.5 -17.5l-3 -9q-4 -12 -4 -17t5 -7q15 -7 36 -10t38 -3q42 0 79 14t66 46q23 25 44.5 66t42.5 97l192 539
q2 6 -6 8t-23 2h-5q-18 0 -23.5 -2t-7.5 -8l-92 -261q-17 -47 -32 -93t-35 -107q-20 61 -36.5 110t-34.5 97zM249 729q-15 0 -22 -2.5t-12 -7.5l-94 -100q-5 -5 4 -16l5 -6q10 -11 16 -6l116 97l116 -97q6 -5 16 6l5 6q9 11 4 16l-94 100q-5 5 -12 7.5t-22 2.5h-26z" />
    <glyph glyph-name="ydieresis" unicode="&#xff;" horiz-adv-x="509" 
d="M104 518q-2 6 -9.5 8t-26.5 2h-8q-22 0 -27 -3t-3 -9l206 -530q-16 -47 -33 -79.5t-37.5 -53.5t-45 -30.5t-55.5 -9.5q-15 0 -28 2.5t-25 6.5q-5 2 -7.5 -2.5t-7.5 -17.5l-3 -9q-4 -12 -4 -17t5 -7q15 -7 36 -10t38 -3q42 0 79 14t66 46q23 25 44.5 66t42.5 97l192 539
q2 6 -6 8t-23 2h-5q-18 0 -23.5 -2t-7.5 -8l-92 -261q-17 -47 -32 -93t-35 -107q-20 61 -36.5 110t-34.5 97zM124 654q0 -20 13.5 -33.5t33.5 -13.5t34 13.5t14 33.5t-14 34t-34 14t-33.5 -14t-13.5 -34zM326 654q0 -20 13.5 -33.5t33.5 -13.5t34 13.5t14 33.5t-14 34
t-34 14t-33.5 -14t-13.5 -34z" />
    <glyph glyph-name="zacute" unicode="&#x17a;" horiz-adv-x="455" 
d="M123 56l271 415q5 7 6 12.5t1 18.5v4q0 15 -1.5 18.5t-7.5 3.5h-330q-5 0 -6.5 -4.5t-1.5 -22.5v-3q0 -17 1.5 -21.5t6.5 -4.5h258l-272 -418q-4 -5 -5 -10.5t-1 -16.5v-5q0 -14 2 -18t7 -4h356q5 0 6.5 4.5t1.5 21.5v3q0 18 -1.5 22.5t-6.5 4.5h-284zM274 721
q-20 0 -26.5 -2.5t-9.5 -7.5l-67 -118q-4 -7 20 -7h4q14 0 19 1t8 5l88 119q4 5 0 7.5t-21 2.5h-15z" />
    <glyph glyph-name="zcaron" unicode="&#x17e;" horiz-adv-x="455" 
d="M123 56l271 415q5 7 6 12.5t1 18.5v4q0 15 -1.5 18.5t-7.5 3.5h-330q-5 0 -6.5 -4.5t-1.5 -22.5v-3q0 -17 1.5 -21.5t6.5 -4.5h258l-272 -418q-4 -5 -5 -10.5t-1 -16.5v-5q0 -14 2 -18t7 -4h356q5 0 6.5 4.5t1.5 21.5v3q0 18 -1.5 22.5t-6.5 4.5h-284zM244 583
q15 0 22 2.5t12 7.5l94 100q5 5 -4 16l-5 6q-10 11 -16 6l-116 -97l-116 97q-6 5 -16 -6l-5 -6q-9 -11 -4 -16l94 -100q5 -5 12 -7.5t22 -2.5h26z" />
    <glyph glyph-name="zdotaccent" unicode="&#x17c;" horiz-adv-x="455" 
d="M123 56l271 415q5 7 6 12.5t1 18.5v4q0 15 -1.5 18.5t-7.5 3.5h-330q-5 0 -6.5 -4.5t-1.5 -22.5v-3q0 -17 1.5 -21.5t6.5 -4.5h258l-272 -418q-4 -5 -5 -10.5t-1 -16.5v-5q0 -14 2 -18t7 -4h356q5 0 6.5 4.5t1.5 21.5v3q0 18 -1.5 22.5t-6.5 4.5h-284zM187 680
q0 -20 13 -33t33 -13t33.5 13t13.5 33t-13.5 33.5t-33.5 13.5t-33 -13.5t-13 -33.5z" />
    <glyph glyph-name="afii10017" unicode="&#x410;" horiz-adv-x="626" 
d="M524 10q2 -6 9.5 -8t27.5 -2h10q22 0 27 3t3 8l-246 696q-3 8 -11.5 10.5t-31.5 2.5h-2q-23 0 -31.5 -2.5t-11.5 -10.5l-242 -696q-2 -5 3 -8t26 -3h5q17 0 25 2t10 8l61 184h308zM310 657l135 -407h-272z" />
    <glyph glyph-name="afii10018" unicode="&#x411;" horiz-adv-x="544" 
d="M446 208q0 -48 -15.5 -77.5t-42 -46t-61.5 -22t-74 -5.5h-102v293q23 4 54.5 6t63.5 2q35 0 67 -6.5t56.5 -23t39 -45.5t14.5 -75zM464 663q5 0 7 5t2 22v4q0 16 -2 21t-7 5h-382v-720h176q54 0 101 10.5t82.5 34.5t55.5 64.5t20 100.5q0 64 -21 104t-55.5 62.5
t-78.5 30.5t-89 8q-32 0 -64 -2.5t-58 -6.5v257h313z" />
    <glyph glyph-name="afii10019" unicode="&#x412;" horiz-adv-x="565" 
d="M82 720v-720h177q69 0 124 16t90 52q23 24 36.5 57t13.5 77q0 37 -12 67t-32.5 52t-48 37t-58.5 22q21 7 41.5 20.5t36.5 33.5t25.5 46.5t9.5 58.5q0 79 -48 124q-31 29 -77.5 43t-116.5 14h-161zM151 345h105q111 0 160 -49q36 -36 36 -96q0 -65 -39 -99
q-25 -23 -64.5 -34t-97.5 -11h-100v289zM151 664h90q51 0 83.5 -8t54.5 -28q17 -16 26.5 -39.5t9.5 -56.5q0 -56 -35 -91q-22 -22 -57.5 -33t-88.5 -11h-83v267z" />
    <glyph glyph-name="afii10020" unicode="&#x413;" horiz-adv-x="485" 
d="M151 663h313q5 0 7 5t2 22v4q0 16 -2 21t-7 5h-382v-711q0 -9 29 -9h8q32 0 32 9v654z" />
    <glyph glyph-name="afii10021" unicode="&#x414;" horiz-adv-x="663" 
d="M624 57h-73v663h-342v-132q0 -68 -8.5 -139t-28 -140t-50 -133t-75.5 -119h-38v-241q0 -5 5.5 -7t21.5 -2h9q17 0 22.5 2t5.5 7v184h487v-184q0 -5 5.5 -7t21.5 -2h9q17 0 22.5 2t5.5 7v241zM276 663h206v-606h-359q44 57 73.5 123t47 136.5t25 142t7.5 140.5v64z" />
    </font>
</defs>
</svg>
