<?xml version="1.0" standalone="no"?>
<!DOCTYPE svg PUBLIC "-//W3C//DTD SVG 1.1//EN" "http://www.w3.org/Graphics/SVG/1.1/DTD/svg11.dtd" >
<svg xmlns="http://www.w3.org/2000/svg">
<metadata>
Copyright (c) 2013 by Fontsmith Ltd. All rights reserved.
</metadata>
<defs>
<font id="FSMeWeb-Heavy" horiz-adv-x="409" >
  <font-face 
    font-family="FS Me Web Heavy"
    font-weight="900"
    font-stretch="normal"
    units-per-em="1000"
    panose-1="2 0 5 3 5 0 0 2 0 4"
    ascent="750"
    descent="-250"
    x-height="528"
    cap-height="720"
    bbox="-123 -332 1343 1148"
    underline-thickness="50"
    underline-position="-50"
    unicode-range="U+000D-FB04"
  />
<missing-glyph horiz-adv-x="694" 
d="M90 0h514v720h-514v-720zM348 406l-176 263h350zM378 360l175 262v-524zM172 52l176 262l174 -262h-350zM142 622l174 -262l-174 -262v524z" />
    <glyph glyph-name="fi" unicode="fi" horiz-adv-x="663" 
d="M512 528q-29 0 -45.5 -1t-24 -4t-9 -7t-1.5 -10v-484q0 -6 1.5 -10t9 -7t24 -4t45.5 -1h5q27 0 42 1t23 4t10 7t2 10v484q0 6 -2 10t-10 7t-23 4t-42 1h-5zM91 528h-59q-6 0 -9.5 -1.5t-5.5 -6.5t-3 -15.5t-1 -29.5v-7q0 -19 1 -29.5t3 -16t5.5 -6.5t9.5 -1h59v-393
q0 -6 1.5 -10t9 -7t23.5 -4t45 -1h5q27 0 42.5 1t23.5 4t10 7t2 10v393h104q6 0 9.5 1t5.5 6.5t3 16t1 29.5v7q0 19 -1 29.5t-3 15.5t-5.5 6.5t-9.5 1.5h-104q0 31 6 52.5t20 36.5q27 28 88 28q32 0 67.5 -7t72.5 -22q12 -5 19 2.5t18 36.5l7 19q11 29 11 39t-10 15
q-46 21 -96.5 31.5t-102.5 10.5q-71 0 -121 -16.5t-82 -48.5q-59 -58 -59 -164v-13z" />
    <glyph glyph-name="fl" unicode="fl" horiz-adv-x="678" 
d="M91 528h-59q-6 0 -9.5 -1.5t-5.5 -6.5t-3 -15.5t-1 -29.5v-7q0 -19 1 -29.5t3 -16t5.5 -6.5t9.5 -1h59v-393q0 -6 1.5 -10t9 -7t23.5 -4t45 -1h5q27 0 42.5 1t23.5 4t10 7t2 10v393h104q6 0 9.5 1t5.5 6.5t3 16t1 29.5v7q0 19 -1 29.5t-3 15.5t-5.5 6.5t-9.5 1.5h-104
q0 33 7 54t21 36q26 27 80 27q36 0 63 -10q2 -38 3 -83.5t1 -80.5v-337q0 -35 7.5 -61.5t27.5 -46.5q14 -14 37.5 -22.5t54.5 -8.5q28 0 45 2.5t28 7.5q8 4 11.5 13t3.5 38v9q0 34 -2.5 42.5t-13.5 8.5h-14q-23 0 -23 26v308q0 60 -0.5 117t-2.5 99q-1 29 -7.5 39.5
t-21.5 19.5q-31 19 -82.5 32t-116.5 13q-66 0 -117 -14.5t-86 -46.5q-32 -29 -48.5 -71t-16.5 -104v-6z" />
    <glyph glyph-name="f_f" unicode="ff" horiz-adv-x="749" 
d="M452 415v-393q0 -6 1.5 -10t9 -7t23.5 -4t45 -1h5q27 0 42.5 1t23.5 4t10 7t2 10v393h104q6 0 9.5 1t5.5 6.5t3 16t1 29.5v7q0 19 -1 29.5t-3 15.5t-5.5 6.5t-9.5 1.5h-104v19q0 54 15 75q17 23 58 23q15 0 30 -2t31 -6q11 -3 16 4t13 39l4 16q7 28 7 39.5t-10 15.5
q-21 8 -53.5 13.5t-64.5 5.5q-99 0 -150 -53q-28 -29 -43 -70.5t-15 -95.5v-23h-199v19q0 54 15 75q17 23 58 23q15 0 30 -2t31 -6q11 -3 16 4t13 39l4 16q7 28 7 39.5t-10 15.5q-21 8 -53.5 13.5t-64.5 5.5q-99 0 -150 -53q-28 -29 -43 -70.5t-15 -95.5v-23h-59
q-6 0 -9.5 -1.5t-5.5 -6.5t-3 -15.5t-1 -29.5v-7q0 -19 1 -29.5t3 -16t5.5 -6.5t9.5 -1h59v-393q0 -6 1.5 -10t9 -7t23.5 -4t45 -1h5q27 0 42.5 1t23.5 4t10 7t2 10v393h199z" />
    <glyph glyph-name="f_f_i" unicode="ffi" horiz-adv-x="1024" 
d="M452 541q0 106 59 164q32 32 82 48.5t121 16.5q52 0 102.5 -10.5t96.5 -31.5q10 -5 10 -15t-11 -39l-7 -19q-11 -29 -18 -36.5t-19 -2.5q-37 15 -72.5 22t-67.5 7q-61 0 -88 -28q-14 -15 -20 -36.5t-6 -52.5h104q6 0 9.5 -1.5t5.5 -6.5t3 -15.5t1 -29.5v-7
q0 -19 -1 -29.5t-3 -16t-5.5 -6.5t-9.5 -1h-104v-393q0 -6 -2 -10t-10 -7t-23.5 -4t-42.5 -1h-5q-29 0 -45 1t-23.5 4t-9 7t-1.5 10v393h-199v-393q0 -6 -2 -10t-10 -7t-23.5 -4t-42.5 -1h-5q-29 0 -45 1t-23.5 4t-9 7t-1.5 10v393h-59q-6 0 -9.5 1t-5.5 6.5t-3 16t-1 29.5
v7q0 19 1 29.5t3 15.5t5.5 6.5t9.5 1.5h59v23q0 54 15 95.5t43 70.5q51 53 150 53q32 0 64.5 -5.5t53.5 -13.5q10 -4 10 -15.5t-7 -39.5l-4 -16q-8 -32 -13 -39t-16 -4q-16 4 -31 6t-30 2q-41 0 -58 -23q-15 -21 -15 -75v-19h199v13zM878 528q27 0 42 -1t23 -4t10 -7t2 -10
v-484q0 -6 -2 -10t-10 -7t-23 -4t-42 -1h-5q-29 0 -45.5 1t-24 4t-9 7t-1.5 10v484q0 6 1.5 10t9 7t24 4t45.5 1h5z" />
    <glyph glyph-name="f_j" unicode="fj" horiz-adv-x="663" 
d="M91 541q0 106 59 164q32 32 82 48.5t121 16.5q52 0 102.5 -10.5t96.5 -31.5q10 -5 10 -15t-11 -39l-7 -19q-11 -29 -18 -36.5t-19 -2.5q-37 15 -72.5 22t-67.5 7q-61 0 -88 -28q-14 -15 -20 -36.5t-6 -52.5h104q6 0 9.5 -1.5t5.5 -6.5t3 -15.5t1 -29.5v-7q0 -19 -1 -29.5
t-3 -16t-5.5 -6.5t-9.5 -1h-104v-393q0 -6 -2 -10t-10 -7t-23.5 -4t-42.5 -1h-5q-29 0 -45 1t-23.5 4t-9 7t-1.5 10v393h-59q-6 0 -9.5 1t-5.5 6.5t-3 16t-1 29.5v7q0 19 1 29.5t3 15.5t5.5 6.5t9.5 1.5h59v13zM517 528q26 0 41.5 -1t23.5 -4t10 -7t2 -10v-500
q0 -66 -14.5 -111.5t-40.5 -74t-63.5 -41t-82.5 -12.5q-30 0 -61 6t-45 13q-11 5 -12 14.5t7 38.5l4 16q8 31 13 40t21 5q12 -3 25.5 -5t27.5 -2q33 0 47 20q8 11 10 27t2 46v520q0 6 1.5 10t9 7t24 4t45.5 1h5z" />
    <glyph glyph-name="f_f_j" unicode="ffj" horiz-adv-x="1024" 
d="M452 541q0 106 59 164q32 32 82 48.5t121 16.5q52 0 102.5 -10.5t96.5 -31.5q10 -5 10 -15t-11 -39l-7 -19q-11 -29 -18 -36.5t-19 -2.5q-37 15 -72.5 22t-67.5 7q-61 0 -88 -28q-14 -15 -20 -36.5t-6 -52.5h104q6 0 9.5 -1.5t5.5 -6.5t3 -15.5t1 -29.5v-7
q0 -19 -1 -29.5t-3 -16t-5.5 -6.5t-9.5 -1h-104v-393q0 -6 -2 -10t-10 -7t-23.5 -4t-42.5 -1h-5q-29 0 -45 1t-23.5 4t-9 7t-1.5 10v393h-199v-393q0 -6 -2 -10t-10 -7t-23.5 -4t-42.5 -1h-5q-29 0 -45 1t-23.5 4t-9 7t-1.5 10v393h-59q-6 0 -9.5 1t-5.5 6.5t-3 16t-1 29.5
v7q0 19 1 29.5t3 15.5t5.5 6.5t9.5 1.5h59v23q0 54 15 95.5t43 70.5q51 53 150 53q32 0 64.5 -5.5t53.5 -13.5q10 -4 10 -15.5t-7 -39.5l-4 -16q-8 -32 -13 -39t-16 -4q-16 4 -31 6t-30 2q-41 0 -58 -23q-15 -21 -15 -75v-19h199v13zM878 528q26 0 41.5 -1t23.5 -4t10 -7
t2 -10v-500q0 -66 -14.5 -111.5t-40.5 -74t-63.5 -41t-82.5 -12.5q-30 0 -61 6t-45 13q-11 5 -12 14.5t7 38.5l4 16q8 31 13 40t21 5q12 -3 25.5 -5t27.5 -2q33 0 47 20q8 11 10 27t2 46v520q0 6 1.5 10t9 7t24 4t45.5 1h5z" />
    <glyph glyph-name="f_f_l" unicode="ffl" horiz-adv-x="1039" 
d="M253 415v-393q0 -6 -2 -10t-10 -7t-23.5 -4t-42.5 -1h-5q-29 0 -45 1t-23.5 4t-9 7t-1.5 10v393h-59q-6 0 -9.5 1t-5.5 6.5t-3 16t-1 29.5v7q0 19 1 29.5t3 15.5t5.5 6.5t9.5 1.5h59v23q0 54 15 95.5t43 70.5q51 53 150 53q32 0 64.5 -5.5t53.5 -13.5q10 -4 10 -15.5
t-7 -39.5l-4 -16q-8 -32 -13 -39t-16 -4q-16 4 -31 6t-30 2q-41 0 -58 -23q-15 -21 -15 -75v-19h199v6q0 62 16.5 104t48.5 71q35 32 86 46.5t117 14.5q65 0 116.5 -13t82.5 -32q15 -9 21.5 -19.5t7.5 -39.5q2 -42 2.5 -99t0.5 -117v-308q0 -26 23 -26h14q11 0 13.5 -8.5
t2.5 -42.5v-9q0 -29 -3.5 -38t-11.5 -13q-11 -5 -28 -7.5t-45 -2.5q-31 0 -54.5 8.5t-37.5 22.5q-20 20 -27.5 46.5t-7.5 61.5v337q0 35 -1 80.5t-3 83.5q-27 10 -63 10q-54 0 -80 -27q-14 -15 -21 -36t-7 -54h104q6 0 9.5 -1.5t5.5 -6.5t3 -15.5t1 -29.5v-7q0 -19 -1 -29.5
t-3 -16t-5.5 -6.5t-9.5 -1h-104v-393q0 -6 -2 -10t-10 -7t-23.5 -4t-42.5 -1h-5q-29 0 -45 1t-23.5 4t-9 7t-1.5 10v393h-199z" />
    <glyph glyph-name=".notdef" horiz-adv-x="694" 
d="M90 0h514v720h-514v-720zM348 406l-176 263h350zM378 360l175 262v-524zM172 52l176 262l174 -262h-350zM142 622l174 -262l-174 -262v524z" />
    <glyph glyph-name=".null" horiz-adv-x="0" 
 />
    <glyph glyph-name=".null" horiz-adv-x="0" 
 />
    <glyph glyph-name="nonmarkingreturn" unicode="&#xd;" horiz-adv-x="246" 
 />
    <glyph glyph-name="space" unicode=" " horiz-adv-x="246" 
 />
    <glyph glyph-name="nonbreakingspace" unicode="&#xa0;" horiz-adv-x="246" 
 />
    <glyph glyph-name="A" unicode="A" horiz-adv-x="668" 
d="M328 720q-24 0 -38.5 -1t-23 -3t-12.5 -6.5t-6 -10.5l-238 -672q-6 -16 6.5 -21.5t63.5 -5.5h12q25 0 41 1.5t25 4t13 6.5t6 10l52 157h201l54 -157q2 -6 6.5 -10t14.5 -6.5t26 -4t41 -1.5h12q27 0 42.5 1.5t23.5 5t9.5 9t-1.5 12.5l-241 671q-2 6 -6 10.5t-13 6.5
t-23.5 3t-38.5 1h-8zM284 346q13 40 24 86.5t24 115.5q14 -69 24 -115.5t21 -86.5l12 -44h-119z" />
    <glyph glyph-name="B" unicode="B" horiz-adv-x="624" 
d="M241 308h41q39 0 60 -4.5t35 -15.5q14 -10 21 -26t7 -42q0 -28 -7 -45t-21 -28t-36.5 -15.5t-57.5 -4.5h-42v181zM241 592h28q29 0 47.5 -2.5t31.5 -13.5q23 -18 23 -61q0 -24 -7 -40t-20 -26q-14 -11 -31.5 -14.5t-43.5 -3.5h-28v161zM545 540q0 51 -20 85t-55 55
q-38 22 -88.5 31t-127.5 9h-125q-38 0 -48.5 -4t-10.5 -19v-675q0 -14 10.5 -18t48.5 -4h152q92 0 152 18.5t95 57.5q28 31 40 64.5t12 75.5q0 34 -10 61t-27 47.5t-40.5 35t-51.5 24.5q45 23 69.5 62t24.5 94z" />
    <glyph glyph-name="C" unicode="C" horiz-adv-x="599" 
d="M551 608q17 29 19.5 39.5t-9.5 19.5q-39 30 -90.5 46.5t-114.5 16.5q-76 0 -136 -27.5t-101.5 -77t-63.5 -119t-22 -153.5t21 -151.5t60.5 -114.5t98 -72t133.5 -25q64 0 114.5 15t94.5 42q13 8 11.5 18.5t-13.5 37.5l-10 23q-14 31 -21 37.5t-21 -1.5q-34 -19 -68 -27.5
t-66 -8.5q-79 0 -119 60.5t-40 170.5q0 118 43.5 178t118.5 60q35 0 62.5 -11t59.5 -31q11 -8 20.5 -0.5t25.5 33.5z" />
    <glyph glyph-name="D" unicode="D" horiz-adv-x="683" 
d="M241 591h35q58 0 96 -14.5t61 -43.5q24 -30 33 -72.5t9 -99.5q0 -60 -10.5 -105t-36.5 -74q-47 -53 -151 -53h-36v462zM128 720q-38 0 -48 -4t-10 -19v-675q0 -14 10 -18t48 -4h140q96 0 164 18.5t116 64.5q50 49 76 120t26 158q0 91 -23.5 157.5t-68.5 109.5
q-49 48 -116.5 70t-171.5 22h-142z" />
    <glyph glyph-name="E" unicode="E" horiz-adv-x="576" 
d="M129 720q-38 0 -48.5 -4t-10.5 -19v-675q0 -14 10.5 -18t48.5 -4h376q13 0 18 10.5t5 51.5v7q0 22 -1 34t-3 18t-7 7t-12 1h-264v170h219q7 0 11.5 2t7 8t3.5 18t1 33v8q0 22 -1 34t-3 18t-7 7t-12 1h-219v163h260q7 0 11.5 1.5t7 8t3.5 18.5t1 33v8q0 22 -1 34t-3 18
t-7 7t-12 1h-372z" />
    <glyph glyph-name="F" unicode="F" horiz-adv-x="548" 
d="M241 591h261q7 0 11.5 2t6.5 8.5t3 18.5t1 32v8q0 21 -1 33t-3 18t-6.5 7.5t-11.5 1.5h-373q-38 0 -48.5 -4t-10.5 -19v-676q0 -7 3 -11t11.5 -6.5t24 -3t40.5 -0.5h11q47 0 64 4.5t17 16.5v278h218q7 0 12 2t7.5 8t3.5 18t1 33v8q0 22 -1 34t-3.5 18t-7.5 7t-12 1h-218
v163z" />
    <glyph glyph-name="G" unicode="G" horiz-adv-x="677" 
d="M343 411q-6 0 -10.5 -1.5t-6.5 -7.5t-3 -18t-1 -33v-8q0 -21 1 -33.5t3 -18.5t6.5 -7.5t10.5 -1.5h99v-149q-35 -9 -69 -9q-86 0 -125.5 60.5t-39.5 176.5q0 115 44 174.5t129 59.5q38 0 69.5 -12t63.5 -34q7 -5 12 -7t11 1t13 11.5t17 25.5l12 20q10 17 15 27.5t6 17.5
t-2.5 11t-10.5 9q-42 30 -95.5 47.5t-120.5 17.5q-75 0 -137.5 -24.5t-106.5 -71.5q-45 -50 -69.5 -118.5t-24.5 -155.5q0 -175 82.5 -272.5t243.5 -97.5q33 0 66 3.5t64 10t58 15t47 19.5q14 7 16.5 13.5t2.5 14.5v322q0 15 -8 19t-42 4h-220z" />
    <glyph glyph-name="H" unicode="H" horiz-adv-x="700" 
d="M149 720q-26 0 -41.5 -1t-23.5 -3.5t-11 -7t-3 -11.5v-675q0 -6 3 -10.5t11 -7t23.5 -3.5t41.5 -1h10q48 0 65 4.5t17 17.5v277h218v-277q0 -6 3 -10.5t11.5 -7t24 -3.5t40.5 -1h11q47 0 64 4.5t17 17.5v675q0 14 -16.5 18.5t-64.5 4.5h-11q-50 0 -64.5 -5t-14.5 -18
v-269h-218v269q0 14 -17 18.5t-65 4.5h-10z" />
    <glyph glyph-name="I" unicode="I" horiz-adv-x="429" 
d="M300 113v494h60q11 0 13.5 8.5t2.5 44.5v5q0 19 -0.5 30.5t-2 16.5t-5 6.5t-8.5 1.5h-291q-5 0 -8.5 -1.5t-5 -7t-2 -17t-0.5 -30.5v-5q0 -18 0.5 -28.5t2 -15.5t5 -6.5t8.5 -1.5h60v-494h-60q-5 0 -8.5 -1.5t-5 -6.5t-2 -15.5t-0.5 -28.5v-5q0 -20 0.5 -31t2 -16.5t5 -7
t8.5 -1.5h291q5 0 8.5 1.5t5 7t2 16.5t0.5 31v5q0 36 -3 44t-13 8h-60z" />
    <glyph glyph-name="J" unicode="J" horiz-adv-x="486" 
d="M326 720q-25 0 -40.5 -1t-24 -4t-11.5 -7.5t-3 -10.5v-451q0 -36 -3 -60t-17 -40q-20 -22 -60 -22q-17 0 -41 5.5t-44 12.5q-17 5 -24 -5.5t-16 -40.5l-6 -20q-8 -27 -8 -40t13 -18q32 -14 70 -21t74 -7q117 0 176 63q28 31 42.5 76.5t14.5 114.5v453q0 13 -16.5 18
t-64.5 5h-11z" />
    <glyph glyph-name="K" unicode="K" horiz-adv-x="634" 
d="M149 720q-26 0 -41.5 -1t-23.5 -4t-11 -7.5t-3 -10.5v-675q0 -6 3 -10.5t11 -7t23.5 -3.5t41.5 -1h10q48 0 65 5.5t17 16.5v243l29 30l159 -277q3 -6 7 -9.5t12 -5.5t24 -2.5t43 -0.5h29q49 0 60.5 7t2.5 22l-224 383q87 91 139 162t75 122q3 7 2.5 12t-8.5 7.5
t-24.5 3.5t-43.5 1h-11q-23 0 -36.5 -0.5t-21.5 -2.5t-12 -5t-7 -8q-33 -51 -78 -109.5t-105 -124.5l-11 -12v239q0 13 -17 18t-65 5h-10z" />
    <glyph glyph-name="L" unicode="L" horiz-adv-x="529" 
d="M149 720q-25 0 -40.5 -1t-24 -4t-11.5 -7.5t-3 -10.5v-675q0 -7 2 -11.5t8 -6.5t17.5 -3t30.5 -1h356q7 0 12 1.5t7 8t3 19t1 33.5v7q0 21 -1 33t-3 18t-7 7.5t-12 1.5h-243v568q0 13 -16.5 18t-64.5 5h-11z" />
    <glyph glyph-name="M" unicode="M" horiz-adv-x="846" 
d="M173 720q-26 0 -41.5 -1t-24 -3t-11 -7t-2.5 -12l-29 -674q0 -8 2 -12.5t10 -6.5t23.5 -3t42.5 -1h5q25 0 39.5 0.5t22.5 3t10.5 6.5t2.5 12l7 223q2 55 -2 121t-12 132q18 -65 42.5 -129.5t42.5 -108.5l53 -126q3 -6 5.5 -10t8.5 -7t18 -4t34 -1h10q21 0 33 1t18.5 4
t9 7t5.5 10l52 129q8 21 19.5 48.5t23.5 59t23.5 64t20.5 62.5q-11 -68 -16 -135t-4 -117l4 -223q0 -6 2 -10.5t10 -7t23 -3.5t41 -1h7q27 0 43 1t24 4t10 7.5t2 12.5l-27 672q0 7 -3 11.5t-11.5 7t-24 3.5t-40.5 1h-8q-27 0 -42.5 -1.5t-23.5 -4.5t-11.5 -7t-5.5 -9
l-91 -228q-8 -19 -16.5 -41t-17 -44.5l-17 -45t-14.5 -41.5q-11 35 -28.5 81.5t-37.5 93.5l-94 225q-3 7 -7.5 11t-13.5 6.5t-23.5 3.5t-38.5 1h-12z" />
    <glyph glyph-name="N" unicode="N" horiz-adv-x="716" 
d="M140 720q-25 0 -39 -1t-21 -3t-8.5 -7t-1.5 -12v-675q0 -7 3 -11.5t11.5 -6.5t24 -3t40.5 -1h6q47 0 62 4.5t15 17.5v241q0 45 -3 91t-9 100q10 -21 19.5 -40t20.5 -38.5t24 -40.5t30 -47l179 -268q4 -6 9 -9.5t13 -6t21 -3.5t33 -1h6q25 0 39 1t21 3.5t9 7t2 10.5v675
q0 6 -3 10.5t-11.5 7.5t-23.5 4t-40 1h-6q-25 0 -40.5 -1t-23.5 -4t-11 -7.5t-3 -10.5v-240q0 -51 2 -94t7 -91q-21 43 -43 82t-48 78l-180 268q-3 5 -7.5 8.5t-12.5 6t-21.5 4t-35.5 1.5h-5z" />
    <glyph glyph-name="O" unicode="O" horiz-adv-x="707" 
d="M361 596q65 0 101.5 -54t36.5 -176q0 -118 -39 -180t-114 -62q-65 0 -101.5 54t-36.5 176q0 118 39 180t114 62zM364 730q-82 0 -144 -27t-103.5 -76.5t-62.5 -120t-21 -156.5q0 -95 22.5 -163.5t63.5 -112t98 -64t126 -20.5q82 0 144.5 27t103.5 76.5t62 120t21 156.5
q0 95 -22.5 163.5t-63.5 112t-98 64t-126 20.5z" />
    <glyph glyph-name="P" unicode="P" horiz-adv-x="587" 
d="M129 720q-38 0 -48.5 -4t-10.5 -19v-675q0 -6 3 -10.5t11.5 -7t24 -3.5t40.5 -1h11q48 0 64.5 4.5t16.5 17.5v227q10 -1 20.5 -1h19.5q71 0 124.5 18.5t85.5 50.5q32 34 49 78t17 95q0 104 -56 162q-42 41 -104 54.5t-150 13.5h-118zM241 591h23q42 0 63.5 -8t35.5 -25
q19 -25 19 -68q0 -26 -4.5 -46.5t-16.5 -34.5q-14 -17 -34.5 -24.5t-52.5 -7.5h-16t-17 1v213z" />
    <glyph glyph-name="Q" unicode="Q" horiz-adv-x="707" 
d="M607 -68q15 12 23 19.5t10.5 12t0.5 8t-7 8.5q-23 20 -43 40.5t-35 39.5q60 55 89 135.5t29 174.5q0 95 -22.5 163.5t-63.5 112t-98 64t-126 20.5q-82 0 -144 -27t-103.5 -76.5t-62.5 -120t-21 -156.5q0 -95 22.5 -163.5t63.5 -112t98 -64t126 -20.5q25 0 50.5 2.5
t45.5 7.5q20 -26 43.5 -52t46.5 -47q6 -5 10.5 -7.5t11 -1t16 8t24.5 18.5zM351 250q-16 -8 -24.5 -13.5t-12.5 -10t-3.5 -8.5t2.5 -10q8 -17 19.5 -40t25.5 -45q-78 0 -114 56t-36 175q0 118 39 180t114 62q65 0 101.5 -54t36.5 -176q0 -55 -6 -100t-26 -80
q-10 16 -21.5 38t-19.5 39q-2 5 -5.5 8t-9.5 3t-16.5 -4t-27.5 -12z" />
    <glyph glyph-name="R" unicode="R" horiz-adv-x="627" 
d="M128 720q-38 0 -48 -4t-10 -19v-675q0 -6 3 -10.5t11 -7t23.5 -3.5t41.5 -1h10q48 0 65 4.5t17 17.5v248h40l30 -56q42 -78 71 -127.5t48 -69.5q12 -12 27 -14.5t45 -2.5h54q44 0 52 8.5t-3 23.5q-39 53 -75.5 109.5t-74.5 125.5l-19 35q60 30 91 82t31 120q0 47 -14 84
t-39 64q-39 41 -98.5 54.5t-147.5 13.5h-131zM241 591h32q35 0 53.5 -4.5t32.5 -15.5q24 -21 24 -69q0 -60 -30 -84q-14 -12 -33 -16.5t-46 -4.5h-33v194z" />
    <glyph glyph-name="S" unicode="S" horiz-adv-x="563" 
d="M484 612q15 31 16.5 42.5t-10.5 19.5q-83 56 -189 56q-49 0 -92.5 -14.5t-76.5 -41.5t-52.5 -67t-19.5 -91q0 -45 14.5 -76t39 -54.5t57.5 -42t71 -38.5q21 -11 40.5 -21.5t33.5 -22.5t22.5 -26.5t8.5 -34.5q0 -35 -21.5 -55.5t-66.5 -20.5q-35 0 -72 15.5t-74 41.5
q-13 9 -23.5 2t-27.5 -42l-12 -24q-15 -30 -16 -40t9 -17q39 -27 97 -48.5t126 -21.5q62 0 109 16t79 44.5t48 69t16 88.5q0 45 -14.5 78.5t-39.5 59.5t-58.5 46.5t-70.5 38.5q-30 15 -50 26.5t-32 22.5t-17 23t-5 27q0 33 22.5 51t56.5 18t64 -12.5t58 -31.5q9 -6 18 -1
t24 37z" />
    <glyph glyph-name="T" unicode="T" horiz-adv-x="546" 
d="M187 591v-569q0 -6 3 -10.5t11.5 -7t24 -3.5t40.5 -1h11q48 0 64.5 4.5t16.5 17.5v569h152q7 0 12 1.5t7 8t3 19t1 33.5v7q0 21 -1 33t-3 18t-7 7.5t-12 1.5h-474q-8 0 -12.5 -1.5t-6.5 -7.5t-3 -18t-1 -33v-7q0 -21 1 -33.5t3 -19t6.5 -8t12.5 -1.5h151z" />
    <glyph glyph-name="U" unicode="U" horiz-adv-x="703" 
d="M145 720q-26 0 -41.5 -1t-23.5 -4t-11 -7.5t-3 -10.5v-420q0 -80 14.5 -127.5t45.5 -82.5q66 -77 223 -77q154 0 222 77q16 18 28 38.5t20.5 46t13 57t4.5 71.5v417q0 13 -16.5 18t-64.5 5h-8q-26 0 -41.5 -1t-23.5 -4t-11 -7.5t-3 -10.5v-424q0 -48 -9 -76t-26 -44
q-30 -29 -82 -29q-25 0 -45.5 6.5t-36.5 22.5t-24.5 44t-8.5 76v424q0 13 -15.5 18t-65.5 5h-11z" />
    <glyph glyph-name="V" unicode="V" horiz-adv-x="662" 
d="M96 720q-27 0 -42.5 -1.5t-23 -5t-8.5 -8.5t1 -12l216 -669q2 -6 7.5 -10.5t16 -7.5t28.5 -4.5t46 -1.5h5q26 0 43 1.5t27.5 4.5t15.5 8t7 12l205 668q4 13 -11.5 19.5t-68.5 6.5h-4q-26 0 -41 -1t-23.5 -3.5t-11.5 -7t-5 -11.5l-91 -311q-12 -42 -23 -92.5t-23 -115.5
q-13 65 -24 115.5t-23 92.5l-92 311q-2 6 -5.5 10.5t-12.5 7t-25.5 4t-43.5 1.5h-16z" />
    <glyph glyph-name="W" unicode="W" horiz-adv-x="989" 
d="M103 720q-28 0 -44.5 -1.5t-24.5 -4.5t-10 -8t0 -12l191 -672q2 -7 5.5 -11t12 -6.5t24.5 -3.5t42 -1h20q25 0 41 1.5t24.5 4t12 6.5t5.5 10l49 207q6 24 12.5 55.5t13 66.5t12.5 71.5t11 71.5q8 -72 20 -141.5t26 -123.5l51 -207q1 -6 5.5 -10.5t14.5 -7t27 -3.5t43 -1
h12q25 0 41 1.5t25 4t13 6.5t6 10l182 672q1 6 0 11t-9 8t-24 5t-44 2h-6q-26 0 -41.5 -1t-24.5 -3.5t-12.5 -7t-4.5 -11.5l-61 -296q-5 -21 -10 -49.5t-10.5 -59.5l-11 -62t-9.5 -56q-11 69 -22 127t-21 100l-67 296q-2 6 -5 10.5t-12 7t-24.5 4t-40.5 1.5h-9q-26 0 -41 -1
t-23 -3.5t-11.5 -7t-4.5 -11.5l-65 -295q-5 -23 -11 -53t-12 -61t-11.5 -61t-8.5 -53q-9 60 -20.5 120t-22.5 108l-64 295q-2 6 -6 10.5t-13 7.5t-25 4t-41 1h-14z" />
    <glyph glyph-name="X" unicode="X" horiz-adv-x="623" 
d="M93 720q-25 0 -40 -1.5t-21.5 -4.5t-6.5 -8t4 -12l129 -219q16 -27 33 -55t33 -51q-17 -26 -33.5 -52t-32.5 -52l-146 -238q-4 -6 -4.5 -11t5.5 -8.5t19 -5.5t36 -2h41q23 0 37 1t21.5 3t11 5t6.5 8l69 127q11 20 24 45.5t26 52.5q12 -27 23.5 -50t25.5 -48l74 -127
q6 -10 20.5 -13.5t57.5 -3.5h40q25 0 39.5 1.5t21.5 4.5t7 8t-4 12l-147 249q-16 27 -30 49.5t-30 45.5q17 26 36 56.5t37 60.5l125 206q4 6 4.5 11t-5 8.5t-18.5 5.5t-37 2h-41q-24 0 -38 -1t-21.5 -3t-10.5 -5t-6 -8l-59 -110l-46 -85q-12 24 -23 44.5t-23 40.5l-65 110
q-6 10 -20.5 13.5t-57.5 3.5h-40z" />
    <glyph glyph-name="Y" unicode="Y" horiz-adv-x="600" 
d="M85 720q-29 0 -45.5 -2t-24 -5.5t-8 -8.5t2.5 -12l204 -410v-260q0 -6 3 -10.5t11 -7t23.5 -3.5t41.5 -1h11q47 0 64 4.5t17 17.5v260l205 411q6 13 -6.5 20t-61.5 7h-22q-23 0 -37 -1t-22.5 -3.5t-12 -6.5t-6.5 -9l-68 -156q-13 -29 -23 -54t-21 -58q-11 33 -22 59
t-24 53l-72 155q-6 12 -22.5 16.5t-62.5 4.5h-22z" />
    <glyph glyph-name="Z" unicode="Z" horiz-adv-x="587" 
d="M526 0q7 0 12 1.5t7 8t3 19t1 33.5v7q0 22 -1 34.5t-3.5 18t-7 6.5t-11.5 1h-288l278 446q14 22 18 38.5t4 33.5v52q0 15 -10 18t-48 3h-396q-7 0 -11.5 -1t-7 -6.5t-3.5 -18t-1 -34.5v-7q0 -21 1 -33.5t3 -19t6.5 -8t12.5 -1.5h255l-278 -446q-14 -21 -18.5 -37.5
t-4.5 -34.5v-51q0 -14 10 -18t48 -4h430z" />
    <glyph glyph-name="a" unicode="a" horiz-adv-x="586" 
d="M380 487q-17 23 -48 37t-69 14q-47 0 -88.5 -19t-72.5 -55t-49.5 -89t-18.5 -121q0 -62 15.5 -110.5t43.5 -83t68 -52.5t90 -18q42 0 72 13.5t53 43.5q2 -17 6 -30q2 -5 5.5 -8.5t11 -5.5t20.5 -2.5t35 -0.5h5q26 0 40.5 1t21 4t7.5 8t0 13q-1 20 -2 46t-2 54t-1.5 57
t-0.5 55v59q0 67 1 119t1 91q0 6 -2.5 10t-10 6.5t-21.5 3.5t-37 1h-6q-23 0 -35.5 -1.5t-18.5 -3.5t-8 -5.5t-2 -7.5zM360 204q0 -29 -3.5 -44t-12.5 -24q-19 -19 -56 -19q-25 0 -41.5 10.5t-27 29.5t-15 45t-4.5 56q0 72 22 110.5t68 38.5q21 0 40 -10t30 -26v-167z" />
    <glyph glyph-name="b" unicode="b" horiz-adv-x="587" 
d="M143 760q-29 0 -45.5 -1t-24 -4t-9 -7t-1.5 -10v-675q0 -11 3 -17.5t15 -14.5q14 -9 36 -16.5t47.5 -13t53.5 -8.5t55 -3q66 0 119 16t85 48q37 37 56.5 91.5t19.5 126.5q0 62 -15 111.5t-43 84t-68 52.5t-89 18q-33 0 -61.5 -9.5t-51.5 -26.5v236q0 6 -2 10t-10 7
t-23.5 4t-42.5 1h-4zM225 340q0 22 3 32.5t9 16.5q18 20 60 20q18 0 34 -6t28 -20q13 -14 20.5 -41t7.5 -70q0 -44 -8 -74t-22 -48q-13 -17 -34.5 -25t-46.5 -8q-30 0 -51 6v217z" />
    <glyph glyph-name="c" unicode="c" horiz-adv-x="502" 
d="M461 429q15 27 17.5 37.5t-6.5 17.5q-33 26 -77 40t-93 14q-64 0 -112 -19t-81 -52q-75 -78 -75 -207q0 -66 21 -119.5t61 -90.5q31 -29 76.5 -44.5t102.5 -15.5q51 0 92.5 11.5t78.5 35.5q9 6 7.5 17t-12.5 39l-6 15q-14 34 -21 40t-23 -3q-18 -11 -43.5 -17.5
t-54.5 -6.5q-57 0 -85 38t-28 108q0 73 32 106.5t78 33.5q29 0 51.5 -7.5t45.5 -23.5q11 -8 18.5 -2.5t25.5 37.5z" />
    <glyph glyph-name="d" unicode="d" horiz-adv-x="599" 
d="M442 760q-29 0 -45 -1t-23.5 -4t-9 -7t-1.5 -10v-234q-42 34 -101 34q-51 0 -93 -19t-72 -55.5t-46.5 -89t-16.5 -118.5q0 -62 15 -111t43.5 -83.5t69 -53t91.5 -18.5q85 0 130 57q10 -23 35.5 -37t58.5 -14q46 0 75 13q9 4 11.5 13.5t2.5 37.5v11q0 31 -2.5 39t-13.5 8
q-13 0 -19 4t-6 16v600q0 6 -2 10t-10 7t-23.5 4t-42.5 1h-5zM363 200q0 -26 -2.5 -39.5t-9.5 -21.5q-8 -9 -23.5 -14.5t-36.5 -5.5q-17 0 -34 6t-28 20q-14 14 -21.5 41t-7.5 70q0 74 22 113t68 39q42 0 73 -33v-175z" />
    <glyph glyph-name="e" unicode="e" horiz-adv-x="568" 
d="M506 211q13 0 17.5 9.5t4.5 48.5q0 58 -15 107.5t-45 85.5t-74.5 56t-103.5 20q-60 0 -107.5 -20.5t-80.5 -57.5t-50.5 -88.5t-17.5 -112.5q0 -64 19 -114t53.5 -84.5t84 -52.5t109.5 -18q55 0 104 12t97 38q10 5 10.5 15t-8.5 38l-8 24q-9 27 -17 33.5t-16 2.5
q-40 -17 -74 -25.5t-70 -8.5q-48 0 -77.5 22.5t-37.5 69.5h303zM202 312q5 51 28 76.5t58 25.5q20 0 34.5 -8t24 -22t14 -32.5t5.5 -39.5h-164z" />
    <glyph glyph-name="f" unicode="f" horiz-adv-x="388" 
d="M357 415q6 0 9.5 1t5.5 6.5t3 16t1 29.5v7q0 19 -1 29.5t-3 15.5t-5.5 6.5t-9.5 1.5h-104v19q0 54 15 75q17 23 58 23q15 0 30 -2t31 -6q11 -3 16 4t13 39l4 16q7 28 7 39.5t-10 15.5q-21 8 -53.5 13.5t-64.5 5.5q-99 0 -150 -53q-28 -29 -43 -70.5t-15 -95.5v-23h-59
q-6 0 -9.5 -1.5t-5.5 -6.5t-3 -15.5t-1 -29.5v-7q0 -19 1 -29.5t3 -16t5.5 -6.5t9.5 -1h59v-393q0 -6 1.5 -10t9 -7t23.5 -4t45 -1h5q27 0 42.5 1t23.5 4t10 7t2 10v393h104z" />
    <glyph glyph-name="g" unicode="g" horiz-adv-x="589" 
d="M449 528q-17 0 -27 -0.5t-15 -2t-7 -4.5t-3 -7q-2 -5 -3 -13.5t-3 -17.5q-26 26 -57.5 40.5t-71.5 14.5q-50 0 -91.5 -18.5t-71.5 -54t-47.5 -87.5t-17.5 -118q0 -124 59 -193t162 -69q69 0 114 38v-11q0 -37 -6 -62t-19 -40t-32 -21.5t-45 -6.5t-58 9t-55 20
q-11 5 -18.5 -3t-21.5 -40l-7 -16q-7 -15 -10 -25t-3 -16t3 -9.5t8 -6.5q30 -18 76.5 -29.5t93.5 -11.5q63 0 110.5 15.5t78.5 50.5q62 66 62 209v262v63.5t-1 61t-3 50t-5 32.5q-2 6 -5 9.5t-9 5t-16 2t-28 0.5h-10zM364 211q0 -23 -1.5 -38.5t-8.5 -24.5q-16 -22 -61 -22
q-93 0 -93 134q0 75 24 111.5t67 36.5q26 0 43 -10t30 -27v-160z" />
    <glyph glyph-name="h" unicode="h" horiz-adv-x="596" 
d="M142 760q-29 0 -45 -1t-23.5 -4t-9 -7t-1.5 -10v-716q0 -6 1.5 -10t9 -7t23.5 -4t45 -1h5q27 0 42.5 1t23.5 4t10 7t2 10v227v52.5t2 42.5q2 19 7 29.5t15 17.5q19 13 56 13t54 -20q4 -5 7 -12t5 -18.5t2.5 -28t0.5 -41.5v-262q0 -6 1.5 -10t9 -7t24 -4t45.5 -1h5
q27 0 42 1t23 4t10 7t2 10v299q0 56 -11.5 94t-37.5 67q-23 26 -59 41t-84 15q-33 0 -64.5 -11.5t-54.5 -31.5v243q0 6 -2 10t-10 7t-23.5 4t-42.5 1h-5z" />
    <glyph glyph-name="i" unicode="i" horiz-adv-x="296" 
d="M49 678q0 -18 7.5 -35t20 -30t30 -20.5t38.5 -7.5t39 7.5t30.5 20.5t20 30t7.5 35q0 19 -7.5 36t-20 30t-30.5 20.5t-39 7.5q-42 0 -69 -28t-27 -66zM145 528q-29 0 -45.5 -1t-24 -4t-9 -7t-1.5 -10v-484q0 -6 1.5 -10t9 -7t24 -4t45.5 -1h5q27 0 42 1t23 4t10 7t2 10
v484q0 6 -2 10t-10 7t-23 4t-42 1h-5z" />
    <glyph glyph-name="j" unicode="j" horiz-adv-x="305" 
d="M154 528q-29 0 -45.5 -1t-24 -4t-9 -7t-1.5 -10v-520q0 -30 -2 -46t-10 -27q-14 -20 -47 -20q-14 0 -27.5 2t-25.5 5q-16 4 -21 -5t-13 -40l-4 -16q-8 -29 -7 -38.5t12 -14.5q14 -7 45 -13t61 -6q45 0 82.5 12.5t63.5 41t40.5 74t14.5 111.5v500q0 6 -2 10t-10 7t-23.5 4
t-41.5 1h-5zM58 678q0 -18 7.5 -35t20 -30t30 -20.5t38.5 -7.5t39 7.5t30.5 20.5t20 30t7.5 35q0 19 -7.5 36t-20 30t-30.5 20.5t-39 7.5q-42 0 -69 -28t-27 -66z" />
    <glyph glyph-name="k" unicode="k" horiz-adv-x="539" 
d="M142 760q-29 0 -45 -1t-23.5 -4t-9 -7t-1.5 -10v-716q0 -6 1.5 -10t9 -7t23.5 -4t45 -1h5q27 0 42.5 1t23.5 4t10 7t2 10v197l132 -202q3 -5 7.5 -8t14.5 -5t26.5 -3t42.5 -1h13q29 0 45.5 3t24 7.5t7 10.5t-4.5 12l-191 257q26 25 51.5 54t48 57.5t39.5 54.5t26 45
q7 14 -5 20.5t-61 6.5h-15q-42 0 -55.5 -3t-19.5 -13q-25 -41 -57.5 -81t-68.5 -79v386q0 6 -2 10t-10 7t-23.5 4t-42.5 1h-5z" />
    <glyph glyph-name="l" unicode="l" horiz-adv-x="315" 
d="M135 760q-29 0 -45 -1t-23.5 -3.5t-8.5 -6t-1 -9.5q1 -13 2 -44t2.5 -69.5t2.5 -80t1 -75.5v-337q0 -35 7.5 -61.5t27.5 -46.5q14 -14 37.5 -22.5t54.5 -8.5q28 0 45 2.5t28 7.5q8 4 11.5 13t3.5 38v9q0 34 -2.5 42.5t-13.5 8.5h-14q-23 0 -23 26v308q0 48 -0.5 95.5
t-1.5 87t-3 68.5t-4 41q-1 5 -4 8.5t-11.5 5.5t-23 3t-39.5 1h-5z" />
    <glyph glyph-name="m" unicode="m" horiz-adv-x="891" 
d="M131 528q-26 0 -41 -1.5t-22.5 -4.5t-9 -8t-0.5 -12q3 -40 5 -97.5t2 -114.5v-268q0 -6 1.5 -10t9 -7t24 -4t45.5 -1h4q27 0 42.5 1t23.5 4t10 7t2 10v228v52.5t2 42.5q3 31 22 46q18 13 49 13q36 0 51 -20q4 -5 7 -12t5 -18.5t3 -28t1 -41.5v-262q0 -6 1.5 -10t9 -7
t23.5 -4t45 -1h5q27 0 42.5 1t23.5 4t10 7t2 10v228v52.5t2 42.5q3 31 22 46q16 13 48 13q35 0 52 -20q5 -5 8 -12t5 -18.5t2.5 -28t0.5 -41.5v-262q0 -6 1.5 -10t9 -7t23.5 -4t45 -1h5q27 0 42.5 1t23.5 4t10 7t2 10v299q0 56 -12 94t-38 67q-23 26 -58.5 41t-81.5 15
q-45 0 -84.5 -19t-68.5 -49q-26 35 -63 51.5t-82 16.5q-40 0 -75 -16.5t-60 -41.5q-2 20 -5 32q-2 4 -4.5 7.5t-9.5 5t-19.5 2.5t-33.5 1h-5z" />
    <glyph glyph-name="n" unicode="n" horiz-adv-x="598" 
d="M229 344q2 19 7 29.5t15 17.5q19 13 56 13t54 -20q4 -5 7 -12t5 -18.5t2.5 -28t0.5 -41.5v-262q0 -6 1.5 -10t9 -7t24 -4t45.5 -1h5q27 0 42 1t23 4t10 7t2 10v299q0 56 -11.5 94t-37.5 67q-23 26 -59.5 41t-84.5 15q-40 0 -76.5 -17t-60.5 -41q-1 8 -2 17.5t-3 14.5
t-4.5 8t-9.5 5t-19.5 2.5t-33.5 0.5h-5q-26 0 -41 -1.5t-22.5 -4.5t-9 -8t-0.5 -12q3 -40 5 -97.5t2 -114.5v-268q0 -6 1.5 -10t9 -7t23.5 -4t45 -1h5q27 0 42.5 1t23.5 4t10 7t2 10v227v52.5t2 42.5z" />
    <glyph glyph-name="o" unicode="o" horiz-adv-x="579" 
d="M298 538q-130 0 -197 -73.5t-67 -210.5q0 -130 66 -197t181 -67q130 0 197 73.5t67 210.5q0 130 -66 197t-181 67zM295 408q44 0 64 -36.5t20 -103.5q0 -69 -22 -108.5t-73 -39.5q-44 0 -64 36.5t-20 103.5q0 69 22 108.5t73 39.5z" />
    <glyph glyph-name="p" unicode="p" horiz-adv-x="590" 
d="M131 528q-26 0 -41 -1.5t-22.5 -4.5t-9 -8t-0.5 -12q3 -40 5 -97.5t2 -114.5v-491q0 -6 1.5 -10.5t9 -7t23.5 -3.5t45 -1h5q27 0 42.5 1t23.5 3.5t10 7t2 10.5v225q22 -16 48.5 -25t55.5 -9q51 0 92.5 19t71 55.5t45.5 89t16 118.5q0 61 -15.5 110.5t-43.5 84t-67.5 53
t-88.5 18.5q-41 0 -75 -15t-59 -39q-1 18 -5 30q-1 4 -3.5 7t-9.5 4.5t-19.5 2t-33.5 0.5h-5zM227 338q0 22 3 33t11 19q22 19 59 19q17 0 34.5 -6t29.5 -20q13 -14 19.5 -41t6.5 -70q0 -74 -22.5 -113.5t-68.5 -39.5q-18 0 -36.5 7.5t-35.5 22.5v189z" />
    <glyph glyph-name="q" unicode="q" horiz-adv-x="587" 
d="M523 464q0 11 -3.5 17t-16.5 14q-15 9 -35.5 17t-45 13.5t-51 9t-52.5 3.5q-68 0 -120.5 -20t-89.5 -57t-56 -89t-19 -116q0 -62 15 -111t43.5 -83.5t69.5 -53t92 -18.5q35 0 63 10t45 27q0 -39 2 -75t4.5 -67t5.5 -53.5t6 -34.5q1 -7 4.5 -11t11.5 -6t23 -2.5t41 -0.5h7
q27 0 42.5 1.5t23 4t9 7t0.5 10.5q-4 22 -7.5 53.5t-6 67.5t-4 75.5t-1.5 78.5v389zM200 256q0 31 6.5 59.5t20.5 49.5t35 33.5t51 12.5q22 0 48 -6v-196q0 -34 -3 -48t-11 -22q-19 -21 -54 -21q-21 0 -36.5 7t-27.5 21q-13 15 -21 41t-8 69z" />
    <glyph glyph-name="r" unicode="r" 
d="M129 528q-26 0 -41 -1.5t-21.5 -4.5t-8 -8t-0.5 -12q3 -40 5 -97.5t2 -114.5v-268q0 -6 1.5 -10t9 -7t23.5 -4t45 -1h5q27 0 42.5 1t23.5 4t10 7t2 10v140q0 68 8 111t25 69q18 27 44.5 43t66.5 19q5 0 8.5 2t6 8t3.5 17.5t1 32.5v14q0 16 -0.5 25.5t-2.5 15t-5 8.5t-7 5
q-12 6 -34 6q-45 0 -77.5 -30.5t-54.5 -87.5q-2 26 -4.5 50.5t-5.5 40.5q-1 5 -3 8.5t-8.5 5.5t-19 2.5t-34.5 0.5h-5z" />
    <glyph glyph-name="s" unicode="s" horiz-adv-x="487" 
d="M49 102q-14 -24 -16 -34.5t7 -18.5q32 -26 83.5 -42.5t108.5 -16.5q114 0 170 54q26 25 39 57.5t13 67.5q0 41 -16.5 68.5t-42.5 45.5t-57 29t-60 20q-30 9 -54.5 19t-24.5 28q0 17 14 26q17 11 50 11q52 0 104 -31q9 -5 18.5 0t24.5 31l10 18q16 29 16.5 39t-7.5 16
q-32 23 -75.5 36t-95.5 13q-45 0 -84.5 -12t-68 -34t-45 -54t-16.5 -72q0 -44 17 -72.5t43 -47.5t57 -30t60 -19q14 -4 27.5 -8.5t24.5 -9.5t18 -12t7 -16q0 -16 -16.5 -26.5t-52.5 -10.5q-29 0 -62.5 11.5t-60.5 30.5q-11 7 -20 0.5t-27 -37.5z" />
    <glyph glyph-name="t" unicode="t" horiz-adv-x="412" 
d="M352 415q6 0 9.5 1t5.5 6.5t3 16t1 29.5v7q0 19 -1 29.5t-3 15.5t-5.5 6.5t-9.5 1.5h-101v121q0 6 -2 10.5t-10 7.5t-23.5 4t-42.5 1h-5q-29 0 -45 -1t-23.5 -4t-9 -7.5t-1.5 -10.5v-121h-59q-6 0 -9.5 -1.5t-5.5 -6.5t-3 -15.5t-1 -29.5v-7q0 -19 1 -29.5t3 -16
t5.5 -6.5t9.5 -1h59v-246q0 -94 43 -137q20 -20 51.5 -31t76.5 -11q31 0 62 6t56 18q6 3 9.5 6t4.5 8.5t-0.5 15.5t-6.5 27l-3 10q-9 32 -15.5 40.5t-19.5 3.5q-26 -9 -52 -9q-21 0 -33 12q-6 6 -8.5 17t-2.5 32v238h101z" />
    <glyph glyph-name="u" unicode="u" horiz-adv-x="596" 
d="M140 528q-29 0 -45.5 -1t-24 -4t-9 -7t-1.5 -10v-299q0 -56 11.5 -94t37.5 -67q23 -26 60 -41t85 -15q42 0 76 15.5t57 41.5q2 -17 5 -30q1 -5 4 -8.5t10.5 -5.5t20.5 -2.5t34 -0.5h5q26 0 41 1t22 4t8.5 8t0.5 13q-2 40 -4 97.5t-2 114.5v268q0 6 -2 10t-10 7t-23.5 4
t-42.5 1h-5q-29 0 -45 -1t-23.5 -4t-9 -7t-1.5 -10v-227q0 -27 -0.5 -49.5t-1.5 -37.5q-2 -22 -5.5 -32.5t-11.5 -18.5q-20 -17 -59 -17q-37 0 -54 20q-5 6 -8 12.5t-4.5 17t-2.5 27.5t-1 43v262q0 6 -2 10t-10 7t-23.5 4t-42.5 1h-4z" />
    <glyph glyph-name="v" unicode="v" horiz-adv-x="532" 
d="M82 528q-31 0 -48 -2t-24.5 -5.5t-8 -8.5t2.5 -12l180 -483q2 -5 5.5 -8t12 -5t22 -3t36.5 -1h23q22 0 35.5 0.5t21.5 3t12.5 6.5t7.5 10q28 52 53.5 116t47 129t38.5 127.5t27 112.5q2 13 -13.5 18t-60.5 5h-6q-25 0 -38.5 -1t-20 -3.5t-8 -6.5t-2.5 -9
q-8 -41 -19.5 -87.5t-25 -95t-28.5 -97.5t-30 -95q-14 93 -40 177l-63 198q-2 6 -5.5 9.5t-12.5 6t-24 3.5t-39 1h-8z" />
    <glyph glyph-name="w" unicode="w" horiz-adv-x="791" 
d="M82 528q-30 0 -46.5 -1.5t-24 -5t-8 -9t1.5 -12.5l137 -482q1 -5 5 -8.5t13 -5.5t24.5 -3t39.5 -1h10q26 0 41.5 1t24.5 3t12.5 5t4.5 8l41 152q13 49 23 98.5t15 114.5q7 -65 14.5 -115t20.5 -98l40 -151q1 -5 3.5 -8.5t10 -5.5t23 -3t43.5 -1h8q24 0 39 0.5t24 2.5
t13 5.5t7 9.5q22 57 43 120.5t38.5 127.5t31.5 125.5t22 112.5q1 14 -12 19t-59 5h-4q-26 0 -41 -1t-23 -3.5t-10.5 -7t-3.5 -10.5q-5 -36 -11.5 -84.5t-15 -101t-17 -103.5t-15.5 -91q-8 54 -16 95.5t-17 83.5l-46 202q-3 12 -18 16.5t-62 4.5h-9q-24 0 -39 -1t-23.5 -3
t-12 -6.5t-5.5 -10.5l-52 -213q-9 -38 -15.5 -78.5t-11.5 -90.5q-5 51 -11 96.5t-14 81.5l-47 204q-3 11 -18 16t-63 5h-3z" />
    <glyph glyph-name="x" unicode="x" horiz-adv-x="518" 
d="M78 528q-52 0 -64 -6.5t0 -23.5l99 -147q14 -21 28.5 -41t29.5 -40q-15 -22 -27 -40.5t-28 -42.5l-106 -157q-5 -7 -5 -12.5t7.5 -9.5t23.5 -6t44 -2h11q24 0 38 1t22.5 3t13 5.5t7.5 9.5l46 78q10 17 17 29.5t15 29.5q10 -19 19 -34.5t20 -32.5l46 -71q4 -6 8.5 -9.5
t13.5 -5.5t23.5 -2.5t38.5 -0.5h16q58 0 71.5 5.5t2.5 22.5l-110 161q-17 25 -32 44.5t-30 39.5l31.5 45t34.5 51l89 134q4 7 4 11.5t-8 7.5t-25 4.5t-46 1.5h-9q-24 0 -37.5 -0.5t-21 -3t-11.5 -6t-7 -9.5l-33 -57q-19 -32 -35 -69q-19 36 -37 65l-39 61q-3 5 -8.5 8.5
t-16 6t-27 3.5t-41.5 1h-16z" />
    <glyph glyph-name="y" unicode="y" horiz-adv-x="536" 
d="M93 528q-29 0 -45 -2t-23.5 -5.5t-8 -8.5t1.5 -12l177 -505q-14 -45 -39 -73.5t-67 -28.5q-14 0 -33.5 3.5t-32.5 8.5t-20.5 -4.5t-16.5 -40.5l-4 -14q-8 -26 -9 -36.5t10 -17.5q17 -11 47.5 -18t65.5 -7q53 0 92 15t69 45.5t53.5 77t44.5 109.5l166 486q2 7 1.5 12
t-7.5 8.5t-23 5.5t-44 2h-12q-23 0 -37 -1t-22 -3t-11.5 -6t-4.5 -10l-43 -157q-12 -44 -22 -92.5t-19 -117.5q-11 70 -20.5 117t-22.5 90l-49 160q-2 6 -5 9.5t-11 6t-23 3.5t-40 1h-13z" />
    <glyph glyph-name="z" unicode="z" horiz-adv-x="489" 
d="M441 0q6 0 9.5 1t5.5 6.5t3 17t1 31.5v6q0 20 -1 31.5t-3 17t-5.5 6.5t-9.5 1h-205l203 301q11 15 14 26t3 27v38q0 12 -8 15t-41 3h-333q-6 0 -9.5 -1t-5.5 -6.5t-3 -17t-1 -31.5v-6q0 -20 1 -31.5t3 -17t5.5 -6.5t9.5 -1h181l-205 -301q-10 -14 -13 -25t-3 -28v-35
q0 -12 7.5 -16.5t30.5 -4.5h369z" />
    <glyph glyph-name="ampersand" unicode="&#x26;" horiz-adv-x="701" 
d="M491 635q11 27 10.5 37.5t-7.5 15.5q-32 20 -72 31t-83 11q-54 0 -96 -15.5t-70.5 -42.5t-43.5 -63t-15 -77q0 -68 42 -134q-57 -26 -90 -78.5t-33 -114.5q0 -53 20 -93t54 -67t79.5 -41t95.5 -14q69 0 120.5 18t92.5 50q42 -35 78 -60q6 -5 11.5 -6.5t12 1.5t15.5 11.5
t22 25.5l12 15q21 26 26.5 41.5t-7.5 24.5q-31 23 -73 58q26 51 39.5 110t16.5 118q1 14 -10.5 19t-52.5 5h-11q-22 0 -35 -1.5t-19.5 -4.5t-8.5 -7.5t-2 -11.5q-1 -29 -5.5 -63.5t-15.5 -69.5q-23 21 -46 44t-44.5 44t-39 39.5t-28.5 31.5q-28 33 -39 59.5t-11 50.5
q0 32 19 52.5t58 20.5q23 0 44.5 -5.5t43.5 -16.5q12 -6 20.5 1t19.5 36zM395 147q-18 -13 -39.5 -20t-48.5 -7q-49 0 -78 28t-29 73q0 52 31 86q32 -35 75 -76.5t89 -83.5z" />
    <glyph glyph-name="at" unicode="@" horiz-adv-x="854" 
d="M420 543q-44 0 -79.5 -20t-61 -53t-39.5 -75t-14 -87q0 -32 8.5 -59.5t26 -47.5t42.5 -32t58 -12t60.5 13.5t48.5 42.5q12 -24 43.5 -40t79.5 -16q52 0 94.5 19t73 54t47.5 84t17 108q0 68 -24.5 124.5t-72 97.5t-115.5 63.5t-155 22.5q-86 0 -163 -29.5t-135.5 -83
t-93 -128.5t-34.5 -166q0 -82 28.5 -145t79.5 -105q102 -83 278 -83q60 0 123.5 11.5t111.5 31.5q11 5 12 12.5t-4 24.5l-4 16q-5 21 -10 26.5t-13 3.5q-42 -12 -95 -19.5t-104 -7.5q-136 0 -202.5 60.5t-66.5 178.5q0 59 20 112t58 93t92 63.5t123 23.5q52 0 95.5 -12.5
t75 -37.5t49 -63.5t17.5 -90.5q0 -38 -7 -68t-19 -51t-27.5 -32.5t-31.5 -11.5q-30 0 -30 31q0 12 3 27.5t8 38.5l9 41q5 26 13 60.5t15 63.5q2 10 -8 15.5t-42 5.5h-17q-17 0 -27.5 -1t-16 -2.5t-8 -5t-3.5 -7.5l-3 -13q-14 19 -36 27.5t-48 8.5zM459 348q-10 -42 -23 -66
t-40 -24q-15 0 -24 15t-9 40q0 27 7 51.5t18 42.5t26 28.5t31 10.5q21 0 34 -11z" />
    <glyph glyph-name="exclam" unicode="!" horiz-adv-x="306" 
d="M145 720q-26 0 -42 -1t-25 -4t-11.5 -7.5t-2.5 -11.5l18 -440q1 -11 13 -15t46 -4h21q35 0 46.5 3.5t12.5 15.5l15 440q0 7 -2.5 11.5t-11 7.5t-24.5 4t-42 1h-11zM61 78q0 -18 7.5 -34t20 -28t29.5 -19t35 -7q38 0 65 25.5t27 62.5q0 38 -27 63.5t-65 25.5
q-37 0 -64.5 -25.5t-27.5 -63.5z" />
    <glyph glyph-name="exclamdown" unicode="&#xa1;" horiz-adv-x="306" 
d="M156 -192q26 0 42 1t24.5 4t11 7.5t2.5 11.5l-15 440q-1 12 -12.5 15.5t-46.5 3.5h-21q-34 0 -46 -4t-13 -15l-18 -440q0 -7 2.5 -11.5t11.5 -7.5t25 -4t42 -1h11zM61 450q0 -38 27.5 -63.5t64.5 -25.5q38 0 65 25.5t27 63.5q0 37 -27 62.5t-65 25.5q-18 0 -35 -7
t-29.5 -19t-20 -28t-7.5 -34z" />
    <glyph glyph-name="question" unicode="?" horiz-adv-x="462" 
d="M56 596q14 -27 24 -32.5t24 3.5q22 14 46.5 24t49.5 10q33 0 49.5 -17.5t16.5 -44.5q0 -33 -19.5 -60.5t-41.5 -48.5q-16 -15 -32 -32.5t-29.5 -38.5t-22 -47t-8.5 -57v-4q0 -14 13 -17.5t52 -3.5h19q42 0 53.5 4.5t11.5 15.5q0 33 21 57.5t47 48.5q18 17 36.5 36
t33 42.5t24 51t9.5 61.5q0 43 -16 77t-44.5 57.5t-68.5 36t-88 12.5q-54 0 -99.5 -15.5t-77.5 -39.5q-11 -8 -9.5 -19.5t13.5 -34.5zM94 78q0 -18 7.5 -34t20 -28t29.5 -19t35 -7q38 0 65 25.5t27 62.5q0 38 -27 63.5t-65 25.5q-37 0 -64.5 -25.5t-27.5 -63.5z" />
    <glyph glyph-name="questiondown" unicode="&#xbf;" horiz-adv-x="462" 
d="M410 -68q-14 27 -24 32.5t-24 -3.5q-22 -14 -46.5 -24t-49.5 -10q-33 0 -49.5 17.5t-16.5 44.5q0 33 19.5 60.5t41.5 48.5q16 15 32 32.5t29.5 38.5t22 46.5t8.5 57.5v4q0 14 -13 17.5t-52 3.5h-19q-42 0 -53.5 -4.5t-11.5 -15.5q0 -33 -21 -57.5t-47 -48.5
q-18 -17 -36.5 -36t-33 -42.5t-24 -51t-9.5 -61.5q0 -43 16 -77t44.5 -57.5t68.5 -36t88 -12.5q54 0 99.5 15.5t77.5 39.5q11 8 9.5 19.5t-13.5 34.5zM372 450q0 18 -7.5 34t-20 28t-29.5 19t-35 7q-38 0 -65 -25.5t-27 -62.5q0 -38 27 -63.5t65 -25.5q37 0 64.5 25.5
t27.5 63.5z" />
    <glyph glyph-name="asterisk" unicode="*" horiz-adv-x="431" 
d="M69 649q-14 6 -21 -1t-18 -43l-4 -13q-5 -17 -7 -27t-1 -15t4.5 -7t8.5 -3l98 -26l-66 -79q-10 -12 -3.5 -22t29.5 -27l11 -8q29 -21 42.5 -23.5t22.5 12.5l48 82l50 -82q9 -14 21.5 -13t40.5 21l12 9q25 17 31 28.5t-3 22.5l-70 79l105 27q6 1 9.5 3.5t4 8.5t-1.5 16.5
t-7 27.5l-4 13q-5 17 -9.5 26.5t-8.5 13t-9 3.5t-11 -3l-97 -39l10 97q2 15 -11 18.5t-46 3.5h-13q-33 0 -46 -3.5t-11 -18.5l9 -96z" />
    <glyph glyph-name="period" unicode="." horiz-adv-x="247" 
d="M31 79q0 -38 27.5 -63.5t65.5 -25.5t65 25.5t27 63.5t-27 63.5t-65 25.5t-65.5 -25.5t-27.5 -63.5z" />
    <glyph glyph-name="comma" unicode="," horiz-adv-x="257" 
d="M42 -179q18 -16 26 -16t16 7q64 52 99.5 116t35.5 126q0 52 -28 81t-72 29q-41 0 -66 -23t-25 -55q0 -20 6.5 -33t16.5 -24q24 -25 24 -49t-15 -52.5t-44 -65.5q-5 -6 -2 -12.5t20 -21.5z" />
    <glyph glyph-name="colon" unicode=":" horiz-adv-x="247" 
d="M31 79q0 -38 27.5 -63.5t65.5 -25.5t65 25.5t27 63.5t-27 63.5t-65 25.5t-65.5 -25.5t-27.5 -63.5zM31 424q0 -38 27.5 -63.5t65.5 -25.5t65 25.5t27 63.5t-27 63.5t-65 25.5t-65.5 -25.5t-27.5 -63.5z" />
    <glyph glyph-name="semicolon" unicode=";" horiz-adv-x="253" 
d="M56 -175q18 -16 26 -16t16 7q64 52 99.5 116t35.5 126q0 52 -28 81t-72 29q-41 0 -66 -23t-25 -55q0 -20 6.5 -33t16.5 -24q24 -25 24 -49t-15 -52.5t-44 -65.5q-5 -6 -2 -12.5t20 -21.5zM42 424q0 -38 27.5 -63.5t65.5 -25.5t65 25.5t27 63.5t-27 63.5t-65 25.5
t-65.5 -25.5t-27.5 -63.5z" />
    <glyph glyph-name="ellipsis" unicode="&#x2026;" horiz-adv-x="725" 
d="M31 79q0 -38 27.5 -63.5t65.5 -25.5t65 25.5t27 63.5t-27 63.5t-65 25.5t-65.5 -25.5t-27.5 -63.5zM270 79q0 -38 27.5 -63.5t65.5 -25.5t65 25.5t27 63.5t-27 63.5t-65 25.5t-65.5 -25.5t-27.5 -63.5zM509 79q0 -38 27.5 -63.5t65.5 -25.5t65 25.5t27 63.5t-27 63.5
t-65 25.5t-65.5 -25.5t-27.5 -63.5z" />
    <glyph glyph-name="periodcentered" unicode="&#xb7;" horiz-adv-x="247" 
d="M31 364q0 -38 27.5 -63.5t65.5 -25.5t65 25.5t27 63.5t-27 63.5t-65 25.5t-65.5 -25.5t-27.5 -63.5z" />
    <glyph glyph-name="bullet" unicode="&#x2022;" horiz-adv-x="362" 
d="M181 513q-30 0 -56.5 -11.5t-46 -31t-30.5 -45.5t-11 -56q0 -29 11 -55t30.5 -46t46 -31.5t56.5 -11.5q31 0 57.5 11.5t45.5 31.5t30 46t11 55q0 30 -11 56t-30 45.5t-45.5 31t-57.5 11.5z" />
    <glyph glyph-name="slash" unicode="/" horiz-adv-x="382" 
d="M290 720q-43 0 -58 -4.5t-19 -17.5l-204 -672q-2 -7 -1.5 -12t7.5 -8t22 -4.5t42 -1.5h12q44 0 59 4.5t19 17.5l204 672q2 7 1.5 12t-7.5 8t-22 4.5t-42 1.5h-13z" />
    <glyph glyph-name="parenleft" unicode="(" horiz-adv-x="361" 
d="M291 752q-32 21 -44.5 21.5t-20.5 -7.5q-33 -33 -64.5 -81.5t-56 -108t-39.5 -127.5t-15 -140q0 -74 15 -142t39.5 -127t56 -106.5t64.5 -80.5q4 -4 8.5 -6t11 -1t17 5.5t25.5 14.5l17 11q30 20 34.5 29t-0.5 17q-52 82 -81.5 175.5t-29.5 210.5q0 58 9 113t24 103.5
t35 91t43 77.5q3 4 4 8.5t-2 10t-11.5 12.5t-24.5 18z" />
    <glyph glyph-name="brokenbar" unicode="&#xa6;" horiz-adv-x="293" 
d="M140 179q-25 0 -39 -1t-21 -4t-8.5 -7t-1.5 -10v-357q0 -6 1.5 -10.5t8.5 -7t21 -3.5t39 -1h11q25 0 39.5 1.5t21.5 4t9 6.5t2 10v357q0 5 -2 9t-9 7t-21.5 4.5t-39.5 1.5h-11zM140 766q-25 0 -39 -1t-21 -4t-8.5 -7t-1.5 -10v-356q0 -6 1.5 -10.5t8.5 -7.5t21 -4t39 -1
h11q25 0 39.5 1.5t21.5 4.5t9 7t2 10v356q0 5 -2 9t-9 7t-21.5 4.5t-39.5 1.5h-11z" />
    <glyph glyph-name="parenright" unicode=")" horiz-adv-x="361" 
d="M56 743q-17 -11 -25.5 -18t-11.5 -12.5t-1.5 -10t4.5 -8.5q23 -35 43 -77.5t35 -91t24 -103.5t9 -113q0 -117 -29.5 -210.5t-81.5 -175.5q-5 -8 -0.5 -17t34.5 -29l17 -11q15 -10 25.5 -14.5t17 -5.5t11 1t8.5 6q33 33 64.5 80.5t56 106.5t39.5 127t15 142q0 72 -15 140
t-39.5 127.5t-56 108t-64.5 81.5q-8 8 -20.5 7.5t-44.5 -21.5z" />
    <glyph glyph-name="bracketleft" unicode="[" horiz-adv-x="355" 
d="M92 753q-23 0 -23 -14v-857q0 -14 23 -14h235q13 0 15 9t2 41v9q0 33 -2 42t-15 9h-104v666h104q12 0 14.5 8.5t2.5 41.5v9q0 33 -2.5 41.5t-14.5 8.5h-235z" />
    <glyph glyph-name="backslash" unicode="\" horiz-adv-x="380" 
d="M77 720q-27 0 -42 -1.5t-22 -4.5t-7.5 -8t1.5 -12l204 -672q4 -13 19 -17.5t58 -4.5h13q27 0 42 1.5t22 4.5t7.5 8t-1.5 12l-204 672q-4 13 -19 17.5t-59 4.5h-12z" />
    <glyph glyph-name="bracketright" unicode="]" horiz-adv-x="355" 
d="M28 753q-12 0 -14.5 -8.5t-2.5 -41.5v-9q0 -33 2.5 -41.5t14.5 -8.5h104v-666h-104q-13 0 -15 -9t-2 -42v-9q0 -32 2 -41t15 -9h235q23 0 23 14v857q0 14 -23 14h-235z" />
    <glyph glyph-name="braceleft" unicode="{" horiz-adv-x="337" 
d="M265 753q-50 0 -84 -11.5t-55 -33.5t-30 -54.5t-9 -74.5v-147q0 -35 -12.5 -47t-32.5 -16q-16 -3 -19.5 -12.5t-3.5 -38.5v-19q0 -29 3.5 -38.5t19.5 -12.5q20 -4 32.5 -16t12.5 -47v-142q0 -43 9 -75.5t30 -54.5t55 -33.5t84 -11.5h46q11 0 13 9t2 41v12q0 33 -2.5 41.5
t-14.5 8.5h-31q-22 0 -29.5 13t-7.5 40v141q0 48 -15 80.5t-51 54.5q36 22 51 54t15 81v143q0 28 7.5 41t29.5 13h33q11 0 13 9t2 41v12q0 33 -2 41.5t-13 8.5h-46z" />
    <glyph glyph-name="bar" unicode="|" horiz-adv-x="293" 
d="M140 817q-25 0 -39 -1t-21 -3.5t-8.5 -7t-1.5 -10.5v-1046q0 -6 1.5 -10t8.5 -7t21 -4t39 -1h11q25 0 39.5 1.5t21.5 4.5t9 7t2 9v1046q0 6 -2 10t-9 6.5t-21.5 4t-39.5 1.5h-11z" />
    <glyph glyph-name="braceright" unicode="}" horiz-adv-x="337" 
d="M26 753q-11 0 -13 -8.5t-2 -41.5v-12q0 -32 2 -41t13 -9h33q22 0 29.5 -13t7.5 -41v-143q0 -49 15 -81t51 -54q-36 -22 -51 -54.5t-15 -80.5v-141q0 -27 -7.5 -40t-29.5 -13h-31q-12 0 -14.5 -8.5t-2.5 -41.5v-12q0 -32 2 -41t13 -9h46q50 0 84 11.5t55 33.5t30 54.5
t9 75.5v142q0 35 12.5 47t32.5 16q16 3 19.5 12.5t3.5 38.5v19q0 29 -3.5 38.5t-19.5 12.5q-20 4 -32.5 16t-12.5 47v147q0 42 -9 74.5t-30 54.5t-55 33.5t-84 11.5h-46z" />
    <glyph glyph-name="hyphen" unicode="-" horiz-adv-x="399" 
d="M51 350q-11 0 -15.5 -10.5t-4.5 -47.5v-9q0 -37 4 -48t16 -11h298q9 0 14 11t5 48v9q0 37 -5 47.5t-14 10.5h-298z" />
    <glyph glyph-name="uni00AD" unicode="&#xad;" horiz-adv-x="399" 
d="M51 350q-11 0 -15.5 -10.5t-4.5 -47.5v-9q0 -37 4 -48t16 -11h298q9 0 14 11t5 48v9q0 37 -5 47.5t-14 10.5h-298z" />
    <glyph glyph-name="endash" unicode="&#x2013;" horiz-adv-x="500" 
d="M480 224q6 0 10 1.5t6 7t3 16.5t1 31v6q0 20 -1 31.5t-3 17t-6 7t-10 1.5h-460q-6 0 -10 -1.5t-6 -7t-3 -17t-1 -31.5v-6q0 -20 1 -31t3 -16.5t6 -7t10 -1.5h460z" />
    <glyph glyph-name="emdash" unicode="&#x2014;" horiz-adv-x="1000" 
d="M980 224q6 0 10 1.5t6 7t3 16.5t1 31v6q0 20 -1 31.5t-3 17t-6 7t-10 1.5h-960q-6 0 -10 -1.5t-6 -7t-3 -17t-1 -31.5v-6q0 -20 1 -31t3 -16.5t6 -7t10 -1.5h960z" />
    <glyph glyph-name="underscore" unicode="_" horiz-adv-x="508" 
d="M5 -93q-14 0 -16.5 -9.5t-2.5 -46.5v-6q0 -19 0.5 -30t2.5 -17t5.5 -8t10.5 -2h499q6 0 10 2t5.5 8t2 17t0.5 30v6q0 37 -2.5 46.5t-15.5 9.5h-499z" />
    <glyph glyph-name="dagger" unicode="&#x2020;" horiz-adv-x="492" 
d="M240 720q-25 0 -39 -1t-21 -3.5t-8.5 -7t-1.5 -10.5v-196h-134q-11 0 -15 -10t-4 -47v-13q0 -19 1 -30t3 -17t5.5 -7.5t9.5 -1.5h134v-491q0 -6 1.5 -10t8.5 -7t21 -4t39 -1h10q25 0 39.5 1.5t21.5 4.5t9 7t2 9v491h134q6 0 10 1.5t6 7.5t2.5 17t0.5 30v13q0 37 -3 47
t-16 10h-134v196q0 6 -2 10t-9 6.5t-21.5 4t-39.5 1.5h-10z" />
    <glyph glyph-name="daggerdbl" unicode="&#x2021;" horiz-adv-x="506" 
d="M457 80q7 0 11 1.5t6 7t2.5 16t0.5 29.5v13q0 38 -3 48.5t-17 10.5h-131v170h131q7 0 11.5 1.5t7 7.5t3 17t0.5 30v13q0 37 -3.5 47t-18.5 10h-131v196q0 6 -2 10t-9 6.5t-21.5 4t-39.5 1.5h-11q-25 0 -39 -1t-20.5 -3.5t-8 -7t-1.5 -10.5v-196h-125q-15 0 -18.5 -10
t-3.5 -47v-13q0 -19 0.5 -30t3 -17t6.5 -7.5t12 -1.5h125v-170h-127q-14 0 -17 -10.5t-3 -48.5v-13q0 -19 0.5 -29.5t2.5 -16t6 -7t11 -1.5h127v-193q0 -7 1.5 -11.5t8 -7.5t20.5 -4t39 -1h11q25 0 39.5 1.5t21.5 4.5t9 7.5t2 10.5v193h131z" />
    <glyph glyph-name="section" unicode="&#xa7;" horiz-adv-x="551" 
d="M453 627q17 27 19 36t-8 16q-36 26 -78 38.5t-95 12.5q-45 0 -84.5 -12t-68 -34t-45 -54t-16.5 -72q0 -26 10.5 -51.5t32.5 -46.5q-31 -18 -52 -50t-21 -76q0 -28 7.5 -51.5t25.5 -43t48 -35.5t76 -29q32 -9 53.5 -16t34 -13t18 -13t5.5 -16q0 -16 -12 -25
q-16 -11 -46 -11q-27 0 -52 9.5t-51 26.5q-9 6 -16.5 0t-26.5 -36l-10 -16q-17 -27 -20 -36.5t7 -16.5q35 -24 78 -38t93 -14q45 0 84.5 12t68.5 34t45.5 54t16.5 72q0 31 -9 54t-25 41q29 21 46.5 53.5t17.5 74.5t-16 69.5t-41.5 46t-57 30t-61.5 20.5q-26 8 -43.5 13.5
t-28.5 11t-15.5 12t-4.5 15.5q0 18 17 27q8 5 18 7t25 2q26 0 50.5 -8.5t50.5 -24.5q8 -5 16.5 -1t28.5 35zM289 300q-40 11 -61.5 23t-21.5 33q0 23 21 38l33 -9q46 -13 65.5 -24t19.5 -31q0 -23 -20 -40z" />
    <glyph glyph-name="paragraph" unicode="&#xb6;" horiz-adv-x="661" 
d="M280 720q-60 0 -106 -16t-77.5 -45.5t-47.5 -70t-16 -88.5q0 -42 14 -78.5t39.5 -64.5t62.5 -45t82 -21v-408q0 -12 13 -16t39 -4h32q25 0 38.5 4t13.5 16v728h77v-728q0 -12 13.5 -16t39.5 -4h32q24 0 37.5 4t13.5 16v728h47q11 0 14 6.5t3 31.5v33q0 25 -3 31.5
t-14 6.5h-347z" />
    <glyph glyph-name="registered" unicode="&#xae;" horiz-adv-x="822" 
d="M306 563q-26 0 -32.5 -2.5t-6.5 -13.5v-374q0 -11 9.5 -13.5t41.5 -2.5h8q30 0 40.5 2.5t10.5 13.5v132h6l16 -29q18 -33 35.5 -63.5t30.5 -46.5q7 -9 16.5 -10t28.5 -1h31q30 0 35.5 6.5t-2.5 17.5t-18.5 26.5t-21 32.5t-20.5 34.5t-19 33.5l-11 20q35 17 53 46t18 67
q0 39 -14 63t-37.5 37.5t-53.5 18.5t-63 5h-81zM377 481h10q17 0 27 -2t18 -8q12 -11 12 -34q0 -16 -3 -25t-9 -15q-13 -13 -46 -13h-9v97zM412 72q-63 0 -113.5 20.5t-86 58t-54.5 91t-19 118.5t19 118.5t54.5 91t86 58t113.5 20.5t113 -20.5t85.5 -58t54 -91t18.5 -118.5
t-18.5 -118.5t-54 -91t-85.5 -58t-113 -20.5zM412 -22q84 0 153.5 29.5t119 80.5t77 121t27.5 151t-27.5 151t-77 121t-119 80.5t-153.5 29.5t-154 -29.5t-120 -80.5t-77.5 -121t-27.5 -151t27.5 -151t77.5 -121t120 -80.5t154 -29.5z" />
    <glyph glyph-name="copyright" unicode="&#xa9;" horiz-adv-x="822" 
d="M533 496q10 18 11 25t-6 12q-20 15 -49.5 25.5t-67.5 10.5q-44 0 -79 -15.5t-59.5 -43.5t-37.5 -67t-13 -87q0 -97 47.5 -151t135.5 -54q32 0 62.5 8t53.5 22q11 7 11.5 14.5t-5.5 21.5l-7 16q-8 17 -11.5 22t-11.5 0q-37 -20 -80 -20q-42 0 -61.5 32t-19.5 91
q0 64 22 95.5t62 31.5q22 0 37 -5.5t31 -15.5q7 -5 12 -2t15 20zM412 72q-63 0 -113.5 20.5t-86 58t-54.5 91t-19 118.5t19 118.5t54.5 91t86 58t113.5 20.5t113 -20.5t85.5 -58t54 -91t18.5 -118.5t-18.5 -118.5t-54 -91t-85.5 -58t-113 -20.5zM412 -22q84 0 153.5 29.5
t119 80.5t77 121t27.5 151t-27.5 151t-77 121t-119 80.5t-153.5 29.5t-154 -29.5t-120 -80.5t-77.5 -121t-27.5 -151t27.5 -151t77.5 -121t120 -80.5t154 -29.5z" />
    <glyph glyph-name="trademark" unicode="&#x2122;" horiz-adv-x="857" 
d="M27 720q-9 0 -11.5 -6t-2.5 -31v-23q0 -26 2.5 -32t11.5 -6h86v-290q0 -10 9 -13t41 -3h26q29 0 40 3t11 13v290h86q8 0 10.5 6t2.5 32v23q0 25 -2.5 31t-10.5 6h-299zM418 720q-34 0 -42 -3t-9 -13l-15 -373q-1 -10 7 -12.5t43 -2.5h23q32 0 40 2.5t8 11.5l4 89
q2 28 -0.5 61t-7.5 78q11 -40 19.5 -64t17.5 -46l23 -55q3 -8 9.5 -10.5t32.5 -2.5h26q26 0 33 2.5t10 10.5l22 55q8 20 16.5 44.5t21.5 65.5q-6 -44 -8 -76.5t-2 -61.5l1 -90q0 -9 8.5 -11.5t40.5 -2.5h24q18 0 28 0.5t15 2t6 4.5t1 8l-13 373q0 9 -10 12.5t-43 3.5h-42
q-31 0 -39 -3t-11 -11l-42 -115q-9 -24 -15 -44.5t-14 -52.5q-8 31 -15 52.5t-15 44.5l-42 115q-3 8 -12.5 11t-38.5 3h-44z" />
    <glyph glyph-name="quotedblleft" unicode="&#x201c;" horiz-adv-x="517" 
d="M222 721q-18 16 -26 16t-16 -7q-64 -52 -99.5 -116t-35.5 -126q0 -52 28 -81t72 -29q41 0 66 23t25 55q0 20 -6.5 33t-16.5 24q-24 25 -24 49t15 52.5t44 65.5q5 6 2 12.5t-20 21.5zM447 721q-18 16 -26 16t-16 -7q-64 -52 -99.5 -116t-35.5 -126q0 -52 28 -81t72 -29
q41 0 66 23t25 55q0 20 -6.5 33t-16.5 24q-24 25 -24 49t15 52.5t44 65.5q5 6 2 12.5t-20 21.5z" />
    <glyph glyph-name="quotedblright" unicode="&#x201d;" horiz-adv-x="517" 
d="M74 397q18 -16 26 -16t16 7q64 52 99.5 116t35.5 126q0 52 -28 81t-72 29q-41 0 -66 -23t-25 -55q0 -20 6.5 -33t16.5 -24q24 -25 24 -49t-15 -52.5t-44 -65.5q-5 -6 -2 -12.5t20 -21.5zM299 397q18 -16 26 -16t16 7q64 52 99.5 116t35.5 126q0 52 -28 81t-72 29
q-41 0 -66 -23t-25 -55q0 -20 6.5 -33t16.5 -24q24 -25 24 -49t-15 -52.5t-44 -65.5q-5 -6 -2 -12.5t20 -21.5z" />
    <glyph glyph-name="quoteleft" unicode="&#x2018;" horiz-adv-x="292" 
d="M222 721q-18 16 -26 16t-16 -7q-64 -52 -99.5 -116t-35.5 -126q0 -52 28 -81t72 -29q41 0 66 23t25 55q0 20 -6.5 33t-16.5 24q-24 25 -24 49t15 52.5t44 65.5q5 6 2 12.5t-20 21.5z" />
    <glyph glyph-name="quoteright" unicode="&#x2019;" horiz-adv-x="292" 
d="M74 397q18 -16 26 -16t16 7q64 52 99.5 116t35.5 126q0 52 -28 81t-72 29q-41 0 -66 -23t-25 -55q0 -20 6.5 -33t16.5 -24q24 -25 24 -49t-15 -52.5t-44 -65.5q-5 -6 -2 -12.5t20 -21.5z" />
    <glyph glyph-name="guillemotleft" unicode="&#xab;" horiz-adv-x="571" 
d="M496 509q27 -16 34 -26t0 -21l-101 -160l101 -162q7 -11 1 -21t-36 -28l-15 -9q-28 -17 -41 -17t-22 13l-127 183q-7 10 -10 18t-3 19v6q0 11 3 19t10 18l127 183q4 6 8.5 9t11.5 3t17.5 -4.5t26.5 -13.5zM258 509q27 -16 34 -26t0 -21l-101 -160l101 -162q7 -11 1 -21
t-36 -28l-15 -9q-28 -17 -41 -17t-22 13l-127 183q-7 10 -10 18t-3 19v6q0 11 3 19t10 18l127 183q4 6 8.5 9t11.5 3t17.5 -4.5t26.5 -13.5z" />
    <glyph glyph-name="guillemotright" unicode="&#xbb;" horiz-adv-x="571" 
d="M90 518q31 18 43.5 18t20.5 -12l127 -183q7 -10 10 -18t3 -19v-6q0 -11 -3 -19t-10 -18l-127 -183q-9 -13 -22 -13t-41 17l-15 9q-30 18 -36 28t1 21l101 162l-101 160q-7 11 0 21t34 26zM328 518q31 18 43.5 18t20.5 -12l127 -183q7 -10 10 -18t3 -19v-6q0 -11 -3 -19
t-10 -18l-127 -183q-9 -13 -22 -13t-41 17l-15 9q-30 18 -36 28t1 21l101 162l-101 160q-7 11 0 21t34 26z" />
    <glyph glyph-name="guilsinglleft" unicode="&#x2039;" horiz-adv-x="337" 
d="M260 509q27 -16 34 -26t0 -21l-101 -160l101 -162q7 -11 1 -21t-36 -28l-15 -9q-28 -17 -41 -17t-22 13l-127 183q-7 10 -10 18t-3 19v6q0 11 3 19t10 18l127 183q4 6 8.5 9t11.5 3t17.5 -4.5t26.5 -13.5z" />
    <glyph glyph-name="guilsinglright" unicode="&#x203a;" horiz-adv-x="337" 
d="M92 518q31 18 43.5 18t20.5 -12l127 -183q7 -10 10 -18t3 -19v-6q0 -11 -3 -19t-10 -18l-127 -183q-9 -13 -22 -13t-41 17l-15 9q-30 18 -36 28t1 21l101 162l-101 160q-7 11 0 21t34 26z" />
    <glyph glyph-name="quotesinglbase" unicode="&#x201a;" horiz-adv-x="292" 
d="M74 -243q18 -16 26 -16t16 7q64 52 99.5 116t35.5 126q0 52 -28 81t-72 29q-41 0 -66 -23t-25 -55q0 -20 6.5 -33t16.5 -24q24 -25 24 -49t-15 -52.5t-44 -65.5q-5 -6 -2 -12.5t20 -21.5z" />
    <glyph glyph-name="quotedblbase" unicode="&#x201e;" horiz-adv-x="517" 
d="M74 -243q18 -16 26 -16t16 7q64 52 99.5 116t35.5 126q0 52 -28 81t-72 29q-41 0 -66 -23t-25 -55q0 -20 6.5 -33t16.5 -24q24 -25 24 -49t-15 -52.5t-44 -65.5q-5 -6 -2 -12.5t20 -21.5zM299 -243q18 -16 26 -16t16 7q64 52 99.5 116t35.5 126q0 52 -28 81t-72 29
q-41 0 -66 -23t-25 -55q0 -20 6.5 -33t16.5 -24q24 -25 24 -49t-15 -52.5t-44 -65.5q-5 -6 -2 -12.5t20 -21.5z" />
    <glyph glyph-name="ordmasculine" unicode="&#xba;" horiz-adv-x="425" 
d="M216 569q22 0 32 -22t10 -62q0 -48 -13 -69.5t-36 -21.5q-22 0 -32 22t-10 63q0 47 13 68.5t36 21.5zM218 665q-88 0 -134 -49.5t-46 -140.5q0 -88 45 -132.5t124 -44.5q88 0 134 49.5t46 140.5q0 88 -45 132.5t-124 44.5z" />
    <glyph glyph-name="ordfeminine" unicode="&#xaa;" horiz-adv-x="439" 
d="M194 665q-32 0 -60 -12.5t-49.5 -36.5t-34 -59.5t-12.5 -81.5q0 -83 40.5 -130t108.5 -47q26 0 47 10.5t33 27.5l4 -18q1 -4 2.5 -6.5t7 -4t16.5 -2t31 -0.5h12q19 0 29 1t13.5 3t3 5.5t-0.5 8.5q-2 26 -3 65t-1 76v39v56.5t1 82.5q0 9 -9 12.5t-43 3.5h-12q-29 0 -38 -3
t-10 -11l-2 -15q-11 18 -30 27t-44 9zM255 449q0 -33 -9 -45t-30 -12q-26 0 -36.5 23t-10.5 63q0 90 50 90q22 0 36 -16v-103z" />
    <glyph glyph-name="onesuperior" unicode="&#xb9;" 
d="M102 478q-8 0 -11.5 -6.5t-3.5 -32.5v-12q0 -26 3.5 -32.5t11.5 -6.5h230q8 0 11.5 6.5t3.5 32.5v12q0 26 -3.5 32.5t-11.5 6.5h-44v296q0 8 -7 12t-27 4h-35q-17 0 -29 -3.5t-22 -8.5l-108 -58q-11 -6 -9 -13.5t16 -32.5l7 -12q8 -14 13 -21t9.5 -10t8.5 -2.5t9 3.5
l47 25v-179h-59z" />
    <glyph glyph-name="twosuperior" unicode="&#xb2;" 
d="M339 487q9 0 12.5 -7t3.5 -36v-13q0 -29 -3.5 -36t-12.5 -7h-258q-12 0 -15.5 8t-3.5 35v7q0 17 6.5 27.5t20.5 24.5l54 53q33 33 54.5 61t21.5 56q0 20 -10.5 31t-28.5 11q-25 0 -61 -23q-12 -8 -20.5 -4t-24.5 30l-3 5q-8 12 -11 19.5t-3 12.5t4 8.5t11 8.5
q32 21 65.5 31t68.5 10q60 0 101 -33.5t41 -96.5q0 -38 -21 -75t-70 -85l-24 -23h106z" />
    <glyph glyph-name="threesuperior" unicode="&#xb3;" 
d="M147 638q-5 0 -8.5 -0.5t-5.5 -4t-3 -12t-1 -24.5v-4q0 -16 1 -24.5t3 -12t5.5 -4t8.5 -0.5h22q37 0 47.5 -12.5t10.5 -26.5q0 -20 -13.5 -30t-36.5 -10q-34 0 -76 18q-11 5 -16.5 -1t-18.5 -35l-3 -7q-11 -25 -9.5 -33t10.5 -12q30 -13 63 -19t64 -6q79 0 123 37t44 97
q0 32 -16.5 56.5t-44.5 35.5q23 12 35 33t12 45q0 55 -38.5 86.5t-107.5 31.5q-34 0 -69 -9.5t-64 -28.5q-11 -8 -11 -16.5t14 -31.5l3 -5q15 -26 22 -29t18 4q16 10 33.5 16t34.5 6t27.5 -7.5t10.5 -22.5q0 -38 -53 -38h-17z" />
    <glyph glyph-name="grave" unicode="`" horiz-adv-x="368" 
d="M91 792q-35 0 -42 -8t3 -21l125 -157q6 -8 16.5 -11t35.5 -3h37q29 0 37.5 6t-1.5 21l-103 158q-3 5 -6.5 8t-9.5 4.5t-16.5 2t-28.5 0.5h-47z" />
    <glyph glyph-name="acute" unicode="&#xb4;" horiz-adv-x="368" 
d="M230 792q-18 0 -28.5 -0.5t-16.5 -2t-9.5 -4.5t-6.5 -8l-103 -158q-10 -15 -1.5 -21t37.5 -6h37q25 0 35.5 3t16.5 11l125 157q5 6 7 11.5t-1.5 9.5t-14 6t-30.5 2h-47z" />
    <glyph glyph-name="dieresis" unicode="&#xa8;" horiz-adv-x="368" 
d="M-10 679q0 -35 23.5 -58t62.5 -23q36 0 60.5 23t24.5 58t-24.5 58.5t-60.5 23.5q-39 0 -62.5 -23.5t-23.5 -58.5zM207 679q0 -35 23.5 -58t62.5 -23q36 0 60.5 23t24.5 58t-24.5 58.5t-60.5 23.5q-39 0 -62.5 -23.5t-23.5 -58.5z" />
    <glyph glyph-name="circumflex" unicode="&#x2c6;" horiz-adv-x="368" 
d="M184 678l89 -77q9 -8 19 -5.5t31 23.5l10 10q17 17 20.5 25.5t-3.5 15.5l-88 92q-7 7 -12.5 11t-13 6t-18.5 3t-28 1h-12q-17 0 -28 -1t-18.5 -3t-13 -6t-12.5 -11l-88 -92q-7 -7 -3.5 -15.5t20.5 -25.5l10 -10q21 -21 31 -23.5t19 5.5z" />
    <glyph glyph-name="tilde" unicode="&#x2dc;" horiz-adv-x="368" 
d="M26 637q23 -23 33 -26t18 5q11 14 22.5 23t25.5 9q12 0 23 -4.5t28 -13.5q15 -8 33.5 -13t38.5 -5q31 0 61 17t56 49q9 11 3.5 18.5t-22.5 25.5l-6 6q-22 22 -29.5 24.5t-15.5 -5.5q-14 -13 -26.5 -21.5t-25.5 -8.5q-14 0 -24.5 5t-23.5 11q-14 7 -31 12.5t-41 5.5
q-38 0 -70 -21t-51 -47q-6 -8 -3 -15.5t23 -26.5z" />
    <glyph glyph-name="macron" unicode="&#xaf;" horiz-adv-x="368" 
d="M43 735q-8 0 -11 -10t-3 -41v-7q0 -30 3 -40.5t11 -10.5h280q7 0 11 10.5t4 40.5v7q0 31 -4 41t-11 10h-280z" />
    <glyph glyph-name="breve" unicode="&#x2d8;" horiz-adv-x="368" 
d="M73 762q-34 0 -44.5 -3.5t-9.5 -17.5q3 -69 46.5 -107t118.5 -38t118.5 38t46.5 107q1 14 -9 17.5t-44 3.5h-14q-30 0 -40 -5t-11 -13q-2 -26 -14.5 -37.5t-32.5 -11.5t-32 11.5t-14 37.5q-1 8 -10.5 13t-40.5 5h-14z" />
    <glyph glyph-name="dotaccent" unicode="&#x2d9;" horiz-adv-x="368" 
d="M100 691q0 -35 24 -58t60 -23q35 0 59 23t24 58t-24 58t-59 23q-36 0 -60 -23t-24 -58z" />
    <glyph glyph-name="ring" unicode="&#x2da;" horiz-adv-x="368" 
d="M61 701q0 -24 9.5 -45t26.5 -37t39 -25.5t48 -9.5q25 0 47.5 9t39.5 25t26.5 37.5t9.5 45.5t-9.5 45.5t-26.5 37.5t-39.5 25t-47.5 9q-26 0 -48 -9.5t-39 -25.5t-26.5 -37t-9.5 -45zM151 701q0 14 9.5 23.5t23.5 9.5t23 -9.5t9 -23.5t-9 -23.5t-23 -9.5t-23.5 9.5
t-9.5 23.5z" />
    <glyph glyph-name="cedilla" unicode="&#xb8;" horiz-adv-x="368" 
d="M144 23q-15 0 -23 -1t-12 -2.5t-5 -4t-1 -6.5l-18 -122q15 4 30.5 5.5t28.5 1.5q16 0 28.5 -4.5t12.5 -19.5q0 -28 -34 -28q-11 0 -25.5 2.5t-22.5 4.5q-9 2 -14 -2.5t-11 -27.5l-3 -11q-7 -24 -5 -29t10 -8q17 -6 38 -10t47 -4q35 0 60 9.5t41.5 25t24.5 36t8 42.5
q0 25 -9 42.5t-25 29t-36.5 16t-43.5 4.5l4 42q1 10 -4 14.5t-35 4.5h-6z" />
    <glyph glyph-name="hungarumlaut" unicode="&#x2dd;" horiz-adv-x="368" 
d="M116 791q-32 0 -43 -3t-16 -12l-89 -153q-15 -25 35 -25h32q23 0 33 3t16 11l113 152q11 14 3.5 20.5t-42.5 6.5h-42zM316 791q-32 0 -43 -3t-16 -12l-89 -153q-15 -25 35 -25h32q23 0 33 3t16 11l113 152q11 14 3.5 20.5t-42.5 6.5h-42z" />
    <glyph glyph-name="ogonek" unicode="&#x2db;" horiz-adv-x="368" 
d="M230 27q-32 0 -57 -10q-20 -7 -39 -21t-34 -33t-24.5 -42.5t-9.5 -50.5q0 -50 32.5 -83t101.5 -33q25 0 50.5 7t43.5 18q8 5 7.5 14t-8.5 32l-3 9q-9 26 -14 30.5t-13 1.5q-23 -10 -42 -10q-17 0 -24 9t-7 24q0 28 21 54t72 60q7 5 5.5 14.5t-15.5 9.5h-43z" />
    <glyph glyph-name="caron" unicode="&#x2c7;" horiz-adv-x="368" 
d="M92 776q-9 8 -19 5.5t-31 -23.5l-10 -10q-17 -17 -20.5 -25.5t3.5 -15.5l90 -95q7 -7 12.5 -11t13 -6.5t18.5 -3t28 -0.5h12q17 0 28 0.5t18.5 3t13 6.5t12.5 11l91 95q7 7 3.5 15.5t-20.5 25.5l-10 10q-21 21 -31 23.5t-19 -5.5l-92 -80z" />
    <glyph glyph-name="commaaccent" unicode="&#x326;" horiz-adv-x="368" 
d="M124 -320q14 -12 20.5 -12t12.5 5q49 40 78.5 92.5t29.5 100.5q0 40 -22 62.5t-55 22.5q-31 0 -50.5 -17t-19.5 -43q0 -14 5.5 -24t12 -19t12 -18t5.5 -21q0 -18 -12.5 -43.5t-35.5 -53.5q-4 -5 -1.5 -10.5t14.5 -16.5z" />
    <glyph glyph-name="grave.cap" horiz-adv-x="368" 
d="M91 984q-35 0 -42 -8t3 -21l125 -157q6 -8 16.5 -11t35.5 -3h37q29 0 37.5 6t-1.5 21l-103 158q-3 5 -6.5 8t-9.5 4.5t-16.5 2t-28.5 0.5h-47z" />
    <glyph glyph-name="acute.cap" horiz-adv-x="368" 
d="M230 984q-18 0 -28.5 -0.5t-16.5 -2t-9.5 -4.5t-6.5 -8l-103 -158q-10 -15 -1.5 -21t37.5 -6h37q25 0 35.5 3t16.5 11l125 157q5 6 7 11.5t-1.5 9.5t-14 6t-30.5 2h-47z" />
    <glyph glyph-name="dieresis.cap" horiz-adv-x="368" 
d="M-10 871q0 -35 23.5 -58t62.5 -23q36 0 60.5 23t24.5 58t-24.5 58.5t-60.5 23.5q-39 0 -62.5 -23.5t-23.5 -58.5zM207 871q0 -35 23.5 -58t62.5 -23q36 0 60.5 23t24.5 58t-24.5 58.5t-60.5 23.5q-39 0 -62.5 -23.5t-23.5 -58.5z" />
    <glyph glyph-name="circumflex.cap" horiz-adv-x="368" 
d="M184 870l89 -77q9 -8 19 -5.5t31 23.5l10 10q17 17 20.5 25.5t-3.5 15.5l-88 92q-7 7 -12.5 11t-13 6t-18.5 3t-28 1h-12q-17 0 -28 -1t-18.5 -3t-13 -6t-12.5 -11l-88 -92q-7 -7 -3.5 -15.5t20.5 -25.5l10 -10q21 -21 31 -23.5t19 5.5z" />
    <glyph glyph-name="tilde.cap" horiz-adv-x="368" 
d="M26 835q23 -23 33 -26t18 5q11 14 22.5 23t25.5 9q12 0 23 -4.5t28 -13.5q15 -8 33.5 -13t38.5 -5q31 0 61 17t56 49q9 11 3.5 18.5t-22.5 25.5l-6 6q-22 22 -29.5 24.5t-15.5 -5.5q-14 -13 -26.5 -21.5t-25.5 -8.5q-14 0 -24.5 5t-23.5 11q-14 7 -31 12.5t-41 5.5
q-38 0 -70 -21t-51 -47q-6 -8 -3 -15.5t23 -26.5z" />
    <glyph glyph-name="macron.cap" horiz-adv-x="368" 
d="M43 927q-8 0 -11 -10t-3 -41v-7q0 -30 3 -40.5t11 -10.5h280q7 0 11 10.5t4 40.5v7q0 31 -4 41t-11 10h-280z" />
    <glyph glyph-name="breve.cap" horiz-adv-x="368" 
d="M73 942q-34 0 -44.5 -3.5t-9.5 -17.5q3 -69 46.5 -107t118.5 -38t118.5 38t46.5 107q1 14 -9 17.5t-44 3.5h-14q-30 0 -40 -5t-11 -13q-2 -26 -14.5 -37.5t-32.5 -11.5t-32 11.5t-14 37.5q-1 8 -10.5 13t-40.5 5h-14z" />
    <glyph glyph-name="dotaccent.cap" horiz-adv-x="368" 
d="M100 854q0 -35 24 -58t60 -23q35 0 59 23t24 58t-24 58t-59 23q-36 0 -60 -23t-24 -58z" />
    <glyph glyph-name="ring.cap" horiz-adv-x="368" 
d="M61 871q0 -24 9.5 -45t26.5 -37t39 -25.5t48 -9.5q25 0 47.5 9t39.5 25t26.5 37.5t9.5 45.5t-9.5 45.5t-26.5 37.5t-39.5 25t-47.5 9q-26 0 -48 -9.5t-39 -25.5t-26.5 -37t-9.5 -45zM151 871q0 14 9.5 23.5t23.5 9.5t23 -9.5t9 -23.5t-9 -23.5t-23 -9.5t-23.5 9.5
t-9.5 23.5z" />
    <glyph glyph-name="hungarumlaut.cap" horiz-adv-x="368" 
d="M116 984q-32 0 -43 -3t-16 -12l-89 -153q-15 -25 35 -25h32q23 0 33 3t16 11l113 152q11 14 3.5 20.5t-42.5 6.5h-42zM316 984q-32 0 -43 -3t-16 -12l-89 -153q-15 -25 35 -25h32q23 0 33 3t16 11l113 152q11 14 3.5 20.5t-42.5 6.5h-42z" />
    <glyph glyph-name="caron.cap" horiz-adv-x="368" 
d="M92 966q-9 8 -19 5.5t-31 -23.5l-10 -10q-17 -17 -20.5 -25.5t3.5 -15.5l90 -95q7 -7 12.5 -11t13 -6.5t18.5 -3t28 -0.5h12q17 0 28 0.5t18.5 3t13 6.5t12.5 11l91 95q7 7 3.5 15.5t-20.5 25.5l-10 10q-21 21 -31 23.5t-19 -5.5l-92 -80z" />
    <glyph glyph-name="periodcentered.cap" horiz-adv-x="247" 
d="M31 364q0 -38 27.5 -63.5t65.5 -25.5t65 25.5t27 63.5t-27 63.5t-65 25.5t-65.5 -25.5t-27.5 -63.5z" />
    <glyph glyph-name="bullet.cap" horiz-adv-x="362" 
d="M181 513q-30 0 -56.5 -11.5t-46 -31t-30.5 -45.5t-11 -56q0 -29 11 -55t30.5 -46t46 -31.5t56.5 -11.5q31 0 57.5 11.5t45.5 31.5t30 46t11 55q0 30 -11 56t-30 45.5t-45.5 31t-57.5 11.5z" />
    <glyph glyph-name="parenleft.cap" horiz-adv-x="361" 
d="M51 360q0 -69 14.5 -138t40 -133t60 -118.5t73.5 -93.5q8 -8 20.5 -7.5t44.5 21.5l14 9q16 10 24.5 17.5t11.5 13t2 9.5t-4 9q-57 84 -90.5 189t-33.5 222t33.5 222t90.5 189q3 4 4 8.5t-2 10t-11.5 12.5t-24.5 18l-14 9q-32 21 -44.5 21.5t-20.5 -7.5
q-39 -39 -73.5 -93.5t-60 -118.5t-40 -133t-14.5 -138z" />
    <glyph glyph-name="parenright.cap" horiz-adv-x="361" 
d="M310 360q0 69 -14.5 138t-40 133t-60 118.5t-73.5 93.5q-8 8 -20.5 7.5t-44.5 -21.5l-14 -9q-17 -11 -25.5 -18t-11.5 -12.5t-1.5 -10t4.5 -8.5q57 -84 90.5 -189t33.5 -222t-33.5 -222t-90.5 -189q-3 -5 -4.5 -9t1.5 -9.5t11.5 -13t25.5 -17.5l14 -9q32 -21 44.5 -21.5
t20.5 7.5q39 39 73.5 93.5t60 118.5t40 133t14.5 138z" />
    <glyph glyph-name="bracketleft.cap" horiz-adv-x="355" 
d="M69 -118q0 -14 23 -14h235q13 0 15 9t2 41v10q0 33 -2 41.5t-15 8.5h-104v764h104q13 0 15 9t2 41v8q0 33 -2 42t-15 9h-235q-23 0 -23 -14v-955z" />
    <glyph glyph-name="bracketright.cap" horiz-adv-x="355" 
d="M286 837q0 14 -23 14h-235q-13 0 -15 -9t-2 -42v-8q0 -32 2 -41t15 -9h104v-764h-104q-13 0 -15 -8.5t-2 -41.5v-10q0 -32 2 -41t15 -9h235q23 0 23 14v955z" />
    <glyph glyph-name="braceleft.cap" horiz-adv-x="337" 
d="M265 851q-50 0 -84 -11.5t-55 -33.5t-30 -54.5t-9 -74.5v-196q0 -35 -12.5 -47t-32.5 -16q-16 -3 -19.5 -12.5t-3.5 -38.5v-19q0 -29 3.5 -38.5t19.5 -12.5q20 -4 32.5 -16t12.5 -47v-191q0 -43 9 -75.5t30 -54.5t55 -33.5t84 -11.5h46q11 0 13 9t2 41v12q0 33 -2.5 41.5
t-14.5 8.5h-31q-22 0 -29.5 13t-7.5 40v190q0 48 -15 80.5t-51 54.5q36 22 51 54t15 81v192q0 28 7.5 41t29.5 13h33q11 0 13 9t2 41v12q0 33 -2 41.5t-13 8.5h-46z" />
    <glyph glyph-name="braceright.cap" horiz-adv-x="337" 
d="M26 851q-11 0 -13 -8.5t-2 -41.5v-12q0 -32 2 -41t13 -9h33q22 0 29.5 -13t7.5 -41v-192q0 -49 15 -81t51 -54q-36 -22 -51 -54.5t-15 -80.5v-190q0 -27 -7.5 -40t-29.5 -13h-31q-12 0 -14.5 -8.5t-2.5 -41.5v-12q0 -32 2 -41t13 -9h46q50 0 84 11.5t55 33.5t30 54.5
t9 75.5v191q0 35 12.5 47t32.5 16q16 3 19.5 12.5t3.5 38.5v19q0 29 -3.5 38.5t-19.5 12.5q-20 4 -32.5 16t-12.5 47v196q0 42 -9 74.5t-30 54.5t-55 33.5t-84 11.5h-46z" />
    <glyph glyph-name="questiondown.cap" horiz-adv-x="462" 
d="M410 124q-14 27 -24 32.5t-24 -3.5q-22 -14 -46.5 -24t-49.5 -10q-33 0 -49.5 17.5t-16.5 44.5q0 33 19.5 60.5t41.5 48.5q16 15 32 32.5t29.5 38.5t22 46.5t8.5 57.5v4q0 14 -13 17.5t-52 3.5h-19q-42 0 -53.5 -4.5t-11.5 -15.5q0 -33 -21 -57.5t-47 -48.5
q-18 -17 -36.5 -36t-33 -42.5t-24 -51t-9.5 -61.5q0 -43 16 -77t44.5 -57.5t68.5 -36t88 -12.5q54 0 99.5 15.5t77.5 39.5q11 8 9.5 19.5t-13.5 34.5zM372 642q0 18 -7.5 34t-20 28t-29.5 19t-35 7q-38 0 -65 -25.5t-27 -62.5q0 -38 27 -63.5t65 -25.5q37 0 64.5 25.5
t27.5 63.5z" />
    <glyph glyph-name="exclamdown.cap" horiz-adv-x="306" 
d="M156 0q26 0 42 1t24.5 4t11 7.5t2.5 11.5l-15 440q-1 12 -12.5 15.5t-46.5 3.5h-21q-34 0 -46 -4t-13 -15l-18 -440q0 -7 2.5 -11.5t11.5 -7.5t25 -4t42 -1h11zM61 642q0 -38 27.5 -63.5t64.5 -25.5q38 0 65 25.5t27 63.5q0 37 -27 62.5t-65 25.5q-18 0 -35 -7t-29.5 -19
t-20 -28t-7.5 -34z" />
    <glyph glyph-name="guillemotleft.cap" horiz-adv-x="571" 
d="M496 567q27 -16 34 -26t0 -21l-101 -160l101 -162q7 -11 1 -21t-36 -28l-15 -9q-28 -17 -41 -17t-22 13l-127 183q-7 10 -10 18t-3 19v6q0 11 3 19t10 18l127 183q4 6 8.5 9t11.5 3t17.5 -4.5t26.5 -13.5zM258 567q27 -16 34 -26t0 -21l-101 -160l101 -162q7 -11 1 -21
t-36 -28l-15 -9q-28 -17 -41 -17t-22 13l-127 183q-7 10 -10 18t-3 19v6q0 11 3 19t10 18l127 183q4 6 8.5 9t11.5 3t17.5 -4.5t26.5 -13.5z" />
    <glyph glyph-name="guillemotright.cap" horiz-adv-x="571" 
d="M90 576q31 18 43.5 18t20.5 -12l127 -183q7 -10 10 -18t3 -19v-6q0 -11 -3 -19t-10 -18l-127 -183q-9 -13 -22 -13t-41 17l-15 9q-30 18 -36 28t1 21l101 162l-101 160q-7 11 0 21t34 26zM328 576q31 18 43.5 18t20.5 -12l127 -183q7 -10 10 -18t3 -19v-6q0 -11 -3 -19
t-10 -18l-127 -183q-9 -13 -22 -13t-41 17l-15 9q-30 18 -36 28t1 21l101 162l-101 160q-7 11 0 21t34 26z" />
    <glyph glyph-name="guilsinglleft.cap" horiz-adv-x="337" 
d="M260 567q27 -16 34 -26t0 -21l-101 -160l101 -162q7 -11 1 -21t-36 -28l-15 -9q-28 -17 -41 -17t-22 13l-127 183q-7 10 -10 18t-3 19v6q0 11 3 19t10 18l127 183q4 6 8.5 9t11.5 3t17.5 -4.5t26.5 -13.5z" />
    <glyph glyph-name="guilsinglright.cap" horiz-adv-x="337" 
d="M92 576q31 18 43.5 18t20.5 -12l127 -183q7 -10 10 -18t3 -19v-6q0 -11 -3 -19t-10 -18l-127 -183q-9 -13 -22 -13t-41 17l-15 9q-30 18 -36 28t1 21l101 162l-101 160q-7 11 0 21t34 26z" />
    <glyph glyph-name="hyphen.cap" horiz-adv-x="399" 
d="M51 424q-11 0 -15.5 -10.5t-4.5 -47.5v-9q0 -37 4 -48t16 -11h298q9 0 14 11t5 48v9q0 37 -5 47.5t-14 10.5h-298z" />
    <glyph glyph-name="uni00AD.cap" horiz-adv-x="399" 
d="M51 424q-11 0 -15.5 -10.5t-4.5 -47.5v-9q0 -37 4 -48t16 -11h298q9 0 14 11t5 48v9q0 37 -5 47.5t-14 10.5h-298z" />
    <glyph glyph-name="endash.cap" horiz-adv-x="500" 
d="M480 305q6 0 10 1.5t6 7t3 16.5t1 31v6q0 20 -1 31.5t-3 17t-6 7t-10 1.5h-460q-6 0 -10 -1.5t-6 -7t-3 -17t-1 -31.5v-6q0 -20 1 -31t3 -16.5t6 -7t10 -1.5h460z" />
    <glyph glyph-name="emdash.cap" horiz-adv-x="1000" 
d="M980 305q6 0 10 1.5t6 7t3 16.5t1 31v6q0 20 -1 31.5t-3 17t-6 7t-10 1.5h-960q-6 0 -10 -1.5t-6 -7t-3 -17t-1 -31.5v-6q0 -20 1 -31t3 -16.5t6 -7t10 -1.5h960z" />
    <glyph glyph-name="afii00208.cap" horiz-adv-x="1000" 
d="M980 224q6 0 10 1.5t6 7t3 16.5t1 31v6q0 20 -1 31.5t-3 17t-6 7t-10 1.5h-960q-6 0 -10 -1.5t-6 -7t-3 -17t-1 -31.5v-6q0 -20 1 -31t3 -16.5t6 -7t10 -1.5h960z" />
    <glyph glyph-name="zero.slash" horiz-adv-x="588" 
d="M301 730q-132 0 -203.5 -98t-71.5 -284q0 -179 68.5 -268.5t190.5 -89.5q133 0 205 98t72 285q0 178 -69.5 267.5t-191.5 89.5zM298 602q30 0 50 -24l-143 -349q-9 51 -9 125q0 118 24 183t78 65zM392 366q0 -118 -24.5 -183t-78.5 -65q-28 0 -49 22l143 347
q9 -50 9 -121z" />
    <glyph glyph-name="zero" unicode="0" horiz-adv-x="588" 
d="M298 602q47 0 70.5 -57.5t23.5 -178.5q0 -118 -24.5 -183t-78.5 -65q-47 0 -70 57.5t-23 178.5q0 118 24 183t78 65zM301 730q-132 0 -203.5 -98t-71.5 -284q0 -179 68.5 -268.5t190.5 -89.5q133 0 205 98t72 285q0 178 -69.5 267.5t-191.5 89.5z" />
    <glyph glyph-name="one" unicode="1" horiz-adv-x="588" 
d="M79 623q-14 -6 -13.5 -17t14.5 -43l6 -13q15 -33 24 -39t23 0l103 45v-436h-116q-5 0 -9 -1.5t-6 -7t-3 -16.5t-1 -30v-10q0 -37 4 -46t15 -9h387q9 0 12 9t3 46v10q0 37 -3.5 46t-11.5 9h-107v578q0 13 -8.5 17.5t-41.5 4.5h-24q-19 0 -37 -3.5t-44 -15.5z" />
    <glyph glyph-name="two" unicode="2" horiz-adv-x="588" 
d="M102 588q15 -26 24.5 -30.5t20.5 2.5q29 18 57.5 30t56.5 12q40 0 63.5 -20t23.5 -65q0 -21 -6.5 -43.5t-21.5 -50.5t-40 -63t-62 -80l-130 -159q-8 -10 -12.5 -18t-7 -15.5t-3 -15.5t-0.5 -18v-32q0 -7 1.5 -11.5t7.5 -6.5t17 -3t30 -1h378q6 0 9.5 1.5t5.5 7t3 16.5
t1 29v19q0 37 -3 46.5t-16 9.5h-234l52 58q56 63 94 111.5t61 89t32.5 76t9.5 73.5q0 42 -14 77.5t-42 61t-70.5 40t-99.5 14.5t-111 -18t-94 -44q-13 -8 -11 -20t16 -36z" />
    <glyph glyph-name="three" unicode="3" horiz-adv-x="588" 
d="M118 610q15 -30 23.5 -36t19.5 0q27 15 53 23.5t50 8.5q35 0 55.5 -19.5t20.5 -57.5q0 -49 -26 -70q-28 -25 -96 -25h-30q-11 0 -14.5 -9t-3.5 -46v-9q0 -19 0.5 -30t2.5 -16.5t5.5 -7t9.5 -1.5h26q45 0 71.5 -7.5t44.5 -23.5q13 -11 19.5 -28t6.5 -43q0 -50 -27 -74
t-75 -24q-32 0 -68 11.5t-65 28.5q-14 8 -22 1t-23 -38l-9 -18q-13 -25 -15 -35.5t7 -16.5q36 -23 91 -40.5t112 -17.5q65 0 118 18.5t85 51.5q28 30 43.5 69t15.5 85q0 66 -33 108.5t-87 62.5q51 23 75.5 63.5t24.5 91.5q0 89 -59 139.5t-164 50.5q-47 0 -94 -13.5
t-82 -34.5q-11 -7 -10 -18t15 -38z" />
    <glyph glyph-name="four" unicode="4" horiz-adv-x="588" 
d="M288 720q-23 0 -37 -1t-22.5 -3t-12.5 -5.5t-6 -9.5l-173 -424q-6 -14 -7.5 -26t-1.5 -30v-43q0 -8 1.5 -12.5t7.5 -6.5t17 -3t30 -1h221v-133q0 -6 3 -10.5t11 -7t23.5 -3.5t40.5 -1h5q47 0 63 4.5t16 17.5v133h69q9 0 12.5 9t3.5 48v14q0 19 -0.5 30.5t-2.5 17t-5 7
t-8 1.5h-69v107q0 13 -16 17.5t-63 4.5h-5q-25 0 -40.5 -1t-23.5 -3.5t-11 -6.5t-3 -11v-107h-104l169 413q3 6 1.5 11t-9 8t-23 4.5t-41.5 1.5h-10z" />
    <glyph glyph-name="five" unicode="5" horiz-adv-x="588" 
d="M154 720q-38 0 -48.5 -4t-10.5 -18v-337q0 -18 11 -23.5t30 -0.5q20 5 46 8t51 3q119 0 119 -115q0 -57 -26.5 -87.5t-80.5 -30.5q-35 0 -69.5 12t-60.5 28q-5 3 -9 3.5t-8.5 -3t-10 -12.5t-14.5 -25l-9 -17q-16 -30 -14.5 -41t10.5 -17q16 -11 38 -20.5t46.5 -16.5
t51.5 -11.5t54 -4.5q131 0 203 75q31 32 48.5 76t17.5 98q0 113 -65.5 170t-179.5 57h-27v125h223q6 0 9.5 1.5t5.5 7.5t2.5 17t0.5 30v18q0 19 -0.5 30t-2.5 16.5t-5.5 7t-9.5 1.5h-316z" />
    <glyph glyph-name="six" unicode="6" horiz-adv-x="588" 
d="M490 638q11 21 14 31t-7 18q-25 19 -64 31t-84 12q-69 0 -123.5 -30.5t-92.5 -86t-58 -133.5t-20 -172q0 -71 14 -129.5t44 -100.5t77 -65t112 -23q57 0 103.5 21t79 56.5t50 81.5t17.5 97q0 49 -14 89t-41 68.5t-65.5 44t-86.5 15.5q-30 0 -61 -10t-55 -25q5 47 17.5 84
t28.5 57q16 19 34 28.5t45 9.5q43 0 85 -23q10 -5 17 -0.5t21 30.5zM222 313q20 12 42.5 20t42.5 8q82 0 82 -102q0 -55 -22 -89.5t-60 -34.5q-41 0 -63 46.5t-22 141.5v10z" />
    <glyph glyph-name="seven" unicode="7" horiz-adv-x="588" 
d="M81 720q-7 0 -11 -1.5t-6 -7t-2.5 -16.5t-0.5 -30v-18q0 -19 0.5 -30t2.5 -17t6 -7.5t11 -1.5h277l-247 -566q-7 -15 6 -20t55 -5h35q22 0 36 1t21.5 3t11 5.5t5.5 9.5l230 562q11 26 15 41.5t4 29.5v41q0 16 -9.5 21.5t-46.5 5.5h-393z" />
    <glyph glyph-name="eight" unicode="8" horiz-adv-x="588" 
d="M47 188q0 -49 19 -86t52.5 -62t79 -37.5t97.5 -12.5q54 0 100.5 13.5t81.5 40t55 66.5t20 93q0 66 -31 110.5t-91 77.5q45 26 73 64.5t28 92.5q0 43 -16 77t-44.5 57t-68.5 35.5t-88 12.5q-53 0 -95 -15t-72 -42t-46 -63t-16 -78q0 -57 22.5 -97t60.5 -69
q-53 -27 -87 -74t-34 -104zM269 305q25 -11 46.5 -22t37.5 -23.5t25 -28t9 -36.5q0 -36 -22.5 -57.5t-64.5 -21.5q-38 0 -63 21t-25 60q0 63 57 108zM244 541q0 31 19 49.5t47 18.5q29 0 47 -17.5t18 -49.5q0 -30 -13 -52.5t-40 -45.5q-43 21 -60.5 43.5t-17.5 53.5z" />
    <glyph glyph-name="nine" unicode="9" horiz-adv-x="588" 
d="M95 84q-14 -26 -13.5 -34.5t11.5 -16.5q28 -19 68.5 -31t92.5 -12q66 0 117.5 25t86.5 72q42 57 64 137.5t22 182.5q0 69 -13 128t-43 102.5t-78.5 68t-120.5 24.5q-58 0 -103.5 -21t-76.5 -55.5t-47 -80.5t-16 -95q0 -47 15.5 -85.5t43 -66t66.5 -43t87 -15.5q32 0 60 7
t54 24q-4 -39 -12.5 -70.5t-19.5 -53.5q-16 -29 -40 -45t-59 -16q-27 0 -50 7t-43 18q-11 6 -18.5 2t-21.5 -32zM295 391q-42 0 -63 26.5t-21 75.5q0 51 23 82t56 31q45 0 66.5 -45t20.5 -148q-39 -22 -82 -22z" />
    <glyph glyph-name="dollar" unicode="$" horiz-adv-x="588" 
d="M313 834q-27 0 -42.5 -1t-23 -4t-9.5 -7t-2 -10v-94q-33 -8 -61.5 -25.5t-49.5 -42.5t-33 -57.5t-12 -71.5q0 -69 42 -118.5t137 -94.5q31 -15 51.5 -27.5t33 -25.5t17.5 -27.5t5 -32.5q0 -72 -92 -72q-33 0 -70 15t-70 39q-15 11 -26.5 3t-26.5 -37l-12 -23
q-14 -28 -15.5 -39t11.5 -22q50 -42 135 -60v-90q0 -6 1.5 -10.5t9 -7.5t23 -4t42.5 -1h3q27 0 42.5 1t23 4t9 7.5t1.5 10.5v89q90 17 135 73t45 138q0 47 -16 81.5t-42.5 60.5t-60 45.5t-69.5 36.5q-56 27 -77 48.5t-21 49.5q0 31 21 50t56 19q29 0 54.5 -10t57.5 -29
q17 -11 28 -6.5t28 40.5l9 19q14 29 15 41t-15 23q-23 17 -52.5 28t-59.5 17v89q0 6 -1.5 10t-9 7t-22.5 4t-42 1h-3z" />
    <glyph glyph-name="cent" unicode="&#xa2;" horiz-adv-x="588" 
d="M409 0q29 7 53.5 17.5t41.5 22.5q11 7 11 16.5t-11 38.5l-6 15q-14 34 -22.5 40.5t-26.5 -2.5q-27 -14 -51.5 -20.5t-53.5 -6.5q-57 0 -84.5 38t-27.5 108q0 37 8.5 63.5t23 43.5t34 25t41.5 8q31 0 53.5 -8t54.5 -29q13 -8 23 -3t26 37l9 18q13 26 17 37t-7 20
q-20 17 -47 30t-59 21v95q0 6 -1.5 10.5t-8.5 6.5t-22 3t-41 1h-6q-27 0 -42.5 -1t-22.5 -3t-8.5 -6.5t-1.5 -10.5v-97q-73 -18 -115 -61q-36 -38 -55 -90.5t-19 -116.5q0 -66 21 -119.5t60 -90.5q41 -38 108 -53v-94q0 -6 1.5 -10.5t8.5 -6.5t22.5 -3t42.5 -1h6q26 0 41 1
t22 3t8.5 6.5t1.5 10.5v97z" />
    <glyph glyph-name="Euro" unicode="&#x20ac;" horiz-adv-x="588" 
d="M419 230q11 0 14 7.5t3 41.5v4q0 36 -3 43.5t-14 7.5h-166v43h167q6 0 9 1t5 6t2.5 14.5t0.5 26.5v4q0 36 -3 43.5t-14 7.5h-153q15 57 47 88t79 31q32 0 55 -7.5t50 -24.5q7 -4 12.5 -6t12 1t13.5 11.5t17 26.5l10 18q18 32 18 41.5t-9 15.5q-42 28 -86.5 41.5
t-105.5 13.5q-58 0 -105 -17.5t-83 -50.5t-60.5 -79t-36.5 -103h-62q-11 0 -14 -7.5t-3 -43.5v-4q0 -17 0.5 -26.5t2.5 -14.5t5 -6t9 -1h49v-43h-48q-11 0 -14 -7.5t-3 -43.5v-4q0 -34 3 -41.5t14 -7.5h58q23 -113 91 -176.5t188 -63.5q57 0 102.5 13t92.5 41q12 7 12.5 17
t-13.5 40l-9 19q-14 29 -21.5 33.5t-18.5 -0.5q-32 -16 -59.5 -23.5t-63.5 -7.5q-53 0 -84 31.5t-42 76.5h152z" />
    <glyph glyph-name="florin" unicode="&#x192;" horiz-adv-x="588" 
d="M164 457q-5 0 -8.5 -1.5t-6 -7t-4.5 -16.5t-5 -30l-1 -7q-5 -39 -2.5 -48t14.5 -9h62l-31 -224q-8 -57 -25 -78t-54 -21q-11 0 -25 2t-30 7q-13 4 -19.5 -4t-16.5 -45l-2 -7q-9 -32 -9.5 -44t11.5 -17q20 -7 47.5 -12t53.5 -5q109 0 164 57.5t69 161.5l29 229h103
q6 0 9.5 1t6.5 6.5t5.5 16.5t5.5 31l1 7q3 20 4 31.5t-0.5 17t-6 7t-11.5 1.5h-100l6 49q7 56 25.5 78t55.5 22q30 0 60 -8q6 -2 10 -1.5t7.5 5t7.5 14t9 26.5l5 16q10 32 8.5 42.5t-13.5 14.5q-20 6 -46.5 10.5t-56.5 4.5q-107 0 -163.5 -53t-70.5 -165l-7 -55h-65z" />
    <glyph glyph-name="sterling" unicode="&#xa3;" horiz-adv-x="588" 
d="M84 431q-5 0 -8 -1t-5 -6.5t-3 -17t-1 -31.5v-7q0 -21 1 -32t3 -16.5t5 -6.5t8 -1h62v-41q0 -60 -10.5 -95t-43.5 -53q-14 -8 -19 -20t-5 -40v-8q0 -20 1 -31.5t4 -16.5t7.5 -6t12.5 -1h422q7 0 11 2t6.5 8.5t3 18.5t0.5 32v7q0 21 -0.5 33t-3 18t-6.5 7t-11 1h-244
q23 24 32 63t9 86v36h150q4 0 7 1t5.5 6.5t3.5 16.5t1 32v7q0 20 -0.5 31.5t-2.5 17t-5.5 6.5t-8.5 1h-149v61q0 53 18 83t63 30q21 0 39 -4.5t36 -12.5q14 -6 22 0t20 37l7 18q10 26 10 37.5t-14 19.5q-26 14 -62.5 22t-76.5 8q-59 0 -102 -18t-71.5 -50.5t-42 -78
t-13.5 -101.5v-51h-62z" />
    <glyph glyph-name="yen" unicode="&#xa5;" horiz-adv-x="588" 
d="M486 231q15 0 19 7.5t4 41.5v7q0 33 -4 40.5t-19 7.5h-81l180 358q7 14 -6 20.5t-62 6.5h-22q-23 0 -37 -1t-22 -3.5t-11.5 -6t-6.5 -8.5l-63 -136q-13 -27 -26 -61.5t-25 -75.5q-12 41 -26 75.5t-28 61.5l-66 135q-5 11 -22 15.5t-63 4.5h-22q-28 0 -44.5 -1.5t-24 -5
t-8 -9t2.5 -12.5l177 -357h-80q-15 0 -19 -7.5t-4 -40.5v-7q0 -34 4 -41.5t19 -7.5h108v-28h-108q-15 0 -19 -7.5t-4 -40.5v-7q0 -34 4 -41.5t19 -7.5h108v-77q0 -6 3 -10.5t11.5 -7t24 -3.5t40.5 -1h10q47 0 64 4.5t17 17.5v77h108q15 0 19 7.5t4 41.5v7q0 33 -4 40.5
t-19 7.5h-108v28h108z" />
    <glyph glyph-name="numbersign" unicode="#" horiz-adv-x="601" 
d="M255 720q-32 0 -39 -3t-9 -8l-36 -173h-81q-5 0 -8.5 -0.5t-5.5 -5t-3 -14.5t-1 -30v-3q0 -19 1 -30t3 -16.5t5.5 -7t8.5 -1.5h59l-27 -132h-82q-5 0 -8.5 -0.5t-5.5 -5t-3 -14.5t-1 -30v-3q0 -19 1 -30t3 -16.5t5.5 -7t8.5 -1.5h60l-36 -177q-1 -5 6.5 -8t39.5 -3h21
q32 0 39 3t9 8l37 177h99l-36 -177q-1 -5 6.5 -8t39.5 -3h21q32 0 39 3t9 8l37 177h81q5 0 8.5 1.5t5.5 7t3 16.5t1 30v3q0 20 -1 30t-3 14.5t-5.5 5t-8.5 0.5h-58l27 132h81q5 0 8.5 1.5t5.5 7t3 16.5t1 30v3q0 20 -1 30t-3 14.5t-5.5 5t-8.5 0.5h-60l35 173q1 5 -6.5 8
t-39.5 3h-21q-32 0 -39 -3t-9 -8l-36 -173h-99l35 173q1 5 -6.5 8t-39.5 3h-21zM265 428h99l-27 -132h-99z" />
    <glyph glyph-name="percent" unicode="%" horiz-adv-x="981" 
d="M239 630q23 0 35.5 -23t12.5 -79q0 -109 -53 -109q-24 0 -36 24t-12 80q0 107 53 107zM240 730q-84 0 -136.5 -53t-52.5 -157q0 -50 14 -88t38 -63t57.5 -37.5t72.5 -12.5q41 0 75.5 13.5t60 40.5t39.5 66.5t14 92.5q0 50 -13.5 87.5t-38 62t-58 36.5t-72.5 12zM712 720
q-21 0 -35 -1t-23 -3t-14 -6t-9 -10l-429 -672q-10 -15 1.5 -21.5t56.5 -6.5h6q40 0 57 3.5t25 16.5l428 672q5 8 6.5 13.5t-4.5 8.5t-21 4.5t-43 1.5h-2zM747 301q23 0 35.5 -23t12.5 -79q0 -109 -53 -109q-24 0 -36 24t-12 80q0 107 53 107zM748 401q-84 0 -136.5 -53
t-52.5 -157q0 -50 14 -88t38 -63t57.5 -37.5t72.5 -12.5q41 0 75.5 13.5t60 40.5t39.5 66.5t14 92.5q0 50 -13.5 87.5t-38 62t-58 36.5t-72.5 12z" />
    <glyph glyph-name="perthousand" unicode="&#x2030;" horiz-adv-x="1394" 
d="M239 630q23 0 35.5 -23t12.5 -79q0 -109 -53 -109q-24 0 -36 24t-12 80q0 107 53 107zM240 730q-84 0 -136.5 -53t-52.5 -157q0 -50 14 -88t38 -63t57.5 -37.5t72.5 -12.5q41 0 75.5 13.5t60 40.5t39.5 66.5t14 92.5q0 50 -13.5 87.5t-38 62t-58 36.5t-72.5 12zM712 720
q-21 0 -35 -1t-23 -3t-14 -6t-9 -10l-429 -672q-10 -15 1.5 -21.5t56.5 -6.5h6q40 0 57 3.5t25 16.5l428 672q5 8 6.5 13.5t-4.5 8.5t-21 4.5t-43 1.5h-2zM747 301q23 0 35.5 -23t12.5 -79q0 -109 -53 -109q-24 0 -36 24t-12 80q0 107 53 107zM748 401q-84 0 -136.5 -53
t-52.5 -157q0 -50 14 -88t38 -63t57.5 -37.5t72.5 -12.5q41 0 75.5 13.5t60 40.5t39.5 66.5t14 92.5q0 50 -13.5 87.5t-38 62t-58 36.5t-72.5 12zM1160 301q23 0 35.5 -23t12.5 -79q0 -109 -53 -109q-24 0 -36 24t-12 80q0 107 53 107zM1161 401q-84 0 -136.5 -53
t-52.5 -157q0 -50 14 -88t38 -63t57.5 -37.5t72.5 -12.5q41 0 75.5 13.5t60 40.5t39.5 66.5t14 92.5q0 50 -13.5 87.5t-38 62t-58 36.5t-72.5 12z" />
    <glyph glyph-name="plus" unicode="+" horiz-adv-x="588" 
d="M526 282q5 0 8.5 2t5.5 8t3 17t1 30v13q0 37 -4 47t-14 10h-162v164q0 11 -11 16t-53 5h-13q-41 0 -52 -5t-11 -16v-164h-162q-11 0 -14.5 -10t-3.5 -47v-13q0 -19 1 -30t3 -17t5.5 -8t8.5 -2h162v-160q0 -11 11 -16t52 -5h13q42 0 53 5t11 16v160h162z" />
    <glyph glyph-name="minus" unicode="&#x2212;" horiz-adv-x="588" 
d="M526 282q5 0 8.5 2t5.5 8t3 17t1 30v13q0 37 -4 47t-14 10h-464q-11 0 -14.5 -10t-3.5 -47v-13q0 -19 1 -30t3 -17t5.5 -8t8.5 -2h464z" />
    <glyph glyph-name="multiply" unicode="&#xd7;" horiz-adv-x="588" 
d="M119 523q15 15 24.5 23.5t16.5 11t12 0t11 -8.5l110 -109l111 112q12 12 24 8t41 -33l10 -10q27 -27 30 -37t-5 -18l-117 -117l115 -115q4 -5 6 -8.5t0 -9.5t-10 -15t-23 -24l-10 -10q-15 -15 -24.5 -22.5t-16.5 -9.5t-11.5 0.5t-10.5 8.5l-109 110l-110 -109
q-6 -6 -11 -8.5t-12 0t-17 10.5t-25 23l-10 10q-26 26 -29.5 36.5t4.5 18.5l115 114l-115 114q-9 9 -5 18t31 36z" />
    <glyph glyph-name="less" unicode="&#x3c;" horiz-adv-x="588" 
d="M461 634q12 7 21 0.5t29 -42.5l4 -7q17 -30 20.5 -42.5t-5.5 -17.5l-306 -179l300 -176q10 -6 7.5 -18.5t-19.5 -43.5l-4 -7q-20 -36 -31 -41.5t-22 1.5l-384 226q-12 7 -15 17.5t-3 36.5v9q0 25 3 36t15 18z" />
    <glyph glyph-name="divide" unicode="&#xf7;" horiz-adv-x="588" 
d="M527 282q7 0 11 2t6 8t2.5 17t0.5 30v13q0 37 -3.5 47t-16.5 10h-466q-7 0 -11 -2t-6 -8t-2.5 -17t-0.5 -30v-13q0 -19 0.5 -30t2.5 -17t6 -8t11 -2h466zM207 129q0 -38 27.5 -63.5t65.5 -25.5t65 25.5t27 63.5t-27 63.5t-65 25.5t-65.5 -25.5t-27.5 -63.5zM207 567
q0 -38 27.5 -63.5t65.5 -25.5t65 25.5t27 63.5t-27 63.5t-65 25.5t-65.5 -25.5t-27.5 -63.5z" />
    <glyph glyph-name="equal" unicode="=" horiz-adv-x="588" 
d="M504 397q7 0 11 2t6 8t2.5 17t0.5 30v13q0 37 -3.5 47t-16.5 10h-420q-7 0 -11 -2t-6 -8t-2.5 -17t-0.5 -30v-13q0 -19 0.5 -30t2.5 -17t6 -8t11 -2h420zM504 166q7 0 11 2t6 8t2.5 17t0.5 30v13q0 37 -3.5 47t-16.5 10h-420q-7 0 -11 -2t-6 -8t-2.5 -17t-0.5 -30v-13
q0 -19 0.5 -30t2.5 -17t6 -8t11 -2h420z" />
    <glyph glyph-name="logicalnot" unicode="&#xac;" horiz-adv-x="588" 
d="M88 524q-13 0 -17.5 -9.5t-4.5 -46.5v-14q0 -37 4.5 -46.5t17.5 -9.5h304v-206q0 -11 11 -16t52 -5h13q42 0 53 5t11 16v316q0 11 -5 13.5t-20 2.5h-419z" />
    <glyph glyph-name="greater" unicode="&#x3e;" horiz-adv-x="588" 
d="M516 407q12 -7 15 -18t3 -36v-9q0 -26 -3 -36.5t-15 -17.5l-384 -226q-11 -7 -22 -1.5t-31 41.5l-4 7q-17 31 -19.5 43.5t7.5 18.5l300 176l-306 179q-9 5 -5.5 17.5t20.5 42.5l4 7q20 36 29 42.5t21 -0.5z" />
    <glyph glyph-name="notequal" unicode="&#x2260;" horiz-adv-x="588" 
d="M504 166q7 0 11 2t6 8t2.5 17t0.5 30v13q0 37 -3.5 47t-16.5 10h-177l52 104h125q7 0 11 2t6 8t2.5 17t0.5 30v13q0 37 -3.5 47t-16.5 10h-62l46 91q6 13 -5 19.5t-51 6.5h-8q-18 0 -29.5 -1t-18 -3t-9.5 -5t-6 -8l-50 -100h-227q-7 0 -11 -2t-6 -8t-2.5 -17t-0.5 -30
v-13q0 -19 0.5 -30t2.5 -17t6 -8t11 -2h164l-52 -104h-112q-7 0 -11 -2t-6 -8t-2.5 -17t-0.5 -30v-13q0 -19 0.5 -30t2.5 -17t6 -8t11 -2h49l-43 -86q-6 -13 5 -19.5t51 -6.5h9q18 0 29 1t17.5 2.5t10 4.5t5.5 8l47 96h240z" />
    <glyph glyph-name="approxequal" unicode="&#x2248;" horiz-adv-x="588" 
d="M100 392q31 -8 40 -6.5t12 12.5q9 29 19.5 40.5t27.5 11.5q22 0 39.5 -10t38.5 -23q32 -20 62.5 -32t65.5 -12q62 0 101.5 36t56.5 104q2 10 -5 15t-38 12l-13 3q-33 8 -41.5 6t-10.5 -12q-7 -29 -20 -41.5t-30 -12.5q-21 0 -43 13t-42 24q-36 21 -64 30.5t-58 9.5
q-57 0 -96 -35t-57 -101q-3 -12 4.5 -16.5t34.5 -11.5zM100 158q31 -8 40 -6.5t12 12.5q9 29 19.5 40.5t27.5 11.5q22 0 39.5 -10t38.5 -23q32 -20 62.5 -32t65.5 -12q62 0 101.5 36t56.5 104q2 10 -5 15t-38 12l-13 3q-33 8 -41.5 6t-10.5 -12q-7 -29 -20 -41.5t-30 -12.5
q-21 0 -43 13t-42 24q-36 21 -64 30.5t-58 9.5q-57 0 -96 -35t-57 -101q-3 -12 4.5 -16.5t34.5 -11.5z" />
    <glyph glyph-name="plusminus" unicode="&#xb1;" horiz-adv-x="588" 
d="M70 520q-15 0 -19.5 -9.5t-4.5 -46.5v-14q0 -37 4.5 -46.5t19.5 -9.5h156v-162q0 -11 11 -16t52 -5h13q42 0 53 5t11 16v162h156q15 0 19.5 9.5t4.5 46.5v14q0 37 -4.5 46.5t-19.5 9.5h-156v162q0 12 -11 17t-53 5h-13q-41 0 -52 -5t-11 -17v-162h-156zM69 126
q-15 0 -19.5 -9.5t-4.5 -46.5v-14q0 -37 4.5 -46.5t19.5 -9.5h454q15 0 19.5 9.5t4.5 46.5v14q0 37 -4.5 46.5t-19.5 9.5h-454z" />
    <glyph glyph-name="lessequal" unicode="&#x2264;" horiz-adv-x="588" 
d="M64 514q-12 -7 -15.5 -17.5t-3.5 -35.5v-10q0 -26 3.5 -35.5t15.5 -17.5l388 -226q5 -3 9.5 -3.5t10.5 3t13 12t16 24.5l9 15q18 31 17.5 41.5t-10.5 16.5l-297 175l296 174q13 8 12.5 20.5t-17.5 44.5l-7 13q-9 17 -15.5 26t-12.5 12t-12.5 1t-14.5 -7zM73 126
q-15 0 -19.5 -9.5t-4.5 -46.5v-14q0 -37 4.5 -46.5t19.5 -9.5h454q15 0 19.5 9.5t4.5 46.5v14q0 37 -4.5 46.5t-19.5 9.5h-454z" />
    <glyph glyph-name="greaterequal" unicode="&#x2265;" horiz-adv-x="588" 
d="M147 740q-8 5 -14.5 7t-12.5 -1t-12.5 -12t-15.5 -26l-7 -13q-17 -32 -17.5 -44.5t12.5 -20.5l296 -174l-297 -175q-10 -6 -10.5 -16.5t17.5 -41.5l9 -15q9 -16 16 -24.5t13 -12t10.5 -3t9.5 3.5l388 226q12 8 15.5 17.5t3.5 35.5v10q0 25 -3.5 35.5t-15.5 17.5zM69 126
q-15 0 -19.5 -9.5t-4.5 -46.5v-14q0 -37 4.5 -46.5t19.5 -9.5h454q15 0 19.5 9.5t4.5 46.5v14q0 37 -4.5 46.5t-19.5 9.5h-454z" />
    <glyph glyph-name="asciicircum" unicode="^" horiz-adv-x="588" 
d="M288 720q-32 0 -44 -4.5t-17 -15.5q-42 -89 -85 -176t-85 -176q-4 -9 -5 -15t5 -10t21 -6t42 -2h11q34 0 48.5 3t19.5 12l101 220l100 -220q5 -9 19.5 -12t49.5 -3h10q27 0 42 2t21 5.5t5 10t-5 15.5l-171 352q-5 11 -17 15.5t-43 4.5h-23z" />
    <glyph glyph-name="asciitilde" unicode="~" horiz-adv-x="588" 
d="M88 291q28 -6 40.5 -5.5t15.5 11.5q17 56 51 56q17 0 33 -9.5t36 -21.5q27 -16 62 -32.5t80 -16.5q36 0 64 12.5t49 33t34 47.5t19 56q3 14 -8 17t-39 9l-14 3q-30 7 -40 6.5t-13 -9.5q-8 -23 -19 -39.5t-32 -16.5q-20 0 -41.5 12t-41.5 24q-17 10 -32 18t-30 14t-31.5 9
t-36.5 3q-32 0 -59 -11.5t-48.5 -31.5t-35.5 -46.5t-20 -57.5q-2 -13 7 -19t36 -12z" />
    <glyph glyph-name="lozenge" unicode="&#x25ca;" horiz-adv-x="585" 
d="M295 544l101 -178l-101 -185l-103 182zM234 -5q6 -11 15.5 -14.5t33.5 -3.5h16q23 0 31 3.5t15 14.5l187 320q5 9 7 19t2 24v10q0 14 -2 24t-7 20l-181 323q-6 11 -14.5 14.5t-32.5 3.5h-15q-24 0 -33.5 -3.5t-15.5 -14.5l-187 -325q-5 -10 -7 -20t-2 -24v-10
q0 -14 2 -24t7 -19z" />
    <glyph glyph-name="degree" unicode="&#xb0;" horiz-adv-x="368" 
d="M184 650q23 0 35.5 -16.5t12.5 -44.5q0 -29 -14 -46t-37 -17q-22 0 -33.5 16.5t-11.5 43.5q0 29 12.5 46.5t35.5 17.5zM29 585q0 -70 42.5 -106t108.5 -36q72 0 115.5 39.5t43.5 107.5q0 71 -42.5 107t-109.5 36q-71 0 -114.5 -40t-43.5 -108z" />
    <glyph glyph-name="quotesingle" unicode="'" horiz-adv-x="251" 
d="M123 720q-25 0 -40 -1t-23 -3t-10 -6t-2 -11l13 -240q1 -8 12 -13t49 -5h9q35 0 46.5 4.5t12.5 13.5l13 239q0 7 -2 11.5t-9.5 6.5t-22.5 3t-40 1h-6z" />
    <glyph glyph-name="quotedbl" unicode="&#x22;" horiz-adv-x="452" 
d="M123 720q-25 0 -40 -1t-23 -3t-10 -6t-2 -11l13 -240q1 -8 12 -13t49 -5h9q35 0 46.5 4.5t12.5 13.5l13 239q0 7 -2 11.5t-9.5 6.5t-22.5 3t-40 1h-6zM324 720q-25 0 -40 -1t-23 -3t-10 -6t-2 -11l13 -240q1 -8 12 -13t49 -5h9q35 0 46.5 4.5t12.5 13.5l13 239
q0 7 -2 11.5t-9.5 6.5t-22.5 3t-40 1h-6z" />
    <glyph glyph-name="radical" unicode="&#x221a;" horiz-adv-x="667" 
d="M76 488q-5 0 -9 -1t-6 -6.5t-3 -17t-1 -31.5v-7q0 -20 1 -31.5t3 -17t6 -6.5t9 -1h50l143 -424q2 -5 5.5 -8.5t11 -5.5t21.5 -3t37 -1h6q23 0 37 1t22 3.5t11 5.5t5 7l263 827q2 7 1 12t-8.5 8t-23 4.5t-43.5 1.5h-5q-26 0 -40 -1t-21.5 -3.5t-10 -7t-4.5 -10.5
l-180 -615l-97 299q-6 19 -14 24t-33 5h-133z" />
    <glyph glyph-name="currency" unicode="&#xa4;" horiz-adv-x="590" 
d="M492 367q0 38 -8.5 69.5t-23.5 55.5l77 132q4 7 -2 10.5t-32 3.5h-59q-20 0 -26.5 -2t-11.5 -10l-40 -67q-30 9 -65 9q-40 0 -71 -9l-39 67q-5 8 -11.5 10t-26.5 2h-59q-26 0 -32 -3.5t-2 -10.5l76 -131q-38 -55 -38 -142q0 -38 8.5 -69.5t23.5 -55.5l-77 -132
q-4 -7 2 -10.5t32 -3.5h59q20 0 26.5 2t11.5 10l40 67q30 -9 65 -9q39 0 71 9l39 -67q5 -8 11.5 -10t26.5 -2h59q26 0 32 3.5t2 10.5l-76 131q38 55 38 142zM355 362q0 -45 -16 -70t-48 -25q-26 0 -41 23.5t-15 65.5q0 45 16 70t48 25q26 0 41 -23.5t15 -65.5z" />
    <glyph glyph-name="infinity" unicode="&#x221e;" horiz-adv-x="813" 
d="M227 491q-39 0 -72 -12.5t-57 -35t-37.5 -54t-13.5 -69.5q0 -41 14.5 -72t39 -53t57 -33t68.5 -11q57 0 102 24t80 62q44 -44 84 -64t91 -20q36 0 69 10.5t58.5 32t40.5 53t15 73.5q0 40 -13.5 71t-37.5 52.5t-57 32.5t-72 11q-54 0 -96 -23.5t-81 -61.5q-45 45 -87 66
t-95 21zM234 266q-24 0 -40 14.5t-16 42.5q0 26 14 41t39 15q27 0 48.5 -17t44.5 -40q-21 -24 -43 -40t-47 -16zM576 378q25 0 41 -13.5t16 -39.5t-15 -42.5t-44 -16.5q-20 0 -39.5 12.5t-45.5 42.5q19 23 41 40t46 17z" />
    <glyph glyph-name="micro" unicode="&#xb5;" horiz-adv-x="605" 
d="M141 528q-29 0 -45.5 -1t-24 -4t-9 -7t-1.5 -10v-461q0 -68 4.5 -134.5t11.5 -113.5q1 -7 4 -11t11.5 -6t23.5 -2.5t41 -0.5h8q28 0 43.5 1t23 3.5t8.5 7t0 11.5q-5 33 -10 83.5t-7 107.5q8 -1 17.5 -1h17.5q38 0 72.5 14.5t59.5 41.5q11 -23 36 -36.5t60 -13.5
q22 0 40.5 3.5t32.5 8.5q10 4 12.5 14t2.5 38v11q0 32 -2.5 39.5t-13.5 7.5q-25 0 -25 23v365q0 6 -2 10t-10 7t-23.5 4t-42.5 1h-5q-29 0 -45 -1t-23.5 -4t-9 -7t-1.5 -10v-227v-52.5t-2 -42.5q-3 -31 -21 -45q-20 -15 -55 -15q-17 0 -31.5 5t-22.5 15q-5 5 -8 12t-5 18.5
t-2.5 28t-0.5 41.5v262q0 6 -2 10t-10 7t-23.5 4t-41.5 1h-5z" />
    <glyph glyph-name="partialdiff" unicode="&#x2202;" horiz-adv-x="591" 
d="M132 615q7 -14 12.5 -21.5t9.5 -10t7.5 -2t7.5 2.5q46 23 86 23q30 0 49.5 -13t31.5 -36.5t18.5 -55t9.5 -68.5q-53 28 -114 28q-45 0 -84.5 -17t-68 -47.5t-45 -73t-16.5 -93.5q0 -53 16.5 -97.5t47.5 -76.5t75.5 -49.5t99.5 -17.5q75 0 125 30t80 78.5t43 110.5t13 125
q0 94 -17 167.5t-50.5 124.5t-84 77.5t-116.5 26.5q-46 0 -87 -13t-65 -30q-10 -7 -9 -16.5t13 -32.5zM278 115q-35 0 -58 28t-23 86q0 54 24 82t65 28q19 0 41.5 -6.5t40.5 -17.5q-2 -107 -25 -153.5t-65 -46.5z" />
    <glyph glyph-name="summation" unicode="&#x2211;" horiz-adv-x="591" 
d="M81 720q-27 0 -37.5 -4.5t-10.5 -16.5v-71q0 -14 5.5 -23.5t16.5 -23.5l257 -310l-260 -316q-13 -16 -17.5 -24.5t-4.5 -22.5v-54q0 -12 10.5 -16.5t37.5 -4.5h469q6 0 10 2t6 8.5t3 18.5t1 32v8q0 21 -1 33t-3 18t-6 7t-10 1h-300l216 269q6 8 8.5 15t2.5 23v26
q0 16 -2.5 22.5t-7.5 12.5l-216 263h299q6 0 10 2t6 8.5t3 18.5t1 32v8q0 21 -1 32.5t-3 17.5t-6 7.5t-10 1.5h-466z" />
    <glyph glyph-name="product" unicode="&#x220f;" horiz-adv-x="791" 
d="M44 720q-6 0 -10 -1.5t-6.5 -7t-3.5 -17.5t-1 -33v-8q0 -21 1 -33.5t3.5 -18.5t6.5 -7.5t10 -1.5h80v-737q0 -6 3 -10.5t11.5 -7t24 -3.5t40.5 -1h11q47 0 63.5 4.5t16.5 17.5v737h203v-737q0 -13 15.5 -17.5t62.5 -4.5h13q25 0 40.5 1t24 3.5t11.5 7t3 10.5v737h80
q6 0 10 1.5t6.5 7.5t3.5 18.5t1 33.5v8q0 21 -1 33t-3.5 17.5t-6.5 7t-10 1.5h-703z" />
    <glyph glyph-name="integral" unicode="&#x222b;" horiz-adv-x="380" 
d="M344 662q3 17 4 27t0 15.5t-4.5 8.5t-9.5 5q-14 5 -34 8.5t-43 3.5q-94 0 -144 -56.5t-50 -151.5q0 -62 15.5 -130t34.5 -131q17 -54 30.5 -106t13.5 -100q0 -38 -10.5 -57t-35.5 -19q-22 0 -43 3q-11 2 -16.5 -5.5t-12.5 -40.5l-3 -15q-6 -31 -4.5 -40t11.5 -14
q31 -14 76 -14q49 0 85.5 15t60.5 43t36 66.5t12 85.5q0 62 -15.5 128.5t-34.5 128.5q-17 54 -30.5 107t-13.5 101q0 41 13 59t38 18q23 0 43 -5q11 -3 16.5 5.5t11.5 40.5z" />
    <glyph glyph-name="litre" unicode="&#x2113;" horiz-adv-x="315" 
d="M135 760q-29 0 -45 -1t-23.5 -3.5t-8.5 -6t-1 -9.5q1 -13 2 -44t2.5 -69.5t2.5 -80t1 -75.5v-337q0 -35 7.5 -61.5t27.5 -46.5q14 -14 37.5 -22.5t54.5 -8.5q28 0 45 2.5t28 7.5q8 4 11.5 13t3.5 38v9q0 34 -2.5 42.5t-13.5 8.5h-14q-23 0 -23 26v308q0 48 -0.5 95.5
t-1.5 87t-3 68.5t-4 41q-1 5 -4 8.5t-11.5 5.5t-23 3t-39.5 1h-5z" />
    <glyph glyph-name="estimated" unicode="&#x212e;" horiz-adv-x="922" 
d="M872 352v8q0 77 -32.5 144.5t-88 117.5t-130 79t-159.5 29t-160 -29t-131 -79t-88.5 -117.5t-32.5 -144.5t32.5 -144t88.5 -117.5t131 -79.5t160 -29q100 0 184 39t141 105h-60q-48 -57 -116 -89.5t-148 -32.5q-75 0 -140 30t-113 78q-9 12 -9 24v202q0 6 5 6h666z
M721 377q0 -6 -5 -6h-510q-5 0 -5 6v199q0 16 10 26q49 48 113 77t139 29q72 0 136 -27.5t112 -75.5q10 -12 10 -25v-203z" />
    <glyph glyph-name="numero" unicode="&#x2116;" horiz-adv-x="1140" 
d="M909 668q88 0 139.5 -51t51.5 -150q0 -104 -52 -160.5t-152 -56.5q-88 0 -139 51t-51 150q0 104 52 160.5t151 56.5zM907 551q-32 0 -48 -25t-16 -70q0 -42 14.5 -65.5t41.5 -23.5q32 0 48 25t16 70q0 42 -15 65.5t-41 23.5zM145 720q22 0 35.5 -1.5t21.5 -4t12.5 -6
t7.5 -8.5l180 -268q26 -39 48 -78t43 -82q-5 48 -7 91t-2 94v240q0 6 3 10.5t11 7.5t23.5 4t40.5 1h6q25 0 40 -1t23.5 -4t11.5 -7.5t3 -10.5v-675q0 -6 -2 -10.5t-9 -7t-21 -3.5t-39 -1h-6q-20 0 -33 1t-21 3.5t-13 6t-9 9.5l-179 268q-17 26 -30 47t-24 40.5t-20.5 38.5
t-19.5 40q6 -54 9 -100t3 -91v-241q0 -13 -15 -17.5t-62 -4.5h-6q-25 0 -40.5 1t-24 3t-11.5 6.5t-3 11.5v675q0 7 1.5 12t8.5 7t21 3t39 1h5z" />
    <glyph glyph-name="zero.lprop" horiz-adv-x="608" 
d="M308 602q47 0 70.5 -57.5t23.5 -178.5q0 -118 -24.5 -183t-78.5 -65q-47 0 -70 57.5t-23 178.5q0 118 24 183t78 65zM311 730q-132 0 -203.5 -98t-71.5 -284q0 -179 68.5 -268.5t190.5 -89.5q133 0 205 98t72 285q0 178 -69.5 267.5t-191.5 89.5z" />
    <glyph glyph-name="one.lprop" horiz-adv-x="537" 
d="M32 623q-14 -6 -13.5 -17t14.5 -43l6 -13q15 -33 24 -39t23 0l103 45v-436h-116q-5 0 -9 -1.5t-6 -7t-3 -16.5t-1 -30v-10q0 -37 4 -46t15 -9h387q9 0 12 9t3 46v10q0 37 -3.5 46t-11.5 9h-107v578q0 13 -8.5 17.5t-41.5 4.5h-24q-19 0 -37 -3.5t-44 -15.5z" />
    <glyph glyph-name="two.lprop" horiz-adv-x="517" 
d="M68 588q15 -26 24.5 -30.5t20.5 2.5q29 18 57.5 30t56.5 12q40 0 63.5 -20t23.5 -65q0 -21 -6.5 -43.5t-21.5 -50.5t-40 -63t-62 -80l-130 -159q-8 -10 -12.5 -18t-7 -15.5t-3 -15.5t-0.5 -18v-32q0 -7 1.5 -11.5t7.5 -6.5t17 -3t30 -1h378q6 0 9.5 1.5t5.5 7t3 16.5
t1 29v19q0 37 -3 46.5t-16 9.5h-234l52 58q56 63 94 111.5t61 89t32.5 76t9.5 73.5q0 42 -14 77.5t-42 61t-70.5 40t-99.5 14.5t-111 -18t-94 -44q-13 -8 -11 -20t16 -36z" />
    <glyph glyph-name="three.lprop" horiz-adv-x="539" 
d="M94 610q15 -30 23.5 -36t19.5 0q27 15 53 23.5t50 8.5q35 0 55.5 -19.5t20.5 -57.5q0 -49 -26 -70q-28 -25 -96 -25h-30q-11 0 -14.5 -9t-3.5 -46v-9q0 -19 0.5 -30t2.5 -16.5t5.5 -7t9.5 -1.5h26q45 0 71.5 -7.5t44.5 -23.5q13 -11 19.5 -28t6.5 -43q0 -50 -27 -74
t-75 -24q-32 0 -68 11.5t-65 28.5q-14 8 -22 1t-23 -38l-9 -18q-13 -25 -15 -35.5t7 -16.5q36 -23 91 -40.5t112 -17.5q65 0 118 18.5t85 51.5q28 30 43.5 69t15.5 85q0 66 -33 108.5t-87 62.5q51 23 75.5 63.5t24.5 91.5q0 89 -59 139.5t-164 50.5q-47 0 -94 -13.5
t-82 -34.5q-11 -7 -10 -18t15 -38z" />
    <glyph glyph-name="four.lprop" horiz-adv-x="600" 
d="M297 720q-23 0 -37 -1t-22.5 -3t-12.5 -5.5t-6 -9.5l-173 -424q-6 -14 -7.5 -26t-1.5 -30v-43q0 -8 1.5 -12.5t7.5 -6.5t17 -3t30 -1h221v-133q0 -6 3 -10.5t11 -7t23.5 -3.5t40.5 -1h5q47 0 63 4.5t16 17.5v133h69q9 0 12.5 9t3.5 48v14q0 19 -0.5 30.5t-2.5 17t-5 7
t-8 1.5h-69v107q0 13 -16 17.5t-63 4.5h-5q-25 0 -40.5 -1t-23.5 -3.5t-11 -6.5t-3 -11v-107h-104l169 413q3 6 1.5 11t-9 8t-23 4.5t-41.5 1.5h-10z" />
    <glyph glyph-name="five.lprop" horiz-adv-x="530" 
d="M130 720q-38 0 -48.5 -4t-10.5 -18v-337q0 -18 11 -23.5t30 -0.5q20 5 46 8t51 3q119 0 119 -115q0 -57 -26.5 -87.5t-80.5 -30.5q-35 0 -69.5 12t-60.5 28q-5 3 -9 3.5t-8.5 -3t-10 -12.5t-14.5 -25l-9 -17q-16 -30 -14.5 -41t10.5 -17q16 -11 38 -20.5t46.5 -16.5
t51.5 -11.5t54 -4.5q131 0 203 75q31 32 48.5 76t17.5 98q0 113 -65.5 170t-179.5 57h-27v125h223q6 0 9.5 1.5t5.5 7.5t2.5 17t0.5 30v18q0 19 -0.5 30t-2.5 16.5t-5.5 7t-9.5 1.5h-316z" />
    <glyph glyph-name="six.lprop" horiz-adv-x="564" 
d="M471 638q11 21 14 31t-7 18q-25 19 -64 31t-84 12q-69 0 -123.5 -30.5t-92.5 -86t-58 -133.5t-20 -172q0 -71 14 -129.5t44 -100.5t77 -65t112 -23q57 0 103.5 21t79 56.5t50 81.5t17.5 97q0 49 -14 89t-41 68.5t-65.5 44t-86.5 15.5q-30 0 -61 -10t-55 -25q5 47 17.5 84
t28.5 57q16 19 34 28.5t45 9.5q43 0 85 -23q10 -5 17 -0.5t21 30.5zM203 313q20 12 42.5 20t42.5 8q82 0 82 -102q0 -55 -22 -89.5t-60 -34.5q-41 0 -63 46.5t-22 141.5v10z" />
    <glyph glyph-name="seven.lprop" horiz-adv-x="509" 
d="M45 720q-7 0 -11 -1.5t-6 -7t-2.5 -16.5t-0.5 -30v-18q0 -19 0.5 -30t2.5 -17t6 -7.5t11 -1.5h277l-247 -566q-7 -15 6 -20t55 -5h35q22 0 36 1t21.5 3t11 5.5t5.5 9.5l230 562q11 26 15 41.5t4 29.5v41q0 16 -9.5 21.5t-46.5 5.5h-393z" />
    <glyph glyph-name="eight.lprop" horiz-adv-x="559" 
d="M27 188q0 -49 19 -86t52.5 -62t79 -37.5t97.5 -12.5q54 0 100.5 13.5t81.5 40t55 66.5t20 93q0 66 -31 110.5t-91 77.5q45 26 73 64.5t28 92.5q0 43 -16 77t-44.5 57t-68.5 35.5t-88 12.5q-53 0 -95 -15t-72 -42t-46 -63t-16 -78q0 -57 22.5 -97t60.5 -69
q-53 -27 -87 -74t-34 -104zM249 305q25 -11 46.5 -22t37.5 -23.5t25 -28t9 -36.5q0 -36 -22.5 -57.5t-64.5 -21.5q-38 0 -63 21t-25 60q0 63 57 108zM224 541q0 31 19 49.5t47 18.5q29 0 47 -17.5t18 -49.5q0 -30 -13 -52.5t-40 -45.5q-43 21 -60.5 43.5t-17.5 53.5z" />
    <glyph glyph-name="nine.lprop" horiz-adv-x="565" 
d="M80 84q-14 -26 -13.5 -34.5t11.5 -16.5q28 -19 68.5 -31t92.5 -12q66 0 117.5 25t86.5 72q42 57 64 137.5t22 182.5q0 69 -13 128t-43 102.5t-78.5 68t-120.5 24.5q-58 0 -103.5 -21t-76.5 -55.5t-47 -80.5t-16 -95q0 -47 15.5 -85.5t43 -66t66.5 -43t87 -15.5q32 0 60 7
t54 24q-4 -39 -12.5 -70.5t-19.5 -53.5q-16 -29 -40 -45t-59 -16q-27 0 -50 7t-43 18q-11 6 -18.5 2t-21.5 -32zM280 391q-42 0 -63 26.5t-21 75.5q0 51 23 82t56 31q45 0 66.5 -45t20.5 -148q-39 -22 -82 -22z" />
    <glyph glyph-name="dollar.lprop" horiz-adv-x="572" 
d="M305 834q-27 0 -42.5 -1t-23 -4t-9.5 -7t-2 -10v-94q-33 -8 -61.5 -25.5t-49.5 -42.5t-33 -57.5t-12 -71.5q0 -69 42 -118.5t137 -94.5q31 -15 51.5 -27.5t33 -25.5t17.5 -27.5t5 -32.5q0 -72 -92 -72q-33 0 -70 15t-70 39q-15 11 -26.5 3t-26.5 -37l-12 -23
q-14 -28 -15.5 -39t11.5 -22q50 -42 135 -60v-90q0 -6 1.5 -10.5t9 -7.5t23 -4t42.5 -1h3q27 0 42.5 1t23 4t9 7.5t1.5 10.5v89q90 17 135 73t45 138q0 47 -16 81.5t-42.5 60.5t-60 45.5t-69.5 36.5q-56 27 -77 48.5t-21 49.5q0 31 21 50t56 19q29 0 54.5 -10t57.5 -29
q17 -11 28 -6.5t28 40.5l9 19q14 29 15 41t-15 23q-23 17 -52.5 28t-59.5 17v89q0 6 -1.5 10t-9 7t-22.5 4t-42 1h-3z" />
    <glyph glyph-name="cent.lprop" horiz-adv-x="537" 
d="M388 0q29 7 53.5 17.5t41.5 22.5q11 7 11 16.5t-11 38.5l-6 15q-14 34 -22.5 40.5t-26.5 -2.5q-27 -14 -51.5 -20.5t-53.5 -6.5q-57 0 -84.5 38t-27.5 108q0 37 8.5 63.5t23 43.5t34 25t41.5 8q31 0 53.5 -8t54.5 -29q13 -8 23 -3t26 37l9 18q13 26 17 37t-7 20
q-20 17 -47 30t-59 21v95q0 6 -1.5 10.5t-8.5 6.5t-22 3t-41 1h-6q-27 0 -42.5 -1t-22.5 -3t-8.5 -6.5t-1.5 -10.5v-97q-73 -18 -115 -61q-36 -38 -55 -90.5t-19 -116.5q0 -66 21 -119.5t60 -90.5q41 -38 108 -53v-94q0 -6 1.5 -10.5t8.5 -6.5t22.5 -3t42.5 -1h6q26 0 41 1
t22 3t8.5 6.5t1.5 10.5v97z" />
    <glyph glyph-name="Euro.lprop" horiz-adv-x="588" 
d="M419 230q11 0 14 7.5t3 41.5v4q0 36 -3 43.5t-14 7.5h-166v43h167q6 0 9 1t5 6t2.5 14.5t0.5 26.5v4q0 36 -3 43.5t-14 7.5h-153q15 57 47 88t79 31q32 0 55 -7.5t50 -24.5q7 -4 12.5 -6t12 1t13.5 11.5t17 26.5l10 18q18 32 18 41.5t-9 15.5q-42 28 -86.5 41.5
t-105.5 13.5q-58 0 -105 -17.5t-83 -50.5t-60.5 -79t-36.5 -103h-62q-11 0 -14 -7.5t-3 -43.5v-4q0 -17 0.5 -26.5t2.5 -14.5t5 -6t9 -1h49v-43h-48q-11 0 -14 -7.5t-3 -43.5v-4q0 -34 3 -41.5t14 -7.5h58q23 -113 91 -176.5t188 -63.5q57 0 102.5 13t92.5 41q12 7 12.5 17
t-13.5 40l-9 19q-14 29 -21.5 33.5t-18.5 -0.5q-32 -16 -59.5 -23.5t-63.5 -7.5q-53 0 -84 31.5t-42 76.5h152z" />
    <glyph glyph-name="florin.lprop" horiz-adv-x="588" 
d="M164 457q-5 0 -8.5 -1.5t-6 -7t-4.5 -16.5t-5 -30l-1 -7q-5 -39 -2.5 -48t14.5 -9h62l-31 -224q-8 -57 -25 -78t-54 -21q-11 0 -25 2t-30 7q-13 4 -19.5 -4t-16.5 -45l-2 -7q-9 -32 -9.5 -44t11.5 -17q20 -7 47.5 -12t53.5 -5q109 0 164 57.5t69 161.5l29 229h103
q6 0 9.5 1t6.5 6.5t5.5 16.5t5.5 31l1 7q3 20 4 31.5t-0.5 17t-6 7t-11.5 1.5h-100l6 49q7 56 25.5 78t55.5 22q30 0 60 -8q6 -2 10 -1.5t7.5 5t7.5 14t9 26.5l5 16q10 32 8.5 42.5t-13.5 14.5q-20 6 -46.5 10.5t-56.5 4.5q-107 0 -163.5 -53t-70.5 -165l-7 -55h-65z" />
    <glyph glyph-name="sterling.lprop" horiz-adv-x="588" 
d="M84 431q-5 0 -8 -1t-5 -6.5t-3 -17t-1 -31.5v-7q0 -21 1 -32t3 -16.5t5 -6.5t8 -1h62v-41q0 -60 -10.5 -95t-43.5 -53q-14 -8 -19 -20t-5 -40v-8q0 -20 1 -31.5t4 -16.5t7.5 -6t12.5 -1h422q7 0 11 2t6.5 8.5t3 18.5t0.5 32v7q0 21 -0.5 33t-3 18t-6.5 7t-11 1h-244
q23 24 32 63t9 86v36h150q4 0 7 1t5.5 6.5t3.5 16.5t1 32v7q0 20 -0.5 31.5t-2.5 17t-5.5 6.5t-8.5 1h-149v61q0 53 18 83t63 30q21 0 39 -4.5t36 -12.5q14 -6 22 0t20 37l7 18q10 26 10 37.5t-14 19.5q-26 14 -62.5 22t-76.5 8q-59 0 -102 -18t-71.5 -50.5t-42 -78
t-13.5 -101.5v-51h-62z" />
    <glyph glyph-name="yen.lprop" horiz-adv-x="588" 
d="M486 231q15 0 19 7.5t4 41.5v7q0 33 -4 40.5t-19 7.5h-81l180 358q7 14 -6 20.5t-62 6.5h-22q-23 0 -37 -1t-22 -3.5t-11.5 -6t-6.5 -8.5l-63 -136q-13 -27 -26 -61.5t-25 -75.5q-12 41 -26 75.5t-28 61.5l-66 135q-5 11 -22 15.5t-63 4.5h-22q-28 0 -44.5 -1.5t-24 -5
t-8 -9t2.5 -12.5l177 -357h-80q-15 0 -19 -7.5t-4 -40.5v-7q0 -34 4 -41.5t19 -7.5h108v-28h-108q-15 0 -19 -7.5t-4 -40.5v-7q0 -34 4 -41.5t19 -7.5h108v-77q0 -6 3 -10.5t11.5 -7t24 -3.5t40.5 -1h10q47 0 64 4.5t17 17.5v77h108q15 0 19 7.5t4 41.5v7q0 33 -4 40.5
t-19 7.5h-108v28h108z" />
    <glyph glyph-name="numbersign.lprop" horiz-adv-x="601" 
d="M255 720q-32 0 -39 -3t-9 -8l-36 -173h-81q-5 0 -8.5 -0.5t-5.5 -5t-3 -14.5t-1 -30v-3q0 -19 1 -30t3 -16.5t5.5 -7t8.5 -1.5h59l-27 -132h-82q-5 0 -8.5 -0.5t-5.5 -5t-3 -14.5t-1 -30v-3q0 -19 1 -30t3 -16.5t5.5 -7t8.5 -1.5h60l-36 -177q-1 -5 6.5 -8t39.5 -3h21
q32 0 39 3t9 8l37 177h99l-36 -177q-1 -5 6.5 -8t39.5 -3h21q32 0 39 3t9 8l37 177h81q5 0 8.5 1.5t5.5 7t3 16.5t1 30v3q0 20 -1 30t-3 14.5t-5.5 5t-8.5 0.5h-58l27 132h81q5 0 8.5 1.5t5.5 7t3 16.5t1 30v3q0 20 -1 30t-3 14.5t-5.5 5t-8.5 0.5h-60l35 173q1 5 -6.5 8
t-39.5 3h-21q-32 0 -39 -3t-9 -8l-36 -173h-99l35 173q1 5 -6.5 8t-39.5 3h-21zM265 428h99l-27 -132h-99z" />
    <glyph glyph-name="percent.lprop" horiz-adv-x="981" 
d="M239 630q23 0 35.5 -23t12.5 -79q0 -109 -53 -109q-24 0 -36 24t-12 80q0 107 53 107zM240 730q-84 0 -136.5 -53t-52.5 -157q0 -50 14 -88t38 -63t57.5 -37.5t72.5 -12.5q41 0 75.5 13.5t60 40.5t39.5 66.5t14 92.5q0 50 -13.5 87.5t-38 62t-58 36.5t-72.5 12zM712 720
q-21 0 -35 -1t-23 -3t-14 -6t-9 -10l-429 -672q-10 -15 1.5 -21.5t56.5 -6.5h6q40 0 57 3.5t25 16.5l428 672q5 8 6.5 13.5t-4.5 8.5t-21 4.5t-43 1.5h-2zM747 301q23 0 35.5 -23t12.5 -79q0 -109 -53 -109q-24 0 -36 24t-12 80q0 107 53 107zM748 401q-84 0 -136.5 -53
t-52.5 -157q0 -50 14 -88t38 -63t57.5 -37.5t72.5 -12.5q41 0 75.5 13.5t60 40.5t39.5 66.5t14 92.5q0 50 -13.5 87.5t-38 62t-58 36.5t-72.5 12z" />
    <glyph glyph-name="perthousand.lprop" horiz-adv-x="1394" 
d="M239 630q23 0 35.5 -23t12.5 -79q0 -109 -53 -109q-24 0 -36 24t-12 80q0 107 53 107zM240 730q-84 0 -136.5 -53t-52.5 -157q0 -50 14 -88t38 -63t57.5 -37.5t72.5 -12.5q41 0 75.5 13.5t60 40.5t39.5 66.5t14 92.5q0 50 -13.5 87.5t-38 62t-58 36.5t-72.5 12zM712 720
q-21 0 -35 -1t-23 -3t-14 -6t-9 -10l-429 -672q-10 -15 1.5 -21.5t56.5 -6.5h6q40 0 57 3.5t25 16.5l428 672q5 8 6.5 13.5t-4.5 8.5t-21 4.5t-43 1.5h-2zM747 301q23 0 35.5 -23t12.5 -79q0 -109 -53 -109q-24 0 -36 24t-12 80q0 107 53 107zM748 401q-84 0 -136.5 -53
t-52.5 -157q0 -50 14 -88t38 -63t57.5 -37.5t72.5 -12.5q41 0 75.5 13.5t60 40.5t39.5 66.5t14 92.5q0 50 -13.5 87.5t-38 62t-58 36.5t-72.5 12zM1160 301q23 0 35.5 -23t12.5 -79q0 -109 -53 -109q-24 0 -36 24t-12 80q0 107 53 107zM1161 401q-84 0 -136.5 -53
t-52.5 -157q0 -50 14 -88t38 -63t57.5 -37.5t72.5 -12.5q41 0 75.5 13.5t60 40.5t39.5 66.5t14 92.5q0 50 -13.5 87.5t-38 62t-58 36.5t-72.5 12z" />
    <glyph glyph-name="fraction" unicode="&#x2044;" horiz-adv-x="397" 
d="M357 720q-23 0 -37 -1t-22 -3t-11.5 -6.5t-6.5 -10.5l-309 -673q-3 -7 -3.5 -12t5.5 -8t19.5 -4.5t39.5 -1.5h9q23 0 37 1t22 3.5t11.5 6.5t6.5 10l308 673q3 7 3.5 12t-5.5 8t-20 4.5t-39 1.5h-8z" />
    <glyph glyph-name="onehalf" unicode="&#xbd;" horiz-adv-x="980" 
d="M117 408q-8 0 -11.5 -6.5t-3.5 -32.5v-12q0 -26 3.5 -32.5t11.5 -6.5h230q8 0 11.5 6.5t3.5 32.5v12q0 26 -3.5 32.5t-11.5 6.5h-44v296q0 8 -7 12t-27 4h-35q-17 0 -29 -3.5t-22 -8.5l-108 -58q-11 -6 -9 -13.5t16 -32.5l7 -12q8 -14 13 -21t9.5 -10t8.5 -2.5t9 3.5
l47 25v-179h-59zM656 720q-23 0 -37 -1t-22 -3t-11.5 -6.5t-6.5 -10.5l-309 -673q-3 -7 -3.5 -12t5.5 -8t19.5 -4.5t39.5 -1.5h9q23 0 37 1t22 3.5t11.5 6.5t6.5 10l308 673q3 7 3.5 12t-5.5 8t-20 4.5t-39 1.5h-8zM900 99q9 0 12.5 -7t3.5 -36v-13q0 -29 -3.5 -36t-12.5 -7
h-258q-12 0 -15.5 8t-3.5 35v7q0 17 6.5 27.5t20.5 24.5l54 53q33 33 54.5 61t21.5 56q0 20 -10.5 31t-28.5 11q-25 0 -61 -23q-12 -8 -20.5 -4t-24.5 30l-3 5q-8 12 -11 19.5t-3 12.5t4 8.5t11 8.5q32 21 65.5 31t68.5 10q60 0 101 -33.5t41 -96.5q0 -38 -21 -75t-70 -85
l-24 -23h106z" />
    <glyph glyph-name="onequarter" unicode="&#xbc;" horiz-adv-x="980" 
d="M906 70q9 0 12.5 6.5t3.5 35.5v13q0 29 -3.5 35.5t-12.5 6.5h-27v57q0 10 -10.5 13.5t-50.5 3.5h-3q-20 0 -32 -0.5t-18.5 -2.5t-8.5 -5.5t-2 -8.5v-57h-48l77 217q3 9 -6 13.5t-49 4.5h-7q-35 0 -46 -2.5t-14 -10.5l-83 -234q-4 -10 -5 -16.5t-1 -17.5v-33
q0 -12 6.5 -15t35.5 -3h140v-53q0 -5 2 -8.5t8.5 -5.5t18.5 -2.5t32 -0.5h3q20 0 32 0.5t18.5 2.5t8.5 5.5t2 8.5v53h27zM656 720q-23 0 -37 -1t-22 -3t-11.5 -6.5t-6.5 -10.5l-309 -673q-3 -7 -3.5 -12t5.5 -8t19.5 -4.5t39.5 -1.5h9q23 0 37 1t22 3.5t11.5 6.5t6.5 10
l308 673q3 7 3.5 12t-5.5 8t-20 4.5t-39 1.5h-8zM117 408q-8 0 -11.5 -6.5t-3.5 -32.5v-12q0 -26 3.5 -32.5t11.5 -6.5h230q8 0 11.5 6.5t3.5 32.5v12q0 26 -3.5 32.5t-11.5 6.5h-44v296q0 8 -7 12t-27 4h-35q-17 0 -29 -3.5t-22 -8.5l-108 -58q-11 -6 -9 -13.5t16 -32.5
l7 -12q8 -14 13 -21t9.5 -10t8.5 -2.5t9 3.5l47 25v-179h-59z" />
    <glyph glyph-name="threequarters" unicode="&#xbe;" horiz-adv-x="980" 
d="M167 568q-5 0 -8.5 -0.5t-5.5 -4t-3 -12t-1 -24.5v-4q0 -16 1 -24.5t3 -12t5.5 -4t8.5 -0.5h22q37 0 47.5 -12.5t10.5 -26.5q0 -20 -13.5 -30t-36.5 -10q-34 0 -76 18q-11 5 -16.5 -1t-18.5 -35l-3 -7q-11 -25 -9.5 -33t10.5 -12q30 -13 63 -19t64 -6q79 0 123 37t44 97
q0 32 -16.5 56.5t-44.5 35.5q23 12 35 33t12 45q0 55 -38.5 86.5t-107.5 31.5q-34 0 -69 -9.5t-64 -28.5q-11 -8 -11 -16.5t14 -31.5l3 -5q15 -26 22 -29t18 4q16 10 33.5 16t34.5 6t27.5 -7.5t10.5 -22.5q0 -38 -53 -38h-17zM656 720q-23 0 -37 -1t-22 -3t-11.5 -6.5
t-6.5 -10.5l-309 -673q-3 -7 -3.5 -12t5.5 -8t19.5 -4.5t39.5 -1.5h9q23 0 37 1t22 3.5t11.5 6.5t6.5 10l308 673q3 7 3.5 12t-5.5 8t-20 4.5t-39 1.5h-8zM906 70q9 0 12.5 6.5t3.5 35.5v13q0 29 -3.5 35.5t-12.5 6.5h-27v57q0 10 -10.5 13.5t-50.5 3.5h-3q-20 0 -32 -0.5
t-18.5 -2.5t-8.5 -5.5t-2 -8.5v-57h-48l77 217q3 9 -6 13.5t-49 4.5h-7q-35 0 -46 -2.5t-14 -10.5l-83 -234q-4 -10 -5 -16.5t-1 -17.5v-33q0 -12 6.5 -15t35.5 -3h140v-53q0 -5 2 -8.5t8.5 -5.5t18.5 -2.5t32 -0.5h3q20 0 32 0.5t18.5 2.5t8.5 5.5t2 8.5v53h27z" />
    <glyph glyph-name="Agrave" unicode="&#xc0;" horiz-adv-x="668" 
d="M328 720q-24 0 -38.5 -1t-23 -3t-12.5 -6.5t-6 -10.5l-238 -672q-6 -16 6.5 -21.5t63.5 -5.5h12q25 0 41 1.5t25 4t13 6.5t6 10l52 157h201l54 -157q2 -6 6.5 -10t14.5 -6.5t26 -4t41 -1.5h12q27 0 42.5 1.5t23.5 5t9.5 9t-1.5 12.5l-241 671q-2 6 -6 10.5t-13 6.5
t-23.5 3t-38.5 1h-8zM284 346q13 40 24 86.5t24 115.5q14 -69 24 -115.5t21 -86.5l12 -44h-119zM221 984q-35 0 -42 -8t3 -21l125 -157q6 -8 16.5 -11t35.5 -3h37q29 0 37.5 6t-1.5 21l-103 158q-3 5 -6.5 8t-9.5 4.5t-16.5 2t-28.5 0.5h-47z" />
    <glyph glyph-name="Aacute" unicode="&#xc1;" horiz-adv-x="668" 
d="M412 984q-18 0 -28.5 -0.5t-16.5 -2t-9.5 -4.5t-6.5 -8l-103 -158q-10 -15 -1.5 -21t37.5 -6h37q25 0 35.5 3t16.5 11l125 157q5 6 7 11.5t-1.5 9.5t-14 6t-30.5 2h-47zM328 720q-24 0 -38.5 -1t-23 -3t-12.5 -6.5t-6 -10.5l-238 -672q-6 -16 6.5 -21.5t63.5 -5.5h12
q25 0 41 1.5t25 4t13 6.5t6 10l52 157h201l54 -157q2 -6 6.5 -10t14.5 -6.5t26 -4t41 -1.5h12q27 0 42.5 1.5t23.5 5t9.5 9t-1.5 12.5l-241 671q-2 6 -6 10.5t-13 6.5t-23.5 3t-38.5 1h-8zM284 346q13 40 24 86.5t24 115.5q14 -69 24 -115.5t21 -86.5l12 -44h-119z" />
    <glyph glyph-name="Acircumflex" unicode="&#xc2;" horiz-adv-x="668" 
d="M328 720q-24 0 -38.5 -1t-23 -3t-12.5 -6.5t-6 -10.5l-238 -672q-6 -16 6.5 -21.5t63.5 -5.5h12q25 0 41 1.5t25 4t13 6.5t6 10l52 157h201l54 -157q2 -6 6.5 -10t14.5 -6.5t26 -4t41 -1.5h12q27 0 42.5 1.5t23.5 5t9.5 9t-1.5 12.5l-241 671q-2 6 -6 10.5t-13 6.5
t-23.5 3t-38.5 1h-8zM284 346q13 40 24 86.5t24 115.5q14 -69 24 -115.5t21 -86.5l12 -44h-119zM329 870l89 -77q9 -8 19 -5.5t31 23.5l10 10q17 17 20.5 25.5t-3.5 15.5l-88 92q-7 7 -12.5 11t-13 6t-18.5 3t-28 1h-12q-17 0 -28 -1t-18.5 -3t-13 -6t-12.5 -11l-88 -92
q-7 -7 -3.5 -15.5t20.5 -25.5l10 -10q21 -21 31 -23.5t19 5.5z" />
    <glyph glyph-name="Atilde" unicode="&#xc3;" horiz-adv-x="668" 
d="M328 720q-24 0 -38.5 -1t-23 -3t-12.5 -6.5t-6 -10.5l-238 -672q-6 -16 6.5 -21.5t63.5 -5.5h12q25 0 41 1.5t25 4t13 6.5t6 10l52 157h201l54 -157q2 -6 6.5 -10t14.5 -6.5t26 -4t41 -1.5h12q27 0 42.5 1.5t23.5 5t9.5 9t-1.5 12.5l-241 671q-2 6 -6 10.5t-13 6.5
t-23.5 3t-38.5 1h-8zM284 346q13 40 24 86.5t24 115.5q14 -69 24 -115.5t21 -86.5l12 -44h-119zM329 870l89 -77q9 -8 19 -5.5t31 23.5l10 10q17 17 20.5 25.5t-3.5 15.5l-88 92q-7 7 -12.5 11t-13 6t-18.5 3t-28 1h-12q-17 0 -28 -1t-18.5 -3t-13 -6t-12.5 -11l-88 -92
q-7 -7 -3.5 -15.5t20.5 -25.5l10 -10q21 -21 31 -23.5t19 5.5z" />
    <glyph glyph-name="Adieresis" unicode="&#xc4;" horiz-adv-x="668" 
d="M328 720q-24 0 -38.5 -1t-23 -3t-12.5 -6.5t-6 -10.5l-238 -672q-6 -16 6.5 -21.5t63.5 -5.5h12q25 0 41 1.5t25 4t13 6.5t6 10l52 157h201l54 -157q2 -6 6.5 -10t14.5 -6.5t26 -4t41 -1.5h12q27 0 42.5 1.5t23.5 5t9.5 9t-1.5 12.5l-241 671q-2 6 -6 10.5t-13 6.5
t-23.5 3t-38.5 1h-8zM284 346q13 40 24 86.5t24 115.5q14 -69 24 -115.5t21 -86.5l12 -44h-119zM138 871q0 -35 23.5 -58t62.5 -23q36 0 60.5 23t24.5 58t-24.5 58.5t-60.5 23.5q-39 0 -62.5 -23.5t-23.5 -58.5zM355 871q0 -35 23.5 -58t62.5 -23q36 0 60.5 23t24.5 58
t-24.5 58.5t-60.5 23.5q-39 0 -62.5 -23.5t-23.5 -58.5z" />
    <glyph glyph-name="Amacron" unicode="&#x100;" horiz-adv-x="668" 
d="M328 720q-24 0 -38.5 -1t-23 -3t-12.5 -6.5t-6 -10.5l-238 -672q-6 -16 6.5 -21.5t63.5 -5.5h12q25 0 41 1.5t25 4t13 6.5t6 10l52 157h201l54 -157q2 -6 6.5 -10t14.5 -6.5t26 -4t41 -1.5h12q27 0 42.5 1.5t23.5 5t9.5 9t-1.5 12.5l-241 671q-2 6 -6 10.5t-13 6.5
t-23.5 3t-38.5 1h-8zM284 346q13 40 24 86.5t24 115.5q14 -69 24 -115.5t21 -86.5l12 -44h-119zM193 927q-8 0 -11 -10t-3 -41v-7q0 -30 3 -40.5t11 -10.5h280q7 0 11 10.5t4 40.5v7q0 31 -4 41t-11 10h-280z" />
    <glyph glyph-name="Abreve" unicode="&#x102;" horiz-adv-x="668" 
d="M328 720q-24 0 -38.5 -1t-23 -3t-12.5 -6.5t-6 -10.5l-238 -672q-6 -16 6.5 -21.5t63.5 -5.5h12q25 0 41 1.5t25 4t13 6.5t6 10l52 157h201l54 -157q2 -6 6.5 -10t14.5 -6.5t26 -4t41 -1.5h12q27 0 42.5 1.5t23.5 5t9.5 9t-1.5 12.5l-241 671q-2 6 -6 10.5t-13 6.5
t-23.5 3t-38.5 1h-8zM284 346q13 40 24 86.5t24 115.5q14 -69 24 -115.5t21 -86.5l12 -44h-119zM223 942q-34 0 -44.5 -3.5t-9.5 -17.5q3 -69 46.5 -107t118.5 -38t118.5 38t46.5 107q1 14 -9 17.5t-44 3.5h-14q-30 0 -40 -5t-11 -13q-2 -26 -14.5 -37.5t-32.5 -11.5
t-32 11.5t-14 37.5q-1 8 -10.5 13t-40.5 5h-14z" />
    <glyph glyph-name="Acaron" unicode="&#x1cd;" horiz-adv-x="668" 
d="M328 720q-24 0 -38.5 -1t-23 -3t-12.5 -6.5t-6 -10.5l-238 -672q-6 -16 6.5 -21.5t63.5 -5.5h12q25 0 41 1.5t25 4t13 6.5t6 10l52 157h201l54 -157q2 -6 6.5 -10t14.5 -6.5t26 -4t41 -1.5h12q27 0 42.5 1.5t23.5 5t9.5 9t-1.5 12.5l-241 671q-2 6 -6 10.5t-13 6.5
t-23.5 3t-38.5 1h-8zM284 346q13 40 24 86.5t24 115.5q14 -69 24 -115.5t21 -86.5l12 -44h-119zM241 966q-9 8 -19 5.5t-31 -23.5l-10 -10q-17 -17 -20.5 -25.5t3.5 -15.5l90 -95q7 -7 12.5 -11t13 -6.5t18.5 -3t28 -0.5h12q17 0 28 0.5t18.5 3t13 6.5t12.5 11l91 95
q7 7 3.5 15.5t-20.5 25.5l-10 10q-21 21 -31 23.5t-19 -5.5l-92 -80z" />
    <glyph glyph-name="Aring" unicode="&#xc5;" horiz-adv-x="668" 
d="M211 804q0 -27 12.5 -50.5t33.5 -40.5l-247 -686q-6 -16 6.5 -21.5t63.5 -5.5h12q25 0 41 1.5t25 4t13 6.5t6 10l52 157h201l54 -157q2 -6 6.5 -10t14.5 -6.5t26 -4t41 -1.5h12q27 0 42.5 1.5t23.5 5t9.5 9t-1.5 12.5l-249 683q22 16 35 40t13 53q0 24 -9.5 45.5
t-26.5 37.5t-39.5 25t-47.5 9q-26 0 -48 -9.5t-39 -25.5t-26.5 -37t-9.5 -45zM301 804q0 14 9.5 23.5t23.5 9.5t23 -9.5t9 -23.5t-9 -23.5t-23 -9.5t-23.5 9.5t-9.5 23.5zM284 346q13 40 24 86.5t24 115.5q14 -69 24 -115.5t21 -86.5l12 -44h-119z" />
    <glyph glyph-name="Aringacute" unicode="&#x1fa;" horiz-adv-x="668" 
d="M211 804q0 24 9.5 45t26.5 37t39 25.5t48 9.5q25 0 47.5 -9t39.5 -25t26.5 -37.5t9.5 -45.5q0 -29 -13 -53t-35 -40l249 -683q3 -7 1.5 -12.5t-9.5 -9t-23.5 -5t-42.5 -1.5h-12q-25 0 -41 1.5t-26 4t-14.5 6.5t-6.5 10l-54 157h-201l-52 -157q-2 -6 -6 -10t-13 -6.5
t-25 -4t-41 -1.5h-12q-51 0 -63.5 5.5t-6.5 21.5l247 686q-21 17 -33.5 40.5t-12.5 50.5zM301 804q0 -14 9.5 -23.5t23.5 -9.5t23 9.5t9 23.5t-9 23.5t-23 9.5t-23.5 -9.5t-9.5 -23.5zM270 302h119l-12 44q-11 40 -21 86.5t-24 115.5q-13 -69 -24 -115.5t-24 -86.5z
M429 1148q20 0 30.5 -2t14 -6t1.5 -9.5t-7 -11.5l-125 -157q-6 -8 -16.5 -11t-35.5 -3h-37q-29 0 -37.5 6t1.5 21l103 158q3 5 6.5 8t9.5 4.5t16.5 2t28.5 0.5h47z" />
    <glyph glyph-name="Aogonek" unicode="&#x104;" horiz-adv-x="668" 
d="M328 720q-24 0 -38.5 -1t-23 -3t-12.5 -6.5t-6 -10.5l-238 -672q-6 -16 6.5 -21.5t63.5 -5.5h12q25 0 41 1.5t25 4t13 6.5t6 10l52 157h201l60 -169q-35 -22 -59 -59t-24 -81q0 -50 32.5 -83t101.5 -33q25 0 50.5 7t43.5 18q8 5 7.5 14t-8.5 32l-3 9q-9 26 -14 30.5
t-13 1.5q-11 -5 -19.5 -7.5t-19.5 -2.5q-17 0 -25.5 10.5t-8.5 27.5q0 39 33 68t80 43q12 4 14.5 9.5t-0.5 13.5l-241 671q-2 6 -6 10.5t-13 6.5t-23.5 3t-38.5 1h-8zM284 346q13 40 24 86.5t24 115.5q14 -69 24 -115.5t21 -86.5l12 -44h-119z" />
    <glyph glyph-name="AE" unicode="&#xc6;" horiz-adv-x="979" 
d="M473 22q0 -14 10.5 -18t48.5 -4h376q13 0 18 10.5t5 51.5v7q0 22 -1 34t-3 18t-7 7t-12 1h-264v170h219q7 0 11.5 2t7 8t3.5 18t1 33v8q0 22 -1 34t-3 18t-7 7t-12 1h-219v163h260q7 0 11.5 1.5t7 8t3.5 18.5t1 33v8q0 22 -1 34t-3 18t-7 7t-12 1h-418q-20 0 -31.5 -1
t-19 -3.5t-11.5 -6t-7 -9.5l-414 -672q-5 -8 -5.5 -13t6 -8.5t22 -5t42.5 -1.5h24q43 0 60.5 5t24.5 16l88 149h208v-148zM340 292l68 120q15 26 31 58.5t34 74.5v-253h-133z" />
    <glyph glyph-name="AEacute" unicode="&#x1fc;" horiz-adv-x="979" 
d="M473 22q0 -14 10.5 -18t48.5 -4h376q13 0 18 10.5t5 51.5v7q0 22 -1 34t-3 18t-7 7t-12 1h-264v170h219q7 0 11.5 2t7 8t3.5 18t1 33v8q0 22 -1 34t-3 18t-7 7t-12 1h-219v163h260q7 0 11.5 1.5t7 8t3.5 18.5t1 33v8q0 22 -1 34t-3 18t-7 7t-12 1h-418q-20 0 -31.5 -1
t-19 -3.5t-11.5 -6t-7 -9.5l-414 -672q-5 -8 -5.5 -13t6 -8.5t22 -5t42.5 -1.5h24q43 0 60.5 5t24.5 16l88 149h208v-148zM340 292l68 120q15 26 31 58.5t34 74.5v-253h-133zM728 984q-18 0 -28.5 -0.5t-16.5 -2t-9.5 -4.5t-6.5 -8l-103 -158q-10 -15 -1.5 -21t37.5 -6h37
q25 0 35.5 3t16.5 11l125 157q5 6 7 11.5t-1.5 9.5t-14 6t-30.5 2h-47z" />
    <glyph glyph-name="Cacute" unicode="&#x106;" horiz-adv-x="599" 
d="M551 608q17 29 19.5 39.5t-9.5 19.5q-39 30 -90.5 46.5t-114.5 16.5q-76 0 -136 -27.5t-101.5 -77t-63.5 -119t-22 -153.5t21 -151.5t60.5 -114.5t98 -72t133.5 -25q64 0 114.5 15t94.5 42q13 8 11.5 18.5t-13.5 37.5l-10 23q-14 31 -21 37.5t-21 -1.5q-34 -19 -68 -27.5
t-66 -8.5q-79 0 -119 60.5t-40 170.5q0 118 43.5 178t118.5 60q35 0 62.5 -11t59.5 -31q11 -8 20.5 -0.5t25.5 33.5zM418 984q-18 0 -28.5 -0.5t-16.5 -2t-9.5 -4.5t-6.5 -8l-103 -158q-10 -15 -1.5 -21t37.5 -6h37q25 0 35.5 3t16.5 11l125 157q5 6 7 11.5t-1.5 9.5t-14 6
t-30.5 2h-47z" />
    <glyph glyph-name="Ccedilla" unicode="&#xc7;" horiz-adv-x="599" 
d="M551 608q17 29 19.5 39.5t-9.5 19.5q-39 30 -90.5 46.5t-114.5 16.5q-76 0 -136 -27.5t-101.5 -77t-63.5 -119t-22 -153.5q0 -149 62 -241.5t180 -114.5l-16 -110q15 4 30.5 5.5t28.5 1.5q16 0 28.5 -4.5t12.5 -19.5q0 -28 -34 -28q-11 0 -25.5 2.5t-22.5 4.5
q-9 2 -14 -2.5t-11 -27.5l-3 -11q-7 -24 -5 -29t10 -8q17 -6 38 -10t47 -4q35 0 60 9.5t41.5 25t24.5 36t8 42.5q0 25 -9 42.5t-25 29t-36.5 16t-43.5 4.5l2 28q59 2 105.5 16.5t88.5 40.5q13 8 11.5 18.5t-13.5 37.5l-10 23q-14 31 -21 37.5t-21 -1.5q-34 -19 -68 -27.5
t-66 -8.5q-79 0 -119 60.5t-40 170.5q0 118 43.5 178t118.5 60q35 0 62.5 -11t59.5 -31q11 -8 20.5 -0.5t25.5 33.5z" />
    <glyph glyph-name="Ccircumflex" unicode="&#x108;" horiz-adv-x="599" 
d="M551 608q17 29 19.5 39.5t-9.5 19.5q-39 30 -90.5 46.5t-114.5 16.5q-76 0 -136 -27.5t-101.5 -77t-63.5 -119t-22 -153.5t21 -151.5t60.5 -114.5t98 -72t133.5 -25q64 0 114.5 15t94.5 42q13 8 11.5 18.5t-13.5 37.5l-10 23q-14 31 -21 37.5t-21 -1.5q-34 -19 -68 -27.5
t-66 -8.5q-79 0 -119 60.5t-40 170.5q0 118 43.5 178t118.5 60q35 0 62.5 -11t59.5 -31q11 -8 20.5 -0.5t25.5 33.5zM359 870l89 -77q9 -8 19 -5.5t31 23.5l10 10q17 17 20.5 25.5t-3.5 15.5l-88 92q-7 7 -12.5 11t-13 6t-18.5 3t-28 1h-12q-17 0 -28 -1t-18.5 -3t-13 -6
t-12.5 -11l-88 -92q-7 -7 -3.5 -15.5t20.5 -25.5l10 -10q21 -21 31 -23.5t19 5.5z" />
    <glyph glyph-name="Ccaron" unicode="&#x10c;" horiz-adv-x="599" 
d="M551 608q17 29 19.5 39.5t-9.5 19.5q-39 30 -90.5 46.5t-114.5 16.5q-76 0 -136 -27.5t-101.5 -77t-63.5 -119t-22 -153.5t21 -151.5t60.5 -114.5t98 -72t133.5 -25q64 0 114.5 15t94.5 42q13 8 11.5 18.5t-13.5 37.5l-10 23q-14 31 -21 37.5t-21 -1.5q-34 -19 -68 -27.5
t-66 -8.5q-79 0 -119 60.5t-40 170.5q0 118 43.5 178t118.5 60q35 0 62.5 -11t59.5 -31q11 -8 20.5 -0.5t25.5 33.5zM268 966q-9 8 -19 5.5t-31 -23.5l-10 -10q-17 -17 -20.5 -25.5t3.5 -15.5l90 -95q7 -7 12.5 -11t13 -6.5t18.5 -3t28 -0.5h12q17 0 28 0.5t18.5 3t13 6.5
t12.5 11l91 95q7 7 3.5 15.5t-20.5 25.5l-10 10q-21 21 -31 23.5t-19 -5.5l-92 -80z" />
    <glyph glyph-name="Cdotaccent" unicode="&#x10a;" horiz-adv-x="599" 
d="M551 608q17 29 19.5 39.5t-9.5 19.5q-39 30 -90.5 46.5t-114.5 16.5q-76 0 -136 -27.5t-101.5 -77t-63.5 -119t-22 -153.5t21 -151.5t60.5 -114.5t98 -72t133.5 -25q64 0 114.5 15t94.5 42q13 8 11.5 18.5t-13.5 37.5l-10 23q-14 31 -21 37.5t-21 -1.5q-34 -19 -68 -27.5
t-66 -8.5q-79 0 -119 60.5t-40 170.5q0 118 43.5 178t118.5 60q35 0 62.5 -11t59.5 -31q11 -8 20.5 -0.5t25.5 33.5zM276 854q0 -35 24 -58t60 -23q35 0 59 23t24 58t-24 58t-59 23q-36 0 -60 -23t-24 -58z" />
    <glyph glyph-name="Dcaron" unicode="&#x10e;" horiz-adv-x="683" 
d="M241 591h35q58 0 96 -14.5t61 -43.5q24 -30 33 -72.5t9 -99.5q0 -60 -10.5 -105t-36.5 -74q-47 -53 -151 -53h-36v462zM128 720q-38 0 -48 -4t-10 -19v-675q0 -14 10 -18t48 -4h140q96 0 164 18.5t116 64.5q50 49 76 120t26 158q0 91 -23.5 157.5t-68.5 109.5
q-49 48 -116.5 70t-171.5 22h-142zM250 966q-9 8 -19 5.5t-31 -23.5l-10 -10q-17 -17 -20.5 -25.5t3.5 -15.5l90 -95q7 -7 12.5 -11t13 -6.5t18.5 -3t28 -0.5h12q17 0 28 0.5t18.5 3t13 6.5t12.5 11l91 95q7 7 3.5 15.5t-20.5 25.5l-10 10q-21 21 -31 23.5t-19 -5.5l-92 -80
z" />
    <glyph glyph-name="Dcroat" unicode="&#x110;" horiz-adv-x="693" 
d="M138 720q-38 0 -48 -4t-10 -19v-271h-49q-15 0 -21.5 -10t-6.5 -47v-10q0 -19 1.5 -30t5 -17t8.5 -8t13 -2h49v-280q0 -14 10 -18t48 -4h140q96 0 164 18.5t116 64.5q50 49 76 120t26 158q0 91 -23.5 157.5t-68.5 109.5q-49 48 -116.5 70t-171.5 22h-142zM251 591h35
q58 0 96 -14.5t61 -43.5q24 -30 33 -72.5t9 -99.5q0 -60 -10.5 -105t-36.5 -74q-47 -53 -151 -53h-36v173h79q8 0 13.5 2t9 8t5 17t1.5 30v10q0 37 -6.5 47t-22.5 10h-79v165z" />
    <glyph glyph-name="Eth" unicode="&#xd0;" horiz-adv-x="693" 
d="M138 720q-38 0 -48 -4t-10 -19v-271h-49q-15 0 -21.5 -10t-6.5 -47v-10q0 -19 1.5 -30t5 -17t8.5 -8t13 -2h49v-280q0 -14 10 -18t48 -4h140q96 0 164 18.5t116 64.5q50 49 76 120t26 158q0 91 -23.5 157.5t-68.5 109.5q-49 48 -116.5 70t-171.5 22h-142zM251 591h35
q58 0 96 -14.5t61 -43.5q24 -30 33 -72.5t9 -99.5q0 -60 -10.5 -105t-36.5 -74q-47 -53 -151 -53h-36v173h79q8 0 13.5 2t9 8t5 17t1.5 30v10q0 37 -6.5 47t-22.5 10h-79v165z" />
    <glyph glyph-name="Egrave" unicode="&#xc8;" horiz-adv-x="576" 
d="M129 720q-38 0 -48.5 -4t-10.5 -19v-675q0 -14 10.5 -18t48.5 -4h376q13 0 18 10.5t5 51.5v7q0 22 -1 34t-3 18t-7 7t-12 1h-264v170h219q7 0 11.5 2t7 8t3.5 18t1 33v8q0 22 -1 34t-3 18t-7 7t-12 1h-219v163h260q7 0 11.5 1.5t7 8t3.5 18.5t1 33v8q0 22 -1 34t-3 18
t-7 7t-12 1h-372zM198 984q-35 0 -42 -8t3 -21l125 -157q6 -8 16.5 -11t35.5 -3h37q29 0 37.5 6t-1.5 21l-103 158q-3 5 -6.5 8t-9.5 4.5t-16.5 2t-28.5 0.5h-47z" />
    <glyph glyph-name="Eacute" unicode="&#xc9;" horiz-adv-x="576" 
d="M129 720q-38 0 -48.5 -4t-10.5 -19v-675q0 -14 10.5 -18t48.5 -4h376q13 0 18 10.5t5 51.5v7q0 22 -1 34t-3 18t-7 7t-12 1h-264v170h219q7 0 11.5 2t7 8t3.5 18t1 33v8q0 22 -1 34t-3 18t-7 7t-12 1h-219v163h260q7 0 11.5 1.5t7 8t3.5 18.5t1 33v8q0 22 -1 34t-3 18
t-7 7t-12 1h-372zM384 984q-18 0 -28.5 -0.5t-16.5 -2t-9.5 -4.5t-6.5 -8l-103 -158q-10 -15 -1.5 -21t37.5 -6h37q25 0 35.5 3t16.5 11l125 157q5 6 7 11.5t-1.5 9.5t-14 6t-30.5 2h-47z" />
    <glyph glyph-name="Ecircumflex" unicode="&#xca;" horiz-adv-x="576" 
d="M129 720q-38 0 -48.5 -4t-10.5 -19v-675q0 -14 10.5 -18t48.5 -4h376q13 0 18 10.5t5 51.5v7q0 22 -1 34t-3 18t-7 7t-12 1h-264v170h219q7 0 11.5 2t7 8t3.5 18t1 33v8q0 22 -1 34t-3 18t-7 7t-12 1h-219v163h260q7 0 11.5 1.5t7 8t3.5 18.5t1 33v8q0 22 -1 34t-3 18
t-7 7t-12 1h-372zM303 870l89 -77q9 -8 19 -5.5t31 23.5l10 10q17 17 20.5 25.5t-3.5 15.5l-88 92q-7 7 -12.5 11t-13 6t-18.5 3t-28 1h-12q-17 0 -28 -1t-18.5 -3t-13 -6t-12.5 -11l-88 -92q-7 -7 -3.5 -15.5t20.5 -25.5l10 -10q21 -21 31 -23.5t19 5.5z" />
    <glyph glyph-name="Ecaron" unicode="&#x11a;" horiz-adv-x="576" 
d="M129 720q-38 0 -48.5 -4t-10.5 -19v-675q0 -14 10.5 -18t48.5 -4h376q13 0 18 10.5t5 51.5v7q0 22 -1 34t-3 18t-7 7t-12 1h-264v170h219q7 0 11.5 2t7 8t3.5 18t1 33v8q0 22 -1 34t-3 18t-7 7t-12 1h-219v163h260q7 0 11.5 1.5t7 8t3.5 18.5t1 33v8q0 22 -1 34t-3 18
t-7 7t-12 1h-372zM216 966q-9 8 -19 5.5t-31 -23.5l-10 -10q-17 -17 -20.5 -25.5t3.5 -15.5l90 -95q7 -7 12.5 -11t13 -6.5t18.5 -3t28 -0.5h12q17 0 28 0.5t18.5 3t13 6.5t12.5 11l91 95q7 7 3.5 15.5t-20.5 25.5l-10 10q-21 21 -31 23.5t-19 -5.5l-92 -80z" />
    <glyph glyph-name="Edieresis" unicode="&#xcb;" horiz-adv-x="576" 
d="M129 720q-38 0 -48.5 -4t-10.5 -19v-675q0 -14 10.5 -18t48.5 -4h376q13 0 18 10.5t5 51.5v7q0 22 -1 34t-3 18t-7 7t-12 1h-264v170h219q7 0 11.5 2t7 8t3.5 18t1 33v8q0 22 -1 34t-3 18t-7 7t-12 1h-219v163h260q7 0 11.5 1.5t7 8t3.5 18.5t1 33v8q0 22 -1 34t-3 18
t-7 7t-12 1h-372zM104 871q0 -35 23.5 -58t62.5 -23q36 0 60.5 23t24.5 58t-24.5 58.5t-60.5 23.5q-39 0 -62.5 -23.5t-23.5 -58.5zM321 871q0 -35 23.5 -58t62.5 -23q36 0 60.5 23t24.5 58t-24.5 58.5t-60.5 23.5q-39 0 -62.5 -23.5t-23.5 -58.5z" />
    <glyph glyph-name="Emacron" unicode="&#x112;" horiz-adv-x="576" 
d="M129 720q-38 0 -48.5 -4t-10.5 -19v-675q0 -14 10.5 -18t48.5 -4h376q13 0 18 10.5t5 51.5v7q0 22 -1 34t-3 18t-7 7t-12 1h-264v170h219q7 0 11.5 2t7 8t3.5 18t1 33v8q0 22 -1 34t-3 18t-7 7t-12 1h-219v163h260q7 0 11.5 1.5t7 8t3.5 18.5t1 33v8q0 22 -1 34t-3 18
t-7 7t-12 1h-372zM158 927q-8 0 -11 -10t-3 -41v-7q0 -30 3 -40.5t11 -10.5h280q7 0 11 10.5t4 40.5v7q0 31 -4 41t-11 10h-280z" />
    <glyph glyph-name="Ebreve" unicode="&#x114;" horiz-adv-x="576" 
d="M129 720q-38 0 -48.5 -4t-10.5 -19v-675q0 -14 10.5 -18t48.5 -4h376q13 0 18 10.5t5 51.5v7q0 22 -1 34t-3 18t-7 7t-12 1h-264v170h219q7 0 11.5 2t7 8t3.5 18t1 33v8q0 22 -1 34t-3 18t-7 7t-12 1h-219v163h260q7 0 11.5 1.5t7 8t3.5 18.5t1 33v8q0 22 -1 34t-3 18
t-7 7t-12 1h-372zM195 942q-34 0 -44.5 -3.5t-9.5 -17.5q3 -69 46.5 -107t118.5 -38t118.5 38t46.5 107q1 14 -9 17.5t-44 3.5h-14q-30 0 -40 -5t-11 -13q-2 -26 -14.5 -37.5t-32.5 -11.5t-32 11.5t-14 37.5q-1 8 -10.5 13t-40.5 5h-14z" />
    <glyph glyph-name="Edotaccent" unicode="&#x116;" horiz-adv-x="576" 
d="M129 720q-38 0 -48.5 -4t-10.5 -19v-675q0 -14 10.5 -18t48.5 -4h376q13 0 18 10.5t5 51.5v7q0 22 -1 34t-3 18t-7 7t-12 1h-264v170h219q7 0 11.5 2t7 8t3.5 18t1 33v8q0 22 -1 34t-3 18t-7 7t-12 1h-219v163h260q7 0 11.5 1.5t7 8t3.5 18.5t1 33v8q0 22 -1 34t-3 18
t-7 7t-12 1h-372zM224 854q0 -35 24 -58t60 -23q35 0 59 23t24 58t-24 58t-59 23q-36 0 -60 -23t-24 -58z" />
    <glyph glyph-name="Eogonek" unicode="&#x118;" horiz-adv-x="576" 
d="M129 720q-38 0 -48.5 -4t-10.5 -19v-675q0 -14 10.5 -18t48.5 -4h218q-31 -22 -51 -56.5t-20 -73.5q0 -54 36 -85t98 -31q24 0 50 7t44 18q8 5 7.5 14t-8.5 32l-3 9q-8 24 -13.5 29t-13.5 2q-10 -4 -19 -6.5t-18 -2.5q-18 0 -27 11t-9 30q0 30 24.5 56.5t78.5 46.5
q15 6 20 16t5 46v7q0 22 -1 34t-3 18t-7 7t-12 1h-264v170h219q7 0 11.5 2t7 8t3.5 18t1 33v8q0 22 -1 34t-3 18t-7 7t-12 1h-219v163h260q7 0 11.5 1.5t7 8t3.5 18.5t1 33v8q0 20 -1 32t-3 18t-7 8t-12 2h-372z" />
    <glyph glyph-name="Gcircumflex" unicode="&#x11c;" horiz-adv-x="677" 
d="M343 411q-6 0 -10.5 -1.5t-6.5 -7.5t-3 -18t-1 -33v-8q0 -21 1 -33.5t3 -18.5t6.5 -7.5t10.5 -1.5h99v-149q-35 -9 -69 -9q-86 0 -125.5 60.5t-39.5 176.5q0 115 44 174.5t129 59.5q38 0 69.5 -12t63.5 -34q7 -5 12 -7t11 1t13 11.5t17 25.5l12 20q10 17 15 27.5t6 17.5
t-2.5 11t-10.5 9q-42 30 -95.5 47.5t-120.5 17.5q-75 0 -137.5 -24.5t-106.5 -71.5q-45 -50 -69.5 -118.5t-24.5 -155.5q0 -175 82.5 -272.5t243.5 -97.5q33 0 66 3.5t64 10t58 15t47 19.5q14 7 16.5 13.5t2.5 14.5v322q0 15 -8 19t-42 4h-220zM372 870l89 -77q9 -8 19 -5.5
t31 23.5l10 10q17 17 20.5 25.5t-3.5 15.5l-88 92q-7 7 -12.5 11t-13 6t-18.5 3t-28 1h-12q-17 0 -28 -1t-18.5 -3t-13 -6t-12.5 -11l-88 -92q-7 -7 -3.5 -15.5t20.5 -25.5l10 -10q21 -21 31 -23.5t19 5.5z" />
    <glyph glyph-name="Gbreve" unicode="&#x11e;" horiz-adv-x="677" 
d="M343 411q-6 0 -10.5 -1.5t-6.5 -7.5t-3 -18t-1 -33v-8q0 -21 1 -33.5t3 -18.5t6.5 -7.5t10.5 -1.5h99v-149q-35 -9 -69 -9q-86 0 -125.5 60.5t-39.5 176.5q0 115 44 174.5t129 59.5q38 0 69.5 -12t63.5 -34q7 -5 12 -7t11 1t13 11.5t17 25.5l12 20q10 17 15 27.5t6 17.5
t-2.5 11t-10.5 9q-42 30 -95.5 47.5t-120.5 17.5q-75 0 -137.5 -24.5t-106.5 -71.5q-45 -50 -69.5 -118.5t-24.5 -155.5q0 -175 82.5 -272.5t243.5 -97.5q33 0 66 3.5t64 10t58 15t47 19.5q14 7 16.5 13.5t2.5 14.5v322q0 15 -8 19t-42 4h-220zM261 942q-34 0 -44.5 -3.5
t-9.5 -17.5q3 -69 46.5 -107t118.5 -38t118.5 38t46.5 107q1 14 -9 17.5t-44 3.5h-14q-30 0 -40 -5t-11 -13q-2 -26 -14.5 -37.5t-32.5 -11.5t-32 11.5t-14 37.5q-1 8 -10.5 13t-40.5 5h-14z" />
    <glyph glyph-name="Gdotaccent" unicode="&#x120;" horiz-adv-x="677" 
d="M343 411q-6 0 -10.5 -1.5t-6.5 -7.5t-3 -18t-1 -33v-8q0 -21 1 -33.5t3 -18.5t6.5 -7.5t10.5 -1.5h99v-149q-35 -9 -69 -9q-86 0 -125.5 60.5t-39.5 176.5q0 115 44 174.5t129 59.5q38 0 69.5 -12t63.5 -34q7 -5 12 -7t11 1t13 11.5t17 25.5l12 20q10 17 15 27.5t6 17.5
t-2.5 11t-10.5 9q-42 30 -95.5 47.5t-120.5 17.5q-75 0 -137.5 -24.5t-106.5 -71.5q-45 -50 -69.5 -118.5t-24.5 -155.5q0 -175 82.5 -272.5t243.5 -97.5q33 0 66 3.5t64 10t58 15t47 19.5q14 7 16.5 13.5t2.5 14.5v322q0 15 -8 19t-42 4h-220zM290 854q0 -35 24 -58t60 -23
q35 0 59 23t24 58t-24 58t-59 23q-36 0 -60 -23t-24 -58z" />
    <glyph glyph-name="Gcommaaccent" unicode="&#x122;" horiz-adv-x="677" 
d="M343 411q-6 0 -10.5 -1.5t-6.5 -7.5t-3 -18t-1 -33v-8q0 -21 1 -33.5t3 -18.5t6.5 -7.5t10.5 -1.5h99v-149q-35 -9 -69 -9q-86 0 -125.5 60.5t-39.5 176.5q0 115 44 174.5t129 59.5q38 0 69.5 -12t63.5 -34q7 -5 12 -7t11 1t13 11.5t17 25.5l12 20q10 17 15 27.5t6 17.5
t-2.5 11t-10.5 9q-42 30 -95.5 47.5t-120.5 17.5q-75 0 -137.5 -24.5t-106.5 -71.5q-45 -50 -69.5 -118.5t-24.5 -155.5q0 -175 82.5 -272.5t243.5 -97.5q33 0 66 3.5t64 10t58 15t47 19.5q14 7 16.5 13.5t2.5 14.5v322q0 15 -8 19t-42 4h-220zM296 -320q14 -12 20.5 -12
t12.5 5q49 40 78.5 92.5t29.5 100.5q0 40 -22 62.5t-55 22.5q-31 0 -50.5 -17t-19.5 -43q0 -14 5.5 -24t12 -19t12 -18t5.5 -21q0 -18 -12.5 -43.5t-35.5 -53.5q-4 -5 -1.5 -10.5t14.5 -16.5z" />
    <glyph glyph-name="Hcircumflex" unicode="&#x124;" horiz-adv-x="700" 
d="M149 720q-26 0 -41.5 -1t-23.5 -3.5t-11 -7t-3 -11.5v-675q0 -6 3 -10.5t11 -7t23.5 -3.5t41.5 -1h10q48 0 65 4.5t17 17.5v277h218v-277q0 -6 3 -10.5t11.5 -7t24 -3.5t40.5 -1h11q47 0 64 4.5t17 17.5v675q0 14 -16.5 18.5t-64.5 4.5h-11q-50 0 -64.5 -5t-14.5 -18
v-269h-218v269q0 14 -17 18.5t-65 4.5h-10zM350 870l89 -77q9 -8 19 -5.5t31 23.5l10 10q17 17 20.5 25.5t-3.5 15.5l-88 92q-7 7 -12.5 11t-13 6t-18.5 3t-28 1h-12q-17 0 -28 -1t-18.5 -3t-13 -6t-12.5 -11l-88 -92q-7 -7 -3.5 -15.5t20.5 -25.5l10 -10q21 -21 31 -23.5
t19 5.5z" />
    <glyph glyph-name="Hbar" unicode="&#x126;" horiz-adv-x="720" 
d="M80 635h-49q-15 0 -21.5 -10t-6.5 -47v-10q0 -19 1.5 -30t5 -17t8.5 -8t13 -2h49v-489q0 -6 3 -10.5t11 -7t23.5 -3.5t41.5 -1h10q48 0 65 4.5t17 17.5v277h218v-277q0 -6 3 -10.5t11.5 -7t24 -3.5t40.5 -1h11q47 0 64 4.5t17 17.5v489h49q7 0 12.5 2t9 8t5 17t1.5 30v10
q0 37 -6.5 47t-21.5 10h-49v62q0 14 -16.5 18.5t-64.5 4.5h-11q-50 0 -64.5 -5t-14.5 -18v-62h-218v62q0 14 -17 18.5t-65 4.5h-10q-26 0 -41.5 -1t-23.5 -3.5t-11 -7t-3 -11.5v-62zM251 428v83h218v-83h-218z" />
    <glyph glyph-name="Igrave" unicode="&#xcc;" horiz-adv-x="429" 
d="M300 113v494h60q11 0 13.5 8.5t2.5 44.5v5q0 19 -0.5 30.5t-2 16.5t-5 6.5t-8.5 1.5h-291q-5 0 -8.5 -1.5t-5 -7t-2 -17t-0.5 -30.5v-5q0 -18 0.5 -28.5t2 -15.5t5 -6.5t8.5 -1.5h60v-494h-60q-5 0 -8.5 -1.5t-5 -6.5t-2 -15.5t-0.5 -28.5v-5q0 -20 0.5 -31t2 -16.5t5 -7
t8.5 -1.5h291q5 0 8.5 1.5t5 7t2 16.5t0.5 31v5q0 36 -3 44t-13 8h-60zM99 984q-35 0 -42 -8t3 -21l125 -157q6 -8 16.5 -11t35.5 -3h37q29 0 37.5 6t-1.5 21l-103 158q-3 5 -6.5 8t-9.5 4.5t-16.5 2t-28.5 0.5h-47z" />
    <glyph glyph-name="Iacute" unicode="&#xcd;" horiz-adv-x="429" 
d="M300 113v494h60q11 0 13.5 8.5t2.5 44.5v5q0 19 -0.5 30.5t-2 16.5t-5 6.5t-8.5 1.5h-291q-5 0 -8.5 -1.5t-5 -7t-2 -17t-0.5 -30.5v-5q0 -18 0.5 -28.5t2 -15.5t5 -6.5t8.5 -1.5h60v-494h-60q-5 0 -8.5 -1.5t-5 -6.5t-2 -15.5t-0.5 -28.5v-5q0 -20 0.5 -31t2 -16.5t5 -7
t8.5 -1.5h291q5 0 8.5 1.5t5 7t2 16.5t0.5 31v5q0 36 -3 44t-13 8h-60zM300 984q-18 0 -28.5 -0.5t-16.5 -2t-9.5 -4.5t-6.5 -8l-103 -158q-10 -15 -1.5 -21t37.5 -6h37q25 0 35.5 3t16.5 11l125 157q5 6 7 11.5t-1.5 9.5t-14 6t-30.5 2h-47z" />
    <glyph glyph-name="Icircumflex" unicode="&#xce;" horiz-adv-x="429" 
d="M300 113v494h60q11 0 13.5 8.5t2.5 44.5v5q0 19 -0.5 30.5t-2 16.5t-5 6.5t-8.5 1.5h-291q-5 0 -8.5 -1.5t-5 -7t-2 -17t-0.5 -30.5v-5q0 -18 0.5 -28.5t2 -15.5t5 -6.5t8.5 -1.5h60v-494h-60q-5 0 -8.5 -1.5t-5 -6.5t-2 -15.5t-0.5 -28.5v-5q0 -20 0.5 -31t2 -16.5t5 -7
t8.5 -1.5h291q5 0 8.5 1.5t5 7t2 16.5t0.5 31v5q0 36 -3 44t-13 8h-60zM215 870l89 -77q9 -8 19 -5.5t31 23.5l10 10q17 17 20.5 25.5t-3.5 15.5l-88 92q-7 7 -12.5 11t-13 6t-18.5 3t-28 1h-12q-17 0 -28 -1t-18.5 -3t-13 -6t-12.5 -11l-88 -92q-7 -7 -3.5 -15.5
t20.5 -25.5l10 -10q21 -21 31 -23.5t19 5.5z" />
    <glyph glyph-name="Itilde" unicode="&#x128;" horiz-adv-x="429" 
d="M300 113v494h60q11 0 13.5 8.5t2.5 44.5v5q0 19 -0.5 30.5t-2 16.5t-5 6.5t-8.5 1.5h-291q-5 0 -8.5 -1.5t-5 -7t-2 -17t-0.5 -30.5v-5q0 -18 0.5 -28.5t2 -15.5t5 -6.5t8.5 -1.5h60v-494h-60q-5 0 -8.5 -1.5t-5 -6.5t-2 -15.5t-0.5 -28.5v-5q0 -20 0.5 -31t2 -16.5t5 -7
t8.5 -1.5h291q5 0 8.5 1.5t5 7t2 16.5t0.5 31v5q0 36 -3 44t-13 8h-60zM55 835q23 -23 33 -26t18 5q11 14 22.5 23t25.5 9q12 0 23 -4.5t28 -13.5q15 -8 33.5 -13t38.5 -5q31 0 61 17t56 49q9 11 3.5 18.5t-22.5 25.5l-6 6q-22 22 -29.5 24.5t-15.5 -5.5
q-14 -13 -26.5 -21.5t-25.5 -8.5q-14 0 -24.5 5t-23.5 11q-14 7 -31 12.5t-41 5.5q-38 0 -70 -21t-51 -47q-6 -8 -3 -15.5t23 -26.5z" />
    <glyph glyph-name="Idieresis" unicode="&#xcf;" horiz-adv-x="429" 
d="M300 113v494h60q11 0 13.5 8.5t2.5 44.5v5q0 19 -0.5 30.5t-2 16.5t-5 6.5t-8.5 1.5h-291q-5 0 -8.5 -1.5t-5 -7t-2 -17t-0.5 -30.5v-5q0 -18 0.5 -28.5t2 -15.5t5 -6.5t8.5 -1.5h60v-494h-60q-5 0 -8.5 -1.5t-5 -6.5t-2 -15.5t-0.5 -28.5v-5q0 -20 0.5 -31t2 -16.5t5 -7
t8.5 -1.5h291q5 0 8.5 1.5t5 7t2 16.5t0.5 31v5q0 36 -3 44t-13 8h-60zM22 871q0 -35 23.5 -58t62.5 -23q36 0 60.5 23t24.5 58t-24.5 58.5t-60.5 23.5q-39 0 -62.5 -23.5t-23.5 -58.5zM239 871q0 -35 23.5 -58t62.5 -23q36 0 60.5 23t24.5 58t-24.5 58.5t-60.5 23.5
q-39 0 -62.5 -23.5t-23.5 -58.5z" />
    <glyph glyph-name="Imacron" unicode="&#x12a;" horiz-adv-x="429" 
d="M300 113v494h60q11 0 13.5 8.5t2.5 44.5v5q0 19 -0.5 30.5t-2 16.5t-5 6.5t-8.5 1.5h-291q-5 0 -8.5 -1.5t-5 -7t-2 -17t-0.5 -30.5v-5q0 -18 0.5 -28.5t2 -15.5t5 -6.5t8.5 -1.5h60v-494h-60q-5 0 -8.5 -1.5t-5 -6.5t-2 -15.5t-0.5 -28.5v-5q0 -20 0.5 -31t2 -16.5t5 -7
t8.5 -1.5h291q5 0 8.5 1.5t5 7t2 16.5t0.5 31v5q0 36 -3 44t-13 8h-60zM74 927q-8 0 -11 -10t-3 -41v-7q0 -30 3 -40.5t11 -10.5h280q7 0 11 10.5t4 40.5v7q0 31 -4 41t-11 10h-280z" />
    <glyph glyph-name="Ibreve" unicode="&#x12c;" horiz-adv-x="429" 
d="M300 113v494h60q11 0 13.5 8.5t2.5 44.5v5q0 19 -0.5 30.5t-2 16.5t-5 6.5t-8.5 1.5h-291q-5 0 -8.5 -1.5t-5 -7t-2 -17t-0.5 -30.5v-5q0 -18 0.5 -28.5t2 -15.5t5 -6.5t8.5 -1.5h60v-494h-60q-5 0 -8.5 -1.5t-5 -6.5t-2 -15.5t-0.5 -28.5v-5q0 -20 0.5 -31t2 -16.5t5 -7
t8.5 -1.5h291q5 0 8.5 1.5t5 7t2 16.5t0.5 31v5q0 36 -3 44t-13 8h-60zM103 942q-34 0 -44.5 -3.5t-9.5 -17.5q3 -69 46.5 -107t118.5 -38t118.5 38t46.5 107q1 14 -9 17.5t-44 3.5h-14q-30 0 -40 -5t-11 -13q-2 -26 -14.5 -37.5t-32.5 -11.5t-32 11.5t-14 37.5
q-1 8 -10.5 13t-40.5 5h-14z" />
    <glyph glyph-name="Idotaccent" unicode="&#x130;" horiz-adv-x="429" 
d="M300 113v494h60q11 0 13.5 8.5t2.5 44.5v5q0 19 -0.5 30.5t-2 16.5t-5 6.5t-8.5 1.5h-291q-5 0 -8.5 -1.5t-5 -7t-2 -17t-0.5 -30.5v-5q0 -18 0.5 -28.5t2 -15.5t5 -6.5t8.5 -1.5h60v-494h-60q-5 0 -8.5 -1.5t-5 -6.5t-2 -15.5t-0.5 -28.5v-5q0 -20 0.5 -31t2 -16.5t5 -7
t8.5 -1.5h291q5 0 8.5 1.5t5 7t2 16.5t0.5 31v5q0 36 -3 44t-13 8h-60zM131 854q0 -35 24 -58t60 -23q35 0 59 23t24 58t-24 58t-59 23q-36 0 -60 -23t-24 -58z" />
    <glyph glyph-name="Iogonek" unicode="&#x12e;" horiz-adv-x="429" 
d="M300 113v494h60q11 0 13.5 8.5t2.5 44.5v5q0 19 -0.5 30.5t-2 16.5t-5 6.5t-8.5 1.5h-291q-5 0 -8.5 -1.5t-5 -7t-2 -17t-0.5 -30.5v-5q0 -18 0.5 -28.5t2 -15.5t5 -6.5t8.5 -1.5h60v-494h-60q-5 0 -8.5 -1.5t-5 -6.5t-2 -15.5t-0.5 -28.5v-5q0 -20 0.5 -31t2 -16.5t5 -7
t8.5 -1.5h97q-30 -20 -50 -54t-20 -73q0 -52 36 -85.5t98 -33.5q24 0 50 7t44 18q8 5 7.5 14t-8.5 32l-3 9q-8 24 -13.5 29t-13.5 2q-10 -4 -19 -6.5t-18 -2.5q-18 0 -27 11t-9 30q0 16 7.5 34.5t21.5 33.5q15 16 39.5 25.5t58.5 9.5h13q5 0 8.5 1.5t5 7t2 16.5t0.5 31v5
q0 36 -3 44t-13 8h-60z" />
    <glyph glyph-name="IJ" unicode="&#x132;" horiz-adv-x="915" 
d="M300 113v494h60q11 0 13.5 8.5t2.5 44.5v5q0 19 -0.5 30.5t-2 16.5t-5 6.5t-8.5 1.5h-291q-5 0 -8.5 -1.5t-5 -7t-2 -17t-0.5 -30.5v-5q0 -18 0.5 -28.5t2 -15.5t5 -6.5t8.5 -1.5h60v-494h-60q-5 0 -8.5 -1.5t-5 -6.5t-2 -15.5t-0.5 -28.5v-5q0 -20 0.5 -31t2 -16.5t5 -7
t8.5 -1.5h291q5 0 8.5 1.5t5 7t2 16.5t0.5 31v5q0 36 -3 44t-13 8h-60zM755 720q-25 0 -40.5 -1t-24 -4t-11.5 -7.5t-3 -10.5v-451q0 -36 -3 -60t-17 -40q-20 -22 -60 -22q-17 0 -41 5.5t-44 12.5q-17 5 -24 -5.5t-16 -40.5l-6 -20q-8 -27 -8 -40t13 -18q32 -14 70 -21
t74 -7q117 0 176 63q28 31 42.5 76.5t14.5 114.5v453q0 13 -16.5 18t-64.5 5h-11z" />
    <glyph glyph-name="Jcircumflex" unicode="&#x134;" horiz-adv-x="486" 
d="M326 720q-25 0 -40.5 -1t-24 -4t-11.5 -7.5t-3 -10.5v-451q0 -36 -3 -60t-17 -40q-20 -22 -60 -22q-17 0 -41 5.5t-44 12.5q-17 5 -24 -5.5t-16 -40.5l-6 -20q-8 -27 -8 -40t13 -18q32 -14 70 -21t74 -7q117 0 176 63q28 31 42.5 76.5t14.5 114.5v453q0 13 -16.5 18
t-64.5 5h-11zM334 870l89 -77q9 -8 19 -5.5t31 23.5l10 10q17 17 20.5 25.5t-3.5 15.5l-88 92q-7 7 -12.5 11t-13 6t-18.5 3t-28 1h-12q-17 0 -28 -1t-18.5 -3t-13 -6t-12.5 -11l-88 -92q-7 -7 -3.5 -15.5t20.5 -25.5l10 -10q21 -21 31 -23.5t19 5.5z" />
    <glyph glyph-name="Kcommaaccent" unicode="&#x136;" horiz-adv-x="634" 
d="M149 720q-26 0 -41.5 -1t-23.5 -4t-11 -7.5t-3 -10.5v-675q0 -6 3 -10.5t11 -7t23.5 -3.5t41.5 -1h10q48 0 65 5.5t17 16.5v243l29 30l159 -277q3 -6 7 -9.5t12 -5.5t24 -2.5t43 -0.5h29q49 0 60.5 7t2.5 22l-224 383q87 91 139 162t75 122q3 7 2.5 12t-8.5 7.5
t-24.5 3.5t-43.5 1h-11q-23 0 -36.5 -0.5t-21.5 -2.5t-12 -5t-7 -8q-33 -51 -78 -109.5t-105 -124.5l-11 -12v239q0 13 -17 18t-65 5h-10zM278 -320q14 -12 20.5 -12t12.5 5q49 40 78.5 92.5t29.5 100.5q0 40 -22 62.5t-55 22.5q-31 0 -50.5 -17t-19.5 -43q0 -14 5.5 -24
t12 -19t12 -18t5.5 -21q0 -18 -12.5 -43.5t-35.5 -53.5q-4 -5 -1.5 -10.5t14.5 -16.5z" />
    <glyph glyph-name="Lacute" unicode="&#x139;" horiz-adv-x="529" 
d="M149 720q-25 0 -40.5 -1t-24 -4t-11.5 -7.5t-3 -10.5v-675q0 -7 2 -11.5t8 -6.5t17.5 -3t30.5 -1h356q7 0 12 1.5t7 8t3 19t1 33.5v7q0 21 -1 33t-3 18t-7 7.5t-12 1.5h-243v568q0 13 -16.5 18t-64.5 5h-11zM248 984q-18 0 -28.5 -0.5t-16.5 -2t-9.5 -4.5t-6.5 -8
l-103 -158q-10 -15 -1.5 -21t37.5 -6h37q25 0 35.5 3t16.5 11l125 157q5 6 7 11.5t-1.5 9.5t-14 6t-30.5 2h-47z" />
    <glyph glyph-name="Lcaron" unicode="&#x13d;" horiz-adv-x="529" 
d="M149 720q-25 0 -40.5 -1t-24 -4t-11.5 -7.5t-3 -10.5v-675q0 -7 2 -11.5t8 -6.5t17.5 -3t30.5 -1h356q7 0 12 1.5t7 8t3 19t1 33.5v7q0 21 -1 33t-3 18t-7 7.5t-12 1.5h-243v568q0 13 -16.5 18t-64.5 5h-11zM332 469q14 -12 20.5 -12t12.5 5q49 40 78.5 92.5t29.5 100.5
q0 40 -22 62.5t-55 22.5q-31 0 -50.5 -17t-19.5 -43q0 -14 5.5 -24t12 -19t12 -18t5.5 -21q0 -18 -12.5 -43.5t-35.5 -53.5q-4 -5 -1.5 -10.5t14.5 -16.5z" />
    <glyph glyph-name="Lcommaaccent" unicode="&#x13b;" horiz-adv-x="529" 
d="M149 720q-25 0 -40.5 -1t-24 -4t-11.5 -7.5t-3 -10.5v-675q0 -7 2 -11.5t8 -6.5t17.5 -3t30.5 -1h356q7 0 12 1.5t7 8t3 19t1 33.5v7q0 21 -1 33t-3 18t-7 7.5t-12 1.5h-243v568q0 13 -16.5 18t-64.5 5h-11zM236 -320q14 -12 20.5 -12t12.5 5q49 40 78.5 92.5t29.5 100.5
q0 40 -22 62.5t-55 22.5q-31 0 -50.5 -17t-19.5 -43q0 -14 5.5 -24t12 -19t12 -18t5.5 -21q0 -18 -12.5 -43.5t-35.5 -53.5q-4 -5 -1.5 -10.5t14.5 -16.5z" />
    <glyph glyph-name="Lslash" unicode="&#x141;" horiz-adv-x="529" 
d="M149 720q-25 0 -40.5 -1t-24 -4t-11.5 -7.5t-3 -10.5v-297l-59 -32q-11 -6 -14.5 -18t-3.5 -46v-26q0 -40 9 -46.5t27 3.5l41 22v-235q0 -7 2 -11.5t8 -6.5t17.5 -3t30.5 -1h356q7 0 12 1.5t7 8t3 19t1 33.5v7q0 21 -1 33t-3 18t-7 7.5t-12 1.5h-243v222l120 66
q7 4 10.5 7.5t5.5 10t2.5 17t0.5 27.5v28q0 21 -1.5 33t-5.5 16.5t-9.5 3.5t-12.5 -5l-110 -61v203q0 13 -16.5 18t-64.5 5h-11z" />
    <glyph glyph-name="Ldot" unicode="&#x13f;" horiz-adv-x="529" 
d="M149 720q-25 0 -40.5 -1t-24 -4t-11.5 -7.5t-3 -10.5v-675q0 -7 2 -11.5t8 -6.5t17.5 -3t30.5 -1h356q7 0 12 1.5t7 8t3 19t1 33.5v7q0 21 -1 33t-3 18t-7 7.5t-12 1.5h-243v568q0 13 -16.5 18t-64.5 5h-11zM322 419q0 -35 24 -58t60 -23q35 0 59 23t24 58t-24 58t-59 23
q-36 0 -60 -23t-24 -58z" />
    <glyph glyph-name="Nacute" unicode="&#x143;" horiz-adv-x="716" 
d="M140 720q-25 0 -39 -1t-21 -3t-8.5 -7t-1.5 -12v-675q0 -7 3 -11.5t11.5 -6.5t24 -3t40.5 -1h6q47 0 62 4.5t15 17.5v241q0 45 -3 91t-9 100q10 -21 19.5 -40t20.5 -38.5t24 -40.5t30 -47l179 -268q4 -6 9 -9.5t13 -6t21 -3.5t33 -1h6q25 0 39 1t21 3.5t9 7t2 10.5v675
q0 6 -3 10.5t-11.5 7.5t-23.5 4t-40 1h-6q-25 0 -40.5 -1t-23.5 -4t-11 -7.5t-3 -10.5v-240q0 -51 2 -94t7 -91q-21 43 -43 82t-48 78l-180 268q-3 5 -7.5 8.5t-12.5 6t-21.5 4t-35.5 1.5h-5zM416 984q-18 0 -28.5 -0.5t-16.5 -2t-9.5 -4.5t-6.5 -8l-103 -158
q-10 -15 -1.5 -21t37.5 -6h37q25 0 35.5 3t16.5 11l125 157q5 6 7 11.5t-1.5 9.5t-14 6t-30.5 2h-47z" />
    <glyph glyph-name="Ncaron" unicode="&#x147;" horiz-adv-x="716" 
d="M140 720q-25 0 -39 -1t-21 -3t-8.5 -7t-1.5 -12v-675q0 -7 3 -11.5t11.5 -6.5t24 -3t40.5 -1h6q47 0 62 4.5t15 17.5v241q0 45 -3 91t-9 100q10 -21 19.5 -40t20.5 -38.5t24 -40.5t30 -47l179 -268q4 -6 9 -9.5t13 -6t21 -3.5t33 -1h6q25 0 39 1t21 3.5t9 7t2 10.5v675
q0 6 -3 10.5t-11.5 7.5t-23.5 4t-40 1h-6q-25 0 -40.5 -1t-23.5 -4t-11 -7.5t-3 -10.5v-240q0 -51 2 -94t7 -91q-21 43 -43 82t-48 78l-180 268q-3 5 -7.5 8.5t-12.5 6t-21.5 4t-35.5 1.5h-5zM276 966q-9 8 -19 5.5t-31 -23.5l-10 -10q-17 -17 -20.5 -25.5t3.5 -15.5l90 -95
q7 -7 12.5 -11t13 -6.5t18.5 -3t28 -0.5h12q17 0 28 0.5t18.5 3t13 6.5t12.5 11l91 95q7 7 3.5 15.5t-20.5 25.5l-10 10q-21 21 -31 23.5t-19 -5.5l-92 -80z" />
    <glyph glyph-name="Ntilde" unicode="&#xd1;" horiz-adv-x="716" 
d="M140 720q-25 0 -39 -1t-21 -3t-8.5 -7t-1.5 -12v-675q0 -7 3 -11.5t11.5 -6.5t24 -3t40.5 -1h6q47 0 62 4.5t15 17.5v241q0 45 -3 91t-9 100q10 -21 19.5 -40t20.5 -38.5t24 -40.5t30 -47l179 -268q4 -6 9 -9.5t13 -6t21 -3.5t33 -1h6q25 0 39 1t21 3.5t9 7t2 10.5v675
q0 6 -3 10.5t-11.5 7.5t-23.5 4t-40 1h-6q-25 0 -40.5 -1t-23.5 -4t-11 -7.5t-3 -10.5v-240q0 -51 2 -94t7 -91q-21 43 -43 82t-48 78l-180 268q-3 5 -7.5 8.5t-12.5 6t-21.5 4t-35.5 1.5h-5zM193 829q23 -23 33 -26t18 5q11 14 22.5 23t25.5 9q12 0 23 -4.5t28 -13.5
q15 -8 33.5 -13t38.5 -5q31 0 61 17t56 49q9 11 3.5 18.5t-22.5 25.5l-6 6q-22 22 -29.5 24.5t-15.5 -5.5q-14 -13 -26.5 -21.5t-25.5 -8.5q-14 0 -24.5 5t-23.5 11q-14 7 -31 12.5t-41 5.5q-38 0 -70 -21t-51 -47q-6 -8 -3 -15.5t23 -26.5z" />
    <glyph glyph-name="Ncommaaccent" unicode="&#x145;" horiz-adv-x="716" 
d="M140 720q-25 0 -39 -1t-21 -3t-8.5 -7t-1.5 -12v-675q0 -7 3 -11.5t11.5 -6.5t24 -3t40.5 -1h6q47 0 62 4.5t15 17.5v241q0 45 -3 91t-9 100q10 -21 19.5 -40t20.5 -38.5t24 -40.5t30 -47l179 -268q4 -6 9 -9.5t13 -6t21 -3.5t33 -1h6q25 0 39 1t21 3.5t9 7t2 10.5v675
q0 6 -3 10.5t-11.5 7.5t-23.5 4t-40 1h-6q-25 0 -40.5 -1t-23.5 -4t-11 -7.5t-3 -10.5v-240q0 -51 2 -94t7 -91q-21 43 -43 82t-48 78l-180 268q-3 5 -7.5 8.5t-12.5 6t-21.5 4t-35.5 1.5h-5zM299 -320q14 -12 20.5 -12t12.5 5q49 40 78.5 92.5t29.5 100.5q0 40 -22 62.5
t-55 22.5q-31 0 -50.5 -17t-19.5 -43q0 -14 5.5 -24t12 -19t12 -18t5.5 -21q0 -18 -12.5 -43.5t-35.5 -53.5q-4 -5 -1.5 -10.5t14.5 -16.5z" />
    <glyph glyph-name="Eng" unicode="&#x14a;" horiz-adv-x="716" 
d="M472 -37q-14 -20 -47 -20q-14 0 -27.5 2t-25.5 5q-16 4 -21 -5t-13 -40l-4 -16q-8 -29 -7 -38.5t12 -14.5q14 -7 45 -13t61 -6q45 0 82.5 12.5t63.5 41t40.5 74t14.5 111.5v641q0 6 -3 10.5t-11.5 7.5t-23.5 4t-40 1h-6q-25 0 -40.5 -1t-23.5 -4t-11 -7.5t-3 -10.5v-240
q0 -51 2 -94t7 -91q-21 43 -43 82t-48 78l-180 268q-3 5 -7.5 8.5t-12.5 6t-21.5 4t-35.5 1.5h-5q-25 0 -39 -1t-21 -3t-8.5 -7t-1.5 -12v-675q0 -7 3 -11.5t11.5 -6.5t24 -3t40.5 -1h6q47 0 62 4.5t15 17.5v241q0 45 -3 91t-9 100q10 -21 19.5 -40t20.5 -38.5t24 -40.5
t30 -47l170 -255q0 -28 -2 -43.5t-10 -26.5z" />
    <glyph glyph-name="Ograve" unicode="&#xd2;" horiz-adv-x="708" 
d="M361 596q65 0 101.5 -54t36.5 -176q0 -118 -39 -180t-114 -62q-65 0 -101.5 54t-36.5 176q0 118 39 180t114 62zM364 730q-82 0 -144 -27t-103.5 -76.5t-62.5 -120t-21 -156.5q0 -95 22.5 -163.5t63.5 -112t98 -64t126 -20.5q82 0 144.5 27t103.5 76.5t62 120t21 156.5
q0 95 -22.5 163.5t-63.5 112t-98 64t-126 20.5zM258 984q-35 0 -42 -8t3 -21l125 -157q6 -8 16.5 -11t35.5 -3h37q29 0 37.5 6t-1.5 21l-103 158q-3 5 -6.5 8t-9.5 4.5t-16.5 2t-28.5 0.5h-47z" />
    <glyph glyph-name="Oacute" unicode="&#xd3;" horiz-adv-x="708" 
d="M361 596q65 0 101.5 -54t36.5 -176q0 -118 -39 -180t-114 -62q-65 0 -101.5 54t-36.5 176q0 118 39 180t114 62zM364 730q-82 0 -144 -27t-103.5 -76.5t-62.5 -120t-21 -156.5q0 -95 22.5 -163.5t63.5 -112t98 -64t126 -20.5q82 0 144.5 27t103.5 76.5t62 120t21 156.5
q0 95 -22.5 163.5t-63.5 112t-98 64t-126 20.5zM445 984q-18 0 -28.5 -0.5t-16.5 -2t-9.5 -4.5t-6.5 -8l-103 -158q-10 -15 -1.5 -21t37.5 -6h37q25 0 35.5 3t16.5 11l125 157q5 6 7 11.5t-1.5 9.5t-14 6t-30.5 2h-47z" />
    <glyph glyph-name="Ocircumflex" unicode="&#xd4;" horiz-adv-x="708" 
d="M361 596q65 0 101.5 -54t36.5 -176q0 -118 -39 -180t-114 -62q-65 0 -101.5 54t-36.5 176q0 118 39 180t114 62zM364 730q-82 0 -144 -27t-103.5 -76.5t-62.5 -120t-21 -156.5q0 -95 22.5 -163.5t63.5 -112t98 -64t126 -20.5q82 0 144.5 27t103.5 76.5t62 120t21 156.5
q0 95 -22.5 163.5t-63.5 112t-98 64t-126 20.5zM354 870l89 -77q9 -8 19 -5.5t31 23.5l10 10q17 17 20.5 25.5t-3.5 15.5l-88 92q-7 7 -12.5 11t-13 6t-18.5 3t-28 1h-12q-17 0 -28 -1t-18.5 -3t-13 -6t-12.5 -11l-88 -92q-7 -7 -3.5 -15.5t20.5 -25.5l10 -10
q21 -21 31 -23.5t19 5.5z" />
    <glyph glyph-name="Otilde" unicode="&#xd5;" horiz-adv-x="708" 
d="M361 596q65 0 101.5 -54t36.5 -176q0 -118 -39 -180t-114 -62q-65 0 -101.5 54t-36.5 176q0 118 39 180t114 62zM364 730q-82 0 -144 -27t-103.5 -76.5t-62.5 -120t-21 -156.5q0 -95 22.5 -163.5t63.5 -112t98 -64t126 -20.5q82 0 144.5 27t103.5 76.5t62 120t21 156.5
q0 95 -22.5 163.5t-63.5 112t-98 64t-126 20.5zM198 829q23 -23 33 -26t18 5q11 14 22.5 23t25.5 9q12 0 23 -4.5t28 -13.5q15 -8 33.5 -13t38.5 -5q31 0 61 17t56 49q9 11 3.5 18.5t-22.5 25.5l-6 6q-22 22 -29.5 24.5t-15.5 -5.5q-14 -13 -26.5 -21.5t-25.5 -8.5
q-14 0 -24.5 5t-23.5 11q-14 7 -31 12.5t-41 5.5q-38 0 -70 -21t-51 -47q-6 -8 -3 -15.5t23 -26.5z" />
    <glyph glyph-name="Odieresis" unicode="&#xd6;" horiz-adv-x="708" 
d="M361 596q65 0 101.5 -54t36.5 -176q0 -118 -39 -180t-114 -62q-65 0 -101.5 54t-36.5 176q0 118 39 180t114 62zM364 730q-82 0 -144 -27t-103.5 -76.5t-62.5 -120t-21 -156.5q0 -95 22.5 -163.5t63.5 -112t98 -64t126 -20.5q82 0 144.5 27t103.5 76.5t62 120t21 156.5
q0 95 -22.5 163.5t-63.5 112t-98 64t-126 20.5zM172 871q0 -35 23.5 -58t62.5 -23q36 0 60.5 23t24.5 58t-24.5 58.5t-60.5 23.5q-39 0 -62.5 -23.5t-23.5 -58.5zM389 871q0 -35 23.5 -58t62.5 -23q36 0 60.5 23t24.5 58t-24.5 58.5t-60.5 23.5q-39 0 -62.5 -23.5
t-23.5 -58.5z" />
    <glyph glyph-name="Omacron" unicode="&#x14c;" horiz-adv-x="707" 
d="M361 596q65 0 101.5 -54t36.5 -176q0 -118 -39 -180t-114 -62q-65 0 -101.5 54t-36.5 176q0 118 39 180t114 62zM364 730q-82 0 -144 -27t-103.5 -76.5t-62.5 -120t-21 -156.5q0 -95 22.5 -163.5t63.5 -112t98 -64t126 -20.5q82 0 144.5 27t103.5 76.5t62 120t21 156.5
q0 95 -22.5 163.5t-63.5 112t-98 64t-126 20.5zM213 927q-8 0 -11 -10t-3 -41v-7q0 -30 3 -40.5t11 -10.5h280q7 0 11 10.5t4 40.5v7q0 31 -4 41t-11 10h-280z" />
    <glyph glyph-name="Obreve" unicode="&#x14e;" horiz-adv-x="707" 
d="M361 596q65 0 101.5 -54t36.5 -176q0 -118 -39 -180t-114 -62q-65 0 -101.5 54t-36.5 176q0 118 39 180t114 62zM364 730q-82 0 -144 -27t-103.5 -76.5t-62.5 -120t-21 -156.5q0 -95 22.5 -163.5t63.5 -112t98 -64t126 -20.5q82 0 144.5 27t103.5 76.5t62 120t21 156.5
q0 95 -22.5 163.5t-63.5 112t-98 64t-126 20.5zM242 942q-34 0 -44.5 -3.5t-9.5 -17.5q3 -69 46.5 -107t118.5 -38t118.5 38t46.5 107q1 14 -9 17.5t-44 3.5h-14q-30 0 -40 -5t-11 -13q-2 -26 -14.5 -37.5t-32.5 -11.5t-32 11.5t-14 37.5q-1 8 -10.5 13t-40.5 5h-14z" />
    <glyph glyph-name="Ohungarumlaut" unicode="&#x150;" horiz-adv-x="707" 
d="M361 596q65 0 101.5 -54t36.5 -176q0 -118 -39 -180t-114 -62q-65 0 -101.5 54t-36.5 176q0 118 39 180t114 62zM364 730q-82 0 -144 -27t-103.5 -76.5t-62.5 -120t-21 -156.5q0 -95 22.5 -163.5t63.5 -112t98 -64t126 -20.5q82 0 144.5 27t103.5 76.5t62 120t21 156.5
q0 95 -22.5 163.5t-63.5 112t-98 64t-126 20.5zM307 984q-32 0 -43 -3t-16 -12l-89 -153q-15 -25 35 -25h32q23 0 33 3t16 11l113 152q11 14 3.5 20.5t-42.5 6.5h-42zM507 984q-32 0 -43 -3t-16 -12l-89 -153q-15 -25 35 -25h32q23 0 33 3t16 11l113 152q11 14 3.5 20.5
t-42.5 6.5h-42z" />
    <glyph glyph-name="Oslash" unicode="&#xd8;" horiz-adv-x="707" 
d="M364 730q-82 0 -144 -27t-103.5 -76.5t-62.5 -120t-21 -156.5q0 -106 27.5 -178.5t77.5 -115.5l-40 -74q-5 -8 -1.5 -13.5t29.5 -17.5l10 -5q27 -12 34.5 -12.5t12.5 9.5l36 67q57 -20 124 -20q82 0 144.5 27t103.5 76.5t62 120t21 156.5q0 104 -26.5 175t-74.5 115
l42 77q4 8 -1 12.5t-31 16.5l-11 5q-25 11 -31 12t-10 -6l-38 -69q-56 22 -129 22zM361 596q37 0 63 -16l-198 -363q-18 52 -18 137q0 118 39 180t114 62zM499 366q0 -118 -39 -180t-114 -62q-33 0 -58 12l195 359q16 -48 16 -129z" />
    <glyph glyph-name="Oslashacute" unicode="&#x1fe;" horiz-adv-x="707" 
d="M364 730q-82 0 -144 -27t-103.5 -76.5t-62.5 -120t-21 -156.5q0 -106 27.5 -178.5t77.5 -115.5l-40 -74q-5 -8 -1.5 -13.5t29.5 -17.5l10 -5q27 -12 34.5 -12.5t12.5 9.5l36 67q57 -20 124 -20q82 0 144.5 27t103.5 76.5t62 120t21 156.5q0 104 -26.5 175t-74.5 115
l42 77q4 8 -1 12.5t-31 16.5l-11 5q-25 11 -31 12t-10 -6l-38 -69q-56 22 -129 22zM361 596q37 0 63 -16l-198 -363q-18 52 -18 137q0 118 39 180t114 62zM499 366q0 -118 -39 -180t-114 -62q-33 0 -58 12l195 359q16 -48 16 -129zM412 984q-18 0 -28.5 -0.5t-16.5 -2
t-9.5 -4.5t-6.5 -8l-103 -158q-10 -15 -1.5 -21t37.5 -6h37q25 0 35.5 3t16.5 11l125 157q5 6 7 11.5t-1.5 9.5t-14 6t-30.5 2h-47z" />
    <glyph glyph-name="OE" unicode="&#x152;" horiz-adv-x="986" 
d="M480 127q-28 -2 -55 -3.5t-61 -1.5q-71 0 -113.5 55t-42.5 177q0 118 44.5 181t125.5 63q28 0 53.5 -1.5t48.5 -3.5v-466zM915 0q13 0 18 10.5t5 51.5v7q0 22 -1 34t-3 18t-7 7t-12 1h-264v170h219q7 0 11.5 2t7 8t3.5 18t1 33v8q0 22 -1 34t-3 18t-7 7t-12 1h-219v163
h260q7 0 11.5 1.5t7 8t3.5 18.5t1 33v8q0 22 -1 34t-3 18t-7 7t-12 1h-323q-25 0 -51 1.5t-52 3.5t-56.5 3.5t-56.5 1.5q-82 0 -145.5 -27t-106.5 -76.5t-65 -120t-22 -156.5q0 -95 22.5 -163.5t63.5 -112t100 -64t133 -20.5q33 0 74.5 2t75.5 4q29 2 53.5 3t44.5 1h315z
" />
    <glyph glyph-name="Thorn" unicode="&#xde;" horiz-adv-x="588" 
d="M276 247h-17.5t-18.5 1v214h26q42 0 63.5 -8t35.5 -25q19 -25 19 -68q0 -26 -4.5 -47t-16.5 -35q-14 -17 -34.5 -24.5t-52.5 -7.5zM283 119q71 0 124.5 18.5t85.5 50.5q32 34 49 78t17 95q0 104 -56 162q-42 42 -103.5 55t-150.5 13h-9v106q0 14 -16.5 18.5t-64.5 4.5
h-11q-50 0 -64.5 -5t-14.5 -18v-675q0 -6 3 -10.5t11.5 -7t24 -3.5t40.5 -1h11q48 0 64.5 4.5t16.5 17.5v98q11 -1 20 -1h23z" />
    <glyph glyph-name="Racute" unicode="&#x154;" horiz-adv-x="627" 
d="M128 720q-38 0 -48 -4t-10 -19v-675q0 -6 3 -10.5t11 -7t23.5 -3.5t41.5 -1h10q48 0 65 4.5t17 17.5v248h40l30 -56q42 -78 71 -127.5t48 -69.5q12 -12 27 -14.5t45 -2.5h54q44 0 52 8.5t-3 23.5q-39 53 -75.5 109.5t-74.5 125.5l-19 35q60 30 91 82t31 120q0 47 -14 84
t-39 64q-39 41 -98.5 54.5t-147.5 13.5h-131zM241 591h32q35 0 53.5 -4.5t32.5 -15.5q24 -21 24 -69q0 -60 -30 -84q-14 -12 -33 -16.5t-46 -4.5h-33v194zM376 984q-18 0 -28.5 -0.5t-16.5 -2t-9.5 -4.5t-6.5 -8l-103 -158q-10 -15 -1.5 -21t37.5 -6h37q25 0 35.5 3t16.5 11
l125 157q5 6 7 11.5t-1.5 9.5t-14 6t-30.5 2h-47z" />
    <glyph glyph-name="Rcaron" unicode="&#x158;" horiz-adv-x="627" 
d="M128 720q-38 0 -48 -4t-10 -19v-675q0 -6 3 -10.5t11 -7t23.5 -3.5t41.5 -1h10q48 0 65 4.5t17 17.5v248h40l30 -56q42 -78 71 -127.5t48 -69.5q12 -12 27 -14.5t45 -2.5h54q44 0 52 8.5t-3 23.5q-39 53 -75.5 109.5t-74.5 125.5l-19 35q60 30 91 82t31 120q0 47 -14 84
t-39 64q-39 41 -98.5 54.5t-147.5 13.5h-131zM241 591h32q35 0 53.5 -4.5t32.5 -15.5q24 -21 24 -69q0 -60 -30 -84q-14 -12 -33 -16.5t-46 -4.5h-33v194zM228 966q-9 8 -19 5.5t-31 -23.5l-10 -10q-17 -17 -20.5 -25.5t3.5 -15.5l90 -95q7 -7 12.5 -11t13 -6.5t18.5 -3
t28 -0.5h12q17 0 28 0.5t18.5 3t13 6.5t12.5 11l91 95q7 7 3.5 15.5t-20.5 25.5l-10 10q-21 21 -31 23.5t-19 -5.5l-92 -80z" />
    <glyph glyph-name="Rcommaaccent" unicode="&#x156;" horiz-adv-x="627" 
d="M128 720q-38 0 -48 -4t-10 -19v-675q0 -6 3 -10.5t11 -7t23.5 -3.5t41.5 -1h10q48 0 65 4.5t17 17.5v248h40l30 -56q42 -78 71 -127.5t48 -69.5q12 -12 27 -14.5t45 -2.5h54q44 0 52 8.5t-3 23.5q-39 53 -75.5 109.5t-74.5 125.5l-19 35q60 30 91 82t31 120q0 47 -14 84
t-39 64q-39 41 -98.5 54.5t-147.5 13.5h-131zM241 591h32q35 0 53.5 -4.5t32.5 -15.5q24 -21 24 -69q0 -60 -30 -84q-14 -12 -33 -16.5t-46 -4.5h-33v194zM274 -320q14 -12 20.5 -12t12.5 5q49 40 78.5 92.5t29.5 100.5q0 40 -22 62.5t-55 22.5q-31 0 -50.5 -17t-19.5 -43
q0 -14 5.5 -24t12 -19t12 -18t5.5 -21q0 -18 -12.5 -43.5t-35.5 -53.5q-4 -5 -1.5 -10.5t14.5 -16.5z" />
    <glyph glyph-name="Sacute" unicode="&#x15a;" horiz-adv-x="563" 
d="M484 612q15 31 16.5 42.5t-10.5 19.5q-83 56 -189 56q-49 0 -92.5 -14.5t-76.5 -41.5t-52.5 -67t-19.5 -91q0 -45 14.5 -76t39 -54.5t57.5 -42t71 -38.5q21 -11 40.5 -21.5t33.5 -22.5t22.5 -26.5t8.5 -34.5q0 -35 -21.5 -55.5t-66.5 -20.5q-35 0 -72 15.5t-74 41.5
q-13 9 -23.5 2t-27.5 -42l-12 -24q-15 -30 -16 -40t9 -17q39 -27 97 -48.5t126 -21.5q62 0 109 16t79 44.5t48 69t16 88.5q0 45 -14.5 78.5t-39.5 59.5t-58.5 46.5t-70.5 38.5q-30 15 -50 26.5t-32 22.5t-17 23t-5 27q0 33 22.5 51t56.5 18t64 -12.5t58 -31.5q9 -6 18 -1
t24 37zM343 984q-18 0 -28.5 -0.5t-16.5 -2t-9.5 -4.5t-6.5 -8l-103 -158q-10 -15 -1.5 -21t37.5 -6h37q25 0 35.5 3t16.5 11l125 157q5 6 7 11.5t-1.5 9.5t-14 6t-30.5 2h-47z" />
    <glyph glyph-name="Scircumflex" unicode="&#x15c;" horiz-adv-x="563" 
d="M484 612q15 31 16.5 42.5t-10.5 19.5q-83 56 -189 56q-49 0 -92.5 -14.5t-76.5 -41.5t-52.5 -67t-19.5 -91q0 -45 14.5 -76t39 -54.5t57.5 -42t71 -38.5q21 -11 40.5 -21.5t33.5 -22.5t22.5 -26.5t8.5 -34.5q0 -35 -21.5 -55.5t-66.5 -20.5q-35 0 -72 15.5t-74 41.5
q-13 9 -23.5 2t-27.5 -42l-12 -24q-15 -30 -16 -40t9 -17q39 -27 97 -48.5t126 -21.5q62 0 109 16t79 44.5t48 69t16 88.5q0 45 -14.5 78.5t-39.5 59.5t-58.5 46.5t-70.5 38.5q-30 15 -50 26.5t-32 22.5t-17 23t-5 27q0 33 22.5 51t56.5 18t64 -12.5t58 -31.5q9 -6 18 -1
t24 37zM296 870l89 -77q9 -8 19 -5.5t31 23.5l10 10q17 17 20.5 25.5t-3.5 15.5l-88 92q-7 7 -12.5 11t-13 6t-18.5 3t-28 1h-12q-17 0 -28 -1t-18.5 -3t-13 -6t-12.5 -11l-88 -92q-7 -7 -3.5 -15.5t20.5 -25.5l10 -10q21 -21 31 -23.5t19 5.5z" />
    <glyph glyph-name="Scaron" unicode="&#x160;" horiz-adv-x="563" 
d="M484 612q15 31 16.5 42.5t-10.5 19.5q-83 56 -189 56q-49 0 -92.5 -14.5t-76.5 -41.5t-52.5 -67t-19.5 -91q0 -45 14.5 -76t39 -54.5t57.5 -42t71 -38.5q21 -11 40.5 -21.5t33.5 -22.5t22.5 -26.5t8.5 -34.5q0 -35 -21.5 -55.5t-66.5 -20.5q-35 0 -72 15.5t-74 41.5
q-13 9 -23.5 2t-27.5 -42l-12 -24q-15 -30 -16 -40t9 -17q39 -27 97 -48.5t126 -21.5q62 0 109 16t79 44.5t48 69t16 88.5q0 45 -14.5 78.5t-39.5 59.5t-58.5 46.5t-70.5 38.5q-30 15 -50 26.5t-32 22.5t-17 23t-5 27q0 33 22.5 51t56.5 18t64 -12.5t58 -31.5q9 -6 18 -1
t24 37zM204 968q-9 8 -19 5.5t-31 -23.5l-10 -10q-17 -17 -20.5 -25.5t3.5 -15.5l90 -95q7 -7 12.5 -11t13 -6.5t18.5 -3t28 -0.5h12q17 0 28 0.5t18.5 3t13 6.5t12.5 11l91 95q7 7 3.5 15.5t-20.5 25.5l-10 10q-21 21 -31 23.5t-19 -5.5l-92 -80z" />
    <glyph glyph-name="Scedilla" unicode="&#x15e;" horiz-adv-x="563" 
d="M484 612q15 31 16.5 42.5t-10.5 19.5q-83 56 -189 56q-49 0 -92.5 -14.5t-76.5 -41.5t-52.5 -67t-19.5 -91q0 -45 14.5 -76t39 -54.5t57.5 -42t71 -38.5q21 -11 40.5 -21.5t33.5 -22.5t22.5 -26.5t8.5 -34.5q0 -35 -21.5 -55.5t-66.5 -20.5q-35 0 -72 15.5t-74 41.5
q-13 9 -23.5 2t-27.5 -42l-12 -24q-15 -30 -16 -40t9 -17q31 -21 73 -39t93 -26l-16 -108q15 4 30.5 5.5t28.5 1.5q16 0 28.5 -4.5t12.5 -19.5q0 -28 -34 -28q-11 0 -25.5 2.5t-22.5 4.5q-9 2 -14 -2.5t-11 -27.5l-3 -11q-7 -24 -5 -29t10 -8q17 -6 38 -10t47 -4
q35 0 60 9.5t41.5 25t24.5 36t8 42.5q0 25 -9 42.5t-25 29t-36.5 16t-43.5 4.5l3 29q109 8 165.5 67t56.5 150q0 45 -14.5 78.5t-39.5 59.5t-58.5 46.5t-70.5 38.5q-30 15 -50 26.5t-32 22.5t-17 23t-5 27q0 33 22.5 51t56.5 18t64 -12.5t58 -31.5q9 -6 18 -1t24 37z" />
    <glyph glyph-name="Scommaaccent" unicode="&#x218;" horiz-adv-x="563" 
d="M484 612q15 31 16.5 42.5t-10.5 19.5q-83 56 -189 56q-49 0 -92.5 -14.5t-76.5 -41.5t-52.5 -67t-19.5 -91q0 -45 14.5 -76t39 -54.5t57.5 -42t71 -38.5q21 -11 40.5 -21.5t33.5 -22.5t22.5 -26.5t8.5 -34.5q0 -35 -21.5 -55.5t-66.5 -20.5q-35 0 -72 15.5t-74 41.5
q-13 9 -23.5 2t-27.5 -42l-12 -24q-15 -30 -16 -40t9 -17q39 -27 97 -48.5t126 -21.5q62 0 109 16t79 44.5t48 69t16 88.5q0 45 -14.5 78.5t-39.5 59.5t-58.5 46.5t-70.5 38.5q-30 15 -50 26.5t-32 22.5t-17 23t-5 27q0 33 22.5 51t56.5 18t64 -12.5t58 -31.5q9 -6 18 -1
t24 37zM212 -320q14 -12 20.5 -12t12.5 5q49 40 78.5 92.5t29.5 100.5q0 40 -22 62.5t-55 22.5q-31 0 -50.5 -17t-19.5 -43q0 -14 5.5 -24t12 -19t12 -18t5.5 -21q0 -18 -12.5 -43.5t-35.5 -53.5q-4 -5 -1.5 -10.5t14.5 -16.5z" />
    <glyph glyph-name="Tcaron" unicode="&#x164;" horiz-adv-x="546" 
d="M187 591v-569q0 -6 3 -10.5t11.5 -7t24 -3.5t40.5 -1h11q48 0 64.5 4.5t16.5 17.5v569h152q7 0 12 1.5t7 8t3 19t1 33.5v7q0 21 -1 33t-3 18t-7 7.5t-12 1.5h-474q-8 0 -12.5 -1.5t-6.5 -7.5t-3 -18t-1 -33v-7q0 -21 1 -33.5t3 -19t6.5 -8t12.5 -1.5h151zM181 966
q-9 8 -19 5.5t-31 -23.5l-10 -10q-17 -17 -20.5 -25.5t3.5 -15.5l90 -95q7 -7 12.5 -11t13 -6.5t18.5 -3t28 -0.5h12q17 0 28 0.5t18.5 3t13 6.5t12.5 11l91 95q7 7 3.5 15.5t-20.5 25.5l-10 10q-21 21 -31 23.5t-19 -5.5l-92 -80z" />
    <glyph glyph-name="Tcommaaccent" unicode="&#x162;" horiz-adv-x="546" 
d="M187 591v-569q0 -6 3 -10.5t11.5 -7t24 -3.5t40.5 -1h11q48 0 64.5 4.5t16.5 17.5v569h152q7 0 12 1.5t7 8t3 19t1 33.5v7q0 21 -1 33t-3 18t-7 7.5t-12 1.5h-474q-8 0 -12.5 -1.5t-6.5 -7.5t-3 -18t-1 -33v-7q0 -21 1 -33.5t3 -19t6.5 -8t12.5 -1.5h151zM204 -320
q14 -12 20.5 -12t12.5 5q49 40 78.5 92.5t29.5 100.5q0 40 -22 62.5t-55 22.5q-31 0 -50.5 -17t-19.5 -43q0 -14 5.5 -24t12 -19t12 -18t5.5 -21q0 -18 -12.5 -43.5t-35.5 -53.5q-4 -5 -1.5 -10.5t14.5 -16.5z" />
    <glyph glyph-name="uni021A" unicode="&#x21a;" horiz-adv-x="546" 
d="M187 591v-569q0 -6 3 -10.5t11.5 -7t24 -3.5t40.5 -1h11q48 0 64.5 4.5t16.5 17.5v569h152q7 0 12 1.5t7 8t3 19t1 33.5v7q0 21 -1 33t-3 18t-7 7.5t-12 1.5h-474q-8 0 -12.5 -1.5t-6.5 -7.5t-3 -18t-1 -33v-7q0 -21 1 -33.5t3 -19t6.5 -8t12.5 -1.5h151zM204 -320
q14 -12 20.5 -12t12.5 5q49 40 78.5 92.5t29.5 100.5q0 40 -22 62.5t-55 22.5q-31 0 -50.5 -17t-19.5 -43q0 -14 5.5 -24t12 -19t12 -18t5.5 -21q0 -18 -12.5 -43.5t-35.5 -53.5q-4 -5 -1.5 -10.5t14.5 -16.5z" />
    <glyph glyph-name="Tbar" unicode="&#x166;" horiz-adv-x="546" 
d="M187 591v-216h-92q-15 0 -21.5 -10t-6.5 -47v-10q0 -19 1.5 -30t5 -17t8.5 -8t13 -2h92v-229q0 -6 3 -10.5t11.5 -7t24 -3.5t40.5 -1h11q48 0 64.5 4.5t16.5 17.5v229h92q7 0 12.5 2t9 8t5 17t1.5 30v10q0 37 -6.5 47t-21.5 10h-92v216h152q7 0 12 1.5t7 8t3 19t1 33.5v7
q0 21 -1 33t-3 18t-7 7.5t-12 1.5h-474q-8 0 -12.5 -1.5t-6.5 -7.5t-3 -18t-1 -33v-7q0 -21 1 -33.5t3 -19t6.5 -8t12.5 -1.5h151z" />
    <glyph glyph-name="Ugrave" unicode="&#xd9;" horiz-adv-x="703" 
d="M145 720q-26 0 -41.5 -1t-23.5 -4t-11 -7.5t-3 -10.5v-420q0 -80 14.5 -127.5t45.5 -82.5q66 -77 223 -77q154 0 222 77q16 18 28 38.5t20.5 46t13 57t4.5 71.5v417q0 13 -16.5 18t-64.5 5h-8q-26 0 -41.5 -1t-23.5 -4t-11 -7.5t-3 -10.5v-424q0 -48 -9 -76t-26 -44
q-30 -29 -82 -29q-25 0 -45.5 6.5t-36.5 22.5t-24.5 44t-8.5 76v424q0 13 -15.5 18t-65.5 5h-11zM239 984q-35 0 -42 -8t3 -21l125 -157q6 -8 16.5 -11t35.5 -3h37q29 0 37.5 6t-1.5 21l-103 158q-3 5 -6.5 8t-9.5 4.5t-16.5 2t-28.5 0.5h-47z" />
    <glyph glyph-name="Uacute" unicode="&#xda;" horiz-adv-x="703" 
d="M145 720q-26 0 -41.5 -1t-23.5 -4t-11 -7.5t-3 -10.5v-420q0 -80 14.5 -127.5t45.5 -82.5q66 -77 223 -77q154 0 222 77q16 18 28 38.5t20.5 46t13 57t4.5 71.5v417q0 13 -16.5 18t-64.5 5h-8q-26 0 -41.5 -1t-23.5 -4t-11 -7.5t-3 -10.5v-424q0 -48 -9 -76t-26 -44
q-30 -29 -82 -29q-25 0 -45.5 6.5t-36.5 22.5t-24.5 44t-8.5 76v424q0 13 -15.5 18t-65.5 5h-11zM427 984q-18 0 -28.5 -0.5t-16.5 -2t-9.5 -4.5t-6.5 -8l-103 -158q-10 -15 -1.5 -21t37.5 -6h37q25 0 35.5 3t16.5 11l125 157q5 6 7 11.5t-1.5 9.5t-14 6t-30.5 2h-47z" />
    <glyph glyph-name="Ucircumflex" unicode="&#xdb;" horiz-adv-x="703" 
d="M145 720q-26 0 -41.5 -1t-23.5 -4t-11 -7.5t-3 -10.5v-420q0 -80 14.5 -127.5t45.5 -82.5q66 -77 223 -77q154 0 222 77q16 18 28 38.5t20.5 46t13 57t4.5 71.5v417q0 13 -16.5 18t-64.5 5h-8q-26 0 -41.5 -1t-23.5 -4t-11 -7.5t-3 -10.5v-424q0 -48 -9 -76t-26 -44
q-30 -29 -82 -29q-25 0 -45.5 6.5t-36.5 22.5t-24.5 44t-8.5 76v424q0 13 -15.5 18t-65.5 5h-11zM353 870l89 -77q9 -8 19 -5.5t31 23.5l10 10q17 17 20.5 25.5t-3.5 15.5l-88 92q-7 7 -12.5 11t-13 6t-18.5 3t-28 1h-12q-17 0 -28 -1t-18.5 -3t-13 -6t-12.5 -11l-88 -92
q-7 -7 -3.5 -15.5t20.5 -25.5l10 -10q21 -21 31 -23.5t19 5.5z" />
    <glyph glyph-name="Utilde" unicode="&#x168;" horiz-adv-x="703" 
d="M145 720q-26 0 -41.5 -1t-23.5 -4t-11 -7.5t-3 -10.5v-420q0 -80 14.5 -127.5t45.5 -82.5q66 -77 223 -77q154 0 222 77q16 18 28 38.5t20.5 46t13 57t4.5 71.5v417q0 13 -16.5 18t-64.5 5h-8q-26 0 -41.5 -1t-23.5 -4t-11 -7.5t-3 -10.5v-424q0 -48 -9 -76t-26 -44
q-30 -29 -82 -29q-25 0 -45.5 6.5t-36.5 22.5t-24.5 44t-8.5 76v424q0 13 -15.5 18t-65.5 5h-11zM192 835q23 -23 33 -26t18 5q11 14 22.5 23t25.5 9q12 0 23 -4.5t28 -13.5q15 -8 33.5 -13t38.5 -5q31 0 61 17t56 49q9 11 3.5 18.5t-22.5 25.5l-6 6q-22 22 -29.5 24.5
t-15.5 -5.5q-14 -13 -26.5 -21.5t-25.5 -8.5q-14 0 -24.5 5t-23.5 11q-14 7 -31 12.5t-41 5.5q-38 0 -70 -21t-51 -47q-6 -8 -3 -15.5t23 -26.5z" />
    <glyph glyph-name="Udieresis" unicode="&#xdc;" horiz-adv-x="703" 
d="M145 720q-26 0 -41.5 -1t-23.5 -4t-11 -7.5t-3 -10.5v-420q0 -80 14.5 -127.5t45.5 -82.5q66 -77 223 -77q154 0 222 77q16 18 28 38.5t20.5 46t13 57t4.5 71.5v417q0 13 -16.5 18t-64.5 5h-8q-26 0 -41.5 -1t-23.5 -4t-11 -7.5t-3 -10.5v-424q0 -48 -9 -76t-26 -44
q-30 -29 -82 -29q-25 0 -45.5 6.5t-36.5 22.5t-24.5 44t-8.5 76v424q0 13 -15.5 18t-65.5 5h-11zM161 871q0 -35 23.5 -58t62.5 -23q36 0 60.5 23t24.5 58t-24.5 58.5t-60.5 23.5q-39 0 -62.5 -23.5t-23.5 -58.5zM378 871q0 -35 23.5 -58t62.5 -23q36 0 60.5 23t24.5 58
t-24.5 58.5t-60.5 23.5q-39 0 -62.5 -23.5t-23.5 -58.5z" />
    <glyph glyph-name="Umacron" unicode="&#x16a;" horiz-adv-x="703" 
d="M145 720q-26 0 -41.5 -1t-23.5 -4t-11 -7.5t-3 -10.5v-420q0 -80 14.5 -127.5t45.5 -82.5q66 -77 223 -77q154 0 222 77q16 18 28 38.5t20.5 46t13 57t4.5 71.5v417q0 13 -16.5 18t-64.5 5h-8q-26 0 -41.5 -1t-23.5 -4t-11 -7.5t-3 -10.5v-424q0 -48 -9 -76t-26 -44
q-30 -29 -82 -29q-25 0 -45.5 6.5t-36.5 22.5t-24.5 44t-8.5 76v424q0 13 -15.5 18t-65.5 5h-11zM211 927q-8 0 -11 -10t-3 -41v-7q0 -30 3 -40.5t11 -10.5h280q7 0 11 10.5t4 40.5v7q0 31 -4 41t-11 10h-280z" />
    <glyph glyph-name="Ubreve" unicode="&#x16c;" horiz-adv-x="703" 
d="M145 720q-26 0 -41.5 -1t-23.5 -4t-11 -7.5t-3 -10.5v-420q0 -80 14.5 -127.5t45.5 -82.5q66 -77 223 -77q154 0 222 77q16 18 28 38.5t20.5 46t13 57t4.5 71.5v417q0 13 -16.5 18t-64.5 5h-8q-26 0 -41.5 -1t-23.5 -4t-11 -7.5t-3 -10.5v-424q0 -48 -9 -76t-26 -44
q-30 -29 -82 -29q-25 0 -45.5 6.5t-36.5 22.5t-24.5 44t-8.5 76v424q0 13 -15.5 18t-65.5 5h-11zM240 942q-34 0 -44.5 -3.5t-9.5 -17.5q3 -69 46.5 -107t118.5 -38t118.5 38t46.5 107q1 14 -9 17.5t-44 3.5h-14q-30 0 -40 -5t-11 -13q-2 -26 -14.5 -37.5t-32.5 -11.5
t-32 11.5t-14 37.5q-1 8 -10.5 13t-40.5 5h-14z" />
    <glyph glyph-name="Uring" unicode="&#x16e;" horiz-adv-x="703" 
d="M145 720q-26 0 -41.5 -1t-23.5 -4t-11 -7.5t-3 -10.5v-420q0 -80 14.5 -127.5t45.5 -82.5q66 -77 223 -77q154 0 222 77q16 18 28 38.5t20.5 46t13 57t4.5 71.5v417q0 13 -16.5 18t-64.5 5h-8q-26 0 -41.5 -1t-23.5 -4t-11 -7.5t-3 -10.5v-424q0 -48 -9 -76t-26 -44
q-30 -29 -82 -29q-25 0 -45.5 6.5t-36.5 22.5t-24.5 44t-8.5 76v424q0 13 -15.5 18t-65.5 5h-11zM228 871q0 -24 9.5 -45t26.5 -37t39 -25.5t48 -9.5q25 0 47.5 9t39.5 25t26.5 37.5t9.5 45.5t-9.5 45.5t-26.5 37.5t-39.5 25t-47.5 9q-26 0 -48 -9.5t-39 -25.5t-26.5 -37
t-9.5 -45zM318 871q0 14 9.5 23.5t23.5 9.5t23 -9.5t9 -23.5t-9 -23.5t-23 -9.5t-23.5 9.5t-9.5 23.5z" />
    <glyph glyph-name="Uhungarumlaut" unicode="&#x170;" horiz-adv-x="703" 
d="M145 720q-26 0 -41.5 -1t-23.5 -4t-11 -7.5t-3 -10.5v-420q0 -80 14.5 -127.5t45.5 -82.5q66 -77 223 -77q154 0 222 77q16 18 28 38.5t20.5 46t13 57t4.5 71.5v417q0 13 -16.5 18t-64.5 5h-8q-26 0 -41.5 -1t-23.5 -4t-11 -7.5t-3 -10.5v-424q0 -48 -9 -76t-26 -44
q-30 -29 -82 -29q-25 0 -45.5 6.5t-36.5 22.5t-24.5 44t-8.5 76v424q0 13 -15.5 18t-65.5 5h-11zM323 984q-32 0 -43 -3t-16 -12l-89 -153q-15 -25 35 -25h32q23 0 33 3t16 11l113 152q11 14 3.5 20.5t-42.5 6.5h-42zM523 984q-32 0 -43 -3t-16 -12l-89 -153q-15 -25 35 -25
h32q23 0 33 3t16 11l113 152q11 14 3.5 20.5t-42.5 6.5h-42z" />
    <glyph glyph-name="Uogonek" unicode="&#x172;" horiz-adv-x="703" 
d="M146 719q-26 0 -41.5 -1.5t-23.5 -4.5t-11 -7.5t-3 -10.5l-1 -420q0 -40 3.5 -71t11 -55.5t19 -44.5t26.5 -38q65 -75 222 -77q-32 -23 -50.5 -54t-18.5 -66q0 -50 34.5 -83t100.5 -33q25 0 50.5 7t42.5 18q8 5 7.5 14.5t-8.5 31.5l-3 9q-8 23 -12.5 27.5t-12.5 2.5
q-24 -8 -39 -8q-17 0 -26.5 9.5t-9.5 26.5q0 18 9 34.5t25 32.5q15 15 33 28.5t36.5 26.5t35.5 26t29 27q32 36 49 85t17 128l-1 417q-1 13 -17.5 18t-64.5 5h-8q-26 0 -41.5 -1t-23.5 -4t-10.5 -7.5t-2.5 -10.5l1 -424q0 -48 -9 -76t-26 -44q-30 -29 -82 -29
q-25 0 -45.5 6.5t-36.5 22.5t-24.5 44t-8.5 76l1 424q0 6 -3.5 10.5t-12.5 7.5t-24.5 4t-40.5 1h-11z" />
    <glyph glyph-name="Wgrave" unicode="&#x1e80;" horiz-adv-x="989" 
d="M103 720q-28 0 -44.5 -1.5t-24.5 -4.5t-10 -8t0 -12l191 -672q2 -7 5.5 -11t12 -6.5t24.5 -3.5t42 -1h20q25 0 41 1.5t24.5 4t12 6.5t5.5 10l49 207q6 24 12.5 55.5t13 66.5t12.5 71.5t11 71.5q8 -72 20 -141.5t26 -123.5l51 -207q1 -6 5.5 -10.5t14.5 -7t27 -3.5t43 -1
h12q25 0 41 1.5t25 4t13 6.5t6 10l182 672q1 6 0 11t-9 8t-24 5t-44 2h-6q-26 0 -41.5 -1t-24.5 -3.5t-12.5 -7t-4.5 -11.5l-61 -296q-5 -21 -10 -49.5t-10.5 -59.5l-11 -62t-9.5 -56q-11 69 -22 127t-21 100l-67 296q-2 6 -5 10.5t-12 7t-24.5 4t-40.5 1.5h-9q-26 0 -41 -1
t-23 -3.5t-11.5 -7t-4.5 -11.5l-65 -295q-5 -23 -11 -53t-12 -61t-11.5 -61t-8.5 -53q-9 60 -20.5 120t-22.5 108l-64 295q-2 6 -6 10.5t-13 7.5t-25 4t-41 1h-14zM406 984q-35 0 -42 -8t3 -21l125 -157q6 -8 16.5 -11t35.5 -3h37q29 0 37.5 6t-1.5 21l-103 158q-3 5 -6.5 8
t-9.5 4.5t-16.5 2t-28.5 0.5h-47z" />
    <glyph glyph-name="Wacute" unicode="&#x1e82;" horiz-adv-x="989" 
d="M103 720q-28 0 -44.5 -1.5t-24.5 -4.5t-10 -8t0 -12l191 -672q2 -7 5.5 -11t12 -6.5t24.5 -3.5t42 -1h20q25 0 41 1.5t24.5 4t12 6.5t5.5 10l49 207q6 24 12.5 55.5t13 66.5t12.5 71.5t11 71.5q8 -72 20 -141.5t26 -123.5l51 -207q1 -6 5.5 -10.5t14.5 -7t27 -3.5t43 -1
h12q25 0 41 1.5t25 4t13 6.5t6 10l182 672q1 6 0 11t-9 8t-24 5t-44 2h-6q-26 0 -41.5 -1t-24.5 -3.5t-12.5 -7t-4.5 -11.5l-61 -296q-5 -21 -10 -49.5t-10.5 -59.5l-11 -62t-9.5 -56q-11 69 -22 127t-21 100l-67 296q-2 6 -5 10.5t-12 7t-24.5 4t-40.5 1.5h-9q-26 0 -41 -1
t-23 -3.5t-11.5 -7t-4.5 -11.5l-65 -295q-5 -23 -11 -53t-12 -61t-11.5 -61t-8.5 -53q-9 60 -20.5 120t-22.5 108l-64 295q-2 6 -6 10.5t-13 7.5t-25 4t-41 1h-14zM567 984q-18 0 -28.5 -0.5t-16.5 -2t-9.5 -4.5t-6.5 -8l-103 -158q-10 -15 -1.5 -21t37.5 -6h37q25 0 35.5 3
t16.5 11l125 157q5 6 7 11.5t-1.5 9.5t-14 6t-30.5 2h-47z" />
    <glyph glyph-name="Wcircumflex" unicode="&#x174;" horiz-adv-x="989" 
d="M103 720q-28 0 -44.5 -1.5t-24.5 -4.5t-10 -8t0 -12l191 -672q2 -7 5.5 -11t12 -6.5t24.5 -3.5t42 -1h20q25 0 41 1.5t24.5 4t12 6.5t5.5 10l49 207q6 24 12.5 55.5t13 66.5t12.5 71.5t11 71.5q8 -72 20 -141.5t26 -123.5l51 -207q1 -6 5.5 -10.5t14.5 -7t27 -3.5t43 -1
h12q25 0 41 1.5t25 4t13 6.5t6 10l182 672q1 6 0 11t-9 8t-24 5t-44 2h-6q-26 0 -41.5 -1t-24.5 -3.5t-12.5 -7t-4.5 -11.5l-61 -296q-5 -21 -10 -49.5t-10.5 -59.5l-11 -62t-9.5 -56q-11 69 -22 127t-21 100l-67 296q-2 6 -5 10.5t-12 7t-24.5 4t-40.5 1.5h-9q-26 0 -41 -1
t-23 -3.5t-11.5 -7t-4.5 -11.5l-65 -295q-5 -23 -11 -53t-12 -61t-11.5 -61t-8.5 -53q-9 60 -20.5 120t-22.5 108l-64 295q-2 6 -6 10.5t-13 7.5t-25 4t-41 1h-14zM500 870l89 -77q9 -8 19 -5.5t31 23.5l10 10q17 17 20.5 25.5t-3.5 15.5l-88 92q-7 7 -12.5 11t-13 6
t-18.5 3t-28 1h-12q-17 0 -28 -1t-18.5 -3t-13 -6t-12.5 -11l-88 -92q-7 -7 -3.5 -15.5t20.5 -25.5l10 -10q21 -21 31 -23.5t19 5.5z" />
    <glyph glyph-name="Wdieresis" unicode="&#x1e84;" horiz-adv-x="989" 
d="M103 720q-28 0 -44.5 -1.5t-24.5 -4.5t-10 -8t0 -12l191 -672q2 -7 5.5 -11t12 -6.5t24.5 -3.5t42 -1h20q25 0 41 1.5t24.5 4t12 6.5t5.5 10l49 207q6 24 12.5 55.5t13 66.5t12.5 71.5t11 71.5q8 -72 20 -141.5t26 -123.5l51 -207q1 -6 5.5 -10.5t14.5 -7t27 -3.5t43 -1
h12q25 0 41 1.5t25 4t13 6.5t6 10l182 672q1 6 0 11t-9 8t-24 5t-44 2h-6q-26 0 -41.5 -1t-24.5 -3.5t-12.5 -7t-4.5 -11.5l-61 -296q-5 -21 -10 -49.5t-10.5 -59.5l-11 -62t-9.5 -56q-11 69 -22 127t-21 100l-67 296q-2 6 -5 10.5t-12 7t-24.5 4t-40.5 1.5h-9q-26 0 -41 -1
t-23 -3.5t-11.5 -7t-4.5 -11.5l-65 -295q-5 -23 -11 -53t-12 -61t-11.5 -61t-8.5 -53q-9 60 -20.5 120t-22.5 108l-64 295q-2 6 -6 10.5t-13 7.5t-25 4t-41 1h-14zM306 871q0 -35 23.5 -58t62.5 -23q36 0 60.5 23t24.5 58t-24.5 58.5t-60.5 23.5q-39 0 -62.5 -23.5
t-23.5 -58.5zM523 871q0 -35 23.5 -58t62.5 -23q36 0 60.5 23t24.5 58t-24.5 58.5t-60.5 23.5q-39 0 -62.5 -23.5t-23.5 -58.5z" />
    <glyph glyph-name="Ygrave" unicode="&#x1ef2;" horiz-adv-x="600" 
d="M85 720q-29 0 -45.5 -2t-24 -5.5t-8 -8.5t2.5 -12l204 -410v-260q0 -6 3 -10.5t11 -7t23.5 -3.5t41.5 -1h11q47 0 64 4.5t17 17.5v260l205 411q6 13 -6.5 20t-61.5 7h-22q-23 0 -37 -1t-22.5 -3.5t-12 -6.5t-6.5 -9l-68 -156q-13 -29 -23 -54t-21 -58q-11 33 -22 59
t-24 53l-72 155q-6 12 -22.5 16.5t-62.5 4.5h-22zM189 984q-35 0 -42 -8t3 -21l125 -157q6 -8 16.5 -11t35.5 -3h37q29 0 37.5 6t-1.5 21l-103 158q-3 5 -6.5 8t-9.5 4.5t-16.5 2t-28.5 0.5h-47z" />
    <glyph glyph-name="Yacute" unicode="&#xdd;" horiz-adv-x="600" 
d="M85 720q-29 0 -45.5 -2t-24 -5.5t-8 -8.5t2.5 -12l204 -410v-260q0 -6 3 -10.5t11 -7t23.5 -3.5t41.5 -1h11q47 0 64 4.5t17 17.5v260l205 411q6 13 -6.5 20t-61.5 7h-22q-23 0 -37 -1t-22.5 -3.5t-12 -6.5t-6.5 -9l-68 -156q-13 -29 -23 -54t-21 -58q-11 33 -22 59
t-24 53l-72 155q-6 12 -22.5 16.5t-62.5 4.5h-22zM395 984q-18 0 -28.5 -0.5t-16.5 -2t-9.5 -4.5t-6.5 -8l-103 -158q-10 -15 -1.5 -21t37.5 -6h37q25 0 35.5 3t16.5 11l125 157q5 6 7 11.5t-1.5 9.5t-14 6t-30.5 2h-47z" />
    <glyph glyph-name="Ycircumflex" unicode="&#x176;" horiz-adv-x="600" 
d="M85 720q-29 0 -45.5 -2t-24 -5.5t-8 -8.5t2.5 -12l204 -410v-260q0 -6 3 -10.5t11 -7t23.5 -3.5t41.5 -1h11q47 0 64 4.5t17 17.5v260l205 411q6 13 -6.5 20t-61.5 7h-22q-23 0 -37 -1t-22.5 -3.5t-12 -6.5t-6.5 -9l-68 -156q-13 -29 -23 -54t-21 -58q-11 33 -22 59
t-24 53l-72 155q-6 12 -22.5 16.5t-62.5 4.5h-22zM309 870l89 -77q9 -8 19 -5.5t31 23.5l10 10q17 17 20.5 25.5t-3.5 15.5l-88 92q-7 7 -12.5 11t-13 6t-18.5 3t-28 1h-12q-17 0 -28 -1t-18.5 -3t-13 -6t-12.5 -11l-88 -92q-7 -7 -3.5 -15.5t20.5 -25.5l10 -10
q21 -21 31 -23.5t19 5.5z" />
    <glyph glyph-name="Ydieresis" unicode="&#x178;" horiz-adv-x="600" 
d="M85 720q-29 0 -45.5 -2t-24 -5.5t-8 -8.5t2.5 -12l204 -410v-260q0 -6 3 -10.5t11 -7t23.5 -3.5t41.5 -1h11q47 0 64 4.5t17 17.5v260l205 411q6 13 -6.5 20t-61.5 7h-22q-23 0 -37 -1t-22.5 -3.5t-12 -6.5t-6.5 -9l-68 -156q-13 -29 -23 -54t-21 -58q-11 33 -22 59
t-24 53l-72 155q-6 12 -22.5 16.5t-62.5 4.5h-22zM115 871q0 -35 23.5 -58t62.5 -23q36 0 60.5 23t24.5 58t-24.5 58.5t-60.5 23.5q-39 0 -62.5 -23.5t-23.5 -58.5zM332 871q0 -35 23.5 -58t62.5 -23q36 0 60.5 23t24.5 58t-24.5 58.5t-60.5 23.5q-39 0 -62.5 -23.5
t-23.5 -58.5z" />
    <glyph glyph-name="Zacute" unicode="&#x179;" horiz-adv-x="587" 
d="M526 0q7 0 12 1.5t7 8t3 19t1 33.5v7q0 22 -1 34.5t-3.5 18t-7 6.5t-11.5 1h-288l278 446q14 22 18 38.5t4 33.5v52q0 15 -10 18t-48 3h-396q-7 0 -11.5 -1t-7 -6.5t-3.5 -18t-1 -34.5v-7q0 -21 1 -33.5t3 -19t6.5 -8t12.5 -1.5h255l-278 -446q-14 -21 -18.5 -37.5
t-4.5 -34.5v-51q0 -14 10 -18t48 -4h430zM377 984q-18 0 -28.5 -0.5t-16.5 -2t-9.5 -4.5t-6.5 -8l-103 -158q-10 -15 -1.5 -21t37.5 -6h37q25 0 35.5 3t16.5 11l125 157q5 6 7 11.5t-1.5 9.5t-14 6t-30.5 2h-47z" />
    <glyph glyph-name="Zcaron" unicode="&#x17d;" horiz-adv-x="575" 
d="M529 0q7 0 12 1.5t7 8t3 19t1 33.5v7q0 22 -1 34.5t-3.5 18t-7 6.5t-11.5 1h-288l278 446q14 22 18 38.5t4 33.5v52q0 15 -10 18t-48 3h-396q-7 0 -11.5 -1t-7 -6.5t-3.5 -18t-1 -34.5v-7q0 -21 1 -33.5t3 -19t6.5 -8t12.5 -1.5h255l-278 -446q-14 -21 -18.5 -37.5
t-4.5 -34.5v-51q0 -14 10 -18t48 -4h430zM219 967q-9 8 -19 5.5t-31 -23.5l-10 -10q-17 -17 -20.5 -25.5t3.5 -15.5l90 -95q7 -7 12.5 -11t13 -6.5t18.5 -3t28 -0.5h12q17 0 28 0.5t18.5 3t13 6.5t12.5 11l91 95q7 7 3.5 15.5t-20.5 25.5l-10 10q-21 21 -31 23.5t-19 -5.5
l-92 -80z" />
    <glyph glyph-name="Zdotaccent" unicode="&#x17b;" horiz-adv-x="587" 
d="M526 0q7 0 12 1.5t7 8t3 19t1 33.5v7q0 22 -1 34.5t-3.5 18t-7 6.5t-11.5 1h-288l278 446q14 22 18 38.5t4 33.5v52q0 15 -10 18t-48 3h-396q-7 0 -11.5 -1t-7 -6.5t-3.5 -18t-1 -34.5v-7q0 -21 1 -33.5t3 -19t6.5 -8t12.5 -1.5h255l-278 -446q-14 -21 -18.5 -37.5
t-4.5 -34.5v-51q0 -14 10 -18t48 -4h430zM223 854q0 -35 24 -58t60 -23q35 0 59 23t24 58t-24 58t-59 23q-36 0 -60 -23t-24 -58z" />
    <glyph glyph-name="agrave" unicode="&#xe0;" horiz-adv-x="586" 
d="M380 487q-17 23 -48 37t-69 14q-47 0 -88.5 -19t-72.5 -55t-49.5 -89t-18.5 -121q0 -62 15.5 -110.5t43.5 -83t68 -52.5t90 -18q42 0 72 13.5t53 43.5q2 -17 6 -30q2 -5 5.5 -8.5t11 -5.5t20.5 -2.5t35 -0.5h5q26 0 40.5 1t21 4t7.5 8t0 13q-1 20 -2 46t-2 54t-1.5 57
t-0.5 55v59q0 67 1 119t1 91q0 6 -2.5 10t-10 6.5t-21.5 3.5t-37 1h-6q-23 0 -35.5 -1.5t-18.5 -3.5t-8 -5.5t-2 -7.5zM360 204q0 -29 -3.5 -44t-12.5 -24q-19 -19 -56 -19q-25 0 -41.5 10.5t-27 29.5t-15 45t-4.5 56q0 72 22 110.5t68 38.5q21 0 40 -10t30 -26v-167z
M183 792q-35 0 -42 -8t3 -21l125 -157q6 -8 16.5 -11t35.5 -3h37q29 0 37.5 6t-1.5 21l-103 158q-3 5 -6.5 8t-9.5 4.5t-16.5 2t-28.5 0.5h-47z" />
    <glyph glyph-name="aacute" unicode="&#xe1;" horiz-adv-x="586" 
d="M380 487q-17 23 -48 37t-69 14q-47 0 -88.5 -19t-72.5 -55t-49.5 -89t-18.5 -121q0 -62 15.5 -110.5t43.5 -83t68 -52.5t90 -18q42 0 72 13.5t53 43.5q2 -17 6 -30q2 -5 5.5 -8.5t11 -5.5t20.5 -2.5t35 -0.5h5q26 0 40.5 1t21 4t7.5 8t0 13q-1 20 -2 46t-2 54t-1.5 57
t-0.5 55v59q0 67 1 119t1 91q0 6 -2.5 10t-10 6.5t-21.5 3.5t-37 1h-6q-23 0 -35.5 -1.5t-18.5 -3.5t-8 -5.5t-2 -7.5zM360 204q0 -29 -3.5 -44t-12.5 -24q-19 -19 -56 -19q-25 0 -41.5 10.5t-27 29.5t-15 45t-4.5 56q0 72 22 110.5t68 38.5q21 0 40 -10t30 -26v-167z
M394 792q-18 0 -28.5 -0.5t-16.5 -2t-9.5 -4.5t-6.5 -8l-103 -158q-10 -15 -1.5 -21t37.5 -6h37q25 0 35.5 3t16.5 11l125 157q5 6 7 11.5t-1.5 9.5t-14 6t-30.5 2h-47z" />
    <glyph glyph-name="acircumflex" unicode="&#xe2;" horiz-adv-x="586" 
d="M380 487q-17 23 -48 37t-69 14q-47 0 -88.5 -19t-72.5 -55t-49.5 -89t-18.5 -121q0 -62 15.5 -110.5t43.5 -83t68 -52.5t90 -18q42 0 72 13.5t53 43.5q2 -17 6 -30q2 -5 5.5 -8.5t11 -5.5t20.5 -2.5t35 -0.5h5q26 0 40.5 1t21 4t7.5 8t0 13q-1 20 -2 46t-2 54t-1.5 57
t-0.5 55v59q0 67 1 119t1 91q0 6 -2.5 10t-10 6.5t-21.5 3.5t-37 1h-6q-23 0 -35.5 -1.5t-18.5 -3.5t-8 -5.5t-2 -7.5zM360 204q0 -29 -3.5 -44t-12.5 -24q-19 -19 -56 -19q-25 0 -41.5 10.5t-27 29.5t-15 45t-4.5 56q0 72 22 110.5t68 38.5q21 0 40 -10t30 -26v-167z
M303 678l89 -77q9 -8 19 -5.5t31 23.5l10 10q17 17 20.5 25.5t-3.5 15.5l-88 92q-7 7 -12.5 11t-13 6t-18.5 3t-28 1h-12q-17 0 -28 -1t-18.5 -3t-13 -6t-12.5 -11l-88 -92q-7 -7 -3.5 -15.5t20.5 -25.5l10 -10q21 -21 31 -23.5t19 5.5z" />
    <glyph glyph-name="atilde" unicode="&#xe3;" horiz-adv-x="586" 
d="M380 487q-17 23 -48 37t-69 14q-47 0 -88.5 -19t-72.5 -55t-49.5 -89t-18.5 -121q0 -62 15.5 -110.5t43.5 -83t68 -52.5t90 -18q42 0 72 13.5t53 43.5q2 -17 6 -30q2 -5 5.5 -8.5t11 -5.5t20.5 -2.5t35 -0.5h5q26 0 40.5 1t21 4t7.5 8t0 13q-1 20 -2 46t-2 54t-1.5 57
t-0.5 55v59q0 67 1 119t1 91q0 6 -2.5 10t-10 6.5t-21.5 3.5t-37 1h-6q-23 0 -35.5 -1.5t-18.5 -3.5t-8 -5.5t-2 -7.5zM360 204q0 -29 -3.5 -44t-12.5 -24q-19 -19 -56 -19q-25 0 -41.5 10.5t-27 29.5t-15 45t-4.5 56q0 72 22 110.5t68 38.5q21 0 40 -10t30 -26v-167z
M145 637q23 -23 33 -26t18 5q11 14 22.5 23t25.5 9q12 0 23 -4.5t28 -13.5q15 -8 33.5 -13t38.5 -5q31 0 61 17t56 49q9 11 3.5 18.5t-22.5 25.5l-6 6q-22 22 -29.5 24.5t-15.5 -5.5q-14 -13 -26.5 -21.5t-25.5 -8.5q-14 0 -24.5 5t-23.5 11q-14 7 -31 12.5t-41 5.5
q-38 0 -70 -21t-51 -47q-6 -8 -3 -15.5t23 -26.5z" />
    <glyph glyph-name="adieresis" unicode="&#xe4;" horiz-adv-x="586" 
d="M380 487q-17 23 -48 37t-69 14q-47 0 -88.5 -19t-72.5 -55t-49.5 -89t-18.5 -121q0 -62 15.5 -110.5t43.5 -83t68 -52.5t90 -18q42 0 72 13.5t53 43.5q2 -17 6 -30q2 -5 5.5 -8.5t11 -5.5t20.5 -2.5t35 -0.5h5q26 0 40.5 1t21 4t7.5 8t0 13q-1 20 -2 46t-2 54t-1.5 57
t-0.5 55v59q0 67 1 119t1 91q0 6 -2.5 10t-10 6.5t-21.5 3.5t-37 1h-6q-23 0 -35.5 -1.5t-18.5 -3.5t-8 -5.5t-2 -7.5zM360 204q0 -29 -3.5 -44t-12.5 -24q-19 -19 -56 -19q-25 0 -41.5 10.5t-27 29.5t-15 45t-4.5 56q0 72 22 110.5t68 38.5q21 0 40 -10t30 -26v-167z
M113 679q0 -35 23.5 -58t62.5 -23q36 0 60.5 23t24.5 58t-24.5 58.5t-60.5 23.5q-39 0 -62.5 -23.5t-23.5 -58.5zM330 679q0 -35 23.5 -58t62.5 -23q36 0 60.5 23t24.5 58t-24.5 58.5t-60.5 23.5q-39 0 -62.5 -23.5t-23.5 -58.5z" />
    <glyph glyph-name="amacron" unicode="&#x101;" horiz-adv-x="586" 
d="M380 487q-17 23 -48 37t-69 14q-47 0 -88.5 -19t-72.5 -55t-49.5 -89t-18.5 -121q0 -62 15.5 -110.5t43.5 -83t68 -52.5t90 -18q42 0 72 13.5t53 43.5q2 -17 6 -30q2 -5 5.5 -8.5t11 -5.5t20.5 -2.5t35 -0.5h5q26 0 40.5 1t21 4t7.5 8t0 13q-1 20 -2 46t-2 54t-1.5 57
t-0.5 55v59q0 67 1 119t1 91q0 6 -2.5 10t-10 6.5t-21.5 3.5t-37 1h-6q-23 0 -35.5 -1.5t-18.5 -3.5t-8 -5.5t-2 -7.5zM360 204q0 -29 -3.5 -44t-12.5 -24q-19 -19 -56 -19q-25 0 -41.5 10.5t-27 29.5t-15 45t-4.5 56q0 72 22 110.5t68 38.5q21 0 40 -10t30 -26v-167z
M156 735q-8 0 -11 -10t-3 -41v-7q0 -30 3 -40.5t11 -10.5h280q7 0 11 10.5t4 40.5v7q0 31 -4 41t-11 10h-280z" />
    <glyph glyph-name="abreve" unicode="&#x103;" horiz-adv-x="586" 
d="M380 487q-17 23 -48 37t-69 14q-47 0 -88.5 -19t-72.5 -55t-49.5 -89t-18.5 -121q0 -62 15.5 -110.5t43.5 -83t68 -52.5t90 -18q42 0 72 13.5t53 43.5q2 -17 6 -30q2 -5 5.5 -8.5t11 -5.5t20.5 -2.5t35 -0.5h5q26 0 40.5 1t21 4t7.5 8t0 13q-1 20 -2 46t-2 54t-1.5 57
t-0.5 55v59q0 67 1 119t1 91q0 6 -2.5 10t-10 6.5t-21.5 3.5t-37 1h-6q-23 0 -35.5 -1.5t-18.5 -3.5t-8 -5.5t-2 -7.5zM360 204q0 -29 -3.5 -44t-12.5 -24q-19 -19 -56 -19q-25 0 -41.5 10.5t-27 29.5t-15 45t-4.5 56q0 72 22 110.5t68 38.5q21 0 40 -10t30 -26v-167z
M186 762q-34 0 -44.5 -3.5t-9.5 -17.5q3 -69 46.5 -107t118.5 -38t118.5 38t46.5 107q1 14 -9 17.5t-44 3.5h-14q-30 0 -40 -5t-11 -13q-2 -26 -14.5 -37.5t-32.5 -11.5t-32 11.5t-14 37.5q-1 8 -10.5 13t-40.5 5h-14z" />
    <glyph glyph-name="acaron" unicode="&#x1ce;" horiz-adv-x="586" 
d="M380 487q-17 23 -48 37t-69 14q-47 0 -88.5 -19t-72.5 -55t-49.5 -89t-18.5 -121q0 -62 15.5 -110.5t43.5 -83t68 -52.5t90 -18q42 0 72 13.5t53 43.5q2 -17 6 -30q2 -5 5.5 -8.5t11 -5.5t20.5 -2.5t35 -0.5h5q26 0 40.5 1t21 4t7.5 8t0 13q-1 20 -2 46t-2 54t-1.5 57
t-0.5 55v59q0 67 1 119t1 91q0 6 -2.5 10t-10 6.5t-21.5 3.5t-37 1h-6q-23 0 -35.5 -1.5t-18.5 -3.5t-8 -5.5t-2 -7.5zM360 204q0 -29 -3.5 -44t-12.5 -24q-19 -19 -56 -19q-25 0 -41.5 10.5t-27 29.5t-15 45t-4.5 56q0 72 22 110.5t68 38.5q21 0 40 -10t30 -26v-167z
M201 776q-9 8 -19 5.5t-31 -23.5l-10 -10q-17 -17 -20.5 -25.5t3.5 -15.5l90 -95q7 -7 12.5 -11t13 -6.5t18.5 -3t28 -0.5h12q17 0 28 0.5t18.5 3t13 6.5t12.5 11l91 95q7 7 3.5 15.5t-20.5 25.5l-10 10q-21 21 -31 23.5t-19 -5.5l-92 -80z" />
    <glyph glyph-name="aring" unicode="&#xe5;" horiz-adv-x="586" 
d="M380 487q-17 23 -48 37t-69 14q-47 0 -88.5 -19t-72.5 -55t-49.5 -89t-18.5 -121q0 -62 15.5 -110.5t43.5 -83t68 -52.5t90 -18q42 0 72 13.5t53 43.5q2 -17 6 -30q2 -5 5.5 -8.5t11 -5.5t20.5 -2.5t35 -0.5h5q26 0 40.5 1t21 4t7.5 8t0 13q-1 20 -2 46t-2 54t-1.5 57
t-0.5 55v59q0 67 1 119t1 91q0 6 -2.5 10t-10 6.5t-21.5 3.5t-37 1h-6q-23 0 -35.5 -1.5t-18.5 -3.5t-8 -5.5t-2 -7.5zM360 204q0 -29 -3.5 -44t-12.5 -24q-19 -19 -56 -19q-25 0 -41.5 10.5t-27 29.5t-15 45t-4.5 56q0 72 22 110.5t68 38.5q21 0 40 -10t30 -26v-167z
M173 701q0 -24 9.5 -45t26.5 -37t39 -25.5t48 -9.5q25 0 47.5 9t39.5 25t26.5 37.5t9.5 45.5t-9.5 45.5t-26.5 37.5t-39.5 25t-47.5 9q-26 0 -48 -9.5t-39 -25.5t-26.5 -37t-9.5 -45zM263 701q0 14 9.5 23.5t23.5 9.5t23 -9.5t9 -23.5t-9 -23.5t-23 -9.5t-23.5 9.5
t-9.5 23.5z" />
    <glyph glyph-name="aringacute" unicode="&#x1fb;" horiz-adv-x="586" 
d="M380 487q-17 23 -48 37t-69 14q-47 0 -88.5 -19t-72.5 -55t-49.5 -89t-18.5 -121q0 -62 15.5 -110.5t43.5 -83t68 -52.5t90 -18q42 0 72 13.5t53 43.5q2 -17 6 -30q2 -5 5.5 -8.5t11 -5.5t20.5 -2.5t35 -0.5h5q26 0 40.5 1t21 4t7.5 8t0 13q-1 20 -2 46t-2 54t-1.5 57
t-0.5 55v59q0 67 1 119t1 91q0 6 -2.5 10t-10 6.5t-21.5 3.5t-37 1h-6q-23 0 -35.5 -1.5t-18.5 -3.5t-8 -5.5t-2 -7.5zM360 204q0 -29 -3.5 -44t-12.5 -24q-19 -19 -56 -19q-25 0 -41.5 10.5t-27 29.5t-15 45t-4.5 56q0 72 22 110.5t68 38.5q21 0 40 -10t30 -26v-167z
M343 1035q-18 0 -28.5 -0.5t-16.5 -2t-9.5 -4.5t-6.5 -8l-103 -158q-10 -15 -1.5 -21t37.5 -6h37q25 0 35.5 3t16.5 11l125 157q5 6 7 11.5t-1.5 9.5t-14 6t-30.5 2h-47zM173 691q0 -24 9.5 -45t26.5 -37t39 -25.5t48 -9.5q25 0 47.5 9t39.5 25t26.5 37.5t9.5 45.5
t-9.5 45.5t-26.5 37.5t-39.5 25t-47.5 9q-26 0 -48 -9.5t-39 -25.5t-26.5 -37t-9.5 -45zM263 691q0 14 9.5 23.5t23.5 9.5t23 -9.5t9 -23.5t-9 -23.5t-23 -9.5t-23.5 9.5t-9.5 23.5z" />
    <glyph glyph-name="aogonek" unicode="&#x105;" horiz-adv-x="586" 
d="M288 -136q0 -48 35 -79t99 -31q25 0 50.5 7t43.5 18q8 5 7.5 14t-8.5 32l-3 9q-9 26 -14 30.5t-13 1.5q-11 -5 -18.5 -7.5t-18.5 -2.5q-36 0 -36 42q0 37 26 65.5t76 41.5q10 2 12.5 7.5t1.5 15.5q-2 20 -3 45.5t-1.5 53.5t-1 56.5t-0.5 54.5v59q0 67 1 119t1 91
q0 6 -2.5 10t-10 6.5t-21.5 3.5t-37 1h-6q-23 0 -35.5 -1.5t-18.5 -3.5t-8 -5.5t-2 -7.5l-3 -23q-17 23 -48 37t-69 14q-47 0 -88.5 -19t-72.5 -55t-49.5 -89t-18.5 -121q0 -62 15.5 -110.5t43.5 -83t68 -52.5t90 -18q42 0 72 13.5t53 43.5q1 -6 4.5 -20t8.5 -22
q-48 -25 -74.5 -59.5t-26.5 -81.5zM360 204q0 -29 -3.5 -44t-12.5 -24q-19 -19 -56 -19q-25 0 -41.5 10.5t-27 29.5t-15 45t-4.5 56q0 72 22 110.5t68 38.5q21 0 40 -10t30 -26v-167z" />
    <glyph glyph-name="ae" unicode="&#xe6;" horiz-adv-x="867" 
d="M805 211q13 0 17.5 9.5t4.5 48.5q0 58 -15 107.5t-45 85.5t-74.5 56t-103.5 20q-47 0 -86 -13t-69 -36q-26 24 -65.5 36.5t-98.5 12.5q-24 0 -51 -4t-53 -11t-50.5 -17t-43.5 -22q-11 -8 -9.5 -18t12.5 -35l7 -15q13 -29 21.5 -35t26.5 2q29 14 63.5 22.5t63.5 8.5
q39 0 58.5 -18.5t19.5 -53.5v-14q-19 5 -39 7.5t-43 2.5q-50 0 -90.5 -11t-70 -32.5t-45.5 -54.5t-16 -76q0 -42 15.5 -75.5t41.5 -54.5t60.5 -32.5t79.5 -11.5q57 0 104 17t82 46q69 -63 185 -63q55 0 104 12t97 38q10 5 10.5 15t-8.5 38l-8 24q-9 27 -17 33.5t-16 2.5
q-40 -17 -74 -25.5t-70 -8.5q-96 0 -112 92h300zM255 115q-24 0 -43 12.5t-19 40.5q0 30 21.5 43.5t54.5 13.5q14 0 32.5 -2.5t35.5 -6.5q3 -36 15 -68q-20 -15 -43.5 -24t-53.5 -9zM505 321q14 90 85 90q32 0 51 -22.5t23 -67.5h-159z" />
    <glyph glyph-name="aeacute" unicode="&#x1fd;" horiz-adv-x="867" 
d="M805 211q13 0 17.5 9.5t4.5 48.5q0 58 -15 107.5t-45 85.5t-74.5 56t-103.5 20q-47 0 -86 -13t-69 -36q-26 24 -65.5 36.5t-98.5 12.5q-24 0 -51 -4t-53 -11t-50.5 -17t-43.5 -22q-11 -8 -9.5 -18t12.5 -35l7 -15q13 -29 21.5 -35t26.5 2q29 14 63.5 22.5t63.5 8.5
q39 0 58.5 -18.5t19.5 -53.5v-14q-19 5 -39 7.5t-43 2.5q-50 0 -90.5 -11t-70 -32.5t-45.5 -54.5t-16 -76q0 -42 15.5 -75.5t41.5 -54.5t60.5 -32.5t79.5 -11.5q57 0 104 17t82 46q69 -63 185 -63q55 0 104 12t97 38q10 5 10.5 15t-8.5 38l-8 24q-9 27 -17 33.5t-16 2.5
q-40 -17 -74 -25.5t-70 -8.5q-96 0 -112 92h300zM255 115q-24 0 -43 12.5t-19 40.5q0 30 21.5 43.5t54.5 13.5q14 0 32.5 -2.5t35.5 -6.5q3 -36 15 -68q-20 -15 -43.5 -24t-53.5 -9zM505 321q14 90 85 90q32 0 51 -22.5t23 -67.5h-159zM535 792q-18 0 -28.5 -0.5t-16.5 -2
t-9.5 -4.5t-6.5 -8l-103 -158q-10 -15 -1.5 -21t37.5 -6h37q25 0 35.5 3t16.5 11l125 157q5 6 7 11.5t-1.5 9.5t-14 6t-30.5 2h-47z" />
    <glyph glyph-name="cacute" unicode="&#x107;" horiz-adv-x="502" 
d="M461 429q15 27 17.5 37.5t-6.5 17.5q-33 26 -77 40t-93 14q-64 0 -112 -19t-81 -52q-75 -78 -75 -207q0 -66 21 -119.5t61 -90.5q31 -29 76.5 -44.5t102.5 -15.5q51 0 92.5 11.5t78.5 35.5q9 6 7.5 17t-12.5 39l-6 15q-14 34 -21 40t-23 -3q-18 -11 -43.5 -17.5
t-54.5 -6.5q-57 0 -85 38t-28 108q0 73 32 106.5t78 33.5q29 0 51.5 -7.5t45.5 -23.5q11 -8 18.5 -2.5t25.5 37.5zM353 792q-18 0 -28.5 -0.5t-16.5 -2t-9.5 -4.5t-6.5 -8l-103 -158q-10 -15 -1.5 -21t37.5 -6h37q25 0 35.5 3t16.5 11l125 157q5 6 7 11.5t-1.5 9.5t-14 6
t-30.5 2h-47z" />
    <glyph glyph-name="ccedilla" unicode="&#xe7;" horiz-adv-x="504" 
d="M461 429q15 27 17.5 37.5t-6.5 17.5q-33 26 -77 40t-93 14q-64 0 -112 -19t-81 -52q-75 -78 -75 -207q0 -66 21 -119.5t61 -90.5q37 -35 99 -51l-16 -112q15 4 30.5 5.5t28.5 1.5q16 0 28.5 -4.5t12.5 -19.5q0 -28 -34 -28q-11 0 -25.5 2.5t-22.5 4.5q-9 2 -14 -2.5
t-11 -27.5l-3 -11q-7 -24 -5 -29t10 -8q17 -6 38 -10t47 -4q35 0 60 9.5t41.5 25t24.5 36t8 42.5q0 25 -9 42.5t-25 29t-36.5 16t-43.5 4.5l2 28q49 1 89 12.5t76 34.5q9 6 7.5 17t-12.5 39l-6 15q-14 34 -21 40t-23 -3q-18 -11 -43.5 -17.5t-54.5 -6.5q-57 0 -85 38
t-28 108q0 73 32 106.5t78 33.5q29 0 51.5 -7.5t45.5 -23.5q11 -8 18.5 -2.5t25.5 37.5z" />
    <glyph glyph-name="ccircumflex" unicode="&#x109;" horiz-adv-x="502" 
d="M461 429q15 27 17.5 37.5t-6.5 17.5q-33 26 -77 40t-93 14q-64 0 -112 -19t-81 -52q-75 -78 -75 -207q0 -66 21 -119.5t61 -90.5q31 -29 76.5 -44.5t102.5 -15.5q51 0 92.5 11.5t78.5 35.5q9 6 7.5 17t-12.5 39l-6 15q-14 34 -21 40t-23 -3q-18 -11 -43.5 -17.5
t-54.5 -6.5q-57 0 -85 38t-28 108q0 73 32 106.5t78 33.5q29 0 51.5 -7.5t45.5 -23.5q11 -8 18.5 -2.5t25.5 37.5zM301 678l89 -77q9 -8 19 -5.5t31 23.5l10 10q17 17 20.5 25.5t-3.5 15.5l-88 92q-7 7 -12.5 11t-13 6t-18.5 3t-28 1h-12q-17 0 -28 -1t-18.5 -3t-13 -6
t-12.5 -11l-88 -92q-7 -7 -3.5 -15.5t20.5 -25.5l10 -10q21 -21 31 -23.5t19 5.5z" />
    <glyph glyph-name="ccaron" unicode="&#x10d;" horiz-adv-x="502" 
d="M461 429q15 27 17.5 37.5t-6.5 17.5q-33 26 -77 40t-93 14q-64 0 -112 -19t-81 -52q-75 -78 -75 -207q0 -66 21 -119.5t61 -90.5q31 -29 76.5 -44.5t102.5 -15.5q51 0 92.5 11.5t78.5 35.5q9 6 7.5 17t-12.5 39l-6 15q-14 34 -21 40t-23 -3q-18 -11 -43.5 -17.5
t-54.5 -6.5q-57 0 -85 38t-28 108q0 73 32 106.5t78 33.5q29 0 51.5 -7.5t45.5 -23.5q11 -8 18.5 -2.5t25.5 37.5zM209 776q-9 8 -19 5.5t-31 -23.5l-10 -10q-17 -17 -20.5 -25.5t3.5 -15.5l90 -95q7 -7 12.5 -11t13 -6.5t18.5 -3t28 -0.5h12q17 0 28 0.5t18.5 3t13 6.5
t12.5 11l91 95q7 7 3.5 15.5t-20.5 25.5l-10 10q-21 21 -31 23.5t-19 -5.5l-92 -80z" />
    <glyph glyph-name="cdotaccent" unicode="&#x10b;" horiz-adv-x="502" 
d="M461 429q15 27 17.5 37.5t-6.5 17.5q-33 26 -77 40t-93 14q-64 0 -112 -19t-81 -52q-75 -78 -75 -207q0 -66 21 -119.5t61 -90.5q31 -29 76.5 -44.5t102.5 -15.5q51 0 92.5 11.5t78.5 35.5q9 6 7.5 17t-12.5 39l-6 15q-14 34 -21 40t-23 -3q-18 -11 -43.5 -17.5
t-54.5 -6.5q-57 0 -85 38t-28 108q0 73 32 106.5t78 33.5q29 0 51.5 -7.5t45.5 -23.5q11 -8 18.5 -2.5t25.5 37.5zM217 691q0 -35 24 -58t60 -23q35 0 59 23t24 58t-24 58t-59 23q-36 0 -60 -23t-24 -58z" />
    <glyph glyph-name="dcaron" unicode="&#x10f;" horiz-adv-x="713" 
d="M442 760q-29 0 -45 -1t-23.5 -4t-9 -7t-1.5 -10v-234q-42 34 -101 34q-51 0 -93 -19t-72 -55.5t-46.5 -89t-16.5 -118.5q0 -62 15 -111t43.5 -83.5t69 -53t91.5 -18.5q85 0 130 57q10 -23 35.5 -37t58.5 -14q46 0 75 13q9 4 11.5 13.5t2.5 37.5v11q0 31 -2.5 39t-13.5 8
q-13 0 -19 4t-6 16v600q0 6 -2 10t-10 7t-23.5 4t-42.5 1h-5zM363 200q0 -26 -2.5 -39.5t-9.5 -21.5q-8 -9 -23.5 -14.5t-36.5 -5.5q-17 0 -34 6t-28 20q-14 14 -21.5 41t-7.5 70q0 74 22 113t68 39q42 0 73 -33v-175zM582 459q14 -12 20.5 -12t12.5 5q49 40 78.5 92.5
t29.5 100.5q0 40 -22 62.5t-55 22.5q-31 0 -50.5 -17t-19.5 -43q0 -14 5.5 -24t12 -19t12 -18t5.5 -21q0 -18 -12.5 -43.5t-35.5 -53.5q-4 -5 -1.5 -10.5t14.5 -16.5z" />
    <glyph glyph-name="dcroat" unicode="&#x111;" horiz-adv-x="599" 
d="M232 701q-11 0 -16 -9.5t-5 -46.5t4.5 -47t16.5 -10h131v-84q-42 34 -101 34q-51 0 -93 -19t-72 -55.5t-46.5 -89t-16.5 -118.5q0 -62 15 -111t43.5 -83.5t69 -53t91.5 -18.5q85 0 130 57q10 -23 35.5 -37t58.5 -14q46 0 75 13q9 4 11.5 13.5t2.5 37.5v11q0 31 -2.5 39
t-13.5 8q-13 0 -19 4t-6 16v450h53q9 0 14.5 10t5.5 47t-5.5 46.5t-14.5 9.5h-53v37q0 6 -2 10t-10 7t-23.5 4t-42.5 1h-5q-29 0 -45 -1t-23.5 -4t-9 -7t-1.5 -10v-37h-131zM363 200q0 -26 -2.5 -39.5t-9.5 -21.5q-8 -9 -23.5 -14.5t-36.5 -5.5q-17 0 -34 6t-28 20
q-14 14 -21.5 41t-7.5 70q0 74 22 113t68 39q42 0 73 -33v-175z" />
    <glyph glyph-name="eth" unicode="&#xf0;" horiz-adv-x="590" 
d="M266 762q-8 4 -14.5 5.5t-12.5 -0.5t-13.5 -9t-18.5 -19l-14 -16q-20 -23 -21 -33.5t8 -16.5q17 -11 31.5 -21t30.5 -23l-67 -19q-7 -2 -10 -5t-3 -7.5t1.5 -11.5t3.5 -18l2 -7q7 -26 12 -31.5t21 -2.5l107 29q10 -14 18.5 -30t15.5 -33q-14 5 -34 9t-42 4q-46 0 -88 -17
t-74.5 -50t-51.5 -80.5t-19 -108.5q0 -59 17 -106.5t48.5 -82t77 -53t101.5 -18.5q69 0 119.5 23.5t84.5 65.5t50.5 100.5t16.5 129.5q0 81 -22.5 153.5t-66.5 135.5l66 19q8 2 9 10.5t-4 29.5l-3 11q-7 25 -13 30t-17 2l-102 -29q-28 26 -60 49t-70 42zM381 315
q0 -105 -22.5 -152t-74.5 -47q-38 0 -61.5 32.5t-23.5 98.5q0 69 25 103t72 34q23 0 45 -8t37 -19q3 -21 3 -42z" />
    <glyph glyph-name="egrave" unicode="&#xe8;" horiz-adv-x="568" 
d="M506 211q13 0 17.5 9.5t4.5 48.5q0 58 -15 107.5t-45 85.5t-74.5 56t-103.5 20q-60 0 -107.5 -20.5t-80.5 -57.5t-50.5 -88.5t-17.5 -112.5q0 -64 19 -114t53.5 -84.5t84 -52.5t109.5 -18q55 0 104 12t97 38q10 5 10.5 15t-8.5 38l-8 24q-9 27 -17 33.5t-16 2.5
q-40 -17 -74 -25.5t-70 -8.5q-48 0 -77.5 22.5t-37.5 69.5h303zM202 312q5 51 28 76.5t58 25.5q20 0 34.5 -8t24 -22t14 -32.5t5.5 -39.5h-164zM176 792q-35 0 -42 -8t3 -21l125 -157q6 -8 16.5 -11t35.5 -3h37q29 0 37.5 6t-1.5 21l-103 158q-3 5 -6.5 8t-9.5 4.5t-16.5 2
t-28.5 0.5h-47z" />
    <glyph glyph-name="eacute" unicode="&#xe9;" horiz-adv-x="568" 
d="M506 211q13 0 17.5 9.5t4.5 48.5q0 58 -15 107.5t-45 85.5t-74.5 56t-103.5 20q-60 0 -107.5 -20.5t-80.5 -57.5t-50.5 -88.5t-17.5 -112.5q0 -64 19 -114t53.5 -84.5t84 -52.5t109.5 -18q55 0 104 12t97 38q10 5 10.5 15t-8.5 38l-8 24q-9 27 -17 33.5t-16 2.5
q-40 -17 -74 -25.5t-70 -8.5q-48 0 -77.5 22.5t-37.5 69.5h303zM202 312q5 51 28 76.5t58 25.5q20 0 34.5 -8t24 -22t14 -32.5t5.5 -39.5h-164zM372 792q-18 0 -28.5 -0.5t-16.5 -2t-9.5 -4.5t-6.5 -8l-103 -158q-10 -15 -1.5 -21t37.5 -6h37q25 0 35.5 3t16.5 11l125 157
q5 6 7 11.5t-1.5 9.5t-14 6t-30.5 2h-47z" />
    <glyph glyph-name="ecircumflex" unicode="&#xea;" horiz-adv-x="568" 
d="M506 211q13 0 17.5 9.5t4.5 48.5q0 58 -15 107.5t-45 85.5t-74.5 56t-103.5 20q-60 0 -107.5 -20.5t-80.5 -57.5t-50.5 -88.5t-17.5 -112.5q0 -64 19 -114t53.5 -84.5t84 -52.5t109.5 -18q55 0 104 12t97 38q10 5 10.5 15t-8.5 38l-8 24q-9 27 -17 33.5t-16 2.5
q-40 -17 -74 -25.5t-70 -8.5q-48 0 -77.5 22.5t-37.5 69.5h303zM202 312q5 51 28 76.5t58 25.5q20 0 34.5 -8t24 -22t14 -32.5t5.5 -39.5h-164zM292 678l89 -77q9 -8 19 -5.5t31 23.5l10 10q17 17 20.5 25.5t-3.5 15.5l-88 92q-7 7 -12.5 11t-13 6t-18.5 3t-28 1h-12
q-17 0 -28 -1t-18.5 -3t-13 -6t-12.5 -11l-88 -92q-7 -7 -3.5 -15.5t20.5 -25.5l10 -10q21 -21 31 -23.5t19 5.5z" />
    <glyph glyph-name="ecaron" unicode="&#x11b;" horiz-adv-x="568" 
d="M506 211q13 0 17.5 9.5t4.5 48.5q0 58 -15 107.5t-45 85.5t-74.5 56t-103.5 20q-60 0 -107.5 -20.5t-80.5 -57.5t-50.5 -88.5t-17.5 -112.5q0 -64 19 -114t53.5 -84.5t84 -52.5t109.5 -18q55 0 104 12t97 38q10 5 10.5 15t-8.5 38l-8 24q-9 27 -17 33.5t-16 2.5
q-40 -17 -74 -25.5t-70 -8.5q-48 0 -77.5 22.5t-37.5 69.5h303zM202 312q5 51 28 76.5t58 25.5q20 0 34.5 -8t24 -22t14 -32.5t5.5 -39.5h-164zM203 776q-9 8 -19 5.5t-31 -23.5l-10 -10q-17 -17 -20.5 -25.5t3.5 -15.5l90 -95q7 -7 12.5 -11t13 -6.5t18.5 -3t28 -0.5h12
q17 0 28 0.5t18.5 3t13 6.5t12.5 11l91 95q7 7 3.5 15.5t-20.5 25.5l-10 10q-21 21 -31 23.5t-19 -5.5l-92 -80z" />
    <glyph glyph-name="edieresis" unicode="&#xeb;" horiz-adv-x="568" 
d="M506 211q13 0 17.5 9.5t4.5 48.5q0 58 -15 107.5t-45 85.5t-74.5 56t-103.5 20q-60 0 -107.5 -20.5t-80.5 -57.5t-50.5 -88.5t-17.5 -112.5q0 -64 19 -114t53.5 -84.5t84 -52.5t109.5 -18q55 0 104 12t97 38q10 5 10.5 15t-8.5 38l-8 24q-9 27 -17 33.5t-16 2.5
q-40 -17 -74 -25.5t-70 -8.5q-48 0 -77.5 22.5t-37.5 69.5h303zM202 312q5 51 28 76.5t58 25.5q20 0 34.5 -8t24 -22t14 -32.5t5.5 -39.5h-164zM96 679q0 -35 23.5 -58t62.5 -23q36 0 60.5 23t24.5 58t-24.5 58.5t-60.5 23.5q-39 0 -62.5 -23.5t-23.5 -58.5zM313 679
q0 -35 23.5 -58t62.5 -23q36 0 60.5 23t24.5 58t-24.5 58.5t-60.5 23.5q-39 0 -62.5 -23.5t-23.5 -58.5z" />
    <glyph glyph-name="emacron" unicode="&#x113;" horiz-adv-x="568" 
d="M506 211q13 0 17.5 9.5t4.5 48.5q0 58 -15 107.5t-45 85.5t-74.5 56t-103.5 20q-60 0 -107.5 -20.5t-80.5 -57.5t-50.5 -88.5t-17.5 -112.5q0 -64 19 -114t53.5 -84.5t84 -52.5t109.5 -18q55 0 104 12t97 38q10 5 10.5 15t-8.5 38l-8 24q-9 27 -17 33.5t-16 2.5
q-40 -17 -74 -25.5t-70 -8.5q-48 0 -77.5 22.5t-37.5 69.5h303zM202 312q5 51 28 76.5t58 25.5q20 0 34.5 -8t24 -22t14 -32.5t5.5 -39.5h-164zM155 735q-8 0 -11 -10t-3 -41v-7q0 -30 3 -40.5t11 -10.5h280q7 0 11 10.5t4 40.5v7q0 31 -4 41t-11 10h-280z" />
    <glyph glyph-name="ebreve" unicode="&#x115;" horiz-adv-x="568" 
d="M506 211q13 0 17.5 9.5t4.5 48.5q0 58 -15 107.5t-45 85.5t-74.5 56t-103.5 20q-60 0 -107.5 -20.5t-80.5 -57.5t-50.5 -88.5t-17.5 -112.5q0 -64 19 -114t53.5 -84.5t84 -52.5t109.5 -18q55 0 104 12t97 38q10 5 10.5 15t-8.5 38l-8 24q-9 27 -17 33.5t-16 2.5
q-40 -17 -74 -25.5t-70 -8.5q-48 0 -77.5 22.5t-37.5 69.5h303zM202 312q5 51 28 76.5t58 25.5q20 0 34.5 -8t24 -22t14 -32.5t5.5 -39.5h-164zM185 762q-34 0 -44.5 -3.5t-9.5 -17.5q3 -69 46.5 -107t118.5 -38t118.5 38t46.5 107q1 14 -9 17.5t-44 3.5h-14q-30 0 -40 -5
t-11 -13q-2 -26 -14.5 -37.5t-32.5 -11.5t-32 11.5t-14 37.5q-1 8 -10.5 13t-40.5 5h-14z" />
    <glyph glyph-name="edotaccent" unicode="&#x117;" horiz-adv-x="568" 
d="M506 211q13 0 17.5 9.5t4.5 48.5q0 58 -15 107.5t-45 85.5t-74.5 56t-103.5 20q-60 0 -107.5 -20.5t-80.5 -57.5t-50.5 -88.5t-17.5 -112.5q0 -64 19 -114t53.5 -84.5t84 -52.5t109.5 -18q55 0 104 12t97 38q10 5 10.5 15t-8.5 38l-8 24q-9 27 -17 33.5t-16 2.5
q-40 -17 -74 -25.5t-70 -8.5q-48 0 -77.5 22.5t-37.5 69.5h303zM202 312q5 51 28 76.5t58 25.5q20 0 34.5 -8t24 -22t14 -32.5t5.5 -39.5h-164zM212 691q0 -35 24 -58t60 -23q35 0 59 23t24 58t-24 58t-59 23q-36 0 -60 -23t-24 -58z" />
    <glyph glyph-name="eogonek" unicode="&#x119;" horiz-adv-x="568" 
d="M506 211q13 0 17.5 9.5t4.5 48.5q0 58 -15 107.5t-45 85.5t-74.5 56t-103.5 20q-60 0 -107.5 -20.5t-80.5 -57.5t-50.5 -88.5t-17.5 -112.5q0 -64 19 -114t53.5 -84.5t84 -52.5t109.5 -18h10.5t11.5 1q-26 -24 -41.5 -55.5t-15.5 -65.5q0 -53 32 -84.5t95 -31.5
q25 0 51.5 6.5t49.5 18.5q7 4 7.5 12t-8.5 34l-3 9q-8 26 -13 30t-13 1q-10 -4 -20.5 -6.5t-18.5 -2.5q-35 0 -35 40q0 43 29 79.5t83 64.5q10 5 10.5 15t-8.5 38l-8 24q-9 27 -17 33.5t-16 2.5q-40 -17 -74 -25.5t-70 -8.5q-48 0 -77.5 22.5t-37.5 69.5h303zM202 312
q5 51 28 76.5t58 25.5q20 0 34.5 -8t24 -22t14 -32.5t5.5 -39.5h-164z" />
    <glyph glyph-name="gcircumflex" unicode="&#x11d;" horiz-adv-x="589" 
d="M449 528q-17 0 -27 -0.5t-15 -2t-7 -4.5t-3 -7q-2 -5 -3 -13.5t-3 -17.5q-26 26 -57.5 40.5t-71.5 14.5q-50 0 -91.5 -18.5t-71.5 -54t-47.5 -87.5t-17.5 -118q0 -124 59 -193t162 -69q69 0 114 38v-11q0 -37 -6 -62t-19 -40t-32 -21.5t-45 -6.5t-58 9t-55 20
q-11 5 -18.5 -3t-21.5 -40l-7 -16q-7 -15 -10 -25t-3 -16t3 -9.5t8 -6.5q30 -18 76.5 -29.5t93.5 -11.5q63 0 110.5 15.5t78.5 50.5q62 66 62 209v262v63.5t-1 61t-3 50t-5 32.5q-2 6 -5 9.5t-9 5t-16 2t-28 0.5h-10zM364 211q0 -23 -1.5 -38.5t-8.5 -24.5q-16 -22 -61 -22
q-93 0 -93 134q0 75 24 111.5t67 36.5q26 0 43 -10t30 -27v-160zM294 678l89 -77q9 -8 19 -5.5t31 23.5l10 10q17 17 20.5 25.5t-3.5 15.5l-88 92q-7 7 -12.5 11t-13 6t-18.5 3t-28 1h-12q-17 0 -28 -1t-18.5 -3t-13 -6t-12.5 -11l-88 -92q-7 -7 -3.5 -15.5t20.5 -25.5
l10 -10q21 -21 31 -23.5t19 5.5z" />
    <glyph glyph-name="gbreve" unicode="&#x11f;" horiz-adv-x="589" 
d="M449 528q-17 0 -27 -0.5t-15 -2t-7 -4.5t-3 -7q-2 -5 -3 -13.5t-3 -17.5q-26 26 -57.5 40.5t-71.5 14.5q-50 0 -91.5 -18.5t-71.5 -54t-47.5 -87.5t-17.5 -118q0 -124 59 -193t162 -69q69 0 114 38v-11q0 -37 -6 -62t-19 -40t-32 -21.5t-45 -6.5t-58 9t-55 20
q-11 5 -18.5 -3t-21.5 -40l-7 -16q-7 -15 -10 -25t-3 -16t3 -9.5t8 -6.5q30 -18 76.5 -29.5t93.5 -11.5q63 0 110.5 15.5t78.5 50.5q62 66 62 209v262v63.5t-1 61t-3 50t-5 32.5q-2 6 -5 9.5t-9 5t-16 2t-28 0.5h-10zM364 211q0 -23 -1.5 -38.5t-8.5 -24.5q-16 -22 -61 -22
q-93 0 -93 134q0 75 24 111.5t67 36.5q26 0 43 -10t30 -27v-160zM183 762q-34 0 -44.5 -3.5t-9.5 -17.5q3 -69 46.5 -107t118.5 -38t118.5 38t46.5 107q1 14 -9 17.5t-44 3.5h-14q-30 0 -40 -5t-11 -13q-2 -26 -14.5 -37.5t-32.5 -11.5t-32 11.5t-14 37.5q-1 8 -10.5 13
t-40.5 5h-14z" />
    <glyph glyph-name="gdotaccent" unicode="&#x121;" horiz-adv-x="589" 
d="M449 528q-17 0 -27 -0.5t-15 -2t-7 -4.5t-3 -7q-2 -5 -3 -13.5t-3 -17.5q-26 26 -57.5 40.5t-71.5 14.5q-50 0 -91.5 -18.5t-71.5 -54t-47.5 -87.5t-17.5 -118q0 -124 59 -193t162 -69q69 0 114 38v-11q0 -37 -6 -62t-19 -40t-32 -21.5t-45 -6.5t-58 9t-55 20
q-11 5 -18.5 -3t-21.5 -40l-7 -16q-7 -15 -10 -25t-3 -16t3 -9.5t8 -6.5q30 -18 76.5 -29.5t93.5 -11.5q63 0 110.5 15.5t78.5 50.5q62 66 62 209v262v63.5t-1 61t-3 50t-5 32.5q-2 6 -5 9.5t-9 5t-16 2t-28 0.5h-10zM364 211q0 -23 -1.5 -38.5t-8.5 -24.5q-16 -22 -61 -22
q-93 0 -93 134q0 75 24 111.5t67 36.5q26 0 43 -10t30 -27v-160zM211 691q0 -35 24 -58t60 -23q35 0 59 23t24 58t-24 58t-59 23q-36 0 -60 -23t-24 -58z" />
    <glyph glyph-name="gcommaaccent" unicode="&#x123;" horiz-adv-x="589" 
d="M359 868q12 -11 14.5 -16.5t-1.5 -10.5q-23 -28 -35.5 -53.5t-12.5 -43.5q0 -12 5.5 -21t12 -18t12 -19t5.5 -24q0 -26 -19.5 -43t-50.5 -17q-33 0 -55 22.5t-22 62.5q0 48 29.5 100.5t78.5 92.5q6 5 12.5 5t20.5 -12zM459 528q18 0 28 -0.5t16 -2t9 -5t5 -9.5
q3 -11 5 -32.5t3 -50t1 -61v-63.5v-262q0 -143 -62 -209q-31 -35 -78.5 -50.5t-110.5 -15.5q-47 0 -93.5 11.5t-76.5 29.5q-5 3 -8 6.5t-3 9.5t3 16t10 25l7 16q14 32 21.5 40t18.5 3q23 -11 55 -20t58 -9t45 6.5t32 21.5t19 40t6 62v11q-45 -38 -114 -38q-103 0 -162 69
t-59 193q0 66 17.5 118t47.5 87.5t71.5 54t91.5 18.5q40 0 71.5 -14.5t57.5 -40.5q2 9 3 17.5t3 13.5q1 4 3 7t7 4.5t15 2t27 0.5h10zM364 371q-13 17 -30 27t-43 10q-43 0 -67 -36.5t-24 -111.5q0 -134 93 -134q45 0 61 22q7 9 8.5 24.5t1.5 38.5v160z" />
    <glyph glyph-name="hcircumflex" unicode="&#x125;" horiz-adv-x="596" 
d="M142 760q-29 0 -45 -1t-23.5 -4t-9 -7t-1.5 -10v-716q0 -6 1.5 -10t9 -7t23.5 -4t45 -1h5q27 0 42.5 1t23.5 4t10 7t2 10v227v52.5t2 42.5q2 19 7 29.5t15 17.5q19 13 56 13t54 -20q4 -5 7 -12t5 -18.5t2.5 -28t0.5 -41.5v-262q0 -6 1.5 -10t9 -7t24 -4t45.5 -1h5
q27 0 42 1t23 4t10 7t2 10v299q0 56 -11.5 94t-37.5 67q-23 26 -59 41t-84 15q-33 0 -64.5 -11.5t-54.5 -31.5v243q0 6 -2 10t-10 7t-23.5 4t-42.5 1h-5zM144 866l89 -77q9 -8 19 -5.5t31 23.5l10 10q17 17 20.5 25.5t-3.5 15.5l-88 92q-7 7 -12.5 11t-13 6t-18.5 3t-28 1
h-12q-17 0 -28 -1t-18.5 -3t-13 -6t-12.5 -11l-88 -92q-7 -7 -3.5 -15.5t20.5 -25.5l10 -10q21 -21 31 -23.5t19 5.5z" />
    <glyph glyph-name="hbar" unicode="&#x127;" horiz-adv-x="596" 
d="M142 760q-29 0 -45 -1t-23.5 -4t-9 -7t-1.5 -10v-37h-53q-9 0 -14.5 -9.5t-5.5 -46.5t5.5 -47t14.5 -10h53v-566q0 -6 1.5 -10t9 -7t23.5 -4t45 -1h5q27 0 42.5 1t23.5 4t10 7t2 10v227v52.5t2 42.5q2 19 7 29.5t15 17.5q19 13 56 13t54 -20q4 -5 7 -12t5 -18.5t2.5 -28
t0.5 -41.5v-262q0 -6 1.5 -10t9 -7t24 -4t45.5 -1h5q27 0 42 1t23 4t10 7t2 10v299q0 56 -11.5 94t-37.5 67q-23 26 -59 41t-84 15q-33 0 -64.5 -11.5t-54.5 -31.5v93h131q12 0 16.5 10t4.5 47t-5 46.5t-16 9.5h-131v37q0 6 -2 10t-10 7t-23.5 4t-42.5 1h-5z" />
    <glyph glyph-name="dotlessi" unicode="&#x131;" horiz-adv-x="294" 
d="M145 528q-29 0 -45.5 -1t-24 -4t-9 -7t-1.5 -10v-484q0 -6 1.5 -10t9 -7t24 -4t45.5 -1h5q27 0 42 1t23 4t10 7t2 10v484q0 6 -2 10t-10 7t-23 4t-42 1h-5z" />
    <glyph glyph-name="igrave" unicode="&#xec;" horiz-adv-x="296" 
d="M145 528q-29 0 -45.5 -1t-24 -4t-9 -7t-1.5 -10v-484q0 -6 1.5 -10t9 -7t24 -4t45.5 -1h5q27 0 42 1t23 4t10 7t2 10v484q0 6 -2 10t-10 7t-23 4t-42 1h-5zM29 792q-35 0 -42 -8t3 -21l125 -157q6 -8 16.5 -11t35.5 -3h37q29 0 37.5 6t-1.5 21l-103 158q-3 5 -6.5 8
t-9.5 4.5t-16.5 2t-28.5 0.5h-47z" />
    <glyph glyph-name="iacute" unicode="&#xed;" horiz-adv-x="296" 
d="M145 528q-29 0 -45.5 -1t-24 -4t-9 -7t-1.5 -10v-484q0 -6 1.5 -10t9 -7t24 -4t45.5 -1h5q27 0 42 1t23 4t10 7t2 10v484q0 6 -2 10t-10 7t-23 4t-42 1h-5zM217 792q-18 0 -28.5 -0.5t-16.5 -2t-9.5 -4.5t-6.5 -8l-103 -158q-10 -15 -1.5 -21t37.5 -6h37q25 0 35.5 3
t16.5 11l125 157q5 6 7 11.5t-1.5 9.5t-14 6t-30.5 2h-47z" />
    <glyph glyph-name="icircumflex" unicode="&#xee;" horiz-adv-x="296" 
d="M145 528q-29 0 -45.5 -1t-24 -4t-9 -7t-1.5 -10v-484q0 -6 1.5 -10t9 -7t24 -4t45.5 -1h5q27 0 42 1t23 4t10 7t2 10v484q0 6 -2 10t-10 7t-23 4t-42 1h-5zM148 678l89 -77q9 -8 19 -5.5t31 23.5l10 10q17 17 20.5 25.5t-3.5 15.5l-88 92q-7 7 -12.5 11t-13 6t-18.5 3
t-28 1h-12q-17 0 -28 -1t-18.5 -3t-13 -6t-12.5 -11l-88 -92q-7 -7 -3.5 -15.5t20.5 -25.5l10 -10q21 -21 31 -23.5t19 5.5z" />
    <glyph glyph-name="itilde" unicode="&#x129;" horiz-adv-x="294" 
d="M145 528q-29 0 -45.5 -1t-24 -4t-9 -7t-1.5 -10v-484q0 -6 1.5 -10t9 -7t24 -4t45.5 -1h5q27 0 42 1t23 4t10 7t2 10v484q0 6 -2 10t-10 7t-23 4t-42 1h-5zM-12 637q23 -23 33 -26t18 5q11 14 22.5 23t25.5 9q12 0 23 -4.5t28 -13.5q15 -8 33.5 -13t38.5 -5q31 0 61 17
t56 49q9 11 3.5 18.5t-22.5 25.5l-6 6q-22 22 -29.5 24.5t-15.5 -5.5q-14 -13 -26.5 -21.5t-25.5 -8.5q-14 0 -24.5 5t-23.5 11q-14 7 -31 12.5t-41 5.5q-38 0 -70 -21t-51 -47q-6 -8 -3 -15.5t23 -26.5z" />
    <glyph glyph-name="idieresis" unicode="&#xef;" horiz-adv-x="296" 
d="M145 528q-29 0 -45.5 -1t-24 -4t-9 -7t-1.5 -10v-484q0 -6 1.5 -10t9 -7t24 -4t45.5 -1h5q27 0 42 1t23 4t10 7t2 10v484q0 6 -2 10t-10 7t-23 4t-42 1h-5zM-48 679q0 -35 23.5 -58t62.5 -23q36 0 60.5 23t24.5 58t-24.5 58.5t-60.5 23.5q-39 0 -62.5 -23.5t-23.5 -58.5z
M169 679q0 -35 23.5 -58t62.5 -23q36 0 60.5 23t24.5 58t-24.5 58.5t-60.5 23.5q-39 0 -62.5 -23.5t-23.5 -58.5z" />
    <glyph glyph-name="imacron" unicode="&#x12b;" horiz-adv-x="294" 
d="M145 528q-29 0 -45.5 -1t-24 -4t-9 -7t-1.5 -10v-484q0 -6 1.5 -10t9 -7t24 -4t45.5 -1h5q27 0 42 1t23 4t10 7t2 10v484q0 6 -2 10t-10 7t-23 4t-42 1h-5zM7 735q-8 0 -11 -10t-3 -41v-7q0 -30 3 -40.5t11 -10.5h280q7 0 11 10.5t4 40.5v7q0 31 -4 41t-11 10h-280z" />
    <glyph glyph-name="ibreve" unicode="&#x12d;" horiz-adv-x="294" 
d="M145 528q-29 0 -45.5 -1t-24 -4t-9 -7t-1.5 -10v-484q0 -6 1.5 -10t9 -7t24 -4t45.5 -1h5q27 0 42 1t23 4t10 7t2 10v484q0 6 -2 10t-10 7t-23 4t-42 1h-5zM36 762q-34 0 -44.5 -3.5t-9.5 -17.5q3 -69 46.5 -107t118.5 -38t118.5 38t46.5 107q1 14 -9 17.5t-44 3.5h-14
q-30 0 -40 -5t-11 -13q-2 -26 -14.5 -37.5t-32.5 -11.5t-32 11.5t-14 37.5q-1 8 -10.5 13t-40.5 5h-14z" />
    <glyph glyph-name="iogonek" unicode="&#x12f;" horiz-adv-x="296" 
d="M145 528q-29 0 -45.5 -1t-24 -4t-9 -7t-1.5 -10v-503q-27 -21 -48 -54.5t-21 -75.5q0 -52 36 -85.5t98 -33.5q24 0 51.5 7t45.5 18q8 5 7.5 14t-8.5 32l-3 9q-8 22 -12.5 27.5t-13.5 2.5q-22 -8 -37 -8q-17 0 -28.5 11.5t-11.5 34.5q0 20 7.5 37t21.5 31q15 15 29.5 21
t25 9.5t17 7t6.5 14.5v484q0 6 -2 10t-10 7t-23 4t-42 1h-5zM49 678q0 -18 7.5 -35t20 -30t30 -20.5t38.5 -7.5t39 7.5t30.5 20.5t20 30t7.5 35q0 19 -7.5 36t-20 30t-30.5 20.5t-39 7.5q-42 0 -69 -28t-27 -66z" />
    <glyph glyph-name="ij" unicode="&#x133;" horiz-adv-x="601" 
d="M49 678q0 -18 7.5 -35t20 -30t30 -20.5t38.5 -7.5t39 7.5t30.5 20.5t20 30t7.5 35q0 19 -7.5 36t-20 30t-30.5 20.5t-39 7.5q-42 0 -69 -28t-27 -66zM145 528q-29 0 -45.5 -1t-24 -4t-9 -7t-1.5 -10v-484q0 -6 1.5 -10t9 -7t24 -4t45.5 -1h5q27 0 42 1t23 4t10 7t2 10
v484q0 6 -2 10t-10 7t-23 4t-42 1h-5zM450 528q-29 0 -45.5 -1t-24 -4t-9 -7t-1.5 -10v-520q0 -30 -2 -46t-10 -27q-14 -20 -47 -20q-14 0 -27.5 2t-25.5 5q-16 4 -21 -5t-13 -40l-4 -16q-8 -29 -7 -38.5t12 -14.5q14 -7 45 -13t61 -6q45 0 82.5 12.5t63.5 41t40.5 74
t14.5 111.5v500q0 6 -2 10t-10 7t-23.5 4t-41.5 1h-5zM354 678q0 -18 7.5 -35t20 -30t30 -20.5t38.5 -7.5t39 7.5t30.5 20.5t20 30t7.5 35q0 19 -7.5 36t-20 30t-30.5 20.5t-39 7.5q-42 0 -69 -28t-27 -66z" />
    <glyph glyph-name="jcircumflex" unicode="&#x135;" horiz-adv-x="305" 
d="M159 528q26 0 41.5 -1t23.5 -4t10 -7t2 -10v-500q0 -66 -14.5 -111.5t-40.5 -74t-63.5 -41t-82.5 -12.5q-30 0 -61 6t-45 13q-11 5 -12 14.5t7 38.5l4 16q8 31 13 40t21 5q12 -3 25.5 -5t27.5 -2q33 0 47 20q8 11 10 27t2 46v520q0 6 1.5 10t9 7t24 4t45.5 1h5zM68 601
q-9 -8 -19 -5.5t-31 23.5l-10 10q-17 17 -20.5 25.5t3.5 15.5l88 92q7 7 12.5 11t13 6t18.5 3t28 1h12q17 0 28 -1t18.5 -3t13 -6t12.5 -11l88 -92q7 -7 3.5 -15.5t-20.5 -25.5l-10 -10q-21 -21 -31 -23.5t-19 5.5l-89 77z" />
    <glyph glyph-name="kcommaaccent" unicode="&#x137;" horiz-adv-x="539" 
d="M142 760q-29 0 -45 -1t-23.5 -4t-9 -7t-1.5 -10v-716q0 -6 1.5 -10t9 -7t23.5 -4t45 -1h5q27 0 42.5 1t23.5 4t10 7t2 10v197l132 -202q3 -5 7.5 -8t14.5 -5t26.5 -3t42.5 -1h13q29 0 45.5 3t24 7.5t7 10.5t-4.5 12l-191 257q26 25 51.5 54t48 57.5t39.5 54.5t26 45
q7 14 -5 20.5t-61 6.5h-15q-42 0 -55.5 -3t-19.5 -13q-25 -41 -57.5 -81t-68.5 -79v386q0 6 -2 10t-10 7t-23.5 4t-42.5 1h-5zM225 -320q14 -12 20.5 -12t12.5 5q49 40 78.5 92.5t29.5 100.5q0 40 -22 62.5t-55 22.5q-31 0 -50.5 -17t-19.5 -43q0 -14 5.5 -24t12 -19t12 -18
t5.5 -21q0 -18 -12.5 -43.5t-35.5 -53.5q-4 -5 -1.5 -10.5t14.5 -16.5z" />
    <glyph glyph-name="kgreenlandic" unicode="&#x138;" horiz-adv-x="539" 
d="M142 528q-29 0 -45 -1t-23.5 -4t-9 -7t-1.5 -10v-484q0 -6 1.5 -10t9 -7t23.5 -4t45 -1h5q27 0 42.5 1t23.5 4t10 7t2 10v197l132 -202q3 -5 7.5 -8t14.5 -5t26.5 -3t42.5 -1h13q29 0 45.5 3t24 7.5t7 10.5t-4.5 12l-191 257q26 25 51.5 54t48 57.5t39.5 54.5t26 45
q7 14 -5 20.5t-61 6.5h-15q-42 0 -55.5 -3t-19.5 -13q-25 -41 -57.5 -81t-68.5 -79v154q0 6 -2 10t-10 7t-23.5 4t-42.5 1h-5z" />
    <glyph glyph-name="lacute" unicode="&#x13a;" horiz-adv-x="315" 
d="M135 760q-29 0 -45 -1t-23.5 -3.5t-8.5 -6t-1 -9.5q1 -13 2 -44t2.5 -69.5t2.5 -80t1 -75.5v-337q0 -35 7.5 -61.5t27.5 -46.5q14 -14 37.5 -22.5t54.5 -8.5q28 0 45 2.5t28 7.5q8 4 11.5 13t3.5 38v9q0 34 -2.5 42.5t-13.5 8.5h-14q-23 0 -23 26v308q0 48 -0.5 95.5
t-1.5 87t-3 68.5t-4 41q-1 5 -4 8.5t-11.5 5.5t-23 3t-39.5 1h-5zM200 996q-18 0 -28.5 -0.5t-16.5 -2t-9.5 -4.5t-6.5 -8l-103 -158q-10 -15 -1.5 -21t37.5 -6h37q25 0 35.5 3t16.5 11l125 157q5 6 7 11.5t-1.5 9.5t-14 6t-30.5 2h-47z" />
    <glyph glyph-name="lcaron" unicode="&#x13e;" horiz-adv-x="415" 
d="M135 760q-29 0 -45 -1t-23.5 -3.5t-8.5 -6t-1 -9.5q1 -13 2 -44t2.5 -69.5t2.5 -80t1 -75.5v-337q0 -35 7.5 -61.5t27.5 -46.5q14 -14 37.5 -22.5t54.5 -8.5q28 0 45 2.5t28 7.5q8 4 11.5 13t3.5 38v9q0 34 -2.5 42.5t-13.5 8.5h-14q-23 0 -23 26v308q0 48 -0.5 95.5
t-1.5 87t-3 68.5t-4 41q-1 5 -4 8.5t-11.5 5.5t-23 3t-39.5 1h-5zM284 459q14 -12 20.5 -12t12.5 5q49 40 78.5 92.5t29.5 100.5q0 40 -22 62.5t-55 22.5q-31 0 -50.5 -17t-19.5 -43q0 -14 5.5 -24t12 -19t12 -18t5.5 -21q0 -18 -12.5 -43.5t-35.5 -53.5q-4 -5 -1.5 -10.5
t14.5 -16.5z" />
    <glyph glyph-name="lcommaaccent" unicode="&#x13c;" horiz-adv-x="315" 
d="M135 760q-29 0 -45 -1t-23.5 -3.5t-8.5 -6t-1 -9.5q1 -13 2 -44t2.5 -69.5t2.5 -80t1 -75.5v-337q0 -35 7.5 -61.5t27.5 -46.5q14 -14 37.5 -22.5t54.5 -8.5q28 0 45 2.5t28 7.5q8 4 11.5 13t3.5 38v9q0 34 -2.5 42.5t-13.5 8.5h-14q-23 0 -23 26v308q0 48 -0.5 95.5
t-1.5 87t-3 68.5t-4 41q-1 5 -4 8.5t-11.5 5.5t-23 3t-39.5 1h-5zM97 -320q14 -12 20.5 -12t12.5 5q49 40 78.5 92.5t29.5 100.5q0 40 -22 62.5t-55 22.5q-31 0 -50.5 -17t-19.5 -43q0 -14 5.5 -24t12 -19t12 -18t5.5 -21q0 -18 -12.5 -43.5t-35.5 -53.5q-4 -5 -1.5 -10.5
t14.5 -16.5z" />
    <glyph glyph-name="lslash" unicode="&#x142;" horiz-adv-x="315" 
d="M135 760q-29 0 -45 -1t-23.5 -3.5t-8.5 -6t-1 -9.5q1 -13 2 -44t2.5 -69.5t2.5 -80t1 -75.5v-64l-94 -51q-11 -6 -15.5 -17.5t-4.5 -45.5v-26q0 -38 9 -46t29 3l76 41v-131q0 -35 7.5 -61.5t27.5 -46.5q14 -14 37.5 -22.5t54.5 -8.5q28 0 45 2.5t28 7.5q8 4 11.5 13
t3.5 38v9q0 34 -2.5 42.5t-13.5 8.5h-14q-23 0 -23 26v212l70 38q12 7 17 18.5t5 44.5v27q0 40 -5.5 49.5t-24.5 -1.5l-62 -34q0 42 -1 82t-2 73t-2.5 56.5t-3.5 34.5q-1 5 -4 8.5t-11.5 5.5t-23 3t-39.5 1h-5z" />
    <glyph glyph-name="longs" unicode="&#x17f;" horiz-adv-x="367" 
d="M253 547q0 54 15 75q17 23 58 23q15 0 30 -2t31 -6q11 -3 16 4t13 39l4 16q7 28 7 39.5t-10 15.5q-21 8 -53.5 13.5t-64.5 5.5q-99 0 -150 -53q-28 -29 -43 -70.5t-15 -95.5v-23h-59q-6 0 -9.5 -1.5t-5.5 -6.5t-3 -15.5t-1 -29.5v-7q0 -19 1 -29.5t3 -16t5.5 -6.5t9.5 -1
h59v-393q0 -6 1.5 -10t9 -7t23.5 -4t45 -1h5q27 0 42.5 1t23.5 4t10 7t2 10v525z" />
    <glyph glyph-name="ldot" unicode="&#x140;" horiz-adv-x="456" 
d="M135 760q-29 0 -45 -1t-23.5 -3.5t-8.5 -6t-1 -9.5q1 -13 2 -44t2.5 -69.5t2.5 -80t1 -75.5v-337q0 -35 7.5 -61.5t27.5 -46.5q14 -14 37.5 -22.5t54.5 -8.5q28 0 45 2.5t28 7.5q8 4 11.5 13t3.5 38v9q0 34 -2.5 42.5t-13.5 8.5h-14q-23 0 -23 26v308q0 48 -0.5 95.5
t-1.5 87t-3 68.5t-4 41q-1 5 -4 8.5t-11.5 5.5t-23 3t-39.5 1h-5zM279 371q0 -35 24 -58t60 -23q35 0 59 23t24 58t-24 58t-59 23q-36 0 -60 -23t-24 -58z" />
    <glyph glyph-name="nacute" unicode="&#x144;" horiz-adv-x="598" 
d="M229 344q2 19 7 29.5t15 17.5q19 13 56 13t54 -20q4 -5 7 -12t5 -18.5t2.5 -28t0.5 -41.5v-262q0 -6 1.5 -10t9 -7t24 -4t45.5 -1h5q27 0 42 1t23 4t10 7t2 10v299q0 56 -11.5 94t-37.5 67q-23 26 -59.5 41t-84.5 15q-40 0 -76.5 -17t-60.5 -41q-1 8 -2 17.5t-3 14.5
t-4.5 8t-9.5 5t-19.5 2.5t-33.5 0.5h-5q-26 0 -41 -1.5t-22.5 -4.5t-9 -8t-0.5 -12q3 -40 5 -97.5t2 -114.5v-268q0 -6 1.5 -10t9 -7t23.5 -4t45 -1h5q27 0 42.5 1t23.5 4t10 7t2 10v227v52.5t2 42.5zM377 792q-18 0 -28.5 -0.5t-16.5 -2t-9.5 -4.5t-6.5 -8l-103 -158
q-10 -15 -1.5 -21t37.5 -6h37q25 0 35.5 3t16.5 11l125 157q5 6 7 11.5t-1.5 9.5t-14 6t-30.5 2h-47z" />
    <glyph glyph-name="ncaron" unicode="&#x148;" horiz-adv-x="598" 
d="M229 344q2 19 7 29.5t15 17.5q19 13 56 13t54 -20q4 -5 7 -12t5 -18.5t2.5 -28t0.5 -41.5v-262q0 -6 1.5 -10t9 -7t24 -4t45.5 -1h5q27 0 42 1t23 4t10 7t2 10v299q0 56 -11.5 94t-37.5 67q-23 26 -59.5 41t-84.5 15q-40 0 -76.5 -17t-60.5 -41q-1 8 -2 17.5t-3 14.5
t-4.5 8t-9.5 5t-19.5 2.5t-33.5 0.5h-5q-26 0 -41 -1.5t-22.5 -4.5t-9 -8t-0.5 -12q3 -40 5 -97.5t2 -114.5v-268q0 -6 1.5 -10t9 -7t23.5 -4t45 -1h5q27 0 42.5 1t23.5 4t10 7t2 10v227v52.5t2 42.5zM219 776q-9 8 -19 5.5t-31 -23.5l-10 -10q-17 -17 -20.5 -25.5
t3.5 -15.5l90 -95q7 -7 12.5 -11t13 -6.5t18.5 -3t28 -0.5h12q17 0 28 0.5t18.5 3t13 6.5t12.5 11l91 95q7 7 3.5 15.5t-20.5 25.5l-10 10q-21 21 -31 23.5t-19 -5.5l-92 -80z" />
    <glyph glyph-name="ntilde" unicode="&#xf1;" horiz-adv-x="598" 
d="M229 344q2 19 7 29.5t15 17.5q19 13 56 13t54 -20q4 -5 7 -12t5 -18.5t2.5 -28t0.5 -41.5v-262q0 -6 1.5 -10t9 -7t24 -4t45.5 -1h5q27 0 42 1t23 4t10 7t2 10v299q0 56 -11.5 94t-37.5 67q-23 26 -59.5 41t-84.5 15q-40 0 -76.5 -17t-60.5 -41q-1 8 -2 17.5t-3 14.5
t-4.5 8t-9.5 5t-19.5 2.5t-33.5 0.5h-5q-26 0 -41 -1.5t-22.5 -4.5t-9 -8t-0.5 -12q3 -40 5 -97.5t2 -114.5v-268q0 -6 1.5 -10t9 -7t23.5 -4t45 -1h5q27 0 42.5 1t23.5 4t10 7t2 10v227v52.5t2 42.5zM146 637q23 -23 33 -26t18 5q11 14 22.5 23t25.5 9q12 0 23 -4.5
t28 -13.5q15 -8 33.5 -13t38.5 -5q31 0 61 17t56 49q9 11 3.5 18.5t-22.5 25.5l-6 6q-22 22 -29.5 24.5t-15.5 -5.5q-14 -13 -26.5 -21.5t-25.5 -8.5q-14 0 -24.5 5t-23.5 11q-14 7 -31 12.5t-41 5.5q-38 0 -70 -21t-51 -47q-6 -8 -3 -15.5t23 -26.5z" />
    <glyph glyph-name="ncommaaccent" unicode="&#x146;" horiz-adv-x="598" 
d="M229 344q2 19 7 29.5t15 17.5q19 13 56 13t54 -20q4 -5 7 -12t5 -18.5t2.5 -28t0.5 -41.5v-262q0 -6 1.5 -10t9 -7t24 -4t45.5 -1h5q27 0 42 1t23 4t10 7t2 10v299q0 56 -11.5 94t-37.5 67q-23 26 -59.5 41t-84.5 15q-40 0 -76.5 -17t-60.5 -41q-1 8 -2 17.5t-3 14.5
t-4.5 8t-9.5 5t-19.5 2.5t-33.5 0.5h-5q-26 0 -41 -1.5t-22.5 -4.5t-9 -8t-0.5 -12q3 -40 5 -97.5t2 -114.5v-268q0 -6 1.5 -10t9 -7t23.5 -4t45 -1h5q27 0 42.5 1t23.5 4t10 7t2 10v227v52.5t2 42.5zM240 -320q14 -12 20.5 -12t12.5 5q49 40 78.5 92.5t29.5 100.5
q0 40 -22 62.5t-55 22.5q-31 0 -50.5 -17t-19.5 -43q0 -14 5.5 -24t12 -19t12 -18t5.5 -21q0 -18 -12.5 -43.5t-35.5 -53.5q-4 -5 -1.5 -10.5t14.5 -16.5z" />
    </font>
</defs>
</svg>
