<?xml version="1.0" standalone="no"?>
<!DOCTYPE svg PUBLIC "-//W3C//DTD SVG 1.1//EN" "http://www.w3.org/Graphics/SVG/1.1/DTD/svg11.dtd" >
<svg xmlns="http://www.w3.org/2000/svg">
<metadata>
Copyright (c) 2013 by Fontsmith Ltd. All rights reserved.
</metadata>
<defs>
<font id="FSMeWeb-BoldItalic" horiz-adv-x="590" >
  <font-face 
    font-family="FS Me Web"
    font-weight="700"
    font-style="italic"
    font-stretch="normal"
    units-per-em="1000"
    panose-1="2 0 8 3 4 0 0 9 0 4"
    ascent="750"
    descent="-250"
    x-height="528"
    cap-height="720"
    bbox="-150.529 -318.579 1274 1133"
    underline-thickness="50"
    underline-position="-50"
    slope="-8"
    unicode-range="U+000D-FB04"
  />
<missing-glyph horiz-adv-x="694" 
d="M90 0h514v720h-514v-720zM348 406l-176 263h350zM378 360l175 262v-524zM172 52l176 262l174 -262h-350zM142 622l174 -262l-174 -262v524z" />
    <glyph glyph-name="fi" unicode="fi" horiz-adv-x="630" 
d="M65 528q-8 0 -12 -8t-9 -41l-1 -7q-5 -34 -3.5 -42.5t10.5 -8.5h73l-88 -629q0 -4 1 -6.5t7 -4.5t19 -3t37 -1h5q21 0 34 1t19.5 2.5t9 4.5t3.5 7l88 629h110q8 0 12 8t9 41l1 7q5 34 3.5 42.5t-10.5 8.5h-110q9 63 45 96t102 33q35 0 64.5 -7.5t59.5 -20.5q9 -5 15 -0.5
t17 31.5l10 25q11 26 10.5 33.5t-8.5 11.5q-36 17 -80 28.5t-95 11.5q-53 0 -99.5 -14.5t-82.5 -43.5t-59.5 -71.5t-31.5 -98.5l-2 -14h-73zM529 528q-21 0 -34 -1t-19.5 -2.5t-9 -4.5t-3.5 -7l-70 -498q0 -4 1 -6.5t7 -4.5t19 -3t37 -1h5q21 0 34 1t19.5 2.5t9 4.5t3.5 7
l70 498q0 4 -1 6.5t-7 4.5t-19 3t-37 1h-5z" />
    <glyph glyph-name="fl" unicode="fl" horiz-adv-x="652" 
d="M65 527q-8 0 -12 -8t-9 -41l-1 -7q-5 -34 -3.5 -42.5t10.5 -8.5h73l-88 -629q0 -4 1 -6.5t7 -4.5t19 -3t37 -1h5q21 0 34 1t19.5 2.5t9 4.5t3.5 7l88 629h110q8 0 12 8t9 41l1 7q5 34 3.5 42.5t-10.5 8.5h-110q11 63 44 96t96 33q20 0 38.5 -3.5t32.5 -11.5
q-3 -35 -8.5 -81.5t-10.5 -83.5l-43 -309q-3 -22 -5.5 -42t-2.5 -32q0 -45 22 -72t77 -27q15 0 33.5 3.5t31.5 9.5q7 4 10 10.5t7 32.5l2 14q4 26 2.5 32.5t-9.5 6.5h-14q-18 0 -22.5 5.5t-2.5 21.5l47 325q11 75 18 137t7 93q0 13 -3 20t-12 14q-26 19 -76 34.5t-110 15.5
q-53 0 -100.5 -13.5t-85 -41.5t-63 -71t-33.5 -102l-2 -14h-73z" />
    <glyph glyph-name="f_f" unicode="ff" horiz-adv-x="702" 
d="M451 421l-88 -629q0 -4 1 -6.5t7 -4.5t19 -3t37 -1h5q21 0 34 1t19.5 2.5t9 4.5t3.5 7l88 629h110q8 0 12 8t9 41l1 7q5 34 3.5 42.5t-10.5 8.5h-110l3 21q7 50 29.5 79t69.5 29q31 0 64 -11q10 -3 15 4t13 34l6 20q8 26 8 34t-9 12q-23 9 -49.5 14.5t-58.5 5.5
q-94 0 -152 -57t-71 -161l-3 -24h-193l3 21q7 50 29.5 79t69.5 29q31 0 64 -11q10 -3 15 4t13 34l6 20q8 26 8 34t-9 12q-23 9 -49.5 14.5t-58.5 5.5q-94 0 -152 -57t-71 -161l-3 -24h-72q-8 0 -12 -8t-9 -41l-1 -7q-5 -34 -3.5 -42.5t10.5 -8.5h72l-88 -629q0 -4 1 -6.5
t7 -4.5t19 -3t37 -1h5q21 0 34 1t19.5 2.5t9 4.5t3.5 7l88 629h193z" />
    <glyph glyph-name="f_f_i" unicode="ffi" horiz-adv-x="958" 
d="M451 421l-88 -629q0 -4 1 -6.5t7 -4.5t19 -3t37 -1h5q21 0 34 1t19.5 2.5t9 4.5t3.5 7l88 629h110q8 0 12 8t9 41l1 7q5 34 3.5 42.5t-10.5 8.5h-110q9 63 45 96t102 33q35 0 64.5 -7.5t59.5 -20.5q9 -5 15 -0.5t17 31.5l10 25q11 26 10.5 33.5t-8.5 11.5
q-36 17 -80 28.5t-95 11.5q-53 0 -99.5 -14.5t-82.5 -43.5t-59.5 -71.5t-31.5 -98.5l-2 -14h-193l3 21q7 50 29.5 79t69.5 29q31 0 64 -11q10 -3 15 4t13 34l6 20q8 26 8 34t-9 12q-23 9 -49.5 14.5t-58.5 5.5q-94 0 -152 -57t-71 -161l-3 -24h-72q-8 0 -12 -8t-9 -41l-1 -7
q-5 -34 -3.5 -42.5t10.5 -8.5h72l-88 -629q0 -4 1 -6.5t7 -4.5t19 -3t37 -1h5q21 0 34 1t19.5 2.5t9 4.5t3.5 7l88 629h193zM857 528q-21 0 -34 -1t-19.5 -2.5t-9 -4.5t-3.5 -7l-70 -498q0 -4 1 -6.5t7 -4.5t19 -3t37 -1h5q21 0 34 1t19.5 2.5t9 4.5t3.5 7l70 498
q0 4 -1 6.5t-7 4.5t-19 3t-37 1h-5z" />
    <glyph glyph-name="f_j" unicode="fj" horiz-adv-x="629" 
d="M65 528q-8 0 -12 -8t-9 -41l-1 -7q-5 -34 -3.5 -42.5t10.5 -8.5h73l-88 -629q0 -4 1 -6.5t7 -4.5t19 -3t37 -1h5q21 0 34 1t19.5 2.5t9 4.5t3.5 7l88 629h110q8 0 12 8t9 41l1 7q5 34 3.5 42.5t-10.5 8.5h-110q9 63 45 96t102 33q35 0 64.5 -7.5t59.5 -20.5q9 -5 15 -0.5
t17 31.5l10 25q11 26 10.5 33.5t-8.5 11.5q-36 17 -80 28.5t-95 11.5q-53 0 -99.5 -14.5t-82.5 -43.5t-59.5 -71.5t-31.5 -98.5l-2 -14h-73zM529 528q-21 0 -34 -1t-19.5 -2.5t-9 -4.5t-3.5 -7l-73 -516q-8 -61 -24 -88.5t-48 -27.5q-19 0 -41 6q-13 3 -18.5 -4t-12.5 -31
l-5 -18q-8 -28 -7.5 -37t8.5 -12q17 -8 40.5 -13t46.5 -5q40 0 69 12t56 41q27 28 44.5 70.5t27.5 113.5l72 509q0 4 -1 6.5t-7 4.5t-19 3t-37 1h-5z" />
    <glyph glyph-name="f_f_j" unicode="ffj" horiz-adv-x="957" 
d="M451 421l-88 -629q0 -4 1 -6.5t7 -4.5t19 -3t37 -1h5q21 0 34 1t19.5 2.5t9 4.5t3.5 7l88 629h110q8 0 12 8t9 41l1 7q5 34 3.5 42.5t-10.5 8.5h-110q9 63 45 96t102 33q35 0 64.5 -7.5t59.5 -20.5q9 -5 15 -0.5t17 31.5l10 25q11 26 10.5 33.5t-8.5 11.5
q-36 17 -80 28.5t-95 11.5q-53 0 -99.5 -14.5t-82.5 -43.5t-59.5 -71.5t-31.5 -98.5l-2 -14h-193l3 21q7 50 29.5 79t69.5 29q31 0 64 -11q10 -3 15 4t13 34l6 20q8 26 8 34t-9 12q-23 9 -49.5 14.5t-58.5 5.5q-94 0 -152 -57t-71 -161l-3 -24h-72q-8 0 -12 -8t-9 -41l-1 -7
q-5 -34 -3.5 -42.5t10.5 -8.5h72l-88 -629q0 -4 1 -6.5t7 -4.5t19 -3t37 -1h5q21 0 34 1t19.5 2.5t9 4.5t3.5 7l88 629h193zM857 528q-21 0 -34 -1t-19.5 -2.5t-9 -4.5t-3.5 -7l-73 -516q-8 -61 -24 -88.5t-48 -27.5q-19 0 -41 6q-13 3 -18.5 -4t-12.5 -31l-5 -18
q-8 -28 -7.5 -37t8.5 -12q17 -8 40.5 -13t46.5 -5q40 0 69 12t56 41q27 28 44.5 70.5t27.5 113.5l72 509q0 4 -1 6.5t-7 4.5t-19 3t-37 1h-5z" />
    <glyph glyph-name="f_f_l" unicode="ffl" horiz-adv-x="980" 
d="M273 528l3 21q7 50 29.5 79t69.5 29q31 0 64 -11q10 -3 15 4t13 34l6 20q8 26 8 34t-9 12q-23 9 -49.5 14.5t-58.5 5.5q-94 0 -152 -57t-71 -161l-3 -24h-72q-8 0 -12 -8t-9 -41l-1 -7q-5 -34 -3.5 -42.5t10.5 -8.5h72l-88 -629q0 -4 1 -6.5t7 -4.5t19 -3t37 -1h5
q21 0 34 1t19.5 2.5t9 4.5t3.5 7l88 629h193l-88 -630q0 -4 1 -6.5t7 -4.5t19 -3t37 -1h5q21 0 34 1t19.5 2.5t9 4.5t3.5 7l88 629h110q8 0 12 8t9 41l1 7q5 34 3.5 42.5t-10.5 8.5h-110q11 63 44 96t96 33q20 0 38.5 -3.5t32.5 -11.5q-3 -35 -8.5 -81.5t-10.5 -83.5
l-43 -309q-3 -22 -5.5 -42t-2.5 -32q0 -45 22 -72t77 -27q15 0 33.5 3.5t31.5 9.5q7 4 10 10.5t7 32.5l2 14q4 26 2.5 32.5t-9.5 6.5h-14q-18 0 -22.5 5.5t-2.5 21.5l47 325q11 75 18 137t7 93q0 13 -3 20t-12 14q-26 19 -76 34.5t-110 15.5q-53 0 -100.5 -13.5t-85 -41.5
t-63 -71t-33.5 -102l-2 -13h-193z" />
    <glyph glyph-name=".notdef" horiz-adv-x="694" 
d="M90 0h514v720h-514v-720zM348 406l-176 263h350zM378 360l175 262v-524zM172 52l176 262l174 -262h-350zM142 622l174 -262l-174 -262v524z" />
    <glyph glyph-name=".null" horiz-adv-x="0" 
 />
    <glyph glyph-name=".null" horiz-adv-x="0" 
 />
    <glyph glyph-name="nonmarkingreturn" unicode="&#xd;" horiz-adv-x="249" 
 />
    <glyph glyph-name="space" unicode=" " horiz-adv-x="249" 
 />
    <glyph glyph-name="nonbreakingspace" unicode="&#xa0;" horiz-adv-x="249" 
 />
    <glyph glyph-name="A" unicode="A" horiz-adv-x="646" 
d="M368 720q-21 0 -33.5 -1t-19.5 -3t-10 -5t-5 -7l-334 -687q-3 -5 -2.5 -8.5t6 -5.5t18 -2.5t33.5 -0.5h13q43 0 56.5 4t17.5 13l77 166h226l33 -166q2 -9 15 -13t56 -4h9q22 0 35 1t20 3t8.5 5.5t0.5 8.5l-146 686q-2 10 -13.5 13t-51.5 3h-9zM252 326q33 73 57.5 128
t40.5 93q2 -20 5 -41t7 -47t9.5 -58t12.5 -73l6 -35h-153z" />
    <glyph glyph-name="B" unicode="B" horiz-adv-x="589" 
d="M208 315h44q23 0 46.5 -3t42.5 -12.5t31 -27t12 -46.5q0 -25 -9 -47.5t-29 -37.5q-22 -17 -49.5 -22t-61.5 -5h-55zM249 605h29q40 0 63.5 -7t35.5 -23q7 -10 11 -21t4 -25q0 -52 -35 -79q-34 -25 -92 -25h-41zM167 720q-29 0 -36.5 -2.5t-9.5 -12.5l-97 -690
q-2 -10 5.5 -12.5t36.5 -2.5h152q83 0 141.5 16.5t100.5 55.5q35 32 51.5 72.5t16.5 83.5q0 57 -32 100t-83 55q25 8 47.5 24t40 37t28 46.5t10.5 53.5q0 61 -31 102q-30 42 -83.5 58t-134.5 16h-123z" />
    <glyph glyph-name="C" unicode="C" horiz-adv-x="577" 
d="M563 621q17 26 19.5 36t-8.5 18q-35 29 -82 42t-104 13q-95 0 -163 -42.5t-112.5 -108t-65.5 -144.5t-21 -152q0 -138 67.5 -215.5t195.5 -77.5q53 0 107 15.5t92 37.5q14 8 14.5 17t-7.5 33l-8 24q-8 26 -14 30t-16 -1q-31 -15 -67 -24t-66 -9q-78 0 -114.5 44.5
t-36.5 140.5q0 48 11.5 102.5t36 100.5t63.5 76.5t95 30.5q38 0 67 -8.5t61 -29.5q7 -5 15.5 0t25.5 29z" />
    <glyph glyph-name="D" unicode="D" horiz-adv-x="653" 
d="M247 604h49q53 0 89.5 -9.5t58.5 -35.5t29.5 -62t7.5 -74q0 -35 -5 -72.5t-16 -72.5t-29 -65.5t-44 -52.5q-32 -27 -75 -35.5t-85 -8.5h-48zM165 720q-29 0 -37 -2.5t-9 -12.5l-97 -690q-2 -10 5.5 -12.5t36.5 -2.5h151q81 0 149 14t118 56q39 33 66.5 76t45 91
t25.5 98.5t8 97.5q0 63 -16 112t-42 83q-37 48 -102 70t-161 22h-141z" />
    <glyph glyph-name="E" unicode="E" horiz-adv-x="554" 
d="M167 720q-29 0 -37.5 -2.5t-9.5 -12.5l-97 -690q-2 -10 6 -12.5t37 -2.5h371q5 0 8.5 1.5t6.5 7.5t5.5 17t4.5 29l1 8q2 19 3 29.5t0 16t-4 6.5t-8 1h-273l26 190h228q5 0 8.5 1.5t6.5 7.5t5.5 17t4.5 29l1 8q2 19 3 29.5t0 16t-4 6.5t-8 1h-228l25 182h269q5 0 8.5 1.5
t6.5 7.5t5.5 17t4.5 29l1 8q2 19 3 29.5t-0.5 16t-4.5 6.5t-8 1h-367z" />
    <glyph glyph-name="F" unicode="F" horiz-adv-x="521" 
d="M168 720q-29 0 -36.5 -2.5t-9.5 -12.5l-97 -692q-2 -8 10 -10.5t53 -2.5h11q39 0 53 2.5t15 10.5l41 293h229q5 0 8.5 1.5t6 7.5t5 17t4.5 29l1 8q2 19 3 29.5t0 16t-3.5 6.5t-7.5 1h-229l25 182h270q5 0 8.5 1.5t6.5 7.5t5.5 17t4.5 29l1 8q2 18 3 29t-0.5 16t-4.5 6.5
t-8 1.5h-368z" />
    <glyph glyph-name="G" unicode="G" horiz-adv-x="647" 
d="M340 404q-10 0 -14.5 -7.5t-9.5 -40.5l-2 -13q-3 -19 -3.5 -30t1 -16.5t4.5 -7t8 -1.5h109l-23 -165q-17 -6 -39.5 -9t-41.5 -3q-81 0 -118 47t-37 139q0 53 11.5 108.5t37.5 100.5t67.5 73.5t101.5 28.5q49 0 82.5 -11t66.5 -34q7 -5 16 0t24 28l11 16q18 26 22 37.5
t-6 19.5q-41 31 -91 48.5t-118 17.5q-97 0 -167.5 -40t-116 -104.5t-67.5 -146t-22 -163.5q0 -137 68 -211.5t205 -74.5q30 0 62.5 3.5t63 10t57.5 15.5t46 20q8 5 10 9.5t3 11.5l47 329q2 10 -5.5 12.5t-36.5 2.5h-206z" />
    <glyph glyph-name="H" unicode="H" horiz-adv-x="675" 
d="M187 720q-41 0 -53.5 -3t-13.5 -12l-97 -690q-2 -9 10 -12t53 -3h11q39 0 53.5 3t15.5 12l41 291h247l-41 -291q-2 -9 10 -12t53 -3h11q39 0 53 3t16 12l97 690q2 9 -12 12t-53 3h-11q-41 0 -53.5 -3t-13.5 -12l-39 -283h-247l39 283q2 9 -12 12t-53 3h-11z" />
    <glyph glyph-name="I" unicode="I" horiz-adv-x="397" 
d="M116 720q-7 0 -10 -7t-8 -40l-1 -7q-5 -33 -3.5 -41t8.5 -8h63l-72 -514h-63q-3 0 -5.5 -0.5t-4.5 -4.5t-3.5 -12.5t-4.5 -24.5l-2 -12q-5 -32 -3.5 -40.5t8.5 -8.5h269q7 0 11 6.5t8 39.5l1 9q4 33 3 40.5t-8 7.5h-63l72 514h63q3 0 5.5 1t5 5.5t4.5 14t4 26.5l1 8
q2 17 2.5 26.5t0 14.5t-3 6t-5.5 1h-269z" />
    <glyph glyph-name="J" unicode="J" horiz-adv-x="464" 
d="M371 720q-41 0 -53.5 -3.5t-13.5 -11.5l-58 -417q-7 -48 -16.5 -81.5t-24 -55t-35 -31t-48.5 -9.5q-17 0 -38 4t-41 10q-14 5 -21 -3t-16 -34l-6 -18q-8 -26 -9 -36.5t7 -15.5q23 -14 59 -21t73 -7q52 0 96 14t76 46q31 29 50 75.5t29 115.5l65 464q1 8 -12 11.5t-52 3.5
h-11z" />
    <glyph glyph-name="K" unicode="K" horiz-adv-x="610" 
d="M186 720q-41 0 -53.5 -3.5t-13.5 -11.5l-97 -690q-1 -9 10.5 -12t52.5 -3h11q39 0 53 3.5t15 11.5l35 248l58 51l127 -300q2 -5 4.5 -7.5t9.5 -4t20.5 -2t36.5 -0.5h26q38 0 48.5 4t5.5 14l-172 394q102 94 163.5 166t93.5 126q6 9 -4 12.5t-53 3.5h-17q-19 0 -30.5 -0.5
t-18.5 -2t-11 -4.5t-7 -7q-42 -53 -96 -115t-134 -136l-26 -24l38 274q2 8 -11.5 11.5t-52.5 3.5h-11z" />
    <glyph glyph-name="L" unicode="L" horiz-adv-x="505" 
d="M186 720q-41 0 -53.5 -3.5t-13.5 -11.5l-97 -690q-2 -10 5.5 -12.5t36.5 -2.5h348q5 0 9 1.5t7 7.5t5.5 17t4.5 29l1 8q2 19 2.5 29.5t-0.5 16t-4.5 6.5t-8.5 1h-249l82 589q2 8 -11.5 11.5t-52.5 3.5h-11z" />
    <glyph glyph-name="M" unicode="M" horiz-adv-x="819" 
d="M217 720q-44 0 -56 -3t-14 -13l-122 -689q0 -5 1 -7.5t7 -4.5t18 -2.5t35 -0.5h8q20 0 32 0.5t19 2t9.5 4t3.5 7.5l39 228q5 30 10 63.5t9.5 66.5t7.5 63.5t5 53.5q3 -19 8.5 -45.5t13 -57t16 -63t16.5 -62.5l35 -129q2 -9 12 -13t48 -4h11q19 0 30 1t17 3t8.5 5t5.5 8
l70 132q15 29 31 60.5t30.5 62t27 57.5t21.5 47q-4 -22 -8 -50.5t-8 -59t-8 -61.5t-7 -58l-30 -248q0 -4 1.5 -7t7.5 -4.5t18.5 -2t33.5 -0.5h6q22 0 35 0.5t19.5 2.5t9 4.5t2.5 7.5l74 689q2 10 -10.5 13t-55.5 3h-10q-23 0 -35.5 -1t-19.5 -3.5t-10 -5.5t-5 -7l-126 -229
q-16 -28 -31 -58t-28 -58t-23.5 -52t-17.5 -39q-5 28 -15.5 80t-31.5 130l-61 226q-3 10 -15 13.5t-52 3.5h-12z" />
    <glyph glyph-name="N" unicode="N" horiz-adv-x="692" 
d="M179 720q-20 0 -30.5 -0.5t-16 -2t-6.5 -4.5t-2 -8l-97 -690q-1 -5 1 -8t9 -4.5t19.5 -2t32.5 -0.5h6q38 0 51 3t14 12l35 246q4 26 8 59t8 65.5t6.5 61t2.5 46.5q4 -16 13 -40t21 -51.5t25.5 -56.5t26.5 -55l140 -274q5 -10 16.5 -13t46.5 -3h6q19 0 30.5 0.5t17.5 2.5
t8 4.5t2 7.5l97 690q2 8 -10.5 11.5t-50.5 3.5h-6q-20 0 -32.5 -1t-19.5 -2.5t-9.5 -4.5t-3.5 -7l-35 -246q-4 -26 -8 -58.5t-8 -64t-6.5 -59.5t-3.5 -46q-8 33 -31.5 86.5t-53.5 112.5l-141 274q-2 4 -5 7t-10 5t-19 3t-33 1h-5z" />
    <glyph glyph-name="O" unicode="O" horiz-adv-x="683" 
d="M388 730q-92 0 -160 -39.5t-113 -103.5t-67 -145.5t-22 -166.5q0 -66 18.5 -118.5t52.5 -89.5t83 -57t110 -20q94 0 163.5 39t114.5 103t67 145.5t22 167.5q0 66 -18.5 118.5t-53.5 89.5t-85 57t-112 20zM372 609q64 0 100.5 -46t36.5 -131q0 -71 -15 -129.5t-42 -101.5
t-63.5 -66.5t-79.5 -23.5q-63 0 -99 46t-36 131q0 70 15 129t41.5 102t62.5 66.5t79 23.5z" />
    <glyph glyph-name="P" unicode="P" horiz-adv-x="562" 
d="M166 720q-29 0 -36.5 -2.5t-9.5 -12.5l-97 -690q-1 -9 10 -12t52 -3h11q39 0 53.5 3t15.5 12l34 242q12 -2 28 -2.5t33 -0.5q65 0 116.5 16.5t86.5 47.5q46 41 67 96.5t21 111.5q0 37 -10 68.5t-27 54.5q-35 43 -92.5 57t-143.5 14h-112zM248 604h40q27 0 49 -4
t37.5 -14.5t23.5 -29t8 -48.5q0 -28 -10 -57t-27 -47q-35 -35 -102 -35q-13 0 -27 0.5t-25 2.5z" />
    <glyph glyph-name="Q" unicode="Q" horiz-adv-x="683" 
d="M521 -66q28 20 33.5 30t0.5 16q-19 20 -33.5 38t-28.5 36q42 31 72.5 74.5t51 94.5t30.5 107.5t10 114.5q0 66 -18.5 118.5t-53.5 89.5t-85 57t-112 20q-92 0 -160 -39.5t-113 -103.5t-67 -145.5t-22 -166.5q0 -66 18.5 -118.5t52.5 -89.5t83 -57t110 -20q44 0 83 9
q18 -28 37 -53t36 -43q3 -3 7 -5t10 -0.5t15.5 7t24.5 16.5zM323 248q-17 -7 -26.5 -12t-14 -9.5t-5 -8t0.5 -7.5q5 -20 16 -48t22 -52h-7q-63 0 -99 46t-36 131q0 70 15 129t41.5 102t62.5 66.5t79 23.5q64 0 100.5 -46t36.5 -131q0 -86 -21.5 -154t-59.5 -110
q-11 21 -20 47t-14 43q-3 9 -12.5 10t-44.5 -14z" />
    <glyph glyph-name="R" unicode="R" horiz-adv-x="602" 
d="M166 720q-29 0 -36.5 -2.5t-9.5 -12.5l-97 -690q-1 -9 10.5 -12t52.5 -3h11q39 0 53 3t15 12l37 261h63l23 -61q33 -87 55 -133.5t38 -66.5q9 -11 21 -13t38 -2h54q32 0 39 5.5t2 14.5q-27 45 -55 102t-61 139l-16 40q72 34 112 94t40 137q0 73 -33 117q-33 43 -88.5 57
t-140.5 14h-127zM248 604h42q58 0 89.5 -16.5t31.5 -68.5q0 -27 -10.5 -53.5t-29.5 -43.5q-16 -15 -42 -23.5t-60 -8.5h-51z" />
    <glyph glyph-name="S" unicode="S" horiz-adv-x="541" 
d="M511 626q14 23 17.5 34t-7.5 19q-32 25 -78 38t-96 13q-52 0 -98.5 -17.5t-81 -47.5t-55 -70.5t-20.5 -87.5q0 -41 13 -71t33.5 -52.5t46.5 -39.5t53 -32q19 -10 37 -20.5t31.5 -22.5t22 -27.5t8.5 -36.5q0 -24 -10 -42t-27 -29.5t-38.5 -17t-43.5 -5.5q-36 0 -72 13
t-71 36q-11 7 -19.5 2t-25.5 -31l-14 -23q-16 -25 -18 -35.5t7 -18.5q32 -29 87 -46.5t119 -17.5q59 0 108.5 17t85 48.5t55.5 75.5t20 97q0 41 -13 71.5t-34 53t-47.5 40t-53.5 33.5q-25 15 -43 27t-30 23.5t-17.5 24t-5.5 27.5q0 19 9 34.5t23.5 26.5t33 17t38.5 6
q34 0 60.5 -7t58.5 -30q8 -6 18 1.5t24 32.5z" />
    <glyph glyph-name="T" unicode="T" horiz-adv-x="528" 
d="M83 720q-5 0 -8.5 -1t-6 -6t-4.5 -15.5t-5 -30.5l-1 -8q-2 -19 -3 -30t0 -16.5t4 -7t8 -1.5h161l-83 -589q-1 -9 10.5 -12t52.5 -3h11q39 0 53.5 3t15.5 12l83 589h162q5 0 8.5 1.5t6.5 7.5t5.5 17t4.5 29l1 8q2 19 2.5 29.5t-0.5 16t-4.5 6.5t-8.5 1h-465z" />
    <glyph glyph-name="U" unicode="U" horiz-adv-x="678" 
d="M186 720q-41 0 -53 -3.5t-13 -11.5l-53 -371q-6 -44 -10.5 -85t-4.5 -58q0 -42 9 -72t26 -53q58 -76 198 -76q141 0 221 74q39 37 62.5 90.5t35.5 137.5l58 413q2 8 -11.5 11.5t-52.5 3.5h-8q-41 0 -53.5 -3.5t-13.5 -11.5l-61 -433q-7 -46 -20.5 -76t-35.5 -50
q-38 -35 -99 -35q-55 0 -83 24.5t-28 78.5q0 11 2.5 41t10.5 81l53 369q2 8 -12 11.5t-53 3.5h-11z" />
    <glyph glyph-name="V" unicode="V" horiz-adv-x="638" 
d="M136 720q-21 0 -33.5 -1t-19 -3t-8 -5.5t-0.5 -7.5l120 -684q1 -6 4.5 -9.5t12 -6t24 -3t41.5 -0.5h5q44 0 60.5 4.5t21.5 16.5l301 682q4 9 -8.5 13t-55.5 4h-6q-22 0 -34.5 -1t-19.5 -3t-10 -5t-5 -8l-126 -293q-12 -29 -26.5 -64.5t-29 -71.5t-27 -71t-21.5 -63
q-2 29 -5 63t-7 69t-9 70t-9 66l-44 295q-1 4 -3.5 7.5t-10 5.5t-21.5 3t-37 1h-14z" />
    <glyph glyph-name="W" unicode="W" horiz-adv-x="944" 
d="M154 720q-23 0 -37 -1t-21 -3t-9 -5t-1 -8l88 -686q1 -5 3 -8.5t9 -5.5t20 -2.5t36 -0.5h20q43 0 56.5 4t17.5 13l86 232q24 65 46.5 137t38.5 133q-1 -30 -0.5 -64.5t2 -70.5t4 -72t5.5 -69l23 -226q1 -11 15.5 -14t59.5 -3h13q43 0 56.5 4t17.5 13l273 686q1 4 0.5 7
t-7 5.5t-19.5 3.5t-35 1h-8q-22 0 -35 -0.5t-20 -2.5t-10 -5.5t-5 -8.5l-106 -286q-12 -33 -24.5 -68.5t-24 -70.5t-21.5 -67.5t-17 -59.5v60t-0.5 68.5t-2.5 71t-5 68.5l-26 284q0 4 -3 7.5t-10.5 5.5t-20.5 3t-35 1h-9q-21 0 -34.5 -0.5t-21 -2.5t-11 -5.5t-5.5 -8.5
l-106 -292q-11 -30 -22 -66t-21 -71t-18.5 -67t-14.5 -56q0 28 -1 61t-3.5 67t-5 67.5t-5.5 63.5l-31 293q-1 10 -13.5 13.5t-55.5 3.5h-9z" />
    <glyph glyph-name="X" unicode="X" horiz-adv-x="593" 
d="M135 720q-38 0 -47.5 -3.5t-5.5 -11.5l98 -220q13 -29 27.5 -59.5t23.5 -50.5q-18 -24 -39.5 -52.5t-45.5 -61.5l-181 -245q-6 -8 0.5 -12t39.5 -4h45q19 0 31 0.5t19 2t10.5 4t5.5 6.5l85 128q20 31 42.5 63t36.5 55q11 -29 24 -60.5t26 -60.5l54 -125q3 -8 15 -10.5
t49 -2.5h35q38 0 47.5 3.5t5.5 11.5l-110 249q-14 32 -24.5 55t-24.5 46q21 26 47 60.5t49 66.5l155 212q6 8 0 12t-41 4h-45q-20 0 -32 -0.5t-18.5 -2t-9 -4t-5.5 -6.5l-74 -111q-18 -27 -39 -59t-36 -57q-8 27 -18 53.5t-24 58.5l-51 115q-4 8 -15.5 10.5t-48.5 2.5h-36z
" />
    <glyph glyph-name="Y" unicode="Y" horiz-adv-x="579" 
d="M127 720q-45 0 -55 -4t-7 -13l146 -423l-38 -265q-2 -9 10 -12t53 -3h11q39 0 53 3t16 12l38 265l266 424q6 9 -3.5 12.5t-50.5 3.5h-24q-20 0 -32 -1t-19 -2.5t-10 -4.5t-6 -7l-89 -151q-23 -39 -43.5 -79t-34.5 -67q-5 28 -17 68t-25 78l-50 150q-3 9 -16.5 12.5
t-54.5 3.5h-18z" />
    <glyph glyph-name="Z" unicode="Z" horiz-adv-x="563" 
d="M126 720q-5 0 -8 -1t-5.5 -6t-4.5 -15.5t-5 -30.5l-1 -7q-2 -19 -3 -30t0 -16.5t3.5 -7t7.5 -1.5h273l-349 -469q-15 -20 -21 -36t-9 -33l-8 -52q-2 -10 5.5 -12.5t36.5 -2.5h422q5 0 8.5 1.5t6.5 7t5.5 16.5t4.5 30l1 7q3 20 3.5 30.5t-0.5 15.5t-4 6t-8 1h-296l347 469
q15 20 21.5 36t8.5 33l7 52q2 10 -5.5 12.5t-36.5 2.5h-397z" />
    <glyph glyph-name="a" unicode="a" horiz-adv-x="565" 
d="M409 485q-20 23 -51 38t-73 15q-53 0 -99 -25.5t-80 -71t-54 -108t-20 -135.5q0 -47 13 -85.5t37 -65.5t58.5 -42t78.5 -15q38 0 72.5 15t59.5 46q0 -24 1.5 -33t7.5 -12q12 -6 52 -6h4q21 0 32.5 0.5t17.5 2.5t8 5.5t2 8.5q2 43 7 95.5t15 124.5l9 65q8 60 16 115t16 97
q2 8 -7.5 11t-45.5 3h-6q-39 0 -49 -3t-12 -10zM362 232q-6 -42 -13 -64t-21 -36q-13 -14 -33.5 -20.5t-41.5 -6.5q-36 0 -58.5 26t-22.5 80q0 33 7 69.5t22.5 67.5t41 51.5t62.5 20.5q22 0 43.5 -10t34.5 -24z" />
    <glyph glyph-name="b" unicode="b" horiz-adv-x="567" 
d="M201 760q-23 0 -36 -1t-20 -2.5t-8.5 -4.5t-2.5 -7l-95 -681q-2 -15 0.5 -22t11.5 -12q34 -19 87 -29.5t103 -10.5q70 0 125.5 24.5t93 69.5t57.5 107.5t20 138.5q0 46 -13 84.5t-37.5 66t-59.5 42.5t-79 15q-29 0 -60 -12t-54 -33l35 252q1 4 -0.5 7t-8 4.5t-19 2.5
t-34.5 1h-6zM207 296q6 42 12.5 63.5t19.5 35.5t32.5 20.5t39.5 6.5q39 0 62.5 -25.5t23.5 -79.5q0 -40 -9.5 -78t-27.5 -68t-44.5 -48t-61.5 -18q-20 0 -40 3t-33 8z" />
    <glyph glyph-name="c" unicode="c" horiz-adv-x="492" 
d="M472 433q11 17 16 30t-3 20q-30 24 -73 39.5t-97 15.5q-65 0 -117.5 -26t-89 -69.5t-56.5 -102t-20 -122.5q0 -55 16.5 -97.5t46 -71.5t70.5 -44t90 -15q45 0 89 12.5t79 34.5q9 6 10 14.5t-7 35.5l-5 16q-10 30 -16 34.5t-15 -0.5q-56 -28 -110 -28q-55 0 -81.5 31.5
t-26.5 89.5q0 33 9 66.5t26.5 61t43.5 44.5t60 17q31 0 55.5 -8.5t54.5 -25.5q15 -10 40 30z" />
    <glyph glyph-name="d" unicode="d" horiz-adv-x="579" 
d="M502 760q-21 0 -34 -1t-19.5 -2.5t-9 -4.5t-3.5 -7l-35 -249q-20 18 -49 30t-61 12q-56 0 -103.5 -25t-82 -70t-54 -107.5t-19.5 -137.5q0 -98 49.5 -153t142.5 -55q35 0 69.5 14t57.5 42q9 -24 30.5 -37.5t58.5 -13.5q17 0 34 3.5t30 9.5q7 4 10 10.5t7 32.5l2 14
q4 26 2.5 32.5t-9.5 6.5h-5q-18 0 -22.5 6.5t-2.5 20.5l85 614q0 4 -1 6.5t-7 4.5t-19 3t-37 1h-5zM365 232q-7 -42 -14.5 -64t-21.5 -36t-35 -20.5t-43 -6.5q-36 0 -57.5 26t-21.5 80q0 31 6.5 68t21.5 68t39.5 52t60.5 21q28 0 50 -10t36 -24z" />
    <glyph glyph-name="e" unicode="e" horiz-adv-x="549" 
d="M469 217q9 0 14 3t9 9q8 14 12.5 40t4.5 58q0 45 -13.5 84t-39.5 67t-64.5 44t-87.5 16q-59 0 -108.5 -24.5t-86 -68t-57 -103t-20.5 -129.5q0 -106 60.5 -164.5t164.5 -58.5q53 0 105 12.5t94 35.5q10 5 10.5 13.5t-7.5 31.5l-9 28q-6 20 -11 25.5t-14 2.5
q-35 -15 -67 -23.5t-70 -8.5q-57 0 -86 29t-30 81h297zM184 314q14 54 42 81.5t63 27.5q46 0 67 -29.5t21 -79.5h-193z" />
    <glyph glyph-name="f" unicode="f" horiz-adv-x="374" 
d="M66 528q-8 0 -12 -8t-9 -41l-1 -7q-5 -34 -3.5 -42.5t10.5 -8.5h72l-88 -629q0 -4 1 -6.5t7 -4.5t19 -3t37 -1h5q21 0 34 1t19.5 2.5t9 4.5t3.5 7l88 629h110q8 0 12 8t9 41l1 7q5 34 3.5 42.5t-10.5 8.5h-110l3 21q7 50 29.5 79t69.5 29q31 0 64 -11q10 -3 15 4t13 34
l6 20q8 26 8 34t-9 12q-23 9 -49.5 14.5t-58.5 5.5q-94 0 -152 -57t-71 -161l-3 -24h-72z" />
    <glyph glyph-name="g" unicode="g" horiz-adv-x="570" 
d="M468 528q-24 0 -32.5 -2.5t-13.5 -10.5q-4 -6 -7 -17.5t-5 -16.5q-20 24 -54 40.5t-72 16.5q-53 0 -99 -25.5t-80.5 -71t-54.5 -108t-20 -135.5q0 -47 13 -85t37 -65.5t57.5 -42.5t75.5 -15q34 0 65.5 11t57.5 34l-1 -7q-11 -74 -41.5 -109.5t-88.5 -35.5
q-27 0 -59.5 7.5t-61.5 18.5q-11 5 -18 -4t-15 -31l-6 -16q-11 -28 -12.5 -38t6.5 -15q35 -17 83 -27.5t90 -10.5q74 0 121 24t75.5 65t42.5 95t23 114l34 240q9 65 16 119t7 77q0 15 -10 21t-37 6h-16zM363 232q-6 -42 -12.5 -64t-19.5 -36t-32.5 -20.5t-39.5 -6.5
q-39 0 -64 26t-25 80q0 48 14 96t40 77q34 36 83 36q22 0 43.5 -9.5t33.5 -24.5z" />
    <glyph glyph-name="h" unicode="h" horiz-adv-x="575" 
d="M205 760q-21 0 -34 -1t-19.5 -2.5t-9 -4.5t-3.5 -7l-102 -730q0 -4 1 -6.5t7 -4.5t19 -3t37 -1h5q21 0 34 1t19.5 2.5t9 4.5t3.5 7l34 241q6 40 10.5 64.5t10 39.5t11.5 22.5t14 13.5q11 8 29 14t40 6q74 0 74 -62q0 -15 -2 -31.5t-4 -33.5l-38 -274q0 -4 1 -6.5t7 -4.5
t19 -3t37 -1h6q21 0 33.5 1t19.5 2.5t9 4.5t3 7l38 276q4 26 6.5 49.5t2.5 45.5q0 67 -41.5 109.5t-116.5 42.5q-38 0 -73.5 -15t-63.5 -38l36 260q0 4 -1 6.5t-7 4.5t-19 3t-37 1h-5z" />
    <glyph glyph-name="i" unicode="i" horiz-adv-x="271" 
d="M170 528q-21 0 -34 -1t-19.5 -2.5t-9 -4.5t-3.5 -7l-70 -498q0 -4 1 -6.5t7 -4.5t19 -3t37 -1h5q21 0 34 1t19.5 2.5t9 4.5t3.5 7l70 498q0 4 -1 6.5t-7 4.5t-19 3t-37 1h-5zM199 772q-20 0 -36.5 -7.5t-28 -20.5t-17.5 -29t-6 -33q0 -32 21.5 -53.5t56.5 -21.5
q21 0 37.5 8.5t28 21.5t17.5 29t6 32q0 32 -21.5 53t-57.5 21z" />
    <glyph glyph-name="j" unicode="j" horiz-adv-x="272" 
d="M175 528q-21 0 -34 -1t-19.5 -2.5t-9 -4.5t-3.5 -7l-73 -516q-8 -61 -29 -88.5t-63 -27.5q-10 0 -23.5 1.5t-27.5 4.5q-13 3 -18.5 -4t-12.5 -31l-5 -18q-8 -28 -7.5 -37t8.5 -12q20 -8 45.5 -13t51.5 -5q92 0 145 53q27 28 44.5 70.5t27.5 113.5l72 509q0 4 -1 6.5
t-7 4.5t-19 3t-37 1h-5zM203 772q-20 0 -36.5 -7.5t-28 -20.5t-17.5 -29t-6 -33q0 -32 21.5 -53.5t56.5 -21.5q21 0 37.5 8.5t28 21.5t17.5 29t6 32q0 32 -21.5 53t-57.5 21z" />
    <glyph glyph-name="k" unicode="k" horiz-adv-x="519" 
d="M205 760q-21 0 -34 -1t-19.5 -2.5t-9 -4.5t-3.5 -7l-102 -730q0 -4 1 -6.5t7 -4.5t19 -3t37 -1h5q21 0 34 1t19.5 2.5t9 4.5t3.5 7l31 224l129 -224q2 -4 5 -7t10 -4.5t21 -2.5t38 -1h13q22 0 35.5 1.5t19.5 4.5t7 6.5t-2 8.5l-157 265q32 27 63 56.5t58 59t49 57.5
t36 52q5 8 -2 12.5t-41 4.5h-30q-18 0 -29 -0.5t-17 -2t-9.5 -4t-6.5 -6.5q-32 -40 -79.5 -88.5t-96.5 -92.5l57 411q0 4 -1 6.5t-7 4.5t-19 3t-37 1h-5z" />
    <glyph glyph-name="l" unicode="l" horiz-adv-x="286" 
d="M194 760q-21 0 -33.5 -0.5t-19.5 -2t-9 -4t-2 -6.5q-1 -14 -4 -42t-7 -65t-9 -79.5t-11 -83.5l-43 -309q-3 -20 -5.5 -41t-2.5 -33q0 -45 22 -72t77 -27q15 0 33.5 3.5t31.5 9.5q7 4 10 10.5t7 32.5l2 14q4 26 2.5 32.5t-9.5 6.5h-14q-18 0 -22.5 5.5t-2.5 21.5l47 325
q7 48 13 93.5t10 83t6 66t2 42.5q0 12 -10 15.5t-52 3.5h-7z" />
    <glyph glyph-name="m" unicode="m" horiz-adv-x="865" 
d="M156 528q-20 0 -32 -1t-18 -3t-8 -5.5t-2 -8.5q-2 -42 -9 -99t-16 -120l-38 -276q0 -4 1 -6.5t7 -4.5t19 -3t37 -1h5q21 0 34 1t19.5 2.5t9 4.5t3.5 7l34 241q6 39 11 63.5t10.5 40t11.5 23.5t14 14q12 9 29 14t34 5q69 0 69 -62q0 -14 -2 -31l-4 -34l-38 -274
q0 -4 1 -6.5t7 -4.5t19 -3t37 -1h6q21 0 33.5 1t19.5 2.5t9 4.5t3 7l33 241q5 39 10 63.5t10.5 40t12 23.5t14.5 14q12 9 29 14t34 5q69 0 69 -62q0 -14 -2 -31l-4 -34l-38 -274q0 -4 1 -6.5t7 -4.5t19 -3t37 -1h6q21 0 33.5 1t19.5 2.5t9 4.5t3 7l38 276q4 26 6.5 49.5
t2.5 45.5q0 67 -39.5 109.5t-113.5 42.5q-45 0 -88 -20.5t-77 -58.5q-17 36 -52 57.5t-86 21.5q-42 0 -78.5 -17.5t-65.5 -46.5q0 28 -1.5 36.5t-7.5 11.5q-12 6 -52 6h-5z" />
    <glyph glyph-name="n" unicode="n" horiz-adv-x="572" 
d="M156 528q-20 0 -32 -1t-18 -3t-8 -5.5t-2 -8.5q-2 -42 -9 -99t-16 -120l-38 -276q0 -4 1 -6.5t7 -4.5t19 -3t37 -1h5q21 0 34 1t19.5 2.5t9 4.5t3.5 7l34 241q6 40 10.5 64.5t10 39.5t11.5 22.5t14 13.5q11 8 29 14t40 6q74 0 74 -62q0 -15 -2 -31.5t-4 -33.5l-38 -274
q0 -4 1 -6.5t7 -4.5t19 -3t37 -1h6q21 0 33.5 1t19.5 2.5t9 4.5t3 7l38 276q4 26 6.5 49.5t2.5 45.5q0 67 -41.5 109.5t-116.5 42.5q-42 0 -81 -18t-68 -46q0 28 -1.5 36.5t-7.5 11.5q-12 6 -52 6h-5z" />
    <glyph glyph-name="o" unicode="o" horiz-adv-x="560" 
d="M311 538q-66 0 -118 -24.5t-88 -68.5t-55 -106t-19 -138q0 -105 56.5 -158t160.5 -53q68 0 120.5 24.5t88 68.5t54 105.5t18.5 136.5q0 106 -57 159.5t-161 53.5zM298 420q48 0 70 -28.5t22 -82.5q0 -40 -7.5 -76.5t-23 -64t-39 -44t-55.5 -16.5q-48 0 -71.5 28.5
t-23.5 82.5q0 39 8 75.5t24 64t40 44.5t56 17z" />
    <glyph glyph-name="p" unicode="p" horiz-adv-x="569" 
d="M164 528q-20 0 -32 -1t-18 -3t-8 -5.5t-2 -8.5q-2 -42 -9 -99t-16 -120l-69 -499q0 -4 1 -6.5t7 -4.5t19 -3t37 -1h5q21 0 34 1t19.5 2.5t9 4.5t3.5 7l33 239q21 -19 53.5 -30t69.5 -11q52 0 97 25.5t78.5 71t52.5 108t19 135.5q0 47 -12.5 85.5t-35.5 65.5t-57 42
t-76 15q-37 0 -73.5 -16t-63.5 -44q0 25 -2 33t-7 11q-12 6 -52 6h-5zM215 296q6 42 13 64t20 36t33.5 20.5t40.5 6.5q39 0 62.5 -26t23.5 -80q0 -32 -6.5 -68.5t-21.5 -68t-40 -52t-62 -20.5q-27 0 -48.5 9.5t-35.5 22.5z" />
    <glyph glyph-name="q" unicode="q" horiz-adv-x="565" 
d="M529 464q2 15 -1 21t-12 11q-32 19 -78.5 30.5t-100.5 11.5q-70 0 -126 -25.5t-96 -71t-61.5 -108t-21.5 -135.5q0 -46 12 -84.5t35 -66t56 -42.5t75 -15q34 0 65.5 11t57.5 32q-5 -30 -8.5 -65t-6 -67.5t-4 -60.5t-1.5 -44q0 -12 10 -15.5t52 -3.5h7q21 0 34 0.5t20 2
t9.5 4t2.5 6.5q0 51 6 115t19 155zM362 232q-6 -42 -12.5 -63.5t-19.5 -35.5t-32.5 -20.5t-39.5 -6.5q-39 0 -62.5 25.5t-23.5 79.5q0 48 14.5 92.5t43.5 75.5q19 20 44 32t57 12q18 0 31.5 -2.5t24.5 -7.5z" />
    <glyph glyph-name="r" unicode="r" horiz-adv-x="382" 
d="M156 528q-20 0 -32 -1t-18 -3t-8 -5.5t-2 -8.5q-2 -42 -9 -99t-16 -120l-38 -276q0 -4 1 -6.5t7 -4.5t19 -3t37 -1h5q21 0 34 1t19.5 2.5t9 4.5t3.5 7l20 144q10 72 25 116t38 73t51.5 46.5t69.5 21.5q9 1 14.5 11t10.5 47l1 7q2 17 2.5 26.5t-0.5 17.5q-1 7 -8 10t-24 3
q-45 0 -81.5 -32t-68.5 -94q2 14 3 31t1 31q0 28 -1.5 36.5t-7.5 11.5q-12 6 -52 6h-5z" />
    <glyph glyph-name="s" unicode="s" horiz-adv-x="468" 
d="M24 95q-14 -21 -17.5 -31t3.5 -15q14 -12 34.5 -22.5t45.5 -18.5t52.5 -13t54.5 -5q48 0 89 12.5t71.5 36.5t48 57.5t17.5 75.5q0 44 -16.5 70.5t-41 43t-53.5 25.5t-53.5 17.5t-41 19t-16.5 29.5q0 23 21 37t54 14q32 0 55.5 -7.5t49.5 -24.5q8 -5 16 -1.5t26 29.5l9 13
q17 23 20 33.5t-4 16.5q-26 22 -69 36.5t-91 14.5q-50 0 -91 -14t-70 -38t-45 -57t-16 -71q0 -43 16.5 -70t41 -44t53.5 -27t53.5 -18.5t41 -18.5t16.5 -27q0 -23 -21.5 -37.5t-63.5 -14.5q-32 0 -66.5 11.5t-60.5 28.5q-10 7 -17.5 0.5t-22.5 -28.5z" />
    <glyph glyph-name="t" unicode="t" horiz-adv-x="399" 
d="M71 528q-8 0 -12 -8t-9 -41l-1 -7q-5 -34 -3.5 -42.5t10.5 -8.5h64l-31 -220q-2 -17 -4.5 -39t-2.5 -37q0 -65 34.5 -100t108.5 -35q29 0 62 7.5t54 20.5q10 6 10.5 15.5t-3.5 35.5l-1 7q-4 26 -8 34t-13 5q-14 -5 -30.5 -8t-29.5 -3q-47 0 -47 41q0 9 1 21t3 22l32 233
h109q8 0 12 8t9 41l1 7q5 34 3.5 42.5t-10.5 8.5h-108l18 128q0 4 -1 6.5t-7 4.5t-19 3t-37 1h-6q-21 0 -34 -1t-19.5 -2.5t-9 -4.5t-3.5 -7l-18 -128h-64z" />
    <glyph glyph-name="u" unicode="u" horiz-adv-x="567" 
d="M154 528q-21 0 -33.5 -1t-19.5 -2.5t-9 -4.5t-3 -7l-38 -276q-4 -26 -6.5 -49.5t-2.5 -45.5q0 -67 41.5 -109.5t116.5 -42.5q42 0 81 18t68 46q0 -28 1.5 -36.5t7.5 -11.5q12 -6 52 -6h5q20 0 32 1t18 3t8 5.5t2 8.5q2 42 9 99t16 120l38 276q0 4 -1 6.5t-7 4.5t-19 3
t-37 1h-5q-21 0 -34 -1t-19.5 -2.5t-9 -4.5t-3.5 -7l-34 -241q-6 -40 -11 -64.5t-10 -39.5t-11 -22.5t-14 -13.5q-11 -8 -29 -14t-40 -6q-74 0 -74 62q0 15 2 31.5t4 33.5l38 274q0 4 -1 6.5t-7 4.5t-19 3t-37 1h-6z" />
    <glyph glyph-name="v" unicode="v" horiz-adv-x="514" 
d="M108 528q-23 0 -36.5 -0.5t-20 -2.5t-7.5 -5.5t0 -9.5l105 -497q1 -3 3.5 -5.5t9.5 -4t19 -2.5t32 -1h7q40 0 52 3t16 9q30 45 65.5 106.5t70 129t64.5 136.5t50 129q3 8 -7 11.5t-52 3.5h-10q-21 0 -32.5 -0.5t-17.5 -2t-8.5 -4.5t-4.5 -8q-13 -38 -33 -88t-42.5 -102
t-45 -101t-41.5 -85q-4 39 -10 80t-14 88l-38 208q-2 8 -14.5 11.5t-51.5 3.5h-8z" />
    <glyph glyph-name="w" unicode="w" horiz-adv-x="775" 
d="M110 528q-23 0 -35.5 -1t-18 -3t-6.5 -5.5t0 -9.5l69 -496q2 -9 14.5 -11t52.5 -2h7q22 0 35.5 0.5t21.5 2t11 4t5 6.5l70 163q9 22 19 47t19 50.5t16.5 50t12.5 45.5q-1 -42 3 -91.5t10 -100.5l21 -164q0 -4 2.5 -6.5t10 -4t21.5 -2t39 -0.5h8q21 0 34.5 0.5t21.5 2
t11.5 4t6.5 7.5q30 57 60 122t57 130t49.5 128.5t38.5 117.5q3 10 -6 13t-46 3h-7q-19 0 -31 -0.5t-18.5 -2t-9.5 -4.5t-5 -9q-14 -44 -31 -93.5t-35.5 -100t-37 -99t-35.5 -89.5q0 16 -1 39t-2.5 49.5t-4 54t-5.5 53.5l-22 188q-1 8 -11.5 11t-50.5 3h-7q-20 0 -32 -0.5
t-18.5 -2.5t-10 -5t-5.5 -8l-78 -190q-8 -19 -18.5 -46.5t-21 -55.5t-19.5 -53.5t-13 -39.5q1 17 0.5 41.5t-2.5 51.5t-4.5 54t-5.5 51l-22 187q-1 9 -12.5 12.5t-53.5 3.5h-5z" />
    <glyph glyph-name="x" unicode="x" horiz-adv-x="500" 
d="M114 528q-44 0 -52.5 -5t-3.5 -14l77 -151q14 -27 25 -46t23 -39q-19 -22 -36.5 -44t-38.5 -48l-128 -162q-8 -9 0.5 -14t46.5 -5h28q19 0 31 0.5t19 2.5t11 5t8 8l49 67q19 26 35 49t27 40q8 -20 18.5 -41l23.5 -47l34 -68q5 -10 18 -13t54 -3h15q23 0 36 1t18.5 4
t5.5 7t-3 10l-82 161q-14 28 -25.5 49t-24.5 41q7 8 17 20.5t21 26.5t22.5 29t21.5 27l105 133q7 9 -2 14t-45 5h-28q-20 0 -32 -1t-18.5 -2.5t-10.5 -5t-7 -7.5l-41 -58q-13 -18 -27.5 -38.5t-27.5 -39.5q-13 34 -36 78l-29 58q-2 4 -6 7.5t-12.5 5t-22.5 2.5t-37 1h-14z
" />
    <glyph glyph-name="y" unicode="y" horiz-adv-x="510" 
d="M122 528q-23 0 -35.5 -1t-18.5 -3t-7 -5.5t0 -8.5l103 -512q-17 -35 -33.5 -57.5t-33.5 -36t-35 -18.5t-38 -5q-31 0 -65 9q-11 2 -16 -6t-12 -28l-6 -18q-8 -25 -8 -34.5t8 -14.5q14 -8 43 -15t58 -7q48 0 87 13t72 41t61.5 72t56.5 105l234 512q4 8 -5.5 13t-47.5 5
h-12q-36 0 -49.5 -2t-18.5 -13l-84 -198q-20 -48 -37.5 -94.5t-31.5 -84.5q0 19 -1 38t-3 40.5t-5.5 46.5t-8.5 56l-33 194q-1 5 -3.5 8t-9 5t-19 3t-33.5 1h-13z" />
    <glyph glyph-name="z" unicode="z" horiz-adv-x="470" 
d="M102 528q-8 0 -12 -8t-9 -40l-1 -6q-5 -30 -3.5 -40.5t10.5 -10.5h200l-257 -323q-11 -14 -15.5 -23.5t-6.5 -26.5l-5 -36q-1 -8 5 -11t28 -3h355q8 0 12 7.5t9 40.5l1 6q5 32 3.5 41.5t-10.5 9.5h-219l256 323q11 14 15.5 23.5t6.5 26.5l5 36q1 8 -5 11t-28 3h-335z" />
    <glyph glyph-name="ampersand" unicode="&#x26;" horiz-adv-x="682" 
d="M523 647q10 22 12.5 31.5t-4.5 14.5q-33 19 -72 28t-82 9q-50 0 -92.5 -17.5t-73.5 -48t-48.5 -71.5t-17.5 -88q0 -32 6 -56t20 -49q-70 -32 -112.5 -84.5t-42.5 -131.5q0 -46 18 -82t48.5 -61t71 -38t84.5 -13q67 0 117.5 20t96.5 57q17 -18 35 -34.5t35 -30.5
q10 -8 20 -2.5t35 33.5l9 10q15 16 22.5 26t10 16t1 9t-4.5 6q-17 14 -35.5 31t-38.5 37q34 51 58 112t35 125q2 9 -10 12.5t-44 3.5h-10q-36 0 -44.5 -4t-10.5 -12q-9 -43 -22.5 -82.5t-30.5 -71.5q-45 49 -82 93.5t-58 73.5q-22 30 -30.5 53t-8.5 46q0 46 27.5 73t71.5 27
q53 0 98 -21q11 -5 16.5 1t16.5 28zM221 324q29 -38 69 -84t85 -94q-24 -20 -51.5 -29t-56.5 -9q-51 0 -79 29t-28 75q0 68 61 112z" />
    <glyph glyph-name="at" unicode="@" horiz-adv-x="816" 
d="M514 503q-11 15 -32.5 27t-49.5 12q-50 0 -89.5 -23t-66.5 -58.5t-41.5 -79t-14.5 -85.5q0 -63 31 -99t85 -36q68 0 116 54q9 -23 36 -38.5t73 -15.5q58 0 102.5 28.5t75 71.5t46.5 94t16 96q0 64 -22.5 115.5t-64.5 87.5t-102.5 55.5t-137.5 19.5q-92 0 -172 -34
t-139 -93.5t-93 -139.5t-34 -173q0 -77 28 -133.5t74 -93.5t106 -54.5t125 -17.5q59 0 121.5 11t110.5 31q5 2 7 8t-2 25l-3 16q-4 19 -7.5 23t-9.5 2q-44 -13 -91 -20.5t-100 -7.5q-52 0 -97.5 12t-79.5 39t-53.5 70t-19.5 105q0 68 25 128t68.5 104.5t101 70.5t123.5 26
q115 0 175 -52t60 -141q0 -39 -9.5 -74t-25.5 -62t-36 -43t-42 -16q-15 0 -22 8.5t-7 21.5q0 11 3 23t8 29l22 69q14 45 25 73.5t18 48.5q4 10 -4 13.5t-39 3.5h-21q-25 0 -32 -3t-11 -9zM465 351q-14 -46 -34.5 -74t-55.5 -28q-22 0 -33.5 15.5t-11.5 41.5q0 25 8 51.5
t22 48t33 35.5t42 14q34 0 55 -24z" />
    <glyph glyph-name="exclam" unicode="!" horiz-adv-x="293" 
d="M196 720q-43 0 -55.5 -4t-13.5 -13l-46 -454q-1 -8 8 -10t35 -2h21q26 0 35.5 2t11.5 10l79 454q1 4 -1 7.5t-9 5.5t-20 3t-34 1h-11zM117 155q-20 0 -36.5 -7.5t-28 -20.5t-18 -29t-6.5 -33q0 -32 22 -53.5t57 -21.5q21 0 37.5 8t28.5 21t18 29.5t6 32.5q0 32 -22 53
t-58 21z" />
    <glyph glyph-name="exclamdown" unicode="&#xa1;" horiz-adv-x="293" 
d="M134 291q-26 0 -35.5 -2t-11.5 -10l-79 -454q-1 -5 1 -8t9 -5t20 -3t34 -1h11q43 0 55.5 4t13.5 13l46 454q1 8 -8 10t-35 2h-21zM171 538q-20 0 -36.5 -7.5t-28 -20.5t-18 -29t-6.5 -33q0 -32 22 -53.5t57 -21.5q21 0 37.5 8t28.5 21t18 29.5t6 32.5q0 32 -22 53t-58 21
z" />
    <glyph glyph-name="question" unicode="?" horiz-adv-x="447" 
d="M100 611q12 -24 18 -29t14 0q26 14 55 22.5t55 8.5q33 0 52.5 -16t19.5 -43q0 -30 -13 -52t-33.5 -41.5t-44.5 -39t-46 -43t-38 -54.5t-21 -73q-1 -8 7.5 -11.5t41.5 -3.5h19q35 0 43.5 3t9.5 11q4 28 21.5 50.5t41.5 43.5t51.5 43t50 48t37.5 59.5t15 77.5
q0 72 -49.5 115t-133.5 43q-51 0 -100.5 -14.5t-87.5 -39.5q-8 -5 -6 -15t13 -33zM160 155q-20 0 -36.5 -7.5t-28 -20.5t-18 -29t-6.5 -33q0 -32 22 -53.5t57 -21.5q21 0 37.5 8t28.5 21t18 29.5t6 32.5q0 32 -22 53t-58 21z" />
    <glyph glyph-name="questiondown" unicode="&#xbf;" horiz-adv-x="448" 
d="M267 292q-35 0 -43.5 -3t-9.5 -11q-4 -28 -21.5 -50.5t-41.5 -43.5t-51.5 -43t-50 -48t-37.5 -59.5t-15 -77.5q0 -72 49.5 -115t133.5 -43q51 0 100.5 14.5t87.5 39.5q8 5 6 15t-13 33l-8 17q-12 24 -18 29t-14 0q-26 -14 -51.5 -22.5t-58.5 -8.5t-52.5 16t-19.5 43
q0 29 13 51.5t33.5 42t44.5 39t46 43t38 54.5t21 73q1 8 -7.5 11.5t-41.5 3.5h-19zM302 538q-20 0 -36.5 -7.5t-28 -20.5t-18 -29t-6.5 -33q0 -32 22 -53.5t57 -21.5q21 0 37.5 8t28.5 21t18 29.5t6 32.5q0 32 -22 53t-58 21z" />
    <glyph glyph-name="asterisk" unicode="*" horiz-adv-x="414" 
d="M103 646q-9 4 -15 -5t-17 -33l-6 -13q-12 -26 -13 -35t8 -11l105 -29l-87 -91q-8 -8 -3.5 -16t21.5 -23l11 -9q19 -16 27 -18.5t15 5.5l75 104l50 -104q4 -8 13.5 -5.5t32.5 18.5l13 9q22 15 28 23.5t0 15.5l-66 91l119 29q11 2 12 11t-3 35l-2 13q-4 25 -7.5 33.5
t-14.5 4.5l-118 -46l27 116q2 10 -7 12t-34 2h-13q-25 0 -34.5 -2t-10.5 -12l-6 -116z" />
    <glyph glyph-name="period" unicode="." horiz-adv-x="235" 
d="M87 155q-20 0 -36.5 -7.5t-28 -20.5t-18 -29t-6.5 -33q0 -32 22 -53.5t57 -21.5q21 0 37.5 8t28.5 21t18 29.5t6 32.5q0 32 -22 53t-58 21z" />
    <glyph glyph-name="comma" unicode="," horiz-adv-x="234" 
d="M-29 -184q5 -6 11.5 -8.5t12.5 2.5q27 22 56 51.5t53 63.5t39.5 70t15.5 71q0 39 -19 63t-60 24q-37 0 -60 -22.5t-23 -57.5q0 -16 5 -26t11.5 -19t11.5 -18.5t5 -23.5q0 -18 -8 -36.5t-20 -36t-25.5 -32.5t-24.5 -27q-5 -5 -3 -9.5t8 -12.5z" />
    <glyph glyph-name="colon" unicode=":" horiz-adv-x="235" 
d="M85 155q-20 0 -36.5 -7.5t-28 -20.5t-18 -29t-6.5 -33q0 -32 22 -53.5t57 -21.5q21 0 37.5 8t28.5 21t18 29.5t6 32.5q0 32 -22 53t-58 21zM135 513q-20 0 -36.5 -7.5t-28 -20.5t-18 -29t-6.5 -33q0 -32 22 -53.5t57 -21.5q21 0 37.5 8t28.5 21t18 29.5t6 32.5
q0 32 -22 53t-58 21z" />
    <glyph glyph-name="semicolon" unicode=";" horiz-adv-x="235" 
d="M138 513q-20 0 -36.5 -7.5t-28 -20.5t-18 -29t-6.5 -33q0 -32 22 -53.5t57 -21.5q21 0 37.5 8t28.5 21t18 29.5t6 32.5q0 32 -22 53t-58 21zM-24 -184q5 -6 11.5 -8.5t12.5 2.5q27 22 56 51.5t53 63.5t39.5 70t15.5 71q0 39 -19 63t-60 24q-37 0 -60 -22.5t-23 -57.5
q0 -16 5 -26t11.5 -19t11.5 -18.5t5 -23.5q0 -18 -8 -36.5t-20 -36t-25.5 -32.5t-24.5 -27q-5 -5 -3 -9.5t8 -12.5z" />
    <glyph glyph-name="ellipsis" unicode="&#x2026;" horiz-adv-x="705" 
d="M96 155q-20 0 -36.5 -7.5t-28 -20.5t-18 -29t-6.5 -33q0 -32 22 -53.5t57 -21.5q21 0 37.5 8t28.5 21t18 29.5t6 32.5q0 32 -22 53t-58 21zM330 155q-20 0 -36.5 -7.5t-28 -20.5t-18 -29t-6.5 -33q0 -32 22 -53.5t57 -21.5q21 0 37.5 8t28.5 21t18 29.5t6 32.5
q0 32 -22 53t-58 21zM565 155q-20 0 -36.5 -7.5t-28 -20.5t-18 -29t-6.5 -33q0 -32 22 -53.5t57 -21.5q21 0 37.5 8t28.5 21t18 29.5t6 32.5q0 32 -22 53t-58 21z" />
    <glyph glyph-name="periodcentered" unicode="&#xb7;" horiz-adv-x="235" 
d="M123 447q-20 0 -36.5 -7.5t-28 -20.5t-18 -29t-6.5 -33q0 -32 22 -53.5t57 -21.5q21 0 37.5 8t28.5 21t18 29.5t6 32.5q0 32 -22 53t-58 21z" />
    <glyph glyph-name="bullet" unicode="&#x2022;" horiz-adv-x="347" 
d="M182 507q-33 0 -60 -13t-46 -34t-29.5 -48t-10.5 -55q0 -26 9.5 -48.5t26.5 -39.5t41 -26.5t53 -9.5q35 0 62.5 13.5t46 35t28.5 48.5t10 54q0 26 -9 48.5t-26.5 39t-41.5 26t-54 9.5z" />
    <glyph glyph-name="slash" unicode="/" horiz-adv-x="361" 
d="M337 720q-37 0 -50 -3.5t-17 -13.5l-299 -686q-2 -4 -2 -7t5.5 -5.5t17 -3.5t32.5 -1h16q38 0 50.5 3.5t17.5 13.5l300 686q2 4 1.5 7.5t-6 5.5t-17.5 3t-33 1h-16z" />
    <glyph glyph-name="parenleft" unicode="(" horiz-adv-x="338" 
d="M354 756q-23 17 -31.5 18t-13.5 -4q-56 -49 -100.5 -114t-76 -139.5t-48.5 -153.5t-17 -155q0 -59 9 -112.5t24.5 -99t36 -82.5t43.5 -64q2 -2 4.5 -3.5t8 0t14 5.5t22.5 12l15 9q29 17 34.5 24t1.5 14q-29 56 -46.5 128t-17.5 159q0 137 44 268.5t132 242.5q4 5 2 12
t-27 25z" />
    <glyph glyph-name="brokenbar" unicode="&#xa6;" horiz-adv-x="267" 
d="M106 179q-20 0 -31.5 -1t-17.5 -2.5t-7.5 -4.5t-2.5 -7l-52 -371q0 -4 0.5 -7t6 -4.5t16.5 -2.5t31 -1h11q20 0 32 1t18 3t8 4.5t2 6.5l52 371q1 4 0 6.5t-6.5 4.5t-17 3t-31.5 1h-11zM188 766q-20 0 -31.5 -1t-17 -2.5t-7.5 -4.5t-2 -7l-52 -371q-1 -4 0 -7t6.5 -4.5
t16.5 -2.5t31 -1h11q20 0 31.5 1t17.5 3t8 4.5t3 6.5l52 371q0 4 -1 6.5t-6.5 4.5t-17 3t-31.5 1h-11z" />
    <glyph glyph-name="parenright" unicode=")" horiz-adv-x="338" 
d="M112 747q-29 -17 -34.5 -24t-1.5 -14q29 -56 46.5 -128t17.5 -159q0 -137 -44 -268.5t-132 -242.5q-2 -3 -3 -5.5t1 -6.5t8.5 -10t18.5 -15l13 -10q23 -17 31.5 -18t13.5 4q56 49 100.5 114t76 139.5t48.5 153.5t17 155q0 59 -9 112t-24.5 99t-36 83t-43.5 64
q-2 2 -4.5 3.5t-8 0t-14 -5.5t-22.5 -12z" />
    <glyph glyph-name="bracketleft" unicode="[" horiz-adv-x="332" 
d="M168 753q-7 0 -8 -7l-123 -871q-1 -7 6 -7h231q4 0 6.5 1t4 5.5t3 13t3.5 24.5l1 9q3 30 2.5 37t-7.5 7h-112l97 691h113q4 0 6.5 1t4 5.5t3 13t3.5 24.5l1 9q3 30 2.5 37t-7.5 7h-230z" />
    <glyph glyph-name="backslash" unicode="\" horiz-adv-x="361" 
d="M127 720q-21 0 -33.5 -1t-18.5 -3t-7 -5.5t0 -7.5l108 -686q2 -11 13.5 -14t48.5 -3h10q21 0 33.5 1t18.5 3t7 5t1 8l-108 686q-2 11 -14 14t-49 3h-10z" />
    <glyph glyph-name="bracketright" unicode="]" horiz-adv-x="332" 
d="M71 753q-4 0 -6.5 -1t-4 -5.5t-3 -13t-3.5 -24.5l-1 -9q-3 -30 -2.5 -37t7.5 -7h112l-97 -691h-113q-4 0 -6.5 -1t-4 -5.5t-3 -13t-3.5 -24.5l-1 -9q-3 -30 -2.5 -37t7.5 -7h230q7 0 8 7l123 871q1 7 -6 7h-231z" />
    <glyph glyph-name="braceleft" unicode="{" horiz-adv-x="316" 
d="M340 753q-93 0 -135.5 -44t-54.5 -128l-20 -144q-5 -39 -21.5 -53.5t-45.5 -19.5q-8 -2 -11.5 -9.5t-7.5 -33.5l-3 -20q-5 -29 -3 -36t10 -9q21 -5 34.5 -14t13.5 -35q0 -5 -0.5 -12t-1.5 -12l-20 -143q-2 -13 -3 -24t-1 -22q0 -62 32.5 -94t112.5 -32h35q8 0 10.5 7.5
t7.5 36.5l2 13q5 29 4 36t-9 7h-22q-25 0 -35.5 9.5t-10.5 32.5q0 5 0.5 10t1.5 10l20 141q3 19 3 36q0 74 -58 103q42 20 64 53t30 86l20 141q5 35 17.5 49t43.5 14h22q8 0 10.5 7.5t7.5 36.5l2 13q5 29 4 36t-9 7h-36z" />
    <glyph glyph-name="bar" unicode="|" horiz-adv-x="267" 
d="M201 817q-20 0 -31 -1t-17 -2.5t-7.5 -4.5t-2.5 -7l-149 -1060q-1 -4 0 -7t6.5 -4.5t16.5 -2.5t31 -1h11q20 0 32 1t18 3t8 4.5t2 6.5l149 1060q0 4 -1 6.5t-6.5 4.5t-17 3t-31.5 1h-11z" />
    <glyph glyph-name="braceright" unicode="}" horiz-adv-x="316" 
d="M90 753q-8 0 -10.5 -7.5t-7.5 -36.5l-2 -13q-5 -29 -4 -36t9 -7h22q25 0 35.5 -9.5t10.5 -32.5q0 -5 -0.5 -10t-1.5 -10l-20 -141q-3 -20 -3 -36q0 -74 58 -103q-42 -20 -64 -53t-30 -86l-20 -141q-5 -35 -17.5 -49t-43.5 -14h-22q-8 0 -10.5 -7.5t-7.5 -36.5l-2 -13
q-5 -29 -4 -36t9 -7h36q93 0 135.5 44t54.5 128l20 144q5 39 21.5 53.5t45.5 19.5q8 2 11.5 9.5t7.5 33.5l3 20q5 29 3 36t-10 9q-21 5 -34.5 14t-13.5 35q0 5 0.5 12t1.5 12l20 143q2 13 3 24t1 22q0 62 -32.5 94t-112.5 32h-35z" />
    <glyph glyph-name="hyphen" unicode="-" horiz-adv-x="382" 
d="M53 345q-8 0 -12 -8.5t-9 -41.5l-2 -14q-5 -33 -3 -41.5t10 -8.5h288q8 0 12 8.5t9 41.5l2 14q5 33 3 41.5t-10 8.5h-288z" />
    <glyph glyph-name="uni00AD" unicode="&#xad;" horiz-adv-x="382" 
d="M53 345q-8 0 -12 -8.5t-9 -41.5l-2 -14q-5 -33 -3 -41.5t10 -8.5h288q8 0 12 8.5t9 41.5l2 14q5 33 3 41.5t-10 8.5h-288z" />
    <glyph glyph-name="endash" unicode="&#x2013;" horiz-adv-x="500" 
d="M33 337q-8 0 -12 -8.5t-9 -41.5l-1 -6q-5 -33 -3 -41.5t10 -8.5h462q8 0 12 8.5t9 41.5l1 6q5 33 3 41.5t-10 8.5h-462z" />
    <glyph glyph-name="emdash" unicode="&#x2014;" horiz-adv-x="1000" 
d="M33 337q-8 0 -12 -8.5t-9 -41.5l-1 -6q-5 -33 -3 -41.5t10 -8.5h952q8 0 12 8.5t9 41.5l1 6q5 33 3 41.5t-10 8.5h-952z" />
    <glyph glyph-name="underscore" unicode="_" horiz-adv-x="500" 
d="M-57 -112q-8 0 -12 -8.5t-9 -41.5l-1 -6q-5 -33 -3 -41.5t10 -8.5h499q8 0 12 8.5t9 41.5l1 6q5 33 3 41.5t-10 8.5h-499z" />
    <glyph glyph-name="dagger" unicode="&#x2020;" horiz-adv-x="471" 
d="M54 501q-8 0 -12 -8.5t-9 -41.5l-2 -14q-5 -33 -3 -41.5t10 -8.5h140l-71 -509q-1 -4 0 -7t6.5 -4.5t16.5 -2.5t31 -1h11q20 0 31.5 1t17.5 3t8 4.5t3 6.5l71 509h140q8 0 12 8.5t9 41.5l2 14q5 33 3 41.5t-10 8.5h-140l29 204q0 4 -1 6.5t-6.5 4.5t-17 3t-31.5 1h-11
q-20 0 -31 -1t-17 -2.5t-7.5 -4.5t-2.5 -7l-29 -204h-140z" />
    <glyph glyph-name="daggerdbl" unicode="&#x2021;" horiz-adv-x="491" 
d="M64 501q-8 0 -12 -8.5t-9 -41.5l-2 -14q-5 -33 -3 -41.5t10 -8.5h140l-26 -191h-140q-8 0 -12 -9t-9 -41l-2 -14q-5 -33 -3 -41.5t10 -8.5h140l-29 -204q0 -4 0.5 -6.5t6 -4.5t16.5 -3t31 -1h11q20 0 31.5 1t17.5 2.5t8 4.5t3 7l29 204h140q8 0 12 8.5t9 41.5l2 14
q5 34 3 42t-10 8h-140l26 191h140q8 0 12 8.5t9 41.5l2 14q5 33 3 41.5t-10 8.5h-140l29 204q1 4 0 7t-7 4.5t-17.5 2.5t-31.5 1h-11q-20 0 -31 -0.5t-17 -2.5t-7.5 -5t-2.5 -7l-29 -204h-140z" />
    <glyph glyph-name="section" unicode="&#xa7;" horiz-adv-x="531" 
d="M478 632q17 23 20 33.5t-4 16.5q-26 21 -69 34.5t-91 13.5q-50 0 -91 -14t-70 -38t-45 -57t-16 -71q0 -30 8.5 -52t22.5 -38q-94 -52 -94 -133q0 -44 18 -70.5t45 -42.5t58 -25t58 -17t45 -19t18 -31q0 -23 -21 -37.5t-54 -14.5q-32 0 -57 7t-51 21q-8 5 -16 1.5
t-26 -29.5l-10 -15q-17 -24 -20 -34t4 -16q26 -20 71 -32.5t93 -12.5q50 0 91 14t70 38.5t45 57.5t16 71q0 30 -9 51.5t-23 37.5q46 26 70.5 59t24.5 75q0 44 -18 70.5t-45 42.5t-58 25t-58 17t-45 19t-18 31q0 23 21 37t54 14q32 0 55.5 -6t49.5 -23q8 -5 16 -1.5t26 29.5z
M302 283q-23 7 -44 13t-37.5 13.5t-26.5 17.5t-10 26q0 20 14.5 33t37.5 22q22 -8 43.5 -14t38 -13.5t26.5 -17.5t10 -25q0 -20 -15 -33.5t-37 -21.5z" />
    <glyph glyph-name="paragraph" unicode="&#xb6;" horiz-adv-x="601" 
d="M319 720q-56 0 -105.5 -17t-86 -49t-57.5 -77t-21 -100q0 -79 44 -124.5t127 -53.5l-60 -426q-1 -10 37 -10h32q37 0 38 10l106 750h53l-106 -750q-1 -10 37 -10h33q37 0 38 10l106 750h71q5 0 7.5 5.5t5.5 25.5l5 34q3 21 1.5 26.5t-6.5 5.5h-299z" />
    <glyph glyph-name="registered" unicode="&#xae;" horiz-adv-x="784" 
d="M316 563q-16 0 -20 -1.5t-5 -6.5l-55 -390q-1 -5 5.5 -6.5t29.5 -1.5h8q22 0 29.5 1.5t8.5 6.5l21 148h31q15 -36 26 -61.5t18.5 -43t13 -27.5t9.5 -16q3 -5 11.5 -6.5t31.5 -1.5h14q23 0 28.5 3t2.5 8q-8 13 -15.5 27t-16 32.5t-19 42.5t-23.5 56q41 20 64 54.5t23 79.5
q0 52 -36 77.5t-100 25.5h-85zM364 495h25q26 0 45.5 -8t19.5 -34q0 -36 -23 -56q-20 -18 -58 -18h-26zM435 650q50 0 92.5 -18t73 -50.5t48 -79t17.5 -103.5q0 -64 -23.5 -123.5t-65.5 -105t-99 -73t-123 -27.5q-50 0 -92.5 18.5t-73.5 52t-48 81t-17 106.5q0 62 23.5 120
t65.5 103t99 72t123 27zM33 318q0 -75 23 -136t64.5 -103.5t98 -65.5t124.5 -23q91 0 167 36t131 95t85.5 134.5t30.5 154.5q0 73 -23 132.5t-64.5 101t-98.5 64t-124 22.5q-91 0 -167 -35.5t-131 -93.5t-85.5 -132t-30.5 -151z" />
    <glyph glyph-name="copyright" unicode="&#xa9;" horiz-adv-x="784" 
d="M527 503q10 15 10.5 20.5t-4.5 10.5q-39 33 -101 33q-51 0 -90.5 -24t-66 -62t-40 -84t-13.5 -89q0 -73 37.5 -116t108.5 -43q29 0 61 8.5t55 23.5q5 3 5.5 8.5t-4.5 19.5l-4 13q-4 13 -7 15.5t-8 0.5q-20 -8 -39 -12.5t-39 -4.5q-39 0 -58.5 24.5t-19.5 68.5
q0 36 9.5 69t25.5 58t37.5 40t45.5 15q21 0 36 -5t32 -16q5 -3 9 -1.5t15 18.5zM434 650q50 0 92.5 -18t73 -50.5t48 -79t17.5 -103.5q0 -64 -23.5 -123.5t-65.5 -105t-99 -73t-123 -27.5q-50 0 -92.5 18.5t-73.5 52t-48 81t-17 106.5q0 62 23.5 120t65.5 103t99 72t123 27z
M32 318q0 -75 23 -136t64.5 -103.5t98 -65.5t124.5 -23q91 0 167 36t131 95t85.5 134.5t30.5 154.5q0 73 -23 132.5t-64.5 101t-98.5 64t-124 22.5q-91 0 -167 -35.5t-131 -93.5t-85.5 -132t-30.5 -151z" />
    <glyph glyph-name="trademark" unicode="&#x2122;" horiz-adv-x="827" 
d="M79 720q-6 0 -9 -3.5t-6 -26.5l-3 -24q-2 -21 -1 -26t7 -5h90l-43 -311q-1 -5 5.5 -6.5t29.5 -1.5h25q23 0 30.5 1.5t8.5 6.5l43 311h90q7 0 10 5.5t5 25.5l3 24q2 20 0.5 25t-6.5 5h-279zM449 720q-24 0 -30.5 -2t-7.5 -7l-69 -387q-1 -5 4 -6.5t30 -1.5h21q24 0 30 1
t7 6l23 129q6 35 10.5 70.5t6.5 61.5q4 -23 10.5 -54.5t17.5 -67.5l22 -73q2 -5 7 -7t28 -2h23q22 0 27.5 2t8.5 7l39 75q17 33 34 65.5t27 55.5q-5 -25 -8.5 -56.5t-8.5 -65.5l-18 -140q-1 -5 3.5 -6t29.5 -1h26q24 0 30 1.5t7 6.5l41 387q1 6 -5.5 7.5t-30.5 1.5h-46
q-23 0 -29 -1.5t-10 -8.5l-70 -129q-15 -28 -26.5 -54t-17.5 -43q-2 18 -8 43t-14 56l-34 127q-2 6 -8.5 8t-29.5 2h-42z" />
    <glyph glyph-name="quotedblleft" unicode="&#x201c;" horiz-adv-x="479" 
d="M242 719q-5 6 -11.5 8.5t-12.5 -2.5q-27 -22 -56 -51t-52 -62t-38 -69t-15 -71q0 -39 19 -63t60 -24q37 0 60 22.5t23 57.5q0 16 -5 26t-11.5 19t-11.5 18.5t-5 23.5q0 18 7.5 36t18.5 34.5t24.5 31.5t24.5 27q5 5 3 9.5t-8 12.5zM453 719q-5 6 -11.5 8.5t-12.5 -2.5
q-27 -22 -56 -51t-52 -62t-38 -69t-15 -71q0 -39 19 -63t60 -24q37 0 60 22.5t23 57.5q0 16 -5 26t-11.5 19t-11.5 18.5t-5 23.5q0 18 7.5 36t18.5 34.5t24.5 31.5t24.5 27q5 5 3 9.5t-8 12.5z" />
    <glyph glyph-name="quotedblright" unicode="&#x201d;" horiz-adv-x="479" 
d="M81 396q5 -6 11.5 -8.5t12.5 2.5q27 22 56 51t52 62t38 69t15 71q0 39 -19 63t-60 24q-37 0 -60 -22.5t-23 -57.5q0 -16 5 -26t11.5 -19t11.5 -18.5t5 -23.5q0 -18 -7.5 -36t-19 -34.5t-24.5 -31.5t-24 -27q-5 -5 -3 -9.5t8 -12.5zM292 396q5 -6 11.5 -8.5t12.5 2.5
q27 22 56 51t52 62t38 69t15 71q0 39 -19 63t-60 24q-37 0 -60 -22.5t-23 -57.5q0 -16 5 -26t11.5 -19t11.5 -18.5t5 -23.5q0 -18 -7.5 -36t-19 -34.5t-24.5 -31.5t-24 -27q-5 -5 -3 -9.5t8 -12.5z" />
    <glyph glyph-name="quoteleft" unicode="&#x2018;" horiz-adv-x="268" 
d="M242 719q-5 6 -11.5 8.5t-12.5 -2.5q-27 -22 -56 -51t-52 -62t-38 -69t-15 -71q0 -39 19 -63t60 -24q37 0 60 22.5t23 57.5q0 16 -5 26t-11.5 19t-11.5 18.5t-5 23.5q0 18 7.5 36t18.5 34.5t24.5 31.5t24.5 27q5 5 3 9.5t-8 12.5z" />
    <glyph glyph-name="quoteright" unicode="&#x2019;" horiz-adv-x="268" 
d="M81 396q5 -6 11.5 -8.5t12.5 2.5q27 22 56 51t52 62t38 69t15 71q0 39 -19 63t-60 24q-37 0 -60 -22.5t-23 -57.5q0 -16 5 -26t11.5 -19t11.5 -18.5t5 -23.5q0 -18 -7.5 -36t-19 -34.5t-24.5 -31.5t-24 -27q-5 -5 -3 -9.5t8 -12.5z" />
    <glyph glyph-name="guillemotleft" unicode="&#xab;" horiz-adv-x="532" 
d="M214 523q9 11 17.5 11t28.5 -14l14 -10q23 -17 26.5 -24.5t-2.5 -15.5l-126 -169l79 -170q2 -5 2 -8.5t-3.5 -8t-12 -9.5t-22.5 -13l-16 -9q-25 -14 -33.5 -14t-13.5 10l-100 186q-5 10 -7 16.5t0 15.5l1 7q2 11 5 17.5t11 15.5zM430 523q9 11 17.5 11t28.5 -14l14 -10
q23 -17 26.5 -24.5t-2.5 -15.5l-126 -169l79 -170q2 -5 2 -8.5t-3.5 -8t-12 -9.5t-22.5 -13l-16 -9q-25 -14 -33.5 -14t-13.5 10l-100 186q-5 10 -7 16.5t0 15.5l1 7q2 11 5 17.5t11 15.5z" />
    <glyph glyph-name="guillemotright" unicode="&#xbb;" horiz-adv-x="532" 
d="M352 521q25 14 33.5 14t13.5 -10l100 -186q5 -10 7 -16.5t0 -15.5l-1 -7q-2 -11 -5 -17.5t-11 -15.5l-152 -186q-9 -11 -17.5 -11t-28.5 14l-14 10q-23 17 -26.5 24.5t2.5 15.5l126 169l-79 170q-2 5 -2 8.5t3.5 8t12 9.5t22.5 13zM136 521q25 14 33.5 14t13.5 -10
l100 -186q5 -10 7 -16.5t0 -15.5l-1 -7q-2 -11 -5 -17.5t-11 -15.5l-152 -186q-9 -11 -17.5 -11t-28.5 14l-14 10q-23 17 -26.5 24.5t2.5 15.5l126 169l-79 170q-2 5 -2 8.5t3.5 8t12 9.5t22.5 13z" />
    <glyph glyph-name="guilsinglleft" unicode="&#x2039;" horiz-adv-x="316" 
d="M216 523q9 11 17.5 11t28.5 -14l14 -10q23 -17 26.5 -24.5t-2.5 -15.5l-126 -169l79 -170q2 -5 2 -8.5t-3.5 -8t-12 -9.5t-22.5 -13l-16 -9q-25 -14 -33.5 -14t-13.5 10l-100 186q-5 10 -7 16.5t0 15.5l1 7q2 11 5 17.5t11 15.5z" />
    <glyph glyph-name="guilsinglright" unicode="&#x203a;" horiz-adv-x="316" 
d="M136 521q25 14 33.5 14t13.5 -10l100 -186q5 -10 7 -16.5t0 -15.5l-1 -7q-2 -11 -5 -17.5t-11 -15.5l-152 -186q-9 -11 -17.5 -11t-28.5 14l-14 10q-23 17 -26.5 24.5t2.5 15.5l126 169l-79 170q-2 5 -2 8.5t3.5 8t12 9.5t22.5 13z" />
    <glyph glyph-name="quotesinglbase" unicode="&#x201a;" horiz-adv-x="268" 
d="M-16 -244q5 -6 11.5 -8.5t12.5 2.5q27 22 56 51t52 62t38 69t15 71q0 39 -19 63t-60 24q-37 0 -60 -22.5t-23 -57.5q0 -16 5 -26t11.5 -19t11.5 -18.5t5 -23.5q0 -18 -7.5 -36t-19 -34.5t-24.5 -31.5t-24 -27q-5 -5 -3 -9.5t8 -12.5z" />
    <glyph glyph-name="quotedblbase" unicode="&#x201e;" horiz-adv-x="479" 
d="M-16 -244q5 -6 11.5 -8.5t12.5 2.5q27 22 56 51t52 62t38 69t15 71q0 39 -19 63t-60 24q-37 0 -60 -22.5t-23 -57.5q0 -16 5 -26t11.5 -19t11.5 -18.5t5 -23.5q0 -18 -7.5 -36t-19 -34.5t-24.5 -31.5t-24 -27q-5 -5 -3 -9.5t8 -12.5zM195 -244q5 -6 11.5 -8.5t12.5 2.5
q27 22 56 51t52 62t38 69t15 71q0 39 -19 63t-60 24q-37 0 -60 -22.5t-23 -57.5q0 -16 5 -26t11.5 -19t11.5 -18.5t5 -23.5q0 -18 -7.5 -36t-19 -34.5t-24.5 -31.5t-24 -27q-5 -5 -3 -9.5t8 -12.5z" />
    <glyph glyph-name="grave" unicode="`" horiz-adv-x="343" 
d="M91 786q-23 0 -29.5 -4t-1.5 -12l105 -163q4 -6 12 -8.5t27 -2.5h30q17 0 23.5 3t2.5 12l-81 163q-3 7 -12 9.5t-36 2.5h-40z" />
    <glyph glyph-name="acute" unicode="&#xb4;" horiz-adv-x="343" 
d="M313 786q-27 0 -36 -2.5t-14 -9.5l-123 -163q-7 -9 -1 -12t23 -3h35q19 0 27 2.5t14 8.5l151 163q8 8 2 12t-29 4h-49z" />
    <glyph glyph-name="dieresis" unicode="&#xa8;" horiz-adv-x="343" 
d="M115 750q-35 0 -55 -24t-20 -53q0 -27 18.5 -45t48.5 -18q18 0 32 7t24 18t15 24.5t5 27.5q0 27 -18.5 45t-49.5 18zM329 750q-35 0 -55 -24t-20 -53q0 -27 18.5 -45t48.5 -18q18 0 32 7t24 18t15 24.5t5 27.5q0 27 -18.5 45t-49.5 18z" />
    <glyph glyph-name="circumflex" unicode="&#x2c6;" horiz-adv-x="343" 
d="M59 663q-8 -8 -6 -15t13 -20l11 -12q13 -14 19.5 -17.5t14.5 2.5l113 90l85 -86q6 -6 13.5 -3.5t24.5 18.5l9 8q16 15 19 22t-2 13l-75 97q-8 10 -20 13t-39 3h-14q-27 0 -39.5 -3t-23.5 -13z" />
    <glyph glyph-name="tilde" unicode="&#x2dc;" horiz-adv-x="343" 
d="M64 643q15 -15 22.5 -17.5t12.5 2.5q17 17 31.5 23t28.5 6q12 0 23 -6t23 -13t26.5 -13t33.5 -6q36 0 67.5 18.5t57.5 49.5q6 8 4.5 15.5t-15.5 21.5l-4 4q-15 15 -22.5 17.5t-12.5 -2.5q-16 -17 -31.5 -23t-30.5 -6q-12 0 -23 6t-23 13t-26.5 13t-33.5 6
q-35 0 -65.5 -18t-57.5 -50q-6 -8 -4.5 -15.5t15.5 -21.5z" />
    <glyph glyph-name="macron" unicode="&#xaf;" horiz-adv-x="343" 
d="M95 735q-8 0 -12 -9t-7 -32l-2 -14q-3 -23 -2 -32t9 -9h264q8 0 12 9t7 32l2 14q3 23 2 32t-9 9h-264z" />
    <glyph glyph-name="breve" unicode="&#x2d8;" horiz-adv-x="343" 
d="M111 762q-18 0 -26.5 -3.5t-8.5 -19.5q-1 -60 35 -96t101 -36q67 0 111 37.5t57 103.5q2 8 -6 11t-34 3h-18q-22 0 -27 -2t-7 -10q-18 -57 -67 -57q-25 0 -38 15.5t-13 41.5q0 6 -4.5 9t-27.5 3h-27z" />
    <glyph glyph-name="dotaccent" unicode="&#x2d9;" horiz-adv-x="343" 
d="M224 764q-18 0 -32 -7t-24 -18t-15.5 -25t-5.5 -29q0 -28 19 -47t50 -19q18 0 32.5 7.5t24.5 18.5t15.5 25t5.5 28q0 29 -19 47.5t-51 18.5z" />
    <glyph glyph-name="ring" unicode="&#x2da;" horiz-adv-x="343" 
d="M221 740q17 0 27.5 -9t10.5 -25q0 -21 -13 -33t-27 -12q-17 0 -27 9t-10 25q0 21 12.5 33t26.5 12zM229 810q-24 0 -46 -10.5t-38.5 -27.5t-26.5 -39t-10 -46q0 -41 29 -68.5t74 -27.5q24 0 46.5 10.5t39 27.5t26.5 39t10 46q0 41 -29.5 68.5t-74.5 27.5z" />
    <glyph glyph-name="cedilla" unicode="&#xb8;" horiz-adv-x="343" 
d="M137 23q-22 0 -27 -2.5t-7 -7.5l-34 -118q17 2 32 3t26 1q42 0 42 -28q0 -16 -12 -23.5t-30 -7.5q-14 0 -24.5 2t-21.5 5q-10 3 -14 -2t-11 -23l-4 -11q-8 -22 -8 -28t8 -9q32 -13 73 -13q30 0 55.5 8.5t44.5 23.5t30 36t11 47q-1 43 -26 64t-66 23l10 45q2 10 -2 12.5
t-22 2.5h-23z" />
    <glyph glyph-name="hungarumlaut" unicode="&#x2dd;" horiz-adv-x="343" 
d="M199 786q-26 0 -34.5 -2.5t-13.5 -9.5l-113 -157q-5 -8 0 -11t21 -3h34q18 0 26 2t14 9l136 157q6 8 1.5 11.5t-27.5 3.5h-44zM395 786q-26 0 -34.5 -2.5t-13.5 -9.5l-113 -157q-6 -8 -0.5 -11t21.5 -3h34q18 0 26 2t14 9l136 157q6 8 1.5 11.5t-27.5 3.5h-44z" />
    <glyph glyph-name="ogonek" unicode="&#x2db;" horiz-adv-x="343" 
d="M176 21q-15 0 -25 -1.5t-21 -6.5q-24 -11 -45 -27t-37 -36t-25.5 -44t-9.5 -50q0 -48 30 -72t78 -24q18 0 43 3.5t43 13.5q9 5 11 12t-3 27l-4 17q-4 17 -8 21.5t-11 2.5q-8 -3 -19 -5.5t-22 -2.5q-16 0 -26 7.5t-10 25.5q0 30 29.5 62.5t84.5 64.5q4 2 4 7t-8 5h-49z
" />
    <glyph glyph-name="caron" unicode="&#x2c7;" horiz-adv-x="343" 
d="M79 743q-16 -14 -19 -21.5t2 -13.5l75 -97q8 -10 20 -13t39 -3h14q27 0 39.5 3t23.5 13l103 97q8 8 6 15.5t-13 19.5l-11 12q-12 14 -19 17.5t-15 -2.5l-112 -89l-85 86q-6 6 -13.5 3t-24.5 -18z" />
    <glyph glyph-name="commaaccent" unicode="&#x326;" horiz-adv-x="350" 
d="M37 -311q10 -12 18 -5q21 16 42.5 38.5t39.5 48t29.5 52.5t11.5 53q0 28 -14 46.5t-43 18.5q-27 0 -45.5 -17t-18.5 -43q0 -12 3.5 -19.5t8 -14t8.5 -14t4 -17.5q0 -14 -6 -28t-14.5 -26.5t-18.5 -24t-19 -20.5q-5 -6 4 -16z" />
    <glyph glyph-name="grave.sc" horiz-adv-x="343" 
d="M91 828q-23 0 -29.5 -4t-1.5 -12l105 -163q4 -6 12 -8.5t27 -2.5h30q17 0 23.5 3t2.5 12l-81 163q-3 7 -12 9.5t-36 2.5h-40z" />
    <glyph glyph-name="acute.sc" horiz-adv-x="343" 
d="M313 828q-27 0 -36 -2.5t-14 -9.5l-123 -163q-7 -9 -1 -12t23 -3h35q19 0 27 2.5t14 8.5l151 163q8 8 2 12t-29 4h-49z" />
    <glyph glyph-name="dieresis.sc" horiz-adv-x="343" 
d="M115 792q-35 0 -55 -24t-20 -53q0 -27 18.5 -45t48.5 -18q18 0 32 7t24 18t15 24.5t5 27.5q0 27 -18.5 45t-49.5 18zM329 792q-35 0 -55 -24t-20 -53q0 -27 18.5 -45t48.5 -18q18 0 32 7t24 18t15 24.5t5 27.5q0 27 -18.5 45t-49.5 18z" />
    <glyph glyph-name="circumflex.sc" horiz-adv-x="343" 
d="M59 705q-8 -8 -6 -15t13 -20l11 -12q13 -14 19.5 -17.5t14.5 2.5l113 90l85 -86q6 -6 13.5 -3.5t24.5 18.5l9 8q16 15 19 22t-2 13l-75 97q-8 10 -20 13t-39 3h-14q-27 0 -39.5 -3t-23.5 -13z" />
    <glyph glyph-name="tilde.sc" horiz-adv-x="343" 
d="M64 685q15 -15 22.5 -17.5t12.5 2.5q17 17 31.5 23t28.5 6q12 0 23 -6t23 -13t26.5 -13t33.5 -6q36 0 67.5 18.5t57.5 49.5q6 8 4.5 15.5t-15.5 21.5l-4 4q-15 15 -22.5 17.5t-12.5 -2.5q-16 -17 -31.5 -23t-30.5 -6q-12 0 -23 6t-23 13t-26.5 13t-33.5 6
q-35 0 -65.5 -18t-57.5 -50q-6 -8 -4.5 -15.5t15.5 -21.5z" />
    <glyph glyph-name="macron.sc" horiz-adv-x="343" 
d="M95 777q-8 0 -12 -9t-7 -32l-2 -14q-3 -23 -2 -32t9 -9h264q8 0 12 9t7 32l2 14q3 23 2 32t-9 9h-264z" />
    <glyph glyph-name="breve.sc" horiz-adv-x="343" 
d="M111 804q-18 0 -26.5 -3.5t-8.5 -19.5q-1 -60 35 -96t101 -36q67 0 111 37.5t57 103.5q2 8 -6 11t-34 3h-18q-22 0 -27 -2t-7 -10q-18 -57 -67 -57q-25 0 -38 15.5t-13 41.5q0 6 -4.5 9t-27.5 3h-27z" />
    <glyph glyph-name="dotaccent.sc" horiz-adv-x="343" 
d="M224 806q-18 0 -32 -7t-24 -18t-15.5 -25t-5.5 -29q0 -28 19 -47t50 -19q18 0 32.5 7.5t24.5 18.5t15.5 25t5.5 28q0 29 -19 47.5t-51 18.5z" />
    <glyph glyph-name="ring.sc" horiz-adv-x="343" 
d="M221 782q17 0 27.5 -9t10.5 -25q0 -21 -13 -33t-27 -12q-17 0 -27 9t-10 25q0 21 12.5 33t26.5 12zM229 852q-24 0 -46 -10.5t-38.5 -27.5t-26.5 -39t-10 -46q0 -41 29 -68.5t74 -27.5q24 0 46.5 10.5t39 27.5t26.5 39t10 46q0 41 -29.5 68.5t-74.5 27.5z" />
    <glyph glyph-name="hungarumlaut.sc" horiz-adv-x="343" 
d="M199 828q-26 0 -34.5 -2.5t-13.5 -9.5l-113 -157q-5 -8 0 -11t21 -3h34q18 0 26 2t14 9l136 157q6 8 1.5 11.5t-27.5 3.5h-44zM395 828q-26 0 -34.5 -2.5t-13.5 -9.5l-113 -157q-6 -8 -0.5 -11t21.5 -3h34q18 0 26 2t14 9l136 157q6 8 1.5 11.5t-27.5 3.5h-44z" />
    <glyph glyph-name="caron.sc" horiz-adv-x="343" 
d="M79 785q-16 -14 -19 -21.5t2 -13.5l75 -97q8 -10 20 -13t39 -3h14q27 0 39.5 3t23.5 13l103 97q8 8 6 15.5t-13 19.5l-11 12q-12 14 -19 17.5t-15 -2.5l-112 -89l-85 86q-6 6 -13.5 3t-24.5 -18z" />
    <glyph glyph-name="grave.cap" horiz-adv-x="343" 
d="M141 978q-23 0 -29.5 -4t-1.5 -12l105 -163q4 -6 11.5 -8.5t27.5 -2.5h30q17 0 23.5 3t2.5 12l-81 163q-3 7 -12 9.5t-36 2.5h-40z" />
    <glyph glyph-name="acute.cap" horiz-adv-x="343" 
d="M323 978q-27 0 -36 -2.5t-14 -9.5l-123 -163q-11 -15 22 -15h35q19 0 26.5 2t14.5 9l151 163q7 8 1.5 12t-28.5 4h-49z" />
    <glyph glyph-name="dieresis.cap" horiz-adv-x="343" 
d="M125 942q-35 0 -55 -24t-20 -53q0 -27 18.5 -45t48.5 -18q18 0 32 7t24 18t15 24.5t5 27.5q0 27 -18.5 45t-49.5 18zM339 942q-35 0 -55 -24t-20 -53q0 -27 18.5 -45t48.5 -18q18 0 32 7t24 18t15 24.5t5 27.5q0 27 -18.5 45t-49.5 18z" />
    <glyph glyph-name="circumflex.cap" horiz-adv-x="343" 
d="M79 855q-8 -8 -6 -15t13 -20l11 -12q13 -14 19.5 -17.5t14.5 2.5l113 90l85 -86q6 -6 13.5 -3.5t24.5 18.5l9 8q16 15 19 22t-2 13l-75 97q-8 10 -20 13t-39 3h-14q-27 0 -39.5 -3t-23.5 -13z" />
    <glyph glyph-name="tilde.cap" horiz-adv-x="343" 
d="M84 835q15 -15 22.5 -17.5t12.5 2.5q17 17 31.5 23t28.5 6q12 0 23 -6t23 -13t26.5 -13t33.5 -6q36 0 67.5 18.5t57.5 49.5q6 8 4.5 15.5t-15.5 21.5l-4 4q-15 15 -22.5 17.5t-12.5 -2.5q-16 -17 -31.5 -23t-30.5 -6q-12 0 -23 6t-23 13t-26.5 13t-33.5 6
q-35 0 -65.5 -18t-57.5 -50q-6 -8 -4.5 -15.5t15.5 -21.5z" />
    <glyph glyph-name="macron.cap" horiz-adv-x="343" 
d="M112 924q-8 0 -12 -9t-7 -32l-2 -14q-3 -23 -2 -32t9 -9h264q8 0 12 9t7 32l2 14q3 23 2 32t-9 9h-264z" />
    <glyph glyph-name="breve.cap" horiz-adv-x="343" 
d="M121 952q-18 0 -26.5 -3.5t-8.5 -19.5q-1 -60 35 -96t101 -36q67 0 111 37.5t57 103.5q2 8 -6 11t-34 3h-18q-22 0 -27 -2t-7 -10q-18 -57 -67 -57q-25 0 -38 15.5t-13 41.5q0 6 -4.5 9t-27.5 3h-27z" />
    <glyph glyph-name="dotaccent.cap" horiz-adv-x="343" 
d="M233 952q-18 0 -32 -7t-24 -18t-15.5 -25t-5.5 -29q0 -28 19 -47t50 -19q18 0 32.5 7.5t24.5 18.5t15.5 25t5.5 28q0 29 -19 47.5t-51 18.5z" />
    <glyph glyph-name="ring.cap" horiz-adv-x="343" 
d="M231 940q17 0 27.5 -9t10.5 -25q0 -21 -13 -33t-27 -12q-17 0 -27 9t-10 25q0 21 12.5 33t26.5 12zM239 1010q-24 0 -46 -10.5t-38.5 -27.5t-26.5 -39t-10 -46q0 -41 29 -68.5t74 -27.5q24 0 46.5 10.5t39 27.5t26.5 39t10 46q0 41 -29.5 68.5t-74.5 27.5z" />
    <glyph glyph-name="hungarumlaut.cap" horiz-adv-x="343" 
d="M229 978q-26 0 -34.5 -2.5t-13.5 -9.5l-113 -157q-5 -8 0 -11t21 -3h34q18 0 26 2t14 9l136 157q6 8 1.5 11.5t-27.5 3.5h-44zM425 978q-26 0 -34.5 -2.5t-13.5 -9.5l-113 -157q-6 -8 -0.5 -11t21.5 -3h34q18 0 26 2t14 9l136 157q6 8 1.5 11.5t-27.5 3.5h-44z" />
    <glyph glyph-name="caron.cap" horiz-adv-x="343" 
d="M99 938q-16 -14 -19 -21.5t2 -13.5l75 -97q8 -10 20 -13t39 -3h14q27 0 39.5 3t23.5 13l103 97q8 8 6 15.5t-13 19.5l-11 12q-12 14 -19 17.5t-15 -2.5l-112 -89l-85 86q-6 6 -13.5 3t-24.5 -18z" />
    <glyph glyph-name="periodcentered.cap" horiz-adv-x="244" 
d="M132 444q-20 0 -36.5 -7.5t-28 -20.5t-18 -29t-6.5 -33q0 -32 22 -53.5t57 -21.5q21 0 37.5 8t28.5 21t18 29.5t6 32.5q0 32 -22 53t-58 21z" />
    <glyph glyph-name="bullet.cap" horiz-adv-x="355" 
d="M188 508q-33 0 -60 -13t-46 -34t-29.5 -48t-10.5 -55q0 -26 9.5 -48.5t26.5 -39.5t41 -26.5t53 -9.5q35 0 62.5 13.5t46 35t28.5 48.5t10 54q0 26 -9 48.5t-26.5 39t-41.5 26t-54 9.5z" />
    <glyph glyph-name="parenleft.cap" horiz-adv-x="346" 
d="M340 821q-23 17 -31.5 18t-13.5 -4q-56 -49 -100.5 -114t-76 -139.5t-48.5 -153.5t-17 -155q0 -59 9 -112.5t24.5 -99t36 -82.5t43.5 -64q2 -2 4.5 -3.5t8 0t14 5.5t22.5 12l15 9q29 17 34.5 24t1.5 14q-29 56 -46.5 128t-17.5 159q0 137 44 268.5t132 242.5q4 5 2 12
t-27 25z" />
    <glyph glyph-name="parenright.cap" horiz-adv-x="346" 
d="M107 811q-29 -17 -34.5 -24t-1.5 -14q29 -56 46.5 -128t17.5 -159q0 -137 -44 -268.5t-132 -242.5q-2 -3 -3 -5.5t1 -6.5t8.5 -10t18.5 -15l13 -10q23 -17 31.5 -18t13.5 4q56 49 100.5 114t76 139.5t48.5 153.5t17 155q0 59 -9 112t-24.5 99t-36 83t-43.5 64
q-2 2 -4.5 3.5t-8 0t-14 -5.5t-22.5 -12z" />
    <glyph glyph-name="bracketleft.cap" horiz-adv-x="347" 
d="M158 838q-7 0 -8 -7l-123 -871q-1 -7 6 -7h231q4 0 6.5 1t4 5.5t3 13t3.5 24.5l1 9q3 30 2.5 37t-7.5 7h-112l97 691h113q4 0 6.5 1t4 5.5t3 13t3.5 24.5l1 9q3 30 2.5 37t-7.5 7h-230z" />
    <glyph glyph-name="bracketright.cap" horiz-adv-x="347" 
d="M101 838q-4 0 -6.5 -1t-4 -5.5t-3 -13t-3.5 -24.5l-1 -9q-3 -30 -2.5 -37t7.5 -7h112l-97 -691h-113q-4 0 -6.5 -1t-4 -5.5t-3 -13t-3.5 -24.5l-1 -9q-3 -30 -2.5 -37t7.5 -7h230q7 0 8 7l123 871q1 7 -6 7h-231z" />
    <glyph glyph-name="braceleft.cap" horiz-adv-x="333" 
d="M342 838q-93 0 -135.5 -44t-54.5 -128l-20 -144q-5 -39 -21.5 -53.5t-45.5 -19.5q-8 -2 -11.5 -9.5t-7.5 -33.5l-3 -20q-5 -29 -3 -36t10 -9q21 -5 34.5 -14t13.5 -35q0 -5 -0.5 -12t-1.5 -12l-20 -143q-2 -13 -3 -24t-1 -22q0 -62 32.5 -94t112.5 -32h35q8 0 10.5 7.5
t7.5 36.5l2 13q5 29 4 36t-9 7h-22q-25 0 -35.5 9.5t-10.5 32.5q0 5 0.5 10t1.5 10l20 141q3 19 3 36q0 74 -58 103q42 20 64 53t30 86l20 141q5 35 17.5 49t43.5 14h22q8 0 10.5 7.5t7.5 36.5l2 13q5 29 4 36t-9 7h-36z" />
    <glyph glyph-name="braceright.cap" horiz-adv-x="333" 
d="M100 838q-8 0 -10.5 -7.5t-7.5 -36.5l-2 -13q-5 -29 -4 -36t9 -7h22q25 0 35.5 -9.5t10.5 -32.5q0 -5 -0.5 -10t-1.5 -10l-20 -141q-3 -20 -3 -36q0 -74 58 -103q-42 -20 -64 -53t-30 -86l-20 -141q-5 -35 -17.5 -49t-43.5 -14h-22q-8 0 -10.5 -7.5t-7.5 -36.5l-2 -13
q-5 -29 -4 -36t9 -7h36q93 0 135.5 44t54.5 128l20 144q5 39 21.5 53.5t45.5 19.5q8 2 11.5 9.5t7.5 33.5l3 20q5 29 3 36t-10 9q-21 5 -34.5 14t-13.5 35q0 5 0.5 12t1.5 12l20 143q2 13 3 24t1 22q0 62 -32.5 94t-112.5 32h-35z" />
    <glyph glyph-name="questiondown.cap" horiz-adv-x="442" 
d="M366.978 107.993q-11.999 23.999 -17.999 28.998q-5.99902 5 -13.999 0q-25.998 -13.999 -54.9971 -22.498q-28.998 -8.5 -54.9961 -8.5q-32.998 0 -52.4971 15.999t-19.499 42.998q0 29.998 13 51.9961q12.999 21.999 33.498 41.498q20.498 19.499 44.4971 38.9971
q23.998 19.499 45.9971 42.998q21.998 23.498 37.998 54.4961q15.998 30.998 20.998 72.9961q1 7.99902 -7.49902 11.499q-8.5 3.5 -41.498 3.5h-18.999q-34.9971 0 -43.4971 -3q-8.49902 -3 -9.49902 -10.999q-4 -27.999 -21.499 -50.4971
q-17.499 -22.499 -41.4971 -43.4971q-23.999 -20.999 -51.4971 -42.998q-27.498 -21.998 -49.9971 -47.9971q-22.499 -25.998 -37.498 -59.4961t-14.999 -77.4951q0 -71.9961 49.4971 -114.993t133.492 -42.9971q50.9971 0 100.494 14.499q49.4961 14.499 87.4941 39.4971
q8 5 6 14.999q-2 10 -12.999 32.998zM306.981 563.966q19.999 0 36.498 7.49902q16.499 7.5 27.998 20.499t17.999 28.998q6.49902 15.999 6.49902 32.998q0 31.998 -21.998 53.4971q-21.999 21.498 -56.9971 21.498q-20.998 0 -37.4971 -7.99902
q-16.499 -8 -28.499 -20.999q-11.999 -12.999 -17.999 -29.498q-5.99902 -16.499 -5.99902 -32.498q0 -31.998 21.998 -52.9971q21.999 -20.998 57.9971 -20.998z" />
    <glyph glyph-name="exclamdown.cap" horiz-adv-x="300" 
d="M103.994 -1q42.9971 0 55.4961 4t13.499 12.999l45.9971 453.973q1 7.99902 -7.99902 9.99902q-9 2 -34.998 2h-20.999q-25.998 0 -35.4971 -2q-9.5 -2 -11.5 -9.99902l-78.9951 -453.973q-1 -4 1 -7.5q2 -3.49902 9 -5.49902q6.99902 -2 19.998 -3q13 -1 33.998 -1h11z
M182.989 563.966q19.998 0 36.4971 7.49902q16.499 7.5 27.999 20.499q11.499 12.999 17.998 28.998q6.5 15.999 6.5 32.998q0 31.998 -21.999 53.4971q-21.998 21.498 -56.9961 21.498q-20.999 0 -37.498 -7.99902q-16.499 -8 -28.498 -20.999t-17.999 -29.498
q-5.99902 -16.499 -5.99902 -32.498q0 -31.998 21.998 -52.9971q21.999 -20.998 57.9971 -20.998z" />
    <glyph glyph-name="guillemotleft.cap" horiz-adv-x="545" 
d="M218 581q9 11 17.5 11t28.5 -14l14 -10q23 -17 26.5 -24.5t-2.5 -15.5l-126 -169l79 -170q2 -5 2 -8.5t-3.5 -8t-12 -9.5t-22.5 -13l-16 -9q-25 -14 -33.5 -14t-13.5 10l-100 186q-5 10 -7 16.5t0 15.5l1 7q2 11 5 17.5t11 15.5zM434 581q9 11 17.5 11t28.5 -14l14 -10
q23 -17 26.5 -24.5t-2.5 -15.5l-126 -169l79 -170q2 -5 2 -8.5t-3.5 -8t-12 -9.5t-22.5 -13l-16 -9q-25 -14 -33.5 -14t-13.5 10l-100 186q-5 10 -7 16.5t0 15.5l1 7q2 11 5 17.5t11 15.5z" />
    <glyph glyph-name="guillemotright.cap" horiz-adv-x="545" 
d="M355 577q25 14 33.5 14t13.5 -10l100 -186q5 -10 7 -16.5t0 -15.5l-1 -7q-2 -11 -5 -17.5t-11 -15.5l-152 -186q-9 -11 -17.5 -11t-28.5 14l-14 10q-23 17 -26.5 24.5t2.5 15.5l126 169l-79 170q-2 5 -2 8.5t3.5 8t12 9.5t22.5 13zM139 577q25 14 33.5 14t13.5 -10
l100 -186q5 -10 7 -16.5t0 -15.5l-1 -7q-2 -11 -5 -17.5t-11 -15.5l-152 -186q-9 -11 -17.5 -11t-28.5 14l-14 10q-23 17 -26.5 24.5t2.5 15.5l126 169l-79 170q-2 5 -2 8.5t3.5 8t12 9.5t22.5 13z" />
    <glyph glyph-name="guilsinglleft.cap" horiz-adv-x="324" 
d="M219 581q9 11 17.5 11t28.5 -14l14 -10q23 -17 26.5 -24.5t-2.5 -15.5l-126 -169l79 -170q2 -5 2 -8.5t-3.5 -8t-12 -9.5t-22.5 -13l-16 -9q-25 -14 -33.5 -14t-13.5 10l-100 186q-5 10 -7 16.5t0 15.5l1 7q2 11 5 17.5t11 15.5z" />
    <glyph glyph-name="guilsinglright.cap" horiz-adv-x="324" 
d="M124 578q25 14 33.5 14t13.5 -10l100 -186q5 -10 7 -16.5t0 -15.5l-1 -7q-2 -11 -5 -17.5t-11 -15.5l-152 -186q-9 -11 -17.5 -11t-28.5 14l-14 10q-23 17 -26.5 24.5t2.5 15.5l126 169l-79 170q-2 5 -2 8.5t3.5 8t12 9.5t22.5 13z" />
    <glyph glyph-name="hyphen.cap" horiz-adv-x="387" 
d="M54 411q-8 0 -12 -8.5t-9 -41.5l-2 -14q-5 -33 -3 -41.5t10 -8.5h288q8 0 12 8.5t9 41.5l2 14q5 33 3 41.5t-10 8.5h-288z" />
    <glyph glyph-name="uni00AD.cap" horiz-adv-x="387" 
d="M54 411q-8 0 -12 -8.5t-9 -41.5l-2 -14q-5 -33 -3 -41.5t10 -8.5h288q8 0 12 8.5t9 41.5l2 14q5 33 3 41.5t-10 8.5h-288z" />
    <glyph glyph-name="endash.cap" horiz-adv-x="490" 
d="M21 411q-8 0 -12 -8.5t-9 -41.5l-1 -6q-5 -33 -3 -41.5t10 -8.5h462q8 0 12 8.5t9 41.5l1 6q5 33 3 41.5t-10 8.5h-462z" />
    <glyph glyph-name="emdash.cap" horiz-adv-x="980" 
d="M22 411q-8 0 -12 -8.5t-9 -41.5l-1 -6q-5 -33 -3 -41.5t10 -8.5h952q8 0 12 8.5t9 41.5l1 6q5 33 3 41.5t-10 8.5h-952z" />
    <glyph glyph-name="afii00208.cap" horiz-adv-x="980" 
d="M22 411q-8 0 -12 -8.5t-9 -41.5l-1 -6q-5 -33 -3 -41.5t10 -8.5h952q8 0 12 8.5t9 41.5l1 6q5 33 3 41.5t-10 8.5h-952z" />
    <glyph glyph-name="A.sc" horiz-adv-x="584" 
d="M328 582q-38 0 -49 -3t-16 -14l-278 -543q-3 -6 -3 -10t5.5 -7t17.5 -4t32 -1h8q20 0 32.5 1t20 3.5t11.5 5.5t6 8l62 127h187l26 -127q2 -9 14.5 -13.5t53.5 -4.5h7q42 0 53 6t8 17l-128 542q-2 10 -13 13.5t-49 3.5h-8zM237 268q15 34 36.5 82t40.5 99q2 -25 5.5 -51.5
t7.5 -50.5t7 -44.5t5 -33.5l4 -25h-117z" />
    <glyph glyph-name="B.sc" horiz-adv-x="543" 
d="M204 249h35q51 0 76.5 -14.5t25.5 -48.5q0 -38 -27 -60.5t-90 -22.5h-42zM236 478h24q45 0 65.5 -9.5t20.5 -40.5q0 -38 -24.5 -59t-76.5 -21h-28zM487 451q0 71 -54 101t-169 30h-105q-29 0 -37.5 -3.5t-10.5 -15.5l-77 -545q-2 -12 6 -15t38 -3h122q78 0 131.5 15.5
t86.5 41.5t47.5 59t14.5 69q0 53 -26.5 81t-68.5 44q45 22 73.5 56t28.5 85z" />
    <glyph glyph-name="C.sc" horiz-adv-x="526" 
d="M498 491q17 25 19 32.5t-7 15.5q-30 24 -71 38.5t-92 14.5q-85 0 -145 -33.5t-98 -85.5t-55.5 -114.5t-17.5 -120.5q0 -52 15.5 -97.5t46 -79t74.5 -52.5t101 -19q44 0 88 13t81 35q11 7 12 15.5t-7 30.5l-7 19q-8 24 -13 29.5t-16 -0.5q-29 -16 -54.5 -24t-51.5 -8
q-62 0 -95 37.5t-33 111.5q0 36 9 77t28 75.5t49 57.5t73 23q39 0 63.5 -9.5t49.5 -26.5q8 -6 15.5 -0.5t24.5 27.5z" />
    <glyph glyph-name="D.sc" horiz-adv-x="596" 
d="M235 477h34q43 0 72.5 -9t46.5 -27t24.5 -45t7.5 -62q0 -39 -8 -80t-30.5 -74t-62 -54t-103.5 -21h-35zM158 582q-30 0 -38 -3.5t-10 -15.5l-77 -545q-2 -12 5.5 -15t37.5 -3h122q78 0 139 14.5t105 49.5q33 27 55.5 59.5t36.5 68.5t20 74.5t6 76.5q0 119 -73.5 179
t-212.5 60h-116z" />
    <glyph glyph-name="E.sc" horiz-adv-x="506" 
d="M158 582q-29 0 -37 -3.5t-10 -15.5l-77 -545q-2 -12 5.5 -15t37.5 -3h318q11 0 15 8.5t9 41.5l1 6q3 18 3.5 27.5t-1 14.5t-4.5 6t-9 1h-227l20 136h189q5 0 8.5 1.5t6.5 6.5t5 15t4 27l1 7q3 17 3.5 27t-1 14.5t-4.5 5.5t-9 1h-189l19 131h224q5 0 8.5 1.5t6.5 6.5t5 15
t4 27l1 7q3 17 3.5 27t-1 14.5t-4.5 5.5t-9 1h-315z" />
    <glyph glyph-name="F.sc" horiz-adv-x="481" 
d="M236 477h225q11 0 14.5 8.5t8.5 41.5l1 7q2 17 3 26.5t-0.5 14.5t-4.5 6t-9 1h-315q-29 0 -37 -3.5t-10 -15.5l-77 -546q-2 -11 9 -14t51 -3h9q38 0 51.5 3.5t15.5 13.5l32 224h188q11 0 15.5 8.5t9.5 41.5l1 6q4 35 1.5 42t-13.5 7h-188z" />
    <glyph glyph-name="G.sc" horiz-adv-x="581" 
d="M466 443q11 -7 19.5 -1.5t25.5 27.5l14 18q19 24 20 32t-8 16q-34 27 -79 42t-105 15q-84 0 -145 -30.5t-100.5 -80.5t-58 -113t-18.5 -128q0 -57 14.5 -103t44.5 -78.5t75.5 -50.5t106.5 -18q32 0 69 5t68.5 13.5t53 20t22.5 24.5l38 260q2 12 -4 15.5t-29 3.5h-187
q-11 0 -15.5 -8.5t-9.5 -41.5l-1 -7q-2 -18 -2.5 -27.5t1 -14t4.5 -5t9 -0.5h87l-18 -120q-15 -5 -30 -7t-33 -2q-64 0 -94 37t-30 115q0 50 12 92.5t33.5 73t52 48t68.5 17.5q45 0 74 -11t55 -28z" />
    <glyph glyph-name="H.sc" horiz-adv-x="611" 
d="M175 582q-20 0 -32.5 -1t-19 -3t-9 -5.5t-3.5 -9.5l-77 -545q-1 -5 1 -8.5t8 -5.5t18.5 -3t32.5 -1h9q40 0 52.5 3.5t14.5 14.5l31 223h195l-32 -223q-2 -11 9.5 -14.5t50.5 -3.5h10q38 0 51 3.5t15 14.5l78 544q2 12 -11.5 16t-51.5 4h-9q-40 0 -51.5 -4t-13.5 -15
l-31 -217h-194l31 217q2 11 -11.5 15t-51.5 4h-9z" />
    <glyph glyph-name="I.sc" horiz-adv-x="379" 
d="M148 490l-57 -398h-49q-9 0 -12.5 -7.5t-8.5 -36.5l-1 -6q-2 -15 -2.5 -23.5t0.5 -12.5t4 -5t8 -1h234q9 0 12.5 7.5t8.5 36.5l1 6q2 15 2.5 23.5t-0.5 12.5t-4 5t-8 1h-49l57 398h49q9 0 12.5 7.5t8.5 36.5l1 6q2 15 2.5 23.5t-0.5 12.5t-4 5t-8 1h-234q-9 0 -12.5 -7.5
t-8.5 -36.5l-1 -6q-2 -15 -2.5 -23.5t0.5 -12.5t4 -5t8 -1h49z" />
    <glyph glyph-name="J.sc" horiz-adv-x="430" 
d="M329 582q-20 0 -32.5 -1t-19.5 -3.5t-9.5 -6t-3.5 -8.5l-47 -327q-5 -33 -10.5 -59t-15 -43t-25 -26t-40.5 -9q-17 0 -35.5 4t-35.5 10q-7 2 -11 2t-7.5 -4t-7.5 -12.5t-10 -22.5l-7 -16q-11 -24 -10.5 -32.5t9.5 -13.5q22 -11 53.5 -17.5t62.5 -6.5q92 0 148.5 48
t72.5 159l52 365q2 11 -11 15.5t-51 4.5h-9z" />
    <glyph glyph-name="K.sc" horiz-adv-x="554" 
d="M197 224l33 24l109 -234q2 -5 5 -7.5t9.5 -4t19 -2t34.5 -0.5h24q38 0 47.5 5.5t3.5 18.5l-147 309q95 81 145 139t70 90q7 12 -2.5 16t-50.5 4h-14q-18 0 -29 -0.5t-17.5 -2t-10 -4t-6.5 -6.5q-34 -41 -79 -89t-108 -99l-14 -11l28 193q2 11 -10.5 15t-51.5 4h-11
q-41 0 -51.5 -4t-11.5 -15l-78 -545q-1 -5 0.5 -8.5t7.5 -5.5t18 -3t32 -1h10q40 0 53.5 4t15.5 14z" />
    <glyph glyph-name="L.sc" horiz-adv-x="465" 
d="M378 0q11 0 15 8.5t9 41.5l1 6q3 18 3.5 27.5t-1 14.5t-4.5 6t-9 1h-210l65 458q2 11 -10.5 15t-50.5 4h-10q-41 0 -52.5 -4.5t-12.5 -14.5l-77 -545q-2 -12 5.5 -15t36.5 -3h302z" />
    <glyph glyph-name="M.sc" horiz-adv-x="735" 
d="M197 582q-21 0 -33.5 -0.5t-19 -3t-9 -6t-3.5 -9.5l-101 -545q-1 -6 -0.5 -9.5t6 -5.5t17.5 -2.5t34 -0.5h7q19 0 31 0.5t18.5 2.5t9 6t3.5 10l32 179q8 47 12 99.5t7 109.5q12 -67 23.5 -113.5t22.5 -83.5l31 -101q3 -11 11.5 -15t41.5 -4h10q17 0 26.5 1t15 3t8 5.5
t5.5 8.5l59 103q10 18 22.5 41.5t25.5 49t26 53t24 53.5q-13 -63 -23.5 -113.5t-15.5 -97.5l-23 -179q-2 -11 7.5 -14.5t50.5 -3.5h8q22 0 34.5 1t18.5 3.5t8 6.5t2 10l55 541q1 6 -1 10t-8.5 6.5t-19 3t-32.5 0.5h-8q-21 0 -33.5 -1t-19 -3t-9.5 -5.5t-6 -8.5l-105 -182
q-18 -32 -37.5 -66.5t-39.5 -73.5q-8 40 -16 71t-19 69l-56 181q-2 6 -5 9.5t-10 5.5t-18.5 3t-30.5 1h-11z" />
    <glyph glyph-name="N.sc" horiz-adv-x="625" 
d="M167 582q-20 0 -30.5 -0.5t-16 -3t-6.5 -6t-2 -9.5l-77 -545q-1 -6 1 -9.5t8 -5.5t18 -2.5t32 -0.5h6q37 0 49.5 3.5t14.5 14.5l27 195q5 35 9 75.5t6 88.5q14 -34 28.5 -63t37.5 -71l120 -226q5 -10 15.5 -13.5t42.5 -3.5h7q19 0 30 1t17 3t7.5 5.5t2.5 8.5l77 544
q2 11 -9.5 15.5t-49.5 4.5h-5q-20 0 -32 -1t-19 -3.5t-9.5 -6t-3.5 -8.5l-28 -193q-6 -41 -10 -79t-6 -81q-15 36 -30 67t-32 63l-123 225q-2 4 -5 7t-9.5 5.5t-17.5 3.5t-29 1h-6z" />
    <glyph glyph-name="O.sc" horiz-adv-x="617" 
d="M283 99q41 0 71 22t49 56t28 75.5t9 80.5q0 69 -27 109.5t-82 40.5q-40 0 -70 -21t-49.5 -54.5t-29 -75.5t-9.5 -83q0 -71 27.5 -110.5t82.5 -39.5zM272 -10q-53 0 -97 15.5t-75.5 47t-49.5 78.5t-18 109q0 64 19.5 127t58.5 113t96.5 81t132.5 31q54 0 98.5 -17
t76.5 -49.5t49.5 -80t17.5 -108.5q0 -62 -19.5 -124t-58.5 -111.5t-97 -80.5t-134 -31z" />
    <glyph glyph-name="P.sc" horiz-adv-x="519" 
d="M159 582q-29 0 -37.5 -3.5t-10.5 -15.5l-77 -545q-2 -11 9 -14.5t51 -3.5h9q38 0 51.5 3.5t15.5 14.5l26 183q9 -1 20 -1h21q72 0 121 18.5t79.5 49.5t44 71t13.5 82q0 86 -63 123.5t-175 37.5h-98zM235 477h25q51 0 73 -19t22 -52q0 -49 -27.5 -75t-83.5 -26h-17t-17 1z
" />
    <glyph glyph-name="Q.sc" horiz-adv-x="617" 
d="M272 -11q-53 0 -97 16t-75.5 47.5t-49.5 78.5t-18 109q0 64 19.5 127t58.5 113t96.5 81t132.5 31q54 0 98.5 -17t76.5 -49.5t49.5 -80t17.5 -108.5q0 -41 -8.5 -82.5t-25.5 -80t-42.5 -71.5t-58.5 -58q25 -36 50 -61q7 -7 2.5 -13t-30.5 -26l-15 -11q-24 -17 -34.5 -19.5
t-18.5 5.5q-31 32 -60 77q-17 -4 -33.5 -6t-34.5 -2zM355 210q4 -14 11 -30.5t16 -33.5q15 18 26 40t18 46.5t10.5 50.5t3.5 50q0 69 -27 109.5t-82 40.5q-40 0 -70 -21t-49.5 -54.5t-29 -75.5t-9.5 -83q0 -70 26.5 -110t80.5 -41q-11 21 -17.5 39.5t-8.5 30.5t2 18t29 15
l17 6q29 11 39.5 12.5t13.5 -9.5z" />
    <glyph glyph-name="R.sc" horiz-adv-x="548" 
d="M158 582q-29 0 -37 -3.5t-10 -15.5l-77 -545q-1 -5 1 -8.5t8.5 -5.5t19 -3t32.5 -1h9q38 0 51 3.5t15 14.5l29 200h41l20 -45q28 -63 46.5 -102.5t32.5 -56.5q8 -10 20 -12t36 -2h42q33 0 40.5 7t0.5 19q-25 43 -49.5 88.5t-50.5 101.5l-13 28q40 17 65.5 38t40.5 44
t20.5 47t5.5 48q0 86 -59.5 123.5t-168.5 37.5h-111zM236 477h32q45 0 67 -19t22 -48q0 -17 -5.5 -33t-18.5 -28.5t-34.5 -20t-52.5 -7.5h-33z" />
    <glyph glyph-name="S.sc" horiz-adv-x="495" 
d="M450 494q15 26 17.5 34t-6.5 16q-26 22 -70 34t-90 12q-47 0 -86.5 -13t-68.5 -37t-45.5 -57t-16.5 -73q0 -31 10 -54t27 -41.5t41 -34.5t52 -33q35 -21 57.5 -37.5t22.5 -46.5q0 -31 -23 -46.5t-61 -15.5q-42 0 -73 15.5t-54 31.5q-5 3 -8 3.5t-7.5 -3t-11 -12
t-17.5 -23.5l-10 -14q-9 -13 -13.5 -21t-5.5 -13t1 -8.5t6 -6.5q12 -11 31.5 -21.5t44 -18.5t53.5 -13t60 -5q50 0 91.5 13.5t71 38.5t46 60.5t16.5 78.5q0 31 -8 53.5t-24.5 41.5t-41 35.5t-56.5 34.5q-24 14 -39.5 24t-24.5 18.5t-12 17t-3 19.5q0 28 21.5 42.5t57.5 14.5
q31 0 53 -9.5t48 -26.5q7 -5 14.5 -1.5t23.5 30.5z" />
    <glyph glyph-name="T.sc" horiz-adv-x="482" 
d="M200 477l-65 -459q-2 -11 9 -14.5t51 -3.5h9q38 0 51.5 3.5t15.5 14.5l65 459h133q11 0 15 8.5t9 41.5l1 6q3 18 3.5 27.5t-1 14.5t-4.5 6t-9 1h-400q-11 0 -15 -8.5t-9 -41.5l-1 -6q-3 -18 -3.5 -27.5t1 -14.5t4.5 -6t9 -1h131z" />
    <glyph glyph-name="U.sc" horiz-adv-x="613" 
d="M174 582q-20 0 -32.5 -1t-19.5 -3.5t-9.5 -6t-3.5 -8.5q-12 -85 -24.5 -169.5t-23.5 -169.5q-16 -118 35.5 -176t168.5 -58q67 0 114.5 14t80 43.5t50.5 74t27 104.5l48 336q2 11 -11 15.5t-51 4.5h-7q-20 0 -32.5 -1t-19.5 -3.5t-9.5 -6t-3.5 -8.5l-48 -342
q-5 -35 -15 -58.5t-25 -37.5t-36 -20t-47 -6q-34 0 -52.5 11t-26 32t-6.5 51.5t7 69.5l43 300q2 11 -10.5 15t-51.5 4h-9z" />
    <glyph glyph-name="V.sc" horiz-adv-x="578" 
d="M131 582q-21 0 -33.5 -1t-19 -4t-7.5 -7t0 -10l107 -541q1 -5 4 -8.5t11 -6t22.5 -3.5t37.5 -1h6q42 0 57 5t20 16l250 540q5 11 -5.5 16t-50.5 5h-10q-21 0 -33 -1t-18.5 -3t-9.5 -5.5t-5 -9.5l-112 -252q-14 -33 -33 -77t-35 -89q-6 51 -10.5 92t-9.5 74l-42 252
q-1 5 -3.5 8.5t-9.5 6t-20 3.5t-35 1h-13z" />
    <glyph glyph-name="W.sc" horiz-adv-x="850" 
d="M141 582q-44 0 -55.5 -5.5t-9.5 -16.5l83 -543q1 -5 3 -8.5t9 -5.5t19.5 -2.5t33.5 -0.5h15q21 0 34 1t20.5 3.5t11 5.5t5.5 8l65 166q18 45 39 101.5t35 112.5q1 -60 5.5 -114.5t8.5 -98.5l16 -168q1 -10 14.5 -13.5t55.5 -3.5h10q41 0 54.5 4.5t17.5 13.5l229 543
q4 9 -6 15t-53 6h-6q-21 0 -33.5 -1t-19.5 -3t-10 -5.5t-5 -9.5l-87 -240q-15 -42 -33 -88t-31 -94q-1 57 -3 103t-6 79l-25 240q0 5 -2.5 8.5t-9 6t-19 3.5t-32.5 1h-8q-21 0 -33 -1t-19 -3.5t-10 -6t-5 -8.5l-88 -238q-17 -43 -33 -86.5t-30 -97.5q-1 55 -4.5 100.5
t-7.5 83.5l-24 238q-1 11 -13 15t-52 4h-11z" />
    <glyph glyph-name="X.sc" horiz-adv-x="545" 
d="M130 582q-38 0 -47.5 -5t-4.5 -16l84 -177q11 -23 21.5 -43.5t22.5 -42.5q-17 -21 -34.5 -41.5t-34.5 -42.5l-151 -191q-8 -10 -0.5 -16.5t42.5 -6.5h30q37 0 49.5 3t17.5 11l72 102q14 20 29 41t28 40q8 -17 16.5 -37t19.5 -43l48 -103q4 -8 17 -11t49 -3h27
q39 0 48.5 5t4.5 16l-82 173q-10 21 -18 36.5t-14 27.5t-11.5 21.5t-11.5 19.5q17 21 38 45.5t40 48.5l129 166q8 11 1.5 17t-42.5 6h-36q-19 0 -30 -1t-17.5 -2.5t-9 -4t-5.5 -6.5l-63 -89q-23 -31 -52 -79q-8 20 -17.5 42t-19.5 42l-39 83q-5 8 -16 11.5t-45 3.5h-33z" />
    <glyph glyph-name="Y.sc" horiz-adv-x="527" 
d="M122 582q-44 0 -54.5 -6.5t-5.5 -16.5l126 -332l-30 -209q-1 -5 1 -8.5t8.5 -5.5t19 -3t32.5 -1h9q38 0 51.5 3.5t15.5 14.5l30 210l221 332q8 11 -2 16.5t-49 5.5h-19q-38 0 -48.5 -4.5t-15.5 -12.5l-76 -125q-16 -25 -28.5 -48.5t-26.5 -46.5q-8 26 -15 49t-15 45
l-44 125q-2 6 -5.5 9.5t-11 5.5t-19.5 2.5t-31 0.5h-18z" />
    <glyph glyph-name="Z.sc" horiz-adv-x="515" 
d="M181 105l288 360q14 17 19 30.5t7 27.5l6 42q2 12 -6 14.5t-37 2.5h-336q-11 0 -15.5 -8t-8.5 -42l-1 -7q-3 -17 -3.5 -27t1 -14.5t4.5 -5.5t9 -1h222l-289 -360q-14 -17 -19.5 -30.5t-7.5 -27.5l-6 -41q-2 -12 5.5 -15t36.5 -3h366q5 0 8.5 1.5t6.5 6.5t5 15t4 27l1 7
q3 17 3.5 27t-1 14.5t-4.5 5.5t-9 1h-249z" />
    <glyph glyph-name="ampersand.sc" horiz-adv-x="613" 
d="M261 418q0 32 22 52t58 20q23 0 40 -5t33 -14q11 -6 16.5 -1t20.5 31l7 12q13 22 13 31t-5 12q-25 17 -60 26.5t-73 9.5q-45 0 -82.5 -14.5t-64.5 -39t-42 -57.5t-15 -70q0 -23 5.5 -44t15.5 -42q-57 -29 -92 -75t-35 -103q0 -39 15 -68.5t41 -49t60 -29.5t73 -10
q55 0 101.5 15.5t84.5 42.5q33 -30 60 -51q8 -7 18.5 -3t34.5 31l9 10q21 23 26.5 35.5t-2.5 19.5q-13 9 -27.5 21.5t-31.5 26.5q28 40 46.5 86.5t28.5 96.5q2 12 -7.5 15.5t-41.5 3.5h-8q-35 0 -43.5 -4.5t-10.5 -15.5q-5 -26 -15.5 -54.5t-25.5 -55.5q-35 34 -62.5 62
t-46 53t-28.5 47.5t-10 45.5zM324 119q-19 -11 -39.5 -17.5t-43.5 -6.5q-38 0 -60 20t-22 51q0 28 11.5 47.5t31.5 34.5q29 -35 59.5 -67t62.5 -62z" />
    <glyph glyph-name="at.sc" horiz-adv-x="737" 
d="M534 70q-2 17 -5 21.5t-10 2.5q-37 -10 -81.5 -16t-89.5 -6q-97 0 -151.5 39t-54.5 115q0 58 22 108.5t60 87.5t88.5 58t108.5 21q88 0 138 -33.5t50 -103.5q0 -25 -6.5 -53t-18.5 -51.5t-29.5 -39t-39.5 -15.5q-23 0 -23 23q0 7 3.5 20t12.5 35l13 32q11 26 20 51.5
t17 49.5q3 8 -5 12.5t-35 4.5h-16q-26 0 -32.5 -3t-10.5 -10l-6 -11q-9 16 -27 23t-41 7q-42 0 -76.5 -20t-59.5 -51t-38.5 -69t-13.5 -73q0 -43 25.5 -71t73.5 -28q29 0 54 10.5t45 34.5q8 -20 32 -32.5t65 -12.5q52 0 93 23t69 59t42.5 80.5t14.5 88.5q0 45 -18.5 83.5
t-53.5 67t-86 45t-117 16.5q-83 0 -156 -30t-127 -81t-85.5 -119.5t-31.5 -145.5q0 -50 18.5 -88.5t50.5 -66.5q79 -67 221 -67q52 0 106 8t96 25q8 3 9 9.5t-1 20.5zM402 281q-12 -34 -27 -53t-40 -19q-14 0 -21.5 9t-7.5 23q0 18 6.5 39t18.5 38.5t28 29.5t34 12
q21 0 34 -8z" />
    <glyph glyph-name="exclam.sc" horiz-adv-x="280" 
d="M102 -10q17 0 32.5 6.5t27 17.5t18 25.5t6.5 30.5q0 27 -19.5 45t-49.5 18q-17 0 -32.5 -7t-26.5 -18t-17.5 -26t-6.5 -30q0 -26 19.5 -44t48.5 -18zM136 191q27 0 36.5 3t11.5 13l63 356q1 5 -1 8.5t-8.5 6t-18.5 3.5t-33 1h-12q-21 0 -33.5 -1t-19 -3.5t-9 -6
t-2.5 -9.5l-36 -355q-1 -8 8.5 -12t35.5 -4h18z" />
    <glyph glyph-name="exclamdown.sc" horiz-adv-x="280" 
d="M181.989 591.964q-16.999 0 -32.498 -6.5q-15.499 -6.49902 -26.999 -17.499q-11.499 -10.999 -17.999 -25.498q-6.49902 -14.499 -6.49902 -30.498q0 -26.998 19.499 -44.9971q19.498 -17.999 49.4971 -17.999q16.998 0 32.498 7q15.499 6.99902 26.498 17.998
q10.999 11 17.499 25.999q6.49902 14.999 6.49902 29.998q0 25.998 -19.498 43.9971q-19.499 17.999 -48.4971 17.999zM147.991 390.977q-26.999 0 -36.498 -3t-11.499 -12.999l-62.9961 -355.979q-1 -5 1 -8.5q2 -3.49902 8.49902 -5.99902q6.5 -2.5 18.499 -3.5t32.998 -1
h11.999q20.999 0 33.498 1t18.999 3.5q6.49902 2.5 8.99902 5.99902q2.5 3.5 2.5 9.5l35.998 354.979q1 7.99902 -8.5 11.999q-9.49902 4 -35.4971 4h-17.999z" />
    <glyph glyph-name="question.sc" horiz-adv-x="411" 
d="M168 188q16 0 26 1t15.5 2.5t7.5 4.5t3 8q4 27 22.5 49t46.5 43q23 17 43.5 35.5t35.5 39t24 43t9 48.5q0 59 -43.5 94.5t-118.5 35.5q-44 0 -86.5 -13t-70.5 -32q-9 -6 -8.5 -15t8.5 -28l6 -15q11 -26 18 -31.5t18 1.5q20 11 43.5 19.5t45.5 8.5q53 0 53 -47
q0 -26 -20 -50t-43 -41q-16 -12 -32 -25.5t-29.5 -30.5t-24 -37.5t-14.5 -45.5l-1 -6q-2 -11 8 -13.5t41 -2.5h17zM134 -10q35 0 59 24t24 57q0 27 -19 44.5t-49 17.5q-35 0 -59.5 -24t-24.5 -57q0 -26 20 -44t49 -18z" />
    <glyph glyph-name="questiondown.sc" horiz-adv-x="411" 
d="M244.985 393.976q-15.999 0 -25.999 -1q-9.99902 -0.999023 -15.499 -2.49902q-5.49902 -1.5 -7.49902 -4.5t-3 -8q-4 -26.998 -22.499 -48.9971q-18.499 -21.998 -46.4971 -42.9971q-22.998 -16.999 -43.4971 -35.498q-20.499 -18.498 -35.498 -38.9971t-23.998 -42.998
q-9 -22.498 -9 -48.4971q0 -58.9961 43.498 -94.4941q43.4971 -35.4971 118.492 -35.4971q43.9971 0 86.4951 12.999q42.4971 12.999 70.4951 31.998q9 5.99902 8.5 14.999q-0.5 8.99902 -8.5 27.998l-5.99902 14.999q-11 25.999 -17.999 31.498q-7 5.5 -17.999 -1.5
q-19.999 -10.999 -43.4971 -19.498q-23.499 -8.5 -45.4971 -8.5q-52.9971 0 -52.9971 46.9971q0 25.999 19.999 49.9971q19.998 23.998 42.9971 40.9971q15.999 12 31.998 25.499t29.498 30.498t23.999 37.498q10.499 20.498 14.499 45.4971l1 5.99902q1.99902 11 -8 13.5
q-9.99902 2.49902 -40.9971 2.49902h-16.999zM278.983 591.964q-34.998 0 -58.9971 -23.999q-23.998 -23.998 -23.998 -56.9961q0 -26.998 18.999 -44.4971q18.998 -17.499 48.9971 -17.499q34.9971 0 59.4961 23.998q24.498 23.999 24.498 56.9971
q0 25.998 -19.998 43.9971q-19.999 17.999 -48.9971 17.999z" />
    <glyph glyph-name="slash.sc" horiz-adv-x="341" 
d="M49 0q18 0 29 1t18 3t11 5.5t6 8.5l250 543q2 5 2 9t-5.5 6.5t-17 4t-32.5 1.5h-12q-35 0 -46.5 -3.5t-16.5 -14.5l-249 -543q-5 -11 2.5 -16t48.5 -5h12z" />
    <glyph glyph-name="backslash.sc" horiz-adv-x="340" 
d="M226 0q21 0 33 1t18 3.5t7 6.5t0 10l-96 543q-1 5 -3.5 8.5t-8.5 5.5t-17.5 3t-30.5 1h-10q-21 0 -33 -1t-17.5 -4t-6.5 -7t0 -10l96 -542q2 -11 13 -14.5t46 -3.5h10z" />
    <glyph glyph-name="parenleft.sc" horiz-adv-x="340" 
d="M232 -78q28 17 32.5 24.5t1.5 14.5q-30 58 -47 114.5t-17 127.5q0 55 11 111t31.5 109t50 102t65.5 91q6 8 3.5 16.5t-28.5 26.5l-10 7q-13 9 -21 13t-13.5 5.5t-9.5 -0.5t-8 -5q-51 -47 -90.5 -103.5t-67.5 -117t-42.5 -124t-14.5 -123.5q0 -94 30 -173t75 -137
q3 -4 6.5 -6t9.5 -1.5t15 5t23 13.5z" />
    <glyph glyph-name="parenright.sc" horiz-adv-x="340" 
d="M116 655q-28 -17 -32.5 -24.5t-1.5 -14.5q15 -29 27 -57t20 -57.5t12.5 -60.5t4.5 -67q0 -113 -42.5 -220.5t-115.5 -192.5q-6 -8 -3.5 -16.5t28.5 -26.5l10 -7q25 -17 34.5 -18.5t17.5 5.5q51 47 90.5 103.5t67.5 117t42.5 124t14.5 123.5q0 94 -30 173t-75 137
q-3 4 -6.5 6t-9.5 1t-15 -5t-23 -13z" />
    <glyph glyph-name="bracketleft.sc" horiz-adv-x="340" 
d="M222 -108q8 0 13 6t8 33l1 9q3 27 0.5 33.5t-10.5 6.5h-88l90 620h88q8 0 13 6t8 33l1 9q3 27 0.5 33.5t-10.5 6.5h-195q-15 0 -16 -11l-111 -774q-2 -11 13 -11h195z" />
    <glyph glyph-name="bracketright.sc" horiz-adv-x="340" 
d="M109 688q-8 0 -13 -6t-8 -33l-1 -9q-3 -27 -0.5 -33.5t10.5 -6.5h88l-90 -620h-88q-8 0 -13 -6t-8 -33l-1 -9q-3 -27 -0.5 -33.5t10.5 -6.5h195q15 0 16 11l111 774q2 11 -13 11h-195z" />
    <glyph glyph-name="braceleft.sc" horiz-adv-x="340" 
d="M307 688q-42 0 -71.5 -9t-49 -27t-30.5 -44t-16 -60l-22 -151q-4 -29 -16.5 -38t-32.5 -13q-11 -2 -15 -8.5t-7 -30.5l-2 -18q-3 -23 -1.5 -31t12.5 -10q15 -3 25 -10t10 -27q0 -8 -1 -13l-19 -164q-3 -20 -3 -38q0 -51 29 -77.5t101 -26.5h34q9 0 14 6t8 33l1 9
q3 27 0.5 33.5t-10.5 6.5h-23q-32 0 -32 29q0 4 0.5 8t1.5 9l19 163q1 8 1.5 15t0.5 14q0 52 -45 80q34 17 51.5 43.5t22.5 65.5l21 148q3 22 12 33.5t31 11.5h20q9 0 14 6t8 33l1 9q3 27 0.5 33.5t-10.5 6.5h-32z" />
    <glyph glyph-name="braceright.sc" horiz-adv-x="340" 
d="M26 -108q42 0 71.5 9t49 27t30.5 44t16 60l22 151q4 29 16.5 38t32.5 13q11 2 15 8.5t7 30.5l2 18q3 23 1.5 31t-12.5 10q-15 3 -25 10t-10 27q0 8 1 13l19 164q3 19 3 38q0 51 -29 77.5t-101 26.5h-34q-9 0 -14 -6t-8 -33l-1 -9q-3 -27 -0.5 -33.5t10.5 -6.5h23
q32 0 32 -29q0 -4 -0.5 -8t-1.5 -9l-19 -163q-1 -8 -1.5 -15t-0.5 -14q0 -52 45 -80q-34 -17 -51.5 -43.5t-22.5 -65.5l-21 -148q-3 -22 -12 -33.5t-31 -11.5h-20q-9 0 -14 -6t-8 -33l-1 -9q-3 -27 -0.5 -33.5t10.5 -6.5h32z" />
    <glyph glyph-name="FI.sc" horiz-adv-x="860" 
d="M236 477h225q11 0 14.5 8.5t8.5 41.5l1 7q2 17 3 26.5t-0.5 14.5t-4.5 6t-9 1h-315q-29 0 -37 -3.5t-10 -15.5l-77 -546q-2 -11 9 -14t51 -3h9q38 0 51.5 3.5t15.5 13.5l32 224h188q11 0 15.5 8.5t9.5 41.5l1 6q4 35 1.5 42t-13.5 7h-188zM629 490l-57 -398h-49
q-9 0 -12.5 -7.5t-8.5 -36.5l-1 -6q-2 -15 -2.5 -23.5t0.5 -12.5t4 -5t8 -1h234q9 0 12.5 7.5t8.5 36.5l1 6q2 15 2.5 23.5t-0.5 12.5t-4 5t-8 1h-49l57 398h49q9 0 12.5 7.5t8.5 36.5l1 6q2 15 2.5 23.5t-0.5 12.5t-4 5t-8 1h-234q-9 0 -12.5 -7.5t-8.5 -36.5l-1 -6
q-2 -15 -2.5 -23.5t0.5 -12.5t4 -5t8 -1h49z" />
    <glyph glyph-name="FL.sc" horiz-adv-x="946" 
d="M236 477h225q11 0 14.5 8.5t8.5 41.5l1 7q2 17 3 26.5t-0.5 14.5t-4.5 6t-9 1h-315q-29 0 -37 -3.5t-10 -15.5l-77 -546q-2 -11 9 -14t51 -3h9q38 0 51.5 3.5t15.5 13.5l32 224h188q11 0 15.5 8.5t9.5 41.5l1 6q4 35 1.5 42t-13.5 7h-188zM859 0q11 0 15 8.5t9 41.5l1 6
q3 18 3.5 27.5t-1 14.5t-4.5 6t-9 1h-210l65 458q2 11 -10.5 15t-50.5 4h-10q-41 0 -52.5 -4.5t-12.5 -14.5l-77 -545q-2 -12 5.5 -15t36.5 -3h302z" />
    <glyph glyph-name="zero.slash" 
d="M339 730q-75 0 -132.5 -40t-96 -106.5t-58 -153t-19.5 -179.5q0 -131 56.5 -196t162.5 -65q76 0 133 39t95.5 105t57.5 152.5t19 180.5q0 133 -56.5 198t-161.5 65zM417 466q0 -36 -3.5 -76.5t-11 -80.5t-19.5 -77t-28.5 -65t-37.5 -45t-48 -17q-41 0 -65 27l209 389
q2 -12 3 -26t1 -29zM322 615q37 0 61 -24l-207 -386q-3 21 -3 48q0 58 8.5 121.5t26.5 117t46.5 88.5t67.5 35z" />
    <glyph glyph-name="zero" unicode="0" 
d="M322 615q95 0 95 -149q0 -36 -3.5 -76.5t-11 -80.5t-19.5 -77t-28.5 -65t-37.5 -45t-48 -17q-96 0 -96 148q0 58 8.5 121.5t26.5 117t46.5 88.5t67.5 35zM339 730q-75 0 -132.5 -40t-96 -106.5t-58 -153t-19.5 -179.5q0 -131 56.5 -196t162.5 -65q76 0 133 39t95.5 105
t57.5 152.5t19 180.5q0 133 -56.5 198t-161.5 65z" />
    <glyph glyph-name="one" unicode="1" 
d="M127 618q-8 -4 -9.5 -13t8.5 -33l8 -20q11 -27 17 -34.5t17 -2.5l124 51l-65 -458h-127q-7 0 -11 -8t-8 -41l-1 -9q-4 -33 -3 -41.5t8 -8.5h378q7 0 11 8t8 41l1 9q4 33 3 41.5t-8 8.5h-115l84 597q2 8 -4 11.5t-29 3.5h-26q-17 0 -32 -4t-41 -15z" />
    <glyph glyph-name="two" unicode="2" 
d="M136 605q9 -20 17.5 -26.5t16.5 -1.5q34 17 66 28t64 11q35 0 61 -21t26 -67q0 -40 -23 -81q-17 -31 -50.5 -71.5t-93.5 -102.5l-155 -161q-17 -19 -22 -31t-8 -32l-4 -32q-2 -10 4.5 -13.5t35.5 -3.5h382q7 0 10.5 6.5t8.5 39.5l3 23q5 33 2.5 40.5t-9.5 7.5h-249l92 88
q41 39 79.5 79.5t68.5 83t48 88t18 94.5q0 84 -53 132t-149 48q-25 0 -52 -4.5t-53 -12.5t-50 -19t-42 -24q-11 -8 -8.5 -18.5t9.5 -26.5z" />
    <glyph glyph-name="three" unicode="3" 
d="M155 621q8 -23 14.5 -28t18.5 0q26 11 52 18t52 7q38 0 62 -21.5t24 -59.5q0 -27 -11.5 -48.5t-31.5 -35.5q-32 -25 -111 -25h-24q-7 0 -11.5 -8t-8.5 -39l-2 -15q-4 -30 -2 -37.5t9 -7.5h27q32 0 57.5 -4.5t43 -15.5t27 -30.5t9.5 -50.5q0 -27 -10 -48.5t-27 -36.5
t-40.5 -23.5t-50.5 -8.5q-38 0 -72 8.5t-68 25.5q-7 5 -15 0t-24 -32l-11 -19q-15 -25 -16 -33.5t6 -13.5q34 -23 83.5 -36t105.5 -13q61 0 112.5 16.5t88.5 48t58 76.5t21 102t-24 96t-73 56q57 25 90.5 69.5t33.5 101.5q0 78 -50 126t-143 48q-46 0 -91 -11.5t-81 -31.5
q-12 -7 -11.5 -16.5t8.5 -32.5z" />
    <glyph glyph-name="four" unicode="4" 
d="M349 720q-20 0 -31.5 -0.5t-18.5 -2t-10.5 -4.5t-6.5 -8l-235 -436q-8 -14 -11.5 -27t-5.5 -27l-4 -40q-1 -10 6 -12.5t35 -2.5h241l-21 -145q-1 -9 10 -12t52 -3h5q39 0 53 3t15 12l21 145h72q4 0 7 1.5t5 7t4 16t4 27.5l2 15q5 33 2.5 40.5t-11.5 7.5h-69l17 121
q2 9 -11.5 12t-52.5 3h-5q-41 0 -52 -3t-12 -12l-19 -121h-135l234 430q2 4 1 6.5t-7 4.5t-18 3t-33 1h-17z" />
    <glyph glyph-name="five" unicode="5" 
d="M212 720q-29 0 -37 -2.5t-9 -12.5l-49 -345q-3 -18 21 -12q23 5 51.5 8.5t51.5 3.5q58 0 88 -27.5t30 -78.5q0 -31 -10 -58.5t-29 -48t-45 -32.5t-57 -12q-39 0 -67.5 8.5t-58.5 25.5q-8 5 -14.5 -0.5t-20.5 -27.5l-11 -19q-15 -23 -18 -34t5 -16q32 -23 77.5 -36.5
t97.5 -13.5q67 0 121 21.5t92 59.5t58.5 90t20.5 114q0 96 -55 144t-147 48q-8 0 -21.5 -1t-21.5 -2l18 140h231q7 0 11 7.5t9 40.5l3 19q5 31 3 40t-9 9h-309z" />
    <glyph glyph-name="six" unicode="6" 
d="M522 646q11 17 13.5 26t-7.5 17q-20 17 -54 29t-77 12q-56 0 -104.5 -22t-89.5 -64q-36 -37 -64 -87t-47 -106.5t-28.5 -115t-9.5 -112.5q0 -53 11.5 -96t36.5 -73.5t63.5 -47t92.5 -16.5q61 0 110.5 25.5t85 67t54.5 95.5t19 111q0 78 -46 125t-130 47q-34 0 -69.5 -12
t-61.5 -34q9 35 22.5 71t33 65.5t47 48.5t65.5 19q22 0 43 -6.5t42 -17.5q7 -4 13 0.5t20 25.5zM201 317q23 15 52.5 24.5t52.5 9.5q84 0 84 -84q0 -28 -6.5 -57t-20.5 -53t-35 -39.5t-50 -15.5q-41 0 -62.5 30.5t-22.5 93.5q0 17 1.5 39.5t6.5 51.5z" />
    <glyph glyph-name="seven" unicode="7" 
d="M149 720q-6 0 -9 -7.5t-8 -40.5l-3 -20q-5 -33 -2.5 -41t8.5 -8h295l-336 -588q-5 -8 4.5 -11.5t35.5 -3.5h38q39 0 52 2.5t18 12.5l313 572q15 27 20.5 42t7.5 29l6 42q2 11 -5 15.5t-35 4.5h-400z" />
    <glyph glyph-name="eight" unicode="8" 
d="M178 365q-31 -16 -57.5 -36.5t-46 -45.5t-31 -54.5t-11.5 -63.5q0 -41 16.5 -73t45 -55t68 -35t84.5 -12q54 0 103 15.5t86.5 45t60 72.5t22.5 99q0 61 -30 103t-70 66q26 16 49 35t40 41.5t27 48t10 54.5q0 72 -51 116t-143 44q-50 0 -92.5 -16.5t-74.5 -46.5t-50 -71
t-18 -89t17.5 -83.5t45.5 -58.5zM260 315q23 -11 44.5 -22t38 -23.5t26.5 -28t10 -36.5q0 -24 -9.5 -43t-25.5 -32t-35.5 -20t-40.5 -7q-43 0 -69.5 21t-26.5 59q0 44 26.5 78t61.5 54zM332 436q-35 18 -58.5 40t-23.5 57q0 38 26 63t60 25q36 0 56 -19t20 -49
q0 -19 -7.5 -36t-19 -32t-25.5 -27.5t-28 -21.5z" />
    <glyph glyph-name="nine" unicode="9" 
d="M56 74q-11 -18 -13.5 -26.5t7.5 -16.5q24 -19 63 -30t90 -11q62 0 111.5 24t87.5 64.5t64.5 93.5t43.5 110t25 114t8 106q0 52 -13 94t-39 72t-66 46t-94 16q-57 0 -104.5 -23.5t-82.5 -62t-54.5 -88t-19.5 -102.5q0 -80 48.5 -127.5t133.5 -47.5q35 0 71.5 13.5
t60.5 33.5q-9 -39 -23 -79.5t-35 -72.5t-50 -52.5t-68 -20.5q-29 0 -54.5 5.5t-48.5 18.5q-6 4 -13 1t-20 -25zM398 421q-20 -15 -48.5 -24.5t-51.5 -9.5q-88 0 -88 93q0 25 7.5 49.5t21.5 44t34 32t44 12.5q44 0 66 -30t22 -93q0 -17 -2 -38t-5 -36z" />
    <glyph glyph-name="dollar" unicode="$" 
d="M381 829q-21 0 -33 -1t-18.5 -2.5t-9 -4.5t-2.5 -7l-14 -92q-40 -9 -74.5 -29.5t-59.5 -48.5t-39.5 -63t-14.5 -74q0 -41 13 -71t33.5 -52.5t46.5 -39.5t53 -32q19 -10 37 -20.5t31.5 -22.5t22 -27.5t8.5 -36.5q0 -24 -10 -42t-27 -29.5t-38.5 -17t-43.5 -5.5
q-36 0 -72 13t-71 36q-11 7 -19.5 2t-25.5 -31l-14 -23q-16 -25 -18 -35.5t7 -18.5q23 -21 58.5 -36t78.5 -22l-12 -90q-1 -4 0 -7t7 -4.5t18 -2.5t33 -1h7q20 0 32 1t18 2.5t8 4.5t3 7l11 89q48 7 87.5 27t67 50t43 69.5t15.5 86.5q0 41 -13 71.5t-34 53t-47.5 40
t-53.5 33.5q-25 15 -43 27t-30 23.5t-17.5 24t-5.5 27.5q0 19 9 34.5t23.5 26.5t33 17t38.5 6q34 0 60.5 -7.5t58.5 -29.5q8 -6 18 1.5t24 32.5l10 17q14 23 17.5 34t-7.5 19q-23 17 -52 28.5t-62 17.5l13 89q1 8 -8 11.5t-50 3.5h-5z" />
    <glyph glyph-name="cent" unicode="&#xa2;" 
d="M386 646q-23 0 -35.5 -1t-19 -2.5t-8 -4.5t-1.5 -7l-15 -99q-54 -10 -97.5 -39t-74 -71t-46.5 -94.5t-16 -109.5q0 -92 43.5 -148t115.5 -73l-14 -100q0 -4 0.5 -7t6 -4.5t18 -2.5t35.5 -1h3q22 0 34.5 1t18.5 2.5t8 4.5t2 7l15 100q57 10 105 40q9 6 10 14.5t-7 35.5
l-5 16q-10 30 -16 34.5t-15 -0.5q-56 -28 -110 -28q-55 0 -81.5 31.5t-26.5 89.5q0 33 9.5 66.5t28.5 61t46 44.5t63 17q31 0 55 -8t54 -25q7 -5 15.5 2t23.5 28l12 17q15 21 18.5 32t-4.5 18q-40 32 -101 47l15 101q0 4 -1 7t-6.5 4.5t-17.5 2.5t-34 1h-3z" />
    <glyph glyph-name="Euro" unicode="&#x20ac;" 
d="M67 479q-9 0 -12.5 -7.5t-7.5 -37.5t-2 -38t10 -8h52l-4 -30t-3 -30h-54q-9 0 -12.5 -7.5t-7.5 -37.5t-2 -38t10 -8h66q10 -117 71 -182t170 -65q24 0 49.5 4t50 11t46.5 16t40 20q13 8 13.5 17t-7.5 33l-8 24q-8 25 -13 29t-14 0q-27 -14 -59.5 -22.5t-59.5 -8.5
q-57 0 -89 30t-41 94h155q9 0 12.5 7.5t7.5 37.5t2 38t-10 8h-170q1 14 2.5 29t4.5 31h172q9 0 12.5 7.5t7.5 37.5t2 38t-10 8h-159q22 54 60 91.5t94 37.5q35 0 61.5 -7.5t56.5 -27.5q6 -5 13.5 0.5t23.5 28.5l15 22q17 26 19.5 36t-8.5 18q-35 27 -79 39.5t-98 12.5
q-60 0 -108.5 -20t-86 -54.5t-65 -80t-45.5 -96.5h-64z" />
    <glyph glyph-name="florin" unicode="&#x192;" 
d="M168 455q-4 0 -6.5 -1t-5.5 -5.5t-6 -14.5t-8 -27l-2 -7q-5 -17 -7 -27.5t-2 -16t2.5 -7t5.5 -1.5h73l-66 -236q-15 -54 -39.5 -81.5t-72.5 -27.5q-14 0 -28 2t-26 5q-10 2 -15 -3.5t-16 -34.5l-6 -17q-10 -29 -10.5 -37.5t7.5 -11.5q20 -8 44 -12t50 -4q100 0 159 58.5
t87 159.5l67 240h112q4 0 6.5 1t5.5 5.5t6 14.5t8 27l2 7q10 34 9 43t-8 9h-111l14 53q14 54 39 81.5t73 27.5q14 0 28 -2t26 -5q10 -2 15 3.5t16 34.5l6 17q10 29 10.5 37.5t-7.5 11.5q-20 8 -44 12t-50 4q-100 0 -160 -58t-86 -160l-15 -57h-74z" />
    <glyph glyph-name="sterling" unicode="&#xa3;" 
d="M109 428q-3 0 -5.5 -1t-4.5 -6t-4 -15t-5 -28l-1 -7q-5 -34 -3 -42t10 -8h66l-7 -50q-5 -35 -11 -59.5t-15.5 -42.5t-23.5 -31.5t-34 -25.5q-11 -6 -16 -15t-9 -38l-1 -7q-5 -32 -3.5 -42t12.5 -10h411q5 0 8.5 1.5t6 7t4.5 16.5t5 30l1 7q3 19 3.5 29.5t-0.5 15.5
t-4 6.5t-8 1.5h-262q29 20 48 58.5t27 102.5l6 45h156q7 0 11 7.5t9 42.5l1 7q5 36 3.5 43t-9.5 7h-155l8 57q9 66 35 99t74 33q23 0 41.5 -5t38.5 -15q8 -4 15 2t20 35l8 18q11 23 12 32t-7 14q-28 16 -59.5 24t-69.5 8q-108 0 -169 -66t-78 -182l-8 -54h-68z" />
    <glyph glyph-name="yen" unicode="&#xa5;" 
d="M137 720q-45 0 -55 -4t-7 -13l129 -374h-100q-9 0 -12.5 -7.5t-7.5 -37.5t-2 -38t10 -8h123l-7 -45h-123q-9 0 -12.5 -7.5t-7.5 -37.5t-2 -38t10 -8h122l-12 -87q-2 -9 10 -12t53 -3h11q39 0 53 3t16 12l12 87h124q9 0 12.5 7.5t7.5 37.5t2 38t-10 8h-123l7 45h123
q9 0 12.5 7.5t7.5 37.5t2 38t-10 8h-99l236 375q6 9 -3.5 12.5t-50.5 3.5h-24q-20 0 -32 -1t-19 -2.5t-10 -4.5t-6 -7l-89 -151q-23 -39 -43.5 -79t-34.5 -67q-5 28 -17 68t-25 78l-50 150q-3 9 -16.5 12.5t-54.5 3.5h-18z" />
    <glyph glyph-name="numbersign" unicode="#" horiz-adv-x="578" 
d="M269 430h97l-46 -134h-97zM113 538q-10 0 -14 -9.5t-10 -38.5l-1 -5q-4 -20 -5.5 -31t0 -16.5t5 -6.5t9.5 -1h58l-45 -134h-81q-10 0 -14 -9.5t-10 -38.5l-1 -5q-4 -20 -5.5 -31t0 -16.5t5 -6.5t9.5 -1h60l-60 -177q-2 -5 5 -8t38 -3h20q31 0 39 3t10 8l62 177h97
l-61 -177q-1 -3 0 -5t5.5 -3.5t13.5 -2t25 -0.5h20q31 0 39 3t10 8l61 177h1h79q9 0 13 9.5t10 38.5l1 5q4 20 5.5 31t0 16.5t-5 6.5t-9.5 1h-57l45 134h80q10 0 14 9.5t10 38.5l1 5q4 20 5.5 31t0 16.5t-5 6.5t-9.5 1h-59l57 171q2 5 -5.5 8t-38.5 3h-20q-16 0 -25 -0.5
t-13.5 -2t-6.5 -3.5t-3 -5l-59 -171h-97l58 171q1 3 0 5t-6 3.5t-14 2t-25 0.5h-20q-31 0 -38.5 -3t-9.5 -8l-58 -171h-80z" />
    <glyph glyph-name="percent" unicode="%" horiz-adv-x="949" 
d="M271 643q24 0 39.5 -18.5t15.5 -60.5q0 -22 -4 -49.5t-14 -51.5t-26.5 -40.5t-40.5 -16.5t-39.5 18.5t-15.5 60.5q0 22 4.5 49.5t14.5 51.5t26 40.5t40 16.5zM744 720q-18 0 -27.5 -0.5t-15 -2t-8 -3.5t-5.5 -6l-530 -694q-5 -7 4 -10.5t37 -3.5h24q18 0 28 0.5t15.5 2
t8.5 3.5t6 6l530 694q11 14 -43 14h-24zM283 730q-50 0 -88 -21t-63.5 -56t-38.5 -79.5t-13 -90.5q0 -82 41 -123t107 -41q52 0 90 21t63.5 56t38 79t12.5 91q0 82 -41 123t-108 41zM723 314q24 0 39.5 -18.5t15.5 -60.5q0 -22 -4 -49.5t-14 -51.5t-26.5 -40.5t-40.5 -16.5
t-39.5 18.5t-15.5 60.5q0 22 4.5 49.5t14.5 51.5t26 40.5t40 16.5zM735 401q-50 0 -88 -21t-63.5 -56t-38.5 -79.5t-13 -90.5q0 -82 41 -123t107 -41q52 0 90 21t63.5 56t38 79t12.5 91q0 82 -41 123t-108 41z" />
    <glyph glyph-name="perthousand" unicode="&#x2030;" horiz-adv-x="1338" 
d="M271 643q24 0 39.5 -18.5t15.5 -60.5q0 -22 -4 -49.5t-14 -51.5t-26.5 -40.5t-40.5 -16.5t-39.5 18.5t-15.5 60.5q0 22 4.5 49.5t14.5 51.5t26 40.5t40 16.5zM744 720q-18 0 -27.5 -0.5t-15 -2t-8 -3.5t-5.5 -6l-530 -694q-5 -7 4 -10.5t37 -3.5h24q18 0 28 0.5t15.5 2
t8.5 3.5t6 6l530 694q11 14 -43 14h-24zM283 730q-50 0 -88 -21t-63.5 -56t-38.5 -79.5t-13 -90.5q0 -82 41 -123t107 -41q52 0 90 21t63.5 56t38 79t12.5 91q0 82 -41 123t-108 41zM723 314q24 0 39.5 -18.5t15.5 -60.5q0 -22 -4 -49.5t-14 -51.5t-26.5 -40.5t-40.5 -16.5
t-39.5 18.5t-15.5 60.5q0 22 4.5 49.5t14.5 51.5t26 40.5t40 16.5zM735 401q-50 0 -88 -21t-63.5 -56t-38.5 -79.5t-13 -90.5q0 -82 41 -123t107 -41q52 0 90 21t63.5 56t38 79t12.5 91q0 82 -41 123t-108 41zM1113 314q24 0 39.5 -18.5t15.5 -60.5q0 -22 -4 -49.5
t-14 -51.5t-26.5 -40.5t-40.5 -16.5t-39.5 18.5t-15.5 60.5q0 22 4.5 49.5t14.5 51.5t26 40.5t40 16.5zM1125 401q-50 0 -88 -21t-63.5 -56t-38.5 -79.5t-13 -90.5q0 -82 41 -123t107 -41q52 0 90 21t63.5 56t38 79t12.5 91q0 82 -41 123t-108 41z" />
    <glyph glyph-name="plus" unicode="+" 
d="M78 405q-8 0 -12 -8.5t-9 -41.5l-2 -14q-5 -33 -3 -41.5t10 -8.5h171l-25 -176q-1 -8 7 -11t40 -3h14q32 0 41 3t10 11l25 176h172q8 0 12 8.5t9 41.5l2 14q5 33 3 41.5t-10 8.5h-172l25 175q1 8 -7 11t-40 3h-14q-32 0 -41 -3t-10 -11l-25 -175h-171z" />
    <glyph glyph-name="minus" unicode="&#x2212;" 
d="M82 405q-8 0 -12 -8.5t-9 -41.5l-2 -14q-5 -33 -3 -41.5t10 -8.5h455q8 0 12 8.5t9 41.5l2 14q5 33 3 41.5t-10 8.5h-455z" />
    <glyph glyph-name="multiply" unicode="&#xd7;" 
d="M162 526q13 12 21.5 18.5t13.5 9t8 2t5 -3.5l104 -124l140 125q3 2 5.5 3t7 -1.5t11 -9t16.5 -18.5l8 -10q19 -23 21.5 -31.5t-2.5 -13.5l-140 -125l105 -124q3 -3 3.5 -6t-2.5 -7.5t-11 -12t-21 -19.5l-11 -10q-27 -24 -35 -28t-13 2l-104 125l-140 -124q-6 -5 -13 -1.5
t-27 27.5l-8 10q-20 23 -22.5 31.5t3.5 13.5l139 123l-105 124q-4 5 0.5 14t30.5 31z" />
    <glyph glyph-name="less" unicode="&#x3c;" 
d="M499 628q10 5 18 0.5t21 -33.5l3 -7q12 -31 11.5 -41t-9.5 -15l-333 -184l281 -184q7 -5 5 -15t-23 -41l-5 -7q-20 -29 -29.5 -33.5t-17.5 0.5l-345 227q-12 9 -12 23q0 8 3 25l2 10q5 24 9 33.5t12 14.5z" />
    <glyph glyph-name="divide" unicode="&#xf7;" 
d="M82 405q-8 0 -12 -8.5t-9 -41.5l-2 -14q-3 -23 -3 -34t2.5 -13.5t7.5 -2.5h455q8 0 12 8.5t9 41.5l2 14q3 22 3 33t-2.5 14t-7.5 3h-455zM334 650q-20 0 -36.5 -7.5t-28 -20.5t-18 -29t-6.5 -33q0 -32 22 -53.5t57 -21.5q21 0 37.5 8t28.5 21t18 29.5t6 32.5q0 32 -22 53
t-58 21zM273 211q-20 0 -36.5 -7.5t-28 -20.5t-18 -29t-6.5 -33q0 -32 22 -53.5t57 -21.5q21 0 37.5 8t28.5 21t18 29.5t6 32.5q0 32 -22 53t-58 21z" />
    <glyph glyph-name="equal" unicode="=" 
d="M119 524q-8 0 -11.5 -8.5t-8.5 -41.5l-2 -14q-5 -33 -3.5 -41.5t9.5 -8.5h417q8 0 11.5 8.5t8.5 41.5l2 14q5 33 3.5 41.5t-9.5 8.5h-417zM85 285q-8 0 -11.5 -8.5t-8.5 -41.5l-2 -14q-5 -33 -3.5 -41.5t9.5 -8.5h417q8 0 11.5 8.5t8.5 41.5l2 14q5 33 3.5 41.5t-9.5 8.5
h-417z" />
    <glyph glyph-name="logicalnot" unicode="&#xac;" 
d="M102 524q-8 0 -11.5 -8.5t-8.5 -41.5l-2 -14q-5 -33 -3.5 -41.5t9.5 -8.5h329l-30 -210q-1 -8 7 -11t40 -3h13q33 0 41.5 3t9.5 11l44 315q1 6 -1 7.5t-7 1.5h-430z" />
    <glyph glyph-name="greater" unicode="&#x3e;" 
d="M151 595q20 29 29.5 33.5t17.5 -0.5l345 -227q6 -4 9 -9t3 -14t-3 -25l-2 -10q-5 -26 -8.5 -34.5t-12.5 -13.5l-409 -227q-10 -5 -18 -0.5t-21 33.5l-3 7q-12 31 -11.5 41t9.5 15l333 184l-281 184q-4 3 -5.5 6t0 9t7 16t16.5 25z" />
    <glyph glyph-name="notequal" unicode="&#x2260;" 
d="M117 524q-8 0 -11.5 -8.5t-8.5 -41.5l-2 -14q-5 -33 -3.5 -41.5t9.5 -8.5h186l-79 -125h-125q-8 0 -11.5 -8.5t-8.5 -41.5l-2 -14q-5 -33 -3.5 -41.5t9.5 -8.5h69l-64 -103q-5 -7 3.5 -10.5t38.5 -3.5h17q15 0 24 0.5t14 2t8 4t5 5.5l66 105h236q8 0 11.5 8.5t8.5 41.5
l2 14q5 33 3.5 41.5t-9.5 8.5h-181l80 125h119q8 0 11.5 8.5t8.5 41.5l2 14q5 33 3.5 41.5t-9.5 8.5h-64l65 103q5 8 -3.5 11t-38.5 3h-17q-29 0 -38 -2.5t-13 -9.5l-67 -105h-241z" />
    <glyph glyph-name="approxequal" unicode="&#x2248;" 
d="M78 163q23 -5 31 -3.5t11 8.5q24 55 65 55q21 0 40 -12t40.5 -26.5t48 -26.5t61.5 -12q27 0 51.5 10.5t45.5 28.5t37.5 42t26.5 52q4 9 -1.5 13t-26.5 9l-12 3q-22 5 -30 4t-11 -9q-12 -29 -29 -42.5t-37 -13.5t-39 12t-41 27t-48.5 27t-61.5 12q-27 0 -51.5 -10.5
t-45.5 -28.5t-37.5 -42t-26.5 -52q-3 -9 2 -13t25 -9zM111 397q23 -5 31 -3.5t11 8.5q24 55 65 55q21 0 40 -12t40.5 -26.5t48 -26.5t61.5 -12q27 0 51.5 10.5t45.5 28.5t37.5 42t26.5 52q4 9 -1.5 13t-26.5 9l-12 3q-22 5 -30 4t-11 -9q-12 -29 -29 -42.5t-37 -13.5t-39 12
t-41 27t-48.5 27t-61.5 12q-27 0 -51.5 -10.5t-45.5 -28.5t-37.5 -42t-26.5 -52q-3 -9 2 -13t25 -9z" />
    <glyph glyph-name="plusminus" unicode="&#xb1;" 
d="M94 515q-8 0 -12 -8.5t-9 -41.5l-2 -14q-5 -33 -3 -41.5t10 -8.5h171l-25 -176q-1 -8 7 -11t40 -3h14q32 0 41 3t10 11l25 176h172q8 0 12 8.5t9 41.5l2 14q5 33 3 41.5t-10 8.5h-172l25 175q1 8 -7 11t-40 3h-14q-32 0 -41 -3t-10 -11l-25 -175h-171zM38 114
q-8 0 -12 -8.5t-9 -41.5l-2 -14q-5 -33 -3 -41.5t10 -8.5h455q8 0 12 8.5t9 41.5l2 14q5 33 3 41.5t-10 8.5h-455z" />
    <glyph glyph-name="lessequal" unicode="&#x2264;" 
d="M43 114q-8 0 -12 -8.5t-9 -41.5l-2 -14q-5 -33 -3 -41.5t10 -8.5h455q8 0 12 8.5t9 41.5l2 14q5 33 3 41.5t-10 8.5h-455zM103 513q-8 -5 -12 -14.5t-9 -33.5l-2 -10q-3 -17 -3 -25q0 -14 12 -23l345 -227q8 -5 17.5 -0.5t29.5 33.5l5 7q21 31 23 41t-5 15l-281 184
l333 184q9 5 9.5 15t-11.5 41l-3 7q-13 29 -21 33.5t-18 -0.5z" />
    <glyph glyph-name="greaterequal" unicode="&#x2265;" 
d="M42 114q-8 0 -12 -8.5t-9 -41.5l-2 -14q-5 -33 -3 -41.5t10 -8.5h455q8 0 12 8.5t9 41.5l2 14q5 33 3 41.5t-10 8.5h-455zM152 700q-11 -15 -16.5 -25t-7 -16t0 -9t5.5 -6l281 -184l-333 -184q-9 -5 -9.5 -15t11.5 -41l3 -7q13 -29 21 -33.5t18 0.5l409 227q8 5 12 14.5
t9 33.5l2 10q3 16 3 25q0 14 -12 23l-345 227q-8 5 -17.5 0.5t-29.5 -33.5z" />
    <glyph glyph-name="asciicircum" unicode="^" 
d="M335 720q-25 0 -34.5 -3.5t-15.5 -12.5l-223 -366q-4 -6 -5.5 -10.5t3 -7t16 -4t32.5 -1.5h10q29 0 41 2t17 10l152 258l80 -258q3 -8 13.5 -10t39.5 -2h11q21 0 33 1.5t17 4t5.5 7t-1.5 10.5l-121 366q-3 9 -12 12.5t-34 3.5h-24z" />
    <glyph glyph-name="asciitilde" unicode="~" horiz-adv-x="578" 
d="M85 298q13 -4 24.5 -5.5t14.5 5.5q13 33 33 49.5t40 16.5q24 0 44 -13t41.5 -28t48.5 -28t66 -13q30 0 56.5 10.5t48 29t37.5 43t27 53.5q4 10 -5.5 15t-25.5 10l-12 4q-20 7 -29.5 6.5t-13.5 -10.5q-10 -26 -27.5 -42t-41.5 -16t-43.5 13t-41.5 28t-48.5 28t-65.5 13
q-56 0 -102 -39t-69 -102q-2 -7 4.5 -12.5t26.5 -11.5z" />
    <glyph glyph-name="lozenge" unicode="&#x25ca;" horiz-adv-x="567" 
d="M327 579l84 -206l-150 -223l-86 206zM343 753q-19 0 -25 -2.5t-10 -7.5l-235 -335q-7 -10 -10 -17.5t-5 -20.5l-2 -14q-2 -15 -1 -22.5t5 -17.5l136 -329q2 -5 8.5 -7.5t23.5 -2.5h16q16 0 21.5 2t10.5 8l234 335q6 10 10 18.5t6 21.5l2 13q2 11 1 19t-6 19l-135 330
q-2 5 -7.5 7.5t-21.5 2.5h-16z" />
    <glyph glyph-name="degree" unicode="&#xb0;" horiz-adv-x="345" 
d="M212 660q58 0 58 -55q0 -36 -20.5 -62t-52.5 -26q-58 0 -58 55q0 36 20.5 62t52.5 26zM60 567q0 -56 34.5 -88t91.5 -32q36 0 65.5 13t51.5 35t34 51.5t12 63.5q0 56 -34.5 88t-90.5 32q-36 0 -66 -13t-52 -35t-34 -51.5t-12 -63.5z" />
    <glyph glyph-name="quotesingle" unicode="'" horiz-adv-x="228" 
d="M163 720q-21 0 -33 -0.5t-18.5 -2t-9 -4.5t-2.5 -7l-23 -254q-1 -6 8 -8.5t38 -2.5h9q26 0 35.5 3t10.5 8l50 254q1 4 -0.5 7t-7.5 4.5t-18 2t-33 0.5h-6z" />
    <glyph glyph-name="quotedbl" unicode="&#x22;" horiz-adv-x="425" 
d="M164 720q-21 0 -33 -0.5t-18.5 -2t-9 -4.5t-2.5 -7l-23 -254q-1 -6 8 -8.5t38 -2.5h9q26 0 35.5 3t10.5 8l50 254q1 4 -0.5 7t-7.5 4.5t-18 2t-33 0.5h-6zM361 720q-21 0 -33 -0.5t-18.5 -2t-9 -4.5t-2.5 -7l-23 -254q-1 -6 8 -8.5t38 -2.5h9q26 0 35.5 3t10.5 8l50 254
q1 4 -0.5 7t-7.5 4.5t-18 2t-33 0.5h-6z" />
    <glyph glyph-name="radical" unicode="&#x221a;" horiz-adv-x="651" 
d="M70 488q-3 0 -6 -1t-5 -6t-4.5 -15t-4.5 -28l-1 -7q-5 -36 -3 -43t9 -7h60l84 -441q1 -8 12 -10.5t49 -2.5h7q38 0 49 3t14 9l383 841q2 4 1.5 7.5t-6.5 5.5t-19 3t-35 1h-10q-21 0 -33 -1t-18.5 -3t-9.5 -5t-5 -8l-288 -657l-61 341q-3 16 -8.5 20t-23.5 4h-127z" />
    <glyph glyph-name="currency" unicode="&#xa4;" 
d="M490 391q0 58 -26 99l97 134q5 7 -1.5 10.5t-32.5 3.5h-38q-21 0 -28 -2.5t-12 -9.5l-54 -75q-37 17 -83 17q-34 0 -67 -11l-30 69q-4 8 -11 10t-27 2h-31q-26 0 -32.5 -3.5t-3.5 -10.5l52 -120q-30 -32 -46.5 -77t-16.5 -99q0 -57 25 -99l-96 -134q-5 -7 1.5 -10.5
t32.5 -3.5h38q21 0 28 2.5t12 9.5l54 74q35 -16 83 -16q17 0 34 2.5t32 7.5l31 -68q4 -8 11 -10t27 -2h31q26 0 32.5 3.5t3.5 10.5l-52 119q30 33 46.5 78t16.5 99zM367 389q0 -25 -6 -48.5t-16.5 -41.5t-26.5 -29t-35 -11q-61 0 -61 71q0 25 6 48.5t16.5 41.5t26 29
t35.5 11q61 0 61 -71z" />
    <glyph glyph-name="infinity" unicode="&#x221e;" horiz-adv-x="795" 
d="M411 395q-40 48 -78.5 70t-87.5 22q-43 0 -78.5 -15t-60.5 -41t-39 -61t-14 -74q0 -64 42 -101.5t110 -37.5q53 0 96.5 23.5t90.5 69.5q41 -48 80 -70t89 -22q42 0 77 15t60 41t38.5 61t13.5 74q0 64 -43.5 101.5t-112.5 37.5q-52 0 -94.5 -23.5t-88.5 -69.5zM468 324
q23 27 50 46t57 19q33 0 51.5 -14.5t18.5 -39.5q0 -29 -21.5 -53t-57.5 -24q-29 0 -49.5 15.5t-48.5 50.5zM335 321q-24 -27 -51 -46t-58 -19q-32 0 -50 14.5t-18 39.5q0 15 5.5 28.5t15.5 24.5t24 17.5t31 6.5q30 0 51 -15.5t50 -50.5z" />
    <glyph glyph-name="micro" unicode="&#xb5;" horiz-adv-x="579" 
d="M161 528q-21 0 -33.5 -1t-19.5 -2.5t-9 -4.5t-3 -7l-66 -480q-3 -20 -5.5 -49.5t-5 -62t-4 -65.5t-1.5 -60q0 -12 10 -15.5t52 -3.5h7q21 0 34 0.5t19.5 2t8.5 4t2 6.5q0 44 3 93t11 112q23 -5 46 -5q42 0 81 18t68 46q7 -26 29.5 -42.5t59.5 -16.5q17 0 34 3.5t30 9.5
q7 4 10 10.5t7 32.5l2 14q4 26 2.5 32.5t-9.5 6.5h-4q-18 0 -22.5 5.5t-2.5 21.5l53 382q0 4 -1 6.5t-7 4.5t-19 3t-37 1h-5q-21 0 -34 -1t-19.5 -2.5t-9 -4.5t-3.5 -7l-34 -241q-6 -40 -11 -64.5t-10 -39.5t-11 -22.5t-14 -13.5q-11 -8 -29 -14t-40 -6q-74 0 -74 62
q0 15 2 31.5t4 33.5l38 274q0 4 -1 6.5t-7 4.5t-19 3t-37 1h-6z" />
    <glyph glyph-name="partialdiff" unicode="&#x2202;" horiz-adv-x="551" 
d="M165 629q11 -26 17 -31.5t14 -2.5q51 24 93 24q52 0 76 -36.5t24 -120.5v-22.5t-1 -23.5q-23 20 -57 32t-69 12q-53 0 -96.5 -23t-74.5 -60.5t-48 -86t-17 -99.5q0 -44 13 -81t37.5 -63.5t61 -41.5t83.5 -15q58 0 103.5 21t79.5 56t57.5 81.5t38 98t21 105t6.5 102.5
q0 131 -53 203.5t-164 72.5q-19 0 -40.5 -3.5t-42 -9t-38.5 -13t-31 -16.5q-8 -6 -7.5 -15.5t8.5 -29.5zM376 317q-17 -116 -52 -165.5t-84 -49.5q-35 0 -58 24t-23 72q0 26 7.5 53t22.5 48.5t38 35.5t55 14q23 0 50 -8.5t44 -23.5z" />
    <glyph glyph-name="summation" unicode="&#x2211;" horiz-adv-x="579" 
d="M122 720q-20 0 -27.5 -3t-9.5 -11l-10 -73q-2 -14 1.5 -22.5t12.5 -21.5l208 -312l-308 -331q-15 -17 -20 -25t-7 -19l-6 -55q-2 -8 5 -11t27 -3h469q5 0 8.5 1.5t6 7.5t5 17t4.5 29l1 8q2 19 3 29.5t0 16t-4 6.5t-8 1h-313l261 281q6 7 9 13.5t5 20.5l4 26q2 14 1 19.5
t-5 11.5l-191 283h314q5 0 8.5 1.5t6.5 7t5.5 16.5t4.5 30l1 8q2 19 3 29.5t-0.5 15.5t-4.5 6.5t-8 1.5h-452z" />
    <glyph glyph-name="product" unicode="&#x220f;" horiz-adv-x="769" 
d="M93 720q-10 0 -15.5 -9t-9.5 -46l-1 -8q-2 -19 -2.5 -29.5t0.5 -16t4.5 -6.5t8.5 -1h83l-106 -756q-1 -5 1 -7.5t8.5 -4.5t19.5 -2.5t34 -0.5h11q39 0 52.5 3t15.5 12l106 756h231l-106 -756q-1 -5 1 -7.5t8.5 -4.5t19 -2.5t32.5 -0.5h14q21 0 33.5 0.5t20 2.5t10 4.5
t3.5 7.5l106 756h85q5 0 8.5 1.5t6.5 7.5t5.5 17t4.5 29l1 8q2 19 2.5 29.5t-0.5 16t-4.5 6.5t-8.5 1h-683z" />
    <glyph glyph-name="integral" unicode="&#x222b;" horiz-adv-x="368" 
d="M374 666q11 31 10.5 39t-8.5 12q-29 13 -72 13q-60 0 -100.5 -26t-66 -67t-36.5 -91t-11 -98q0 -45 5.5 -90t12 -88.5t12 -85t5.5 -80.5q0 -64 -20.5 -101t-59.5 -37q-16 0 -36 4q-11 2 -15.5 -5.5t-12.5 -32.5l-5 -15q-11 -31 -10.5 -39t8.5 -12q29 -13 72 -13
q60 0 100.5 26t66 67t36.5 91t11 98q0 45 -5.5 89.5t-12 88t-12 85.5t-5.5 81q0 64 20.5 101t59.5 37q16 0 36 -4q11 -2 15.5 5.5t12.5 32.5z" />
    <glyph glyph-name="litre" unicode="&#x2113;" horiz-adv-x="286" 
d="M194 760q-21 0 -33.5 -0.5t-19.5 -2t-9 -4t-2 -6.5q-1 -14 -4 -42t-7 -65t-9 -79.5t-11 -83.5l-43 -309q-3 -20 -5.5 -41t-2.5 -33q0 -45 22 -72t77 -27q15 0 33.5 3.5t31.5 9.5q7 4 10 10.5t7 32.5l2 14q4 26 2.5 32.5t-9.5 6.5h-14q-18 0 -22.5 5.5t-2.5 21.5l47 325
q7 48 13 93.5t10 83t6 66t2 42.5q0 12 -10 15.5t-52 3.5h-7z" />
    <glyph glyph-name="estimated" unicode="&#x212e;" horiz-adv-x="922" 
d="M872 352v8q0 77 -32.5 144.5t-88 117.5t-130 79t-159.5 29t-160 -29t-131 -79t-88.5 -117.5t-32.5 -144.5t32.5 -144t88.5 -117.5t131 -79.5t160 -29q100 0 184 39t141 105h-60q-48 -57 -116 -89.5t-148 -32.5q-75 0 -140 30t-113 78q-9 12 -9 24v202q0 6 5 6h666z
M721 377q0 -6 -5 -6h-510q-5 0 -5 6v199q0 16 10 26q49 48 113 77t139 29q72 0 136 -27.5t112 -75.5q10 -12 10 -25v-203z" />
    <glyph glyph-name="numero" unicode="&#x2116;" horiz-adv-x="1111" 
d="M878 359q19 0 35 11t26.5 29t16.5 41.5t6 48.5q0 71 -61 71q-20 0 -35.5 -11t-26 -29t-16.5 -41.5t-6 -48.5q0 -71 61 -71zM874 251q-40 0 -73 12.5t-57 35.5t-37 55.5t-13 73.5q0 51 15.5 95t43 76t67 50.5t87.5 18.5q40 0 72.5 -12.5t56 -35.5t36.5 -55.5t13 -73.5
q0 -51 -15 -95t-42.5 -76t-66.5 -50.5t-87 -18.5zM184 720q21 0 33 -1t19 -3t10 -5t5 -7l141 -274q30 -59 53.5 -112.5t31.5 -86.5q1 18 3.5 46t6.5 59.5t8 64t8 58.5l35 246q1 4 3.5 7t9.5 4.5t19.5 2.5t32.5 1h6q38 0 50.5 -3.5t10.5 -11.5l-97 -690q0 -5 -2 -7.5t-8 -4.5
t-17.5 -2.5t-30.5 -0.5h-6q-35 0 -46.5 3t-16.5 13l-140 274q-13 26 -26.5 55t-25.5 56.5t-21 51.5t-13 40q0 -18 -2.5 -46.5t-6.5 -61t-8 -65.5t-8 -59l-35 -246q-1 -9 -14 -12t-51 -3h-6q-20 0 -32.5 0.5t-19.5 2t-9 4.5t-1 8l97 690q1 5 2 8t6.5 4.5t16 2t30.5 0.5h5z
" />
    <glyph glyph-name="zero.otab" 
d="M263 97q-48 0 -72.5 29.5t-24.5 84.5q0 42 7 90t24 89t44.5 68t69.5 27q45 0 69.5 -29.5t24.5 -84.5q0 -42 -7 -90t-23.5 -89t-44 -68t-67.5 -27zM252 -10q75 0 130.5 33t91.5 86.5t53.5 122.5t17.5 141q0 46 -15 86.5t-44 69.5t-71 46t-96 17q-75 0 -130.5 -33
t-91.5 -86.5t-53.5 -122.5t-17.5 -141q0 -101 58.5 -160t167.5 -59z" />
    <glyph glyph-name="one.otab" 
d="M467 0q7 0 12 7.5t8 36.5l1 11q3 29 0.5 37t-9.5 8h-114l68 462q2 11 -4 15.5t-29 4.5h-26q-17 0 -32 -3t-41 -12l-184 -64q-8 -2 -7.5 -12.5t10.5 -35.5l5 -13q10 -25 17 -30t18 -1l122 36l-53 -347h-125q-7 0 -12 -7.5t-8 -36.5l-1 -11q-3 -29 -0.5 -37t9.5 -8h375z
" />
    <glyph glyph-name="two.otab" 
d="M453 0q8 0 11 9t7 35l2 14q4 34 1 41.5t-10 7.5h-228l70 50q55 39 94 74t63.5 67t35.5 64t11 65q0 41 -15.5 72t-42 51.5t-62 31t-76.5 10.5q-30 0 -60.5 -5t-58 -12.5t-50.5 -17t-37 -18.5q-6 -4 -8.5 -7t-2 -8t4.5 -13l11 -22l6 -12q12 -23 19 -29t18 -1q33 15 64 26.5
t66 11.5q34 0 60.5 -16t26.5 -59q0 -26 -11 -49.5t-31.5 -46t-49 -45.5t-63.5 -50l-156 -119q-9 -7 -14 -12.5t-8 -11.5t-4.5 -13.5t-2.5 -17.5l-3 -25q-2 -14 5 -17t36 -3h382z" />
    <glyph glyph-name="three.otab" 
d="M125 483q8 -23 14.5 -28t18.5 0q26 11 52 18t52 7q38 0 62 -21.5t24 -59.5q0 -27 -11.5 -48.5t-31.5 -35.5q-32 -25 -111 -25h-24q-7 0 -11.5 -8t-8.5 -39l-2 -15q-4 -30 -2 -37.5t9 -7.5h27q32 0 57.5 -4.5t43 -15.5t27 -30.5t9.5 -50.5q0 -27 -10 -48.5t-27 -36.5
t-40.5 -23.5t-50.5 -8.5q-38 0 -72 8.5t-68 25.5q-7 5 -15 0t-24 -32l-11 -19q-15 -25 -16 -33.5t6 -13.5q34 -23 83.5 -36t105.5 -13q61 0 112.5 16.5t88.5 48t58 76.5t21 102t-24 96t-73 56q57 25 90.5 69.5t33.5 101.5q0 78 -50 126t-143 48q-46 0 -91 -11.5t-81 -31.5
q-12 -7 -11.5 -16.5t8.5 -32.5z" />
    <glyph glyph-name="four.otab" 
d="M329 582q-20 0 -31.5 -0.5t-18.5 -2t-10.5 -4.5t-6.5 -8l-235 -436q-8 -14 -11.5 -27t-5.5 -27l-4 -40q-1 -10 6 -12.5t35 -2.5h241l-21 -145q-1 -9 10 -12t52 -3h5q39 0 53 3t15 12l21 145h72q4 0 7 1.5t5 7t4 16t4 27.5l2 15q5 33 2.5 40.5t-11.5 7.5h-69l17 121
q2 9 -11.5 12t-52.5 3h-5q-41 0 -52 -3t-12 -12l-19 -121h-135l234 430q2 4 1 6.5t-7 4.5t-18 3t-33 1h-17z" />
    <glyph glyph-name="five.otab" 
d="M202 582q-29 0 -37 -2.5t-9 -12.5l-49 -345q-3 -18 21 -12q23 5 51.5 8.5t51.5 3.5q58 0 88 -27.5t30 -78.5q0 -31 -10 -58.5t-29 -48t-45 -32.5t-57 -12q-39 0 -67.5 8.5t-58.5 25.5q-8 5 -14.5 -0.5t-20.5 -27.5l-11 -19q-15 -23 -18 -34t5 -16q32 -23 77.5 -36.5
t97.5 -13.5q67 0 121 21.5t92 59.5t58.5 90t20.5 114q0 96 -55 144t-147 48q-8 0 -21.5 -1t-21.5 -2l18 140h231q7 0 11 7.5t9 40.5l3 19q5 31 3 40t-9 9h-309z" />
    <glyph glyph-name="six.otab" 
d="M522 646q11 17 13.5 26t-7.5 17q-20 17 -54 29t-77 12q-56 0 -104.5 -22t-89.5 -64q-36 -37 -64 -87t-47 -106.5t-28.5 -115t-9.5 -112.5q0 -53 11.5 -96t36.5 -73.5t63.5 -47t92.5 -16.5q61 0 110.5 25.5t85 67t54.5 95.5t19 111q0 78 -46 125t-130 47q-34 0 -69.5 -12
t-61.5 -34q9 35 22.5 71t33 65.5t47 48.5t65.5 19q22 0 43 -6.5t42 -17.5q7 -4 13 0.5t20 25.5zM201 317q23 15 52.5 24.5t52.5 9.5q84 0 84 -84q0 -28 -6.5 -57t-20.5 -53t-35 -39.5t-50 -15.5q-41 0 -62.5 30.5t-22.5 93.5q0 17 1.5 39.5t6.5 51.5z" />
    <glyph glyph-name="seven.otab" 
d="M115 582q-6 0 -9 -7.5t-8 -40.5l-3 -20q-5 -33 -2.5 -41t8.5 -8h295l-336 -588q-5 -8 4.5 -11.5t35.5 -3.5h38q39 0 52 2.5t18 12.5l313 572q15 27 20.5 42t7.5 29l6 42q2 11 -5 15.5t-35 4.5h-400z" />
    <glyph glyph-name="eight.otab" 
d="M178 365q-31 -16 -57.5 -36.5t-46 -45.5t-31 -54.5t-11.5 -63.5q0 -41 16.5 -73t45 -55t68 -35t84.5 -12q54 0 103 15.5t86.5 45t60 72.5t22.5 99q0 61 -30 103t-70 66q26 16 49 35t40 41.5t27 48t10 54.5q0 72 -51 116t-143 44q-50 0 -92.5 -16.5t-74.5 -46.5t-50 -71
t-18 -89t17.5 -83.5t45.5 -58.5zM260 315q23 -11 44.5 -22t38 -23.5t26.5 -28t10 -36.5q0 -24 -9.5 -43t-25.5 -32t-35.5 -20t-40.5 -7q-43 0 -69.5 21t-26.5 59q0 44 26.5 78t61.5 54zM332 436q-35 18 -58.5 40t-23.5 57q0 38 26 63t60 25q36 0 56 -19t20 -49
q0 -19 -7.5 -36t-19 -32t-25.5 -27.5t-28 -21.5z" />
    <glyph glyph-name="nine.otab" 
d="M46 -64q-11 -18 -13.5 -26.5t7.5 -16.5q24 -19 63 -30t90 -11q62 0 111.5 24t87.5 64.5t64.5 93.5t43.5 110t25 114t8 106q0 52 -13 94t-39 72t-66 46t-94 16q-57 0 -104.5 -23.5t-82.5 -62t-54.5 -88t-19.5 -102.5q0 -80 48.5 -127.5t133.5 -47.5q35 0 71.5 13.5
t60.5 33.5q-9 -39 -23 -79.5t-35 -72.5t-50 -52.5t-68 -20.5q-29 0 -54.5 5.5t-48.5 18.5q-6 4 -13 1t-20 -25zM388 283q-20 -15 -48.5 -24.5t-51.5 -9.5q-88 0 -88 93q0 25 7.5 49.5t21.5 44t34 32t44 12.5q44 0 66 -30t22 -93q0 -17 -2 -38t-5 -36z" />
    <glyph glyph-name="dollar.otab" horiz-adv-x="524" 
d="M182 -92q21 0 33.5 1t18.5 3t8 6t2 9l10 71q39 8 72 24.5t56.5 40.5t37 54.5t13.5 66.5q0 37 -15.5 64t-38.5 47t-50.5 35t-50.5 29t-38.5 28.5t-15.5 34.5q0 31 21.5 46.5t57.5 15.5q26 0 47.5 -8t46.5 -24q11 -8 20 -4.5t26 32.5l9 15q14 24 16.5 34t-8.5 19
q-18 14 -42.5 22.5t-50.5 13.5l10 72q1 5 0 8.5t-7 5.5t-17.5 3t-32.5 1h-6q-20 0 -31.5 -1t-17.5 -3t-8 -5.5t-2 -8.5l-11 -76q-35 -7 -63.5 -22t-49.5 -36.5t-32.5 -49t-11.5 -59.5q0 -40 15.5 -68t39 -48.5t50.5 -35.5t50.5 -29t39 -29t15.5 -35q0 -37 -25.5 -52.5
t-60.5 -15.5t-66 12t-57 32q-11 8 -21 2t-25 -30l-12 -19q-14 -22 -16 -31.5t7 -17.5q18 -17 46.5 -29t64.5 -20l-10 -72q-1 -5 -0.5 -9t5.5 -6t16.5 -3t32.5 -1h6z" />
    <glyph glyph-name="cent.otab" horiz-adv-x="524" 
d="M252 -17q21 0 33 0.5t18 2.5t7.5 5.5t2.5 8.5l11 78q26 5 49.5 14t37.5 19q8 6 9 13t-5 31l-3 12q-8 28 -14 32.5t-20 -1.5q-22 -10 -41.5 -16t-45.5 -6q-91 0 -91 88q0 24 6.5 49t21.5 45.5t38.5 34t57.5 13.5q20 0 40.5 -8t40.5 -22q4 -3 8 -4t8.5 2t10.5 10t14 20
l9 14q15 23 18 31t-4 16q-11 11 -35.5 23.5t-49.5 17.5l12 77q0 5 -1 8.5t-6.5 5.5t-17 2.5t-32.5 0.5h-5q-21 0 -32.5 -0.5t-17.5 -2.5t-7.5 -5t-2.5 -9l-11 -78q-65 -15 -107 -50q-23 -19 -39.5 -43.5t-27.5 -51.5t-16.5 -55t-5.5 -55q0 -40 12 -74t36 -58q30 -30 87 -42
l-11 -76q-1 -6 0.5 -9.5t7 -5t16.5 -2t31 -0.5h6z" />
    <glyph glyph-name="Euro.otab" horiz-adv-x="524" 
d="M32 270q-8 0 -11 -5.5t-6 -32.5l-1 -8q-3 -26 -1.5 -32t9.5 -6h52q3 -41 18 -76t42 -61.5t65.5 -41.5t87.5 -15q45 0 85.5 11.5t76.5 32.5q11 6 12.5 13.5t-7.5 32.5l-6 16q-9 23 -14 27t-13 -1q-53 -25 -106 -25q-46 0 -70.5 25.5t-29.5 61.5h130q8 0 11 5.5t6 32.5l1 8
q4 27 2 32.5t-10 5.5h-142q1 11 2 18.5t3 15.5h145q8 0 11 5.5t6 32.5l1 8q4 27 2 32.5t-10 5.5h-132q18 46 49.5 71t73.5 25q29 0 49.5 -6.5t41.5 -20.5q4 -3 8 -4.5t8.5 0.5t11 9t16.5 21l11 15q18 25 19 33.5t-6 13.5q-32 23 -68.5 34t-86.5 11q-100 0 -167 -52.5
t-98 -149.5h-56q-8 0 -11 -5.5t-6 -32.5l-1 -8q-3 -26 -1.5 -32t9.5 -6h44q-2 -6 -3 -16t-2 -18h-44z" />
    <glyph glyph-name="florin.otab" horiz-adv-x="524" 
d="M145 369q-7 0 -10 -6.5t-9 -36.5l-4 -21q-5 -23 -2 -27.5t14 -4.5h49l-53 -181q-7 -23 -14.5 -38.5t-17 -24.5t-22.5 -12.5t-30 -3.5q-10 0 -22.5 1.5t-23.5 5.5q-5 1 -8 0.5t-6 -5t-7 -13t-11 -22.5l-3 -6q-13 -27 -13 -36t9 -13q15 -6 37 -10t45 -4q90 0 142 46t75 131
l52 185h98q7 0 10 6.5t9 36.5l4 21q5 23 2 27.5t-14 4.5h-82l11 40q12 45 31 62.5t54 17.5q26 0 49 -6q9 -2 14 4t17 32l6 13q11 26 11 34.5t-9 11.5q-17 5 -38.5 8.5t-45.5 3.5q-89 0 -141 -42.5t-76 -133.5l-12 -45h-65z" />
    <glyph glyph-name="sterling.otab" horiz-adv-x="524" 
d="M388 0q8 0 11.5 7t11.5 39l5 22q5 24 1.5 29.5t-14.5 5.5h-212q43 38 55 120l4 29h130q7 0 10 6.5t9 36.5l4 21q5 23 2 27.5t-14 4.5h-127l7 50q6 42 26.5 66t58.5 24q35 0 64 -13q10 -5 17 0t20 30l7 14q11 21 12 30.5t-9 15.5q-21 13 -50.5 19t-61.5 6
q-49 0 -86.5 -14.5t-64.5 -41t-43.5 -63.5t-23.5 -82l-6 -41h-55q-7 0 -10 -6.5t-9 -36.5l-4 -21q-5 -23 -2 -27.5t14 -4.5h53l-5 -33q-8 -48 -20.5 -76.5t-44.5 -43.5q-11 -5 -15.5 -15t-9.5 -35l-2 -9q-6 -27 -4.5 -33.5t17.5 -6.5h354z" />
    <glyph glyph-name="yen.otab" horiz-adv-x="524" 
d="M341 271l195 289q7 11 -2.5 16.5t-48.5 5.5h-24q-19 0 -30 -1t-17.5 -3t-9.5 -5t-6 -7l-56 -86q-21 -32 -41 -67t-36 -67q-17 69 -42 135l-32 84q-3 9 -16 13t-50 4h-14q-44 0 -54.5 -6t-5.5 -17l109 -288h-74q-11 0 -14 -6t-7 -33l-1 -6q-5 -27 -2 -33.5t14 -6.5h96
l-4 -21h-98q-11 0 -14 -6t-7 -33l-1 -6q-5 -27 -2 -33.5t14 -6.5h96l-9 -62q-1 -5 1 -8.5t8.5 -5.5t19 -3t32.5 -1h9q38 0 51 3.5t15 14.5l9 62h97q6 0 9 1t5 5t3.5 11.5t3.5 21.5l1 6q5 27 2 33.5t-14 6.5h-95l4 21h96q6 0 9.5 1t5.5 5t3.5 11.5t3.5 21.5l1 6q5 27 2 33.5
t-14 6.5h-74z" />
    <glyph glyph-name="numbersign.otab" horiz-adv-x="527" 
d="M203 9q-2 -5 4.5 -7t33.5 -2h17q27 0 34 2t9 7l50 143h67q9 0 12.5 5.5t9.5 35.5l1 5q5 28 2.5 34.5t-12.5 6.5h-49l38 107h68q9 0 12.5 5.5t9.5 35.5l1 5q5 28 2.5 34.5t-12.5 6.5h-51l49 137q2 6 -4.5 9t-32.5 3h-17q-27 0 -33.5 -2.5t-7.5 -6.5l-50 -140h-84l49 137
q2 6 -4.5 9t-33.5 3h-17q-27 0 -33.5 -3t-8.5 -9l-49 -137h-66q-9 0 -12.5 -5.5t-9.5 -35.5l-1 -5q-5 -28 -2.5 -34.5t12.5 -6.5h48l-38 -107h-67q-9 0 -12.5 -5.5t-9.5 -35.5l-1 -5q-5 -28 -2.5 -34.5t12.5 -6.5h49l-50 -143q-2 -5 4.5 -7t32.5 -2h17q27 0 33.5 2t8.5 7
l51 143h84zM239 346h84l-38 -107h-84z" />
    <glyph glyph-name="percent.otab" horiz-adv-x="847" 
d="M207 341q-17 0 -27 12t-10 41q0 14 3 34t10.5 38.5t20 31.5t32.5 13q17 0 26.5 -11.5t9.5 -39.5q0 -14 -3 -34t-10 -39t-20 -32.5t-32 -13.5zM199 260q44 0 77.5 17.5t56 46t33.5 63.5t11 70q0 66 -36.5 100.5t-96.5 34.5q-44 0 -77.5 -17.5t-56 -45.5t-34 -63.5
t-11.5 -70.5q0 -66 37 -100.5t97 -34.5zM189 0q16 0 26.5 0.5t17.5 2.5t11.5 5t8.5 8l441 544q11 14 0 18t-44 4h-9q-17 0 -27.5 -0.5t-17 -2.5t-10 -5t-7.5 -8l-442 -544q-18 -22 41 -22h11zM597 71q-17 0 -27 12t-10 41q0 14 3 34t10.5 38.5t20 31.5t32.5 13
q17 0 26.5 -11.5t9.5 -39.5q0 -14 -3 -34t-10 -39t-20 -32.5t-32 -13.5zM589 -10q44 0 77.5 17.5t56 46t33.5 63.5t11 70q0 66 -36.5 100.5t-96.5 34.5q-44 0 -77.5 -17.5t-56 -45.5t-34 -63.5t-11.5 -70.5q0 -66 37 -100.5t97 -34.5z" />
    <glyph glyph-name="perthousand.otab" horiz-adv-x="1190" 
d="M207 341q-17 0 -27 12t-10 41q0 14 3 34t10.5 38.5t20 31.5t32.5 13q17 0 26.5 -11.5t9.5 -39.5q0 -14 -3 -34t-10 -39t-20 -32.5t-32 -13.5zM199 260q44 0 77.5 17.5t56 46t33.5 63.5t11 70q0 66 -36.5 100.5t-96.5 34.5q-44 0 -77.5 -17.5t-56 -45.5t-34 -63.5
t-11.5 -70.5q0 -66 37 -100.5t97 -34.5zM189 0q16 0 26.5 0.5t17.5 2.5t11.5 5t8.5 8l441 544q11 14 0 18t-44 4h-9q-17 0 -27.5 -0.5t-17 -2.5t-10 -5t-7.5 -8l-442 -544q-18 -22 41 -22h11zM597 71q-17 0 -27 12t-10 41q0 14 3 34t10.5 38.5t20 31.5t32.5 13
q17 0 26.5 -11.5t9.5 -39.5q0 -14 -3 -34t-10 -39t-20 -32.5t-32 -13.5zM589 -10q44 0 77.5 17.5t56 46t33.5 63.5t11 70q0 66 -36.5 100.5t-96.5 34.5q-44 0 -77.5 -17.5t-56 -45.5t-34 -63.5t-11.5 -70.5q0 -66 37 -100.5t97 -34.5zM941 71q-17 0 -27 12t-10 41q0 14 3 34
t10.5 38.5t20 31.5t32.5 13q17 0 26.5 -11.5t9.5 -39.5q0 -14 -3 -34t-10 -39t-20 -32.5t-32 -13.5zM933 -10q44 0 77.5 17.5t56 46t33.5 63.5t11 70q0 66 -36.5 100.5t-96.5 34.5q-44 0 -77.5 -17.5t-56 -45.5t-34 -63.5t-11.5 -70.5q0 -66 37 -100.5t97 -34.5z" />
    <glyph glyph-name="zero.lprop" horiz-adv-x="576" 
d="M315 615q95 0 95 -149q0 -36 -3.5 -76.5t-11 -80.5t-19.5 -77t-28.5 -65t-37.5 -45t-48 -17q-96 0 -96 148q0 58 8.5 121.5t26.5 117t46.5 88.5t67.5 35zM332 730q-75 0 -132.5 -40t-96 -106.5t-58 -153t-19.5 -179.5q0 -131 56.5 -196t162.5 -65q76 0 133 39t95.5 105
t57.5 152.5t19 180.5q0 133 -56.5 198t-161.5 65z" />
    <glyph glyph-name="one.lprop" horiz-adv-x="509" 
d="M80 618q-8 -4 -9.5 -13t8.5 -33l8 -20q11 -27 17 -34.5t17 -2.5l124 51l-65 -458h-127q-7 0 -11 -8t-8 -41l-1 -9q-4 -33 -3 -41.5t8 -8.5h378q7 0 11 8t8 41l1 9q4 33 3 41.5t-8 8.5h-115l84 597q2 8 -4 11.5t-29 3.5h-26q-17 0 -32 -4t-41 -15z" />
    <glyph glyph-name="two.lprop" horiz-adv-x="515" 
d="M95 605q9 -20 17.5 -26.5t16.5 -1.5q34 17 66 28t64 11q35 0 61 -21t26 -67q0 -40 -23 -81q-17 -31 -50.5 -71.5t-93.5 -102.5l-155 -161q-17 -19 -22 -31t-8 -32l-4 -32q-2 -10 4.5 -13.5t35.5 -3.5h382q7 0 10.5 6.5t8.5 39.5l3 23q5 33 2.5 40.5t-9.5 7.5h-249l92 88
q41 39 79.5 79.5t68.5 83t48 88t18 94.5q0 84 -53 132t-149 48q-25 0 -52 -4.5t-53 -12.5t-50 -19t-42 -24q-11 -8 -8.5 -18.5t9.5 -26.5z" />
    <glyph glyph-name="three.lprop" horiz-adv-x="533" 
d="M133 621q8 -23 14.5 -28t18.5 0q26 11 52 18t52 7q38 0 62 -21.5t24 -59.5q0 -27 -11.5 -48.5t-31.5 -35.5q-32 -25 -111 -25h-24q-7 0 -11.5 -8t-8.5 -39l-2 -15q-4 -30 -2 -37.5t9 -7.5h27q32 0 57.5 -4.5t43 -15.5t27 -30.5t9.5 -50.5q0 -27 -10 -48.5t-27 -36.5
t-40.5 -23.5t-50.5 -8.5q-38 0 -72 8.5t-68 25.5q-7 5 -15 0t-24 -32l-11 -19q-15 -25 -16 -33.5t6 -13.5q34 -23 83.5 -36t105.5 -13q61 0 112.5 16.5t88.5 48t58 76.5t21 102t-24 96t-73 56q57 25 90.5 69.5t33.5 101.5q0 78 -50 126t-143 48q-46 0 -91 -11.5t-81 -31.5
q-12 -7 -11.5 -16.5t8.5 -32.5z" />
    <glyph glyph-name="four.lprop" horiz-adv-x="582" 
d="M336 720q-20 0 -31.5 -0.5t-18.5 -2t-10.5 -4.5t-6.5 -8l-235 -436q-8 -14 -11.5 -27t-5.5 -27l-4 -40q-1 -10 6 -12.5t35 -2.5h241l-21 -145q-1 -9 10 -12t52 -3h5q39 0 53 3t15 12l21 145h72q4 0 7 1.5t5 7t4 16t4 27.5l2 15q5 33 2.5 40.5t-11.5 7.5h-69l17 121
q2 9 -11.5 12t-52.5 3h-5q-41 0 -52 -3t-12 -12l-19 -121h-135l234 430q2 4 1 6.5t-7 4.5t-18 3t-33 1h-17z" />
    <glyph glyph-name="five.lprop" horiz-adv-x="518" 
d="M174 720q-29 0 -37 -2.5t-9 -12.5l-49 -345q-3 -18 21 -12q23 5 51.5 8.5t51.5 3.5q58 0 88 -27.5t30 -78.5q0 -31 -10 -58.5t-29 -48t-45 -32.5t-57 -12q-39 0 -67.5 8.5t-58.5 25.5q-8 5 -14.5 -0.5t-20.5 -27.5l-11 -19q-15 -23 -18 -34t5 -16q32 -23 77.5 -36.5
t97.5 -13.5q67 0 121 21.5t92 59.5t58.5 90t20.5 114q0 96 -55 144t-147 48q-8 0 -21.5 -1t-21.5 -2l18 140h231q7 0 11 7.5t9 40.5l3 19q5 31 3 40t-9 9h-309z" />
    <glyph glyph-name="six.lprop" horiz-adv-x="540" 
d="M494 646q11 17 13.5 26t-7.5 17q-20 17 -54 29t-77 12q-56 0 -104.5 -22t-89.5 -64q-36 -37 -64 -87t-47 -106.5t-28.5 -115t-9.5 -112.5q0 -53 11.5 -96t36.5 -73.5t63.5 -47t92.5 -16.5q61 0 110.5 25.5t85 67t54.5 95.5t19 111q0 78 -46 125t-130 47q-34 0 -69.5 -12
t-61.5 -34q9 35 22.5 71t33 65.5t47 48.5t65.5 19q22 0 43 -6.5t42 -17.5q7 -4 13 0.5t20 25.5zM173 317q23 15 52.5 24.5t52.5 9.5q84 0 84 -84q0 -28 -6.5 -57t-20.5 -53t-35 -39.5t-50 -15.5q-41 0 -62.5 30.5t-22.5 93.5q0 17 1.5 39.5t6.5 51.5z" />
    <glyph glyph-name="seven.lprop" horiz-adv-x="476" 
d="M85 720q-6 0 -9 -7.5t-8 -40.5l-3 -20q-5 -33 -2.5 -41t8.5 -8h295l-336 -588q-5 -8 4.5 -11.5t35.5 -3.5h38q39 0 52 2.5t18 12.5l313 572q15 27 20.5 42t7.5 29l6 42q2 11 -5 15.5t-35 4.5h-400z" />
    <glyph glyph-name="eight.lprop" horiz-adv-x="554" 
d="M166 365q-31 -16 -57.5 -36.5t-46 -45.5t-31 -54.5t-11.5 -63.5q0 -41 16.5 -73t45 -55t68 -35t84.5 -12q54 0 103 15.5t86.5 45t60 72.5t22.5 99q0 61 -30 103t-70 66q26 16 49 35t40 41.5t27 48t10 54.5q0 72 -51 116t-143 44q-50 0 -92.5 -16.5t-74.5 -46.5t-50 -71
t-18 -89t17.5 -83.5t45.5 -58.5zM248 315q23 -11 44.5 -22t38 -23.5t26.5 -28t10 -36.5q0 -24 -9.5 -43t-25.5 -32t-35.5 -20t-40.5 -7q-43 0 -69.5 21t-26.5 59q0 44 26.5 78t61.5 54zM320 436q-35 18 -58.5 40t-23.5 57q0 38 26 63t60 25q36 0 56 -19t20 -49
q0 -19 -7.5 -36t-19 -32t-25.5 -27.5t-28 -21.5z" />
    <glyph glyph-name="nine.lprop" horiz-adv-x="557" 
d="M44 74q-11 -18 -13.5 -26.5t7.5 -16.5q24 -19 63 -30t90 -11q62 0 111.5 24t87.5 64.5t64.5 93.5t43.5 110t25 114t8 106q0 52 -13 94t-39 72t-66 46t-94 16q-57 0 -104.5 -23.5t-82.5 -62t-54.5 -88t-19.5 -102.5q0 -80 48.5 -127.5t133.5 -47.5q35 0 71.5 13.5
t60.5 33.5q-9 -39 -23 -79.5t-35 -72.5t-50 -52.5t-68 -20.5q-29 0 -54.5 5.5t-48.5 18.5q-6 4 -13 1t-20 -25zM386 421q-20 -15 -48.5 -24.5t-51.5 -9.5q-88 0 -88 93q0 25 7.5 49.5t21.5 44t34 32t44 12.5q44 0 66 -30t22 -93q0 -17 -2 -38t-5 -36z" />
    <glyph glyph-name="dollar.lprop" horiz-adv-x="546" 
d="M367 829q-21 0 -33 -1t-18.5 -2.5t-9 -4.5t-2.5 -7l-14 -92q-40 -9 -74.5 -29.5t-59.5 -48.5t-39.5 -63t-14.5 -74q0 -41 13 -71t33.5 -52.5t46.5 -39.5t53 -32q19 -10 37 -20.5t31.5 -22.5t22 -27.5t8.5 -36.5q0 -24 -10 -42t-27 -29.5t-38.5 -17t-43.5 -5.5
q-36 0 -72 13t-71 36q-11 7 -19.5 2t-25.5 -31l-14 -23q-16 -25 -18 -35.5t7 -18.5q23 -21 58.5 -36t78.5 -22l-12 -90q-1 -4 0 -7t7 -4.5t18 -2.5t33 -1h7q20 0 32 1t18 2.5t8 4.5t3 7l11 89q48 7 87.5 27t67 50t43 69.5t15.5 86.5q0 41 -13 71.5t-34 53t-47.5 40
t-53.5 33.5q-25 15 -43 27t-30 23.5t-17.5 24t-5.5 27.5q0 19 9 34.5t23.5 26.5t33 17t38.5 6q34 0 60.5 -7.5t58.5 -29.5q8 -6 18 1.5t24 32.5l10 17q14 23 17.5 34t-7.5 19q-23 17 -52 28.5t-62 17.5l13 89q1 8 -8 11.5t-50 3.5h-5z" />
    <glyph glyph-name="cent.lprop" horiz-adv-x="522" 
d="M348 646q-23 0 -35.5 -1t-19 -2.5t-8 -4.5t-1.5 -7l-15 -99q-54 -10 -97.5 -39t-74 -71t-46.5 -94.5t-16 -109.5q0 -92 43.5 -148t115.5 -73l-14 -100q0 -4 0.5 -7t6 -4.5t18 -2.5t35.5 -1h3q22 0 34.5 1t18.5 2.5t8 4.5t2 7l15 100q57 10 105 40q9 6 10 14.5t-7 35.5
l-5 16q-10 30 -16 34.5t-15 -0.5q-56 -28 -110 -28q-55 0 -81.5 31.5t-26.5 89.5q0 33 9.5 66.5t28.5 61t46 44.5t63 17q31 0 55 -8t54 -25q7 -5 15.5 2t23.5 28l12 17q15 21 18.5 32t-4.5 18q-40 32 -101 47l15 101q0 4 -1 7t-6.5 4.5t-17.5 2.5t-34 1h-3z" />
    <glyph glyph-name="Euro.lprop" horiz-adv-x="572" 
d="M53 479q-9 0 -12.5 -7.5t-7.5 -37.5t-2 -38t10 -8h52l-4 -30t-3 -30h-54q-9 0 -12.5 -7.5t-7.5 -37.5t-2 -38t10 -8h66q10 -117 71 -182t170 -65q24 0 49.5 4t50 11t46.5 16t40 20q13 8 13.5 17t-7.5 33l-8 24q-8 25 -13 29t-14 0q-27 -14 -59.5 -22.5t-59.5 -8.5
q-57 0 -89 30t-41 94h155q9 0 12.5 7.5t7.5 37.5t2 38t-10 8h-170q1 14 2.5 29t4.5 31h172q9 0 12.5 7.5t7.5 37.5t2 38t-10 8h-159q22 54 60 91.5t94 37.5q35 0 61.5 -7.5t56.5 -27.5q6 -5 13.5 0.5t23.5 28.5l15 22q17 26 19.5 36t-8.5 18q-35 27 -79 39.5t-98 12.5
q-60 0 -108.5 -20t-86 -54.5t-65 -80t-45.5 -96.5h-64z" />
    <glyph glyph-name="florin.lprop" horiz-adv-x="572" 
d="M185 455q-4 0 -6.5 -1t-5.5 -5.5t-6 -14.5t-8 -27l-2 -7q-5 -17 -7 -27.5t-2 -16t2.5 -7t5.5 -1.5h73l-66 -236q-15 -54 -39.5 -81.5t-72.5 -27.5q-14 0 -28 2t-26 5q-10 2 -15 -3.5t-16 -34.5l-6 -17q-10 -29 -10.5 -37.5t7.5 -11.5q20 -8 44 -12t50 -4q100 0 159 58.5
t87 159.5l67 240h112q4 0 6.5 1t5.5 5.5t6 14.5t8 27l2 7q10 34 9 43t-8 9h-111l14 53q14 54 39 81.5t73 27.5q14 0 28 -2t26 -5q10 -2 15 3.5t16 34.5l6 17q10 29 10.5 37.5t-7.5 11.5q-20 8 -44 12t-50 4q-100 0 -160 -58t-86 -160l-15 -57h-74z" />
    <glyph glyph-name="sterling.lprop" horiz-adv-x="565" 
d="M92 428q-3 0 -5.5 -1t-4.5 -6t-4 -15t-5 -28l-1 -7q-5 -34 -3 -42t10 -8h66l-7 -50q-5 -35 -11 -59.5t-15.5 -42.5t-23.5 -31.5t-34 -25.5q-11 -6 -16 -15t-9 -38l-1 -7q-5 -32 -3.5 -42t12.5 -10h411q5 0 8.5 1.5t6 7t4.5 16.5t5 30l1 7q3 19 3.5 29.5t-0.5 15.5t-4 6.5
t-8 1.5h-262q29 20 48 58.5t27 102.5l6 45h156q7 0 11 7.5t9 42.5l1 7q5 36 3.5 43t-9.5 7h-155l8 57q9 66 35 99t74 33q23 0 41.5 -5t38.5 -15q8 -4 15 2t20 35l8 18q11 23 12 32t-7 14q-28 16 -59.5 24t-69.5 8q-108 0 -169 -66t-78 -182l-8 -54h-68z" />
    <glyph glyph-name="yen.lprop" horiz-adv-x="559" 
d="M122 720q-45 0 -55 -4t-7 -13l129 -374h-100q-9 0 -12.5 -7.5t-7.5 -37.5t-2 -38t10 -8h123l-7 -45h-123q-9 0 -12.5 -7.5t-7.5 -37.5t-2 -38t10 -8h122l-12 -87q-2 -9 10 -12t53 -3h11q39 0 53 3t16 12l12 87h124q9 0 12.5 7.5t7.5 37.5t2 38t-10 8h-123l7 45h123
q9 0 12.5 7.5t7.5 37.5t2 38t-10 8h-99l236 375q6 9 -3.5 12.5t-50.5 3.5h-24q-20 0 -32 -1t-19 -2.5t-10 -4.5t-6 -7l-89 -151q-23 -39 -43.5 -79t-34.5 -67q-5 28 -17 68t-25 78l-50 150q-3 9 -16.5 12.5t-54.5 3.5h-18z" />
    <glyph glyph-name="numbersign.lprop" horiz-adv-x="582" 
d="M273 430h97l-46 -134h-97zM117 538q-10 0 -14 -9.5t-10 -38.5l-1 -5q-4 -20 -5.5 -31t0 -16.5t5 -6.5t9.5 -1h58l-45 -134h-81q-10 0 -14 -9.5t-10 -38.5l-1 -5q-4 -20 -5.5 -31t0 -16.5t5 -6.5t9.5 -1h60l-60 -177q-2 -5 5 -8t38 -3h20q31 0 39 3t10 8l62 177h97
l-61 -177q-1 -3 0 -5t5.5 -3.5t13.5 -2t25 -0.5h20q31 0 39 3t10 8l61 177h1h79q9 0 13 9.5t10 38.5l1 5q4 20 5.5 31t0 16.5t-5 6.5t-9.5 1h-57l45 134h80q10 0 14 9.5t10 38.5l1 5q4 20 5.5 31t0 16.5t-5 6.5t-9.5 1h-59l57 171q2 5 -5.5 8t-38.5 3h-20q-16 0 -25 -0.5
t-13.5 -2t-6.5 -3.5t-3 -5l-59 -171h-97l58 171q1 3 0 5t-6 3.5t-14 2t-25 0.5h-20q-31 0 -38.5 -3t-9.5 -8l-58 -171h-80z" />
    <glyph glyph-name="percent.lprop" horiz-adv-x="949" 
d="M271 643q24 0 39.5 -18.5t15.5 -60.5q0 -22 -4 -49.5t-14 -51.5t-26.5 -40.5t-40.5 -16.5t-39.5 18.5t-15.5 60.5q0 22 4.5 49.5t14.5 51.5t26 40.5t40 16.5zM744 720q-18 0 -27.5 -0.5t-15 -2t-8 -3.5t-5.5 -6l-530 -694q-5 -7 4 -10.5t37 -3.5h24q18 0 28 0.5t15.5 2
t8.5 3.5t6 6l530 694q11 14 -43 14h-24zM283 730q-50 0 -88 -21t-63.5 -56t-38.5 -79.5t-13 -90.5q0 -82 41 -123t107 -41q52 0 90 21t63.5 56t38 79t12.5 91q0 82 -41 123t-108 41zM723 314q24 0 39.5 -18.5t15.5 -60.5q0 -22 -4 -49.5t-14 -51.5t-26.5 -40.5t-40.5 -16.5
t-39.5 18.5t-15.5 60.5q0 22 4.5 49.5t14.5 51.5t26 40.5t40 16.5zM735 401q-50 0 -88 -21t-63.5 -56t-38.5 -79.5t-13 -90.5q0 -82 41 -123t107 -41q52 0 90 21t63.5 56t38 79t12.5 91q0 82 -41 123t-108 41z" />
    <glyph glyph-name="perthousand.lprop" horiz-adv-x="1338" 
d="M271 643q24 0 39.5 -18.5t15.5 -60.5q0 -22 -4 -49.5t-14 -51.5t-26.5 -40.5t-40.5 -16.5t-39.5 18.5t-15.5 60.5q0 22 4.5 49.5t14.5 51.5t26 40.5t40 16.5zM744 720q-18 0 -27.5 -0.5t-15 -2t-8 -3.5t-5.5 -6l-530 -694q-5 -7 4 -10.5t37 -3.5h24q18 0 28 0.5t15.5 2
t8.5 3.5t6 6l530 694q11 14 -43 14h-24zM283 730q-50 0 -88 -21t-63.5 -56t-38.5 -79.5t-13 -90.5q0 -82 41 -123t107 -41q52 0 90 21t63.5 56t38 79t12.5 91q0 82 -41 123t-108 41zM723 314q24 0 39.5 -18.5t15.5 -60.5q0 -22 -4 -49.5t-14 -51.5t-26.5 -40.5t-40.5 -16.5
t-39.5 18.5t-15.5 60.5q0 22 4.5 49.5t14.5 51.5t26 40.5t40 16.5zM735 401q-50 0 -88 -21t-63.5 -56t-38.5 -79.5t-13 -90.5q0 -82 41 -123t107 -41q52 0 90 21t63.5 56t38 79t12.5 91q0 82 -41 123t-108 41zM1113 314q24 0 39.5 -18.5t15.5 -60.5q0 -22 -4 -49.5
t-14 -51.5t-26.5 -40.5t-40.5 -16.5t-39.5 18.5t-15.5 60.5q0 22 4.5 49.5t14.5 51.5t26 40.5t40 16.5zM1125 401q-50 0 -88 -21t-63.5 -56t-38.5 -79.5t-13 -90.5q0 -82 41 -123t107 -41q52 0 90 21t63.5 56t38 79t12.5 91q0 82 -41 123t-108 41z" />
    <glyph glyph-name="zero.oprop" horiz-adv-x="577" 
d="M256 97q-48 0 -72.5 29.5t-24.5 84.5q0 42 7 90t24 89t44.5 68t69.5 27q45 0 69.5 -29.5t24.5 -84.5q0 -42 -7 -90t-23.5 -89t-44 -68t-67.5 -27zM245 -10q75 0 130.5 33t91.5 86.5t53.5 122.5t17.5 141q0 46 -15 86.5t-44 69.5t-71 46t-96 17q-75 0 -130.5 -33
t-91.5 -86.5t-53.5 -122.5t-17.5 -141q0 -47 15 -87t44 -69t71 -46t96 -17z" />
    <glyph glyph-name="one.oprop" horiz-adv-x="509" 
d="M415 0q7 0 12 7.5t8 36.5l1 11q3 29 0.5 37t-9.5 8h-114l68 462q2 11 -4 15.5t-29 4.5h-26q-17 0 -32 -3t-41 -12l-184 -64q-8 -2 -7.5 -12.5t10.5 -35.5l5 -13q10 -25 17 -30t18 -1l122 36l-53 -347h-125q-7 0 -12 -7.5t-8 -36.5l-1 -11q-3 -29 -0.5 -37t9.5 -8h375z
" />
    <glyph glyph-name="two.oprop" horiz-adv-x="515" 
d="M412 0q8 0 11 9t7 35l2 14q4 34 1 41.5t-10 7.5h-228l70 50q55 39 94 74t63.5 67t35.5 64t11 65q0 41 -15.5 72t-42 51.5t-62 31t-76.5 10.5q-30 0 -60.5 -5t-58 -12.5t-50.5 -17t-37 -18.5q-6 -4 -8.5 -7t-2 -8t4.5 -13l11 -22l6 -12q12 -23 19 -29t18 -1q33 15 64 26.5
t66 11.5q34 0 60.5 -16t26.5 -59q0 -26 -11 -49.5t-31.5 -46t-49 -45.5t-63.5 -50l-156 -119q-9 -7 -14 -12.5t-8 -11.5t-4.5 -13.5t-2.5 -17.5l-3 -25q-2 -14 5 -17t36 -3h382z" />
    <glyph glyph-name="three.oprop" horiz-adv-x="533" 
d="M98 483q8 -23 14.5 -28t18.5 0q26 11 52 18t52 7q38 0 62 -21.5t24 -59.5q0 -27 -11.5 -48.5t-31.5 -35.5q-32 -25 -111 -25h-24q-7 0 -11.5 -8t-8.5 -39l-2 -15q-4 -30 -2 -37.5t9 -7.5h27q32 0 57.5 -4.5t43 -15.5t27 -30.5t9.5 -50.5q0 -27 -10 -48.5t-27 -36.5
t-40.5 -23.5t-50.5 -8.5q-38 0 -72 8.5t-68 25.5q-7 5 -15 0t-24 -32l-11 -19q-15 -25 -16 -33.5t6 -13.5q34 -23 83.5 -36t105.5 -13q61 0 112.5 16.5t88.5 48t58 76.5t21 102t-24 96t-73 56q57 25 90.5 69.5t33.5 101.5q0 78 -50 126t-143 48q-46 0 -91 -11.5t-81 -31.5
q-12 -7 -11.5 -16.5t8.5 -32.5z" />
    <glyph glyph-name="four.oprop" horiz-adv-x="582" 
d="M326 582q-20 0 -31.5 -0.5t-18.5 -2t-10.5 -4.5t-6.5 -8l-235 -436q-8 -14 -11.5 -27t-5.5 -27l-4 -40q-1 -10 6 -12.5t35 -2.5h241l-21 -145q-1 -9 10 -12t52 -3h5q39 0 53 3t15 12l21 145h72q4 0 7 1.5t5 7t4 16t4 27.5l2 15q5 33 2.5 40.5t-11.5 7.5h-69l17 121
q2 9 -11.5 12t-52.5 3h-5q-41 0 -52 -3t-12 -12l-19 -121h-135l234 430q2 4 1 6.5t-7 4.5t-18 3t-33 1h-17z" />
    <glyph glyph-name="five.oprop" horiz-adv-x="518" 
d="M158 582q-29 0 -37 -2.5t-9 -12.5l-49 -345q-3 -18 21 -12q23 5 51.5 8.5t51.5 3.5q58 0 88 -27.5t30 -78.5q0 -31 -10 -58.5t-29 -48t-45 -32.5t-57 -12q-39 0 -67.5 8.5t-58.5 25.5q-8 5 -14.5 -0.5t-20.5 -27.5l-11 -19q-15 -23 -18 -34t5 -16q32 -23 77.5 -36.5
t97.5 -13.5q67 0 121 21.5t92 59.5t58.5 90t20.5 114q0 96 -55 144t-147 48q-8 0 -21.5 -1t-21.5 -2l18 140h231q7 0 11 7.5t9 40.5l3 19q5 31 3 40t-9 9h-309z" />
    <glyph glyph-name="six.oprop" horiz-adv-x="540" 
d="M488 646q11 17 13.5 26t-7.5 17q-20 17 -54 29t-77 12q-56 0 -104.5 -22t-89.5 -64q-36 -37 -64 -87t-47 -106.5t-28.5 -115t-9.5 -112.5q0 -53 11.5 -96t36.5 -73.5t63.5 -47t92.5 -16.5q61 0 110.5 25.5t85 67t54.5 95.5t19 111q0 78 -46 125t-130 47q-34 0 -69.5 -12
t-61.5 -34q9 35 22.5 71t33 65.5t47 48.5t65.5 19q22 0 43 -6.5t42 -17.5q7 -4 13 0.5t20 25.5zM167 317q23 15 52.5 24.5t52.5 9.5q84 0 84 -84q0 -28 -6.5 -57t-20.5 -53t-35 -39.5t-50 -15.5q-41 0 -62.5 30.5t-22.5 93.5q0 17 1.5 39.5t6.5 51.5z" />
    <glyph glyph-name="seven.oprop" horiz-adv-x="476" 
d="M65 582q-6 0 -9 -7.5t-8 -40.5l-3 -20q-5 -33 -2.5 -41t8.5 -8h295l-336 -588q-5 -8 4.5 -11.5t35.5 -3.5h38q39 0 52 2.5t18 12.5l313 572q15 27 20.5 42t7.5 29l6 42q2 11 -5 15.5t-35 4.5h-400z" />
    <glyph glyph-name="eight.oprop" horiz-adv-x="554" 
d="M156 365q-31 -16 -57.5 -36.5t-46 -45.5t-31 -54.5t-11.5 -63.5q0 -41 16.5 -73t45 -55t68 -35t84.5 -12q54 0 103 15.5t86.5 45t60 72.5t22.5 99q0 61 -30 103t-70 66q26 16 49 35t40 41.5t27 48t10 54.5q0 72 -51 116t-143 44q-50 0 -92.5 -16.5t-74.5 -46.5t-50 -71
t-18 -89t17.5 -83.5t45.5 -58.5zM238 315q23 -11 44.5 -22t38 -23.5t26.5 -28t10 -36.5q0 -24 -9.5 -43t-25.5 -32t-35.5 -20t-40.5 -7q-43 0 -69.5 21t-26.5 59q0 44 26.5 78t61.5 54zM310 436q-35 18 -58.5 40t-23.5 57q0 38 26 63t60 25q36 0 56 -19t20 -49
q0 -19 -7.5 -36t-19 -32t-25.5 -27.5t-28 -21.5z" />
    <glyph glyph-name="nine.oprop" horiz-adv-x="557" 
d="M24 -64q-11 -18 -13.5 -26.5t7.5 -16.5q24 -19 63 -30t90 -11q62 0 111.5 24t87.5 64.5t64.5 93.5t43.5 110t25 114t8 106q0 52 -13 94t-39 72t-66 46t-94 16q-57 0 -104.5 -23.5t-82.5 -62t-54.5 -88t-19.5 -102.5q0 -80 48.5 -127.5t133.5 -47.5q35 0 71.5 13.5
t60.5 33.5q-9 -39 -23 -79.5t-35 -72.5t-50 -52.5t-68 -20.5q-29 0 -54.5 5.5t-48.5 18.5q-6 4 -13 1t-20 -25zM366 283q-20 -15 -48.5 -24.5t-51.5 -9.5q-88 0 -88 93q0 25 7.5 49.5t21.5 44t34 32t44 12.5q44 0 66 -30t22 -93q0 -17 -2 -38t-5 -36z" />
    <glyph glyph-name="dollar.oprop" horiz-adv-x="510" 
d="M182 -92q21 0 33.5 1t18.5 3t8 6t2 9l10 71q39 8 72 24.5t56.5 40.5t37 54.5t13.5 66.5q0 37 -15.5 64t-38.5 47t-50.5 35t-50.5 29t-38.5 28.5t-15.5 34.5q0 31 21.5 46.5t57.5 15.5q26 0 47.5 -8t46.5 -24q11 -8 20 -4.5t26 32.5l9 15q14 24 16.5 34t-8.5 19
q-18 14 -42.5 22.5t-50.5 13.5l10 72q1 5 0 8.5t-7 5.5t-17.5 3t-32.5 1h-6q-20 0 -31.5 -1t-17.5 -3t-8 -5.5t-2 -8.5l-11 -76q-35 -7 -63.5 -22t-49.5 -36.5t-32.5 -49t-11.5 -59.5q0 -40 15.5 -68t39 -48.5t50.5 -35.5t50.5 -29t39 -29t15.5 -35q0 -37 -25.5 -52.5
t-60.5 -15.5t-66 12t-57 32q-11 8 -21 2t-25 -30l-12 -19q-14 -22 -16 -31.5t7 -17.5q18 -17 46.5 -29t64.5 -20l-10 -72q-1 -5 -0.5 -9t5.5 -6t16.5 -3t32.5 -1h6z" />
    <glyph glyph-name="cent.oprop" horiz-adv-x="503" 
d="M216 -17q-20 0 -31 0.5t-16.5 2t-7 5t-0.5 9.5l11 76q-57 12 -87 42q-24 24 -36 58t-12 74q0 27 5.5 55t16.5 55t27.5 51.5t39.5 43.5q42 35 107 50l11 78q1 6 2.5 9t7.5 5t17.5 2.5t32.5 0.5h5q21 0 32.5 -0.5t17 -2.5t6.5 -5.5t1 -8.5l-12 -77q25 -5 49.5 -17.5
t35.5 -23.5q7 -8 4 -16t-18 -31l-9 -14q-8 -13 -14 -20t-10.5 -10t-8.5 -2t-8 4q-20 14 -40.5 22t-40.5 8q-34 0 -57.5 -13.5t-38.5 -34t-21.5 -45.5t-6.5 -49q0 -88 91 -88q26 0 45.5 6t41.5 16q14 6 20 1.5t14 -32.5l3 -12q6 -24 5 -31t-9 -13q-14 -10 -37.5 -19
t-49.5 -14l-11 -78q-1 -5 -2.5 -8.5t-7.5 -5.5t-18 -2.5t-33 -0.5h-6z" />
    <glyph glyph-name="Euro.oprop" horiz-adv-x="516" 
d="M36 270q-8 0 -11 -5.5t-6 -32.5l-1 -8q-3 -26 -1.5 -32t9.5 -6h52q3 -41 18 -76t42 -61.5t65.5 -41.5t87.5 -15q45 0 85.5 11.5t76.5 32.5q11 6 12.5 13.5t-7.5 32.5l-6 16q-9 23 -14 27t-13 -1q-53 -25 -106 -25q-46 0 -70.5 25.5t-29.5 61.5h130q8 0 11 5.5t6 32.5l1 8
q4 27 2 32.5t-10 5.5h-142q1 11 2 18.5t3 15.5h145q8 0 11 5.5t6 32.5l1 8q4 27 2 32.5t-10 5.5h-132q18 46 49.5 71t73.5 25q29 0 49.5 -6.5t41.5 -20.5q4 -3 8 -4.5t8.5 0.5t11 9t16.5 21l11 15q18 25 19 33.5t-6 13.5q-32 23 -68.5 34t-86.5 11q-100 0 -167 -52.5
t-98 -149.5h-56q-8 0 -11 -5.5t-6 -32.5l-1 -8q-3 -26 -1.5 -32t9.5 -6h44q-2 -6 -3 -16t-2 -18h-44z" />
    <glyph glyph-name="florin.oprop" horiz-adv-x="519" 
d="M151 369q-7 0 -10 -6.5t-9 -36.5l-4 -21q-5 -23 -2 -27.5t14 -4.5h49l-53 -181q-7 -23 -14.5 -38.5t-17 -24.5t-22.5 -12.5t-30 -3.5q-10 0 -22.5 1.5t-23.5 5.5q-5 1 -8 0.5t-6 -5t-7 -13t-11 -22.5l-3 -6q-13 -27 -13 -36t9 -13q15 -6 37 -10t45 -4q90 0 142 46t75 131
l52 185h98q7 0 10 6.5t9 36.5l4 21q5 23 2 27.5t-14 4.5h-82l11 40q12 45 31 62.5t54 17.5q26 0 49 -6q9 -2 14 4t17 32l6 13q11 26 11 34.5t-9 11.5q-17 5 -38.5 8.5t-45.5 3.5q-89 0 -141 -42.5t-76 -133.5l-12 -45h-65z" />
    <glyph glyph-name="sterling.oprop" horiz-adv-x="519" 
d="M385 0q8 0 11.5 7t11.5 39l5 22q5 24 1.5 29.5t-14.5 5.5h-212q43 38 55 120l4 29h130q7 0 10 6.5t9 36.5l4 21q5 23 2 27.5t-14 4.5h-127l7 50q6 42 26.5 66t58.5 24q35 0 64 -13q10 -5 17 0t20 30l7 14q11 21 12 30.5t-9 15.5q-21 13 -50.5 19t-61.5 6
q-49 0 -86.5 -14.5t-64.5 -41t-43.5 -63.5t-23.5 -82l-6 -41h-55q-7 0 -10 -6.5t-9 -36.5l-4 -21q-5 -23 -2 -27.5t14 -4.5h53l-5 -33q-8 -48 -20.5 -76.5t-44.5 -43.5q-11 -5 -15.5 -15t-9.5 -35l-2 -9q-6 -27 -4.5 -33.5t17.5 -6.5h354z" />
    <glyph glyph-name="yen.oprop" horiz-adv-x="514" 
d="M336 271l195 289q7 11 -2.5 16.5t-48.5 5.5h-24q-19 0 -30 -1t-17.5 -3t-9.5 -5t-6 -7l-56 -86q-21 -32 -41 -67t-36 -67q-17 69 -42 135l-32 84q-3 9 -16 13t-50 4h-14q-44 0 -54.5 -6t-5.5 -17l109 -288h-74q-11 0 -14 -6t-7 -33l-1 -6q-5 -27 -2 -33.5t14 -6.5h96
l-4 -21h-98q-11 0 -14 -6t-7 -33l-1 -6q-5 -27 -2 -33.5t14 -6.5h96l-9 -62q-1 -5 1 -8.5t8.5 -5.5t19 -3t32.5 -1h9q38 0 51 3.5t15 14.5l9 62h97q6 0 9 1t5 5t3.5 11.5t3.5 21.5l1 6q5 27 2 33.5t-14 6.5h-95l4 21h96q6 0 9.5 1t5.5 5t3.5 11.5t3.5 21.5l1 6q5 27 2 33.5
t-14 6.5h-74z" />
    <glyph glyph-name="numbersign.oprop" horiz-adv-x="528" 
d="M198 9q-2 -5 4.5 -7t33.5 -2h17q27 0 34 2t9 7l50 143h67q9 0 12.5 5.5t9.5 35.5l1 5q5 28 2.5 34.5t-12.5 6.5h-49l38 107h68q9 0 12.5 5.5t9.5 35.5l1 5q5 28 2.5 34.5t-12.5 6.5h-51l49 137q2 6 -4.5 9t-32.5 3h-17q-27 0 -33.5 -2.5t-7.5 -6.5l-50 -140h-84l49 137
q2 6 -4.5 9t-33.5 3h-17q-27 0 -33.5 -3t-8.5 -9l-49 -137h-66q-9 0 -12.5 -5.5t-9.5 -35.5l-1 -5q-5 -28 -2.5 -34.5t12.5 -6.5h48l-38 -107h-67q-9 0 -12.5 -5.5t-9.5 -35.5l-1 -5q-5 -28 -2.5 -34.5t12.5 -6.5h49l-50 -143q-2 -5 4.5 -7t32.5 -2h17q27 0 33.5 2t8.5 7
l51 143h84zM234 346h84l-38 -107h-84z" />
    <glyph glyph-name="percent.oprop" horiz-adv-x="847" 
d="M208 341q-17 0 -27 12t-10 41q0 14 3 34t10.5 38.5t20 31.5t32.5 13q17 0 26.5 -11.5t9.5 -39.5q0 -14 -3 -34t-10 -39t-20 -32.5t-32 -13.5zM200 260q44 0 77.5 17.5t56 46t33.5 63.5t11 70q0 66 -36.5 100.5t-96.5 34.5q-44 0 -77.5 -17.5t-56 -45.5t-34 -63.5
t-11.5 -70.5q0 -66 37 -100.5t97 -34.5zM190 0q16 0 26.5 0.5t17.5 2.5t11.5 5t8.5 8l441 544q11 14 0 18t-44 4h-9q-17 0 -27.5 -0.5t-17 -2.5t-10 -5t-7.5 -8l-442 -544q-18 -22 41 -22h11zM598 71q-17 0 -27 12t-10 41q0 14 3 34t10.5 38.5t20 31.5t32.5 13
q17 0 26.5 -11.5t9.5 -39.5q0 -14 -3 -34t-10 -39t-20 -32.5t-32 -13.5zM590 -10q44 0 77.5 17.5t56 46t33.5 63.5t11 70q0 66 -36.5 100.5t-96.5 34.5q-44 0 -77.5 -17.5t-56 -45.5t-34 -63.5t-11.5 -70.5q0 -66 37 -100.5t97 -34.5z" />
    <glyph glyph-name="perthousand.oprop" horiz-adv-x="1190" 
d="M208 341q-17 0 -27 12t-10 41q0 14 3 34t10.5 38.5t20 31.5t32.5 13q17 0 26.5 -11.5t9.5 -39.5q0 -14 -3 -34t-10 -39t-20 -32.5t-32 -13.5zM200 260q44 0 77.5 17.5t56 46t33.5 63.5t11 70q0 66 -36.5 100.5t-96.5 34.5q-44 0 -77.5 -17.5t-56 -45.5t-34 -63.5
t-11.5 -70.5q0 -66 37 -100.5t97 -34.5zM190 0q16 0 26.5 0.5t17.5 2.5t11.5 5t8.5 8l441 544q11 14 0 18t-44 4h-9q-17 0 -27.5 -0.5t-17 -2.5t-10 -5t-7.5 -8l-442 -544q-18 -22 41 -22h11zM598 71q-17 0 -27 12t-10 41q0 14 3 34t10.5 38.5t20 31.5t32.5 13
q17 0 26.5 -11.5t9.5 -39.5q0 -14 -3 -34t-10 -39t-20 -32.5t-32 -13.5zM590 -10q44 0 77.5 17.5t56 46t33.5 63.5t11 70q0 66 -36.5 100.5t-96.5 34.5q-44 0 -77.5 -17.5t-56 -45.5t-34 -63.5t-11.5 -70.5q0 -66 37 -100.5t97 -34.5zM942 71q-17 0 -27 12t-10 41q0 14 3 34
t10.5 38.5t20 31.5t32.5 13q17 0 26.5 -11.5t9.5 -39.5q0 -14 -3 -34t-10 -39t-20 -32.5t-32 -13.5zM934 -10q44 0 77.5 17.5t56 46t33.5 63.5t11 70q0 66 -36.5 100.5t-96.5 34.5q-44 0 -77.5 -17.5t-56 -45.5t-34 -63.5t-11.5 -70.5q0 -66 37 -100.5t97 -34.5z" />
    <glyph glyph-name="a.sup" horiz-adv-x="378" 
d="M291 305q17 0 26 1t13.5 3t6 5t1.5 8q1 13 2.5 30t3.5 36l4 38t5 36l8 53l19 125q1 8 -7 10.5t-36 2.5h-4q-29 0 -35.5 -3t-7.5 -8l-5 -16q-11 16 -31.5 25t-46.5 9q-30 0 -60 -13.5t-54.5 -41t-40 -70.5t-15.5 -102q0 -63 31.5 -99t88.5 -36q27 0 47.5 9t38.5 29v-6
q0 -9 1 -14t5 -7.5t13 -3t26 -0.5h3zM247 441q-4 -33 -19 -46q-13 -13 -37 -13q-26 0 -36.5 16.5t-10.5 44.5q0 61 22 96t54 35q14 0 25 -6.5t17 -17.5z" />
    <glyph glyph-name="b.sup" horiz-adv-x="379" 
d="M38 347q-1 -13 7 -20q7 -6 21 -11.5t30.5 -9.5t35 -6t36.5 -2q100 0 154.5 58.5t54.5 169.5q0 63 -31 98.5t-87 35.5q-41 0 -76 -24l22 156q2 9 -7.5 12t-41.5 3h-8q-32 0 -39 -3t-8 -11zM168 528q3 18 7 26t12 13q5 4 14.5 6t20.5 2q20 0 34 -12t14 -46
q0 -72 -25 -103.5t-63 -31.5q-23 0 -34 4z" />
    <glyph glyph-name="c.sup" horiz-adv-x="325" 
d="M299 376q-5 23 -9.5 26.5t-15.5 -2.5q-14 -7 -30.5 -11.5t-35.5 -4.5q-63 0 -63 70q0 26 7 51.5t24 43.5q22 25 56 25q19 0 33.5 -5t24.5 -13q6 -5 11 -1t20 24l8 11q13 18 15 25t-3 12q-38 33 -102 33q-41 0 -73.5 -12t-56.5 -34q-36 -32 -53.5 -77t-17.5 -90
q0 -69 36 -108q17 -19 45.5 -30t65.5 -11q64 0 114 31q7 4 6.5 11t-4.5 26z" />
    <glyph glyph-name="d.sup" horiz-adv-x="399" 
d="M368 352q4 20 3 25t-9 5h-3q-13 0 -12 14l56 397q1 7 -6.5 10.5t-41.5 3.5h-4q-18 0 -28.5 -1t-15.5 -3t-6.5 -4.5t-1.5 -6.5l-22 -155q-25 23 -62 23q-68 0 -115 -50q-34 -36 -48 -86t-14 -95q0 -62 32 -96.5t88 -34.5t89 38q5 -16 20 -25t37 -9q14 0 26 2t23 7
q6 3 8 10t6 26zM249 438q-2 -18 -5.5 -27t-8.5 -14q-6 -6 -16.5 -10t-24.5 -4q-28 0 -38.5 15.5t-10.5 46.5q0 22 4.5 45.5t13.5 42t23 30.5t34 12q28 0 45 -22z" />
    <glyph glyph-name="e.sup" horiz-adv-x="366" 
d="M325 382q-4 17 -8.5 21.5t-10.5 2.5q-27 -12 -49.5 -17.5t-45.5 -5.5q-31 0 -48 15t-18 46h195q9 0 12.5 6t7.5 31q3 21 3 42q0 61 -32.5 99t-98.5 38q-42 0 -76 -15t-59 -42q-30 -32 -45 -75t-15 -85q0 -69 40 -107t111 -38q35 0 68 8t66 25q7 4 8.5 10.5t-2.5 24.5z
M154 511q7 33 24.5 50.5t40.5 17.5q24 0 33.5 -16t9.5 -38q0 -8 -2 -14h-106z" />
    <glyph glyph-name="f.sup" horiz-adv-x="251" 
d="M192 579h67q8 0 10 5t7 30l1 5q5 24 2.5 29t-10.5 5h-67l2 13q5 36 17 50q12 15 40 15q17 0 39 -5q7 -2 10.5 2.5t11.5 25.5l4 10q8 19 8.5 27t-5.5 10q-13 5 -33 8.5t-41 3.5q-32 0 -58.5 -9t-45.5 -26q-20 -19 -32 -46.5t-19 -62.5l-3 -16h-39q-7 0 -10 -4.5t-7 -27.5
l-1 -7q-3 -23 -1 -29t9 -6h40l-58 -413q-1 -4 -0.5 -6.5t5 -4t15 -2.5t28.5 -1h3q34 0 42.5 3t9.5 11z" />
    <glyph glyph-name="g.sup" horiz-adv-x="381" 
d="M236 322q-7 -49 -26 -68t-53 -19q-17 0 -36.5 5.5t-33.5 13.5q-7 4 -13 -1.5t-17 -26.5l-6 -11q-11 -20 -12 -26.5t5 -10.5q18 -12 47.5 -19.5t59.5 -7.5q82 0 127 44q47 44 60 138l30 215q5 36 7.5 55t2.5 33q0 10 -7 13.5t-29 3.5h-7q-17 0 -26 -1.5t-11 -9.5l-5 -18
q-12 16 -33 26t-47 10q-69 0 -116 -53q-31 -35 -45 -80t-14 -87q0 -65 31.5 -101t89.5 -36q45 0 78 26zM250 445q-2 -18 -4.5 -27.5t-7.5 -15.5q-12 -15 -42 -15q-51 0 -51 63q0 26 7.5 53.5t19.5 44.5q19 27 49 27q16 0 26.5 -7t17.5 -18z" />
    <glyph glyph-name="h.sup" horiz-adv-x="385" 
d="M292 305q34 0 42 3t9 11l28 196q3 22 3 40q0 46 -25.5 75.5t-79.5 29.5q-22 0 -44.5 -7.5t-38.5 -20.5l23 160q1 6 -8.5 10.5t-42.5 4.5h-5q-31 0 -39 -3.5t-9 -11.5l-67 -473q0 -4 1 -7t6 -4.5t15 -2t27 -0.5h3q17 0 27 1t15.5 2.5t7 4t2.5 6.5l21 151q4 26 6.5 41.5
t5 24.5t5 13.5t6.5 8.5q13 15 44 15q18 0 28.5 -8t10.5 -28q0 -8 -1.5 -18t-3.5 -26l-24 -174q-2 -9 8 -11.5t41 -2.5h3z" />
    <glyph glyph-name="i.sup" horiz-adv-x="191" 
d="M93 305q17 0 26.5 1t15 2.5t7 4t2.5 6.5l45 320q0 4 -1 6.5t-5.5 4t-14 2.5t-26.5 1h-3q-19 0 -29.5 -1t-15.5 -2.5t-6.5 -4t-2.5 -6.5l-45 -319q0 -4 0.5 -7t5 -4.5t15 -2.5t28.5 -1h4zM144 692q15 0 28 6t23 15.5t15.5 22t5.5 25.5q0 22 -15 38t-40 16q-15 0 -27.5 -6
t-22.5 -16t-15.5 -23t-5.5 -26q0 -22 15 -37t39 -15z" />
    <glyph glyph-name="j.sup" horiz-adv-x="252" 
d="M96 296q-3 -20 -6.5 -30.5t-8.5 -18.5q-9 -13 -33 -13q-16 0 -33 5q-10 2 -14 -4t-12 -26l-4 -11q-7 -19 -7.5 -24.5t6.5 -9.5q9 -5 28 -9t39 -4q59 0 97 35q20 19 34 48.5t20 74.5l46 330q1 4 0 7t-6 4.5t-15 2t-27 0.5h-5q-17 0 -27 -1t-15.5 -2.5t-7 -4t-1.5 -6.5z
M203 692q15 0 28 6t23 15.5t15.5 22t5.5 25.5q0 22 -15 38t-40 16q-15 0 -27.5 -6t-22.5 -16t-15.5 -23t-5.5 -26q0 -22 15 -37t39 -15z" />
    <glyph glyph-name="k.sup" horiz-adv-x="348" 
d="M289 305q37 0 45 6.5t3 14.5l-99 170q19 17 38 36t36 38t30.5 36t21.5 30q6 9 -0.5 13t-38.5 4h-11q-26 0 -35 -1.5t-14 -8.5q-20 -27 -45 -53.5t-52 -52.5l36 255q1 8 -7 11.5t-41 3.5h-6q-17 0 -27 -1t-15 -3t-6.5 -4.5t-1.5 -6.5l-67 -473q0 -4 0.5 -6.5t5 -4
t14.5 -2.5t27 -1h5q17 0 27.5 1t15.5 2.5t7 4t2 6.5l19 131l67 -134q3 -6 13 -8.5t44 -2.5h9z" />
    <glyph glyph-name="l.sup" horiz-adv-x="199" 
d="M177 348q3 22 2.5 27.5t-8.5 5.5h-9q-11 0 -12.5 6.5t0.5 17.5l28 198q4 30 8 59.5t7 55t4.5 45t1.5 29.5q0 8 -8.5 11.5t-40.5 3.5h-6q-17 0 -26.5 -0.5t-14 -2t-6 -4t-1.5 -6.5q-1 -9 -3 -29t-4.5 -45.5t-6 -53t-6.5 -50.5l-28 -204q-2 -16 -3.5 -27t-1.5 -17
q0 -29 14 -46q18 -20 57 -20q33 0 48 6q5 2 8 8t6 25z" />
    <glyph glyph-name="m.sup" horiz-adv-x="577" 
d="M485 305q17 0 26.5 1t14.5 2.5t6.5 4t2.5 6.5l27 197q3 21 3 38q0 22 -5.5 38.5t-15.5 30.5q-12 17 -33.5 27t-50.5 10t-57 -12.5t-49 -32.5q-27 45 -88 45q-26 0 -50.5 -11t-41.5 -28v20q0 8 -8.5 10t-34.5 2h-6q-16 0 -25 -0.5t-13.5 -2.5t-6 -5t-1.5 -8
q-2 -26 -6 -64.5t-9 -76.5l-24 -176q-1 -4 -1 -7t4.5 -4.5t14 -2.5t28.5 -1h6q34 0 42 3t9 11l22 152q2 17 4.5 34t4.5 28t7 18t13 12q14 9 34 9q21 0 28.5 -10.5t7.5 -25.5q0 -8 -1 -18.5t-3 -24.5l-25 -174v-6.5t4.5 -4t14 -2.5t28.5 -1h5q34 0 42.5 3t9.5 11l21 151
q2 18 5 34.5l5 27.5q4 21 19 31q14 9 32 9q22 0 32 -13q6 -8 6 -20q0 -8 -1 -19t-3 -27l-25 -173v-7t4.5 -4.5t14.5 -2.5t29 -1h7z" />
    <glyph glyph-name="n.sup" horiz-adv-x="387" 
d="M293 305q34 0 42 3t9 11l27 189q2 14 3 26t1 22q0 39 -20 67q-12 17 -34 27t-54 10q-26 0 -51 -11t-43 -27l1 13q1 10 -6.5 14t-38.5 4h-5q-16 0 -24.5 -0.5t-13 -2.5t-6 -5t-1.5 -8q-2 -26 -6 -64.5t-9 -76.5l-25 -177q0 -4 0.5 -6.5t5 -4t15 -2.5t28.5 -1h3q17 0 27 1
t15.5 2.5t7 4t2.5 6.5l22 159q5 35 8 49t8 22q8 14 21.5 18.5t27.5 4.5q25 0 34 -13q5 -6 5 -23q0 -8 -1 -18t-3 -25l-25 -174q0 -4 0.5 -6.5t5.5 -4t15 -2.5t29 -1h3z" />
    <glyph glyph-name="o.sup" horiz-adv-x="373" 
d="M317 355q27 30 43 75t16 93q0 68 -36.5 102.5t-102.5 34.5q-89 0 -141 -57q-27 -30 -43 -74.5t-16 -92.5q0 -68 36.5 -103t102.5 -35q89 0 141 57zM240 408q-18 -24 -50 -24q-45 0 -45 61q0 30 7 59t21 46q19 25 50 25q45 0 45 -62q0 -30 -7 -59t-21 -46z" />
    <glyph glyph-name="p.sup" horiz-adv-x="381" 
d="M72 158q17 0 27.5 0.5t15.5 2t7 4.5t3 7l21 149q12 -10 30 -16.5t35 -6.5q65 0 110 47q17 18 29 39.5t19.5 45t11 47.5t3.5 46q0 64 -30.5 100.5t-86.5 36.5q-26 0 -50 -9.5t-42 -25.5l1 15q1 7 -8 10t-35 3h-2q-34 0 -41.5 -3t-8.5 -13q-2 -26 -6 -64.5t-9 -76.5
l-46 -324q0 -4 0.5 -7t5 -4.5t15 -2t28.5 -0.5h3zM174 527q2 16 5.5 23.5t8.5 12.5q15 13 40 13q24 0 36.5 -15t12.5 -41v-16.5t-2 -19.5q-7 -48 -25.5 -74.5t-48.5 -26.5q-26 0 -44 20z" />
    <glyph glyph-name="q.sup" horiz-adv-x="379" 
d="M276 158q34 0 42 3.5t8 11.5q0 30 3 79.5t11 101.5l36 257q1 8 -0.5 12t-9.5 9q-19 12 -50 20t-66 8q-86 0 -142 -51q-38 -35 -55 -83.5t-15 -96.5q2 -61 32.5 -96t87.5 -35q23 0 42 7t32 18q-6 -51 -9 -93.5t-1 -58.5q1 -9 9 -11t41 -2h4zM249 449q-2 -12 -3.5 -22
t-4.5 -18q-5 -11 -16.5 -19t-29.5 -8q-26 0 -39 19q-5 7 -8 17.5t-3 26.5q0 27 8 56.5t26 49.5q23 26 57 26q8 0 15 -1t15 -3z" />
    <glyph glyph-name="r.sup" horiz-adv-x="264" 
d="M91 305q17 0 27.5 1t15.5 2.5t7 4t2 6.5l13 92q7 45 16 74t23 46q14 18 32.5 28.5t44.5 12.5q7 1 10 7t8 33l2 9q4 20 2.5 26t-7.5 9q-8 4 -22 4q-29 0 -52.5 -20t-43.5 -58q1 11 1.5 21t0.5 19v11.5t-1 9.5q-1 6 -7.5 8t-34.5 2h-6q-15 0 -23.5 -0.5t-13 -2.5t-5.5 -5
t-1 -8q-2 -26 -6 -64.5t-9 -76.5l-25 -177q0 -4 0.5 -6.5t5 -4t14.5 -2.5t28 -1h4z" />
    <glyph glyph-name="s.sup" horiz-adv-x="314" 
d="M306 592q13 20 14.5 25.5t-3.5 10.5q-15 14 -44 23t-61 9q-33 0 -66 -10.5t-56 -33.5q-17 -16 -25.5 -37.5t-8.5 -44.5q0 -25 9.5 -41.5t24.5 -28t32.5 -18t33.5 -11.5q19 -6 33 -11.5t13 -18.5q-1 -10 -13 -17.5t-36 -7.5q-23 0 -39.5 7.5t-35.5 19.5q-5 4 -11.5 1
t-22.5 -25l-8 -11q-11 -16 -13.5 -22.5t2.5 -12.5q11 -12 44.5 -25.5t79.5 -13.5q71 0 114 37q24 20 33 44.5t9 46.5q0 25 -9.5 42t-24 27.5t-32.5 17t-34 11.5t-25 8.5t-14 7t-6.5 6.5t-1.5 6q0 13 12 21q10 7 32 7q26 0 42 -8.5t24 -12.5q5 -2 11.5 -1t18.5 21z" />
    <glyph glyph-name="t.sup" horiz-adv-x="266" 
d="M246 358q-4 21 -6.5 26.5t-11.5 2.5q-18 -6 -35 -6q-25 0 -25 20q0 5 0.5 10t1.5 12l23 156h65q8 0 10 5t7 30l1 5q5 24 2.5 29t-10.5 5h-66l12 81q2 8 -6.5 11t-42.5 3h-5q-17 0 -27 -0.5t-15 -2t-6.5 -4.5t-2.5 -7l-11 -81h-38q-7 0 -10 -4.5t-7 -27.5l-1 -7
q-3 -23 -1 -29t9 -6h38l-20 -144q-2 -15 -3.5 -26t-1.5 -22q0 -20 3.5 -35t13.5 -26q11 -13 30.5 -20.5t48.5 -7.5q20 0 40.5 4t37.5 12q8 4 11 10t-1 28z" />
    <glyph glyph-name="u.sup" horiz-adv-x="384" 
d="M293 305q16 0 25.5 1t14 3t6 5t1.5 8q2 26 6 64t9 76l25 178q0 4 -1 6.5t-5.5 4t-14 2t-26.5 0.5h-6q-35 0 -42.5 -3.5t-8.5 -10.5l-20 -151q-2 -13 -4.5 -30t-4.5 -27q-3 -14 -7 -22t-11 -13q-13 -10 -39 -10q-39 0 -39 34q0 8 1.5 18.5t3.5 27.5l23 173q1 4 -0.5 7
t-6.5 4.5t-15.5 2t-27.5 0.5h-6q-17 0 -26.5 -1t-14 -2.5t-5.5 -4t-2 -6.5l-25 -183q-2 -14 -3.5 -27.5t-1.5 -24.5q0 -43 20 -69q13 -17 35 -27t53 -10q27 0 51 10.5t41 27.5l1 -18q0 -5 1.5 -8t9.5 -4q5 -1 12.5 -1h18.5h5z" />
    <glyph glyph-name="v.sup" horiz-adv-x="344" 
d="M177 305q28 0 37 2.5t14 10.5q23 34 45.5 76t42.5 85.5t37 85t28 74.5q3 8 -5 11t-38 3h-6q-30 0 -37 -3t-9 -10q-9 -27 -20.5 -57.5t-25 -62.5t-27.5 -64.5t-28 -62.5q-2 30 -4.5 58.5t-7.5 57.5l-21 131q-2 8 -11.5 10.5t-41.5 2.5h-6q-37 0 -44 -4.5t-5 -13.5l72 -319
q2 -6 10 -8.5t37 -2.5h14z" />
    <glyph glyph-name="w.sup" horiz-adv-x="512" 
d="M358 305q16 0 25.5 0.5t14.5 1.5t8 3.5t5 6.5q19 34 39 77.5t38.5 88t33 85.5t22.5 70q2 9 -6 12t-37 3h-4q-33 0 -41 -3t-10 -11q-6 -24 -15 -56t-19 -66.5t-20.5 -68t-18.5 -60.5q-1 35 -2.5 63t-3.5 56l-11 133q-1 8 -10 10.5t-39 2.5h-6q-31 0 -41 -2t-13 -11
l-51 -140q-9 -25 -18 -52.5t-17 -59.5q1 12 1 29v34.5t-1 33.5t-2 27l-11 127q-1 8 -10.5 11t-40.5 3h-5q-18 0 -28 -1t-14.5 -3t-5 -5.5t0.5 -8.5l44 -319q1 -6 10 -8.5t41 -2.5h6q34 0 43.5 3t11.5 8l39 100q14 33 24.5 66t22.5 75q0 -46 1 -80.5t3 -59.5l10 -101
q0 -3 1.5 -5t6 -3.5t15 -2t28.5 -0.5h6z" />
    <glyph glyph-name="x.sup" horiz-adv-x="335" 
d="M277 305q37 0 46.5 3.5t3.5 14.5l-58 105l-32 57q12 16 25 32t26 31l72 90q7 8 -1 11.5t-45 3.5h-6q-15 0 -24 -0.5t-14 -1.5t-7.5 -3.5t-5.5 -6.5l-26 -38q-8 -11 -15 -24t-15 -24l-20 44l-21 42q-4 7 -13 9.5t-42 2.5h-7q-34 0 -43.5 -4t-3.5 -15l53 -98
q8 -14 15 -26.5t14 -26.5q-11 -14 -22 -27l-22 -26l-84 -105q-7 -9 0 -14.5t42 -5.5h7q31 0 40 2t14 10l36 52l28 44q8 -22 20 -45l24 -51q4 -8 13 -10t41 -2h7z" />
    <glyph glyph-name="y.sup" horiz-adv-x="346" 
d="M125 301q-14 -30 -33 -48.5t-45 -18.5q-9 0 -21.5 2.5t-18.5 4.5q-9 4 -14.5 -2.5t-14.5 -26.5l-4 -9q-8 -17 -9 -23.5t5 -11.5q10 -7 28.5 -12t41.5 -5q34 0 60.5 10t49 30t41.5 50.5t39 72.5l153 322q4 8 -2.5 12.5t-42.5 4.5h-8q-29 0 -37.5 -2.5t-11.5 -10.5
l-42 -105q-10 -24 -22 -58t-26 -79q-2 46 -3.5 76.5t-6.5 59.5l-15 107q-2 7 -9.5 9.5t-39.5 2.5h-9q-18 0 -28.5 -1t-15.5 -3.5t-6 -6t0 -7.5z" />
    <glyph glyph-name="z.sup" horiz-adv-x="316" 
d="M92 653q-8 0 -10.5 -5t-7.5 -31l-1 -6q-5 -25 -2 -30t11 -5h117l-161 -199q-5 -7 -9 -15.5t-6 -19.5l-3 -21q-2 -10 1.5 -13t17.5 -3h243q8 0 10.5 5t7.5 31l1 6q5 25 2 30t-11 5h-134l160 200q8 10 11 17t5 18l3 24q1 8 -3.5 10t-25.5 2h-216z" />
    <glyph glyph-name="ordfeminine" unicode="&#xaa;" horiz-adv-x="401" 
d="M302 691q-10 16 -30 27.5t-46 11.5q-40 0 -72 -19.5t-54.5 -51t-34.5 -71t-12 -80.5q0 -64 30 -102t86 -38q26 0 52 10t43 27q0 -8 1 -15t4 -10t9.5 -4t24.5 -1h13q26 0 32.5 2t6.5 9q2 30 6.5 70.5t9.5 74.5l5 40q3 21 6 42.5t6 41t5 35.5t4 24q1 5 -5 7t-30 2h-14
q-26 0 -32.5 -2t-7.5 -6zM269 515q-2 -17 -8 -30t-15 -21q-17 -15 -40 -15q-26 0 -38.5 17t-12.5 48q0 28 6.5 52t17.5 42t25.5 28t31.5 10q16 0 28.5 -8.5t18.5 -22.5z" />
    <glyph glyph-name="ordmasculine" unicode="&#xba;" horiz-adv-x="401" 
d="M236 647q26 0 38.5 -18.5t12.5 -50.5q0 -23 -5.5 -46t-15 -41t-23.5 -29t-31 -11q-26 0 -38.5 18.5t-12.5 50.5q0 23 5 46t15 41t24 29t31 11zM244 730q-44 0 -78.5 -19t-58 -49.5t-36 -68.5t-12.5 -77q0 -68 38 -108t107 -40q44 0 78.5 19t58 49.5t36 68.5t12.5 77
q0 68 -38 108t-107 40z" />
    <glyph glyph-name="zero.sup" horiz-adv-x="368" 
d="M234 717q-20 0 -33.5 -14t-22.5 -38t-13 -56.5t-4 -69.5q0 -36 10.5 -56.5t29.5 -20.5t33 13.5t23 37.5t13 56.5t4 70.5q0 36 -10.5 56.5t-29.5 20.5zM243 801q72 0 108.5 -45t36.5 -131q0 -50 -12.5 -94.5t-37 -78.5t-61 -54t-85.5 -20q-72 0 -108.5 45t-36.5 131
q0 49 12.5 94t37 79t61 54t85.5 20z" />
    <glyph glyph-name="onesuperior" unicode="&#xb9;" horiz-adv-x="368" 
d="M320 388q7 0 9 6.5t5 29.5l1 7q4 26 1.5 30.5t-10.5 4.5h-53l43 306q2 11 -4.5 14.5t-30.5 3.5h-10q-18 0 -29.5 -1.5t-27.5 -8.5l-96 -41q-11 -5 -17.5 -12.5t-0.5 -27.5l8 -25q6 -20 11.5 -23.5t16.5 1.5l54 21l-28 -207h-65q-7 0 -9 -6.5t-5 -29.5l-1 -7
q-4 -26 -1.5 -30.5t10.5 -4.5h229z" />
    <glyph glyph-name="twosuperior" unicode="&#xb2;" horiz-adv-x="367" 
d="M310 388q8 0 10.5 8t6.5 35l1 7q2 16 2.5 24.5t-1 12.5t-5 4.5t-7.5 0.5h-97l20 19q36 34 61 61.5t40.5 50.5t22 43.5t6.5 41.5q0 20 -8 38.5t-23 33t-36.5 23.5t-49.5 9q-73 0 -132 -34q-7 -4 -10.5 -7t-3.5 -7.5t3.5 -12.5t9.5 -21l3 -6q9 -17 14.5 -21.5t13.5 0.5
q40 24 71 24q16 0 25 -9.5t9 -26.5q0 -25 -23.5 -55.5t-74.5 -79.5l-82 -72q-8 -8 -13 -14.5t-7 -18.5l-4 -35q-2 -11 4.5 -13.5t33.5 -2.5h220z" />
    <glyph glyph-name="threesuperior" unicode="&#xb3;" horiz-adv-x="368" 
d="M150 635q-7 0 -9 -6.5t-5 -29.5l-1 -8q-3 -23 -1 -28t10 -5h19q10 0 21.5 -1.5t21 -6.5t16 -14t6.5 -25q0 -25 -16 -38.5t-41 -13.5q-21 0 -39 7t-32 16q-11 8 -15.5 3t-17.5 -24l-7 -10q-10 -14 -13 -21t2 -12q6 -6 18 -13t29.5 -13t38 -10t42.5 -4q35 0 65 10.5
t51.5 29.5t34 44.5t12.5 55.5q0 37 -16.5 57t-39.5 29q40 17 55.5 45.5t15.5 54.5q0 46 -31.5 71t-91.5 25q-22 0 -53.5 -6t-52.5 -20q-6 -4 -8.5 -10t6.5 -25l7 -15q8 -16 12 -17.5t12 1.5q12 5 24 8.5t26 3.5q17 0 27.5 -9t10.5 -26q0 -26 -19 -38t-50 -12h-24z" />
    <glyph glyph-name="four.sup" horiz-adv-x="367" 
d="M338 559l7 55q2 11 -6.5 14.5t-40.5 3.5h-13q-17 0 -26 -0.5t-13.5 -2.5t-6 -5.5t-2.5 -9.5l-7 -55h-50l119 209q6 11 -2 16.5t-44 5.5h-1q-30 0 -39 -3t-13 -10l-127 -215q-4 -7 -6 -13t-4 -20l-5 -35q-2 -14 4 -18t33 -4h121l-10 -66q-1 -5 -0.5 -8.5t4.5 -5.5t13.5 -3
t26.5 -1h13q16 0 26 1t15 3t7 5.5t3 8.5l10 66h34q8 0 10.5 8t6.5 35l1 7q2 16 2.5 23.5t-1 10.5t-5 3h-7.5h-27z" />
    <glyph glyph-name="five.sup" horiz-adv-x="367" 
d="M350 698q8 0 10.5 8t6.5 35l1 7q2 16 2.5 24.5t-1 12.5t-5 4.5t-7.5 0.5h-188q-14 0 -21.5 -0.5t-11.5 -2.5t-5 -5.5t-2 -9.5l-27 -185q-3 -22 2 -25t19 0q20 5 34 6.5t28 1.5q28 0 41.5 -14.5t13.5 -38.5q0 -23 -16.5 -40.5t-43.5 -17.5q-23 0 -40.5 5.5t-34.5 13.5
q-8 5 -15 2t-18 -20l-7 -10q-12 -17 -13 -25.5t7 -13.5q16 -11 47 -22t69 -11q45 0 78.5 13.5t55.5 35t33 49.5t11 57q0 53 -28 85t-90 32q-10 0 -20 -2l7 50h128z" />
    <glyph glyph-name="six.sup" horiz-adv-x="368" 
d="M236 707q9 8 19.5 11t21.5 3t22 -3t22 -8q7 -4 12.5 -1.5t17.5 20.5l8 12q12 17 14 22t-2 10q-10 11 -36.5 19t-55.5 8q-30 0 -58 -8.5t-50 -24.5q-27 -20 -47 -49t-32.5 -62t-18.5 -68.5t-6 -68.5q0 -60 32.5 -100.5t104.5 -40.5q36 0 66 12.5t52 34t34 50.5t12 62
q0 48 -27 80t-84 32q-14 0 -30.5 -3t-33.5 -12q9 27 20.5 45.5t22.5 27.5zM221 570q19 0 27.5 -11t8.5 -30q0 -24 -10.5 -46.5t-34.5 -22.5q-23 0 -28.5 17.5t-5.5 46.5v18.5t1 17.5q12 6 22 8t20 2z" />
    <glyph glyph-name="seven.sup" horiz-adv-x="368" 
d="M116 790q-8 0 -10.5 -8t-6.5 -35l-1 -7q-2 -16 -2.5 -24.5t1 -12.5t4.5 -4.5t8 -0.5h143l-170 -288q-8 -14 -1.5 -18t43.5 -4h12q32 0 41 3t14 11l170 294q7 13 11.5 23t6.5 24l3 27q2 12 -4.5 16t-34.5 4h-227z" />
    <glyph glyph-name="eight.sup" horiz-adv-x="367" 
d="M46 482q0 -49 38.5 -76.5t98.5 -27.5q45 0 77.5 12t53.5 31t31 43t10 49q0 35 -17.5 56.5t-40.5 37.5q35 20 54 43.5t19 57.5q0 37 -31.5 64.5t-95.5 27.5q-66 0 -107 -36t-41 -96q0 -22 8.5 -41t22.5 -34q-32 -19 -56 -45.5t-24 -65.5zM242 503q0 -20 -13.5 -31.5
t-30.5 -11.5t-28.5 10.5t-11.5 24.5q0 17 9.5 30.5t26.5 25.5q21 -10 34.5 -19t13.5 -29zM200 689q0 14 9.5 23.5t25.5 9.5q13 0 21 -7.5t8 -18.5q0 -14 -9 -26t-25 -23q-14 9 -22 18.5t-8 23.5z" />
    <glyph glyph-name="nine.sup" horiz-adv-x="367" 
d="M202 471q-9 -8 -19.5 -11t-21.5 -3q-28 0 -54 17q-7 4 -12.5 1.5t-17.5 -20.5l-8 -12q-14 -17 -15.5 -22t3.5 -10q11 -16 40.5 -24.5t61.5 -8.5q30 0 58 8.5t50 24.5q27 20 47 49t32.5 62t18.5 68.5t6 68.5q0 60 -32.5 100.5t-104.5 40.5q-36 0 -66 -11.5t-52 -31.5
t-34 -48.5t-12 -61.5q0 -48 27 -80t84 -32q14 0 32 3t35 12q-16 -55 -46 -79zM217 614q-19 0 -27.5 11t-8.5 30q0 24 10.5 43.5t34.5 19.5q23 0 28.5 -17.5t5.5 -46.5v-15.5t-1 -14.5q-11 -6 -22 -8t-20 -2z" />
    <glyph glyph-name="plus.sup" horiz-adv-x="367" 
d="M343 542q8 0 12.5 6.5t9.5 31.5l1 6q5 26 0.5 32t-12.5 6h-83l12 85q2 10 -5.5 14t-37.5 4h-8q-29 0 -37 -4.5t-10 -13.5l-12 -85h-83q-8 0 -13 -6.5t-9 -31.5l-1 -7q-4 -25 0 -31t11 -6h84l-12 -79q-2 -9 5.5 -13t36.5 -4h8q30 0 38 4t10 13l12 79h83z" />
    <glyph glyph-name="minus.sup" horiz-adv-x="368" 
d="M362 624h-264q-8 0 -13 -6.5t-9 -31.5l-1 -7q-4 -25 0 -31t11 -6h265q8 0 12.5 6.5t9.5 31.5l1 6q5 26 0.5 32t-12.5 6z" />
    <glyph glyph-name="equal.sup" horiz-adv-x="368" 
d="M100 561q-8 0 -13 -6.5t-9 -31.5l-1 -7q-4 -25 0 -31t11 -6h241q8 0 12.5 6.5t9.5 31.5l1 6q5 26 0.5 32t-12.5 6h-240zM118 687q-8 0 -13 -6.5t-9 -31.5l-1 -7q-4 -25 0 -31t11 -6h241q8 0 12.5 6.5t9.5 31.5l1 6q5 26 0.5 32t-12.5 6h-240z" />
    <glyph glyph-name="parenleft.sup" horiz-adv-x="252" 
d="M187 321q21 14 24.5 21t1.5 12q-23 39 -31 79t-8 82q0 81 27.5 143.5t70.5 113.5q7 8 5.5 16t-21.5 21l-8 5q-22 14 -30.5 15t-16.5 -7q-71 -72 -107 -152.5t-36 -155.5q0 -54 19.5 -107t57.5 -100q6 -8 13 -8t27 14z" />
    <glyph glyph-name="parenright.sup" horiz-adv-x="252" 
d="M114 807q-21 -14 -24.5 -21t-1.5 -12q23 -39 31 -79t8 -82q0 -81 -27.5 -143.5t-70.5 -113.5q-7 -8 -5.5 -16t21.5 -21l8 -5q22 -14 30.5 -15t16.5 7q71 72 107 152.5t36 155.5q0 54 -19.5 107t-57.5 100q-6 8 -13 8t-27 -14z" />
    <glyph glyph-name="period.sup" horiz-adv-x="181" 
d="M52 438q0 -23 16.5 -39.5t41.5 -16.5q26 0 42.5 16.5t16.5 39.5q0 24 -16.5 40.5t-42.5 16.5q-25 0 -41.5 -16.5t-16.5 -40.5z" />
    <glyph glyph-name="comma.sup" horiz-adv-x="192" 
d="M127 490q-27 0 -46.5 -14.5t-19.5 -41.5q0 -6 3.5 -14t6.5 -13q7 -10 8.5 -16t1.5 -10q0 -8 -5.5 -18t-12.5 -19.5t-14 -17t-10 -10.5q-4 -4 -2.5 -8t9.5 -13l9 -10q8 -9 14 -9t15 6q22 14 37 30.5t26 30.5q17 21 28 46t11 47q0 25 -16.5 39.5t-42.5 14.5z" />
    <glyph glyph-name="zero.sub" horiz-adv-x="368" 
d="M174 259q-20 0 -33.5 -14t-22.5 -38t-13 -56.5t-4 -69.5q0 -36 10.5 -56.5t29.5 -20.5t33 13.5t23 37.5t13 56.5t4 70.5q0 36 -10.5 56.5t-29.5 20.5zM183 343q72 0 108.5 -45t36.5 -131q0 -50 -12.5 -94.5t-37 -78.5t-61 -54t-85.5 -20q-72 0 -108.5 45t-36.5 131
q0 49 12.5 94t37 79t61 54t85.5 20z" />
    <glyph glyph-name="one.sub" horiz-adv-x="368" 
d="M260 -70q7 0 9 6.5t5 29.5l1 7q4 26 1.5 30.5t-10.5 4.5h-53l43 306q2 11 -4.5 14.5t-30.5 3.5h-10q-18 0 -29.5 -1.5t-27.5 -8.5l-96 -41q-11 -5 -17.5 -12.5t-0.5 -27.5l8 -25q6 -20 11.5 -23.5t16.5 1.5l54 21l-28 -207h-65q-7 0 -9 -6.5t-5 -29.5l-1 -7
q-4 -26 -1.5 -30.5t10.5 -4.5h229z" />
    <glyph glyph-name="two.sub" horiz-adv-x="367" 
d="M250 -70q8 0 10.5 8t6.5 35l1 7q2 16 2.5 24.5t-1 12.5t-5 4.5t-7.5 0.5h-97l20 19q36 34 61 61.5t40.5 50.5t22 43.5t6.5 41.5q0 20 -8 38.5t-23 33t-36.5 23.5t-49.5 9q-73 0 -132 -34q-7 -4 -10.5 -7t-3.5 -7.5t3.5 -12.5t9.5 -21l3 -6q9 -17 14.5 -21.5t13.5 0.5
q40 24 71 24q16 0 25 -9.5t9 -26.5q0 -25 -23.5 -55.5t-74.5 -79.5l-82 -72q-8 -8 -13 -14.5t-7 -18.5l-4 -35q-2 -11 4.5 -13.5t33.5 -2.5h220z" />
    <glyph glyph-name="three.sub" horiz-adv-x="368" 
d="M90 177q-7 0 -9 -6.5t-5 -29.5l-1 -8q-3 -23 -1 -28t10 -5h19q10 0 21.5 -1.5t21 -6.5t16 -14t6.5 -25q0 -25 -16 -38.5t-41 -13.5q-21 0 -39 7t-32 16q-11 8 -15.5 3t-17.5 -24l-7 -10q-10 -14 -13 -21t2 -12q6 -6 18 -13t29.5 -13t38 -10t42.5 -4q35 0 65 10.5
t51.5 29.5t34 44.5t12.5 55.5q0 37 -16.5 57t-39.5 29q40 17 55.5 45.5t15.5 54.5q0 46 -31.5 71t-91.5 25q-22 0 -53.5 -6t-52.5 -20q-6 -4 -8.5 -10t6.5 -25l7 -15q8 -16 12 -17.5t12 1.5q12 5 24 8.5t26 3.5q17 0 27.5 -9t10.5 -26q0 -26 -19 -38t-50 -12h-24z" />
    <glyph glyph-name="four.sub" horiz-adv-x="367" 
d="M278 101l7 55q2 11 -6.5 14.5t-40.5 3.5h-13q-17 0 -26 -0.5t-13.5 -2.5t-6 -5.5t-2.5 -9.5l-7 -55h-50l119 209q6 11 -2 16.5t-44 5.5h-1q-30 0 -39 -3t-13 -10l-127 -215q-4 -7 -6 -13t-4 -20l-5 -35q-2 -14 4 -18t33 -4h121l-10 -66q-1 -5 -0.5 -8.5t4.5 -5.5t13.5 -3
t26.5 -1h13q16 0 26 1t15 3t7 5.5t3 8.5l10 66h34q8 0 10.5 8t6.5 35l1 7q2 16 2.5 23.5t-1 10.5t-5 3h-7.5h-27z" />
    <glyph glyph-name="five.sub" horiz-adv-x="367" 
d="M290 240q8 0 10.5 8t6.5 35l1 7q2 16 2.5 24.5t-1 12.5t-5 4.5t-7.5 0.5h-188q-14 0 -21.5 -0.5t-11.5 -2.5t-5 -5.5t-2 -9.5l-27 -185q-3 -22 2 -25t19 0q20 5 34 6.5t28 1.5q28 0 41.5 -14.5t13.5 -38.5q0 -23 -16.5 -40.5t-43.5 -17.5q-23 0 -40.5 5.5t-34.5 13.5
q-8 5 -15 2t-18 -20l-7 -10q-12 -17 -13 -25.5t7 -13.5q16 -11 47 -22t69 -11q45 0 78.5 13.5t55.5 35t33 49.5t11 57q0 53 -28 85t-90 32q-10 0 -20 -2l7 50h128z" />
    <glyph glyph-name="six.sub" horiz-adv-x="368" 
d="M176 249q9 8 19.5 11t21.5 3t22 -3t22 -8q7 -4 12.5 -1.5t17.5 20.5l8 12q12 17 14 22t-2 10q-10 11 -36.5 19t-55.5 8q-30 0 -58 -8.5t-50 -24.5q-27 -20 -47 -49t-32.5 -62t-18.5 -68.5t-6 -68.5q0 -60 32.5 -100.5t104.5 -40.5q36 0 66 12.5t52 34t34 50.5t12 62
q0 48 -27 80t-84 32q-14 0 -30.5 -3t-33.5 -12q9 27 20.5 45.5t22.5 27.5zM161 112q19 0 27.5 -11t8.5 -30q0 -24 -10.5 -46.5t-34.5 -22.5q-23 0 -28.5 17.5t-5.5 46.5v18.5t1 17.5q12 6 22 8t20 2z" />
    <glyph glyph-name="seven.sub" horiz-adv-x="368" 
d="M56 332q-8 0 -10.5 -8t-6.5 -35l-1 -7q-2 -16 -2.5 -24.5t1 -12.5t4.5 -4.5t8 -0.5h143l-170 -288q-8 -14 -1.5 -18t43.5 -4h12q32 0 41 3t14 11l170 294q7 13 11.5 23t6.5 24l3 27q2 12 -4.5 16t-34.5 4h-227z" />
    <glyph glyph-name="eight.sub" horiz-adv-x="367" 
d="M-14 24q0 -49 38.5 -76.5t98.5 -27.5q45 0 77.5 12t53.5 31t31 43t10 49q0 35 -17.5 56.5t-40.5 37.5q35 20 54 43.5t19 57.5q0 37 -31.5 64.5t-95.5 27.5q-66 0 -107 -36t-41 -96q0 -22 8.5 -41t22.5 -34q-32 -19 -56 -45.5t-24 -65.5zM182 45q0 -20 -13.5 -31.5
t-30.5 -11.5t-28.5 10.5t-11.5 24.5q0 17 9.5 30.5t26.5 25.5q21 -10 34.5 -19t13.5 -29zM140 231q0 14 9.5 23.5t25.5 9.5q13 0 21 -7.5t8 -18.5q0 -14 -9 -26t-25 -23q-14 9 -22 18.5t-8 23.5z" />
    <glyph glyph-name="nine.sub" horiz-adv-x="367" 
d="M142 13q-9 -8 -19.5 -11t-21.5 -3q-28 0 -54 17q-7 4 -12.5 1.5t-17.5 -20.5l-8 -12q-14 -17 -15.5 -22t3.5 -10q11 -16 40.5 -24.5t61.5 -8.5q30 0 58 8.5t50 24.5q27 20 47 49t32.5 62t18.5 68.5t6 68.5q0 60 -32.5 100.5t-104.5 40.5q-36 0 -66 -11.5t-52 -31.5
t-34 -48.5t-12 -61.5q0 -48 27 -80t84 -32q14 0 32 3t35 12q-16 -55 -46 -79zM157 156q-19 0 -27.5 11t-8.5 30q0 24 10.5 43.5t34.5 19.5q23 0 28.5 -17.5t5.5 -46.5v-15.5t-1 -14.5q-11 -6 -22 -8t-20 -2z" />
    <glyph glyph-name="plus.sub" horiz-adv-x="367" 
d="M283 84q8 0 12.5 6.5t9.5 31.5l1 6q5 26 0.5 32t-12.5 6h-83l12 85q2 10 -5.5 14t-37.5 4h-8q-29 0 -37 -4.5t-10 -13.5l-12 -85h-83q-8 0 -13 -6.5t-9 -31.5l-1 -7q-4 -25 0 -31t11 -6h84l-12 -79q-2 -9 5.5 -13t36.5 -4h8q30 0 38 4t10 13l12 79h83z" />
    <glyph glyph-name="minus.sub" horiz-adv-x="368" 
d="M302 166h-264q-8 0 -13 -6.5t-9 -31.5l-1 -7q-4 -25 0 -31t11 -6h265q8 0 12.5 6.5t9.5 31.5l1 6q5 26 0.5 32t-12.5 6z" />
    <glyph glyph-name="equal.sub" horiz-adv-x="368" 
d="M40 103q-8 0 -13 -6.5t-9 -31.5l-1 -7q-4 -25 0 -31t11 -6h241q8 0 12.5 6.5t9.5 31.5l1 6q5 26 0.5 32t-12.5 6h-240zM58 229q-8 0 -13 -6.5t-9 -31.5l-1 -7q-4 -25 0 -31t11 -6h241q8 0 12.5 6.5t9.5 31.5l1 6q5 26 0.5 32t-12.5 6h-240z" />
    <glyph glyph-name="parenleft.sub" horiz-adv-x="252" 
d="M127 -137q21 14 24.5 21t1.5 12q-23 39 -31 79t-8 82q0 81 27.5 143.5t70.5 113.5q7 8 5.5 16t-21.5 21l-8 5q-22 14 -30.5 15t-16.5 -7q-71 -72 -107 -152.5t-36 -155.5q0 -54 19.5 -107t57.5 -100q6 -8 13 -8t27 14z" />
    <glyph glyph-name="parenright.sub" horiz-adv-x="252" 
d="M54 349q-21 -14 -24.5 -21t-1.5 -12q23 -39 31 -79t8 -82q0 -81 -27.5 -143.5t-70.5 -113.5q-7 -8 -5.5 -16t21.5 -21l8 -5q22 -14 30.5 -15t16.5 7q71 72 107 152.5t36 155.5q0 54 -19.5 107t-57.5 100q-6 8 -13 8t-27 -14z" />
    <glyph glyph-name="period.sub" horiz-adv-x="181" 
d="M-8 -20q0 -23 16.5 -39.5t41.5 -16.5q26 0 42.5 16.5t16.5 39.5q0 24 -16.5 40.5t-42.5 16.5q-25 0 -41.5 -16.5t-16.5 -40.5z" />
    <glyph glyph-name="comma.sub" horiz-adv-x="192" 
d="M67 32q-27 0 -46.5 -14.5t-19.5 -41.5q0 -6 3.5 -14t6.5 -13q7 -10 8.5 -16t1.5 -10q0 -8 -5.5 -18t-12.5 -19.5t-14 -17t-10 -10.5q-4 -4 -2.5 -8t9.5 -13l9 -10q8 -9 14 -9t15 6q22 14 37 30.5t26 30.5q17 21 28 46t11 47q0 25 -16.5 39.5t-42.5 14.5z" />
    <glyph glyph-name="zero.num" horiz-adv-x="368" 
d="M224 647q-20 0 -33.5 -14t-22.5 -38t-13 -56.5t-4 -69.5q0 -36 10.5 -56.5t29.5 -20.5t33 13.5t23 37.5t13 56.5t4 70.5q0 36 -10.5 56.5t-29.5 20.5zM233 731q72 0 108.5 -45t36.5 -131q0 -50 -12.5 -94.5t-37 -78.5t-61 -54t-85.5 -20q-72 0 -108.5 45t-36.5 131
q0 49 12.5 94t37 79t61 54t85.5 20z" />
    <glyph glyph-name="one.num" horiz-adv-x="368" 
d="M310 318q7 0 9 6.5t5 29.5l1 7q4 26 1.5 30.5t-10.5 4.5h-53l43 306q2 11 -4.5 14.5t-30.5 3.5h-10q-18 0 -29.5 -1.5t-27.5 -8.5l-96 -41q-11 -5 -17.5 -12.5t-0.5 -27.5l8 -25q6 -20 11.5 -23.5t16.5 1.5l54 21l-28 -207h-65q-7 0 -9 -6.5t-5 -29.5l-1 -7
q-4 -26 -1.5 -30.5t10.5 -4.5h229z" />
    <glyph glyph-name="two.num" horiz-adv-x="367" 
d="M300 318q8 0 10.5 8t6.5 35l1 7q2 16 2.5 24.5t-1 12.5t-5 4.5t-7.5 0.5h-97l20 19q36 34 61 61.5t40.5 50.5t22 43.5t6.5 41.5q0 20 -8 38.5t-23 33t-36.5 23.5t-49.5 9q-73 0 -132 -34q-7 -4 -10.5 -7t-3.5 -7.5t3.5 -12.5t9.5 -21l3 -6q9 -17 14.5 -21.5t13.5 0.5
q40 24 71 24q16 0 25 -9.5t9 -26.5q0 -25 -23.5 -55.5t-74.5 -79.5l-82 -72q-8 -8 -13 -14.5t-7 -18.5l-4 -35q-2 -11 4.5 -13.5t33.5 -2.5h220z" />
    <glyph glyph-name="three.num" horiz-adv-x="368" 
d="M140 565q-7 0 -9 -6.5t-5 -29.5l-1 -8q-3 -23 -1 -28t10 -5h19q10 0 21.5 -1.5t21 -6.5t16 -14t6.5 -25q0 -25 -16 -38.5t-41 -13.5q-21 0 -39 7t-32 16q-11 8 -15.5 3t-17.5 -24l-7 -10q-10 -14 -13 -21t2 -12q6 -6 18 -13t29.5 -13t38 -10t42.5 -4q35 0 65 10.5
t51.5 29.5t34 44.5t12.5 55.5q0 37 -16.5 57t-39.5 29q40 17 55.5 45.5t15.5 54.5q0 46 -31.5 71t-91.5 25q-22 0 -53.5 -6t-52.5 -20q-6 -4 -8.5 -10t6.5 -25l7 -15q8 -16 12 -17.5t12 1.5q12 5 24 8.5t26 3.5q17 0 27.5 -9t10.5 -26q0 -26 -19 -38t-50 -12h-24z" />
    <glyph glyph-name="four.num" horiz-adv-x="367" 
d="M328 489l7 55q2 11 -6.5 14.5t-40.5 3.5h-13q-17 0 -26 -0.5t-13.5 -2.5t-6 -5.5t-2.5 -9.5l-7 -55h-50l119 209q6 11 -2 16.5t-44 5.5h-1q-30 0 -39 -3t-13 -10l-127 -215q-4 -7 -6 -13t-4 -20l-5 -35q-2 -14 4 -18t33 -4h121l-10 -66q-1 -5 -0.5 -8.5t4.5 -5.5t13.5 -3
t26.5 -1h13q16 0 26 1t15 3t7 5.5t3 8.5l10 66h34q8 0 10.5 8t6.5 35l1 7q2 16 2.5 23.5t-1 10.5t-5 3h-7.5h-27z" />
    <glyph glyph-name="five.num" horiz-adv-x="367" 
d="M340 628q8 0 10.5 8t6.5 35l1 7q2 16 2.5 24.5t-1 12.5t-5 4.5t-7.5 0.5h-188q-14 0 -21.5 -0.5t-11.5 -2.5t-5 -5.5t-2 -9.5l-27 -185q-3 -22 2 -25t19 0q20 5 34 6.5t28 1.5q28 0 41.5 -14.5t13.5 -38.5q0 -23 -16.5 -40.5t-43.5 -17.5q-23 0 -40.5 5.5t-34.5 13.5
q-8 5 -15 2t-18 -20l-7 -10q-12 -17 -13 -25.5t7 -13.5q16 -11 47 -22t69 -11q45 0 78.5 13.5t55.5 35t33 49.5t11 57q0 53 -28 85t-90 32q-10 0 -20 -2l7 50h128z" />
    <glyph glyph-name="six.num" horiz-adv-x="368" 
d="M226 637q9 8 19.5 11t21.5 3t22 -3t22 -8q7 -4 12.5 -1.5t17.5 20.5l8 12q12 17 14 22t-2 10q-10 11 -36.5 19t-55.5 8q-30 0 -58 -8.5t-50 -24.5q-27 -20 -47 -49t-32.5 -62t-18.5 -68.5t-6 -68.5q0 -60 32.5 -100.5t104.5 -40.5q36 0 66 12.5t52 34t34 50.5t12 62
q0 48 -27 80t-84 32q-14 0 -30.5 -3t-33.5 -12q9 27 20.5 45.5t22.5 27.5zM211 500q19 0 27.5 -11t8.5 -30q0 -24 -10.5 -46.5t-34.5 -22.5q-23 0 -28.5 17.5t-5.5 46.5v18.5t1 17.5q12 6 22 8t20 2z" />
    <glyph glyph-name="seven.num" horiz-adv-x="368" 
d="M106 720q-8 0 -10.5 -8t-6.5 -35l-1 -7q-2 -16 -2.5 -24.5t1 -12.5t4.5 -4.5t8 -0.5h143l-170 -288q-8 -14 -1.5 -18t43.5 -4h12q32 0 41 3t14 11l170 294q7 13 11.5 23t6.5 24l3 27q2 12 -4.5 16t-34.5 4h-227z" />
    <glyph glyph-name="eight.num" horiz-adv-x="367" 
d="M36 412q0 -49 38.5 -76.5t98.5 -27.5q45 0 77.5 12t53.5 31t31 43t10 49q0 35 -17.5 56.5t-40.5 37.5q35 20 54 43.5t19 57.5q0 37 -31.5 64.5t-95.5 27.5q-66 0 -107 -36t-41 -96q0 -22 8.5 -41t22.5 -34q-32 -19 -56 -45.5t-24 -65.5zM232 433q0 -20 -13.5 -31.5
t-30.5 -11.5t-28.5 10.5t-11.5 24.5q0 17 9.5 30.5t26.5 25.5q21 -10 34.5 -19t13.5 -29zM190 619q0 14 9.5 23.5t25.5 9.5q13 0 21 -7.5t8 -18.5q0 -14 -9 -26t-25 -23q-14 9 -22 18.5t-8 23.5z" />
    <glyph glyph-name="nine.num" horiz-adv-x="367" 
d="M192 401q-9 -8 -19.5 -11t-21.5 -3q-28 0 -54 17q-7 4 -12.5 1.5t-17.5 -20.5l-8 -12q-14 -17 -15.5 -22t3.5 -10q11 -16 40.5 -24.5t61.5 -8.5q30 0 58 8.5t50 24.5q27 20 47 49t32.5 62t18.5 68.5t6 68.5q0 60 -32.5 100.5t-104.5 40.5q-36 0 -66 -11.5t-52 -31.5
t-34 -48.5t-12 -61.5q0 -48 27 -80t84 -32q14 0 32 3t35 12q-16 -55 -46 -79zM207 544q-19 0 -27.5 11t-8.5 30q0 24 10.5 43.5t34.5 19.5q23 0 28.5 -17.5t5.5 -46.5v-15.5t-1 -14.5q-11 -6 -22 -8t-20 -2z" />
    <glyph glyph-name="plus.num" horiz-adv-x="367" 
d="M333 472q8 0 12.5 6.5t9.5 31.5l1 6q5 26 0.5 32t-12.5 6h-83l12 85q2 10 -5.5 14t-37.5 4h-8q-29 0 -37 -4.5t-10 -13.5l-12 -85h-83q-8 0 -13 -6.5t-9 -31.5l-1 -7q-4 -25 0 -31t11 -6h84l-12 -79q-2 -9 5.5 -13t36.5 -4h8q30 0 38 4t10 13l12 79h83z" />
    <glyph glyph-name="minus.num" horiz-adv-x="368" 
d="M352 554h-264q-8 0 -13 -6.5t-9 -31.5l-1 -7q-4 -25 0 -31t11 -6h265q8 0 12.5 6.5t9.5 31.5l1 6q5 26 0.5 32t-12.5 6z" />
    <glyph glyph-name="equal.num" horiz-adv-x="368" 
d="M90 491q-8 0 -13 -6.5t-9 -31.5l-1 -7q-4 -25 0 -31t11 -6h241q8 0 12.5 6.5t9.5 31.5l1 6q5 26 0.5 32t-12.5 6h-240zM108 617q-8 0 -13 -6.5t-9 -31.5l-1 -7q-4 -25 0 -31t11 -6h241q8 0 12.5 6.5t9.5 31.5l1 6q5 26 0.5 32t-12.5 6h-240z" />
    <glyph glyph-name="parenleft.num" horiz-adv-x="252" 
d="M177 251q21 14 24.5 21t1.5 12q-23 39 -31 79t-8 82q0 81 27.5 143.5t70.5 113.5q7 8 5.5 16t-21.5 21l-8 5q-22 14 -30.5 15t-16.5 -7q-71 -72 -107 -152.5t-36 -155.5q0 -54 19.5 -107t57.5 -100q6 -8 13 -8t27 14z" />
    <glyph glyph-name="parenright.num" horiz-adv-x="252" 
d="M104 737q-21 -14 -24.5 -21t-1.5 -12q23 -39 31 -79t8 -82q0 -81 -27.5 -143.5t-70.5 -113.5q-7 -8 -5.5 -16t21.5 -21l8 -5q22 -14 30.5 -15t16.5 7q71 72 107 152.5t36 155.5q0 54 -19.5 107t-57.5 100q-6 8 -13 8t-27 -14z" />
    <glyph glyph-name="period.num" horiz-adv-x="181" 
d="M42 368q0 -23 16.5 -39.5t41.5 -16.5q26 0 42.5 16.5t16.5 39.5q0 24 -16.5 40.5t-42.5 16.5q-25 0 -41.5 -16.5t-16.5 -40.5z" />
    <glyph glyph-name="comma.num" horiz-adv-x="192" 
d="M117 420q-27 0 -46.5 -14.5t-19.5 -41.5q0 -6 3.5 -14t6.5 -13q7 -10 8.5 -16t1.5 -10q0 -8 -5.5 -18t-12.5 -19.5t-14 -17t-10 -10.5q-4 -4 -2.5 -8t9.5 -13l9 -10q8 -9 14 -9t15 6q22 14 37 30.5t26 30.5q17 21 28 46t11 47q0 25 -16.5 39.5t-42.5 14.5z" />
    <glyph glyph-name="zero.den" horiz-adv-x="368" 
d="M134 329q-20 0 -33.5 -14t-22.5 -38t-13 -56.5t-4 -69.5q0 -36 10.5 -56.5t29.5 -20.5t33 13.5t23 37.5t13 56.5t4 70.5q0 36 -10.5 56.5t-29.5 20.5zM143 413q72 0 108.5 -45t36.5 -131q0 -50 -12.5 -94.5t-37 -78.5t-61 -54t-85.5 -20q-72 0 -108.5 45t-36.5 131
q0 49 12.5 94t37 79t61 54t85.5 20z" />
    <glyph glyph-name="one.den" horiz-adv-x="368" 
d="M270 0q7 0 9 6.5t5 29.5l1 7q4 26 1.5 30.5t-10.5 4.5h-53l43 306q2 11 -4.5 14.5t-30.5 3.5h-10q-18 0 -29.5 -1.5t-27.5 -8.5l-96 -41q-11 -5 -17.5 -12.5t-0.5 -27.5l8 -25q6 -20 11.5 -23.5t16.5 1.5l54 21l-28 -207h-65q-7 0 -9 -6.5t-5 -29.5l-1 -7
q-4 -26 -1.5 -30.5t10.5 -4.5h229z" />
    <glyph glyph-name="two.den" horiz-adv-x="367" 
d="M260 0q8 0 10.5 8t6.5 35l1 7q2 16 2.5 24.5t-1 12.5t-5 4.5t-7.5 0.5h-97l20 19q36 34 61 61.5t40.5 50.5t22 43.5t6.5 41.5q0 20 -8 38.5t-23 33t-36.5 23.5t-49.5 9q-73 0 -132 -34q-7 -4 -10.5 -7t-3.5 -7.5t3.5 -12.5t9.5 -21l3 -6q9 -17 14.5 -21.5t13.5 0.5
q40 24 71 24q16 0 25 -9.5t9 -26.5q0 -25 -23.5 -55.5t-74.5 -79.5l-82 -72q-8 -8 -13 -14.5t-7 -18.5l-4 -35q-2 -11 4.5 -13.5t33.5 -2.5h220z" />
    <glyph glyph-name="three.den" horiz-adv-x="368" 
d="M100 247q-7 0 -9 -6.5t-5 -29.5l-1 -8q-3 -23 -1 -28t10 -5h19q10 0 21.5 -1.5t21 -6.5t16 -14t6.5 -25q0 -25 -16 -38.5t-41 -13.5q-21 0 -39 7t-32 16q-11 8 -15.5 3t-17.5 -24l-7 -10q-10 -14 -13 -21t2 -12q6 -6 18 -13t29.5 -13t38 -10t42.5 -4q35 0 65 10.5
t51.5 29.5t34 44.5t12.5 55.5q0 37 -16.5 57t-39.5 29q40 17 55.5 45.5t15.5 54.5q0 46 -31.5 71t-91.5 25q-22 0 -53.5 -6t-52.5 -20q-6 -4 -8.5 -10t6.5 -25l7 -15q8 -16 12 -17.5t12 1.5q12 5 24 8.5t26 3.5q17 0 27.5 -9t10.5 -26q0 -26 -19 -38t-50 -12h-24z" />
    <glyph glyph-name="four.den" horiz-adv-x="367" 
d="M288 171l7 55q2 11 -6.5 14.5t-40.5 3.5h-13q-17 0 -26 -0.5t-13.5 -2.5t-6 -5.5t-2.5 -9.5l-7 -55h-50l119 209q6 11 -2 16.5t-44 5.5h-1q-30 0 -39 -3t-13 -10l-127 -215q-4 -7 -6 -13t-4 -20l-5 -35q-2 -14 4 -18t33 -4h121l-10 -66q-1 -5 -0.5 -8.5t4.5 -5.5t13.5 -3
t26.5 -1h13q16 0 26 1t15 3t7 5.5t3 8.5l10 66h34q8 0 10.5 8t6.5 35l1 7q2 16 2.5 23.5t-1 10.5t-5 3h-7.5h-27z" />
    <glyph glyph-name="five.den" horiz-adv-x="367" 
d="M300 310q8 0 10.5 8t6.5 35l1 7q2 16 2.5 24.5t-1 12.5t-5 4.5t-7.5 0.5h-188q-14 0 -21.5 -0.5t-11.5 -2.5t-5 -5.5t-2 -9.5l-27 -185q-3 -22 2 -25t19 0q20 5 34 6.5t28 1.5q28 0 41.5 -14.5t13.5 -38.5q0 -23 -16.5 -40.5t-43.5 -17.5q-23 0 -40.5 5.5t-34.5 13.5
q-8 5 -15 2t-18 -20l-7 -10q-12 -17 -13 -25.5t7 -13.5q16 -11 47 -22t69 -11q45 0 78.5 13.5t55.5 35t33 49.5t11 57q0 53 -28 85t-90 32q-10 0 -20 -2l7 50h128z" />
    <glyph glyph-name="six.den" horiz-adv-x="368" 
d="M186 319q9 8 19.5 11t21.5 3t22 -3t22 -8q7 -4 12.5 -1.5t17.5 20.5l8 12q12 17 14 22t-2 10q-10 11 -36.5 19t-55.5 8q-30 0 -58 -8.5t-50 -24.5q-27 -20 -47 -49t-32.5 -62t-18.5 -68.5t-6 -68.5q0 -60 32.5 -100.5t104.5 -40.5q36 0 66 12.5t52 34t34 50.5t12 62
q0 48 -27 80t-84 32q-14 0 -30.5 -3t-33.5 -12q9 27 20.5 45.5t22.5 27.5zM171 182q19 0 27.5 -11t8.5 -30q0 -24 -10.5 -46.5t-34.5 -22.5q-23 0 -28.5 17.5t-5.5 46.5v18.5t1 17.5q12 6 22 8t20 2z" />
    <glyph glyph-name="seven.den" horiz-adv-x="368" 
d="M66 402q-8 0 -10.5 -8t-6.5 -35l-1 -7q-2 -16 -2.5 -24.5t1 -12.5t4.5 -4.5t8 -0.5h143l-170 -288q-8 -14 -1.5 -18t43.5 -4h12q32 0 41 3t14 11l170 294q7 13 11.5 23t6.5 24l3 27q2 12 -4.5 16t-34.5 4h-227z" />
    <glyph glyph-name="eight.den" horiz-adv-x="367" 
d="M-4 94q0 -49 38.5 -76.5t98.5 -27.5q45 0 77.5 12t53.5 31t31 43t10 49q0 35 -17.5 56.5t-40.5 37.5q35 20 54 43.5t19 57.5q0 37 -31.5 64.5t-95.5 27.5q-66 0 -107 -36t-41 -96q0 -22 8.5 -41t22.5 -34q-32 -19 -56 -45.5t-24 -65.5zM192 115q0 -20 -13.5 -31.5
t-30.5 -11.5t-28.5 10.5t-11.5 24.5q0 17 9.5 30.5t26.5 25.5q21 -10 34.5 -19t13.5 -29zM150 301q0 14 9.5 23.5t25.5 9.5q13 0 21 -7.5t8 -18.5q0 -14 -9 -26t-25 -23q-14 9 -22 18.5t-8 23.5z" />
    <glyph glyph-name="nine.den" horiz-adv-x="367" 
d="M152 83q-9 -8 -19.5 -11t-21.5 -3q-28 0 -54 17q-7 4 -12.5 1.5t-17.5 -20.5l-8 -12q-14 -17 -15.5 -22t3.5 -10q11 -16 40.5 -24.5t61.5 -8.5q30 0 58 8.5t50 24.5q27 20 47 49t32.5 62t18.5 68.5t6 68.5q0 60 -32.5 100.5t-104.5 40.5q-36 0 -66 -11.5t-52 -31.5
t-34 -48.5t-12 -61.5q0 -48 27 -80t84 -32q14 0 32 3t35 12q-16 -55 -46 -79zM167 226q-19 0 -27.5 11t-8.5 30q0 24 10.5 43.5t34.5 19.5q23 0 28.5 -17.5t5.5 -46.5v-15.5t-1 -14.5q-11 -6 -22 -8t-20 -2z" />
    <glyph glyph-name="plus.den" horiz-adv-x="367" 
d="M293 154q8 0 12.5 6.5t9.5 31.5l1 6q5 26 0.5 32t-12.5 6h-83l12 85q2 10 -5.5 14t-37.5 4h-8q-29 0 -37 -4.5t-10 -13.5l-12 -85h-83q-8 0 -13 -6.5t-9 -31.5l-1 -7q-4 -25 0 -31t11 -6h84l-12 -79q-2 -9 5.5 -13t36.5 -4h8q30 0 38 4t10 13l12 79h83z" />
    <glyph glyph-name="minus.den" horiz-adv-x="368" 
d="M312 236h-264q-8 0 -13 -6.5t-9 -31.5l-1 -7q-4 -25 0 -31t11 -6h265q8 0 12.5 6.5t9.5 31.5l1 6q5 26 0.5 32t-12.5 6z" />
    <glyph glyph-name="equal.den" horiz-adv-x="368" 
d="M50 173q-8 0 -13 -6.5t-9 -31.5l-1 -7q-4 -25 0 -31t11 -6h241q8 0 12.5 6.5t9.5 31.5l1 6q5 26 0.5 32t-12.5 6h-240zM68 299q-8 0 -13 -6.5t-9 -31.5l-1 -7q-4 -25 0 -31t11 -6h241q8 0 12.5 6.5t9.5 31.5l1 6q5 26 0.5 32t-12.5 6h-240z" />
    <glyph glyph-name="parenleft.den" horiz-adv-x="252" 
d="M137 -67q21 14 24.5 21t1.5 12q-23 39 -31 79t-8 82q0 81 27.5 143.5t70.5 113.5q7 8 5.5 16t-21.5 21l-8 5q-22 14 -30.5 15t-16.5 -7q-71 -72 -107 -152.5t-36 -155.5q0 -54 19.5 -107t57.5 -100q6 -8 13 -8t27 14z" />
    <glyph glyph-name="parenright.den" horiz-adv-x="252" 
d="M64 419q-21 -14 -24.5 -21t-1.5 -12q23 -39 31 -79t8 -82q0 -81 -27.5 -143.5t-70.5 -113.5q-7 -8 -5.5 -16t21.5 -21l8 -5q22 -14 30.5 -15t16.5 7q71 72 107 152.5t36 155.5q0 54 -19.5 107t-57.5 100q-6 8 -13 8t-27 -14z" />
    <glyph glyph-name="period.den" horiz-adv-x="181" 
d="M2 50q0 -23 16.5 -39.5t41.5 -16.5q26 0 42.5 16.5t16.5 39.5q0 24 -16.5 40.5t-42.5 16.5q-25 0 -41.5 -16.5t-16.5 -40.5z" />
    <glyph glyph-name="comma.den" horiz-adv-x="192" 
d="M77 102q-27 0 -46.5 -14.5t-19.5 -41.5q0 -6 3.5 -14t6.5 -13q7 -10 8.5 -16t1.5 -10q0 -8 -5.5 -18t-12.5 -19.5t-14 -17t-10 -10.5q-4 -4 -2.5 -8t9.5 -13l9 -10q8 -9 14 -9t15 6q22 14 37 30.5t26 30.5q17 21 28 46t11 47q0 25 -16.5 39.5t-42.5 14.5z" />
    <glyph glyph-name="fraction" unicode="&#x2044;" horiz-adv-x="374" 
d="M390 720q-18 0 -29 -0.5t-17.5 -2t-10.5 -5t-7 -9.5l-405 -687q-5 -8 1.5 -12t41.5 -4h17q18 0 29 0.5t17.5 2t10.5 5t7 9.5l405 687q5 8 -1.5 12t-41.5 4h-17z" />
    <glyph glyph-name="onehalf" unicode="&#xbd;" horiz-adv-x="980" 
d="M310 318q7 0 9 6.5t5 29.5l1 7q4 26 1.5 30.5t-10.5 4.5h-53l43 306q2 11 -4.5 14.5t-30.5 3.5h-10q-18 0 -29.5 -1.5t-27.5 -8.5l-96 -41q-11 -5 -17.5 -12.5t-0.5 -27.5l8 -25q6 -20 11.5 -23.5t16.5 1.5l54 21l-28 -207h-65q-7 0 -9 -6.5t-5 -29.5l-1 -7
q-4 -26 -1.5 -30.5t10.5 -4.5h229zM693 720q-18 0 -29 -0.5t-17.5 -2t-10.5 -5t-7 -9.5l-405 -687q-5 -8 1.5 -12t41.5 -4h17q18 0 29 0.5t17.5 2t10.5 5t7 9.5l405 687q5 8 -1.5 12t-41.5 4h-17zM872 0q8 0 10.5 8t6.5 35l1 7q2 16 2.5 24.5t-1 12.5t-5 4.5t-7.5 0.5h-97
l20 19q36 34 61 61.5t40.5 50.5t22 43.5t6.5 41.5q0 20 -8 38.5t-23 33t-36.5 23.5t-49.5 9q-73 0 -132 -34q-7 -4 -10.5 -7t-3.5 -7.5t3.5 -12.5t9.5 -21l3 -6q9 -17 14.5 -21.5t13.5 0.5q40 24 71 24q16 0 25 -9.5t9 -26.5q0 -25 -23.5 -55.5t-74.5 -79.5l-82 -72
q-8 -8 -13 -14.5t-7 -18.5l-4 -35q-2 -11 4.5 -13.5t33.5 -2.5h220z" />
    <glyph glyph-name="onequarter" unicode="&#xbc;" horiz-adv-x="980" 
d="M310 318q7 0 9 6.5t5 29.5l1 7q4 26 1.5 30.5t-10.5 4.5h-53l43 306q2 11 -4.5 14.5t-30.5 3.5h-10q-18 0 -29.5 -1.5t-27.5 -8.5l-96 -41q-11 -5 -17.5 -12.5t-0.5 -27.5l8 -25q6 -20 11.5 -23.5t16.5 1.5l54 21l-28 -207h-65q-7 0 -9 -6.5t-5 -29.5l-1 -7
q-4 -26 -1.5 -30.5t10.5 -4.5h229zM693 720q-18 0 -29 -0.5t-17.5 -2t-10.5 -5t-7 -9.5l-405 -687q-5 -8 1.5 -12t41.5 -4h17q18 0 29 0.5t17.5 2t10.5 5t7 9.5l405 687q5 8 -1.5 12t-41.5 4h-17zM900 171l7 55q2 11 -6.5 14.5t-40.5 3.5h-13q-17 0 -26 -0.5t-13.5 -2.5
t-6 -5.5t-2.5 -9.5l-7 -55h-50l119 209q6 11 -2 16.5t-44 5.5h-1q-30 0 -39 -3t-13 -10l-127 -215q-4 -7 -6 -13t-4 -20l-5 -35q-2 -14 4 -18t33 -4h121l-10 -66q-1 -5 -0.5 -8.5t4.5 -5.5t13.5 -3t26.5 -1h13q16 0 26 1t15 3t7 5.5t3 8.5l10 66h34q8 0 10.5 8t6.5 35l1 7
q2 16 2.5 23.5t-1 10.5t-5 3h-7.5h-27z" />
    <glyph glyph-name="threequarters" unicode="&#xbe;" horiz-adv-x="980" 
d="M140 565q-7 0 -9 -6.5t-5 -29.5l-1 -8q-3 -23 -1 -28t10 -5h19q10 0 21.5 -1.5t21 -6.5t16 -14t6.5 -25q0 -25 -16 -38.5t-41 -13.5q-21 0 -39 7t-32 16q-11 8 -15.5 3t-17.5 -24l-7 -10q-10 -14 -13 -21t2 -12q6 -6 18 -13t29.5 -13t38 -10t42.5 -4q35 0 65 10.5
t51.5 29.5t34 44.5t12.5 55.5q0 37 -16.5 57t-39.5 29q40 17 55.5 45.5t15.5 54.5q0 46 -31.5 71t-91.5 25q-22 0 -53.5 -6t-52.5 -20q-6 -4 -8.5 -10t6.5 -25l7 -15q8 -16 12 -17.5t12 1.5q12 5 24 8.5t26 3.5q17 0 27.5 -9t10.5 -26q0 -26 -19 -38t-50 -12h-24zM693 720
q-18 0 -29 -0.5t-17.5 -2t-10.5 -5t-7 -9.5l-405 -687q-5 -8 1.5 -12t41.5 -4h17q18 0 29 0.5t17.5 2t10.5 5t7 9.5l405 687q5 8 -1.5 12t-41.5 4h-17zM900 171l7 55q2 11 -6.5 14.5t-40.5 3.5h-13q-17 0 -26 -0.5t-13.5 -2.5t-6 -5.5t-2.5 -9.5l-7 -55h-50l119 209
q6 11 -2 16.5t-44 5.5h-1q-30 0 -39 -3t-13 -10l-127 -215q-4 -7 -6 -13t-4 -20l-5 -35q-2 -14 4 -18t33 -4h121l-10 -66q-1 -5 -0.5 -8.5t4.5 -5.5t13.5 -3t26.5 -1h13q16 0 26 1t15 3t7 5.5t3 8.5l10 66h34q8 0 10.5 8t6.5 35l1 7q2 16 2.5 23.5t-1 10.5t-5 3h-7.5h-27z
" />
    <glyph glyph-name="onethird" unicode="&#x2153;" horiz-adv-x="980" 
d="M310 318q7 0 9 6.5t5 29.5l1 7q4 26 1.5 30.5t-10.5 4.5h-53l43 306q2 11 -4.5 14.5t-30.5 3.5h-10q-18 0 -29.5 -1.5t-27.5 -8.5l-96 -41q-11 -5 -17.5 -12.5t-0.5 -27.5l8 -25q6 -20 11.5 -23.5t16.5 1.5l54 21l-28 -207h-65q-7 0 -9 -6.5t-5 -29.5l-1 -7
q-4 -26 -1.5 -30.5t10.5 -4.5h229zM693 720q-18 0 -29 -0.5t-17.5 -2t-10.5 -5t-7 -9.5l-405 -687q-5 -8 1.5 -12t41.5 -4h17q18 0 29 0.5t17.5 2t10.5 5t7 9.5l405 687q5 8 -1.5 12t-41.5 4h-17zM712 247q-7 0 -9 -6.5t-5 -29.5l-1 -8q-3 -23 -1 -28t10 -5h19
q10 0 21.5 -1.5t21 -6.5t16 -14t6.5 -25q0 -25 -16 -38.5t-41 -13.5q-21 0 -39 7t-32 16q-11 8 -15.5 3t-17.5 -24l-7 -10q-10 -14 -13 -21t2 -12q6 -6 18 -13t29.5 -13t38 -10t42.5 -4q35 0 65 10.5t51.5 29.5t34 44.5t12.5 55.5q0 37 -16.5 57t-39.5 29q40 17 55.5 45.5
t15.5 54.5q0 46 -31.5 71t-91.5 25q-22 0 -53.5 -6t-52.5 -20q-6 -4 -8.5 -10t6.5 -25l7 -15q8 -16 12 -17.5t12 1.5q12 5 24 8.5t26 3.5q17 0 27.5 -9t10.5 -26q0 -26 -19 -38t-50 -12h-24z" />
    <glyph glyph-name="twothirds" unicode="&#x2154;" horiz-adv-x="980" 
d="M300 318q8 0 10.5 8t6.5 35l1 7q2 16 2.5 24.5t-1 12.5t-5 4.5t-7.5 0.5h-97l20 19q36 34 61 61.5t40.5 50.5t22 43.5t6.5 41.5q0 20 -8 38.5t-23 33t-36.5 23.5t-49.5 9q-73 0 -132 -34q-7 -4 -10.5 -7t-3.5 -7.5t3.5 -12.5t9.5 -21l3 -6q9 -17 14.5 -21.5t13.5 0.5
q40 24 71 24q16 0 25 -9.5t9 -26.5q0 -25 -23.5 -55.5t-74.5 -79.5l-82 -72q-8 -8 -13 -14.5t-7 -18.5l-4 -35q-2 -11 4.5 -13.5t33.5 -2.5h220zM692 720q-18 0 -29 -0.5t-17.5 -2t-10.5 -5t-7 -9.5l-405 -687q-5 -8 1.5 -12t41.5 -4h17q18 0 29 0.5t17.5 2t10.5 5t7 9.5
l405 687q5 8 -1.5 12t-41.5 4h-17zM711 247q-7 0 -9 -6.5t-5 -29.5l-1 -8q-3 -23 -1 -28t10 -5h19q10 0 21.5 -1.5t21 -6.5t16 -14t6.5 -25q0 -25 -16 -38.5t-41 -13.5q-21 0 -39 7t-32 16q-11 8 -15.5 3t-17.5 -24l-7 -10q-10 -14 -13 -21t2 -12q6 -6 18 -13t29.5 -13
t38 -10t42.5 -4q35 0 65 10.5t51.5 29.5t34 44.5t12.5 55.5q0 37 -16.5 57t-39.5 29q40 17 55.5 45.5t15.5 54.5q0 46 -31.5 71t-91.5 25q-22 0 -53.5 -6t-52.5 -20q-6 -4 -8.5 -10t6.5 -25l7 -15q8 -16 12 -17.5t12 1.5q12 5 24 8.5t26 3.5q17 0 27.5 -9t10.5 -26
q0 -26 -19 -38t-50 -12h-24z" />
    <glyph glyph-name="uni2155" unicode="&#x2155;" horiz-adv-x="980" 
d="M310 318q7 0 9 6.5t5 29.5l1 7q4 26 1.5 30.5t-10.5 4.5h-53l43 306q2 11 -4.5 14.5t-30.5 3.5h-10q-18 0 -29.5 -1.5t-27.5 -8.5l-96 -41q-11 -5 -17.5 -12.5t-0.5 -27.5l8 -25q6 -20 11.5 -23.5t16.5 1.5l54 21l-28 -207h-65q-7 0 -9 -6.5t-5 -29.5l-1 -7
q-4 -26 -1.5 -30.5t10.5 -4.5h229zM693 720q-18 0 -29 -0.5t-17.5 -2t-10.5 -5t-7 -9.5l-405 -687q-5 -8 1.5 -12t41.5 -4h17q18 0 29 0.5t17.5 2t10.5 5t7 9.5l405 687q5 8 -1.5 12t-41.5 4h-17zM912 310q8 0 10.5 8t6.5 35l1 7q2 16 2.5 24.5t-1 12.5t-5 4.5t-7.5 0.5
h-188q-14 0 -21.5 -0.5t-11.5 -2.5t-5 -5.5t-2 -9.5l-27 -185q-3 -22 2 -25t19 0q20 5 34 6.5t28 1.5q28 0 41.5 -14.5t13.5 -38.5q0 -23 -16.5 -40.5t-43.5 -17.5q-23 0 -40.5 5.5t-34.5 13.5q-8 5 -15 2t-18 -20l-7 -10q-12 -17 -13 -25.5t7 -13.5q16 -11 47 -22t69 -11
q45 0 78.5 13.5t55.5 35t33 49.5t11 57q0 53 -28 85t-90 32q-10 0 -20 -2l7 50h128z" />
    <glyph glyph-name="uni2156" unicode="&#x2156;" horiz-adv-x="980" 
d="M300 318q8 0 10.5 8t6.5 35l1 7q2 16 2.5 24.5t-1 12.5t-5 4.5t-7.5 0.5h-97l20 19q36 34 61 61.5t40.5 50.5t22 43.5t6.5 41.5q0 20 -8 38.5t-23 33t-36.5 23.5t-49.5 9q-73 0 -132 -34q-7 -4 -10.5 -7t-3.5 -7.5t3.5 -12.5t9.5 -21l3 -6q9 -17 14.5 -21.5t13.5 0.5
q40 24 71 24q16 0 25 -9.5t9 -26.5q0 -25 -23.5 -55.5t-74.5 -79.5l-82 -72q-8 -8 -13 -14.5t-7 -18.5l-4 -35q-2 -11 4.5 -13.5t33.5 -2.5h220zM692 720q-18 0 -29 -0.5t-17.5 -2t-10.5 -5t-7 -9.5l-405 -687q-5 -8 1.5 -12t41.5 -4h17q18 0 29 0.5t17.5 2t10.5 5t7 9.5
l405 687q5 8 -1.5 12t-41.5 4h-17zM911 310q8 0 10.5 8t6.5 35l1 7q2 16 2.5 24.5t-1 12.5t-5 4.5t-7.5 0.5h-188q-14 0 -21.5 -0.5t-11.5 -2.5t-5 -5.5t-2 -9.5l-27 -185q-3 -22 2 -25t19 0q20 5 34 6.5t28 1.5q28 0 41.5 -14.5t13.5 -38.5q0 -23 -16.5 -40.5t-43.5 -17.5
q-23 0 -40.5 5.5t-34.5 13.5q-8 5 -15 2t-18 -20l-7 -10q-12 -17 -13 -25.5t7 -13.5q16 -11 47 -22t69 -11q45 0 78.5 13.5t55.5 35t33 49.5t11 57q0 53 -28 85t-90 32q-10 0 -20 -2l7 50h128z" />
    <glyph glyph-name="uni2157" unicode="&#x2157;" horiz-adv-x="980" 
d="M140 565q-7 0 -9 -6.5t-5 -29.5l-1 -8q-3 -23 -1 -28t10 -5h19q10 0 21.5 -1.5t21 -6.5t16 -14t6.5 -25q0 -25 -16 -38.5t-41 -13.5q-21 0 -39 7t-32 16q-11 8 -15.5 3t-17.5 -24l-7 -10q-10 -14 -13 -21t2 -12q6 -6 18 -13t29.5 -13t38 -10t42.5 -4q35 0 65 10.5
t51.5 29.5t34 44.5t12.5 55.5q0 37 -16.5 57t-39.5 29q40 17 55.5 45.5t15.5 54.5q0 46 -31.5 71t-91.5 25q-22 0 -53.5 -6t-52.5 -20q-6 -4 -8.5 -10t6.5 -25l7 -15q8 -16 12 -17.5t12 1.5q12 5 24 8.5t26 3.5q17 0 27.5 -9t10.5 -26q0 -26 -19 -38t-50 -12h-24zM693 720
q-18 0 -29 -0.5t-17.5 -2t-10.5 -5t-7 -9.5l-405 -687q-5 -8 1.5 -12t41.5 -4h17q18 0 29 0.5t17.5 2t10.5 5t7 9.5l405 687q5 8 -1.5 12t-41.5 4h-17zM912 310q8 0 10.5 8t6.5 35l1 7q2 16 2.5 24.5t-1 12.5t-5 4.5t-7.5 0.5h-188q-14 0 -21.5 -0.5t-11.5 -2.5t-5 -5.5
t-2 -9.5l-27 -185q-3 -22 2 -25t19 0q20 5 34 6.5t28 1.5q28 0 41.5 -14.5t13.5 -38.5q0 -23 -16.5 -40.5t-43.5 -17.5q-23 0 -40.5 5.5t-34.5 13.5q-8 5 -15 2t-18 -20l-7 -10q-12 -17 -13 -25.5t7 -13.5q16 -11 47 -22t69 -11q45 0 78.5 13.5t55.5 35t33 49.5t11 57
q0 53 -28 85t-90 32q-10 0 -20 -2l7 50h128z" />
    <glyph glyph-name="uni2158" unicode="&#x2158;" horiz-adv-x="980" 
d="M328 489l7 55q2 11 -6.5 14.5t-40.5 3.5h-13q-17 0 -26 -0.5t-13.5 -2.5t-6 -5.5t-2.5 -9.5l-7 -55h-50l119 209q6 11 -2 16.5t-44 5.5h-1q-30 0 -39 -3t-13 -10l-127 -215q-4 -7 -6 -13t-4 -20l-5 -35q-2 -14 4 -18t33 -4h121l-10 -66q-1 -5 -0.5 -8.5t4.5 -5.5t13.5 -3
t26.5 -1h13q16 0 26 1t15 3t7 5.5t3 8.5l10 66h34q8 0 10.5 8t6.5 35l1 7q2 16 2.5 23.5t-1 10.5t-5 3h-7.5h-27zM692 720q-18 0 -29 -0.5t-17.5 -2t-10.5 -5t-7 -9.5l-405 -687q-5 -8 1.5 -12t41.5 -4h17q18 0 29 0.5t17.5 2t10.5 5t7 9.5l405 687q5 8 -1.5 12t-41.5 4h-17
zM911 310q8 0 10.5 8t6.5 35l1 7q2 16 2.5 24.5t-1 12.5t-5 4.5t-7.5 0.5h-188q-14 0 -21.5 -0.5t-11.5 -2.5t-5 -5.5t-2 -9.5l-27 -185q-3 -22 2 -25t19 0q20 5 34 6.5t28 1.5q28 0 41.5 -14.5t13.5 -38.5q0 -23 -16.5 -40.5t-43.5 -17.5q-23 0 -40.5 5.5t-34.5 13.5
q-8 5 -15 2t-18 -20l-7 -10q-12 -17 -13 -25.5t7 -13.5q16 -11 47 -22t69 -11q45 0 78.5 13.5t55.5 35t33 49.5t11 57q0 53 -28 85t-90 32q-10 0 -20 -2l7 50h128z" />
    <glyph glyph-name="uni2159" unicode="&#x2159;" horiz-adv-x="980" 
d="M310 318q7 0 9 6.5t5 29.5l1 7q4 26 1.5 30.5t-10.5 4.5h-53l43 306q2 11 -4.5 14.5t-30.5 3.5h-10q-18 0 -29.5 -1.5t-27.5 -8.5l-96 -41q-11 -5 -17.5 -12.5t-0.5 -27.5l8 -25q6 -20 11.5 -23.5t16.5 1.5l54 21l-28 -207h-65q-7 0 -9 -6.5t-5 -29.5l-1 -7
q-4 -26 -1.5 -30.5t10.5 -4.5h229zM693 720q-18 0 -29 -0.5t-17.5 -2t-10.5 -5t-7 -9.5l-405 -687q-5 -8 1.5 -12t41.5 -4h17q18 0 29 0.5t17.5 2t10.5 5t7 9.5l405 687q5 8 -1.5 12t-41.5 4h-17zM798 319q9 8 19.5 11t21.5 3t22 -3t22 -8q7 -4 12.5 -1.5t17.5 20.5l8 12
q12 17 14 22t-2 10q-10 11 -36.5 19t-55.5 8q-30 0 -58 -8.5t-50 -24.5q-27 -20 -47 -49t-32.5 -62t-18.5 -68.5t-6 -68.5q0 -60 32.5 -100.5t104.5 -40.5q36 0 66 12.5t52 34t34 50.5t12 62q0 48 -27 80t-84 32q-14 0 -30.5 -3t-33.5 -12q9 27 20.5 45.5t22.5 27.5z
M783 182q19 0 27.5 -11t8.5 -30q0 -24 -10.5 -46.5t-34.5 -22.5q-23 0 -28.5 17.5t-5.5 46.5v18.5t1 17.5q12 6 22 8t20 2z" />
    <glyph glyph-name="uni215A" unicode="&#x215a;" horiz-adv-x="980" 
d="M340 628q8 0 10.5 8t6.5 35l1 7q2 16 2.5 24.5t-1 12.5t-5 4.5t-7.5 0.5h-188q-14 0 -21.5 -0.5t-11.5 -2.5t-5 -5.5t-2 -9.5l-27 -185q-3 -22 2 -25t19 0q20 5 34 6.5t28 1.5q28 0 41.5 -14.5t13.5 -38.5q0 -23 -16.5 -40.5t-43.5 -17.5q-23 0 -40.5 5.5t-34.5 13.5
q-8 5 -15 2t-18 -20l-7 -10q-12 -17 -13 -25.5t7 -13.5q16 -11 47 -22t69 -11q45 0 78.5 13.5t55.5 35t33 49.5t11 57q0 53 -28 85t-90 32q-10 0 -20 -2l7 50h128zM692 720q-18 0 -29 -0.5t-17.5 -2t-10.5 -5t-7 -9.5l-405 -687q-5 -8 1.5 -12t41.5 -4h17q18 0 29 0.5
t17.5 2t10.5 5t7 9.5l405 687q5 8 -1.5 12t-41.5 4h-17zM797 319q9 8 19.5 11t21.5 3t22 -3t22 -8q7 -4 12.5 -1.5t17.5 20.5l8 12q12 17 14 22t-2 10q-10 11 -36.5 19t-55.5 8q-30 0 -58 -8.5t-50 -24.5q-27 -20 -47 -49t-32.5 -62t-18.5 -68.5t-6 -68.5q0 -60 32.5 -100.5
t104.5 -40.5q36 0 66 12.5t52 34t34 50.5t12 62q0 48 -27 80t-84 32q-14 0 -30.5 -3t-33.5 -12q9 27 20.5 45.5t22.5 27.5zM782 182q19 0 27.5 -11t8.5 -30q0 -24 -10.5 -46.5t-34.5 -22.5q-23 0 -28.5 17.5t-5.5 46.5v18.5t1 17.5q12 6 22 8t20 2z" />
    <glyph glyph-name="oneeighth" unicode="&#x215b;" horiz-adv-x="980" 
d="M310 318q7 0 9 6.5t5 29.5l1 7q4 26 1.5 30.5t-10.5 4.5h-53l43 306q2 11 -4.5 14.5t-30.5 3.5h-10q-18 0 -29.5 -1.5t-27.5 -8.5l-96 -41q-11 -5 -17.5 -12.5t-0.5 -27.5l8 -25q6 -20 11.5 -23.5t16.5 1.5l54 21l-28 -207h-65q-7 0 -9 -6.5t-5 -29.5l-1 -7
q-4 -26 -1.5 -30.5t10.5 -4.5h229zM693 720q-18 0 -29 -0.5t-17.5 -2t-10.5 -5t-7 -9.5l-405 -687q-5 -8 1.5 -12t41.5 -4h17q18 0 29 0.5t17.5 2t10.5 5t7 9.5l405 687q5 8 -1.5 12t-41.5 4h-17zM608 94q0 -49 38.5 -76.5t98.5 -27.5q45 0 77.5 12t53.5 31t31 43t10 49
q0 35 -17.5 56.5t-40.5 37.5q35 20 54 43.5t19 57.5q0 37 -31.5 64.5t-95.5 27.5q-66 0 -107 -36t-41 -96q0 -22 8.5 -41t22.5 -34q-32 -19 -56 -45.5t-24 -65.5zM804 115q0 -20 -13.5 -31.5t-30.5 -11.5t-28.5 10.5t-11.5 24.5q0 17 9.5 30.5t26.5 25.5q21 -10 34.5 -19
t13.5 -29zM762 301q0 14 9.5 23.5t25.5 9.5q13 0 21 -7.5t8 -18.5q0 -14 -9 -26t-25 -23q-14 9 -22 18.5t-8 23.5z" />
    <glyph glyph-name="threeeighths" unicode="&#x215c;" horiz-adv-x="980" 
d="M140 565q-7 0 -9 -6.5t-5 -29.5l-1 -8q-3 -23 -1 -28t10 -5h19q10 0 21.5 -1.5t21 -6.5t16 -14t6.5 -25q0 -25 -16 -38.5t-41 -13.5q-21 0 -39 7t-32 16q-11 8 -15.5 3t-17.5 -24l-7 -10q-10 -14 -13 -21t2 -12q6 -6 18 -13t29.5 -13t38 -10t42.5 -4q35 0 65 10.5
t51.5 29.5t34 44.5t12.5 55.5q0 37 -16.5 57t-39.5 29q40 17 55.5 45.5t15.5 54.5q0 46 -31.5 71t-91.5 25q-22 0 -53.5 -6t-52.5 -20q-6 -4 -8.5 -10t6.5 -25l7 -15q8 -16 12 -17.5t12 1.5q12 5 24 8.5t26 3.5q17 0 27.5 -9t10.5 -26q0 -26 -19 -38t-50 -12h-24zM693 720
q-18 0 -29 -0.5t-17.5 -2t-10.5 -5t-7 -9.5l-405 -687q-5 -8 1.5 -12t41.5 -4h17q18 0 29 0.5t17.5 2t10.5 5t7 9.5l405 687q5 8 -1.5 12t-41.5 4h-17zM608 94q0 -49 38.5 -76.5t98.5 -27.5q45 0 77.5 12t53.5 31t31 43t10 49q0 35 -17.5 56.5t-40.5 37.5q35 20 54 43.5
t19 57.5q0 37 -31.5 64.5t-95.5 27.5q-66 0 -107 -36t-41 -96q0 -22 8.5 -41t22.5 -34q-32 -19 -56 -45.5t-24 -65.5zM804 115q0 -20 -13.5 -31.5t-30.5 -11.5t-28.5 10.5t-11.5 24.5q0 17 9.5 30.5t26.5 25.5q21 -10 34.5 -19t13.5 -29zM762 301q0 14 9.5 23.5t25.5 9.5
q13 0 21 -7.5t8 -18.5q0 -14 -9 -26t-25 -23q-14 9 -22 18.5t-8 23.5z" />
    <glyph glyph-name="fiveeighths" unicode="&#x215d;" horiz-adv-x="980" 
d="M340 628q8 0 10.5 8t6.5 35l1 7q2 16 2.5 24.5t-1 12.5t-5 4.5t-7.5 0.5h-188q-14 0 -21.5 -0.5t-11.5 -2.5t-5 -5.5t-2 -9.5l-27 -185q-3 -22 2 -25t19 0q20 5 34 6.5t28 1.5q28 0 41.5 -14.5t13.5 -38.5q0 -23 -16.5 -40.5t-43.5 -17.5q-23 0 -40.5 5.5t-34.5 13.5
q-8 5 -15 2t-18 -20l-7 -10q-12 -17 -13 -25.5t7 -13.5q16 -11 47 -22t69 -11q45 0 78.5 13.5t55.5 35t33 49.5t11 57q0 53 -28 85t-90 32q-10 0 -20 -2l7 50h128zM692 720q-18 0 -29 -0.5t-17.5 -2t-10.5 -5t-7 -9.5l-405 -687q-5 -8 1.5 -12t41.5 -4h17q18 0 29 0.5
t17.5 2t10.5 5t7 9.5l405 687q5 8 -1.5 12t-41.5 4h-17zM607 94q0 -49 38.5 -76.5t98.5 -27.5q45 0 77.5 12t53.5 31t31 43t10 49q0 35 -17.5 56.5t-40.5 37.5q35 20 54 43.5t19 57.5q0 37 -31.5 64.5t-95.5 27.5q-66 0 -107 -36t-41 -96q0 -22 8.5 -41t22.5 -34
q-32 -19 -56 -45.5t-24 -65.5zM803 115q0 -20 -13.5 -31.5t-30.5 -11.5t-28.5 10.5t-11.5 24.5q0 17 9.5 30.5t26.5 25.5q21 -10 34.5 -19t13.5 -29zM761 301q0 14 9.5 23.5t25.5 9.5q13 0 21 -7.5t8 -18.5q0 -14 -9 -26t-25 -23q-14 9 -22 18.5t-8 23.5z" />
    <glyph glyph-name="seveneighths" unicode="&#x215e;" horiz-adv-x="980" 
d="M106 720q-8 0 -10.5 -8t-6.5 -35l-1 -7q-2 -16 -2.5 -24.5t1 -12.5t4.5 -4.5t8 -0.5h143l-170 -288q-8 -14 -1.5 -18t43.5 -4h12q32 0 41 3t14 11l170 294q7 13 11.5 23t6.5 24l3 27q2 12 -4.5 16t-34.5 4h-227zM693 720q-18 0 -29 -0.5t-17.5 -2t-10.5 -5t-7 -9.5
l-405 -687q-5 -8 1.5 -12t41.5 -4h17q18 0 29 0.5t17.5 2t10.5 5t7 9.5l405 687q5 8 -1.5 12t-41.5 4h-17zM608 94q0 -49 38.5 -76.5t98.5 -27.5q45 0 77.5 12t53.5 31t31 43t10 49q0 35 -17.5 56.5t-40.5 37.5q35 20 54 43.5t19 57.5q0 37 -31.5 64.5t-95.5 27.5
q-66 0 -107 -36t-41 -96q0 -22 8.5 -41t22.5 -34q-32 -19 -56 -45.5t-24 -65.5zM804 115q0 -20 -13.5 -31.5t-30.5 -11.5t-28.5 10.5t-11.5 24.5q0 17 9.5 30.5t26.5 25.5q21 -10 34.5 -19t13.5 -29zM762 301q0 14 9.5 23.5t25.5 9.5q13 0 21 -7.5t8 -18.5q0 -14 -9 -26
t-25 -23q-14 9 -22 18.5t-8 23.5z" />
    <glyph glyph-name="Agrave" unicode="&#xc0;" horiz-adv-x="646" 
d="M368 720q-21 0 -33.5 -1t-19.5 -3t-10 -5t-5 -7l-334 -687q-3 -5 -2.5 -8.5t6 -5.5t18 -2.5t33.5 -0.5h13q43 0 56.5 4t17.5 13l77 166h226l33 -166q2 -9 15 -13t56 -4h9q22 0 35 1t20 3t8.5 5.5t0.5 8.5l-146 686q-2 10 -13.5 13t-51.5 3h-9zM252 326q33 73 57.5 128
t40.5 93q2 -20 5 -41t7 -47t9.5 -58t12.5 -73l6 -35h-153zM272 978q-23 0 -29.5 -4t-1.5 -12l105 -163q4 -6 11.5 -8.5t27.5 -2.5h30q17 0 23.5 3t2.5 12l-81 163q-3 7 -12 9.5t-36 2.5h-40z" />
    <glyph glyph-name="Aacute" unicode="&#xc1;" horiz-adv-x="646" 
d="M368 720q-21 0 -33.5 -1t-19.5 -3t-10 -5t-5 -7l-334 -687q-3 -5 -2.5 -8.5t6 -5.5t18 -2.5t33.5 -0.5h13q43 0 56.5 4t17.5 13l77 166h226l33 -166q2 -9 15 -13t56 -4h9q22 0 35 1t20 3t8.5 5.5t0.5 8.5l-146 686q-2 10 -13.5 13t-51.5 3h-9zM252 326q33 73 57.5 128
t40.5 93q2 -20 5 -41t7 -47t9.5 -58t12.5 -73l6 -35h-153zM479 978q-27 0 -36 -2.5t-14 -9.5l-123 -163q-11 -15 22 -15h35q19 0 26.5 2t14.5 9l151 163q7 8 1.5 12t-28.5 4h-49z" />
    <glyph glyph-name="Acircumflex" unicode="&#xc2;" horiz-adv-x="646" 
d="M368 720q-21 0 -33.5 -1t-19.5 -3t-10 -5t-5 -7l-334 -687q-3 -5 -2.5 -8.5t6 -5.5t18 -2.5t33.5 -0.5h13q43 0 56.5 4t17.5 13l77 166h226l33 -166q2 -9 15 -13t56 -4h9q22 0 35 1t20 3t8.5 5.5t0.5 8.5l-146 686q-2 10 -13.5 13t-51.5 3h-9zM252 326q33 73 57.5 128
t40.5 93q2 -20 5 -41t7 -47t9.5 -58t12.5 -73l6 -35h-153zM226 855q-8 -8 -6 -15t13 -20l11 -12q13 -14 19.5 -17.5t14.5 2.5l113 90l85 -86q6 -6 13.5 -3.5t24.5 18.5l9 8q16 15 19 22t-2 13l-75 97q-8 10 -20 13t-39 3h-14q-27 0 -39.5 -3t-23.5 -13z" />
    <glyph glyph-name="Atilde" unicode="&#xc3;" horiz-adv-x="646" 
d="M368 720q-21 0 -33.5 -1t-19.5 -3t-10 -5t-5 -7l-334 -687q-3 -5 -2.5 -8.5t6 -5.5t18 -2.5t33.5 -0.5h13q43 0 56.5 4t17.5 13l77 166h226l33 -166q2 -9 15 -13t56 -4h9q22 0 35 1t20 3t8.5 5.5t0.5 8.5l-146 686q-2 10 -13.5 13t-51.5 3h-9zM252 326q33 73 57.5 128
t40.5 93q2 -20 5 -41t7 -47t9.5 -58t12.5 -73l6 -35h-153zM226 835q15 -15 22.5 -17.5t12.5 2.5q17 17 31.5 23t28.5 6q12 0 23 -6t23 -13t26.5 -13t33.5 -6q36 0 67.5 18.5t57.5 49.5q6 8 4.5 15.5t-15.5 21.5l-4 4q-15 15 -22.5 17.5t-12.5 -2.5q-16 -17 -31.5 -23
t-30.5 -6q-12 0 -23 6t-23 13t-26.5 13t-33.5 6q-35 0 -65.5 -18t-57.5 -50q-6 -8 -4.5 -15.5t15.5 -21.5z" />
    <glyph glyph-name="Adieresis" unicode="&#xc4;" horiz-adv-x="646" 
d="M368 720q-21 0 -33.5 -1t-19.5 -3t-10 -5t-5 -7l-334 -687q-3 -5 -2.5 -8.5t6 -5.5t18 -2.5t33.5 -0.5h13q43 0 56.5 4t17.5 13l77 166h226l33 -166q2 -9 15 -13t56 -4h9q22 0 35 1t20 3t8.5 5.5t0.5 8.5l-146 686q-2 10 -13.5 13t-51.5 3h-9zM252 326q33 73 57.5 128
t40.5 93q2 -20 5 -41t7 -47t9.5 -58t12.5 -73l6 -35h-153zM288 942q-35 0 -55 -24t-20 -53q0 -27 18.5 -45t48.5 -18q18 0 32 7t24 18t15 24.5t5 27.5q0 27 -18.5 45t-49.5 18zM502 942q-35 0 -55 -24t-20 -53q0 -27 18.5 -45t48.5 -18q18 0 32 7t24 18t15 24.5t5 27.5
q0 27 -18.5 45t-49.5 18z" />
    <glyph glyph-name="Amacron" unicode="&#x100;" horiz-adv-x="646" 
d="M368 720q-21 0 -33.5 -1t-19.5 -3t-10 -5t-5 -7l-334 -687q-3 -5 -2.5 -8.5t6 -5.5t18 -2.5t33.5 -0.5h13q43 0 56.5 4t17.5 13l77 166h226l33 -166q2 -9 15 -13t56 -4h9q22 0 35 1t20 3t8.5 5.5t0.5 8.5l-146 686q-2 10 -13.5 13t-51.5 3h-9zM252 326q33 73 57.5 128
t40.5 93q2 -20 5 -41t7 -47t9.5 -58t12.5 -73l6 -35h-153zM258 924q-8 0 -12 -9t-7 -32l-2 -14q-3 -23 -2 -32t9 -9h264q8 0 12 9t7 32l2 14q3 23 2 32t-9 9h-264z" />
    <glyph glyph-name="Abreve" unicode="&#x102;" horiz-adv-x="646" 
d="M368 720q-21 0 -33.5 -1t-19.5 -3t-10 -5t-5 -7l-334 -687q-3 -5 -2.5 -8.5t6 -5.5t18 -2.5t33.5 -0.5h13q43 0 56.5 4t17.5 13l77 166h226l33 -166q2 -9 15 -13t56 -4h9q22 0 35 1t20 3t8.5 5.5t0.5 8.5l-146 686q-2 10 -13.5 13t-51.5 3h-9zM252 326q33 73 57.5 128
t40.5 93q2 -20 5 -41t7 -47t9.5 -58t12.5 -73l6 -35h-153zM275 952q-18 0 -26.5 -3.5t-8.5 -19.5q-1 -60 35 -96t101 -36q67 0 111 37.5t57 103.5q2 8 -6 11t-34 3h-18q-22 0 -27 -2t-7 -10q-18 -57 -67 -57q-25 0 -38 15.5t-13 41.5q0 6 -4.5 9t-27.5 3h-27z" />
    <glyph glyph-name="Acaron" unicode="&#x1cd;" horiz-adv-x="646" 
d="M368 720q-21 0 -33.5 -1t-19.5 -3t-10 -5t-5 -7l-334 -687q-3 -5 -2.5 -8.5t6 -5.5t18 -2.5t33.5 -0.5h13q43 0 56.5 4t17.5 13l77 166h226l33 -166q2 -9 15 -13t56 -4h9q22 0 35 1t20 3t8.5 5.5t0.5 8.5l-146 686q-2 10 -13.5 13t-51.5 3h-9zM252 326q33 73 57.5 128
t40.5 93q2 -20 5 -41t7 -47t9.5 -58t12.5 -73l6 -35h-153zM256 938q-16 -14 -19 -21.5t2 -13.5l75 -97q8 -10 20 -13t39 -3h14q27 0 39.5 3t23.5 13l103 97q8 8 6 15.5t-13 19.5l-11 12q-12 14 -19 17.5t-15 -2.5l-112 -89l-85 86q-6 6 -13.5 3t-24.5 -18z" />
    <glyph glyph-name="Aring" unicode="&#xc5;" horiz-adv-x="646" 
d="M440 712q26 17 42 44.5t16 58.5q0 41 -29.5 68.5t-74.5 27.5q-24 0 -46 -10.5t-38.5 -27.5t-26.5 -39t-10 -46q0 -44 33 -72l-340 -699q-3 -5 -2.5 -8.5t6 -5.5t18 -2.5t33.5 -0.5h13q43 0 56.5 4t17.5 13l77 166h226l33 -166q2 -9 15 -13t56 -4h9q22 0 35 1t20 3
t8.5 5.5t0.5 8.5zM252 326q33 73 57.5 128t40.5 93q2 -20 5 -41t7 -47t9.5 -58t12.5 -73l6 -35h-153zM386 841q17 0 27.5 -9t10.5 -25q0 -21 -13 -33t-27 -12q-17 0 -27 9t-10 25q0 21 12.5 33t26.5 12z" />
    <glyph glyph-name="Aringacute" unicode="&#x1fa;" horiz-adv-x="646" 
d="M588 18q1 -5 -0.5 -8.5t-8.5 -5.5t-20 -3t-35 -1h-9q-43 0 -56 4t-15 13l-33 166h-226l-77 -166q-4 -9 -17.5 -13t-56.5 -4h-13q-21 0 -33.5 0.5t-18 2.5t-6 5.5t2.5 8.5l340 699q-33 28 -33 72q0 24 10 46t26.5 39t38.5 27.5t46 10.5q45 0 74.5 -27.5t29.5 -68.5
q0 -31 -16 -58.5t-42 -44.5zM237 293h153l-6 35q-7 41 -12.5 73t-9.5 58t-7 47t-5 41q-16 -38 -40.5 -93t-57.5 -128zM386 841q-14 0 -26.5 -12t-12.5 -33q0 -16 10 -25t27 -9q14 0 27 12t13 33q0 16 -10.5 25t-27.5 9zM525 1133q23 0 28.5 -4t-1.5 -12l-151 -163
q-7 -7 -14.5 -9t-26.5 -2h-35q-33 0 -22 15l123 163q5 7 14 9.5t36 2.5h49z" />
    <glyph glyph-name="Aogonek" unicode="&#x104;" horiz-adv-x="646" 
d="M368 720q-21 0 -33.5 -1t-19.5 -3t-10 -5t-5 -7l-334 -687q-3 -5 -2.5 -8.5t6 -5.5t18 -2.5t33.5 -0.5h13q43 0 56.5 4t17.5 13l77 166h226l35 -176q-42 -24 -70.5 -63.5t-28.5 -87.5t30 -72t78 -24q18 0 43 3.5t43 13.5q9 5 11 12t-3 27l-4 17q-4 17 -8 21.5t-11 2.5
q-8 -3 -18.5 -5.5t-20.5 -2.5q-38 0 -38 39q0 19 9.5 37t25.5 33t38 26.5t47 17.5q14 4 16.5 9t0.5 16l-144 677q-2 10 -13.5 13t-51.5 3h-9zM252 326q33 73 57.5 128t40.5 93q2 -20 5 -41t7 -47t9.5 -58t12.5 -73l6 -35h-153z" />
    <glyph glyph-name="AE" unicode="&#xc6;" horiz-adv-x="958" 
d="M522 720q-32 0 -41.5 -3.5t-16.5 -12.5l-510 -687q-4 -5 -4.5 -8t4.5 -5t16.5 -3t31.5 -1h32q36 0 51.5 3t23.5 14l113 157h229l-23 -159q-2 -10 5.5 -12.5t36.5 -2.5h371q10 0 15 9t10 46l1 8q3 19 3.5 29.5t-0.5 16t-4 6.5t-8 1h-273l26 190h228q10 0 15 9t10 46l1 8
q3 19 3.5 29.5t-0.5 16t-4 6.5t-8 1h-228l25 182h269q10 0 15 9t10 46l1 8q3 19 3.5 29.5t-0.5 16t-4.5 6.5t-8.5 1h-416zM389 404q18 25 35.5 50t33.5 48.5t29 43t21 34.5l-42 -297h-165z" />
    <glyph glyph-name="AEacute" unicode="&#x1fc;" horiz-adv-x="958" 
d="M522 720q-32 0 -41.5 -3.5t-16.5 -12.5l-510 -687q-4 -5 -4.5 -8t4.5 -5t16.5 -3t31.5 -1h32q36 0 51.5 3t23.5 14l113 157h229l-23 -159q-2 -10 5.5 -12.5t36.5 -2.5h371q10 0 15 9t10 46l1 8q3 19 3.5 29.5t-0.5 16t-4 6.5t-8 1h-273l26 190h228q10 0 15 9t10 46l1 8
q3 19 3.5 29.5t-0.5 16t-4 6.5t-8 1h-228l25 182h269q10 0 15 9t10 46l1 8q3 19 3.5 29.5t-0.5 16t-4.5 6.5t-8.5 1h-416zM389 404q18 25 35.5 50t33.5 48.5t29 43t21 34.5l-42 -297h-165zM747 978q-27 0 -36 -2.5t-14 -9.5l-123 -163q-11 -15 22 -15h35q19 0 26.5 2t14.5 9
l151 163q7 8 1.5 12t-28.5 4h-49z" />
    <glyph glyph-name="Cacute" unicode="&#x106;" horiz-adv-x="574" 
d="M566 621q17 26 19.5 36t-8.5 18q-35 29 -82 42t-104 13q-95 0 -163 -42.5t-112.5 -108t-65.5 -144.5t-21 -152q0 -138 67.5 -215.5t195.5 -77.5q53 0 107 15.5t92 37.5q14 8 14.5 17t-7.5 33l-8 24q-8 26 -14 30t-16 -1q-31 -15 -67 -24t-66 -9q-78 0 -114.5 44.5
t-36.5 140.5q0 48 11.5 102.5t36 100.5t63.5 76.5t95 30.5q38 0 67 -8.5t61 -29.5q7 -5 15.5 0t25.5 29zM465 978q-27 0 -36 -2.5t-14 -9.5l-123 -163q-11 -15 22 -15h35q19 0 26.5 2t14.5 9l151 163q7 8 1.5 12t-28.5 4h-49z" />
    <glyph glyph-name="Ccedilla" unicode="&#xc7;" horiz-adv-x="574" 
d="M566 621q17 26 19.5 36t-8.5 18q-35 29 -82 42t-104 13q-95 0 -163 -42.5t-112.5 -108t-65.5 -144.5t-21 -152q0 -128 58 -204t169 -87l-28 -97q17 2 32 3t26 1q42 0 42 -28q0 -16 -12 -23.5t-30 -7.5q-14 0 -24.5 2t-21.5 5q-10 3 -14 -2t-11 -23l-4 -11q-8 -22 -8 -28
t8 -9q32 -13 73 -13q30 0 55.5 8.5t44.5 23.5t30 36t11 47q-1 43 -26 64t-66 23l6 30q42 5 82.5 19t69.5 31q14 8 14.5 17t-7.5 33l-8 24q-8 26 -14 30t-16 -1q-31 -15 -67 -24t-66 -9q-78 0 -114.5 44.5t-36.5 140.5q0 48 11.5 102.5t36 100.5t63.5 76.5t95 30.5
q38 0 67 -8.5t61 -29.5q7 -5 15.5 0t25.5 29z" />
    <glyph glyph-name="Ccircumflex" unicode="&#x108;" horiz-adv-x="574" 
d="M566 621q17 26 19.5 36t-8.5 18q-35 29 -82 42t-104 13q-95 0 -163 -42.5t-112.5 -108t-65.5 -144.5t-21 -152q0 -138 67.5 -215.5t195.5 -77.5q53 0 107 15.5t92 37.5q14 8 14.5 17t-7.5 33l-8 24q-8 26 -14 30t-16 -1q-31 -15 -67 -24t-66 -9q-78 0 -114.5 44.5
t-36.5 140.5q0 48 11.5 102.5t36 100.5t63.5 76.5t95 30.5q38 0 67 -8.5t61 -29.5q7 -5 15.5 0t25.5 29zM262 855q-8 -8 -6 -15t13 -20l11 -12q13 -14 19.5 -17.5t14.5 2.5l113 90l85 -86q6 -6 13.5 -3.5t24.5 18.5l9 8q16 15 19 22t-2 13l-75 97q-8 10 -20 13t-39 3h-14
q-27 0 -39.5 -3t-23.5 -13z" />
    <glyph glyph-name="Ccaron" unicode="&#x10c;" horiz-adv-x="574" 
d="M566 621q17 26 19.5 36t-8.5 18q-35 29 -82 42t-104 13q-95 0 -163 -42.5t-112.5 -108t-65.5 -144.5t-21 -152q0 -138 67.5 -215.5t195.5 -77.5q53 0 107 15.5t92 37.5q14 8 14.5 17t-7.5 33l-8 24q-8 26 -14 30t-16 -1q-31 -15 -67 -24t-66 -9q-78 0 -114.5 44.5
t-36.5 140.5q0 48 11.5 102.5t36 100.5t63.5 76.5t95 30.5q38 0 67 -8.5t61 -29.5q7 -5 15.5 0t25.5 29zM274 938q-16 -14 -19 -21.5t2 -13.5l75 -97q8 -10 20 -13t39 -3h14q27 0 39.5 3t23.5 13l103 97q8 8 6 15.5t-13 19.5l-11 12q-12 14 -19 17.5t-15 -2.5l-112 -89
l-85 86q-6 6 -13.5 3t-24.5 -18z" />
    <glyph glyph-name="Cdotaccent" unicode="&#x10a;" horiz-adv-x="574" 
d="M566 621q17 26 19.5 36t-8.5 18q-35 29 -82 42t-104 13q-95 0 -163 -42.5t-112.5 -108t-65.5 -144.5t-21 -152q0 -138 67.5 -215.5t195.5 -77.5q53 0 107 15.5t92 37.5q14 8 14.5 17t-7.5 33l-8 24q-8 26 -14 30t-16 -1q-31 -15 -67 -24t-66 -9q-78 0 -114.5 44.5
t-36.5 140.5q0 48 11.5 102.5t36 100.5t63.5 76.5t95 30.5q38 0 67 -8.5t61 -29.5q7 -5 15.5 0t25.5 29zM410 952q-18 0 -32 -7t-24 -18t-15.5 -25t-5.5 -29q0 -28 19 -47t50 -19q18 0 32.5 7.5t24.5 18.5t15.5 25t5.5 28q0 29 -19 47.5t-51 18.5z" />
    <glyph glyph-name="Dcaron" unicode="&#x10e;" horiz-adv-x="658" 
d="M247 604h49q53 0 89.5 -9.5t58.5 -35.5t29.5 -62t7.5 -74q0 -35 -5 -72.5t-16 -72.5t-29 -65.5t-44 -52.5q-32 -27 -75 -35.5t-85 -8.5h-48zM165 720q-29 0 -37 -2.5t-9 -12.5l-97 -690q-2 -10 5.5 -12.5t36.5 -2.5h151q81 0 149 14t118 56q39 33 66.5 76t45 91
t25.5 98.5t8 97.5q0 63 -16 112t-42 83q-37 48 -102 70t-161 22h-141zM255 938q-16 -14 -19 -21.5t2 -13.5l75 -97q8 -10 20 -13t39 -3h14q27 0 39.5 3t23.5 13l103 97q8 8 6 15.5t-13 19.5l-11 12q-12 14 -19 17.5t-15 -2.5l-112 -89l-85 86q-6 6 -13.5 3t-24.5 -18z" />
    </font>
</defs>
</svg>
