<?xml version="1.0" encoding="UTF-8"?>
<svg width="250px" height="148px" viewBox="0 0 250 148" version="1.1" xmlns="http://www.w3.org/2000/svg" xmlns:xlink="http://www.w3.org/1999/xlink">
    <!-- Generator: Sketch 41 (35326) - http://www.bohemiancoding.com/sketch -->
    <title>about-us copy</title>
    <desc>Created with Sketch.</desc>
    <defs></defs>
    <g id="Page-1" stroke="none" stroke-width="1" fill="none" fill-rule="evenodd">
        <g id="about-us-copy" fill="#6D6875">
            <g id="Capa_1">
                <g id="Group">
                    <path d="M124.878728,66.8941352 C143.350895,66.8941352 158.199801,51.9597416 158.199801,33.6053678 C158.221173,15.1973161 143.350895,0.305666004 124.878728,0.305666004 C106.534791,0.305666004 91.6436382,15.1973161 91.6436382,33.6053678 C91.6436382,51.9816103 106.535288,66.8941352 124.878728,66.8941352 L124.878728,66.8941352 Z" id="Shape"></path>
                    <path d="M151.606362,72.3190855 L98.2370775,72.3190855 C88.695328,72.3190855 80.8797217,81.0675944 80.8797217,91.7992048 L80.8797217,145.404573 C80.8797217,145.994036 81.1799205,146.519384 81.2122266,147.130716 L168.599404,147.130716 C168.663519,146.519881 168.910537,145.994533 168.910537,145.404573 L168.910537,91.7992048 C168.942346,81.0675944 161.12674,72.3190855 151.606362,72.3190855 L151.606362,72.3190855 Z" id="Shape"></path>
                    <path d="M214.506958,82.7828032 C229.333996,82.7828032 241.223658,70.8503976 241.223658,56.1088469 C241.223658,41.3672962 229.333996,29.4135189 214.506958,29.4135189 C199.786779,29.4135189 187.875746,41.3672962 187.875746,56.1088469 C187.843936,70.8399602 199.787276,82.7828032 214.506958,82.7828032 L214.506958,82.7828032 Z" id="Shape"></path>
                    <path d="M235.93837,87.1356859 L193.171968,87.1356859 C185.495527,87.1356859 179.223658,94.1471173 179.223658,102.777833 L179.223658,145.72664 C179.223658,146.187873 179.448807,146.627237 179.481113,147.131213 L249.575547,147.131213 C249.607853,146.627237 249.822068,146.187873 249.822068,145.72664 L249.822068,102.777833 C249.854374,94.1471173 243.593439,87.1356859 235.93837,87.1356859 L235.93837,87.1356859 Z" id="Shape"></path>
                    <path d="M35.2937376,82.7828032 C50.0994036,82.7828032 62,70.8503976 62,56.1088469 C62,41.3672962 50.0994036,29.4135189 35.2937376,29.4135189 C20.5631213,29.4135189 8.65208748,41.3672962 8.65208748,56.1088469 C8.65208748,70.8503976 20.5631213,82.7828032 35.2937376,82.7828032 L35.2937376,82.7828032 L35.2937376,82.7828032 Z" id="Shape"></path>
                    <path d="M56.7142147,87.1356859 L13.9050696,87.1356859 C6.25049702,87.1356859 0,94.1471173 0,102.777833 L0,145.72664 C0,146.187873 0.225149105,146.627237 0.267892644,147.131213 L70.362326,147.131213 C70.3946322,146.627237 70.5984095,146.187873 70.5984095,145.72664 L70.5984095,102.777833 C70.6197813,94.1471173 64.3583499,87.1356859 56.7142147,87.1356859 L56.7142147,87.1356859 Z" id="Shape"></path>
                </g>
            </g>
        </g>
    </g>
</svg>