<?xml version="1.0" encoding="UTF-8"?>
<svg width="200px" height="201px" viewBox="0 0 200 201" version="1.1" xmlns="http://www.w3.org/2000/svg" xmlns:xlink="http://www.w3.org/1999/xlink">
    <!-- Generator: Sketch 41 (35326) - http://www.bohemiancoding.com/sketch -->
    <title>target copy</title>
    <desc>Created with Sketch.</desc>
    <defs></defs>
    <g id="Page-1" stroke="none" stroke-width="1" fill="none" fill-rule="evenodd">
        <g id="Artboard" transform="translate(-1117.000000, -60.000000)" fill="#6D6875">
            <g id="target-copy" transform="translate(1117.000000, 60.000000)">
                <g id="Capa_1">
                    <g id="Group">
                        <path d="M90.3243414,200.846262 C140.187355,200.846262 180.609062,160.423897 180.609062,110.560283 C180.609062,95.2177777 176.794099,80.781294 170.050158,68.1361988 C169.31254,68.2415746 168.553846,68.2837249 167.816228,68.2837249 C167.394731,68.2837249 166.95216,68.2626498 166.5098,68.2415746 L155.024025,67.3564179 L146.762487,75.6178801 C153.063857,85.7761066 156.710011,97.7467968 156.710011,110.560283 C156.710011,147.209983 126.994521,176.925957 90.3452055,176.925957 C53.6963119,176.925957 23.9595364,147.209983 23.9595364,110.560283 C23.9595364,73.9107923 53.6750263,44.1948185 90.3241307,44.1948185 C103.158904,44.1948185 115.129189,47.840821 125.265964,54.1422934 L132.747524,46.6606121 L131.736143,33.4886379 C131.651844,32.43488 131.672708,31.381122 131.778082,30.3484393 C119.365016,23.9205159 105.266175,20.2745134 90.3030558,20.2745134 C40.461117,20.2745134 0.0396206533,60.6966678 0.0396206533,110.560283 C0.0396206533,160.423897 40.4613277,200.846262 90.3243414,200.846262 L90.3243414,200.846262 Z" id="Shape"></path>
                        <path d="M90.3243414,87.2300818 C90.9144362,87.2300818 91.5045311,87.2513677 92.0946259,87.2933073 L108.764805,70.6228568 L109.122866,70.2645791 C103.411591,67.5880339 97.0472076,66.0916977 90.3241307,66.0916977 C65.7719705,66.0916977 45.8773446,85.9866475 45.8773446,110.539207 C45.8773446,135.091767 65.7719705,155.007792 90.3241307,155.007792 C114.876291,155.007792 134.771128,135.112842 134.771128,110.560283 C134.771128,103.837307 133.274394,97.4728197 130.598103,91.7612409 L130.240042,92.1195186 L113.569442,108.789758 C113.611802,109.380074 113.632877,109.970389 113.632877,110.560072 C113.632877,123.436994 103.200843,133.890483 90.3030558,133.890483 C77.4052687,133.890483 66.9940991,123.436783 66.9940991,110.560072 C66.9945205,97.6833605 77.4476291,87.2300818 90.3243414,87.2300818 L90.3243414,87.2300818 Z" id="Shape"></path>
                        <path d="M183.369652,30.0531763 L188.722655,24.700086 C191.167334,22.2553676 191.167334,18.3143129 188.722655,15.8695945 L185.013066,12.1392914 C183.790938,10.9169322 182.189463,10.3057526 180.608851,10.3057526 C179.02824,10.3057526 177.405269,10.9169322 176.204215,12.1392914 L170.071444,18.2721626 L168.806955,1.9389146 C168.722655,0.737630554 167.731718,0 166.699473,0 C166.172603,0 165.645732,0.189676428 165.224236,0.611179602 L141.093572,24.7422363 C138.922655,26.9129777 137.805479,29.9267253 138.037724,33.0036985 L138.100738,33.9520807 L139.259852,49.0629694 L130.534879,57.7880851 L114.834141,73.4890784 L114.47608,73.8473561 L99.281138,89.0427562 L92.537197,95.786807 C91.6520548,96.6717529 91.1041096,97.8521726 91.0198103,99.0953962 L90.598314,104.385472 C90.3454162,107.462445 92.7900948,110.075765 95.8459431,110.075765 L96.1199157,110.075765 L101.704742,109.801577 C103.01117,109.738141 104.254795,109.190397 105.161012,108.262879 L111.841728,101.582265 L127.03667,86.3870755 L127.395153,86.0287978 L143.09589,70.3278046 L152.579557,60.8439831 L166.362065,61.8977411 L166.973235,61.9398914 C167.247418,61.9609666 167.52118,61.9609666 167.774289,61.9609666 C170.555954,61.9609666 173.232666,60.8650583 175.234773,58.8839934 L199.344152,34.7740118 C200.608641,33.5095023 199.808008,31.3176858 198.016649,31.1912349 L183.369652,30.0531763 L183.369652,30.0531763 Z" id="Shape"></path>
                    </g>
                </g>
            </g>
        </g>
    </g>
</svg>