<?xml version="1.0" encoding="UTF-8"?>
<svg width="250px" height="164px" viewBox="0 0 250 164" version="1.1" xmlns="http://www.w3.org/2000/svg" xmlns:xlink="http://www.w3.org/1999/xlink">
    <!-- Generator: Sketch 41 (35326) - http://www.bohemiancoding.com/sketch -->
    <title>handshake copy</title>
    <desc>Created with Sketch.</desc>
    <defs></defs>
    <g id="Page-1" stroke="none" stroke-width="1" fill="none" fill-rule="evenodd">
        <g id="handshake-copy" fill="#6D6875">
            <g id="Layer_1">
                <g id="Group">
                    <rect id="XMLID_60_" transform="translate(33.999209, 49.170264) rotate(-71.070400) translate(-33.999209, -49.170264) " x="-7.29176163" y="32.2922733" width="82.581941" height="33.7559806"></rect>
                    <path d="M86.5549898,11.2510183 L83.4490835,12.7785132 C79.5794297,14.6624236 75.0478615,14.9170061 71.0254582,13.4913442 L65.8319756,11.6583503 C65.5264766,11.4546843 65.2209776,11.3019348 64.9154786,11.2001018 L32.9399185,0.25305499 C30.5468432,-0.561608961 27.8991853,0.711303462 27.0845214,3.10437882 L0.251527495,81.2612016 C-0.155804481,82.4322811 -0.0539714868,83.7051935 0.455193483,84.7744399 C0.964358452,85.8436864 1.93177189,86.7092668 3.10285132,87.1165988 L35.0274949,98.0636456 C35.5366599,98.2163951 36.0458248,98.3182281 36.5040733,98.3182281 C38.4389002,98.3182281 40.2209776,97.0962322 40.8828921,95.2123218 L66.188391,21.5870672 L67.9195519,22.1980652 C74.2841141,24.438391 81.4124236,24.0310591 87.5224033,21.0779022 L90.6283096,19.5504073 C94.4470468,17.6664969 98.9276986,17.4119145 102.950102,18.7866599 L161.656823,39.0005092 C161.045825,41.444501 159.823829,44.3467413 157.583503,45.9251527 C155.088595,47.6563136 151.37169,47.6563136 146.483707,45.9760692 L120.312627,37.0147658 C119.090631,36.6074338 117.766802,36.7092668 116.64664,37.3202648 C115.526477,37.9312627 114.711813,39.0005092 114.355397,40.2225051 C114.304481,40.3752546 110.689409,53.9190428 99.1313646,60.1308554 C91.8503055,64.0514257 82.787169,64.2041752 72.1456212,60.5891039 C69.7525458,59.7744399 67.104888,61.0473523 66.290224,63.4404277 C65.4755601,65.8335031 66.7484725,68.4811609 69.1415479,69.2958248 C75.2515275,71.3834012 81.0050916,72.4526477 86.3513238,72.4526477 C92.5631365,72.4526477 98.2657841,71.0779022 103.459267,68.2774949 C113.795316,62.7275967 119.141548,53.0025458 121.58554,47.1980652 L143.428717,54.6827902 C151.218941,57.3813646 157.736253,56.9740326 162.776986,53.4607943 C170.872709,47.8599796 171.280041,36.5056008 171.330957,35.9964358 C171.381874,33.959776 170.108961,32.1776986 168.225051,31.5157841 L105.903259,10.0290224 C99.6405295,7.89052953 92.5631365,8.348778 86.5549898,11.2510183 Z M33.703666,87.8294297 L10.4857434,79.8864562 L34.2637475,10.4872709 L57.4816701,18.4302444 L33.703666,87.8294297 Z" id="Shape"></path>
                    <rect id="XMLID_142_" transform="translate(211.510061, 49.664629) rotate(243.926944) translate(-211.510061, -49.664629) " x="170.221416" y="32.7879832" width="82.5772889" height="33.7532912"></rect>
                    <path d="M208.856415,93.0738289 L197.909369,103.155295 C187.980652,112.269348 176.779022,119.957739 164.660896,125.864053 L106.565173,154.275458 C104.019348,155.548371 100.913442,154.479124 99.6405295,151.882383 C98.3676171,149.336558 99.4368635,146.230652 102.033605,144.957739 L102.746436,144.601324 L102.746436,144.601324 L134.51833,129.071792 C136.809572,127.951629 137.776986,125.202138 136.656823,122.910896 C135.53666,120.619654 132.787169,119.65224 130.495927,120.772403 L98.7240326,136.301935 L98.7240326,136.301935 L82.7362525,144.143075 C80.1904277,145.415988 77.0845214,144.346741 75.811609,141.75 C75.200611,140.528004 75.098778,139.102342 75.5570265,137.82943 C76.0152749,136.505601 76.9317719,135.487271 78.1537678,134.876273 L90.2209776,128.969959 L90.2209776,128.969959 L124.742363,112.065682 C127.033605,110.945519 128.001018,108.196029 126.880855,105.904786 C125.760692,103.613544 123.011202,102.64613 120.719959,103.766293 L86.1476578,120.721487 L86.1476578,120.721487 L84.8238289,121.383401 L68.3268839,129.479124 C67.104888,130.090122 65.6792261,130.191955 64.4063136,129.733707 C63.0824847,129.275458 62.0641548,128.358961 61.4531568,127.136965 C60.1802444,124.591141 61.2494908,121.485234 63.8462322,120.212322 L69.5488798,117.411914 L69.5488798,117.411914 L81.2087576,111.709267 L84.4674134,110.130855 L84.4674134,110.130855 L111.249491,96.9943992 C113.540733,95.8742363 114.508147,93.1247454 113.387984,90.8335031 C112.267821,88.5422607 109.51833,87.5748473 107.227088,88.6950102 L78.2046843,102.900713 L65.5264766,109.112525 C62.9806517,110.334521 59.8747454,109.316191 58.601833,106.71945 C57.990835,105.497454 57.889002,104.071792 58.3472505,102.79888 C58.805499,101.475051 59.7219959,100.456721 60.9439919,99.845723 L83.092668,89.0005092 C85.3839104,87.8803462 86.3513238,85.1308554 85.2311609,82.839613 C84.110998,80.5483707 81.3615071,79.5809572 79.0702648,80.7011202 L56.9215886,91.546334 C53.4592668,93.2265784 50.8625255,96.1797352 49.6405295,99.7948065 C48.4185336,103.409878 48.6221996,107.330448 50.302444,110.79277 C51.3716904,112.931263 52.8991853,114.71334 54.7321792,116.037169 C51.5244399,120.263238 50.709776,126.067719 53.2046843,131.159369 C54.8849287,134.62169 57.8380855,137.218432 61.4531568,138.440428 C62.9806517,138.949593 64.5081466,139.204175 66.0356415,139.204175 C65.9847251,141.495418 66.4429735,143.78666 67.51222,145.874236 C70.0071283,150.965886 75.1496945,153.919043 80.4450102,153.919043 C82.5835031,153.919043 84.7219959,153.460794 86.7586558,152.442464 L90.0173116,150.864053 C90.1700611,152.595214 90.6283096,154.275458 91.392057,155.904786 C93.8869654,160.996436 99.0295316,163.949593 104.324847,163.949593 C106.46334,163.949593 108.601833,163.491344 110.638493,162.473014 L168.734216,134.061609 C181.667006,127.747963 193.581466,119.601324 204.172098,109.876273 L217.155804,97.9108961 L246.891039,83.348778 C249.182281,82.2286151 250.149695,79.4791242 249.029532,77.1878819 L212.675153,3.10437882 C212.115071,1.98421589 211.198574,1.16955193 210.027495,0.762219959 C208.856415,0.354887984 207.583503,0.456720978 206.514257,0.965885947 L176.168024,15.7825866 C173.876782,16.9027495 172.909369,19.6522403 174.029532,21.9434827 L208.856415,93.0738289 Z M206.412424,11.3019348 L238.642566,77.2387984 L216.595723,88.0330957 L184.36558,22.0962322 L206.412424,11.3019348 Z" id="Shape"></path>
                </g>
            </g>
        </g>
    </g>
</svg>