<svg width="68" height="84" viewBox="0 0 68 84" version="1.1" xmlns="http://www.w3.org/2000/svg"><title>Group</title><g id="Symbols" stroke="none" stroke-width="1" fill="none" fill-rule="evenodd"><rect id="Rectangle-path" fill="#FFF" x="1" y="1" width="66" height="82" rx="2"/><path d="M2 0h64c1.105 0 2 .895 2 2v80c0 1.105-.895 2-2 2H2c-1.105 0-2-.895-2-2V2C0 .895.895 0 2 0zm2 4h60v76H4V4z" id="Shape" fill="#8B8B8B"/><path d="M10 66v-2h48v2H10zm0-14h48v2H10v-2zm3-8h3v-4h36v4h3v4H13v-4zm35-16v8c0 1.105-.896 2-2 2-1.105 0-2-.895-2-2v-8c0-1.104.895-2 2-2 1.104 0 2 .896 2 2zm-8 0v8c0 1.105-.895 2-2 2s-2-.895-2-2v-8c0-1.104.895-2 2-2s2 .896 2 2zm-8 0v8c0 1.105-.895 2-2 2-1.104 0-2-.895-2-2v-8c0-1.104.896-2 2-2 1.105 0 2 .896 2 2zm-8 0v8c0 1.105-.896 2-2 2s-2-.895-2-2v-8c0-1.104.896-2 2-2s2 .896 2 2zm-6-6h32v2H18v-2zm-2-4l18-8 18 8v2H16v-2zm38 42H10v-2h44v2z" id="Shape" fill="#B2B2B1"/></g></svg>