<?xml version="1.0" encoding="UTF-8"?>
<svg width="250px" height="174px" viewBox="0 0 250 174" version="1.1" xmlns="http://www.w3.org/2000/svg" xmlns:xlink="http://www.w3.org/1999/xlink">
    <!-- Generator: Sketch 41 (35326) - http://www.bohemiancoding.com/sketch -->
    <title>growth copy</title>
    <desc>Created with Sketch.</desc>
    <defs></defs>
    <g id="Page-1" stroke="none" stroke-width="1" fill="none" fill-rule="evenodd">
        <g id="growth-copy" fill="#6D6875">
            <g id="Capa_1">
                <g id="Group">
                    <path d="M70.0413223,104.936441 L48.3987603,104.936441 C45.8161157,104.936441 43.75,106.963591 43.75,109.497529 L43.75,118.315632 L43.75,157.135557 L43.75,165.95366 C43.75,168.487598 45.8161157,170.514748 48.3987603,170.514748 L70.0413223,170.514748 C72.6239669,170.514748 74.6900826,168.487598 74.6900826,165.95366 L74.6900826,157.135557 L74.6900826,118.315632 L74.6900826,109.497529 C74.7417355,106.963591 72.6239669,104.936441 70.0413223,104.936441 L70.0413223,104.936441 Z" id="Shape"></path>
                    <path d="M113.791322,79.5468921 L92.1487603,79.5468921 C89.5661157,79.5468921 87.5,81.5740422 87.5,84.1079799 L87.5,118.316139 L87.5,131.69533 L87.5,165.903488 C87.5,168.437426 89.5661157,170.464576 92.1487603,170.464576 L113.791322,170.464576 C116.373967,170.464576 118.440083,168.437426 118.440083,165.903488 L118.440083,131.69533 L118.440083,118.316139 L118.440083,84.1079799 C118.440083,81.5740422 116.373967,79.5468921 113.791322,79.5468921 L113.791322,79.5468921 Z" id="Shape"></path>
                    <path d="M162.190083,93.0781193 L162.190083,55.2717691 L177.169421,55.2717691 C179.907025,55.2717691 181.61157,52.2817226 180.165289,50.0011787 L149.690083,2.00839901 C148.295455,-0.1707874 145.092975,-0.1707874 143.698347,2.00839901 L113.22314,50.0011787 C111.77686,52.2817226 113.429752,55.2717691 116.219008,55.2717691 L131.198347,55.2717691 L131.198347,165.954167 C131.198347,168.488105 133.264463,170.515255 135.847107,170.515255 L157.489669,170.515255 C160.072314,170.515255 162.13843,168.488105 162.13843,165.954167 C153.460744,156.173168 148.140496,143.4528 148.140496,129.465464 C148.243802,115.578979 153.512397,102.80844 162.190083,93.0781193 L162.190083,93.0781193 Z" id="Shape"></path>
                    <path d="M204.752066,85.4763063 C179.958678,85.4763063 159.81405,105.190341 159.81405,129.566822 C159.81405,153.892624 179.907025,173.657338 204.752066,173.657338 C229.545455,173.657338 249.690083,153.943302 249.690083,129.566822 C249.690083,105.190341 229.597107,85.4763063 204.752066,85.4763063 L204.752066,85.4763063 Z M217.665289,146.898956 C215.702479,149.230178 213.171488,150.80122 210.17562,151.61208 C208.884298,151.966831 208.316116,152.625655 208.367769,153.943302 C208.419421,155.26095 208.367769,156.527919 208.367769,157.845566 C208.367769,159.011178 207.747934,159.619323 206.61157,159.670002 C205.165289,159.72068 203.770661,159.72068 202.32438,159.670002 C201.084711,159.670002 200.464876,158.960499 200.464876,157.744209 C200.464876,156.781313 200.464876,155.818416 200.413223,154.906199 C200.413223,152.82837 200.309917,152.727012 198.243802,152.42294 C195.609504,152.01751 193.02686,151.409365 190.599174,150.294432 C188.688017,149.382215 188.533058,148.926106 189.049587,147.000313 C189.46281,145.530629 189.876033,144.111624 190.340909,142.692619 C190.857438,141.02022 191.322314,140.817505 192.871901,141.628365 C195.557851,142.996692 198.347107,143.756873 201.342975,144.111624 C203.254132,144.365018 205.113636,144.162303 206.869835,143.402122 C210.17562,141.983117 210.692149,138.232889 207.902893,135.952345 C206.97314,135.192164 205.88843,134.634697 204.752066,134.12791 C201.859504,132.860941 198.811983,131.948723 196.126033,130.327003 C191.683884,127.742387 188.894628,124.144195 189.204545,118.822926 C189.566116,112.842833 193.02686,109.092605 198.605372,107.116134 C200.929752,106.305274 200.929752,106.305274 200.929752,103.974051 L200.929752,101.59215 C200.981405,99.8183935 201.291322,99.514321 203.099174,99.4636423 L204.803719,99.4636423 C208.677686,99.4636423 208.677686,99.4636423 208.677686,103.264549 C208.677686,105.950523 208.677686,105.950523 211.415289,106.355953 C213.481405,106.660025 215.495868,107.26817 217.407025,108.129709 C218.491736,108.585818 218.853306,109.29532 218.543388,110.410253 C218.078512,112.031973 217.613636,113.704372 217.097107,115.326092 C216.580579,116.846455 216.115702,117.099849 214.617769,116.390346 C211.621901,114.971341 208.471074,114.363196 205.113636,114.565911 C204.235537,114.61659 203.409091,114.717947 202.582645,115.072698 C199.690083,116.288988 199.225207,119.431071 201.704545,121.356864 C202.944215,122.31976 204.338843,123.029263 205.836777,123.637408 C208.367769,124.650983 210.950413,125.664558 213.378099,126.982205 C221.022727,130.935148 223.088843,140.462754 217.665289,146.898956 L217.665289,146.898956 Z" id="Shape"></path>
                    <path d="M26.2913223,135.597087 L4.64876033,135.597087 C2.0661157,135.597087 0,137.624237 0,140.158175 L0,141.019713 L0,148.976278 L0,157.135557 L0,160.176282 L0,165.95366 C0,168.487598 2.0661157,170.514748 4.64876033,170.514748 L26.2913223,170.514748 C28.8739669,170.514748 30.9400826,168.487598 30.9400826,165.95366 L30.9400826,160.176282 L30.9400826,157.135557 L30.9400826,148.976278 L30.9400826,142.134646 L30.9400826,140.158175 C30.9917355,137.624237 28.8739669,135.597087 26.2913223,135.597087 L26.2913223,135.597087 Z" id="Shape"></path>
                </g>
            </g>
        </g>
    </g>
</svg>