<?xml version="1.0" encoding="UTF-8"?>
<svg width="138px" height="170px" viewBox="0 0 138 170" version="1.1" xmlns="http://www.w3.org/2000/svg" xmlns:xlink="http://www.w3.org/1999/xlink">
    <!-- Generator: Sketch 41 (35326) - http://www.bohemiancoding.com/sketch -->
    <title>lightbulb-interface-symbol copy</title>
    <desc>Created with Sketch.</desc>
    <defs></defs>
    <g id="Page-1" stroke="none" stroke-width="1" fill="none" fill-rule="evenodd">
        <g id="Artboard" transform="translate(-1403.000000, -86.000000)" fill="#6D6875">
            <g id="lightbulb-interface-symbol-copy" transform="translate(1403.000000, 86.000000)">
                <g id="Capa_1">
                    <g id="Group">
                        <path d="M85.1629289,142.615269 L52.2521664,142.615269 C49.220156,142.615269 46.7670884,145.068336 46.7670884,148.100347 C46.7670884,151.131768 49.220156,153.585425 52.2521664,153.585425 L85.1629289,153.585425 C88.1943501,153.585425 90.6474177,151.131768 90.6474177,148.100347 C90.6474177,145.068336 88.1943501,142.615269 85.1629289,142.615269 L85.1629289,142.615269 Z" id="Shape"></path>
                        <path d="M23.2687868,32.8356326 L18.2064991,29.9090988 C17.372409,29.4267938 16.4248873,29.1725303 15.4646967,29.1725303 L15.4646967,29.1725303 C13.5092548,29.1725303 11.6890468,30.2246447 10.7126516,31.9178683 L8.00620451,36.612461 C6.49535529,39.2322877 7.39779896,42.5942808 10.0176256,44.1054246 L15.0445581,47.0048527 C15.8594974,47.4744887 16.7763778,47.7234489 17.6967938,47.7234489 C19.6746274,47.7234489 21.4842288,46.6000347 22.4199653,44.7916118 C23.1989601,43.2869497 24.0725303,41.7884749 25.0156326,40.3389081 C25.8414731,39.0711265 26.1075217,37.5856153 25.7657539,36.1566724 C25.4304679,34.7515945 24.5436395,33.572201 23.2687868,32.8356326 L23.2687868,32.8356326 Z" id="Shape"></path>
                        <path d="M66.2973484,16.5633622 C67.0121144,16.4723224 67.8562218,16.3803986 68.7071057,16.3803986 C69.5582842,16.3803986 70.4018024,16.4732062 71.1159792,16.5633622 C71.3431369,16.5922357 71.5729463,16.6063778 71.7995147,16.6063778 C74.6571057,16.6063778 76.8968631,14.3415771 76.8968631,11.4503986 L76.8968631,5.48596187 C76.8968631,2.46102253 74.4355459,0 71.4106066,0 L66.0033102,0 C62.9783709,0 60.5173484,2.46131716 60.5173484,5.48596187 L60.5173484,11.4506932 C60.5173484,14.3418718 62.7559272,16.6066724 65.6146967,16.6066724 C65.8403813,16.6066724 66.0710745,16.5922357 66.2973484,16.5633622 L66.2973484,16.5633622 Z" id="Shape"></path>
                        <path d="M37.5511438,25.7286308 C38.5944194,25.7286308 39.620312,25.4192721 40.5171577,24.8362045 C41.9679029,23.8922184 43.4660832,23.0186482 44.9710399,22.2396534 C46.3133622,21.5446274 47.27974,20.3858579 47.6928076,18.9769497 C48.0976256,17.5957366 47.9173137,16.1343847 47.1842808,14.8642461 L44.2848527,9.83701906 C43.3084575,8.14291161 41.4864818,7.09109185 39.530156,7.09109185 L39.530156,7.09109185 C38.5717331,7.09109185 37.6250953,7.34535529 36.7921837,7.82500867 L32.0978856,10.5314558 C30.8274523,11.2636049 29.9197054,12.4465338 29.5402253,13.8619237 C29.1604506,15.2773137 29.3560832,16.7560485 30.0891161,18.0244194 L33.0156499,23.0867071 C33.9720104,24.7416291 35.6678856,25.7286308 37.5511438,25.7286308 L37.5511438,25.7286308 Z" id="Shape"></path>
                        <path d="M126.701854,31.9178683 C125.725459,30.2246447 123.905251,29.1725303 121.949809,29.1725303 L121.949809,29.1725303 C120.989324,29.1725303 120.040919,29.4276776 119.208302,29.9090988 L114.145425,32.8356326 C112.870277,33.5730849 111.98286,34.7521837 111.647279,36.1569671 C111.30669,37.5859099 111.573622,39.0717158 112.400052,40.3392028 C113.350815,41.7961352 114.225858,43.2946101 115.003969,44.7927903 C115.940884,46.5985615 117.749896,47.7210919 119.725962,47.7210919 C120.646672,47.7210919 121.564437,47.4724263 122.380555,47.0016118 L127.397764,44.1048354 C130.016707,42.5928076 130.918267,39.2311092 129.407712,36.6109879 L126.701854,31.9178683 L126.701854,31.9178683 Z" id="Shape"></path>
                        <path d="M92.4514211,22.2405373 C93.9590295,23.0204159 95.4539688,23.8913345 96.8961698,24.8279549 C97.7933102,25.4104333 98.817435,25.7180243 99.8598267,25.7180243 C101.744853,25.7180243 103.441906,24.729844 104.397678,23.0755113 L107.314489,18.024714 C108.8274,15.4057712 107.927903,12.0437782 105.308371,10.5299827 L100.632929,7.82795494 C99.800312,7.3465338 98.8519064,7.09138648 97.8914211,7.09138648 L97.8914211,7.09138648 C95.9365685,7.09138648 94.1160659,8.14350087 93.1393761,9.83554593 L90.2396534,14.8624783 C89.5072097,16.1337955 89.3257192,17.5951473 89.7302426,18.9772444 C90.1444887,20.3879203 91.1099827,21.5463951 92.4514211,22.2405373 L92.4514211,22.2405373 Z" id="Shape"></path>
                        <path d="M0.180606586,65.8229983 L0.180606586,71.2314731 C0.180606586,74.2561179 2.64192374,76.717435 5.66656846,76.717435 L11.6528076,76.717435 C13.1621837,76.717435 14.5784575,76.0910572 15.5392374,74.9982842 C16.4985442,73.9063951 16.9387175,72.4244194 16.7454419,70.9321317 C16.6591161,70.2639168 16.5598267,69.3859272 16.5598267,68.5285615 C16.5598267,67.6785615 16.6526343,66.8338648 16.7430849,66.119688 C16.9313518,64.6321144 16.4888215,63.1527903 15.527747,62.062669 C14.5631369,60.9672444 13.142149,60.339688 11.6310052,60.339688 L5.66656846,60.339688 C2.64192374,60.3370364 0.180606586,62.7980589 0.180606586,65.8229983 L0.180606586,65.8229983 Z" id="Shape"></path>
                        <path d="M137.234194,71.2302946 L137.234194,65.8218198 C137.234194,62.797175 134.772582,60.3358579 131.747938,60.3358579 L125.783501,60.3358579 C124.272357,60.3358579 122.851664,60.9642981 121.886464,62.0588388 C120.92539,63.149844 120.48286,64.6282842 120.671127,66.1158579 C120.761577,66.8300347 120.85409,67.6747314 120.85409,68.5247314 C120.85409,69.3820971 120.755095,70.2603813 120.668769,70.9283016 C120.475494,72.4202946 120.915667,73.902565 121.874974,74.9944541 C122.836049,76.0869324 124.252028,76.7144887 125.761404,76.7144887 L131.747643,76.7144887 C134.772582,76.7162565 137.234194,74.2561179 137.234194,71.2302946 L137.234194,71.2302946 Z" id="Shape"></path>
                        <path d="M127.395407,92.9490468 L122.250919,89.9845061 C121.442461,89.5184055 120.537366,89.2726863 119.633744,89.2726863 L119.633744,89.2726863 C117.601993,89.2726863 115.757036,90.5186655 114.934731,92.445234 C114.243536,94.0662738 113.50461,95.7144194 112.742409,97.3434142 C111.490832,100.017452 112.502582,103.261889 115.047574,104.73149 L119.208596,107.135061 C120.041213,107.616776 120.989619,107.870451 121.948925,107.870451 C123.903778,107.870451 125.725459,106.819809 126.702149,105.127175 L129.406828,100.44201 C130.139861,99.172461 130.333726,97.6937262 129.953951,96.2780416 C129.574471,94.8632409 128.665251,93.6800173 127.395407,92.9490468 L127.395407,92.9490468 Z" id="Shape"></path>
                        <path d="M17.7348007,89.2938995 L17.7348007,89.2938995 C16.832357,89.2938995 15.9281456,89.540208 15.1193934,90.0063085 L10.0176256,92.9478683 C8.74807626,93.6797227 7.83944541,94.8629463 7.45996534,96.2786308 C7.08019064,97.6937262 7.27435009,99.172461 8.00708839,100.44201 L10.7117678,105.127175 C11.6890468,106.820104 13.5110225,107.871334 15.467643,107.871334 C16.4260659,107.871334 17.3727036,107.61825 18.2056153,107.137712 L22.2888562,104.78364 C24.8311958,103.317279 25.8509012,100.074905 24.6093414,97.3990988 C23.8421317,95.7459445 23.1082149,94.0904333 22.4285095,92.4791161 C21.6118024,90.5442981 19.769792,89.2938995 17.7348007,89.2938995 L17.7348007,89.2938995 Z" id="Shape"></path>
                        <path d="M85.9507626,164.35435 C85.9507626,161.330295 83.5044714,158.884887 80.4812998,158.884887 L56.9337955,158.884887 C53.9109185,158.884887 51.4640381,161.330589 51.4640381,164.35435 C51.4640381,167.378111 53.9100347,169.823813 56.9337955,169.823813 L80.4815945,169.823813 C83.5044714,169.823813 85.9507626,167.378406 85.9507626,164.35435 L85.9507626,164.35435 Z" id="Shape"></path>
                        <path d="M33.440208,101.974367 C38.4485789,112.029705 43.1788215,121.526135 43.9542808,130.866707 C44.1994107,133.815338 46.6560139,136.125217 49.5483709,136.125217 L87.8676083,136.125217 C90.7685095,136.125217 93.2227556,133.810329 93.4563951,130.854627 C94.2200693,121.150191 99.2437608,111.144055 104.099809,101.467903 C109.603449,90.5039341 115.293882,79.1675563 115.293882,67.5987175 C115.293882,41.9113345 94.3953726,21.0134142 68.7082842,21.0134142 C43.0209012,21.0134142 22.1229809,41.9116291 22.1229809,67.5987175 C22.1218024,79.2488735 27.8755806,90.8020971 33.440208,101.974367 L33.440208,101.974367 Z M68.7074003,37.3932236 C85.3626863,37.3932236 98.9131889,50.9437262 98.9131889,67.5990121 C98.9131889,75.282305 94.332617,84.4139861 89.4827556,94.0812998 L89.4621317,94.1228423 C85.4828943,102.032409 81.3672444,110.213917 78.9845927,119.046551 C78.8909012,119.394211 78.4200867,119.746291 78.1507972,119.746291 L59.2112652,119.746291 C58.9351993,119.746291 58.4520104,119.386551 58.3538995,119.032114 C55.9962912,110.517972 51.9790468,102.463449 48.0940901,94.6746794 C43.1543674,84.7433795 38.5013172,75.3868977 38.5013172,67.5993068 C38.5013172,50.9434315 52.0518198,37.3932236 68.7074003,37.3932236 L68.7074003,37.3932236 Z" id="Shape"></path>
                    </g>
                </g>
            </g>
        </g>
    </g>
</svg>