<svg version="1.1" id="Layer_1" xmlns="http://www.w3.org/2000/svg" xmlns:xlink="http://www.w3.org/1999/xlink" x="0" y="0" viewBox="0 0 287.9 68.4" xml:space="preserve"><style type="text/css">.st0{fill:#010202;} .st1{fill:url(#XMLID_2_);} .st2{opacity:0.15;} .st3{fill:#F6F6F6;} .st4{fill:#FFFFFF;} .st5{fill:url(#SVGID_1_);}</style><path id="XMLID_3170_" class="st0" d="M79 60.8h1.7l1.9 3.1 1.9-3.1h1.7v7.3h-1.6v-4.8l-2.1 3.1-2-3.1v4.8H79v-7.3z"/><path id="XMLID_3167_" class="st0" d="M92 64.5c0-2.1 1.6-3.8 3.9-3.8s3.9 1.7 3.9 3.8c0 2.1-1.6 3.8-3.9 3.8S92 66.5 92 64.5zm6.1 0c0-1.3-.9-2.3-2.2-2.3s-2.2 1-2.2 2.3c0 1.3.9 2.3 2.2 2.3 1.3-.1 2.2-1.1 2.2-2.3z"/><path id="XMLID_3163_" class="st0" d="M105.4 60.8h3.4c.8 0 1.5.2 1.9.7.3.3.5.7.5 1.2 0 .8-.4 1.3-1 1.6.9.3 1.4.8 1.4 1.8 0 1.3-1.1 2-2.8 2h-3.5v-7.3zm4.3 2.1c0-.5-.4-.8-1.1-.8H107v1.6h1.5c.7 0 1.2-.2 1.2-.8zm-.8 2.2H107v1.6h1.9c.7 0 1.1-.3 1.1-.8.1-.5-.3-.8-1.1-.8z"/><path id="XMLID_3161_" class="st0" d="M117.3 60.8h1.6v7.3h-1.6v-7.3z"/><path id="XMLID_3159_" class="st0" d="M125 60.8h1.6v5.9h3.7v1.5H125v-7.4z"/><path id="XMLID_3157_" class="st0" d="M135.7 60.8h5.5v1.4h-3.9v1.5h3.5v1.4h-3.5v1.5h4V68h-5.6v-7.2z"/><path id="XMLID_3155_" class="st0" d="M153.9 64.5c0-2.1 1.6-3.8 3.9-3.8 1.3 0 2.1.4 2.9 1l-1 1.2c-.6-.5-1.1-.7-1.9-.7-1.2 0-2.1 1-2.1 2.3 0 1.3.9 2.3 2.2 2.3.6 0 1.1-.1 1.5-.4v-1h-1.6V64h3.2v3.2c-.8.6-1.8 1.2-3.1 1.2-2.4-.2-4-1.8-4-3.9z"/><path id="XMLID_3152_" class="st0" d="M169.2 60.7h1.5l3.1 7.4h-1.7l-.7-1.6h-3.1l-.7 1.6H166l3.2-7.4zm1.7 4.3l-1-2.4-1 2.4h2z"/><path id="XMLID_3150_" class="st0" d="M179.2 60.8h1.7l1.9 3.1 1.9-3.1h1.7v7.3h-1.6v-4.8l-2.1 3.1-2-3.1v4.8h-1.6v-7.3z"/><path id="XMLID_3148_" class="st0" d="M192.6 60.8h1.6v7.3h-1.6v-7.3z"/><path id="XMLID_3146_" class="st0" d="M200.2 60.8h1.5l3.4 4.5v-4.5h1.6v7.3h-1.4l-3.6-4.7v4.7h-1.6v-7.3z"/><path id="XMLID_3144_" class="st0" d="M212.4 64.5c0-2.1 1.6-3.8 3.9-3.8 1.3 0 2.1.4 2.9 1l-1 1.2c-.6-.5-1.1-.7-1.9-.7-1.2 0-2.1 1-2.1 2.3 0 1.3.9 2.3 2.2 2.3.6 0 1.1-.1 1.5-.4v-1h-1.6V64h3.2v3.2c-.8.6-1.8 1.2-3.1 1.2-2.4-.2-4-1.8-4-3.9z"/><path id="XMLID_3142_" class="st0" d="M232.2 64.5c0-2.1 1.6-3.8 3.9-3.8 1.3 0 2.1.4 2.9 1l-1 1.2c-.6-.5-1.1-.7-1.9-.7-1.2 0-2.1 1-2.1 2.3 0 1.3.9 2.3 2.2 2.3.6 0 1.1-.1 1.5-.4v-1H236V64h3.2v3.2c-.8.6-1.8 1.2-3.1 1.2-2.4-.2-3.9-1.8-3.9-3.9z"/><path id="XMLID_3139_" class="st0" d="M244.9 60.8h3.4c.9 0 1.7.3 2.1.7.4.4.6 1 .6 1.7 0 1.2-.6 1.9-1.6 2.3l1.8 2.6h-1.9l-1.6-2.4h-1.3v2.4h-1.6v-7.3zm3.3 3.5c.8 0 1.2-.4 1.2-1 0-.7-.5-1-1.3-1h-1.6v2.1h1.7z"/><path id="XMLID_3136_" class="st0" d="M256.4 64.5c0-2.1 1.6-3.8 3.9-3.8s3.9 1.7 3.9 3.8c0 2.1-1.6 3.8-3.9 3.8s-3.9-1.8-3.9-3.8zm6.1 0c0-1.3-.9-2.3-2.2-2.3s-2.2 1-2.2 2.3c0 1.3.9 2.3 2.2 2.3 1.3-.1 2.2-1.1 2.2-2.3z"/><path id="XMLID_3134_" class="st0" d="M269.7 65v-4.2h1.6V65c0 1.2.6 1.8 1.6 1.8s1.6-.6 1.6-1.8v-4.2h1.6v4.1c0 2.2-1.2 3.3-3.2 3.3s-3.2-1.1-3.2-3.2z"/><path id="XMLID_3131_" class="st0" d="M282 60.8h3c1.8 0 2.8 1 2.8 2.5 0 1.7-1.3 2.6-3 2.6h-1.2v2.2H282v-7.3zm2.9 3.7c.8 0 1.3-.5 1.3-1.1 0-.7-.5-1.1-1.3-1.1h-1.2v2.2h1.2z"/><linearGradient id="XMLID_2_" gradientUnits="userSpaceOnUse" x1="78.873" y1="26.934" x2="287.924" y2="26.934"><stop offset="0" stop-color="#4D1C16"/><stop offset="1" stop-color="#9F3427"/></linearGradient><path id="XMLID_3130_" class="st1" d="M287.9 32.1c0 6.8-5.7 11.5-13.8 11.5-2.6 0-5.3-.5-7.6-1.4v1h-16.9V43c-1.3.3-2.6.5-3.8.5-3.5 0-6.5-1.2-8.5-3.2-.2 3.3-1.2 6.2-3 8.4-2.7 3.3-6.8 5-11.8 5-4.9 0-9.4-1.5-12-4.1-1.6-1.6-2.4-3.6-2.4-5.8 0-1 .2-1.9.5-2.8-3 1.6-6.5 2.5-10.5 2.5-7.4 0-13.1-3.7-15.6-9.4l-4 9.4h-8.7l-4-9.5c-2.4 5.7-8.1 9.5-15.1 9.5-5.3 0-9.8-2.1-12.8-5.7l-.2 2-1.8 1c-3 1.8-6.7 2.7-10.8 2.7-5.4 0-9.9-2-12.9-5.3v4.9H78.9V29.7h4V13.5h-4V.2h22.6v13.3h-4.6v16.3h1.6v-4.9h10c1.2-7.8 7.5-13.5 15.6-13.5 5.8 0 10.5 2.5 13.1 6.8 2.9-4.2 7.9-6.8 13.5-6.8.6 0 1.2 0 1.9.1V.2h43.1v11.3h1.2c5.3 0 9.8 2.1 12.5 5.8 2.8-3.7 7-5.8 11.6-5.8 1.2 0 2.4.1 3.5.4h16.2v1.5c2.2-1.3 5-1.9 8.2-1.9 5.1 0 8.9 1.5 11.4 4.6.6.7 1 1.4 1.4 2.2.6-1.3 1.5-2.5 2.6-3.5 2.5-2.2 5.9-3.4 9.9-3.4 3.4 0 8 1.2 10.6 3.8 1.6 1.6 2.4 3.6 2.4 5.8 0 1.8-.6 3.5-1.7 4.8 1.7 1.6 2.4 3.8 2.4 6.3z"/><g id="XMLID_3126_" class="st2"><path id="XMLID_3127_" class="st0" d="M282.6 25.5c1.7-.8 2.8-2.5 2.8-4.7 0-1.7-.6-3.2-1.9-4.4-2.2-2.2-6.3-3.2-9.2-3.2-3.5 0-6.4 1-8.5 2.8-1.9 1.7-3 4-3 6.5 0 2.8 1.1 4.6 2.8 6-1.7.5-3.1 1.9-3.5 3.6h-1v-7.9c0-2.8-.8-5.3-2.2-7.1-2.1-2.6-5.4-3.9-9.9-3.9-5.3 0-8.7 2-10.2 4.4v-4h-13v.5c-1.4-.6-3-.9-4.6-.9-5.2 0-9.6 3.2-11.7 7.9-1.9-4.9-6.4-7.9-12.4-7.9-3.7 0-7 1.4-9.4 3.6l2.4-5.5h3.9V2h-17.8v9.4h2.9l-4.6 11.7-4.6-11.7h2.7V2h-17.8v9.4h3.9l2.4 5.7c-2.5-2.4-6.1-3.8-10.1-3.8-6.6 0-11.9 3.9-13.7 9.7-1.3-5.9-6.2-9.7-12.9-9.7-7.7 0-13.5 5.7-13.8 13.5h-9.9v4.9H95V11.4h4.6V2H81v9.4h4v20.2h-4v9.3h29.4V28.5c.1.7.2 1.5.4 1.9.7 3.3 2.4 6 4.9 7.9 2.5 1.9 5.8 3 9.6 3s7.1-.8 9.8-2.4l.9-.5.2-1.8-1.5-5.3H137c1.6 6 6.9 10.1 13.9 10.1 8.2 0 14.4-6 14.4-14v-.2l6 14.2h6l6-14.2v.2c0 8.2 6.1 14 14.9 14 3.8 0 7.1-.8 9.8-2.4l.9-.5.2-1.9-1.5-5.3h1.3c.9 3.1 2.7 5.7 5.2 7.3-2.3.5-4 2.6-4 5.1 0 1.7.6 3.2 1.9 4.4 2.2 2.2 6.2 3.5 10.5 3.5 4.4 0 7.9-1.5 10.2-4.3 1.7-2.1 2.6-5 2.6-8.3V22.6h2.6c.3 1.4 1.2 2.5 2.4 3.1-2.5 1.6-4 4.1-4 7.2 0 5 3.9 8.5 9.5 8.5 2 0 4-.5 5.8-1.3v.9h13v-2.3c2.2 1.7 6 2.8 9.6 2.8 7 0 11.8-3.9 11.8-9.5.1-3.2-1.4-5.2-3.4-6.5zM124 21.9c1.7 0 2.8.8 2.8 2h-5.7c.3-1.5 1.6-2 2.9-2zm1.9 10.7c-2.5 0-3.9-.5-4.6-1.3h11.1c.2.4.2.5.2.5s-3.5.8-6.7.8zM146 32v-.5c1.1-1.5 2.9-2.2 4.1-3.6.7 1.5 1.4 2.9 2 4.4l.9.9c-1.9 0-3.7-1.2-7-1.2zm50.8-10.1c1.7 0 2.8.8 2.8 2H194c.3-1.5 1.6-2 2.8-2zm1.8 10.7c-2.5 0-3.9-.5-4.6-1.3h11.1c.1.4.2.5.2.5s-3.5.8-6.7.8zm21.4-8.8c.3-.3.7-.5 1.1-.7.5-.2 1.1-.3 1.6-.2.3 0 2.2.4 2.2.8v6c0 .3-1.2.9-1.4 1-.5.3-1 .3-1.5.3-.9-.1-1.8-.6-2.4-1.3-1.3-1.7-1.2-4.3.4-5.9zm4.9 17.9c-.6.8-1.6 1.2-3.1 1.2-.5 0-.9 0-1.4-.1-.1-.9-.5-1.7-1-2.4.5 0 1 .1 1.5.1 1.9 0 3.4-.4 4.7-1-.1.9-.3 1.7-.7 2.2zM248 22.2c3.2-.2 3.4 2.2 3.4 2.2-1.2-.4-2.7-.6-3.8-.4.4-.4.6-1.1.4-1.8zm3.8 9.4c-1.2.7-2.5 1-3.7 1-.6 0-1-.2-1-.2 0-1 1.4-1.1 2.2-1.1.9 0 1.8 0 2.5.1v.2zm20.5 1.5c-.1-.2-.1-.4-.2-.6.8.2 1.5.4 2.3.6h-2.1z"/></g><path id="XMLID_3023_" class="st3" d="M227.4 31.4c-1.5 1.4-3.2 2.3-5.2 2.3-3.6 0-6.2-2.3-6.2-6.6 0-4.4 2.6-6.7 6.2-6.7 2.1 0 3.8.7 5.2 1.8v9.2zm.3-13.5c-1.5-1.3-3.7-2.5-6.6-2.5-6.1 0-10.9 5.2-10.9 11.8 0 6.9 4.7 11.4 10.6 11.4 3.1 0 4.9-1.2 6.7-3V39c0 1.8-.4 3.1-1.1 4-1 1.4-2.7 2-4.7 2-1.4 0-2.5-.3-3.5-.6.1-.2.1-.6.1-.9 0-1.8-1.4-3-3.2-3-1.9 0-3.1 1.6-3.1 3.2 0 1.1.4 2.1 1.3 3 1.6 1.6 5.1 2.9 9.1 2.9 3.8 0 6.8-1.2 8.7-3.6 1.4-1.8 2.2-4.1 2.2-7V20.7h3.5v-4.9h-9v2.1h-.1zm25.7 15.4c-1.8 1.3-3.8 2.1-5.8 2.1-2.1 0-3.5-1-3.5-2.9 0-2.1 1.7-3.4 4.5-3.4 1.8 0 3.5.2 4.8.5v3.7zm5.6-8.9c0-2.3-.6-4.4-1.8-5.8-1.6-2-4.4-3.1-8.3-3.1-6.3 0-9.2 3-9.2 5.9 0 1.9 1.3 3.1 3.1 3.1s3.1-1.3 3.1-3c0-.3-.1-.8-.2-1.2.5-.2 1.3-.4 2.3-.4 2.1 0 3.6.5 4.6 1.7.6.7.9 1.8.9 3.2v1.9c-1.3-.3-3.5-.6-5.9-.6-5.5 0-9.3 2.7-9.3 7 0 4.4 3.6 6.5 7.5 6.5 3.1 0 5.9-1.4 7.8-3v2.5h9v-4.8H259v-9.9zM191.7 9.5V4.2h-13.8v5.4h3.9l-7.5 19.2-7.5-19.2h3.7V4.2h-13.8v5.4h3.2l12.7 29.9h3.4l12.7-29.9h3v-.1zm-.5 15.9c.6-3.8 3.2-5.3 5.7-5.3 3.4 0 5.5 2.1 5.6 5.3h-11.3zm5.7-10c-7.2 0-11.8 5.5-11.8 12.1 0 7.2 5.3 12 12.8 12 3.4 0 6.4-.7 8.8-2.1v-.5l-1.1-3.9c-2.3 1.1-4.6 1.7-6.9 1.7-3.9 0-6.8-1.6-7.6-5.2H208c.2-.8.3-2 .3-2.9-.1-6.2-3.9-11.2-11.4-11.2zm78.2 9.6c-3.6-1-4.9-1.6-4.9-3 0-1.2 1.3-2.4 3.9-2.4 1.2 0 2.3.2 3.3.6-.1.3-.1.6-.1 1 0 1.8 1.3 2.9 3.1 2.9 1.7 0 2.9-1.3 2.9-3.1 0-1.1-.4-2.1-1.3-3-1.6-1.6-5-2.7-7.8-2.7-6.5 0-9.5 3.8-9.5 7.4 0 4 2.7 5.5 9.1 7.2 3.6 1 4.6 1.6 4.6 2.8 0 1.7-1.9 2.5-4.2 2.5-1.6 0-3.1-.3-4.2-.7.1-.3.1-.6.1-1 0-2-1.5-3.1-3.1-3.1-1.8 0-3.1 1.4-3.1 3.1 0 1.2.4 2.2 1.3 3.1 1.5 1.5 5.4 2.8 8.9 2.8 5.3 0 9.8-2.6 9.8-7.5 0-4-3.2-5.4-8.8-6.9zM160 26.9c-.1-.1-.3-.1-.4-.2.2-.4.3-.7.5-1.1 0 .3 0 .9-.1 1.3zm-.2 1.6c-.1.5-.2.9-.2 1.4-.3.5-.8.8-1.5.9-.2 0-.4.1-.6.1-.2 0-.5-.2-.7-.3-.2-.1-.4-.2-.5-.3-.8-.7.1-2.9.8-3.3.7-.1 1.5-.3 2.2-.4.2.1.4.2.6.4.1.5 0 .9-.1 1.5zm-4.9-3.1c-.2 0-.5.1-.8 0-.2-.1-.3-.2-.5-.3-.1-.1-.2-.1-.4-.2-.3-1.4.5-3.4 1.6-3.8.2-.1.3-.1.6 0 .7.7 1 1.6.9 2.5 0 .3 0 .7-.1.9-.1.2-.3.4-.5.6-.2.1-.5.3-.8.3zm-1.8 10.7c-1.2.3-3.5-1.2-4.5-1.5-.7-.2-1.4-.1-2.1.1-.8.2-1.5.4-2.1-.1-.5-.4-1.4-3.1-.9-4.1.3-.3.6-.6.9-.8.6-.7 1.2-1.7 2-2.2.5-.3 1-.5 1.6-.8.3-.2.5-.5.7-.7.4-.4.9-.8 2.1-.6.3.1.6.3.9.4.6.5 2.3 4.3 2.6 5.2.3.6 1.1.9 1.3 1.6.3 1.8-1.3 3.2-2.5 3.5zm-9.2-14.9c.3-.1.4-.2.9-.2.4.2.8.5 1.3.7.3.3.4.8.5 1.2.4 1 .7 1.5.1 2.1-.1.1-.3.1-.5.2-.3.2-.6.6-1.1.6-1.6.2-1.7-3.3-1.2-4.6zm.4-1.7c-.1.5 0 .8.2 1.2v.1c-.1 0-.3.1-.4.1-.3-.3 0-1.3.2-1.4zm4.6 1.3c.3-.4.5-.8.8-1.1.2-.2.4-.1.6-.2.1.1.3.2.4.4.1.2.2.5.3.8.4 1 .6 2.2 0 2.9-.2.3-.6.4-1 .5-.6-.4-1.5-.8-1.7-1.5-.1-.4.2-1.1.6-1.8zm1.8-2.4c-.1.4-.1.7-.2 1.1-.1 0-.3-.1-.4-.1.1-.3.3-.8.6-1zm4.6 1.3c.2.4.2.7.1 1.2h-.4v-.1c0-.3.2-.9.3-1.1zm-4.6-4.3c-7.6 0-12.4 5.7-12.4 12.1 0 6.5 4.7 12.1 12.4 12.1 7.6 0 12.4-5.7 12.4-12.1 0-6.5-4.7-12.1-12.4-12.1zm-48.2 18.4h-9.6V9.5h4.6V4.2H82.9v5.4h4v24.2h-4v5.4h25.4V28.8h-5.8v5zm15.8-8.4c.6-3.8 3.2-5.3 5.7-5.3 3.4 0 5.5 2.1 5.6 5.3h-11.3zm5.8-10c-7.2 0-11.8 5.5-11.8 12.1 0 7.2 5.3 12 12.8 12 3.4 0 6.4-.7 8.8-2.1v-.5l-1.1-3.9c-2.3 1-4.6 1.6-6.9 1.6-3.9 0-6.8-1.6-7.6-5.2h16.8c.2-.8.3-2 .3-2.9 0-6.1-3.9-11.1-11.3-11.1z"/><g><path class="st4" d="M34.2 4.7c16.3 0 29.5 13.2 29.5 29.5S50.5 63.7 34.2 63.7 4.7 50.5 4.7 34.2 17.9 4.7 34.2 4.7z"/><linearGradient id="SVGID_1_" gradientUnits="userSpaceOnUse" x1="34.203" y1="68.139" x2="34.203" y2="-.263"><stop offset="0" stop-color="#010202"/><stop offset=".103" stop-color="#050506"/><stop offset=".271" stop-color="#181213"/><stop offset=".483" stop-color="#372220"/><stop offset=".728" stop-color="#653329"/><stop offset=".94" stop-color="#98412B"/></linearGradient><path class="st5" d="M48.2 16.2c1.1.9 1.9 1.7 1.8 3.1v.2l3.7-3.7c-.8-.8-1.6-1.6-2.5-2.3l-3 2.7c-.1-.1 0-.1 0 0zm-17.6 7.1c-1-.4-2.3-2.5-2.7-2.8-.4-.3-.8-.3-1.2-.4-.4-.1-1.5 0-2 0-.2 0-.8.3-1.2.8-.4.5-.6 1.3-.6 1.3s.2.8.9.7c.9-.3 2.6-1.4 4 0 1 1 1.4 2 2.3 2.1 1.5.2 2.6-.9.5-1.7zm-5.9-8.5c.5.5 1.3 2.3 1.3 2.3s.9-.9 3.8-.9c2.8 0 4.5 2.2 4.5 2.2s.9-2.2 4.1-2.2c1.7 0 3.1.8 3.9.9.3 0 1-.8 1.7-2 .5-.7 1.6-.5 2.6 0l1.9-3.6c-1-.6-1.9-1.1-3-1.6l-3.8 5.3.7-6.5c-1.2-.4-2.3-.7-3.4-.9L36.4 15l-.7-7.5h-1.5c-.6 0-1.3 0-1.9.1l-.8 7.8L29 7.9c-1.1.2-2.2.5-3.3.9l.7 6.2-3.8-5c-1 .5-2 1-2.9 1.7l2 3.7c1.2-.8 2.6-1 3-.6zm13.8 10.5c-.2.7-.8 3.3-.2 3.5.3.2.7-.5.7-.5s3.2-.7 3.5-.9c.3-.2 1.2-1.4 1.2-1.4s.6.2.8 0c.2-.2.2-.4.1-.5-.7-.5-1.8-1.3-2.9-1.3-1.2 0-3 .4-3.2 1.1zm-11.7-.5c-1 0-2.1.7-2.7 1.2-.2.1-.2.3.1.5.2.2.8 0 .8 0s.2.2.7.5c.2 0 1-.1 2.1.6.5.3.5.7.9.9.3.2.7.1.8.1.2.2.3.6.7.4.4-.2.1-.5.1-.8 0-.8-.2-2-.4-2.4-.4-.7-2.1-1-3.1-1zM61 34.2c0-1.1-.1-2.3-.2-3.4l-13.6.9 13-4.3c-.3-1.1-.6-2.2-1.1-3.2l-9.9 2.3 8.5-5.3c-.5-1-1.2-1.9-1.8-2.8l-8.3 4.5c.1.5.3 1.3.4 1.7.2.7.1 2.9-.1 4S46 30.7 45 31.3c-.9.6-1.4 1.1-1.6 2-.1.4-.3 1-.4 1.3-.1.3 0 .5 0 .8 0-.1-.2-.3-.2-.4-.3-.6-.6-.6-.8-.5-.2.1.3.6.6 1.3.3.6.5 1.3.6 1.7.2.7.5 2.8.2 4.1-.3 1.3-.8 2.1-1.5 2.8-.6.5-2.7.9-3.4.5-1.6-.8-2.3-.3-2.8-.9-.5-.6-1-1.7-.9-2.3.1-.5.9-1.8 2.2-2.9 1.3-1.1 2.2-1.2 2.6-1.5.2-.2.3-.3.4-.6 0-.4.2-.6 0-.6-.2-.1-.2 0-.4.2-.3.3-.6.6-.7.5-.1-.1 0 0 0-.2-.1-.1-.2-.4-.4-.6-.6-.5-2.5.8-3.9.8-1.5 0-2.9-.9-3.6-.5-.4.2-.5.4-.6.6 0 .2.1.2 0 .3-.1.1-.2-.2-.5-.4-.2-.2-.3-.3-.5-.1-.2.2 0 .3.2.6s.5.7.6.9c.3.5 1.4 1.2 2.1 1.6.7.4 1.7 1.7 2 2.2.2.5-.5 1.8-.6 1.9 0 .1 0 0-.7.7-.6.7-2.1 1.7-2.9 1.9-.9.2-2 .6-2.5-.1-.5-.6-1.8-3-2.1-5-.1-1.2.2-2 .5-2.9.2-.6.3-1.3.5-1.8.8-2.1 1.6-2.8 1.5-2.9-.2-.2-1.3.3-1.9 1.2-.1-.1-.2-.3-.2-.4-.1-.2-.2-.3-.4-.5-.1-.2-.2-.3-.4-.6-.7-1-2.1-1.8-3.1-2.8-1-1-.7-2.5-.8-4.9-.5-1.8-.2-2.8 0-3.2l-8.7-4c-.7.9-1.3 1.9-1.8 2.9l8.5 5.3-9.9-2.3c-.4 1-.8 2.1-1 3.2l12 3.9-12.7-.7c-.1 1.1-.2 2.2-.2 3.3v.1l13.4.8-13.2 2.6c.2 1.1.4 2.2.7 3.3l13.2-2.5-12.2 5.7c.4 1 .9 2.1 1.4 3l12.1-5.7L12.6 50c.7.9 1.4 1.8 2.2 2.6L25 44l-7.9 10.9c.9.7 1.8 1.4 2.7 2l6.4-8.3-3.5 9.9c1 .5 2.1.9 3.2 1.2l3.5-6.9-.2 7.8c1.1.2 2.2.4 3.4.4l1.7-4.7 1.6 4.7c1.2-.1 2.3-.2 3.4-.4l-.5-8.2 3.7 7.4c1.1-.3 2.1-.8 3.1-1.2l-4.1-10.9 7.1 9.2c.9-.6 1.9-1.3 2.7-2l-7.2-10 9.7 7.7c.8-.8 1.5-1.7 2.1-2.6l-10.5-8.6 12.3 5.7c.5-1 1-2 1.4-3l-12.3-5.7 13.4 2.5c.3-1.1.5-2.2.6-3.3L47.4 35l13.6-.8zM39.5 49.8c-.5 1.4-2.7 2.5-3.4 3.2-.7.7-1.9 2.8-1.9 2.8s-1.5-2-2.1-2.7c-.5-.7-1.2-.6-2-1.4-.8-.7-2-2.4-2.3-3.1-.3-.7-.4-.8.1-1.2.4-.4 1.4-.4 2.5-.8 1.2-.4 1-1.5 3.8-1.5 1.1 0 2.2.6 2.8.8 1.1.5 2.8-.1 3.5.5.7.5-.5 2-1 3.4zM34.2 0C15.3 0 0 15.3 0 34.2c0 18.9 15.3 34.2 34.2 34.2 18.9 0 34.2-15.3 34.2-34.2C68.4 15.3 53.1 0 34.2 0zm0 63.7c-16.3 0-29.5-13.2-29.5-29.5S17.9 4.7 34.2 4.7s29.5 13.2 29.5 29.5-13.2 29.5-29.5 29.5zM20 16.6l-3.1-2.9c-.9.7-1.7 1.5-2.4 2.3l3.6 3.3c.3-.9 1.1-1.9 1.9-2.7zm24.9 8.3c.1 0 .2-.1.2-.3.1-.9-.3-2-.5-2.3-.2-.4-.7-1.3-1.2-1.5-.5-.2-1.4-.2-2.3-.1-1.6.1-1.8.1-3 1.3-.5.5-1 .5-1.3 1-.2.4 0 .8.1 1 .1.2.5 0 .5 0s1.7-1.3 3.8-1.8c2.8-.6 3.6 2.6 3.6 2.6s0 .1.1.1z"/><g id="Flares_-_Head_1_"><defs><path id="Clip_-_Head_1_" d="M34.2 0C15.3 0 0 15.3 0 34.2c0 18.9 15.3 34.2 34.2 34.2 18.9 0 34.2-15.3 34.2-34.2C68.4 15.3 53.1 0 34.2 0zm0 63.7c-16.3 0-29.5-13.2-29.5-29.5S17.9 4.7 34.2 4.7s29.5 13.2 29.5 29.5-13.2 29.5-29.5 29.5z"/></defs><clipPath id="Clip_-_Head_2_"><use xlink:href="#Clip__x002D__Head_1_" overflow="visible"/></clipPath></g></g></svg>