<?xml version="1.0" encoding="utf-8"?>
<!-- Generator: Adobe Illustrator 21.0.0, SVG Export Plug-In . SVG Version: 6.00 Build 0)  -->
<svg version="1.1" xmlns="http://www.w3.org/2000/svg" xmlns:xlink="http://www.w3.org/1999/xlink" x="0px" y="0px"
	 viewBox="0 0 64 64" style="enable-background:new 0 0 64 64;" xml:space="preserve">
<style type="text/css">
	.st0{display:none;}
	.st1{display:inline;}
	.st2{fill:#00AEEF;}
	.st3{display:inline;fill:none;stroke:#00AEEF;stroke-width:2;stroke-miterlimit:10;}
	.st4{fill:none;stroke:#00AEEF;stroke-width:2;stroke-miterlimit:10;}
	.st5{display:inline;fill:#00AEEF;}
	.st6{fill:#231F20;}
	.st7{fill:#FFBB1C;}
	.st8{fill:#C5DA00;}
	.st9{fill:#E5E5E5;}
	.st10{fill:#FFFFFF;}
	.st11{fill:#32012D;}
	.st12{fill:#002813;}
	.st13{fill:none;stroke:#002813;stroke-miterlimit:10;}
	.st14{fill-rule:evenodd;clip-rule:evenodd;}
	.st15{fill:#35072B;}
	.st16{fill:#F1F0EF;}
	.st17{fill:#FCFDFC;}
	.st18{fill:#EDECEB;}
	.st19{fill:#E9E8E7;}
	.st20{fill:#C4D82D;}
</style>
<g id="temp" class="st0">
</g>
<g id="outlined" class="st0">
</g>
<g id="build">
	<g>
		<g>
			<path d="M47.2,60H16.5c-3.7,0-6.5-3.8-6.5-7.2V9.2C10,5.7,12.9,3,16.5,3h21.9L53,19.9v32.8C53,56.3,50.8,60,47.2,60z M16.5,6
				c-2,0-3.5,1.4-3.5,3.2v43.5c0,1.9,1.6,4.2,3.5,4.2h30.7c1.8,0,2.8-2.2,2.8-4.2V21L37,6H16.5z"/>
		</g>
	</g>
	<g>
		<g>
			<path d="M44.3,29.6H19.6c0,0.4,0,0.9-0.1,1.3h24.8c0.4,0-0.3-0.3-0.3-0.7C44.1,29.9,44.7,29.6,44.3,29.6z"/>
		</g>
	</g>
	<g>
		<g>
			<path d="M33,25.8l0,8.9c0,0.4-0.3,0.7-0.7,0.7h-0.5c-0.4,0-0.7-0.3-0.7-0.7l0-8.9c0-0.4,0.3-0.7,0.7-0.7h0.5
				C32.6,25.1,33,25.4,33,25.8z"/>
		</g>
	</g>
	<g>
		<g>
			<path d="M43.4,35.6H20.6c-0.8,0-1.5-0.7-1.5-1.5v-7.8c0-0.8,0.7-1.5,1.5-1.5h22.7c0.8,0,1.5,0.7,1.5,1.5v7.8
				C44.9,35,44.2,35.6,43.4,35.6z M20.6,26.3v7.8h22.7l0-7.8H20.6z"/>
		</g>
	</g>
	<g>
		<g>
			<path d="M44.3,39.1H19.6c0,0.4,0,0.9-0.1,1.3h24.8c0.4,0-0.3-0.3-0.3-0.7C44.1,39.4,44.7,39.1,44.3,39.1z"/>
		</g>
	</g>
	<g>
		<g>
			<path d="M33,35.3l0,8.9c0,0.4-0.3,0.7-0.7,0.7h-0.5c-0.4,0-0.7-0.3-0.7-0.7l0-8.9c0-0.4,0.3-0.7,0.7-0.7h0.5
				C32.6,34.6,33,34.9,33,35.3z"/>
		</g>
	</g>
	<g>
		<g>
			<path d="M43.4,45.2H20.6c-0.8,0-1.5-0.7-1.5-1.5v-7.8c0-0.8,0.7-1.5,1.5-1.5h22.7c0.8,0,1.5,0.7,1.5,1.5v7.8
				C44.9,44.5,44.2,45.2,43.4,45.2z M20.6,35.8v7.8h22.7l0-7.8H20.6z"/>
		</g>
	</g>
</g>
</svg>
