<?xml version="1.0" encoding="utf-8"?>
<!-- Generator: Adobe Illustrator 21.0.0, SVG Export Plug-In . SVG Version: 6.00 Build 0)  -->
<svg version="1.1" xmlns="http://www.w3.org/2000/svg" xmlns:xlink="http://www.w3.org/1999/xlink" x="0px" y="0px"
	 viewBox="0 0 64 64" style="enable-background:new 0 0 64 64;" xml:space="preserve">
<style type="text/css">
	.st0{display:none;}
	.st1{display:inline;}
	.st2{fill:#00AEEF;}
	.st3{display:inline;fill:none;stroke:#00AEEF;stroke-width:2;stroke-miterlimit:10;}
	.st4{fill:none;stroke:#00AEEF;stroke-width:2;stroke-miterlimit:10;}
	.st5{display:inline;fill:#00AEEF;}
	.st6{fill:#231F20;}
	.st7{fill:#FFBB1C;}
	.st8{fill:#C5DA00;}
	.st9{fill:#E5E5E5;}
	.st10{fill:#FFFFFF;}
	.st11{fill:#32012D;}
	.st12{fill:#002813;}
	.st13{fill:none;stroke:#002813;stroke-miterlimit:10;}
	.st14{fill-rule:evenodd;clip-rule:evenodd;}
	.st15{fill:#35072B;}
	.st16{fill:#F1F0EF;}
	.st17{fill:#FCFDFC;}
	.st18{fill:#EDECEB;}
	.st19{fill:#E9E8E7;}
	.st20{fill:#C4D82D;}
</style>
<g id="temp" class="st0">
</g>
<g id="outlined" class="st0">
</g>
<g id="build">
	<g>
		<g>
			<path d="M47.2,60H16.5c-3.7,0-6.5-3.8-6.5-7.2V9.2C10,5.7,12.9,3,16.5,3h21.9L53,19.9v32.8C53,56.3,50.8,60,47.2,60z M16.5,6
				c-2,0-3.5,1.4-3.5,3.2v43.5c0,1.9,1.6,4.2,3.5,4.2h30.7c1.8,0,2.8-2.2,2.8-4.2V21L37,6H16.5z"/>
		</g>
	</g>
	<g>
		<path d="M19.7,45.6l0.6,0.3c0.3,0.1,0.6,0.2,0.9,0.2c1.6,0,3.4-2,5.9-6.5c2.9-1,6.2-1.8,9.1-2.2c2.2,1.3,4.9,2.2,6.7,2.2
			c0.3,0,0.6,0,0.8-0.1c0.3-0.1,0.6-0.3,0.8-0.5c0.3-0.5,0.4-1.2,0.3-1.9c0-0.2-0.2-0.5-0.4-0.7c-0.5-0.5-1.6-0.8-3.4-0.8
			c-1.2,0-2.6,0.1-4,0.3c-0.7-0.4-1.3-0.8-1.9-1.3c-1.4-1.4-2.6-3.3-3.4-5.4c0-0.2,0.1-0.4,0.1-0.5c0,0,0.8-4.7,0.6-6.3
			c0-0.2,0-0.3-0.1-0.5l-0.1-0.2c-0.2-0.5-0.7-1.1-1.3-1l-0.4,0l0,0c-0.8,0-1.4,0.4-1.5,1c-0.5,1.8,0,4.6,0.9,8.2l-0.2,0.6
			c-0.7,1.6-1.5,3.3-2.2,4.7l-0.1,0.2c-0.8,1.5-1.5,2.8-2.1,3.9l-0.6,0.4c0,0-1.2,0.6-1.4,0.8c-2.2,1.4-3.7,2.9-3.9,4.1
			C19.2,44.9,19.3,45.3,19.7,45.6z M41,37c0.9,0,1.2,0,2.1,0.2c0.9,0.2,0.9,0.7,0.8,0.8c-0.2,0.1-0.6,0.2-0.9,0.2
			c-0.9,0-2.1-0.4-3.7-1.1C39.9,37,40.5,37,41,37z M30.8,21.4c0.5,0,0.8,1.3,0.8,2.5c0,1.2-0.3,2.1-0.6,2.7
			c-0.3-0.9-0.4-2.4-0.4-3.4C30.5,23.3,30.5,21.4,30.8,21.4z M28.9,36.1c0.9-1.8,1.5-3.2,1.9-4.3c0.9,1.6,1.9,2.9,3.2,4
			c0.2,0.1,0.3,0.3,0.5,0.4c-2.5,0.5-4.8,1.1-6.7,1.9C28.1,37.5,28.5,36.8,28.9,36.1z M23.9,41.1c0.1-0.1,0.4-0.3,0.6-0.6
			c-1.8,2.9-2.9,4-3.7,4.4C21.1,44.1,22.2,42.5,23.9,41.1z"/>
	</g>
</g>
</svg>
