<?xml version="1.0" encoding="utf-8"?>
<!-- Generator: Adobe Illustrator 21.0.0, SVG Export Plug-In . SVG Version: 6.00 Build 0)  -->
<svg version="1.1" xmlns="http://www.w3.org/2000/svg" xmlns:xlink="http://www.w3.org/1999/xlink" x="0px" y="0px"
	 viewBox="0 0 64 64" enable-background="new 0 0 64 64" xml:space="preserve">
<g id="temp" display="none">
</g>
<g id="outlined" display="none">
</g>
<g id="build">
	<g>
		<g>
			<path d="M47.152,60H16.489C12.775,60,10,56.172,10,52.75V9.25C10,5.745,12.851,3,16.489,3h21.887L53,19.905V52.75
				C53,56.313,50.812,60,47.152,60z M16.489,6C14.5,6,13,7.397,13,9.25v43.5c0,1.925,1.557,4.25,3.489,4.25h30.663
				C48.911,57,50,54.794,50,52.75V21.022L37.005,6H16.489z"/>
		</g>
	</g>
	<g>
		<path d="M23.7,43.627c0-0.204,0.168-0.372,0.372-0.372h1.235c0.192,0,0.372,0.168,0.372,0.372v5.289
			c0,1.919-1.235,2.794-2.879,2.794c-1.774,0-2.771-1.247-2.771-2.542c0-0.66,0.408-0.972,0.912-0.972
			c0.432,0,0.839,0.3,0.839,0.899c0,0.888,0.396,1.247,0.948,1.247c0.6,0,0.971-0.348,0.971-1.127V43.627z"/>
		<path d="M27.854,51.566c-0.203,0-0.371-0.168-0.371-0.372v-7.567c0-0.204,0.168-0.372,0.371-0.372h3.011
			c1.991,0,3.022,1.188,3.022,2.698c0,1.463-0.972,2.711-3.202,2.711h-1.224v2.53c0,0.204-0.18,0.372-0.372,0.372H27.854z
			 M30.48,47.285c0.959,0,1.427-0.588,1.427-1.367c0-0.756-0.455-1.283-1.415-1.283h-1.031v2.65H30.48z"/>
		<path d="M41.65,44.502c0,0.444-0.312,0.756-0.768,0.756c-0.768,0-1.02-0.804-2.171-0.804c-1.332,0-2.027,1.044-2.027,3.046
			c0,2.195,0.84,2.831,2.171,2.831c1.02,0,1.224-0.372,1.224-0.876V48.46h-0.948c-0.203,0-0.371-0.18-0.371-0.372v-0.635
			c0-0.204,0.168-0.372,0.371-0.372h2.363c0.204,0,0.372,0.168,0.372,0.372v2.519c0,0.3-0.097,0.575-0.349,0.839
			c-0.468,0.492-1.463,0.899-2.818,0.899c-2.519,0-3.993-1.391-3.993-4.186c0-2.927,1.631-4.425,4.065-4.425
			C40.415,43.1,41.65,43.746,41.65,44.502z"/>
	</g>
	<path d="M39.5,22.5l-15,0c-0.589,0-1.071,0.482-1.071,1.071l0,12.857c0,0.589,0.482,1.071,1.071,1.071h15
		c0.589,0,1.071-0.482,1.071-1.071V23.571C40.571,22.982,40.089,22.5,39.5,22.5z M35.75,24.643c0.888,0,1.607,0.72,1.607,1.607
		c0,0.888-0.72,1.607-1.607,1.607s-1.607-0.72-1.607-1.607C34.143,25.362,34.862,24.643,35.75,24.643z M38.429,35.357H25.572v-2.143
		l3.75-6.429l4.286,5.357h1.071l3.75-3.214V35.357z"/>
</g>
</svg>
