<svg width="68" height="84" viewBox="0 0 68 84" version="1.1" xmlns="http://www.w3.org/2000/svg"><title>Group</title><g id="Symbols" stroke="none" stroke-width="1" fill="none" fill-rule="evenodd"><path d="M66 0c1.105 0 2 .895 2 2v80c0 1.105-.895 2-2 2H2c-1.105 0-2-.895-2-2V2C0 .895.895 0 2 0h64z" id="BG" fill="#FFF"/><path d="M66 0c1.105 0 2 .895 2 2v80c0 1.105-.895 2-2 2H2c-1.105 0-2-.895-2-2V2C0 .895.895 0 2 0h64zm-2 4v76H4V4h60z" id="Shape" fill="#8B8B8B"/><path d="M10 66v-2h48v2H10zm0-14h48v2H10v-2zm44 8H10v-2h44v2z" id="Shape" fill="#B2B2B1"/><path d="M10 42l16-17 11 10 19-20" id="Shape" stroke="#B2B2B1" stroke-width="2"/></g></svg>