<?xml version="1.0" standalone="no"?>
<!DOCTYPE svg
  PUBLIC '-//W3C//DTD SVG 1.1//EN'
  'http://www.w3.org/Graphics/SVG/1.1/DTD/svg11.dtd'><svg version="1.1" xmlns="http://www.w3.org/2000/svg"><defs><font horiz-adv-x="0" id="font"><font-face ascent="750" bbox="-257 -290 1198 984" cap-height="700" descent="-250" font-family="FM Light WEB" font-stretch="normal" font-style="normal" font-weight="700" units-per-em="1000" x-height="472" /><missing-glyph d="" horiz-adv-x="500" /><glyph d="" glyph-name=".null" horiz-adv-x="0" unicode="" /><glyph d="" glyph-name="nonmarkingreturn" horiz-adv-x="250" unicode="" /><glyph d="" glyph-name="space" horiz-adv-x="236" unicode=" " /><glyph d="M106 204 113 335L145 710H230L171 335L145 204ZM68 125 163 125L148 0H53Z" glyph-name="exclam" horiz-adv-x="259" unicode="!" /><glyph d="M171 700 253 700L251 682L111 417H67ZM335 700 417 700L415 682L276 417H232Z" glyph-name="quotedbl" horiz-adv-x="388" unicode="&quot;" /><glyph d="M317 220 180 220L141 0H88L127 220H14L21 263H134L165 437H52L60 480H172L211 700H264L225 480H362L401 700H454L415 480H529L521 437H408L377 263H490L483 220H370L331 0H278ZM324 263 355 437H218L187 263Z" glyph-name="numbersign" horiz-adv-x="546" unicode="#" /><glyph d="M216 -10Q207 -10 197.5 -10Q188 -10 178 -9L141 -122H96L134 -6Q109 -3 85 1.5Q61 6 39 13L55 184H99L120 51Q134 47 150 42L245 328Q216 346 187.5 364.5Q159 383 136.5 405.5Q114 428 100.5 454.5Q87 481 87 515Q87 547 98 581.5Q109 616 134.5 644.5Q160 673 202 691.5Q244 710 307 710Q342 710 370 707L401 801H442L410 702Q422 700 432 698Q442 696 449 695Q457 693 463 691L437 520H392L385 626L304 378Q332 361 359 342.5Q386 324 407 302.5Q428 281 440.5 256Q453 231 453 199Q453 152 436 113.5Q419 75 388 47.5Q357 20 313 5Q269 -10 216 -10ZM151 544Q151 520 160.5 500.5Q170 481 186.5 463.5Q203 446 224 430.5Q245 415 269 400L355 661Q342 663 326 665Q310 667 290 667Q263 667 237.5 660.5Q212 654 193 639Q174 624 162.5 600.5Q151 577 151 544ZM391 167Q391 190 382 209Q373 228 358 245Q343 262 323 276.5Q303 291 280 305L192 36Q200 35 208 34.5Q216 34 224 34Q305 34 348 70.5Q391 107 391 167Z" glyph-name="dollar" horiz-adv-x="501" unicode="$" /><glyph d="M53 0 704 700H752L104 0ZM70 526Q75 569 90.5 601.5Q106 634 129.5 656Q153 678 181 689Q209 700 238 700Q264 700 288.5 689Q313 678 331.5 656Q350 634 359.5 601.5Q369 569 364 526Q360 484 344 452.5Q328 421 304.5 399Q281 377 252.5 366Q224 355 195 355Q170 355 145.5 366Q121 377 102.5 398.5Q84 420 74.5 452Q65 484 70 526ZM200 389Q244 389 268 425.5Q292 462 300 526Q307 592 292 627.5Q277 663 233 663Q191 663 167.5 627.5Q144 592 136 526Q128 461 142.5 425Q157 389 200 389ZM560 -10Q536 -10 511 1.5Q486 13 467 34.5Q448 56 438 88.5Q428 121 433 163Q438 205 454.5 237Q471 269 494.5 291Q518 313 546 324Q574 335 603 335Q629 335 654 324Q679 313 698 291Q717 269 726.5 237Q736 205 731 163Q726 121 709.5 88.5Q693 56 669.5 34.5Q646 13 617.5 1.5Q589 -10 560 -10ZM565 27Q608 27 632 63Q656 99 664 164Q672 228 656.5 264.5Q641 301 599 301Q555 301 531 264Q507 227 499 163Q491 99 506 63Q521 27 565 27Z" glyph-name="percent" horiz-adv-x="774" unicode="%" /><glyph d="M289 -17Q240 -17 195.5 -5Q151 7 117 30Q83 53 63 88Q43 123 43 168Q43 190 51 222Q59 254 84.5 287Q110 320 157.5 349Q205 378 284 393Q244 408 217.5 427.5Q191 447 175 468.5Q159 490 152.5 512Q146 534 146 553Q146 591 160.5 620Q175 649 199.5 669Q224 689 258 699.5Q292 710 331 710Q361 710 390.5 705.5Q420 701 443.5 695.5Q467 690 482.5 685Q498 680 500 678L475 562H428L431 658Q414 663 394 666Q374 669 354 669Q327 669 302.5 663Q278 657 258.5 643Q239 629 227.5 605.5Q216 582 216 546Q216 524 225.5 501.5Q235 479 253 460Q271 441 296 427.5Q321 414 352 410L383 406L371 349Q364 350 356 350Q348 350 340 350Q306 350 265 345Q224 340 189 323.5Q154 307 130 276.5Q106 246 106 195Q106 112 169 75.5Q232 39 338 39Q408 39 459.5 55.5Q511 72 545 97.5Q579 123 596 154Q613 185 613 215Q613 239 607 259.5Q601 280 587 295Q573 310 550 318.5Q527 327 492 327L470 256H429L452 382H724L753 438H783L759 326H639Q647 309 650.5 284.5Q654 260 654 237Q654 164 618.5 115.5Q583 67 529 37.5Q475 8 410.5 -4.5Q346 -17 289 -17Z" glyph-name="ampersand" horiz-adv-x="771" unicode="&amp;" /><glyph d="M171 700 253 700L251 682L111 417H67Z" glyph-name="quotesingle" horiz-adv-x="224" unicode="'" /><glyph d="M204 -193Q189 -171 158 -128.5Q127 -86 99 -23.5Q71 39 54 120.5Q37 202 49 301Q61 400 98 483.5Q135 567 179 631.5Q223 696 264.5 740.5Q306 785 327 807L353 779Q323 747 288.5 704Q254 661 221.5 603Q189 545 163.5 471Q138 397 126 302Q115 208 123 135Q131 62 149 6Q167 -50 191.5 -91.5Q216 -133 237 -165Z" glyph-name="parenleft" horiz-adv-x="304" unicode="(" /><glyph d="M-32 -165Q-3 -133 31.5 -91.5Q66 -50 98 6Q130 62 155.5 135Q181 208 193 302Q205 397 197.5 471Q190 545 172 603Q154 661 130 704Q106 747 84 779L117 807Q132 785 162.5 740.5Q193 696 221 631.5Q249 567 265.5 484Q282 401 270 302Q258 203 221.5 121.5Q185 40 141.5 -22.5Q98 -85 57 -128Q16 -171 -5 -193Z" glyph-name="parenright" horiz-adv-x="303" unicode=")" /><glyph d="M243 493 97 390L73 445L235 512L89 578L127 633L248 530V700H310L269 531L415 633L439 578L277 512L422 445L385 390L265 493L264 324H202Z" glyph-name="asterisk" horiz-adv-x="445" unicode="*" /><glyph d="M269 306 250 154H194L213 306H65L71 359H219L238 513H294L275 359H423L416 306Z" glyph-name="plus" horiz-adv-x="464" unicode="+" /><glyph d="M82 152 164 152L162 134L22 -131H-22Z" glyph-name="comma" horiz-adv-x="227" unicode="," /><glyph d="M72 300 314 300L308 248H65Z" glyph-name="hyphen" horiz-adv-x="371" unicode="-" /><glyph d="M57 125 152 125L136 0H41Z" glyph-name="period" horiz-adv-x="225" unicode="." /><glyph d="M409 762 457 762L32 -130H-15Z" glyph-name="slash" horiz-adv-x="423" unicode="/" /><glyph d="M237 -10Q189 -10 153 16.5Q117 43 94.5 89.5Q72 136 64.5 199.5Q57 263 66 337L69 362Q78 436 101.5 499.5Q125 563 159 610Q193 657 236 683.5Q279 710 328 710Q376 710 412.5 683.5Q449 657 471 610Q493 563 501 499.5Q509 436 500 362L495 337Q486 263 463.5 199.5Q441 136 407 89.5Q373 43 330 16.5Q287 -10 237 -10ZM242 30Q285 30 314.5 53.5Q344 77 363.5 117.5Q383 158 395 212Q407 266 415 327L420 372Q427 433 428.5 487.5Q430 542 420.5 582.5Q411 623 388 646.5Q365 670 323 670Q280 670 250.5 646.5Q221 623 201.5 582.5Q182 542 170 487.5Q158 433 150 372L146 327Q139 266 137 212Q135 158 144.5 117.5Q154 77 177 53.5Q200 30 242 30Z" glyph-name="zero" horiz-adv-x="538" unicode="0" /><glyph d="M26 46 168 54L238 630L79 588L84 627L278 700H318L238 54L374 46L368 0H20Z" glyph-name="one" horiz-adv-x="403" unicode="1" /><glyph d="M409 0 15 0L18 43L244 285Q279 323 303.5 355.5Q328 388 345 418.5Q362 449 371.5 478.5Q381 508 385 540Q390 577 382 601.5Q374 626 358.5 640.5Q343 655 321 661Q299 667 276 667Q244 667 213.5 659Q183 651 168 646L133 516H93L112 671Q139 682 171 691Q200 698 234.5 704Q269 710 309 710Q351 710 383 697Q415 684 435.5 662.5Q456 641 465 612.5Q474 584 470 553Q467 522 456.5 493.5Q446 465 426.5 434.5Q407 404 377 369.5Q347 335 305 290L92 67H369L422 159H452Z" glyph-name="two" horiz-adv-x="504" unicode="2" /><glyph d="M182 -10Q154 -10 127.5 -6.5Q101 -3 80.5 1Q60 5 46.5 9Q33 13 30 14L39 163H81L95 39Q93 39 116.5 34.5Q140 30 170 30Q271 30 329 77Q387 124 397 205Q402 243 390 270Q378 297 356 314Q334 331 304.5 338.5Q275 346 244 346Q236 346 227 345.5Q218 345 210 344L191 387Q238 392 277 408Q316 424 345.5 447.5Q375 471 393 501Q411 531 415 565Q421 610 389 638.5Q357 667 288 667Q259 667 234.5 662Q210 657 188 652L155 538H113L133 682Q159 690 189 696Q217 702 249.5 706Q282 710 319 710Q350 710 382 703Q414 696 439 679.5Q464 663 478 636Q492 609 487 569Q483 537 466.5 510Q450 483 424 460Q398 437 364 417Q330 397 292 380Q330 379 364 367Q398 355 423 333.5Q448 312 461 280.5Q474 249 469 209Q464 169 443 129.5Q422 90 385.5 59Q349 28 298 9Q247 -10 182 -10Z" glyph-name="three" horiz-adv-x="524" unicode="3" /><glyph d="M200 42 289 42L312 231H19L26 285L368 700H439L388 287H512L507 231H381L358 42H442L437 0H195ZM319 287 363 647L68 287Z" glyph-name="four" horiz-adv-x="534" unicode="4" /><glyph d="M159 -10Q126 -10 90 -6.5Q54 -3 23 6L39 131H77L88 41Q105 36 125.5 33Q146 30 166 30Q266 30 321 75.5Q376 121 385 195Q392 244 374 276.5Q356 309 324 328Q292 347 250.5 355Q209 363 168 363Q129 363 96 360L145 700H502L496 635H176L150 437Q158 438 172.5 438.5Q187 439 199 439Q246 439 293.5 427.5Q341 416 378.5 389Q416 362 436.5 318.5Q457 275 449 211Q443 159 418 118Q393 77 354.5 48.5Q316 20 266 5Q216 -10 159 -10Z" glyph-name="five" horiz-adv-x="504" unicode="5" /><glyph d="M489 198Q485 159 468 121.5Q451 84 421.5 54.5Q392 25 349.5 7.5Q307 -10 251 -10Q210 -10 170 6Q130 22 100 53.5Q70 85 54.5 133.5Q39 182 47 246Q56 314 89.5 375.5Q123 437 169 489Q215 541 266 583Q317 625 360 654.5Q403 684 432 700Q461 716 462 717V717V717L499 705Q501 706 470 684.5Q439 663 392 622.5Q345 582 290 524Q235 466 188 394Q217 404 245 408.5Q273 413 298 413Q343 413 380.5 397.5Q418 382 444 353.5Q470 325 482.5 285.5Q495 246 489 198ZM262 30Q298 30 325 44Q352 58 371 81.5Q390 105 401 135Q412 165 416 197Q426 281 383.5 327Q341 373 264 373Q241 373 217 369Q193 365 167 356Q148 328 135 291Q122 254 119 216Q114 180 120 146.5Q126 113 144 87Q162 61 191.5 45.5Q221 30 262 30Z" glyph-name="six" horiz-adv-x="529" unicode="6" /><glyph d="M76 0 460 635H145L110 507H69L91 700H515L512 658L158 0Z" glyph-name="seven" horiz-adv-x="476" unicode="7" /><glyph d="M235 -8Q182 -5 143.5 11.5Q105 28 81 54.5Q57 81 47 114.5Q37 148 41 184Q45 220 62.5 250Q80 280 105.5 303.5Q131 327 161.5 344Q192 361 221 370L209 377Q160 414 135 454Q110 494 117 542Q122 585 142.5 617Q163 649 193 669.5Q223 690 260 699Q297 708 336 706Q370 704 402 692Q434 680 457.5 659Q481 638 493.5 607.5Q506 577 501 538Q497 503 481 477.5Q465 452 442 433Q419 414 392.5 400.5Q366 387 340 376L362 362Q425 322 459 275.5Q493 229 485 170Q480 128 459.5 93.5Q439 59 406.5 36Q374 13 330.5 1Q287 -11 235 -8ZM317 391Q338 404 359.5 421Q381 438 399 458Q417 478 429.5 500.5Q442 523 445 546Q448 569 443.5 590.5Q439 612 426 629Q413 646 390 657Q367 668 332 669Q300 671 274.5 662.5Q249 654 231 639Q213 624 202.5 604Q192 584 189 561Q182 515 207.5 482.5Q233 450 276 421ZM251 31Q278 30 306.5 36.5Q335 43 358.5 58Q382 73 398.5 97Q415 121 419 155Q423 185 412.5 209Q402 233 382.5 253.5Q363 274 336 292.5Q309 311 280 330L241 356Q220 343 199 327Q178 311 160 290.5Q142 270 129.5 245Q117 220 114 187Q110 153 118 125Q126 97 145 76.5Q164 56 191 44.5Q218 33 251 31Z" glyph-name="eight" horiz-adv-x="542" unicode="8" /><glyph d="M95 -17 95 -17L60 -5Q58 -6 88.5 15.5Q119 37 165.5 77.5Q212 118 267 176Q322 234 369 306Q341 296 312.5 291.5Q284 287 259 287Q214 287 176.5 302.5Q139 318 113 346.5Q87 375 74.5 414.5Q62 454 68 502Q73 541 89.5 578.5Q106 616 135.5 645.5Q165 675 208 692.5Q251 710 308 710Q348 710 387.5 694Q427 678 457 646Q487 614 502.5 566Q518 518 510 454Q502 386 468 324.5Q434 263 388 211Q342 159 291 117Q240 75 197 45.5Q154 16 125 0Q96 -16 95 -17ZM295 670Q260 670 233 656Q206 642 187 618.5Q168 595 156.5 565Q145 535 141 503Q131 419 174 373Q217 327 295 327Q316 327 341 331Q366 335 390 344Q409 372 422 409Q435 446 440 484Q445 520 438 553.5Q431 587 413 613Q395 639 365.5 654.5Q336 670 295 670Z" glyph-name="nine" horiz-adv-x="528" unicode="9" /><glyph d="M93 472 188 472L173 347H78ZM50 125 146 125L130 0H35Z" glyph-name="colon" horiz-adv-x="224" unicode=":" /><glyph d="M122 472 217 472L202 347H107ZM79 152 161 152L159 134L19 -131H-25Z" glyph-name="semicolon" horiz-adv-x="250" unicode=";" /><glyph d="M49 304 56 359L426 509L420 456L109 332L389 207L383 154Z" glyph-name="less" horiz-adv-x="464" unicode="&lt;" /><glyph d="M80 439 432 439L425 386H73ZM60 279 412 279L406 226H54Z" glyph-name="equal" horiz-adv-x="464" unicode="=" /><glyph d="M67 207 379 332L98 456L104 509L438 359L431 304L61 154Z" glyph-name="greater" horiz-adv-x="464" unicode="&gt;" /><glyph d="M163 224Q169 276 194 315.5Q219 355 247 392Q275 429 299.5 467Q324 505 330 553Q338 614 310.5 640.5Q283 667 232 667Q215 667 198.5 664Q182 661 169 658Q154 653 140 648L120 544H80L86 673Q111 683 140 692Q166 699 197 704.5Q228 710 263 710Q305 710 334.5 697.5Q364 685 382 665.5Q400 646 407.5 621Q415 596 412 570Q405 510 375 467Q345 424 310 386.5Q275 349 244 311.5Q213 274 202 224ZM127 125 222 125L207 0H112Z" glyph-name="question" horiz-adv-x="417" unicode="?" /><glyph d="M769 -114Q728 -137 689.5 -154.5Q651 -172 612.5 -183.5Q574 -195 533.5 -200.5Q493 -206 446 -206Q361 -206 282 -178.5Q203 -151 146 -95.5Q89 -40 60.5 44.5Q32 129 46 244Q58 343 99 422Q140 501 202.5 557Q265 613 345.5 643Q426 673 517 673Q622 673 697 638.5Q772 604 818.5 548.5Q865 493 883.5 424.5Q902 356 894 288Q887 229 863.5 175Q840 121 804.5 80Q769 39 723 14.5Q677 -10 626 -10Q596 -10 581 -1.5Q566 7 561 20.5Q556 34 557 50Q558 66 560 82L564 119Q545 97 523 74Q501 51 477 32.5Q453 14 427 2Q401 -10 373 -10Q313 -10 288 36Q263 82 263 160Q263 198 273 253Q283 308 308.5 359Q334 410 377 446Q420 482 487 482Q511 482 529 476.5Q547 471 561 463Q575 455 585.5 445.5Q596 436 603 428L608 469L677 483L621 20Q673 28 710.5 52Q748 76 773.5 111.5Q799 147 813.5 191Q828 235 834 281Q844 361 824.5 426.5Q805 492 762.5 538.5Q720 585 657.5 610.5Q595 636 518 636Q432 636 361.5 607.5Q291 579 239 527Q187 475 154.5 403Q122 331 111 244Q100 151 122 76.5Q144 2 192 -50.5Q240 -103 311 -131.5Q382 -160 467 -160Q545 -160 628 -138Q711 -116 778 -77ZM332 166Q332 125 338.5 101Q345 77 355.5 64.5Q366 52 378 48.5Q390 45 402 45Q430 45 459.5 64.5Q489 84 513 107Q542 134 569 169L597 391Q586 406 571 417Q558 428 539.5 435.5Q521 443 496 443Q448 443 416.5 416Q385 389 366 347.5Q347 306 339.5 257.5Q332 209 332 166Z" glyph-name="at" horiz-adv-x="935" unicode="@" /><glyph d="M207 0 -39 0L-32 47H46L429 710H481L576 47H663L656 0H411L418 47H501L471 275H232L105 47H214ZM465 322 425 620L259 322Z" glyph-name="A" horiz-adv-x="695" unicode="A" /><glyph d="M19 47 114 47L189 653H94L99 700H370Q457 700 509.5 663.5Q562 627 562 554Q562 483 518 440.5Q474 398 392 366Q428 359 458 343.5Q488 328 510.5 304.5Q533 281 545.5 251.5Q558 222 558 186Q558 142 536.5 107.5Q515 73 480 49Q445 25 400.5 12.5Q356 0 311 0H14ZM323 389Q356 389 385.5 400.5Q415 412 438 432.5Q461 453 474.5 482Q488 511 488 547Q488 600 455.5 626.5Q423 653 366 653H262L229 389ZM311 47Q391 47 436 81.5Q481 116 481 198Q481 227 471 253Q461 279 438.5 299Q416 319 380.5 330.5Q345 342 295 342H224L187 47Z" glyph-name="B" horiz-adv-x="608" unicode="B" /><glyph d="M375 -10Q304 -10 246 13.5Q188 37 147 78.5Q106 120 83.5 177.5Q61 235 61 304Q61 406 93.5 482Q126 558 182 609Q238 660 312.5 685Q387 710 472 710Q516 710 566 704Q616 698 664 687L638 509H591L592 649Q558 656 528.5 660Q499 664 464 664Q384 664 323 634.5Q262 605 221.5 555.5Q181 506 160.5 441.5Q140 377 140 307Q140 246 157.5 195.5Q175 145 208 110Q241 75 289.5 55.5Q338 36 400 36Q435 36 460.5 39.5Q486 43 502 47Q518 51 525.5 54.5Q533 58 533 58L585 184H633L594 29Q571 18 539 10Q510 2 470 -4Q430 -10 375 -10Z" glyph-name="C" horiz-adv-x="672" unicode="C" /><glyph d="M717 342Q706 254 671 189.5Q636 125 583.5 83Q531 41 465 20.5Q399 0 325 0H15L21 47H114L188 653H95L101 700H411Q485 700 546 680Q607 660 649 618Q691 576 710.5 511.5Q730 447 719 358ZM644 360Q655 447 639 504Q623 561 588 594Q553 627 502 640Q451 653 392 653H261L187 47H317Q376 47 430 60.5Q484 74 527.5 108Q571 142 601 199.5Q631 257 642 344Z" glyph-name="D" horiz-adv-x="754" unicode="D" /><glyph d="M19 47 114 47L189 653H94L99 700H608L586 520H542L529 653H262L227 373H381L403 468H450L420 227H373L376 326H222L187 47H494L550 178H595L563 0H14Z" glyph-name="E" horiz-adv-x="632" unicode="E" /><glyph d="M19 47 114 47L189 653H94L99 700H598L576 520H532L519 653H262L226 363H390L412 458H459L429 217H382L384 316H220L187 47H309L304 0H14Z" glyph-name="F" horiz-adv-x="571" unicode="F" /><glyph d="M387 -10Q313 -10 252.5 13.5Q192 37 149.5 79Q107 121 84 178.5Q61 236 61 304Q61 406 93.5 482Q126 558 181.5 609Q237 660 312 685Q387 710 471 710Q493 710 521.5 708Q550 706 580.5 702Q611 698 640.5 693.5Q670 689 694 683L668 505H621L622 645Q588 653 543.5 658Q499 663 465 663Q386 663 325.5 637Q265 611 224 564Q183 517 161.5 451.5Q140 386 140 307Q140 246 160.5 196Q181 146 218.5 111Q256 76 308 57Q360 38 422 38Q449 38 473 40.5Q497 43 515 46Q535 50 553 54L580 269H445L450 316H734L729 269H653L623 28Q623 28 607 22Q591 16 560.5 9Q530 2 486 -4Q442 -10 387 -10Z" glyph-name="G" horiz-adv-x="750" unicode="G" /><glyph d="M19 47 114 47L189 653H94L99 700H363L358 653H262L227 373H613L648 653H552L557 700H821L816 653H721L645 47H741L736 0H472L477 47H573L608 326H222L187 47H283L278 0H14Z" glyph-name="H" horiz-adv-x="807" unicode="H" /><glyph d="M11 47 127 47L202 653H86L91 700H397L392 653H275L200 47H317L312 0H6Z" glyph-name="I" horiz-adv-x="375" unicode="I" /><glyph d="M8 -149 94 -48L181 653H96L101 700H341L316 653H254L175 13Q172 -8 164 -29.5Q156 -51 140 -74Q124 -97 98.5 -122Q73 -147 35 -175Z" glyph-name="J" horiz-adv-x="325" unicode="J" /><glyph d="M19 47 114 47L189 653H94L99 700H359L354 653H262L226 366H296L571 653H473L478 700H726L721 653H635L359 372L589 47H686L681 0H531L308 323H221L187 47H279L274 0H14Z" glyph-name="K" horiz-adv-x="691" unicode="K" /><glyph d="M19 47 114 47L189 653H94L99 700H364L359 653H262L187 47H479L546 178H590L548 0H14Z" glyph-name="L" horiz-adv-x="609" unicode="L" /><glyph d="M20 47 114 47L189 653H95L100 700H278L453 172L787 700H957L952 653H855L780 47H877L872 0H598L603 47H708L778 607L460 111H401L233 607L164 47H270L265 0H15Z" glyph-name="M" horiz-adv-x="942" unicode="M" /><glyph d="M19 47 114 47L189 653H94L99 700H261L582 114L648 653H543L548 700H800L795 653H699L619 0H569L233 609L163 47H270L265 0H14Z" glyph-name="N" horiz-adv-x="775" unicode="N" /><glyph d="M325 -10Q262 -10 213 12Q164 34 130.5 74Q97 114 79 169Q61 224 61 290Q61 350 72 407Q85 474 113 530Q141 586 183 626Q225 666 279.5 688Q334 710 400 710Q463 710 512 688Q561 666 594.5 626Q628 586 646 531Q664 476 664 410Q664 351 653 293Q640 226 612 170Q584 114 542 74Q500 34 445.5 12Q391 -10 325 -10ZM325 35Q386 35 430.5 58Q475 81 505.5 119.5Q536 158 554 208Q572 258 581 312Q586 341 587.5 368Q589 395 589 424Q589 480 578.5 524.5Q568 569 545.5 600.5Q523 632 487 648.5Q451 665 400 665Q339 665 294.5 642Q250 619 219.5 580.5Q189 542 171 492Q153 442 144 388Q139 359 137.5 332Q136 305 136 276Q136 164 180 99.5Q224 35 325 35Z" glyph-name="O" horiz-adv-x="697" unicode="O" /><glyph d="M19 47 114 47L189 653H94L99 700H387Q432 700 466.5 686.5Q501 673 524.5 649.5Q548 626 559.5 595.5Q571 565 571 531Q571 468 548.5 421Q526 374 489.5 342.5Q453 311 405.5 295Q358 279 307 279Q289 279 263 281Q237 283 217 288L187 47H304L299 0H14ZM303 326Q345 326 380.5 334.5Q416 343 441.5 365Q467 387 481 424Q495 461 495 519Q495 582 457 617.5Q419 653 349 653H262L222 331Q239 329 263.5 327.5Q288 326 303 326Z" glyph-name="P" horiz-adv-x="568" unicode="P" /><glyph d="M757 -201 588 -200L335 -10H325Q262 -10 213 12Q164 34 130.5 74Q97 114 79 169Q61 224 61 290Q61 350 72 407Q85 474 113 530Q141 586 183 626Q225 666 279.5 688Q334 710 400 710Q463 710 512 688Q561 666 594.5 626Q628 586 646 531Q664 476 664 410Q664 351 653 293Q631 183 570.5 105.5Q510 28 415 2L646 -154H762ZM325 35Q386 35 430.5 58Q475 81 505.5 119.5Q536 158 554 208Q572 258 581 312Q586 341 587.5 368Q589 395 589 424Q589 480 578.5 524.5Q568 569 545.5 600.5Q523 632 487 648.5Q451 665 400 665Q339 665 294.5 642Q250 619 219.5 580.5Q189 542 171 492Q153 442 144 388Q139 359 137.5 332Q136 305 136 276Q136 164 180 99.5Q224 35 325 35Z" glyph-name="Q" horiz-adv-x="697" unicode="Q" /><glyph d="M19 47 114 47L189 653H94L99 700H406Q451 700 486 687.5Q521 675 544.5 653Q568 631 580 601.5Q592 572 592 539Q592 493 575.5 457Q559 421 533 394.5Q507 368 473.5 350.5Q440 333 406 323L593 47H680L675 0H540L338 305L219 312L187 47H294L289 0H14ZM344 351Q371 351 401 359.5Q431 368 456.5 388Q482 408 499 441Q516 474 516 524Q516 587 476.5 620Q437 653 367 653H261L224 351Z" glyph-name="R" horiz-adv-x="667" unicode="R" /><glyph d="M221 -10Q178 -10 130.5 -4.5Q83 1 44 13L60 184H104L125 51Q145 43 173.5 38.5Q202 34 229 34Q310 34 353 70.5Q396 107 396 167Q396 204 373.5 232Q351 260 317 284Q283 308 244 330.5Q205 353 171 379.5Q137 406 114.5 438.5Q92 471 92 515Q92 547 103 581.5Q114 616 139.5 644.5Q165 673 207 691.5Q249 710 312 710Q345 710 373 707Q401 704 423 701Q447 696 468 691L442 520H397L388 653Q389 653 363 660Q337 667 295 667Q268 667 242.5 660.5Q217 654 198 639Q179 624 167.5 600.5Q156 577 156 544Q156 507 178.5 479Q201 451 234.5 426.5Q268 402 307 379.5Q346 357 379.5 331Q413 305 435.5 273Q458 241 458 199Q458 152 441 113.5Q424 75 393 47.5Q362 20 318 5Q274 -10 221 -10Z" glyph-name="S" horiz-adv-x="508" unicode="S" /><glyph d="M130 47 256 47L331 653H151L103 520H60L82 700H664L642 520H598L585 653H404L329 47H455L450 0H126Z" glyph-name="T" horiz-adv-x="633" unicode="T" /><glyph d="M357 -10Q302 -10 255.5 2.5Q209 15 177 43Q145 71 130.5 114.5Q116 158 123 221L176 653H81L86 700H361L356 653H249L194 190Q191 162 197.5 134Q204 106 224.5 84Q245 62 280 48Q315 34 369 34Q469 34 528.5 85.5Q588 137 599 224L652 653H546L551 700H803L798 653H702L648 218Q641 161 615.5 118Q590 75 551.5 46.5Q513 18 463 4Q413 -10 357 -10Z" glyph-name="U" horiz-adv-x="772" unicode="U" /><glyph d="M147 653 66 653L71 700H326L321 653H221L294 78L631 653H536L541 700H777L772 653H683L293 0H236Z" glyph-name="V" horiz-adv-x="707" unicode="V" /><glyph d="M548 449 275 0H216L149 653H68L73 700H329L324 653H223L276 78L541 516L527 653H443L448 700H703L698 653H601L655 78L989 653H894L899 700H1138L1133 653H1045L654 0H595Z" glyph-name="W" horiz-adv-x="1068" unicode="W" /><glyph d="M236 0 -28 0L-23 47H63L304 351L145 653H64L69 700H328L323 653H230L366 397L556 653H428L433 700H709L704 653H621L387 357L551 47H648L644 0H372L377 47H464L326 310L126 47H241Z" glyph-name="X" horiz-adv-x="667" unicode="X" /><glyph d="M160 47 275 47L307 295L135 653H60L65 700H323L319 653H219L363 346L568 653H470L475 700H720L715 653H631L380 296L348 47H464L459 0H155Z" glyph-name="Y" horiz-adv-x="669" unicode="Y" /><glyph d="M10 37 527 653H185L139 520H95L117 700H625L621 664L104 47H472L519 179H563L541 0H6Z" glyph-name="Z" horiz-adv-x="610" unicode="Z" /><glyph d="M163 792 394 792L388 745H217L110 -130H280L275 -176H44Z" glyph-name="bracketleft" horiz-adv-x="339" unicode="[" /><glyph d="M89 762 137 762L342 -130H295Z" glyph-name="backslash" horiz-adv-x="411" unicode="\" /><glyph d="M-38 -176 -32 -130H139L247 745H75L81 792H312L193 -176Z" glyph-name="bracketright" horiz-adv-x="339" unicode="]" /><glyph d="M265 700 316 700L420 257H366L282 637L105 257H52Z" glyph-name="asciicircum" horiz-adv-x="464" unicode="^" /><glyph d="M-38 -71 253 -71L247 -123H-44Z" glyph-name="underscore" horiz-adv-x="291" unicode="_" /><glyph d="M123 695 125 700L203 710L344 538L308 528Z" glyph-name="grave" horiz-adv-x="374" unicode="`" /><glyph d="M340 119Q321 97 299 74Q277 51 253 32.5Q229 14 203 2Q177 -10 149 -10Q89 -10 64 36Q39 82 39 160Q39 198 49 253Q59 308 84.5 359Q110 410 153 446Q196 482 263 482Q287 482 305 476.5Q323 471 337 463Q351 455 361.5 445.5Q372 436 379 428L384 469L453 483L398 40H463L459 5L321 -5ZM178 45Q206 45 235.5 64.5Q265 84 289 107Q318 134 345 169L373 391Q362 406 347 417Q334 428 315.5 435.5Q297 443 272 443Q224 443 192.5 416Q161 389 142 347.5Q123 306 115.5 257.5Q108 209 108 166Q108 125 114.5 101Q121 77 131.5 64.5Q142 52 154 48.5Q166 45 178 45Z" glyph-name="a" horiz-adv-x="514" unicode="a" /><glyph d="M466 312Q466 274 456 219Q446 164 420.5 113Q395 62 352 26Q309 -10 242 -10Q191 -10 163.5 7.5Q136 25 116 44L78 -9H46L132 692L55 702L60 742H210L155 351Q175 372 198.5 395Q222 418 247 437.5Q272 457 297 469.5Q322 482 346 482Q384 482 407.5 470Q431 458 444 435.5Q457 413 461.5 382Q466 351 466 312ZM395 306Q395 344 390.5 367.5Q386 391 377 403.5Q368 416 354.5 420.5Q341 425 323 425Q298 425 268 406Q238 387 212 365Q181 338 151 304L124 81Q124 80 131.5 71.5Q139 63 153 53.5Q167 44 187 36.5Q207 29 232 29Q280 29 311.5 56.5Q343 84 361.5 125Q380 166 387.5 214.5Q395 263 395 306Z" glyph-name="b" horiz-adv-x="505" unicode="b" /><glyph d="M215 -10Q170 -10 137 5.5Q104 21 82.5 48Q61 75 51 112Q41 149 41 192Q41 247 55.5 299Q70 351 100 391.5Q130 432 174.5 457Q219 482 279 482Q300 482 321 479.5Q342 477 360 473Q378 469 391 466Q404 463 409 461L401 351H364L344 434Q339 436 330 438Q321 439 309 440Q297 441 279 441Q226 441 194 414Q162 387 144.5 348Q127 309 121 265Q115 221 115 187Q115 112 146.5 71Q178 30 241 30Q262 30 281.5 33Q301 36 318 41L365 136H402L374 22Q332 3 289.5 -3.5Q247 -10 215 -10Z" glyph-name="c" horiz-adv-x="446" unicode="c" /><glyph d="M350 119Q331 97 307.5 74Q284 51 258 32.5Q232 14 204.5 2Q177 -10 149 -10Q89 -10 64 36Q39 82 39 160Q39 198 49 253Q59 308 84.5 359Q110 410 153 446Q196 482 263 482Q311 482 342.5 463.5Q374 445 389 428L419 692L341 702L346 742H497L448 362L408 40H473L469 5L331 -5ZM108 166Q108 125 114.5 101Q121 77 131.5 64.5Q142 52 154 48.5Q166 45 178 45Q206 45 237 64.5Q268 84 294 107Q325 134 355 169L383 391Q369 406 352 417Q337 428 317 435.5Q297 443 272 443Q224 443 192.5 416Q161 389 142 347.5Q123 306 115.5 257.5Q108 209 108 166Z" glyph-name="d" horiz-adv-x="524" unicode="d" /><glyph d="M200 -10Q156 -10 125.5 3.5Q95 17 76.5 41.5Q58 66 49.5 100Q41 134 41 176Q41 235 55.5 290.5Q70 346 99 388.5Q128 431 173 456.5Q218 482 278 482Q316 482 342.5 470.5Q369 459 385.5 439.5Q402 420 409.5 393.5Q417 367 417 337Q417 324 415.5 310Q414 296 411 284H124Q121 271 119 257Q117 243 115.5 226.5Q114 210 114 190Q114 115 143.5 78Q173 41 241 41Q260 41 287 49.5Q314 58 339 68Q369 80 400 95L387 54Q369 42 345 30.5Q321 19 295.5 10Q270 1 245 -4.5Q220 -10 200 -10ZM343 321Q344 329 344.5 336Q345 343 345 350Q345 398 326.5 423Q308 448 259 448Q204 448 175 413Q146 378 130 311Z" glyph-name="e" horiz-adv-x="455" unicode="e" /><glyph d="M-33 -210 44 -210L124 432H43L47 472H128L143 592Q153 669 197.5 705.5Q242 742 318 742Q336 742 350.5 741Q365 740 376 740Q389 738 399 737L403 628L370 621L342 702Q336 703 327.5 703Q319 703 314 703Q284 703 265 694Q246 685 235 670.5Q224 656 219 637.5Q214 619 211 599L195 472H305L296 432H191L111 -210H205L199 -250H-39Z" glyph-name="f" horiz-adv-x="290" unicode="f" /><glyph d="M448 -96Q448 -150 418.5 -185.5Q389 -221 344.5 -242Q300 -263 249 -271.5Q198 -280 154 -280Q74 -280 25.5 -250.5Q-23 -221 -23 -165Q-23 -114 14.5 -79.5Q52 -45 106 -30Q90 -26 72.5 -10Q55 6 55 40Q55 72 75.5 101Q96 130 119 150Q87 171 68.5 205.5Q50 240 50 289Q50 331 63 366.5Q76 402 100.5 427.5Q125 453 160 467.5Q195 482 240 482Q257 482 277 479.5Q297 477 311 472L475 480L480 478L472 423L352 438Q383 416 395.5 382.5Q408 349 408 315Q408 227 358 175Q308 123 218 123Q198 123 178 127Q158 131 145 137Q135 124 123.5 104.5Q112 85 112 61Q112 41 125.5 27.5Q139 14 182 12L333 5Q387 3 417.5 -27Q448 -57 448 -96ZM242 448Q185 448 158 416.5Q131 385 124 323Q120 287 119.5 274Q119 261 119 256Q120 204 146.5 182Q173 160 218 160Q242 160 261.5 165Q281 170 296 183.5Q311 197 320.5 221Q330 245 334 282Q337 311 338 325Q339 339 339 347Q339 392 317.5 420Q296 448 242 448ZM181 -243Q207 -243 241.5 -238.5Q276 -234 307 -221.5Q338 -209 359.5 -187.5Q381 -166 381 -131Q381 -93 357.5 -76.5Q334 -60 292 -58Q266 -57 240 -55.5Q214 -54 193 -52.5Q172 -51 157 -50Q142 -49 137 -49Q121 -49 104 -55.5Q87 -62 72.5 -74.5Q58 -87 48.5 -105Q39 -123 39 -146Q39 -161 43.5 -178.5Q48 -196 63 -210Q78 -224 106 -233.5Q134 -243 181 -243Z" glyph-name="g" horiz-adv-x="465" unicode="g" /><glyph d="M152 328Q179 358 206.5 385.5Q234 413 259.5 434.5Q285 456 307.5 469Q330 482 347 482Q405 482 428 457Q451 432 451 387Q451 380 450.5 373Q450 366 449 358L408 44L485 60L481 20L360 -10L339 7Q352 107 362 187Q368 235 371.5 263Q375 291 378 315.5Q381 340 383 357Q385 374 385 376Q385 399 370.5 413Q356 427 331 427Q304 427 258.5 388.5Q213 350 149 288L115 1L46 -10L133 692L55 702L60 742H207Z" glyph-name="h" horiz-adv-x="528" unicode="h" /><glyph d="M153 689 229 689L216 582H140ZM68 7 132 432H51L55 472L204 482L140 46L233 60L229 23L89 -10Z" glyph-name="i" horiz-adv-x="272" unicode="i" /><glyph d="M146 689 222 689L209 582H133ZM-29 -235 49 -172L124 432H44L48 472L197 482L126 -95Q124 -110 120.5 -127.5Q117 -145 108 -162.5Q99 -180 83.5 -197Q68 -214 42 -230L-6 -260Z" glyph-name="j" horiz-adv-x="244" unicode="j" /><glyph d="M132 692 54 702L59 742H206L148 274H222L376 432H290L294 472H496L492 432H431L265 265L398 40H476L472 0H345L210 235H143L113 0L46 -10Z" glyph-name="k" horiz-adv-x="497" unicode="k" /><glyph d="M50 7 145 692L57 702L62 742H219L122 46L226 70L222 30L71 -10Z" glyph-name="l" horiz-adv-x="251" unicode="l" /><glyph d="M652 -10 631 7Q644 107 654 187Q660 235 663.5 263Q667 291 670 315.5Q673 340 675 357Q677 374 677 376Q677 403 662.5 415Q648 427 623 427Q610 427 591 415.5Q572 404 550 385Q528 366 503 341Q478 316 452 289L420 44L497 60L493 20L372 -10L351 7Q364 107 374 187Q380 235 383.5 263Q387 291 390 315.5Q393 340 395 357Q397 374 397 376Q397 403 382.5 415Q368 427 343 427Q330 427 311 415.5Q292 404 270 385Q248 366 223 341Q198 316 171 288L137 1L68 -10L123 432H43L47 472L197 482L174 328Q199 361 224.5 389Q250 417 274 437.5Q298 458 320 470Q342 482 359 482Q417 482 439 457Q461 432 461 387Q461 380 460 369.5Q459 359 456 332Q481 363 506 390Q531 417 555 437.5Q579 458 600.5 470Q622 482 639 482Q697 482 720 457Q743 432 743 387Q743 380 742.5 373Q742 366 741 358L700 44L777 60L773 20Z" glyph-name="m" horiz-adv-x="820" unicode="m" /><glyph d="M123 432 43 432L47 472L197 482L174 328Q201 358 228.5 385.5Q256 413 281.5 434.5Q307 456 329.5 469Q352 482 369 482Q427 482 450 457Q473 432 473 387Q473 380 472.5 373Q472 366 471 358L430 44L507 60L503 20L382 -10L361 7Q374 107 384 187Q390 235 393.5 263Q397 291 400 315.5Q403 340 405 357Q407 374 407 376Q407 399 392.5 413Q378 427 353 427Q326 427 280.5 388.5Q235 350 171 288L137 1L68 -10Z" glyph-name="n" horiz-adv-x="550" unicode="n" /><glyph d="M221 -10Q176 -10 142.5 6Q109 22 86.5 50Q64 78 52.5 116Q41 154 41 198Q41 208 41 217.5Q41 227 43 238Q49 289 66 333.5Q83 378 111 411Q139 444 178.5 463Q218 482 267 482Q312 482 345.5 466Q379 450 401.5 421.5Q424 393 435.5 355Q447 317 447 273Q447 263 446.5 253Q446 243 445 233Q439 182 422 137.5Q405 93 376.5 60.5Q348 28 309 9Q270 -10 221 -10ZM223 26Q280 26 317.5 68.5Q355 111 367 211L373 260Q385 359 353.5 402.5Q322 446 265 446Q207 446 170 403.5Q133 361 121 261L115 211Q103 112 134 69Q165 26 223 26Z" glyph-name="o" horiz-adv-x="490" unicode="o" /><glyph d="M196 482 176 351Q196 372 219.5 395Q243 418 268 437.5Q293 457 318 469.5Q343 482 367 482Q405 482 428.5 470Q452 458 465 435.5Q478 413 482.5 382Q487 351 487 312Q487 274 477 219Q467 164 441.5 113Q416 62 373 26Q330 -10 263 -10Q214 -10 187 6Q160 22 140 41L111 -210H217L212 -250H-35L-30 -210H44L123 432H43L47 472ZM145 81Q145 80 152.5 71.5Q160 63 174 53.5Q188 44 208 36.5Q228 29 253 29Q301 29 332.5 56.5Q364 84 382.5 125Q401 166 408.5 214.5Q416 263 416 306Q416 344 411.5 367.5Q407 391 398 403.5Q389 416 375.5 420.5Q362 425 344 425Q319 425 289 406Q259 387 233 365Q202 338 172 304Z" glyph-name="p" horiz-adv-x="526" unicode="p" /><glyph d="M367 -210 436 -210L431 -250H192L197 -210H300L340 119Q320 96 296.5 73Q273 50 248 31.5Q223 13 198 1.5Q173 -10 149 -10Q91 -10 65 36Q39 82 39 160Q39 198 49 253Q59 308 84.5 359Q110 410 153 446Q196 482 263 482Q308 482 335 465.5Q362 449 379 428L420 482H452ZM110 166Q110 125 116.5 101Q123 77 133.5 64.5Q144 52 156 48.5Q168 45 180 45Q208 45 237 64.5Q266 84 290 107Q318 134 345 169L373 391Q362 406 348 417Q334 428 316 435.5Q298 443 273 443Q225 443 193.5 416Q162 389 143.5 347.5Q125 306 117.5 257.5Q110 209 110 166Z" glyph-name="q" horiz-adv-x="499" unicode="q" /><glyph d="M124 432 44 432L48 472L198 482L180 365L246 423Q281 454 304.5 468Q328 482 349 482Q358 482 365 480Q372 478 378 476Q384 473 389 470L381 407Q373 408 364 409Q355 409 345 409.5Q335 410 324 410Q311 410 294 403.5Q277 397 257.5 386.5Q238 376 217.5 362.5Q197 349 179 334L137 0L67 -10Z" glyph-name="r" horiz-adv-x="375" unicode="r" /><glyph d="M170 -10Q131 -10 90.5 -2Q50 6 24 15L39 139H77L84 42Q94 37 107 34Q118 30 133 27.5Q148 25 166 25Q226 25 261 46.5Q296 68 296 114Q296 140 279 157.5Q262 175 236 188.5Q210 202 180.5 214Q151 226 125 242Q99 258 82 280.5Q65 303 65 336Q65 365 76.5 391.5Q88 418 112 438Q136 458 171.5 470Q207 482 255 482Q277 482 298 480Q319 478 336 475Q357 472 375 468L363 347H325L315 439Q306 441 295 443Q285 445 273 446Q261 447 246 447Q225 447 203.5 443.5Q182 440 165 431Q148 422 137 405.5Q126 389 126 363Q126 338 143.5 320.5Q161 303 186.5 289Q212 275 242.5 262Q273 249 298.5 232.5Q324 216 341.5 193.5Q359 171 359 138Q359 100 343.5 72Q328 44 301.5 26Q275 8 241 -1Q207 -10 170 -10Z" glyph-name="s" horiz-adv-x="413" unicode="s" /><glyph d="M162 -10Q137 -10 120.5 -3.5Q104 3 95 14.5Q86 26 82.5 41Q79 56 79 72Q79 74 79 77Q79 80 79.5 86.5Q80 93 81.5 104.5Q83 116 85 135L122 432H55L59 468L129 481L146 621H212L193 472H336L327 432H189L150 123Q148 103 147.5 96.5Q147 90 147 85Q147 39 194 39Q225 39 255 47Q285 55 303 64L299 32Q279 20 257 11Q236 2 212 -4Q188 -10 162 -10Z" glyph-name="t" horiz-adv-x="331" unicode="t" /><glyph d="M120 432 40 432L44 472L194 482Q180 380 169 297Q162 248 158.5 218Q155 188 151.5 162.5Q148 137 146 118.5Q144 100 144 96Q144 73 153.5 58Q163 43 195 43Q230 43 273.5 82.5Q317 122 368 184L402 471L471 482L417 44L494 60L490 20L369 -10L348 7L365 144Q316 75 269.5 32.5Q223 -10 170 -10Q122 -10 99 15Q76 40 76 85Q76 92 76.5 99Q77 106 78 114Z" glyph-name="u" horiz-adv-x="539" unicode="u" /><glyph d="M233 0 159 0L109 432H44L48 472H252L248 432H177L219 39L431 432H356L360 472H545L541 432H475Z" glyph-name="v" horiz-adv-x="527" unicode="v" /><glyph d="M422 342 233 0H159L105 432H40L44 472H248L244 432H173L219 39L416 396L408 472H553L549 432H478L520 39L732 432H657L661 472H846L842 432H776L534 0H460Z" glyph-name="w" horiz-adv-x="828" unicode="w" /><glyph d="M335 -10 237 202L84 0H-8L-4 40H59L219 236L126 432H47L50 472H182L265 278L384 432H318L322 472H486L482 432H437L282 247L384 40L468 50L464 10Z" glyph-name="x" horiz-adv-x="501" unicode="x" /><glyph d="M-15 -240 -10 -200L103 -190L204 -4L113 432H32L36 472H173L250 78L416 432H350L354 472H526L522 432H467L127 -250Z" glyph-name="y" horiz-adv-x="517" unicode="y" /><glyph d="M121 105Q179 89 227 76Q256 68 273.5 63.5Q291 59 306.5 55.5Q322 52 334 49.5Q346 47 350 47Q361 47 373 57Q385 67 396 80Q408 94 420 112L440 88Q399 27 372 6.5Q345 -14 327 -14Q307 -14 288.5 -9Q270 -4 253 2L90 57L45 0L8 28L345 414H127V310H92Q84 349 79.5 371.5Q75 394 73 406Q71 418 70.5 422Q70 426 70 428Q70 457 87.5 469.5Q105 482 131 482Q151 482 179.5 478.5Q208 475 238.5 471.5Q269 468 299 464.5Q329 461 352 461Q369 461 382.5 472Q396 483 407 494L438 466Z" glyph-name="z" horiz-adv-x="457" unicode="z" /><glyph d="M205 381Q204 374 201 363.5Q198 353 189 342.5Q180 332 163 322.5Q146 313 118 307Q145 301 159 291Q173 281 179.5 270.5Q186 260 187 249.5Q188 239 187 232L158 -47Q155 -76 158 -92.5Q161 -109 169 -117.5Q177 -126 188.5 -128Q200 -130 212 -130H261L256 -176H170Q127 -176 103 -152.5Q79 -129 86 -78L123 232Q126 255 117.5 271Q109 287 83 287H30L35 327H88Q114 327 126.5 343Q139 359 142 382L180 693Q186 744 215.5 768Q245 792 289 792H374L369 745H320Q307 745 295 743Q283 741 273.5 732.5Q264 724 256.5 708Q249 692 245 663Z" glyph-name="braceleft" horiz-adv-x="330" unicode="{" /><glyph d="M116 834 175 834V-157H116Z" glyph-name="bar" horiz-adv-x="265" unicode="|" /><glyph d="M190 663Q193 692 189.5 708Q186 724 178 732.5Q170 741 159 743Q148 745 135 745H85L91 792H176Q221 792 245 768Q269 744 262 693L224 382Q221 359 229.5 343Q238 327 264 327H316L311 287H260Q233 287 221 271Q209 255 206 232L168 -78Q161 -129 131.5 -152.5Q102 -176 58 -176H-28L-22 -130H28Q40 -130 52 -128Q64 -126 74 -117.5Q84 -109 91.5 -92.5Q99 -76 103 -47L142 232Q143 239 146 249.5Q149 260 158 270.5Q167 281 184 291Q201 301 230 307Q203 313 188 322.5Q173 332 167 342.5Q161 353 160.5 363.5Q160 374 161 381Z" glyph-name="braceright" horiz-adv-x="329" unicode="}" /><glyph d="M64 313Q70 362 94 392.5Q118 423 157 423Q174 423 202 415.5Q230 408 259 398.5Q288 389 314 381.5Q340 374 354 374Q374 374 384.5 389.5Q395 405 398 427H435Q429 378 405 347.5Q381 317 342 317Q325 317 296.5 324.5Q268 332 238 341.5Q208 351 182 358.5Q156 366 145 366Q126 366 115 350.5Q104 335 102 313Z" glyph-name="asciitilde" horiz-adv-x="464" unicode="~" /><glyph d="M183 347 88 347L103 472H198ZM145 268 138 137L106 -238H21L80 137L106 268Z" glyph-name="exclamdown" horiz-adv-x="243" unicode="¡" /><glyph d="M375 22Q337 5 299 -1.5Q261 -8 230 -10L187 -158H143L187 -8Q149 -3 121.5 14Q94 31 76.5 57.5Q59 84 50.5 118.5Q42 153 42 192Q42 247 56.5 299Q71 351 101 391.5Q131 432 175.5 457Q220 482 280 482Q307 482 328 478L359 586H403L370 471Q384 468 394.5 465.5Q405 463 410 461L402 351H365L351 408L242 30V30Q263 30 282.5 33Q302 36 319 41L366 136H403ZM116 187Q116 126 136.5 87.5Q157 49 199 36L316 439Q309 440 300 440.5Q291 441 280 441Q227 441 195 414Q163 387 145.5 348Q128 309 122 265Q116 221 116 187Z" glyph-name="cent" horiz-adv-x="462" unicode="¢" /><glyph d="M450 0 5 0L11 59H115L142 270H77L82 308H146L168 479Q197 700 389 700Q421 700 463 691Q505 682 534 674L517 556H482L471 643Q464 645 440 652.5Q416 660 386 660Q355 660 332 648Q309 636 292.5 613.5Q276 591 265 558.5Q254 526 246 486L208 308H401L396 270H200L155 60H472Z" glyph-name="sterling" horiz-adv-x="535" unicode="£" /><glyph d="M79 30 199 150Q170 185 154.5 228.5Q139 272 139 321Q139 371 155.5 415Q172 459 201 494L79 617L115 652L237 529Q272 558 315.5 574.5Q359 591 408 591Q457 591 500.5 575Q544 559 579 530L701 652L736 616L614 494Q644 459 661 415Q678 371 678 321Q678 272 661.5 228.5Q645 185 616 150L736 31L701 -5L581 114Q546 85 502 68.5Q458 52 408 52Q358 52 314 68.5Q270 85 235 115L115 -5ZM408 103Q452 103 490.5 120Q529 137 557.5 166.5Q586 196 602.5 236Q619 276 619 321Q619 366 602.5 406Q586 446 557.5 476Q529 506 490.5 523Q452 540 408 540Q364 540 326 523Q288 506 259.5 476Q231 446 214.5 406Q198 366 198 321Q198 276 214.5 236Q231 196 259.5 166.5Q288 137 326 120Q364 103 408 103Z" glyph-name="currency" horiz-adv-x="794" unicode="¤" /><glyph d="M476 0 172 0L177 47H292L307 166H147L152 205H312L324 295L312 320H166L170 359H293L152 653H77L82 700H340L336 653H236L380 346L585 653H487L492 700H737L732 653H648L441 359H573L568 320H414L397 296L385 205H554L549 166H380L365 47H481Z" glyph-name="yen" horiz-adv-x="710" unicode="¥" /><glyph d="M117 834 176 834V393H117ZM117 306 176 306V-157H117Z" glyph-name="brokenbar" horiz-adv-x="267" unicode="¦" /><glyph d="M469 -5Q465 -35 449 -67Q433 -99 403.5 -125.5Q374 -152 332 -169Q290 -186 235 -186Q203 -186 173.5 -181.5Q144 -177 121 -172Q94 -165 71 -157L96 4H141L150 -121Q159 -128 173 -133Q185 -138 203 -141.5Q221 -145 246 -145Q273 -145 299.5 -136Q326 -127 348 -110.5Q370 -94 384.5 -71Q399 -48 402 -21Q405 7 400 28Q395 49 380.5 67.5Q366 86 341.5 102.5Q317 119 282 138L154 207Q94 239 67 281.5Q40 324 48 381Q52 413 66 440Q80 467 100 489Q120 511 143.5 527.5Q167 544 188 555Q180 588 184 624Q188 654 204 686Q220 718 249 744.5Q278 771 320.5 788Q363 805 418 805Q450 805 479.5 800.5Q509 796 532 791Q558 784 581 776L556 615H513L502 740Q502 740 496.5 743.5Q491 747 479.5 751.5Q468 756 450 759.5Q432 763 407 763Q379 763 352.5 754Q326 745 304.5 729Q283 713 268.5 690Q254 667 251 640Q248 612 253 591Q258 570 272.5 551.5Q287 533 311.5 516.5Q336 500 371 481L499 412Q559 380 586 337Q613 294 605 237Q601 206 587 179Q573 152 552.5 130Q532 108 509 91.5Q486 75 464 64Q473 33 469 -5ZM319 200Q364 177 398 152.5Q432 128 451 96Q483 113 510 145.5Q537 178 542 220Q551 304 453 356L334 419Q288 442 254.5 466.5Q221 491 202 523Q170 506 143.5 473Q117 440 112 398Q102 315 200 263Z" glyph-name="section" horiz-adv-x="635" unicode="§" /><glyph d="M110 659 184 659L171 552H97ZM265 659 339 659L326 552H251Z" glyph-name="dieresis" horiz-adv-x="347" unicode="¨" /><glyph d="M443 -27Q355 -27 285 2Q215 31 165.5 82Q116 133 89.5 201.5Q63 270 63 349Q63 428 89.5 497Q116 566 165.5 617.5Q215 669 285 698.5Q355 728 443 728Q530 728 600.5 698.5Q671 669 720.5 618Q770 567 796.5 498Q823 429 823 350Q823 271 796.5 202.5Q770 134 720.5 83Q671 32 600.5 2.5Q530 -27 443 -27ZM443 14Q519 14 580 40Q641 66 683.5 111Q726 156 749 217.5Q772 279 772 350Q772 421 749 482.5Q726 544 683.5 589.5Q641 635 580 661Q519 687 443 687Q367 687 306 661Q245 635 202 589Q159 543 135.5 481.5Q112 420 112 349Q112 278 135.5 217Q159 156 202 111Q245 66 306 40Q367 14 443 14ZM446 130Q397 130 359 147.5Q321 165 295.5 195Q270 225 257 266Q244 307 244 353Q244 400 258 441Q272 482 298.5 513Q325 544 362 561.5Q399 579 445 579Q464 579 486 576Q508 573 528 569Q548 565 563.5 561Q579 557 583 556L579 455H546L528 527Q518 530 505 532Q494 534 480 535.5Q466 537 450 537Q384 537 351.5 494Q319 451 319 374V333Q319 256 356 213Q393 170 465 170Q484 170 500.5 175Q517 180 532 184L564 267H597L585 163Q549 146 511.5 138Q474 130 446 130Z" glyph-name="copyright" horiz-adv-x="858" unicode="©" /><glyph d="M378 356Q359 334 337 311Q315 288 291 269.5Q267 251 241 239Q215 227 187 227Q127 227 102 273Q77 319 77 397Q77 435 87 490Q97 545 122.5 596Q148 647 191 683Q234 719 301 719Q325 719 343 713.5Q361 708 375 700Q389 692 399.5 682.5Q410 673 417 665L422 706L491 720L436 277H501L497 242L359 232ZM216 282Q244 282 273.5 301.5Q303 321 327 344Q356 371 383 406L411 628Q400 643 385 654Q372 665 353.5 672.5Q335 680 310 680Q262 680 230.5 653Q199 626 180 584.5Q161 543 153.5 494.5Q146 446 146 403Q146 362 152.5 338Q159 314 169.5 301.5Q180 289 192 285.5Q204 282 216 282Z" glyph-name="ordfeminine" horiz-adv-x="538" unicode="ª" /><glyph d="M40 234 40 238L217 472H272L115 236L214 0H159ZM206 234 207 238L384 472H438L282 236L380 0H326Z" glyph-name="guillemotleft" horiz-adv-x="453" unicode="«" /><glyph d="M360 386 62 386L69 439H421L395 226H341Z" glyph-name="logicalnot" horiz-adv-x="464" unicode="¬" /><glyph d="M443 -27Q355 -27 285 2Q215 31 165.5 82Q116 133 89.5 201.5Q63 270 63 349Q63 428 89.5 497Q116 566 165.5 617.5Q215 669 285 698.5Q355 728 443 728Q530 728 600.5 698.5Q671 669 720.5 618Q770 567 796.5 498Q823 429 823 350Q823 271 796.5 202.5Q770 134 720.5 83Q671 32 600.5 2.5Q530 -27 443 -27ZM443 14Q519 14 580 40Q641 66 683.5 111Q726 156 749 217.5Q772 279 772 350Q772 421 749 482.5Q726 544 683.5 589.5Q641 635 580 661Q519 687 443 687Q367 687 306 661Q245 635 202 589Q159 543 135.5 481.5Q112 420 112 349Q112 278 135.5 217Q159 156 202 111Q245 66 306 40Q367 14 443 14ZM676 141 578 141L456 321L384 325V180H444V141H260V180H317V534H260V573H470Q503 573 528 563.5Q553 554 570.5 538Q588 522 597 501Q606 480 606 457Q606 408 578 378.5Q550 349 516 338L630 180H676ZM458 361Q465 361 478.5 363Q492 365 505.5 373.5Q519 382 529.5 399.5Q540 417 540 448Q540 494 511 514Q482 534 432 534H384V361Z" glyph-name="registered" horiz-adv-x="858" unicode="®" /><glyph d="M104 610 367 610L361 558H97Z" glyph-name="macron" horiz-adv-x="381" unicode="¯" /><glyph d="M204 355Q180 355 155.5 366Q131 377 112 399Q93 421 83.5 452.5Q74 484 79 526Q84 569 102 601.5Q120 634 144 656Q168 678 195 689Q222 700 247 700Q273 700 297.5 689Q322 678 341 656Q360 634 370 601.5Q380 569 375 526Q370 484 352.5 452.5Q335 421 310.5 399Q286 377 258 366Q230 355 204 355ZM209 391Q253 391 277 427Q301 463 309 526Q317 592 301.5 627.5Q286 663 242 663Q200 663 176.5 627.5Q153 592 145 526Q137 463 151.5 427Q166 391 209 391Z" glyph-name="degree" horiz-adv-x="383" unicode="°" /><glyph d="M269 306 250 154H194L213 306H65L71 359H219L238 513H294L275 359H423L416 306ZM34 53 385 53L379 0H27Z" glyph-name="plusminus" horiz-adv-x="464" unicode="±" /><glyph d="M290 433 54 433L58 463L173 583Q213 625 232 656Q251 687 255 721Q260 759 242 777Q224 795 195 795Q182 795 169.5 792.5Q157 790 149 787L124 716H97L106 803Q123 809 142 814Q159 818 180 821Q201 824 224 824Q253 824 273 816.5Q293 809 305 796Q317 783 321 766.5Q325 750 323 733Q318 691 288 657Q258 623 210 579L111 488H264L294 538H317Z" glyph-name="twosuperior" horiz-adv-x="308" unicode="²" /><glyph d="M147 427Q118 427 93.5 433Q69 439 61 441L67 526H93L108 456Q110 456 119 454Q128 452 140 452Q188 452 216 475.5Q244 499 249 541Q252 562 246 576.5Q240 591 229 601Q218 611 203 615.5Q188 620 172 620H159L150 646Q200 651 228.5 679.5Q257 708 261 738Q264 764 246.5 779Q229 794 197 794Q185 794 175 792Q165 790 155 788L133 729H106L114 807Q131 811 149 815Q166 818 185.5 820.5Q205 823 226 823Q244 823 262.5 819Q281 815 295.5 805.5Q310 796 318.5 781Q327 766 324 743Q320 707 287 683Q254 659 214 643Q259 641 288.5 616.5Q318 592 313 548Q310 526 298 504.5Q286 483 265 466Q244 449 214.5 438Q185 427 147 427Z" glyph-name="threesuperior" horiz-adv-x="307" unicode="³" /><glyph d="M155 538 301 710L376 700L377 695L189 528Z" glyph-name="acute" horiz-adv-x="374" unicode="´" /><glyph d="M176 -10Q136 -10 112 9L81 -250H31L85 125L126 432H46L50 472L200 482Q186 380 175 297Q168 248 164.5 218Q161 188 157.5 162.5Q154 137 152 118.5Q150 100 150 96Q150 73 159.5 58Q169 43 201 43Q236 43 279.5 82.5Q323 122 374 184L408 471L477 482L423 44L500 60L496 20L375 -10L354 7L371 144Q322 75 275.5 32.5Q229 -10 176 -10Z" glyph-name="mu" horiz-adv-x="545" unicode="µ" /><glyph d="M413 0Q334 0 269.5 21.5Q205 43 158.5 84Q112 125 86.5 184Q61 243 61 318Q61 407 91.5 478Q122 549 177.5 598.5Q233 648 309.5 674Q386 700 477 700H828L822 653H708L633 47H748L742 0ZM562 47 636 653H513L437 47Z" glyph-name="paragraph" horiz-adv-x="806" unicode="¶" /><glyph d="M88 427 183 427L167 302H72Z" glyph-name="periodcentered" horiz-adv-x="225" unicode="·" /><glyph d="M85 -261Q45 -261 21 -251Q-3 -241 -8 -237L1 -207Q9 -212 30 -218.5Q51 -225 69 -225Q107 -225 128 -210Q149 -195 149 -167Q149 -148 138.5 -135.5Q128 -123 112.5 -115.5Q97 -108 77.5 -105.5Q58 -103 40 -103L120 6L150 3L109 -72Q135 -74 154 -82.5Q173 -91 186 -103.5Q199 -116 205 -131Q211 -146 211 -161Q211 -184 201 -202.5Q191 -221 174 -234Q157 -247 134 -254Q111 -261 85 -261Z" glyph-name="cedilla" horiz-adv-x="315" unicode="¸" /><glyph d="M64 463 134 467L171 771L89 748L92 775L210 818H239L196 467L263 463L260 433H60Z" glyph-name="onesuperior" horiz-adv-x="246" unicode="¹" /><glyph d="M258 228Q213 228 179.5 244Q146 260 123.5 288Q101 316 89.5 354Q78 392 78 436Q78 446 78 455.5Q78 465 80 476Q86 527 103 571.5Q120 616 148 649Q176 682 215.5 701Q255 720 304 720Q349 720 382.5 704Q416 688 438.5 659.5Q461 631 472.5 593Q484 555 484 511Q484 501 483.5 491Q483 481 482 471Q476 420 459 375.5Q442 331 413.5 298.5Q385 266 346 247Q307 228 258 228ZM260 264Q317 264 354.5 306.5Q392 349 404 449L410 498Q422 597 390.5 640.5Q359 684 302 684Q244 684 207 641.5Q170 599 158 499L152 449Q140 350 171 307Q202 264 260 264Z" glyph-name="ordmasculine" horiz-adv-x="505" unicode="º" /><glyph d="M171 236 73 472H128L247 238V234L70 0H15ZM338 236 240 472H294L414 238L413 234L236 0H182Z" glyph-name="guillemotright" horiz-adv-x="453" unicode="»" /><glyph d="M55 -3 744 728L774 704L86 -28ZM61 345 131 349L168 653L86 630L89 657L207 700H236L193 349L260 345L257 315H57ZM564 26 606 26L618 120H461L466 161L651 385H711L684 160H748L743 120H679L667 26H706L703 0H561ZM623 160 645 343L494 160Z" glyph-name="onequarter" horiz-adv-x="789" unicode="¼" /><glyph d="M54 -3 743 728L773 704L85 -28ZM60 345 130 349L167 653L85 630L88 657L206 700H235L192 349L259 345L256 315H56ZM746 0 510 0L514 30L629 150Q669 192 688 223Q707 254 711 288Q716 326 698 344Q680 362 651 362Q638 362 625.5 359.5Q613 357 605 354L580 283H553L562 370Q579 376 598 381Q615 385 636 388Q657 391 680 391Q709 391 729 383.5Q749 376 761 363Q773 350 777 333.5Q781 317 779 300Q774 258 744 224Q714 190 666 146L567 55H720L750 105H773Z" glyph-name="onehalf" horiz-adv-x="822" unicode="½" /><glyph d="M80 -3 769 728L799 704L111 -28ZM141 309Q112 309 87.5 315Q63 321 55 323L61 408H87L102 338Q104 338 113 336Q122 334 134 334Q182 334 210 357.5Q238 381 243 423Q246 444 240 458.5Q234 473 223 483Q212 493 197 497.5Q182 502 166 502H153L144 528Q194 533 222.5 561.5Q251 590 255 620Q258 646 240.5 661Q223 676 191 676Q179 676 169 674Q159 672 149 670L127 611H100L108 689Q125 693 143 697Q160 700 179.5 702.5Q199 705 220 705Q238 705 256.5 701Q275 697 289.5 687.5Q304 678 312.5 663Q321 648 318 625Q314 589 281 565Q248 541 208 525Q253 523 282.5 498.5Q312 474 307 430Q304 408 292 386.5Q280 365 259 348Q238 331 208.5 320Q179 309 141 309ZM589 26 631 26L643 120H486L491 161L676 385H736L709 160H773L768 120H704L692 26H731L728 0H586ZM648 160 670 343L519 160Z" glyph-name="threequarters" horiz-adv-x="814" unicode="¾" /><glyph d="M283 347 188 347L203 472H298ZM247 248Q241 196 216 156.5Q191 117 163 80Q135 43 110.5 5Q86 -33 80 -81Q72 -142 99.5 -168.5Q127 -195 178 -195Q195 -195 211.5 -192Q228 -189 241 -186Q256 -181 270 -176L290 -72H330L324 -201Q299 -211 270 -220Q244 -227 213 -232.5Q182 -238 147 -238Q105 -238 75.5 -225.5Q46 -213 28 -193.5Q10 -174 2.5 -149Q-5 -124 -2 -98Q6 -38 35.5 5Q65 48 100 85.5Q135 123 166.5 161Q198 199 208 248Z" glyph-name="questiondown" horiz-adv-x="407" unicode="¿" /><glyph d="M342 923 344 928L422 938L563 766L527 756ZM207 0 -39 0L-32 47H46L429 710H481L576 47H663L656 0H411L418 47H501L471 275H232L105 47H214ZM465 322 425 620L259 322Z" glyph-name="Agrave" horiz-adv-x="695" unicode="À" /><glyph d="M374 766 520 938L595 928L596 923L408 756ZM207 0 -39 0L-32 47H46L429 710H481L576 47H663L656 0H411L418 47H501L471 275H232L105 47H214ZM465 322 425 620L259 322Z" glyph-name="Aacute" horiz-adv-x="695" unicode="Á" /><glyph d="M289 766 439 938H485L595 766L549 756L454 866L332 756ZM207 0 -39 0L-32 47H46L429 710H481L576 47H663L656 0H411L418 47H501L471 275H232L105 47H214ZM465 322 425 620L259 322Z" glyph-name="Acircumflex" horiz-adv-x="695" unicode="Â" /><glyph d="M375 833Q358 833 344.5 820Q331 807 322 785H291Q304 834 330 861Q356 888 384 888Q401 888 420 881.5Q439 875 457 867.5Q475 860 490.5 853.5Q506 847 516 847Q534 847 547 860Q560 873 569 895H600Q587 846 561 819Q535 792 507 792Q489 792 470.5 798.5Q452 805 434.5 812.5Q417 820 402 826.5Q387 833 375 833ZM207 0 -39 0L-32 47H46L429 710H481L576 47H663L656 0H411L418 47H501L471 275H232L105 47H214ZM465 322 425 620L259 322Z" glyph-name="Atilde" horiz-adv-x="695" unicode="Ã" /><glyph d="M343 887 417 887L404 780H330ZM498 887 572 887L559 780H484ZM207 0 -39 0L-32 47H46L429 710H481L576 47H663L656 0H411L418 47H501L471 275H232L105 47H214ZM465 322 425 620L259 322Z" glyph-name="Adieresis" horiz-adv-x="695" unicode="Ä" /><glyph d="M442 760Q418 760 397.5 768.5Q377 777 361.5 792Q346 807 337 827.5Q328 848 328 872Q328 896 337 916.5Q346 937 361.5 952Q377 967 397.5 975.5Q418 984 441 984Q465 984 485.5 975.5Q506 967 521.5 952Q537 937 546 916.5Q555 896 555 872Q555 848 546 827.5Q537 807 522 792Q507 777 486.5 768.5Q466 760 442 760ZM441 797Q474 797 492 819Q510 841 510 872Q510 903 492.5 925Q475 947 442 947Q409 947 390.5 925Q372 903 372 872Q372 841 390 819Q408 797 441 797ZM207 0 -39 0L-32 47H46L429 710H481L576 47H663L656 0H411L418 47H501L471 275H232L105 47H214ZM465 322 425 620L259 322Z" glyph-name="Aring" horiz-adv-x="695" unicode="Å" /><glyph d="M-22 47 54 47L526 653H411L416 700H1005L983 520H939L926 653H659L624 373H778L800 468H847L817 227H770L774 326H619L584 47H891L947 178H992L960 0H406L416 47H511L539 274H292L118 47H237L225 0H-40ZM544 321 586 653H577L322 321Z" glyph-name="AE" horiz-adv-x="1029" unicode="Æ" /><glyph d="M426 -161Q426 -184 416 -202.5Q406 -221 389 -234Q372 -247 349 -254Q326 -261 300 -261Q260 -261 236 -251Q212 -241 207 -237L216 -207Q224 -212 245 -218.5Q266 -225 284 -225Q322 -225 343 -210Q364 -195 364 -167Q364 -148 353.5 -135.5Q343 -123 327.5 -115.5Q312 -108 292.5 -105.5Q273 -103 255 -103L326 -7Q266 1 217 27Q168 53 133.5 93.5Q99 134 80 187.5Q61 241 61 304Q61 406 93.5 482Q126 558 182 609Q238 660 312.5 685Q387 710 472 710Q516 710 566 704Q616 698 664 687L638 509H591L592 649Q558 656 528.5 660Q499 664 464 664Q384 664 323 634.5Q262 605 221.5 555.5Q181 506 160.5 441.5Q140 377 140 307Q140 246 157.5 195.5Q175 145 208 110Q241 75 289.5 55.5Q338 36 400 36Q435 36 460.5 39.5Q486 43 502 47Q518 51 525.5 54.5Q533 58 533 58L585 184H633L594 29Q571 18 539 10Q510 2 470 -4Q430 -10 375 -10H358L324 -72Q350 -74 369 -82.5Q388 -91 401 -103.5Q414 -116 420 -131Q426 -146 426 -161Z" glyph-name="Ccedilla" horiz-adv-x="672" unicode="Ç" /><glyph d="M314 923 316 928L394 938L535 766L499 756ZM19 47 114 47L189 653H94L99 700H608L586 520H542L529 653H262L227 373H381L403 468H450L420 227H373L376 326H222L187 47H494L550 178H595L563 0H14Z" glyph-name="Egrave" horiz-adv-x="632" unicode="È" /><glyph d="M346 766 492 938L567 928L568 923L380 756ZM19 47 114 47L189 653H94L99 700H608L586 520H542L529 653H262L227 373H381L403 468H450L420 227H373L376 326H222L187 47H494L550 178H595L563 0H14Z" glyph-name="Eacute" horiz-adv-x="632" unicode="É" /><glyph d="M261 766 411 938H457L567 766L521 756L426 866L304 756ZM19 47 114 47L189 653H94L99 700H608L586 520H542L529 653H262L227 373H381L403 468H450L420 227H373L376 326H222L187 47H494L550 178H595L563 0H14Z" glyph-name="Ecircumflex" horiz-adv-x="632" unicode="Ê" /><glyph d="M315 887 389 887L376 780H302ZM470 887 544 887L531 780H456ZM19 47 114 47L189 653H94L99 700H608L586 520H542L529 653H262L227 373H381L403 468H450L420 227H373L376 326H222L187 47H494L550 178H595L563 0H14Z" glyph-name="Edieresis" horiz-adv-x="632" unicode="Ë" /><glyph d="M180 923 182 928L260 938L401 766L365 756ZM11 47 127 47L202 653H86L91 700H397L392 653H275L200 47H317L312 0H6Z" glyph-name="Igrave" horiz-adv-x="375" unicode="Ì" /><glyph d="M212 766 358 938L433 928L434 923L246 756ZM11 47 127 47L202 653H86L91 700H397L392 653H275L200 47H317L312 0H6Z" glyph-name="Iacute" horiz-adv-x="375" unicode="Í" /><glyph d="M127 766 277 938H323L433 766L387 756L292 866L170 756ZM11 47 127 47L202 653H86L91 700H397L392 653H275L200 47H317L312 0H6Z" glyph-name="Icircumflex" horiz-adv-x="375" unicode="Î" /><glyph d="M181 887 255 887L242 780H168ZM336 887 410 887L397 780H322ZM11 47 127 47L202 653H86L91 700H397L392 653H275L200 47H317L312 0H6Z" glyph-name="Idieresis" horiz-adv-x="375" unicode="Ï" /><glyph d="M717 342Q706 254 671 189.5Q636 125 583.5 83Q531 41 465 20.5Q399 0 325 0H15L21 47H114L148 326H58L63 373H154L188 653H95L101 700H411Q485 700 546 680Q607 660 649 618Q691 576 710.5 511.5Q730 447 719 358ZM317 47Q376 47 430 60.5Q484 74 527.5 108Q571 142 601 199.5Q631 257 642 344L644 360Q655 447 639 504Q623 561 588 594Q553 627 502 640Q451 653 392 653H261L227 373H450L445 326H221L187 47Z" glyph-name="Eth" horiz-adv-x="754" unicode="Ð" /><glyph d="M411 833Q394 833 380.5 820Q367 807 358 785H327Q340 834 366 861Q392 888 420 888Q437 888 456 881.5Q475 875 493 867.5Q511 860 526.5 853.5Q542 847 552 847Q570 847 583 860Q596 873 605 895H636Q623 846 597 819Q571 792 543 792Q525 792 506.5 798.5Q488 805 470.5 812.5Q453 820 438 826.5Q423 833 411 833ZM19 47 114 47L189 653H94L99 700H261L582 114L648 653H543L548 700H800L795 653H699L619 0H569L233 609L163 47H270L265 0H14Z" glyph-name="Ntilde" horiz-adv-x="775" unicode="Ñ" /><glyph d="M343 923 345 928L423 938L564 766L528 756ZM325 -10Q262 -10 213 12Q164 34 130.5 74Q97 114 79 169Q61 224 61 290Q61 350 72 407Q85 474 113 530Q141 586 183 626Q225 666 279.5 688Q334 710 400 710Q463 710 512 688Q561 666 594.5 626Q628 586 646 531Q664 476 664 410Q664 351 653 293Q640 226 612 170Q584 114 542 74Q500 34 445.5 12Q391 -10 325 -10ZM325 35Q386 35 430.5 58Q475 81 505.5 119.5Q536 158 554 208Q572 258 581 312Q586 341 587.5 368Q589 395 589 424Q589 480 578.5 524.5Q568 569 545.5 600.5Q523 632 487 648.5Q451 665 400 665Q339 665 294.5 642Q250 619 219.5 580.5Q189 542 171 492Q153 442 144 388Q139 359 137.5 332Q136 305 136 276Q136 164 180 99.5Q224 35 325 35Z" glyph-name="Ograve" horiz-adv-x="697" unicode="Ò" /><glyph d="M375 766 521 938L596 928L597 923L409 756ZM325 -10Q262 -10 213 12Q164 34 130.5 74Q97 114 79 169Q61 224 61 290Q61 350 72 407Q85 474 113 530Q141 586 183 626Q225 666 279.5 688Q334 710 400 710Q463 710 512 688Q561 666 594.5 626Q628 586 646 531Q664 476 664 410Q664 351 653 293Q640 226 612 170Q584 114 542 74Q500 34 445.5 12Q391 -10 325 -10ZM325 35Q386 35 430.5 58Q475 81 505.5 119.5Q536 158 554 208Q572 258 581 312Q586 341 587.5 368Q589 395 589 424Q589 480 578.5 524.5Q568 569 545.5 600.5Q523 632 487 648.5Q451 665 400 665Q339 665 294.5 642Q250 619 219.5 580.5Q189 542 171 492Q153 442 144 388Q139 359 137.5 332Q136 305 136 276Q136 164 180 99.5Q224 35 325 35Z" glyph-name="Oacute" horiz-adv-x="697" unicode="Ó" /><glyph d="M290 766 440 938H486L596 766L550 756L455 866L333 756ZM325 -10Q262 -10 213 12Q164 34 130.5 74Q97 114 79 169Q61 224 61 290Q61 350 72 407Q85 474 113 530Q141 586 183 626Q225 666 279.5 688Q334 710 400 710Q463 710 512 688Q561 666 594.5 626Q628 586 646 531Q664 476 664 410Q664 351 653 293Q640 226 612 170Q584 114 542 74Q500 34 445.5 12Q391 -10 325 -10ZM325 35Q386 35 430.5 58Q475 81 505.5 119.5Q536 158 554 208Q572 258 581 312Q586 341 587.5 368Q589 395 589 424Q589 480 578.5 524.5Q568 569 545.5 600.5Q523 632 487 648.5Q451 665 400 665Q339 665 294.5 642Q250 619 219.5 580.5Q189 542 171 492Q153 442 144 388Q139 359 137.5 332Q136 305 136 276Q136 164 180 99.5Q224 35 325 35Z" glyph-name="Ocircumflex" horiz-adv-x="697" unicode="Ô" /><glyph d="M376 833Q359 833 345.5 820Q332 807 323 785H292Q305 834 331 861Q357 888 385 888Q402 888 421 881.5Q440 875 458 867.5Q476 860 491.5 853.5Q507 847 517 847Q535 847 548 860Q561 873 570 895H601Q588 846 562 819Q536 792 508 792Q490 792 471.5 798.5Q453 805 435.5 812.5Q418 820 403 826.5Q388 833 376 833ZM325 -10Q262 -10 213 12Q164 34 130.5 74Q97 114 79 169Q61 224 61 290Q61 350 72 407Q85 474 113 530Q141 586 183 626Q225 666 279.5 688Q334 710 400 710Q463 710 512 688Q561 666 594.5 626Q628 586 646 531Q664 476 664 410Q664 351 653 293Q640 226 612 170Q584 114 542 74Q500 34 445.5 12Q391 -10 325 -10ZM325 35Q386 35 430.5 58Q475 81 505.5 119.5Q536 158 554 208Q572 258 581 312Q586 341 587.5 368Q589 395 589 424Q589 480 578.5 524.5Q568 569 545.5 600.5Q523 632 487 648.5Q451 665 400 665Q339 665 294.5 642Q250 619 219.5 580.5Q189 542 171 492Q153 442 144 388Q139 359 137.5 332Q136 305 136 276Q136 164 180 99.5Q224 35 325 35Z" glyph-name="Otilde" horiz-adv-x="697" unicode="Õ" /><glyph d="M344 887 418 887L405 780H331ZM499 887 573 887L560 780H485ZM325 -10Q262 -10 213 12Q164 34 130.5 74Q97 114 79 169Q61 224 61 290Q61 350 72 407Q85 474 113 530Q141 586 183 626Q225 666 279.5 688Q334 710 400 710Q463 710 512 688Q561 666 594.5 626Q628 586 646 531Q664 476 664 410Q664 351 653 293Q640 226 612 170Q584 114 542 74Q500 34 445.5 12Q391 -10 325 -10ZM325 35Q386 35 430.5 58Q475 81 505.5 119.5Q536 158 554 208Q572 258 581 312Q586 341 587.5 368Q589 395 589 424Q589 480 578.5 524.5Q568 569 545.5 600.5Q523 632 487 648.5Q451 665 400 665Q339 665 294.5 642Q250 619 219.5 580.5Q189 542 171 492Q153 442 144 388Q139 359 137.5 332Q136 305 136 276Q136 164 180 99.5Q224 35 325 35Z" glyph-name="Odieresis" horiz-adv-x="697" unicode="Ö" /><glyph d="M357 182 241 314L93 182L69 210L217 341L101 474L130 498L246 367L398 501L421 474L270 340L387 207Z" glyph-name="multiply" horiz-adv-x="464" unicode="×" /><glyph d="M335 -10Q272 -10 224 11.5Q176 33 142 72L37 -38L2 -11L116 108Q94 146 82.5 191.5Q71 237 71 290Q71 350 82 407Q95 474 123 530Q151 586 193 626Q235 666 289.5 688Q344 710 410 710Q474 710 523.5 687.5Q573 665 607 623L716 738L749 710L632 587Q652 551 663 506Q674 461 674 410Q674 351 663 293Q650 226 622 170Q594 114 552 74Q510 34 455.5 12Q401 -10 335 -10ZM146 276Q146 242 150 212Q154 182 162 157L567 582Q545 622 506.5 643.5Q468 665 410 665Q349 665 304.5 642Q260 619 229.5 580.5Q199 542 181 492Q163 442 154 388Q149 359 147.5 332Q146 305 146 276ZM599 424Q599 456 596 484.5Q593 513 585 538L181 113Q204 75 241 55Q278 35 335 35Q396 35 440.5 58Q485 81 515.5 119.5Q546 158 564 208Q582 258 591 312Q596 341 597.5 368Q599 395 599 424Z" glyph-name="Oslash" horiz-adv-x="719" unicode="Ø" /><glyph d="M382 923 384 928L462 938L603 766L567 756ZM357 -10Q302 -10 255.5 2.5Q209 15 177 43Q145 71 130.5 114.5Q116 158 123 221L176 653H81L86 700H361L356 653H249L194 190Q191 162 197.5 134Q204 106 224.5 84Q245 62 280 48Q315 34 369 34Q469 34 528.5 85.5Q588 137 599 224L652 653H546L551 700H803L798 653H702L648 218Q641 161 615.5 118Q590 75 551.5 46.5Q513 18 463 4Q413 -10 357 -10Z" glyph-name="Ugrave" horiz-adv-x="772" unicode="Ù" /><glyph d="M414 766 560 938L635 928L636 923L448 756ZM357 -10Q302 -10 255.5 2.5Q209 15 177 43Q145 71 130.5 114.5Q116 158 123 221L176 653H81L86 700H361L356 653H249L194 190Q191 162 197.5 134Q204 106 224.5 84Q245 62 280 48Q315 34 369 34Q469 34 528.5 85.5Q588 137 599 224L652 653H546L551 700H803L798 653H702L648 218Q641 161 615.5 118Q590 75 551.5 46.5Q513 18 463 4Q413 -10 357 -10Z" glyph-name="Uacute" horiz-adv-x="772" unicode="Ú" /><glyph d="M329 766 479 938H525L635 766L589 756L494 866L372 756ZM357 -10Q302 -10 255.5 2.5Q209 15 177 43Q145 71 130.5 114.5Q116 158 123 221L176 653H81L86 700H361L356 653H249L194 190Q191 162 197.5 134Q204 106 224.5 84Q245 62 280 48Q315 34 369 34Q469 34 528.5 85.5Q588 137 599 224L652 653H546L551 700H803L798 653H702L648 218Q641 161 615.5 118Q590 75 551.5 46.5Q513 18 463 4Q413 -10 357 -10Z" glyph-name="Ucircumflex" horiz-adv-x="772" unicode="Û" /><glyph d="M383 887 457 887L444 780H370ZM538 887 612 887L599 780H524ZM357 -10Q302 -10 255.5 2.5Q209 15 177 43Q145 71 130.5 114.5Q116 158 123 221L176 653H81L86 700H361L356 653H249L194 190Q191 162 197.5 134Q204 106 224.5 84Q245 62 280 48Q315 34 369 34Q469 34 528.5 85.5Q588 137 599 224L652 653H546L551 700H803L798 653H702L648 218Q641 161 615.5 118Q590 75 551.5 46.5Q513 18 463 4Q413 -10 357 -10Z" glyph-name="Udieresis" horiz-adv-x="772" unicode="Ü" /><glyph d="M339 766 485 938L560 928L561 923L373 756ZM160 47 275 47L307 295L135 653H60L65 700H323L319 653H219L363 346L568 653H470L475 700H720L715 653H631L380 296L348 47H464L459 0H155Z" glyph-name="Yacute" horiz-adv-x="669" unicode="Ý" /><glyph d="M19 47 114 47L189 653H94L99 700H372L367 653H262L251 569H360Q410 569 446.5 554.5Q483 540 507 516Q531 492 543 460.5Q555 429 555 395Q555 284 485.5 220.5Q416 157 291 157H201L187 47H292L287 0H14ZM286 204Q376 204 427.5 249Q479 294 479 388Q479 451 440.5 487Q402 523 333 523H246L207 204Z" glyph-name="Thorn" horiz-adv-x="579" unicode="Þ" /><glyph d="M346 -10Q311 -10 275 0.5Q239 11 214 35L215 72Q234 51 269 38.5Q304 26 339 26Q356 26 372 31Q388 36 401.5 46.5Q415 57 423 73.5Q431 90 431 114Q431 147 405.5 182Q380 217 350 250.5Q320 284 294.5 314Q269 344 269 366Q269 375 293.5 403Q318 431 348 467.5Q378 504 402.5 545Q427 586 427 622Q427 654 406 679Q385 704 340 704Q303 704 278 691.5Q253 679 237 655.5Q221 632 212 600Q203 568 198 529L103 -250H-41L-37 -210H40L120 432H57L61 471H124L132 532Q139 586 157.5 625.5Q176 665 203 691Q230 717 264 729.5Q298 742 336 742Q362 742 385.5 735Q409 728 427 714Q445 700 455.5 678Q466 656 466 627Q466 590 446 553.5Q426 517 402 484Q378 451 358 425Q338 399 338 383Q338 365 362 338Q386 311 414.5 278.5Q443 246 466.5 209.5Q490 173 490 135Q490 98 478 70.5Q466 43 446 25Q426 7 400 -1.5Q374 -10 346 -10Z" glyph-name="germandbls" horiz-adv-x="538" unicode="ß" /><glyph d="M180 695 182 700L260 710L401 538L365 528ZM340 119Q321 97 299 74Q277 51 253 32.5Q229 14 203 2Q177 -10 149 -10Q89 -10 64 36Q39 82 39 160Q39 198 49 253Q59 308 84.5 359Q110 410 153 446Q196 482 263 482Q287 482 305 476.5Q323 471 337 463Q351 455 361.5 445.5Q372 436 379 428L384 469L453 483L398 40H463L459 5L321 -5ZM178 45Q206 45 235.5 64.5Q265 84 289 107Q318 134 345 169L373 391Q362 406 347 417Q334 428 315.5 435.5Q297 443 272 443Q224 443 192.5 416Q161 389 142 347.5Q123 306 115.5 257.5Q108 209 108 166Q108 125 114.5 101Q121 77 131.5 64.5Q142 52 154 48.5Q166 45 178 45Z" glyph-name="agrave" horiz-adv-x="514" unicode="à" /><glyph d="M212 538 358 710L433 700L434 695L246 528ZM340 119Q321 97 299 74Q277 51 253 32.5Q229 14 203 2Q177 -10 149 -10Q89 -10 64 36Q39 82 39 160Q39 198 49 253Q59 308 84.5 359Q110 410 153 446Q196 482 263 482Q287 482 305 476.5Q323 471 337 463Q351 455 361.5 445.5Q372 436 379 428L384 469L453 483L398 40H463L459 5L321 -5ZM178 45Q206 45 235.5 64.5Q265 84 289 107Q318 134 345 169L373 391Q362 406 347 417Q334 428 315.5 435.5Q297 443 272 443Q224 443 192.5 416Q161 389 142 347.5Q123 306 115.5 257.5Q108 209 108 166Q108 125 114.5 101Q121 77 131.5 64.5Q142 52 154 48.5Q166 45 178 45Z" glyph-name="aacute" horiz-adv-x="514" unicode="á" /><glyph d="M127 538 277 710H323L433 538L387 528L292 638L170 528ZM340 119Q321 97 299 74Q277 51 253 32.5Q229 14 203 2Q177 -10 149 -10Q89 -10 64 36Q39 82 39 160Q39 198 49 253Q59 308 84.5 359Q110 410 153 446Q196 482 263 482Q287 482 305 476.5Q323 471 337 463Q351 455 361.5 445.5Q372 436 379 428L384 469L453 483L398 40H463L459 5L321 -5ZM178 45Q206 45 235.5 64.5Q265 84 289 107Q318 134 345 169L373 391Q362 406 347 417Q334 428 315.5 435.5Q297 443 272 443Q224 443 192.5 416Q161 389 142 347.5Q123 306 115.5 257.5Q108 209 108 166Q108 125 114.5 101Q121 77 131.5 64.5Q142 52 154 48.5Q166 45 178 45Z" glyph-name="acircumflex" horiz-adv-x="514" unicode="â" /><glyph d="M213 605Q196 605 182.5 592Q169 579 160 557H129Q142 606 168 633Q194 660 222 660Q239 660 258 653.5Q277 647 295 639.5Q313 632 328.5 625.5Q344 619 354 619Q372 619 385 632Q398 645 407 667H438Q425 618 399 591Q373 564 345 564Q327 564 308.5 570.5Q290 577 272.5 584.5Q255 592 240 598.5Q225 605 213 605ZM340 119Q321 97 299 74Q277 51 253 32.5Q229 14 203 2Q177 -10 149 -10Q89 -10 64 36Q39 82 39 160Q39 198 49 253Q59 308 84.5 359Q110 410 153 446Q196 482 263 482Q287 482 305 476.5Q323 471 337 463Q351 455 361.5 445.5Q372 436 379 428L384 469L453 483L398 40H463L459 5L321 -5ZM178 45Q206 45 235.5 64.5Q265 84 289 107Q318 134 345 169L373 391Q362 406 347 417Q334 428 315.5 435.5Q297 443 272 443Q224 443 192.5 416Q161 389 142 347.5Q123 306 115.5 257.5Q108 209 108 166Q108 125 114.5 101Q121 77 131.5 64.5Q142 52 154 48.5Q166 45 178 45Z" glyph-name="atilde" horiz-adv-x="514" unicode="ã" /><glyph d="M181 659 255 659L242 552H168ZM336 659 410 659L397 552H322ZM340 119Q321 97 299 74Q277 51 253 32.5Q229 14 203 2Q177 -10 149 -10Q89 -10 64 36Q39 82 39 160Q39 198 49 253Q59 308 84.5 359Q110 410 153 446Q196 482 263 482Q287 482 305 476.5Q323 471 337 463Q351 455 361.5 445.5Q372 436 379 428L384 469L453 483L398 40H463L459 5L321 -5ZM178 45Q206 45 235.5 64.5Q265 84 289 107Q318 134 345 169L373 391Q362 406 347 417Q334 428 315.5 435.5Q297 443 272 443Q224 443 192.5 416Q161 389 142 347.5Q123 306 115.5 257.5Q108 209 108 166Q108 125 114.5 101Q121 77 131.5 64.5Q142 52 154 48.5Q166 45 178 45Z" glyph-name="adieresis" horiz-adv-x="514" unicode="ä" /><glyph d="M280 532Q256 532 235.5 540.5Q215 549 199.5 564Q184 579 175 599.5Q166 620 166 644Q166 668 175 688.5Q184 709 199.5 724Q215 739 235.5 747.5Q256 756 279 756Q303 756 323.5 747.5Q344 739 359.5 724Q375 709 384 688.5Q393 668 393 644Q393 620 384 599.5Q375 579 360 564Q345 549 324.5 540.5Q304 532 280 532ZM279 569Q312 569 330 591Q348 613 348 644Q348 675 330.5 697Q313 719 280 719Q247 719 228.5 697Q210 675 210 644Q210 613 228 591Q246 569 279 569ZM340 119Q321 97 299 74Q277 51 253 32.5Q229 14 203 2Q177 -10 149 -10Q89 -10 64 36Q39 82 39 160Q39 198 49 253Q59 308 84.5 359Q110 410 153 446Q196 482 263 482Q287 482 305 476.5Q323 471 337 463Q351 455 361.5 445.5Q372 436 379 428L384 469L453 483L398 40H463L459 5L321 -5ZM178 45Q206 45 235.5 64.5Q265 84 289 107Q318 134 345 169L373 391Q362 406 347 417Q334 428 315.5 435.5Q297 443 272 443Q224 443 192.5 416Q161 389 142 347.5Q123 306 115.5 257.5Q108 209 108 166Q108 125 114.5 101Q121 77 131.5 64.5Q142 52 154 48.5Q166 45 178 45Z" glyph-name="aring" horiz-adv-x="514" unicode="å" /><glyph d="M677 54Q639 24 590 7Q541 -10 500 -10Q431 -10 395 21.5Q359 53 347 108Q279 58 231.5 24Q184 -10 151 -10Q119 -10 97.5 2Q76 14 63 36.5Q50 59 44.5 90Q39 121 39 160Q39 198 49 253Q59 308 84.5 359Q110 410 153 446Q196 482 263 482Q359 482 402 386Q434 430 480 456Q526 482 588 482Q610 482 631 475.5Q652 469 668.5 455.5Q685 442 695.5 421.5Q706 401 706 373Q706 368 706 363Q706 358 705 353Q705 350 679 330.5Q653 311 611.5 282Q570 253 518.5 218Q467 183 415 149Q421 91 451 66Q481 41 541 41Q560 41 585.5 49.5Q611 58 634 68Q662 80 690 95ZM569 448Q542 448 514 430Q486 412 464 378.5Q442 345 428 297Q414 249 414 189L635 346Q636 351 636 357Q636 363 636 368Q636 392 630 407.5Q624 423 614.5 432Q605 441 593 444.5Q581 448 569 448ZM110 166Q110 129 116 105Q122 81 131 67Q140 53 151 47.5Q162 42 173 42Q188 42 233.5 71.5Q279 101 342 145Q341 153 341 160.5Q341 168 341 176Q341 227 352.5 274.5Q364 322 387 362Q383 370 375 383.5Q367 397 353.5 410.5Q340 424 320 433.5Q300 443 273 443Q225 443 193.5 416Q162 389 143.5 347.5Q125 306 117.5 257.5Q110 209 110 166Z" glyph-name="ae" horiz-adv-x="741" unicode="æ" /><glyph d="M282 -161Q282 -184 272 -202.5Q262 -221 245 -234Q228 -247 205 -254Q182 -261 156 -261Q116 -261 92 -251Q68 -241 63 -237L72 -207Q80 -212 101 -218.5Q122 -225 140 -225Q178 -225 199 -210Q220 -195 220 -167Q220 -148 209.5 -135.5Q199 -123 183.5 -115.5Q168 -108 148.5 -105.5Q129 -103 111 -103L181 -7Q145 -2 118.5 15.5Q92 33 74.5 59Q57 85 49 119Q41 153 41 192Q41 247 55.5 299Q70 351 100 391.5Q130 432 174.5 457Q219 482 279 482Q300 482 321 479.5Q342 477 360 473Q378 469 391 466Q404 463 409 461L401 351H364L344 434Q339 436 330 438Q321 439 309 440Q297 441 279 441Q226 441 194 414Q162 387 144.5 348Q127 309 121 265Q115 221 115 187Q115 112 146.5 71Q178 30 241 30Q262 30 281.5 33Q301 36 318 41L365 136H402L374 22Q332 3 289.5 -3.5Q247 -10 215 -10H214L180 -72Q206 -74 225 -82.5Q244 -91 257 -103.5Q270 -116 276 -131Q282 -146 282 -161Z" glyph-name="ccedilla" horiz-adv-x="446" unicode="ç" /><glyph d="M192 695 194 700L272 710L413 538L377 528ZM200 -10Q156 -10 125.5 3.5Q95 17 76.5 41.5Q58 66 49.5 100Q41 134 41 176Q41 235 55.5 290.5Q70 346 99 388.5Q128 431 173 456.5Q218 482 278 482Q316 482 342.5 470.5Q369 459 385.5 439.5Q402 420 409.5 393.5Q417 367 417 337Q417 324 415.5 310Q414 296 411 284H124Q121 271 119 257Q117 243 115.5 226.5Q114 210 114 190Q114 115 143.5 78Q173 41 241 41Q260 41 287 49.5Q314 58 339 68Q369 80 400 95L387 54Q369 42 345 30.5Q321 19 295.5 10Q270 1 245 -4.5Q220 -10 200 -10ZM343 321Q344 329 344.5 336Q345 343 345 350Q345 398 326.5 423Q308 448 259 448Q204 448 175 413Q146 378 130 311Z" glyph-name="egrave" horiz-adv-x="455" unicode="è" /><glyph d="M224 538 370 710L445 700L446 695L258 528ZM200 -10Q156 -10 125.5 3.5Q95 17 76.5 41.5Q58 66 49.5 100Q41 134 41 176Q41 235 55.5 290.5Q70 346 99 388.5Q128 431 173 456.5Q218 482 278 482Q316 482 342.5 470.5Q369 459 385.5 439.5Q402 420 409.5 393.5Q417 367 417 337Q417 324 415.5 310Q414 296 411 284H124Q121 271 119 257Q117 243 115.5 226.5Q114 210 114 190Q114 115 143.5 78Q173 41 241 41Q260 41 287 49.5Q314 58 339 68Q369 80 400 95L387 54Q369 42 345 30.5Q321 19 295.5 10Q270 1 245 -4.5Q220 -10 200 -10ZM343 321Q344 329 344.5 336Q345 343 345 350Q345 398 326.5 423Q308 448 259 448Q204 448 175 413Q146 378 130 311Z" glyph-name="eacute" horiz-adv-x="455" unicode="é" /><glyph d="M139 538 289 710H335L445 538L399 528L304 638L182 528ZM200 -10Q156 -10 125.5 3.5Q95 17 76.5 41.5Q58 66 49.5 100Q41 134 41 176Q41 235 55.5 290.5Q70 346 99 388.5Q128 431 173 456.5Q218 482 278 482Q316 482 342.5 470.5Q369 459 385.5 439.5Q402 420 409.5 393.5Q417 367 417 337Q417 324 415.5 310Q414 296 411 284H124Q121 271 119 257Q117 243 115.5 226.5Q114 210 114 190Q114 115 143.5 78Q173 41 241 41Q260 41 287 49.5Q314 58 339 68Q369 80 400 95L387 54Q369 42 345 30.5Q321 19 295.5 10Q270 1 245 -4.5Q220 -10 200 -10ZM343 321Q344 329 344.5 336Q345 343 345 350Q345 398 326.5 423Q308 448 259 448Q204 448 175 413Q146 378 130 311Z" glyph-name="ecircumflex" horiz-adv-x="455" unicode="ê" /><glyph d="M193 659 267 659L254 552H180ZM348 659 422 659L409 552H334ZM200 -10Q156 -10 125.5 3.5Q95 17 76.5 41.5Q58 66 49.5 100Q41 134 41 176Q41 235 55.5 290.5Q70 346 99 388.5Q128 431 173 456.5Q218 482 278 482Q316 482 342.5 470.5Q369 459 385.5 439.5Q402 420 409.5 393.5Q417 367 417 337Q417 324 415.5 310Q414 296 411 284H124Q121 271 119 257Q117 243 115.5 226.5Q114 210 114 190Q114 115 143.5 78Q173 41 241 41Q260 41 287 49.5Q314 58 339 68Q369 80 400 95L387 54Q369 42 345 30.5Q321 19 295.5 10Q270 1 245 -4.5Q220 -10 200 -10ZM343 321Q344 329 344.5 336Q345 343 345 350Q345 398 326.5 423Q308 448 259 448Q204 448 175 413Q146 378 130 311Z" glyph-name="edieresis" horiz-adv-x="455" unicode="ë" /><glyph d="M62 695 64 700L142 710L283 538L247 528ZM68 7 132 432H51L55 472L204 482L140 46L233 60L229 23L89 -10Z" glyph-name="igrave" horiz-adv-x="272" unicode="ì" /><glyph d="M106 538 252 710L327 700L328 695L140 528ZM68 7 132 432H51L55 472L204 482L140 46L233 60L229 23L89 -10Z" glyph-name="iacute" horiz-adv-x="272" unicode="í" /><glyph d="M9 538 159 710H205L315 538L269 528L174 638L52 528ZM68 7 132 432H51L55 472L204 482L140 46L233 60L229 23L89 -10Z" glyph-name="icircumflex" horiz-adv-x="272" unicode="î" /><glyph d="M62 659 136 659L123 552H49ZM217 659 291 659L278 552H203ZM68 7 132 432H51L55 472L204 482L140 46L233 60L229 23L89 -10Z" glyph-name="idieresis" horiz-adv-x="272" unicode="ï" /><glyph d="M436 281Q436 229 423 177Q410 125 383 83.5Q356 42 315 16Q274 -10 218 -10Q174 -10 141 5.5Q108 21 85.5 49.5Q63 78 52 117.5Q41 157 41 204Q41 257 53.5 307Q66 357 91 396Q116 435 154.5 458.5Q193 482 244 482Q270 482 297 473.5Q324 465 347 447Q309 519 264 593L151 550L143 578L248 618Q228 650 209 679.5Q190 709 173 733L195 740Q217 719 242.5 693Q268 667 294 635L405 677L412 649L313 612Q337 581 359.5 544.5Q382 508 399 466.5Q416 425 426 378.5Q436 332 436 281ZM218 26Q280 26 311 69.5Q342 113 353 198Q357 231 359.5 252Q362 273 363 287Q364 301 364.5 310.5Q365 320 365 330Q365 384 340.5 415Q316 446 264 446Q201 446 168 401Q135 356 124 271Q120 239 117.5 218.5Q115 198 114 186Q113 174 112.5 167Q112 160 112 155Q112 92 138 59Q164 26 218 26Z" glyph-name="eth" horiz-adv-x="479" unicode="ð" /><glyph d="M250 605Q233 605 219.5 592Q206 579 197 557H166Q179 606 205 633Q231 660 259 660Q276 660 295 653.5Q314 647 332 639.5Q350 632 365.5 625.5Q381 619 391 619Q409 619 422 632Q435 645 444 667H475Q462 618 436 591Q410 564 382 564Q364 564 345.5 570.5Q327 577 309.5 584.5Q292 592 277 598.5Q262 605 250 605ZM123 432 43 432L47 472L197 482L174 328Q201 358 228.5 385.5Q256 413 281.5 434.5Q307 456 329.5 469Q352 482 369 482Q427 482 450 457Q473 432 473 387Q473 380 472.5 373Q472 366 471 358L430 44L507 60L503 20L382 -10L361 7Q374 107 384 187Q390 235 393.5 263Q397 291 400 315.5Q403 340 405 357Q407 374 407 376Q407 399 392.5 413Q378 427 353 427Q326 427 280.5 388.5Q235 350 171 288L137 1L68 -10Z" glyph-name="ntilde" horiz-adv-x="550" unicode="ñ" /><glyph d="M180 695 182 700L260 710L401 538L365 528ZM221 -10Q176 -10 142.5 6Q109 22 86.5 50Q64 78 52.5 116Q41 154 41 198Q41 208 41 217.5Q41 227 43 238Q49 289 66 333.5Q83 378 111 411Q139 444 178.5 463Q218 482 267 482Q312 482 345.5 466Q379 450 401.5 421.5Q424 393 435.5 355Q447 317 447 273Q447 263 446.5 253Q446 243 445 233Q439 182 422 137.5Q405 93 376.5 60.5Q348 28 309 9Q270 -10 221 -10ZM223 26Q280 26 317.5 68.5Q355 111 367 211L373 260Q385 359 353.5 402.5Q322 446 265 446Q207 446 170 403.5Q133 361 121 261L115 211Q103 112 134 69Q165 26 223 26Z" glyph-name="ograve" horiz-adv-x="490" unicode="ò" /><glyph d="M212 538 358 710L433 700L434 695L246 528ZM221 -10Q176 -10 142.5 6Q109 22 86.5 50Q64 78 52.5 116Q41 154 41 198Q41 208 41 217.5Q41 227 43 238Q49 289 66 333.5Q83 378 111 411Q139 444 178.5 463Q218 482 267 482Q312 482 345.5 466Q379 450 401.5 421.5Q424 393 435.5 355Q447 317 447 273Q447 263 446.5 253Q446 243 445 233Q439 182 422 137.5Q405 93 376.5 60.5Q348 28 309 9Q270 -10 221 -10ZM223 26Q280 26 317.5 68.5Q355 111 367 211L373 260Q385 359 353.5 402.5Q322 446 265 446Q207 446 170 403.5Q133 361 121 261L115 211Q103 112 134 69Q165 26 223 26Z" glyph-name="oacute" horiz-adv-x="490" unicode="ó" /><glyph d="M127 538 277 710H323L433 538L387 528L292 638L170 528ZM221 -10Q176 -10 142.5 6Q109 22 86.5 50Q64 78 52.5 116Q41 154 41 198Q41 208 41 217.5Q41 227 43 238Q49 289 66 333.5Q83 378 111 411Q139 444 178.5 463Q218 482 267 482Q312 482 345.5 466Q379 450 401.5 421.5Q424 393 435.5 355Q447 317 447 273Q447 263 446.5 253Q446 243 445 233Q439 182 422 137.5Q405 93 376.5 60.5Q348 28 309 9Q270 -10 221 -10ZM223 26Q280 26 317.5 68.5Q355 111 367 211L373 260Q385 359 353.5 402.5Q322 446 265 446Q207 446 170 403.5Q133 361 121 261L115 211Q103 112 134 69Q165 26 223 26Z" glyph-name="ocircumflex" horiz-adv-x="490" unicode="ô" /><glyph d="M213 605Q196 605 182.5 592Q169 579 160 557H129Q142 606 168 633Q194 660 222 660Q239 660 258 653.5Q277 647 295 639.5Q313 632 328.5 625.5Q344 619 354 619Q372 619 385 632Q398 645 407 667H438Q425 618 399 591Q373 564 345 564Q327 564 308.5 570.5Q290 577 272.5 584.5Q255 592 240 598.5Q225 605 213 605ZM221 -10Q176 -10 142.5 6Q109 22 86.5 50Q64 78 52.5 116Q41 154 41 198Q41 208 41 217.5Q41 227 43 238Q49 289 66 333.5Q83 378 111 411Q139 444 178.5 463Q218 482 267 482Q312 482 345.5 466Q379 450 401.5 421.5Q424 393 435.5 355Q447 317 447 273Q447 263 446.5 253Q446 243 445 233Q439 182 422 137.5Q405 93 376.5 60.5Q348 28 309 9Q270 -10 221 -10ZM223 26Q280 26 317.5 68.5Q355 111 367 211L373 260Q385 359 353.5 402.5Q322 446 265 446Q207 446 170 403.5Q133 361 121 261L115 211Q103 112 134 69Q165 26 223 26Z" glyph-name="otilde" horiz-adv-x="490" unicode="õ" /><glyph d="M181 659 255 659L242 552H168ZM336 659 410 659L397 552H322ZM221 -10Q176 -10 142.5 6Q109 22 86.5 50Q64 78 52.5 116Q41 154 41 198Q41 208 41 217.5Q41 227 43 238Q49 289 66 333.5Q83 378 111 411Q139 444 178.5 463Q218 482 267 482Q312 482 345.5 466Q379 450 401.5 421.5Q424 393 435.5 355Q447 317 447 273Q447 263 446.5 253Q446 243 445 233Q439 182 422 137.5Q405 93 376.5 60.5Q348 28 309 9Q270 -10 221 -10ZM223 26Q280 26 317.5 68.5Q355 111 367 211L373 260Q385 359 353.5 402.5Q322 446 265 446Q207 446 170 403.5Q133 361 121 261L115 211Q103 112 134 69Q165 26 223 26Z" glyph-name="odieresis" horiz-adv-x="490" unicode="ö" /><glyph d="M223 515 306 515L295 430H213ZM70 359 422 359L415 306H64ZM189 235 271 235L261 150H179Z" glyph-name="divide" horiz-adv-x="464" unicode="÷" /><glyph d="M224 -10Q182 -10 151 3.5Q120 17 97 41L25 -41L2 -17L77 68Q44 121 44 198Q44 208 44 217.5Q44 227 46 238Q52 289 69 333.5Q86 378 114 411Q142 444 181.5 463Q221 482 270 482Q311 482 342 468.5Q373 455 396 431L469 514L493 490L417 404Q450 350 450 273Q450 263 449.5 253Q449 243 448 233Q442 182 425 137.5Q408 93 379.5 60.5Q351 28 312 9Q273 -10 224 -10ZM118 211Q114 182 114.5 159Q115 136 119 116L362 393Q348 421 324 433.5Q300 446 268 446Q210 446 173 403.5Q136 361 124 261ZM376 260Q380 289 379.5 312.5Q379 336 375 356L131 79Q145 51 169.5 38.5Q194 26 226 26Q283 26 320.5 68.5Q358 111 370 211Z" glyph-name="oslash" horiz-adv-x="494" unicode="ø" /><glyph d="M169 695 171 700L249 710L390 538L354 528ZM120 432 40 432L44 472L194 482Q180 380 169 297Q162 248 158.5 218Q155 188 151.5 162.5Q148 137 146 118.5Q144 100 144 96Q144 73 153.5 58Q163 43 195 43Q230 43 273.5 82.5Q317 122 368 184L402 471L471 482L417 44L494 60L490 20L369 -10L348 7L365 144Q316 75 269.5 32.5Q223 -10 170 -10Q122 -10 99 15Q76 40 76 85Q76 92 76.5 99Q77 106 78 114Z" glyph-name="ugrave" horiz-adv-x="539" unicode="ù" /><glyph d="M261 538 407 710L482 700L483 695L295 528ZM120 432 40 432L44 472L194 482Q180 380 169 297Q162 248 158.5 218Q155 188 151.5 162.5Q148 137 146 118.5Q144 100 144 96Q144 73 153.5 58Q163 43 195 43Q230 43 273.5 82.5Q317 122 368 184L402 471L471 482L417 44L494 60L490 20L369 -10L348 7L365 144Q316 75 269.5 32.5Q223 -10 170 -10Q122 -10 99 15Q76 40 76 85Q76 92 76.5 99Q77 106 78 114Z" glyph-name="uacute" horiz-adv-x="539" unicode="ú" /><glyph d="M157 538 307 710H353L463 538L417 528L322 638L200 528ZM120 432 40 432L44 472L194 482Q180 380 169 297Q162 248 158.5 218Q155 188 151.5 162.5Q148 137 146 118.5Q144 100 144 96Q144 73 153.5 58Q163 43 195 43Q230 43 273.5 82.5Q317 122 368 184L402 471L471 482L417 44L494 60L490 20L369 -10L348 7L365 144Q316 75 269.5 32.5Q223 -10 170 -10Q122 -10 99 15Q76 40 76 85Q76 92 76.5 99Q77 106 78 114Z" glyph-name="ucircumflex" horiz-adv-x="539" unicode="û" /><glyph d="M194 659 268 659L255 552H181ZM349 659 423 659L410 552H335ZM120 432 40 432L44 472L194 482Q180 380 169 297Q162 248 158.5 218Q155 188 151.5 162.5Q148 137 146 118.5Q144 100 144 96Q144 73 153.5 58Q163 43 195 43Q230 43 273.5 82.5Q317 122 368 184L402 471L471 482L417 44L494 60L490 20L369 -10L348 7L365 144Q316 75 269.5 32.5Q223 -10 170 -10Q122 -10 99 15Q76 40 76 85Q76 92 76.5 99Q77 106 78 114Z" glyph-name="udieresis" horiz-adv-x="539" unicode="ü" /><glyph d="M257 538 403 710L478 700L479 695L291 528ZM-15 -240 -10 -200L103 -190L204 -4L113 432H32L36 472H173L250 78L416 432H350L354 472H526L522 432H467L127 -250Z" glyph-name="yacute" horiz-adv-x="517" unicode="ý" /><glyph d="M190 -250 -57 -250L-52 -210H22L132 692L44 702L49 742H206L158 353Q179 374 205.5 397Q232 420 260 438.5Q288 457 316 469.5Q344 482 367 482Q405 482 428.5 470Q452 458 465 435.5Q478 413 482.5 382Q487 351 487 312Q487 274 477 219Q467 164 441.5 113Q416 62 373 26Q330 -10 263 -10Q213 -10 176.5 6Q140 22 120 41L89 -210H195ZM416 306Q416 344 411.5 367.5Q407 391 398 403.5Q389 416 375.5 420.5Q362 425 344 425Q316 425 283 406.5Q250 388 221 365.5Q192 343 172.5 324Q153 305 152 304L125 80Q126 78 137 70Q148 62 165.5 53Q183 44 206 36.5Q229 29 253 29Q301 29 332.5 56.5Q364 84 382.5 125Q401 166 408.5 214.5Q416 263 416 306Z" glyph-name="thorn" horiz-adv-x="526" unicode="þ" /><glyph d="M182 659 256 659L243 552H169ZM337 659 411 659L398 552H323ZM-15 -240 -10 -200L103 -190L204 -4L113 432H32L36 472H173L250 78L416 432H350L354 472H526L522 432H467L127 -250Z" glyph-name="ydieresis" horiz-adv-x="517" unicode="ÿ" /><glyph d="M319 838 582 838L576 786H312ZM207 0 -39 0L-32 47H46L429 710H481L576 47H663L656 0H411L418 47H501L471 275H232L105 47H214ZM465 322 425 620L259 322Z" glyph-name="Amacron" horiz-adv-x="695" unicode="Ā" /><glyph d="M157 610 420 610L414 558H150ZM340 119Q321 97 299 74Q277 51 253 32.5Q229 14 203 2Q177 -10 149 -10Q89 -10 64 36Q39 82 39 160Q39 198 49 253Q59 308 84.5 359Q110 410 153 446Q196 482 263 482Q287 482 305 476.5Q323 471 337 463Q351 455 361.5 445.5Q372 436 379 428L384 469L453 483L398 40H463L459 5L321 -5ZM178 45Q206 45 235.5 64.5Q265 84 289 107Q318 134 345 169L373 391Q362 406 347 417Q334 428 315.5 435.5Q297 443 272 443Q224 443 192.5 416Q161 389 142 347.5Q123 306 115.5 257.5Q108 209 108 166Q108 125 114.5 101Q121 77 131.5 64.5Q142 52 154 48.5Q166 45 178 45Z" glyph-name="amacron" horiz-adv-x="514" unicode="ā" /><glyph d="M576 896Q576 834 537 799.5Q498 765 442 765Q386 765 356 799Q326 833 341 896L377 901Q372 858 391.5 840.5Q411 823 449 823Q487 823 511.5 840.5Q536 858 541 901ZM207 0 -39 0L-32 47H46L429 710H481L576 47H663L656 0H411L418 47H501L471 275H232L105 47H214ZM465 322 425 620L259 322Z" glyph-name="Abreve" horiz-adv-x="695" unicode="Ă" /><glyph d="M414 668Q414 606 375 571.5Q336 537 280 537Q224 537 194 571Q164 605 179 668L215 673Q210 630 229.5 612.5Q249 595 287 595Q325 595 349.5 612.5Q374 630 379 673ZM340 119Q321 97 299 74Q277 51 253 32.5Q229 14 203 2Q177 -10 149 -10Q89 -10 64 36Q39 82 39 160Q39 198 49 253Q59 308 84.5 359Q110 410 153 446Q196 482 263 482Q287 482 305 476.5Q323 471 337 463Q351 455 361.5 445.5Q372 436 379 428L384 469L453 483L398 40H463L459 5L321 -5ZM178 45Q206 45 235.5 64.5Q265 84 289 107Q318 134 345 169L373 391Q362 406 347 417Q334 428 315.5 435.5Q297 443 272 443Q224 443 192.5 416Q161 389 142 347.5Q123 306 115.5 257.5Q108 209 108 166Q108 125 114.5 101Q121 77 131.5 64.5Q142 52 154 48.5Q166 45 178 45Z" glyph-name="abreve" horiz-adv-x="514" unicode="ă" /><glyph d="M548 -196Q512 -210 483 -210Q448 -210 424.5 -198.5Q401 -187 401 -156Q401 -138 414 -117Q427 -96 447.5 -75.5Q468 -55 493 -35.5Q518 -16 542 0H411L418 47H501L471 275H232L105 47H214L207 0H-39L-32 47H46L429 710H481L576 47H663L656 0H576Q557 -15 537.5 -34.5Q518 -54 502 -73.5Q486 -93 476 -112Q466 -131 466 -146Q466 -163 478.5 -169Q491 -175 512 -175Q520 -175 532 -173Q544 -171 555 -168ZM465 322 425 620L259 322Z" glyph-name="Aogonek" horiz-adv-x="695" unicode="Ą" /><glyph d="M395 -196Q359 -210 330 -210Q295 -210 271.5 -198.5Q248 -187 248 -156Q248 -138 261 -117Q274 -96 294.5 -75.5Q315 -55 340 -35.5Q365 -16 389 0L321 -5L340 119Q321 97 299 74Q277 51 253 32.5Q229 14 203 2Q177 -10 149 -10Q89 -10 64 36Q39 82 39 160Q39 198 49 253Q59 308 84.5 359Q110 410 153 446Q196 482 263 482Q287 482 305 476.5Q323 471 337 463Q351 455 361.5 445.5Q372 436 379 428L384 469L453 483L398 40H463L459 5L426 3Q407 -12 387 -32Q367 -52 350.5 -72Q334 -92 323.5 -111.5Q313 -131 313 -146Q313 -163 325.5 -169Q338 -175 359 -175Q367 -175 379 -173Q391 -171 402 -168ZM178 45Q206 45 235.5 64.5Q265 84 289 107Q318 134 345 169L373 391Q362 406 347 417Q334 428 315.5 435.5Q297 443 272 443Q224 443 192.5 416Q161 389 142 347.5Q123 306 115.5 257.5Q108 209 108 166Q108 125 114.5 101Q121 77 131.5 64.5Q142 52 154 48.5Q166 45 178 45Z" glyph-name="aogonek" horiz-adv-x="514" unicode="ą" /><glyph d="M368 766 514 938L589 928L590 923L402 756ZM375 -10Q304 -10 246 13.5Q188 37 147 78.5Q106 120 83.5 177.5Q61 235 61 304Q61 406 93.5 482Q126 558 182 609Q238 660 312.5 685Q387 710 472 710Q516 710 566 704Q616 698 664 687L638 509H591L592 649Q558 656 528.5 660Q499 664 464 664Q384 664 323 634.5Q262 605 221.5 555.5Q181 506 160.5 441.5Q140 377 140 307Q140 246 157.5 195.5Q175 145 208 110Q241 75 289.5 55.5Q338 36 400 36Q435 36 460.5 39.5Q486 43 502 47Q518 51 525.5 54.5Q533 58 533 58L585 184H633L594 29Q571 18 539 10Q510 2 470 -4Q430 -10 375 -10Z" glyph-name="Cacute" horiz-adv-x="672" unicode="Ć" /><glyph d="M181 538 327 710L402 700L403 695L215 528ZM215 -10Q170 -10 137 5.5Q104 21 82.5 48Q61 75 51 112Q41 149 41 192Q41 247 55.5 299Q70 351 100 391.5Q130 432 174.5 457Q219 482 279 482Q300 482 321 479.5Q342 477 360 473Q378 469 391 466Q404 463 409 461L401 351H364L344 434Q339 436 330 438Q321 439 309 440Q297 441 279 441Q226 441 194 414Q162 387 144.5 348Q127 309 121 265Q115 221 115 187Q115 112 146.5 71Q178 30 241 30Q262 30 281.5 33Q301 36 318 41L365 136H402L374 22Q332 3 289.5 -3.5Q247 -10 215 -10Z" glyph-name="cacute" horiz-adv-x="446" unicode="ć" /><glyph d="M283 766 433 938H479L589 766L543 756L448 866L326 756ZM375 -10Q304 -10 246 13.5Q188 37 147 78.5Q106 120 83.5 177.5Q61 235 61 304Q61 406 93.5 482Q126 558 182 609Q238 660 312.5 685Q387 710 472 710Q516 710 566 704Q616 698 664 687L638 509H591L592 649Q558 656 528.5 660Q499 664 464 664Q384 664 323 634.5Q262 605 221.5 555.5Q181 506 160.5 441.5Q140 377 140 307Q140 246 157.5 195.5Q175 145 208 110Q241 75 289.5 55.5Q338 36 400 36Q435 36 460.5 39.5Q486 43 502 47Q518 51 525.5 54.5Q533 58 533 58L585 184H633L594 29Q571 18 539 10Q510 2 470 -4Q430 -10 375 -10Z" glyph-name="Ccircumflex" horiz-adv-x="672" unicode="Ĉ" /><glyph d="M94 538 244 710H290L400 538L354 528L259 638L137 528ZM215 -10Q170 -10 137 5.5Q104 21 82.5 48Q61 75 51 112Q41 149 41 192Q41 247 55.5 299Q70 351 100 391.5Q130 432 174.5 457Q219 482 279 482Q300 482 321 479.5Q342 477 360 473Q378 469 391 466Q404 463 409 461L401 351H364L344 434Q339 436 330 438Q321 439 309 440Q297 441 279 441Q226 441 194 414Q162 387 144.5 348Q127 309 121 265Q115 221 115 187Q115 112 146.5 71Q178 30 241 30Q262 30 281.5 33Q301 36 318 41L365 136H402L374 22Q332 3 289.5 -3.5Q247 -10 215 -10Z" glyph-name="ccircumflex" horiz-adv-x="446" unicode="ĉ" /><glyph d="M404 907 502 907L489 800H391ZM375 -10Q304 -10 246 13.5Q188 37 147 78.5Q106 120 83.5 177.5Q61 235 61 304Q61 406 93.5 482Q126 558 182 609Q238 660 312.5 685Q387 710 472 710Q516 710 566 704Q616 698 664 687L638 509H591L592 649Q558 656 528.5 660Q499 664 464 664Q384 664 323 634.5Q262 605 221.5 555.5Q181 506 160.5 441.5Q140 377 140 307Q140 246 157.5 195.5Q175 145 208 110Q241 75 289.5 55.5Q338 36 400 36Q435 36 460.5 39.5Q486 43 502 47Q518 51 525.5 54.5Q533 58 533 58L585 184H633L594 29Q571 18 539 10Q510 2 470 -4Q430 -10 375 -10Z" glyph-name="Cdotaccent" horiz-adv-x="672" unicode="Ċ" /><glyph d="M222 679 320 679L307 572H209ZM215 -10Q170 -10 137 5.5Q104 21 82.5 48Q61 75 51 112Q41 149 41 192Q41 247 55.5 299Q70 351 100 391.5Q130 432 174.5 457Q219 482 279 482Q300 482 321 479.5Q342 477 360 473Q378 469 391 466Q404 463 409 461L401 351H364L344 434Q339 436 330 438Q321 439 309 440Q297 441 279 441Q226 441 194 414Q162 387 144.5 348Q127 309 121 265Q115 221 115 187Q115 112 146.5 71Q178 30 241 30Q262 30 281.5 33Q301 36 318 41L365 136H402L374 22Q332 3 289.5 -3.5Q247 -10 215 -10Z" glyph-name="cdotaccent" horiz-adv-x="446" unicode="ċ" /><glyph d="M303 928 348 938L443 828L566 938L609 928L457 756H411ZM375 -10Q304 -10 246 13.5Q188 37 147 78.5Q106 120 83.5 177.5Q61 235 61 304Q61 406 93.5 482Q126 558 182 609Q238 660 312.5 685Q387 710 472 710Q516 710 566 704Q616 698 664 687L638 509H591L592 649Q558 656 528.5 660Q499 664 464 664Q384 664 323 634.5Q262 605 221.5 555.5Q181 506 160.5 441.5Q140 377 140 307Q140 246 157.5 195.5Q175 145 208 110Q241 75 289.5 55.5Q338 36 400 36Q435 36 460.5 39.5Q486 43 502 47Q518 51 525.5 54.5Q533 58 533 58L585 184H633L594 29Q571 18 539 10Q510 2 470 -4Q430 -10 375 -10Z" glyph-name="Ccaron" horiz-adv-x="672" unicode="Č" /><glyph d="M124 700 169 710L264 600L387 710L430 700L278 528H232ZM215 -10Q170 -10 137 5.5Q104 21 82.5 48Q61 75 51 112Q41 149 41 192Q41 247 55.5 299Q70 351 100 391.5Q130 432 174.5 457Q219 482 279 482Q300 482 321 479.5Q342 477 360 473Q378 469 391 466Q404 463 409 461L401 351H364L344 434Q339 436 330 438Q321 439 309 440Q297 441 279 441Q226 441 194 414Q162 387 144.5 348Q127 309 121 265Q115 221 115 187Q115 112 146.5 71Q178 30 241 30Q262 30 281.5 33Q301 36 318 41L365 136H402L374 22Q332 3 289.5 -3.5Q247 -10 215 -10Z" glyph-name="ccaron" horiz-adv-x="446" unicode="č" /><glyph d="M336 928 381 938L476 828L599 938L642 928L490 756H444ZM717 342Q706 254 671 189.5Q636 125 583.5 83Q531 41 465 20.5Q399 0 325 0H15L21 47H114L188 653H95L101 700H411Q485 700 546 680Q607 660 649 618Q691 576 710.5 511.5Q730 447 719 358ZM644 360Q655 447 639 504Q623 561 588 594Q553 627 502 640Q451 653 392 653H261L187 47H317Q376 47 430 60.5Q484 74 527.5 108Q571 142 601 199.5Q631 257 642 344Z" glyph-name="Dcaron" horiz-adv-x="754" unicode="Ď" /><glyph d="M350 119Q331 97 307.5 74Q284 51 258 32.5Q232 14 204.5 2Q177 -10 149 -10Q89 -10 64 36Q39 82 39 160Q39 198 49 253Q59 308 84.5 359Q110 410 153 446Q196 482 263 482Q311 482 342.5 463.5Q374 445 389 428L419 692L341 702L346 742H497L448 362L408 40H473L469 5L331 -5ZM633 700 715 700L713 682L580 474H536ZM108 166Q108 125 114.5 101Q121 77 131.5 64.5Q142 52 154 48.5Q166 45 178 45Q206 45 237 64.5Q268 84 294 107Q325 134 355 169L383 391Q369 406 352 417Q337 428 317 435.5Q297 443 272 443Q224 443 192.5 416Q161 389 142 347.5Q123 306 115.5 257.5Q108 209 108 166Z" glyph-name="dcaron" horiz-adv-x="544" unicode="ď" /><glyph d="M717 342Q706 254 671 189.5Q636 125 583.5 83Q531 41 465 20.5Q399 0 325 0H15L21 47H114L148 326H58L63 373H154L188 653H95L101 700H411Q485 700 546 680Q607 660 649 618Q691 576 710.5 511.5Q730 447 719 358ZM317 47Q376 47 430 60.5Q484 74 527.5 108Q571 142 601 199.5Q631 257 642 344L644 360Q655 447 639 504Q623 561 588 594Q553 627 502 640Q451 653 392 653H261L227 373H450L445 326H221L187 47Z" glyph-name="Dcroat" horiz-adv-x="754" unicode="Đ" /><glyph d="M350 119Q331 97 307.5 74Q284 51 258 32.5Q232 14 204.5 2Q177 -10 149 -10Q89 -10 64 36Q39 82 39 160Q39 198 49 253Q59 308 84.5 359Q110 410 153 446Q196 482 263 482Q311 482 342.5 463.5Q374 445 389 428L405 573H295L300 608H409L419 692L341 702L346 742H497L480 608H531L526 573H475L448 362L408 40H473L469 5L331 -5ZM108 166Q108 125 114.5 101Q121 77 131.5 64.5Q142 52 154 48.5Q166 45 178 45Q206 45 237 64.5Q268 84 294 107Q325 134 355 169L383 391Q369 406 352 417Q337 428 317 435.5Q297 443 272 443Q224 443 192.5 416Q161 389 142 347.5Q123 306 115.5 257.5Q108 209 108 166Z" glyph-name="dcroat" horiz-adv-x="524" unicode="đ" /><glyph d="M291 838 554 838L548 786H284ZM19 47 114 47L189 653H94L99 700H608L586 520H542L529 653H262L227 373H381L403 468H450L420 227H373L376 326H222L187 47H494L550 178H595L563 0H14Z" glyph-name="Emacron" horiz-adv-x="632" unicode="Ē" /><glyph d="M169 610 432 610L426 558H162ZM200 -10Q156 -10 125.5 3.5Q95 17 76.5 41.5Q58 66 49.5 100Q41 134 41 176Q41 235 55.5 290.5Q70 346 99 388.5Q128 431 173 456.5Q218 482 278 482Q316 482 342.5 470.5Q369 459 385.5 439.5Q402 420 409.5 393.5Q417 367 417 337Q417 324 415.5 310Q414 296 411 284H124Q121 271 119 257Q117 243 115.5 226.5Q114 210 114 190Q114 115 143.5 78Q173 41 241 41Q260 41 287 49.5Q314 58 339 68Q369 80 400 95L387 54Q369 42 345 30.5Q321 19 295.5 10Q270 1 245 -4.5Q220 -10 200 -10ZM343 321Q344 329 344.5 336Q345 343 345 350Q345 398 326.5 423Q308 448 259 448Q204 448 175 413Q146 378 130 311Z" glyph-name="emacron" horiz-adv-x="455" unicode="ē" /><glyph d="M548 896Q548 834 509 799.5Q470 765 414 765Q358 765 328 799Q298 833 313 896L349 901Q344 858 363.5 840.5Q383 823 421 823Q459 823 483.5 840.5Q508 858 513 901ZM19 47 114 47L189 653H94L99 700H608L586 520H542L529 653H262L227 373H381L403 468H450L420 227H373L376 326H222L187 47H494L550 178H595L563 0H14Z" glyph-name="Ebreve" horiz-adv-x="632" unicode="Ĕ" /><glyph d="M426 668Q426 606 387 571.5Q348 537 292 537Q236 537 206 571Q176 605 191 668L227 673Q222 630 241.5 612.5Q261 595 299 595Q337 595 361.5 612.5Q386 630 391 673ZM200 -10Q156 -10 125.5 3.5Q95 17 76.5 41.5Q58 66 49.5 100Q41 134 41 176Q41 235 55.5 290.5Q70 346 99 388.5Q128 431 173 456.5Q218 482 278 482Q316 482 342.5 470.5Q369 459 385.5 439.5Q402 420 409.5 393.5Q417 367 417 337Q417 324 415.5 310Q414 296 411 284H124Q121 271 119 257Q117 243 115.5 226.5Q114 210 114 190Q114 115 143.5 78Q173 41 241 41Q260 41 287 49.5Q314 58 339 68Q369 80 400 95L387 54Q369 42 345 30.5Q321 19 295.5 10Q270 1 245 -4.5Q220 -10 200 -10ZM343 321Q344 329 344.5 336Q345 343 345 350Q345 398 326.5 423Q308 448 259 448Q204 448 175 413Q146 378 130 311Z" glyph-name="ebreve" horiz-adv-x="455" unicode="ĕ" /><glyph d="M382 907 480 907L467 800H369ZM19 47 114 47L189 653H94L99 700H608L586 520H542L529 653H262L227 373H381L403 468H450L420 227H373L376 326H222L187 47H494L550 178H595L563 0H14Z" glyph-name="Edotaccent" horiz-adv-x="632" unicode="Ė" /><glyph d="M260 679 358 679L345 572H247ZM200 -10Q156 -10 125.5 3.5Q95 17 76.5 41.5Q58 66 49.5 100Q41 134 41 176Q41 235 55.5 290.5Q70 346 99 388.5Q128 431 173 456.5Q218 482 278 482Q316 482 342.5 470.5Q369 459 385.5 439.5Q402 420 409.5 393.5Q417 367 417 337Q417 324 415.5 310Q414 296 411 284H124Q121 271 119 257Q117 243 115.5 226.5Q114 210 114 190Q114 115 143.5 78Q173 41 241 41Q260 41 287 49.5Q314 58 339 68Q369 80 400 95L387 54Q369 42 345 30.5Q321 19 295.5 10Q270 1 245 -4.5Q220 -10 200 -10ZM343 321Q344 329 344.5 336Q345 343 345 350Q345 398 326.5 423Q308 448 259 448Q204 448 175 413Q146 378 130 311Z" glyph-name="edotaccent" horiz-adv-x="455" unicode="ė" /><glyph d="M444 -196Q408 -210 379 -210Q344 -210 320.5 -198.5Q297 -187 297 -156Q297 -138 310 -117Q323 -96 343.5 -75.5Q364 -55 389 -35.5Q414 -16 438 0H14L19 47H114L189 653H94L99 700H608L586 520H542L529 653H262L227 373H381L403 468H450L420 227H373L376 326H222L187 47H494L550 178H595L563 0H472Q453 -15 433.5 -34.5Q414 -54 398 -73.5Q382 -93 372 -112Q362 -131 362 -146Q362 -163 374.5 -169Q387 -175 408 -175Q416 -175 428 -173Q440 -171 451 -168Z" glyph-name="Eogonek" horiz-adv-x="632" unicode="Ę" /><glyph d="M273 -176Q237 -190 208 -190Q173 -190 149.5 -178.5Q126 -167 126 -136Q126 -121 134.5 -105Q143 -89 157 -72Q171 -55 189.5 -39Q208 -23 227 -8Q220 -9 213 -9.5Q206 -10 200 -10Q156 -10 125.5 3.5Q95 17 76.5 41.5Q58 66 49.5 100Q41 134 41 176Q41 235 55.5 290.5Q70 346 99 388.5Q128 431 173 456.5Q218 482 278 482Q316 482 342.5 470.5Q369 459 385.5 439.5Q402 420 409.5 393.5Q417 367 417 337Q417 324 415.5 310Q414 296 411 284H124Q121 271 119 257Q117 243 115.5 226.5Q114 210 114 190Q114 115 143.5 78Q173 41 241 41Q260 41 287 49.5Q314 58 339 68Q369 80 400 95L387 54Q367 40 340 27.5Q313 15 285 6Q268 -9 251 -27Q234 -45 220.5 -62.5Q207 -80 199 -96.5Q191 -113 191 -126Q191 -143 203.5 -149Q216 -155 237 -155Q245 -155 257 -153Q269 -151 280 -148ZM343 321Q344 329 344.5 336Q345 343 345 350Q345 398 326.5 423Q308 448 259 448Q204 448 175 413Q146 378 130 311Z" glyph-name="eogonek" horiz-adv-x="455" unicode="ę" /><glyph d="M281 928 326 938L421 828L544 938L587 928L435 756H389ZM19 47 114 47L189 653H94L99 700H608L586 520H542L529 653H262L227 373H381L403 468H450L420 227H373L376 326H222L187 47H494L550 178H595L563 0H14Z" glyph-name="Ecaron" horiz-adv-x="632" unicode="Ě" /><glyph d="M159 700 204 710L299 600L422 710L465 700L313 528H267ZM200 -10Q156 -10 125.5 3.5Q95 17 76.5 41.5Q58 66 49.5 100Q41 134 41 176Q41 235 55.5 290.5Q70 346 99 388.5Q128 431 173 456.5Q218 482 278 482Q316 482 342.5 470.5Q369 459 385.5 439.5Q402 420 409.5 393.5Q417 367 417 337Q417 324 415.5 310Q414 296 411 284H124Q121 271 119 257Q117 243 115.5 226.5Q114 210 114 190Q114 115 143.5 78Q173 41 241 41Q260 41 287 49.5Q314 58 339 68Q369 80 400 95L387 54Q369 42 345 30.5Q321 19 295.5 10Q270 1 245 -4.5Q220 -10 200 -10ZM343 321Q344 329 344.5 336Q345 343 345 350Q345 398 326.5 423Q308 448 259 448Q204 448 175 413Q146 378 130 311Z" glyph-name="ecaron" horiz-adv-x="455" unicode="ě" /><glyph d="M316 766 466 938H512L622 766L576 756L481 866L359 756ZM387 -10Q313 -10 252.5 13.5Q192 37 149.5 79Q107 121 84 178.5Q61 236 61 304Q61 406 93.5 482Q126 558 181.5 609Q237 660 312 685Q387 710 471 710Q493 710 521.5 708Q550 706 580.5 702Q611 698 640.5 693.5Q670 689 694 683L668 505H621L622 645Q588 653 543.5 658Q499 663 465 663Q386 663 325.5 637Q265 611 224 564Q183 517 161.5 451.5Q140 386 140 307Q140 246 160.5 196Q181 146 218.5 111Q256 76 308 57Q360 38 422 38Q449 38 473 40.5Q497 43 515 46Q535 50 553 54L580 269H445L450 316H734L729 269H653L623 28Q623 28 607 22Q591 16 560.5 9Q530 2 486 -4Q442 -10 387 -10Z" glyph-name="Gcircumflex" horiz-adv-x="750" unicode="Ĝ" /><glyph d="M107 538 257 710H303L413 538L367 528L272 638L150 528ZM448 -96Q448 -150 418.5 -185.5Q389 -221 344.5 -242Q300 -263 249 -271.5Q198 -280 154 -280Q74 -280 25.5 -250.5Q-23 -221 -23 -165Q-23 -114 14.5 -79.5Q52 -45 106 -30Q90 -26 72.5 -10Q55 6 55 40Q55 72 75.5 101Q96 130 119 150Q87 171 68.5 205.5Q50 240 50 289Q50 331 63 366.5Q76 402 100.5 427.5Q125 453 160 467.5Q195 482 240 482Q257 482 277 479.5Q297 477 311 472L475 480L480 478L472 423L352 438Q383 416 395.5 382.5Q408 349 408 315Q408 227 358 175Q308 123 218 123Q198 123 178 127Q158 131 145 137Q135 124 123.5 104.5Q112 85 112 61Q112 41 125.5 27.5Q139 14 182 12L333 5Q387 3 417.5 -27Q448 -57 448 -96ZM242 448Q185 448 158 416.5Q131 385 124 323Q120 287 119.5 274Q119 261 119 256Q120 204 146.5 182Q173 160 218 160Q242 160 261.5 165Q281 170 296 183.5Q311 197 320.5 221Q330 245 334 282Q337 311 338 325Q339 339 339 347Q339 392 317.5 420Q296 448 242 448ZM181 -243Q207 -243 241.5 -238.5Q276 -234 307 -221.5Q338 -209 359.5 -187.5Q381 -166 381 -131Q381 -93 357.5 -76.5Q334 -60 292 -58Q266 -57 240 -55.5Q214 -54 193 -52.5Q172 -51 157 -50Q142 -49 137 -49Q121 -49 104 -55.5Q87 -62 72.5 -74.5Q58 -87 48.5 -105Q39 -123 39 -146Q39 -161 43.5 -178.5Q48 -196 63 -210Q78 -224 106 -233.5Q134 -243 181 -243Z" glyph-name="gcircumflex" horiz-adv-x="465" unicode="ĝ" /><glyph d="M603 896Q603 834 564 799.5Q525 765 469 765Q413 765 383 799Q353 833 368 896L404 901Q399 858 418.5 840.5Q438 823 476 823Q514 823 538.5 840.5Q563 858 568 901ZM387 -10Q313 -10 252.5 13.5Q192 37 149.5 79Q107 121 84 178.5Q61 236 61 304Q61 406 93.5 482Q126 558 181.5 609Q237 660 312 685Q387 710 471 710Q493 710 521.5 708Q550 706 580.5 702Q611 698 640.5 693.5Q670 689 694 683L668 505H621L622 645Q588 653 543.5 658Q499 663 465 663Q386 663 325.5 637Q265 611 224 564Q183 517 161.5 451.5Q140 386 140 307Q140 246 160.5 196Q181 146 218.5 111Q256 76 308 57Q360 38 422 38Q449 38 473 40.5Q497 43 515 46Q535 50 553 54L580 269H445L450 316H734L729 269H653L623 28Q623 28 607 22Q591 16 560.5 9Q530 2 486 -4Q442 -10 387 -10Z" glyph-name="Gbreve" horiz-adv-x="750" unicode="Ğ" /><glyph d="M381 668Q381 606 342 571.5Q303 537 247 537Q191 537 161 571Q131 605 146 668L182 673Q177 630 196.5 612.5Q216 595 254 595Q292 595 316.5 612.5Q341 630 346 673ZM448 -96Q448 -150 418.5 -185.5Q389 -221 344.5 -242Q300 -263 249 -271.5Q198 -280 154 -280Q74 -280 25.5 -250.5Q-23 -221 -23 -165Q-23 -114 14.5 -79.5Q52 -45 106 -30Q90 -26 72.5 -10Q55 6 55 40Q55 72 75.5 101Q96 130 119 150Q87 171 68.5 205.5Q50 240 50 289Q50 331 63 366.5Q76 402 100.5 427.5Q125 453 160 467.5Q195 482 240 482Q257 482 277 479.5Q297 477 311 472L475 480L480 478L472 423L352 438Q383 416 395.5 382.5Q408 349 408 315Q408 227 358 175Q308 123 218 123Q198 123 178 127Q158 131 145 137Q135 124 123.5 104.5Q112 85 112 61Q112 41 125.5 27.5Q139 14 182 12L333 5Q387 3 417.5 -27Q448 -57 448 -96ZM242 448Q185 448 158 416.5Q131 385 124 323Q120 287 119.5 274Q119 261 119 256Q120 204 146.5 182Q173 160 218 160Q242 160 261.5 165Q281 170 296 183.5Q311 197 320.5 221Q330 245 334 282Q337 311 338 325Q339 339 339 347Q339 392 317.5 420Q296 448 242 448ZM181 -243Q207 -243 241.5 -238.5Q276 -234 307 -221.5Q338 -209 359.5 -187.5Q381 -166 381 -131Q381 -93 357.5 -76.5Q334 -60 292 -58Q266 -57 240 -55.5Q214 -54 193 -52.5Q172 -51 157 -50Q142 -49 137 -49Q121 -49 104 -55.5Q87 -62 72.5 -74.5Q58 -87 48.5 -105Q39 -123 39 -146Q39 -161 43.5 -178.5Q48 -196 63 -210Q78 -224 106 -233.5Q134 -243 181 -243Z" glyph-name="gbreve" horiz-adv-x="465" unicode="ğ" /><glyph d="M437 907 535 907L522 800H424ZM387 -10Q313 -10 252.5 13.5Q192 37 149.5 79Q107 121 84 178.5Q61 236 61 304Q61 406 93.5 482Q126 558 181.5 609Q237 660 312 685Q387 710 471 710Q493 710 521.5 708Q550 706 580.5 702Q611 698 640.5 693.5Q670 689 694 683L668 505H621L622 645Q588 653 543.5 658Q499 663 465 663Q386 663 325.5 637Q265 611 224 564Q183 517 161.5 451.5Q140 386 140 307Q140 246 160.5 196Q181 146 218.5 111Q256 76 308 57Q360 38 422 38Q449 38 473 40.5Q497 43 515 46Q535 50 553 54L580 269H445L450 316H734L729 269H653L623 28Q623 28 607 22Q591 16 560.5 9Q530 2 486 -4Q442 -10 387 -10Z" glyph-name="Gdotaccent" horiz-adv-x="750" unicode="Ġ" /><glyph d="M225 679 323 679L310 572H212ZM448 -96Q448 -150 418.5 -185.5Q389 -221 344.5 -242Q300 -263 249 -271.5Q198 -280 154 -280Q74 -280 25.5 -250.5Q-23 -221 -23 -165Q-23 -114 14.5 -79.5Q52 -45 106 -30Q90 -26 72.5 -10Q55 6 55 40Q55 72 75.5 101Q96 130 119 150Q87 171 68.5 205.5Q50 240 50 289Q50 331 63 366.5Q76 402 100.5 427.5Q125 453 160 467.5Q195 482 240 482Q257 482 277 479.5Q297 477 311 472L475 480L480 478L472 423L352 438Q383 416 395.5 382.5Q408 349 408 315Q408 227 358 175Q308 123 218 123Q198 123 178 127Q158 131 145 137Q135 124 123.5 104.5Q112 85 112 61Q112 41 125.5 27.5Q139 14 182 12L333 5Q387 3 417.5 -27Q448 -57 448 -96ZM242 448Q185 448 158 416.5Q131 385 124 323Q120 287 119.5 274Q119 261 119 256Q120 204 146.5 182Q173 160 218 160Q242 160 261.5 165Q281 170 296 183.5Q311 197 320.5 221Q330 245 334 282Q337 311 338 325Q339 339 339 347Q339 392 317.5 420Q296 448 242 448ZM181 -243Q207 -243 241.5 -238.5Q276 -234 307 -221.5Q338 -209 359.5 -187.5Q381 -166 381 -131Q381 -93 357.5 -76.5Q334 -60 292 -58Q266 -57 240 -55.5Q214 -54 193 -52.5Q172 -51 157 -50Q142 -49 137 -49Q121 -49 104 -55.5Q87 -62 72.5 -74.5Q58 -87 48.5 -105Q39 -123 39 -146Q39 -161 43.5 -178.5Q48 -196 63 -210Q78 -224 106 -233.5Q134 -243 181 -243Z" glyph-name="gdotaccent" horiz-adv-x="465" unicode="ġ" /><glyph d="M387 -10Q313 -10 252.5 13.5Q192 37 149.5 79Q107 121 84 178.5Q61 236 61 304Q61 406 93.5 482Q126 558 181.5 609Q237 660 312 685Q387 710 471 710Q493 710 521.5 708Q550 706 580.5 702Q611 698 640.5 693.5Q670 689 694 683L668 505H621L622 645Q588 653 543.5 658Q499 663 465 663Q386 663 325.5 637Q265 611 224 564Q183 517 161.5 451.5Q140 386 140 307Q140 246 160.5 196Q181 146 218.5 111Q256 76 308 57Q360 38 422 38Q449 38 473 40.5Q497 43 515 46Q535 50 553 54L580 269H445L450 316H734L729 269H653L623 28Q623 28 607 22Q591 16 560.5 9Q530 2 486 -4Q442 -10 387 -10ZM330 -57 413 -57L410 -75L292 -250H248Z" glyph-name="Gcommaaccent" horiz-adv-x="750" unicode="Ģ" /><glyph d="M322 551 242 551L244 565L378 773H421ZM448 -96Q448 -150 418.5 -185.5Q389 -221 344.5 -242Q300 -263 249 -271.5Q198 -280 154 -280Q74 -280 25.5 -250.5Q-23 -221 -23 -165Q-23 -114 14.5 -79.5Q52 -45 106 -30Q90 -26 72.5 -10Q55 6 55 40Q55 72 75.5 101Q96 130 119 150Q87 171 68.5 205.5Q50 240 50 289Q50 331 63 366.5Q76 402 100.5 427.5Q125 453 160 467.5Q195 482 240 482Q257 482 277 479.5Q297 477 311 472L475 480L480 478L472 423L352 438Q383 416 395.5 382.5Q408 349 408 315Q408 227 358 175Q308 123 218 123Q198 123 178 127Q158 131 145 137Q135 124 123.5 104.5Q112 85 112 61Q112 41 125.5 27.5Q139 14 182 12L333 5Q387 3 417.5 -27Q448 -57 448 -96ZM242 448Q185 448 158 416.5Q131 385 124 323Q120 287 119.5 274Q119 261 119 256Q120 204 146.5 182Q173 160 218 160Q242 160 261.5 165Q281 170 296 183.5Q311 197 320.5 221Q330 245 334 282Q337 311 338 325Q339 339 339 347Q339 392 317.5 420Q296 448 242 448ZM181 -243Q207 -243 241.5 -238.5Q276 -234 307 -221.5Q338 -209 359.5 -187.5Q381 -166 381 -131Q381 -93 357.5 -76.5Q334 -60 292 -58Q266 -57 240 -55.5Q214 -54 193 -52.5Q172 -51 157 -50Q142 -49 137 -49Q121 -49 104 -55.5Q87 -62 72.5 -74.5Q58 -87 48.5 -105Q39 -123 39 -146Q39 -161 43.5 -178.5Q48 -196 63 -210Q78 -224 106 -233.5Q134 -243 181 -243Z" glyph-name="gcommaaccent" horiz-adv-x="465" unicode="ģ" /><glyph d="M344 766 494 938H540L650 766L604 756L509 866L387 756ZM19 47 114 47L189 653H94L99 700H363L358 653H262L227 373H613L648 653H552L557 700H821L816 653H721L645 47H741L736 0H472L477 47H573L608 326H222L187 47H283L278 0H14Z" glyph-name="Hcircumflex" horiz-adv-x="807" unicode="Ĥ" /><glyph d="M129 788 279 960H325L435 788L389 778L294 888L172 778ZM152 328Q179 358 206.5 385.5Q234 413 259.5 434.5Q285 456 307.5 469Q330 482 347 482Q405 482 428 457Q451 432 451 387Q451 380 450.5 373Q450 366 449 358L408 44L485 60L481 20L360 -10L339 7Q352 107 362 187Q368 235 371.5 263Q375 291 378 315.5Q381 340 383 357Q385 374 385 376Q385 399 370.5 413Q356 427 331 427Q304 427 258.5 388.5Q213 350 149 288L115 1L46 -10L133 692L55 702L60 742H207Z" glyph-name="hcircumflex" horiz-adv-x="528" unicode="ĥ" /><glyph d="M278 0 14 0L19 47H114L169 494H104L110 541H175L189 653H94L99 700H363L358 653H262L248 541H634L648 653H552L557 700H821L816 653H721L707 541H772L766 494H701L645 47H741L736 0H472L477 47H573L608 326H222L187 47H283ZM613 373 628 494H242L227 373Z" glyph-name="Hbar" horiz-adv-x="807" unicode="Ħ" /><glyph d="M360 -10 339 7Q352 107 362 187Q368 235 371.5 263Q375 291 378 315.5Q381 340 383 357Q385 374 385 376Q385 399 370.5 413Q356 427 331 427Q304 427 258.5 388.5Q213 350 149 288L115 1L46 -10L118 573H63L68 608H123L133 692L55 702L60 742H207L189 608H299L294 573H185L152 328Q179 358 206.5 385.5Q234 413 259.5 434.5Q285 456 307.5 469Q330 482 347 482Q405 482 428 457Q451 432 451 387Q451 380 450.5 373Q450 366 449 358L408 44L485 60L481 20Z" glyph-name="hbar" horiz-adv-x="528" unicode="ħ" /><glyph d="M213 833Q196 833 182.5 820Q169 807 160 785H129Q142 834 168 861Q194 888 222 888Q239 888 258 881.5Q277 875 295 867.5Q313 860 328.5 853.5Q344 847 354 847Q372 847 385 860Q398 873 407 895H438Q425 846 399 819Q373 792 345 792Q327 792 308.5 798.5Q290 805 272.5 812.5Q255 820 240 826.5Q225 833 213 833ZM11 47 127 47L202 653H86L91 700H397L392 653H275L200 47H317L312 0H6Z" glyph-name="Itilde" horiz-adv-x="375" unicode="Ĩ" /><glyph d="M88 605Q71 605 57.5 592Q44 579 35 557H4Q17 606 43 633Q69 660 97 660Q114 660 133 653.5Q152 647 170 639.5Q188 632 203.5 625.5Q219 619 229 619Q247 619 260 632Q273 645 282 667H313Q300 618 274 591Q248 564 220 564Q202 564 183.5 570.5Q165 577 147.5 584.5Q130 592 115 598.5Q100 605 88 605ZM68 7 132 432H51L55 472L204 482L140 46L233 60L229 23L89 -10Z" glyph-name="itilde" horiz-adv-x="272" unicode="ĩ" /><glyph d="M157 838 420 838L414 786H150ZM11 47 127 47L202 653H86L91 700H397L392 653H275L200 47H317L312 0H6Z" glyph-name="Imacron" horiz-adv-x="375" unicode="Ī" /><glyph d="M34 610 297 610L291 558H27ZM68 7 132 432H51L55 472L204 482L140 46L233 60L229 23L89 -10Z" glyph-name="imacron" horiz-adv-x="272" unicode="ī" /><glyph d="M414 896Q414 834 375 799.5Q336 765 280 765Q224 765 194 799Q164 833 179 896L215 901Q210 858 229.5 840.5Q249 823 287 823Q325 823 349.5 840.5Q374 858 379 901ZM11 47 127 47L202 653H86L91 700H397L392 653H275L200 47H317L312 0H6Z" glyph-name="Ibreve" horiz-adv-x="375" unicode="Ĭ" /><glyph d="M291 668Q291 606 252 571.5Q213 537 157 537Q101 537 71 571Q41 605 56 668L92 673Q87 630 106.5 612.5Q126 595 164 595Q202 595 226.5 612.5Q251 630 256 673ZM68 7 132 432H51L55 472L204 482L140 46L233 60L229 23L89 -10Z" glyph-name="ibreve" horiz-adv-x="272" unicode="ĭ" /><glyph d="M172 -196Q136 -210 107 -210Q72 -210 48.5 -198.5Q25 -187 25 -156Q25 -138 38 -117Q51 -96 71.5 -75.5Q92 -55 117 -35.5Q142 -16 166 0H6L11 47H127L202 653H86L91 700H397L392 653H275L200 47H317L312 0H200Q181 -15 161.5 -34.5Q142 -54 126 -73.5Q110 -93 100 -112Q90 -131 90 -146Q90 -163 102.5 -169Q115 -175 136 -175Q144 -175 156 -173Q168 -171 179 -168Z" glyph-name="Iogonek" horiz-adv-x="375" unicode="Į" /><glyph d="M153 689 229 689L216 582H140ZM86 -196Q50 -210 21 -210Q-14 -210 -37.5 -198.5Q-61 -187 -61 -156Q-61 -138 -48.5 -117Q-36 -96 -15.5 -75.5Q5 -55 29.5 -36Q54 -17 78 -1L68 7L132 432H51L55 472L204 482L140 46L233 60L229 23L107 -6Q89 -21 70.5 -39.5Q52 -58 37.5 -77Q23 -96 13.5 -114Q4 -132 4 -146Q4 -163 16.5 -169Q29 -175 50 -175Q58 -175 70 -173Q82 -171 93 -168Z" glyph-name="iogonek" horiz-adv-x="272" unicode="į" /><glyph d="M248 907 346 907L333 800H235ZM11 47 127 47L202 653H86L91 700H397L392 653H275L200 47H317L312 0H6Z" glyph-name="Idotaccent" horiz-adv-x="375" unicode="İ" /><glyph d="M68 7 132 432H51L55 472L204 482L140 46L233 60L229 23L89 -10Z" glyph-name="dotlessi" horiz-adv-x="272" unicode="ı" /><glyph d="M11 47 127 47L202 653H86L91 700H397L392 653H275L200 47H317L312 0H6ZM387 -149 473 -48L560 653H475L480 700H720L695 653H633L554 13Q551 -8 543 -29.5Q535 -51 519 -74Q503 -97 477.5 -122Q452 -147 414 -175Z" glyph-name="IJ" horiz-adv-x="704" unicode="Ĳ" /><glyph d="M153 689 229 689L216 582H140ZM426 689 502 689L489 582H413ZM68 7 132 432H51L55 472L204 482L140 46L233 60L229 23L89 -10ZM251 -235 329 -172L404 432H324L328 472L477 482L406 -95Q404 -110 400.5 -127.5Q397 -145 388 -162.5Q379 -180 363.5 -197Q348 -214 322 -230L274 -260Z" glyph-name="ij" horiz-adv-x="524" unicode="ĳ" /><glyph d="M105 766 255 938H301L411 766L365 756L270 866L148 756ZM8 -149 94 -48L181 653H96L101 700H341L316 653H254L175 13Q172 -8 164 -29.5Q156 -51 140 -74Q124 -97 98.5 -122Q73 -147 35 -175Z" glyph-name="Jcircumflex" horiz-adv-x="325" unicode="Ĵ" /><glyph d="M-5 538 145 710H191L301 538L255 528L160 638L38 528ZM-29 -235 49 -172L124 432H44L48 472L197 482L126 -95Q124 -110 120.5 -127.5Q117 -145 108 -162.5Q99 -180 83.5 -197Q68 -214 42 -230L-6 -260Z" glyph-name="jcircumflex" horiz-adv-x="244" unicode="ĵ" /><glyph d="M19 47 114 47L189 653H94L99 700H359L354 653H262L226 366H296L571 653H473L478 700H726L721 653H635L359 372L589 47H686L681 0H531L308 323H221L187 47H279L274 0H14ZM310 -57 393 -57L390 -75L272 -250H228Z" glyph-name="Kcommaaccent" horiz-adv-x="691" unicode="Ķ" /><glyph d="M132 692 54 702L59 742H206L148 274H222L376 432H290L294 472H496L492 432H431L265 265L398 40H476L472 0H345L210 235H143L113 0L46 -10ZM202 -57 285 -57L282 -75L164 -250H120Z" glyph-name="kcommaaccent" horiz-adv-x="497" unicode="ķ" /><glyph d="M122 422 44 432L49 472H196L166 257H255L420 432H332L336 472H538L534 432H483L303 249L460 40H520L516 0H407L250 218H161L135 0L68 -10Z" glyph-name="kgreenlandic" horiz-adv-x="540" unicode="ĸ" /><glyph d="M171 766 317 938L392 928L393 923L205 756ZM19 47 114 47L189 653H94L99 700H364L359 653H262L187 47H479L546 178H590L548 0H14Z" glyph-name="Lacute" horiz-adv-x="609" unicode="Ĺ" /><glyph d="M127 808 273 980L348 970L349 965L161 798ZM50 7 145 692L57 702L62 742H219L122 46L226 70L222 30L71 -10Z" glyph-name="lacute" horiz-adv-x="251" unicode="ĺ" /><glyph d="M19 47 114 47L189 653H94L99 700H364L359 653H262L187 47H479L546 178H590L548 0H14ZM262 -57 345 -57L342 -75L224 -250H180Z" glyph-name="Lcommaaccent" horiz-adv-x="609" unicode="Ļ" /><glyph d="M50 7 145 692L57 702L62 742H219L122 46L226 70L222 30L71 -10ZM76 -57 159 -57L156 -75L38 -250H-6Z" glyph-name="lcommaaccent" horiz-adv-x="251" unicode="ļ" /><glyph d="M19 47 114 47L189 653H94L99 700H364L359 653H262L187 47H479L546 178H590L548 0H14ZM548 700 630 700L628 682L495 474H451Z" glyph-name="Lcaron" horiz-adv-x="614" unicode="Ľ" /><glyph d="M50 7 145 692L57 702L62 742H219L122 46L226 70L222 30L71 -10ZM348 700 430 700L428 682L295 474H251Z" glyph-name="lcaron" horiz-adv-x="279" unicode="ľ" /><glyph d="M19 47 114 47L189 653H94L99 700H364L359 653H262L187 47H479L546 178H590L548 0H14ZM414 427 509 427L493 302H398Z" glyph-name="Ldot" horiz-adv-x="609" unicode="Ŀ" /><glyph d="M50 7 145 692L57 702L62 742H219L122 46L226 70L222 30L71 -10ZM270 327 365 327L349 202H254Z" glyph-name="ldot" horiz-adv-x="408" unicode="ŀ" /><glyph d="M548 0 14 0L19 47H114L136 228L51 193L57 245L143 280L189 653H94L99 700H364L359 653H262L220 312L447 406L440 354L213 260L187 47H479L546 178H590Z" glyph-name="Lslash" horiz-adv-x="609" unicode="Ł" /><glyph d="M78 -10 57 7L85 207L33 176L39 226L92 257L152 692L64 702L69 742H226L165 301L245 349L239 299L157 250L129 46L233 70L229 30Z" glyph-name="lslash" horiz-adv-x="286" unicode="ł" /><glyph d="M410 766 556 938L631 928L632 923L444 756ZM19 47 114 47L189 653H94L99 700H261L582 114L648 653H543L548 700H800L795 653H699L619 0H569L233 609L163 47H270L265 0H14Z" glyph-name="Nacute" horiz-adv-x="775" unicode="Ń" /><glyph d="M249 538 395 710L470 700L471 695L283 528ZM123 432 43 432L47 472L197 482L174 328Q201 358 228.5 385.5Q256 413 281.5 434.5Q307 456 329.5 469Q352 482 369 482Q427 482 450 457Q473 432 473 387Q473 380 472.5 373Q472 366 471 358L430 44L507 60L503 20L382 -10L361 7Q374 107 384 187Q390 235 393.5 263Q397 291 400 315.5Q403 340 405 357Q407 374 407 376Q407 399 392.5 413Q378 427 353 427Q326 427 280.5 388.5Q235 350 171 288L137 1L68 -10Z" glyph-name="nacute" horiz-adv-x="550" unicode="ń" /><glyph d="M19 47 114 47L189 653H94L99 700H261L582 114L648 653H543L548 700H800L795 653H699L619 0H569L233 609L163 47H270L265 0H14ZM340 -57 423 -57L420 -75L302 -250H258Z" glyph-name="Ncommaaccent" horiz-adv-x="775" unicode="Ņ" /><glyph d="M123 432 43 432L47 472L197 482L174 328Q201 358 228.5 385.5Q256 413 281.5 434.5Q307 456 329.5 469Q352 482 369 482Q427 482 450 457Q473 432 473 387Q473 380 472.5 373Q472 366 471 358L430 44L507 60L503 20L382 -10L361 7Q374 107 384 187Q390 235 393.5 263Q397 291 400 315.5Q403 340 405 357Q407 374 407 376Q407 399 392.5 413Q378 427 353 427Q326 427 280.5 388.5Q235 350 171 288L137 1L68 -10ZM207 -57 290 -57L287 -75L169 -250H125Z" glyph-name="ncommaaccent" horiz-adv-x="550" unicode="ņ" /><glyph d="M345 928 390 938L485 828L608 938L651 928L499 756H453ZM19 47 114 47L189 653H94L99 700H261L582 114L648 653H543L548 700H800L795 653H699L619 0H569L233 609L163 47H270L265 0H14Z" glyph-name="Ncaron" horiz-adv-x="775" unicode="Ň" /><glyph d="M184 700 229 710L324 600L447 710L490 700L338 528H292ZM123 432 43 432L47 472L197 482L174 328Q201 358 228.5 385.5Q256 413 281.5 434.5Q307 456 329.5 469Q352 482 369 482Q427 482 450 457Q473 432 473 387Q473 380 472.5 373Q472 366 471 358L430 44L507 60L503 20L382 -10L361 7Q374 107 384 187Q390 235 393.5 263Q397 291 400 315.5Q403 340 405 357Q407 374 407 376Q407 399 392.5 413Q378 427 353 427Q326 427 280.5 388.5Q235 350 171 288L137 1L68 -10Z" glyph-name="ncaron" horiz-adv-x="550" unicode="ň" /><glyph d="M231 780 313 780L311 762L178 554H134ZM123 432 43 432L47 472L197 482L174 328Q201 358 228.5 385.5Q256 413 281.5 434.5Q307 456 329.5 469Q352 482 369 482Q427 482 450 457Q473 432 473 387Q473 380 472.5 373Q472 366 471 358L430 44L507 60L503 20L382 -10L361 7Q374 107 384 187Q390 235 393.5 263Q397 291 400 315.5Q403 340 405 357Q407 374 407 376Q407 399 392.5 413Q378 427 353 427Q326 427 280.5 388.5Q235 350 171 288L137 1L68 -10Z" glyph-name="napostrophe" horiz-adv-x="550" unicode="ŉ" /><glyph d="M608 -101Q605 -122 597 -144Q589 -166 573 -189Q557 -212 531 -237Q505 -262 466 -290L438 -264L525 -163L549 36L233 609L163 47H270L265 0H14L19 47H114L189 653H94L99 700H261L582 114L648 653H543L548 700H800L795 653H699L631 98H632Z" glyph-name="Eng" horiz-adv-x="775" unicode="Ŋ" /><glyph d="M284 -260 261 -235L339 -172L361 7V7V9Q361 13 362 17L365 39V39Q368 61 372 94Q376 127 380.5 163.5Q385 200 390 236.5Q395 273 398.5 303Q402 333 404.5 353Q407 373 407 376Q407 399 392.5 413Q378 427 353 427Q326 427 280.5 388.5Q235 350 171 288L137 1L68 -10L123 432H43L47 472L197 482L174 328Q201 358 228.5 385.5Q256 413 281.5 434.5Q307 456 329.5 469Q352 482 369 482Q427 482 450 457Q473 432 473 387Q473 380 472.5 373Q472 366 471 358L430 44L507 60L503 20L426 1L414 -95Q412 -110 408.5 -127.5Q405 -145 396.5 -162.5Q388 -180 373 -197Q358 -214 332 -230Z" glyph-name="eng" horiz-adv-x="550" unicode="ŋ" /><glyph d="M320 838 583 838L577 786H313ZM325 -10Q262 -10 213 12Q164 34 130.5 74Q97 114 79 169Q61 224 61 290Q61 350 72 407Q85 474 113 530Q141 586 183 626Q225 666 279.5 688Q334 710 400 710Q463 710 512 688Q561 666 594.5 626Q628 586 646 531Q664 476 664 410Q664 351 653 293Q640 226 612 170Q584 114 542 74Q500 34 445.5 12Q391 -10 325 -10ZM325 35Q386 35 430.5 58Q475 81 505.5 119.5Q536 158 554 208Q572 258 581 312Q586 341 587.5 368Q589 395 589 424Q589 480 578.5 524.5Q568 569 545.5 600.5Q523 632 487 648.5Q451 665 400 665Q339 665 294.5 642Q250 619 219.5 580.5Q189 542 171 492Q153 442 144 388Q139 359 137.5 332Q136 305 136 276Q136 164 180 99.5Q224 35 325 35Z" glyph-name="Omacron" horiz-adv-x="697" unicode="Ō" /><glyph d="M157 610 420 610L414 558H150ZM221 -10Q176 -10 142.5 6Q109 22 86.5 50Q64 78 52.5 116Q41 154 41 198Q41 208 41 217.5Q41 227 43 238Q49 289 66 333.5Q83 378 111 411Q139 444 178.5 463Q218 482 267 482Q312 482 345.5 466Q379 450 401.5 421.5Q424 393 435.5 355Q447 317 447 273Q447 263 446.5 253Q446 243 445 233Q439 182 422 137.5Q405 93 376.5 60.5Q348 28 309 9Q270 -10 221 -10ZM223 26Q280 26 317.5 68.5Q355 111 367 211L373 260Q385 359 353.5 402.5Q322 446 265 446Q207 446 170 403.5Q133 361 121 261L115 211Q103 112 134 69Q165 26 223 26Z" glyph-name="omacron" horiz-adv-x="490" unicode="ō" /><glyph d="M577 896Q577 834 538 799.5Q499 765 443 765Q387 765 357 799Q327 833 342 896L378 901Q373 858 392.5 840.5Q412 823 450 823Q488 823 512.5 840.5Q537 858 542 901ZM325 -10Q262 -10 213 12Q164 34 130.5 74Q97 114 79 169Q61 224 61 290Q61 350 72 407Q85 474 113 530Q141 586 183 626Q225 666 279.5 688Q334 710 400 710Q463 710 512 688Q561 666 594.5 626Q628 586 646 531Q664 476 664 410Q664 351 653 293Q640 226 612 170Q584 114 542 74Q500 34 445.5 12Q391 -10 325 -10ZM325 35Q386 35 430.5 58Q475 81 505.5 119.5Q536 158 554 208Q572 258 581 312Q586 341 587.5 368Q589 395 589 424Q589 480 578.5 524.5Q568 569 545.5 600.5Q523 632 487 648.5Q451 665 400 665Q339 665 294.5 642Q250 619 219.5 580.5Q189 542 171 492Q153 442 144 388Q139 359 137.5 332Q136 305 136 276Q136 164 180 99.5Q224 35 325 35Z" glyph-name="Obreve" horiz-adv-x="697" unicode="Ŏ" /><glyph d="M414 668Q414 606 375 571.5Q336 537 280 537Q224 537 194 571Q164 605 179 668L215 673Q210 630 229.5 612.5Q249 595 287 595Q325 595 349.5 612.5Q374 630 379 673ZM221 -10Q176 -10 142.5 6Q109 22 86.5 50Q64 78 52.5 116Q41 154 41 198Q41 208 41 217.5Q41 227 43 238Q49 289 66 333.5Q83 378 111 411Q139 444 178.5 463Q218 482 267 482Q312 482 345.5 466Q379 450 401.5 421.5Q424 393 435.5 355Q447 317 447 273Q447 263 446.5 253Q446 243 445 233Q439 182 422 137.5Q405 93 376.5 60.5Q348 28 309 9Q270 -10 221 -10ZM223 26Q280 26 317.5 68.5Q355 111 367 211L373 260Q385 359 353.5 402.5Q322 446 265 446Q207 446 170 403.5Q133 361 121 261L115 211Q103 112 134 69Q165 26 223 26Z" glyph-name="obreve" horiz-adv-x="490" unicode="ŏ" /><glyph d="M315 766 461 938L536 928L537 923L349 756ZM510 766 656 938L731 928L732 923L544 756ZM325 -10Q262 -10 213 12Q164 34 130.5 74Q97 114 79 169Q61 224 61 290Q61 350 72 407Q85 474 113 530Q141 586 183 626Q225 666 279.5 688Q334 710 400 710Q463 710 512 688Q561 666 594.5 626Q628 586 646 531Q664 476 664 410Q664 351 653 293Q640 226 612 170Q584 114 542 74Q500 34 445.5 12Q391 -10 325 -10ZM325 35Q386 35 430.5 58Q475 81 505.5 119.5Q536 158 554 208Q572 258 581 312Q586 341 587.5 368Q589 395 589 424Q589 480 578.5 524.5Q568 569 545.5 600.5Q523 632 487 648.5Q451 665 400 665Q339 665 294.5 642Q250 619 219.5 580.5Q189 542 171 492Q153 442 144 388Q139 359 137.5 332Q136 305 136 276Q136 164 180 99.5Q224 35 325 35Z" glyph-name="Ohungarumlaut" horiz-adv-x="697" unicode="Ő" /><glyph d="M152 538 298 710L373 700L374 695L186 528ZM347 538 493 710L568 700L569 695L381 528ZM221 -10Q176 -10 142.5 6Q109 22 86.5 50Q64 78 52.5 116Q41 154 41 198Q41 208 41 217.5Q41 227 43 238Q49 289 66 333.5Q83 378 111 411Q139 444 178.5 463Q218 482 267 482Q312 482 345.5 466Q379 450 401.5 421.5Q424 393 435.5 355Q447 317 447 273Q447 263 446.5 253Q446 243 445 233Q439 182 422 137.5Q405 93 376.5 60.5Q348 28 309 9Q270 -10 221 -10ZM223 26Q280 26 317.5 68.5Q355 111 367 211L373 260Q385 359 353.5 402.5Q322 446 265 446Q207 446 170 403.5Q133 361 121 261L115 211Q103 112 134 69Q165 26 223 26Z" glyph-name="ohungarumlaut" horiz-adv-x="490" unicode="ő" /><glyph d="M65 360Q76 449 111 513Q146 577 198.5 618.5Q251 660 317.5 680Q384 700 457 700H1015L993 520H949L936 653H669L634 373H788L810 468H857L827 227H780L784 326H629L594 47H901L957 178H1002L970 0H371Q298 0 236.5 20.5Q175 41 133 83Q91 125 71.5 190Q52 255 63 344ZM138 340Q127 253 143 196Q159 139 194.5 106Q230 73 280.5 60Q331 47 390 47H523L597 653H464Q405 653 351 639.5Q297 626 254 592Q211 558 181 500.5Q151 443 140 356Z" glyph-name="OE" horiz-adv-x="1039" unicode="Œ" /><glyph d="M718 54Q700 42 676 30.5Q652 19 626.5 10Q601 1 576 -4.5Q551 -10 531 -10Q473 -10 439 12.5Q405 35 388 76Q359 36 317.5 13Q276 -10 221 -10Q176 -10 142.5 6Q109 22 86.5 50Q64 78 52.5 116Q41 154 41 198Q41 208 41 217.5Q41 227 43 238Q49 289 66 333.5Q83 378 111 411Q139 444 178.5 463Q218 482 267 482Q326 482 365.5 454.5Q405 427 426 382Q455 427 500.5 454.5Q546 482 609 482Q647 482 673.5 470.5Q700 459 716.5 439.5Q733 420 740.5 393.5Q748 367 748 337Q748 324 746.5 310Q745 296 742 284H455Q452 271 450 257Q448 243 446.5 226.5Q445 210 445 190Q445 115 474.5 78Q504 41 572 41Q591 41 618 49.5Q645 58 670 68Q700 80 731 95ZM674 321Q675 329 675.5 336Q676 343 676 350Q676 398 657.5 423Q639 448 590 448Q535 448 506 413Q477 378 461 311ZM223 26Q280 26 317.5 68.5Q355 111 367 211L373 260Q385 359 353.5 402.5Q322 446 265 446Q207 446 170 403.5Q133 361 121 261L115 211Q103 112 134 69Q165 26 223 26Z" glyph-name="oe" horiz-adv-x="787" unicode="œ" /><glyph d="M361 766 507 938L582 928L583 923L395 756ZM19 47 114 47L189 653H94L99 700H406Q451 700 486 687.5Q521 675 544.5 653Q568 631 580 601.5Q592 572 592 539Q592 493 575.5 457Q559 421 533 394.5Q507 368 473.5 350.5Q440 333 406 323L593 47H680L675 0H540L338 305L219 312L187 47H294L289 0H14ZM344 351Q371 351 401 359.5Q431 368 456.5 388Q482 408 499 441Q516 474 516 524Q516 587 476.5 620Q437 653 367 653H261L224 351Z" glyph-name="Racute" horiz-adv-x="667" unicode="Ŕ" /><glyph d="M183 538 329 710L404 700L405 695L217 528ZM124 432 44 432L48 472L198 482L180 365L246 423Q281 454 304.5 468Q328 482 349 482Q358 482 365 480Q372 478 378 476Q384 473 389 470L381 407Q373 408 364 409Q355 409 345 409.5Q335 410 324 410Q311 410 294 403.5Q277 397 257.5 386.5Q238 376 217.5 362.5Q197 349 179 334L137 0L67 -10Z" glyph-name="racute" horiz-adv-x="375" unicode="ŕ" /><glyph d="M19 47 114 47L189 653H94L99 700H406Q451 700 486 687.5Q521 675 544.5 653Q568 631 580 601.5Q592 572 592 539Q592 493 575.5 457Q559 421 533 394.5Q507 368 473.5 350.5Q440 333 406 323L593 47H680L675 0H540L338 305L219 312L187 47H294L289 0H14ZM344 351Q371 351 401 359.5Q431 368 456.5 388Q482 408 499 441Q516 474 516 524Q516 587 476.5 620Q437 653 367 653H261L224 351ZM291 -57 374 -57L371 -75L253 -250H209Z" glyph-name="Rcommaaccent" horiz-adv-x="667" unicode="Ŗ" /><glyph d="M124 432 44 432L48 472L198 482L180 365L246 423Q281 454 304.5 468Q328 482 349 482Q358 482 365 480Q372 478 378 476Q384 473 389 470L381 407Q373 408 364 409Q355 409 345 409.5Q335 410 324 410Q311 410 294 403.5Q277 397 257.5 386.5Q238 376 217.5 362.5Q197 349 179 334L137 0L67 -10ZM59 -57 142 -57L139 -75L21 -250H-23Z" glyph-name="rcommaaccent" horiz-adv-x="375" unicode="ŗ" /><glyph d="M296 928 341 938L436 828L559 938L602 928L450 756H404ZM19 47 114 47L189 653H94L99 700H406Q451 700 486 687.5Q521 675 544.5 653Q568 631 580 601.5Q592 572 592 539Q592 493 575.5 457Q559 421 533 394.5Q507 368 473.5 350.5Q440 333 406 323L593 47H680L675 0H540L338 305L219 312L187 47H294L289 0H14ZM344 351Q371 351 401 359.5Q431 368 456.5 388Q482 408 499 441Q516 474 516 524Q516 587 476.5 620Q437 653 367 653H261L224 351Z" glyph-name="Rcaron" horiz-adv-x="667" unicode="Ř" /><glyph d="M118 700 163 710L258 600L381 710L424 700L272 528H226ZM124 432 44 432L48 472L198 482L180 365L246 423Q281 454 304.5 468Q328 482 349 482Q358 482 365 480Q372 478 378 476Q384 473 389 470L381 407Q373 408 364 409Q355 409 345 409.5Q335 410 324 410Q311 410 294 403.5Q277 397 257.5 386.5Q238 376 217.5 362.5Q197 349 179 334L137 0L67 -10Z" glyph-name="rcaron" horiz-adv-x="375" unicode="ř" /><glyph d="M277 766 423 938L498 928L499 923L311 756ZM221 -10Q178 -10 130.5 -4.5Q83 1 44 13L60 184H104L125 51Q145 43 173.5 38.5Q202 34 229 34Q310 34 353 70.5Q396 107 396 167Q396 204 373.5 232Q351 260 317 284Q283 308 244 330.5Q205 353 171 379.5Q137 406 114.5 438.5Q92 471 92 515Q92 547 103 581.5Q114 616 139.5 644.5Q165 673 207 691.5Q249 710 312 710Q345 710 373 707Q401 704 423 701Q447 696 468 691L442 520H397L388 653Q389 653 363 660Q337 667 295 667Q268 667 242.5 660.5Q217 654 198 639Q179 624 167.5 600.5Q156 577 156 544Q156 507 178.5 479Q201 451 234.5 426.5Q268 402 307 379.5Q346 357 379.5 331Q413 305 435.5 273Q458 241 458 199Q458 152 441 113.5Q424 75 393 47.5Q362 20 318 5Q274 -10 221 -10Z" glyph-name="Sacute" horiz-adv-x="508" unicode="Ś" /><glyph d="M180 538 326 710L401 700L402 695L214 528ZM170 -10Q131 -10 90.5 -2Q50 6 24 15L39 139H77L84 42Q94 37 107 34Q118 30 133 27.5Q148 25 166 25Q226 25 261 46.5Q296 68 296 114Q296 140 279 157.5Q262 175 236 188.5Q210 202 180.5 214Q151 226 125 242Q99 258 82 280.5Q65 303 65 336Q65 365 76.5 391.5Q88 418 112 438Q136 458 171.5 470Q207 482 255 482Q277 482 298 480Q319 478 336 475Q357 472 375 468L363 347H325L315 439Q306 441 295 443Q285 445 273 446Q261 447 246 447Q225 447 203.5 443.5Q182 440 165 431Q148 422 137 405.5Q126 389 126 363Q126 338 143.5 320.5Q161 303 186.5 289Q212 275 242.5 262Q273 249 298.5 232.5Q324 216 341.5 193.5Q359 171 359 138Q359 100 343.5 72Q328 44 301.5 26Q275 8 241 -1Q207 -10 170 -10Z" glyph-name="sacute" horiz-adv-x="413" unicode="ś" /><glyph d="M192 766 342 938H388L498 766L452 756L357 866L235 756ZM221 -10Q178 -10 130.5 -4.5Q83 1 44 13L60 184H104L125 51Q145 43 173.5 38.5Q202 34 229 34Q310 34 353 70.5Q396 107 396 167Q396 204 373.5 232Q351 260 317 284Q283 308 244 330.5Q205 353 171 379.5Q137 406 114.5 438.5Q92 471 92 515Q92 547 103 581.5Q114 616 139.5 644.5Q165 673 207 691.5Q249 710 312 710Q345 710 373 707Q401 704 423 701Q447 696 468 691L442 520H397L388 653Q389 653 363 660Q337 667 295 667Q268 667 242.5 660.5Q217 654 198 639Q179 624 167.5 600.5Q156 577 156 544Q156 507 178.5 479Q201 451 234.5 426.5Q268 402 307 379.5Q346 357 379.5 331Q413 305 435.5 273Q458 241 458 199Q458 152 441 113.5Q424 75 393 47.5Q362 20 318 5Q274 -10 221 -10Z" glyph-name="Scircumflex" horiz-adv-x="508" unicode="Ŝ" /><glyph d="M95 538 245 710H291L401 538L355 528L260 638L138 528ZM170 -10Q131 -10 90.5 -2Q50 6 24 15L39 139H77L84 42Q94 37 107 34Q118 30 133 27.5Q148 25 166 25Q226 25 261 46.5Q296 68 296 114Q296 140 279 157.5Q262 175 236 188.5Q210 202 180.5 214Q151 226 125 242Q99 258 82 280.5Q65 303 65 336Q65 365 76.5 391.5Q88 418 112 438Q136 458 171.5 470Q207 482 255 482Q277 482 298 480Q319 478 336 475Q357 472 375 468L363 347H325L315 439Q306 441 295 443Q285 445 273 446Q261 447 246 447Q225 447 203.5 443.5Q182 440 165 431Q148 422 137 405.5Q126 389 126 363Q126 338 143.5 320.5Q161 303 186.5 289Q212 275 242.5 262Q273 249 298.5 232.5Q324 216 341.5 193.5Q359 171 359 138Q359 100 343.5 72Q328 44 301.5 26Q275 8 241 -1Q207 -10 170 -10Z" glyph-name="scircumflex" horiz-adv-x="413" unicode="ŝ" /><glyph d="M335 -161Q335 -184 325 -202.5Q315 -221 298 -234Q281 -247 258 -254Q235 -261 209 -261Q169 -261 145 -251Q121 -241 116 -237L125 -207Q133 -212 154 -218.5Q175 -225 193 -225Q231 -225 252 -210Q273 -195 273 -167Q273 -148 262.5 -135.5Q252 -123 236.5 -115.5Q221 -108 201.5 -105.5Q182 -103 164 -103L232 -10H221Q178 -10 130.5 -4.5Q83 1 44 13L60 184H104L125 51Q145 43 173.5 38.5Q202 34 229 34Q310 34 353 70.5Q396 107 396 167Q396 204 373.5 232Q351 260 317 284Q283 308 244 330.5Q205 353 171 379.5Q137 406 114.5 438.5Q92 471 92 515Q92 547 103 581.5Q114 616 139.5 644.5Q165 673 207 691.5Q249 710 312 710Q345 710 373 707Q401 704 423 701Q447 696 468 691L442 520H397L388 653Q389 653 363 660Q337 667 295 667Q268 667 242.5 660.5Q217 654 198 639Q179 624 167.5 600.5Q156 577 156 544Q156 507 178.5 479Q201 451 234.5 426.5Q268 402 307 379.5Q346 357 379.5 331Q413 305 435.5 273Q458 241 458 199Q458 115 407 60.5Q356 6 269 -7L233 -72Q259 -74 278 -82.5Q297 -91 310 -103.5Q323 -116 329 -131Q335 -146 335 -161Z" glyph-name="Scedilla" horiz-adv-x="508" unicode="Ş" /><glyph d="M266 -161Q266 -184 256 -202.5Q246 -221 229 -234Q212 -247 189 -254Q166 -261 140 -261Q100 -261 76 -251Q52 -241 47 -237L56 -207Q64 -212 85 -218.5Q106 -225 124 -225Q162 -225 183 -210Q204 -195 204 -167Q204 -148 193.5 -135.5Q183 -123 167.5 -115.5Q152 -108 132.5 -105.5Q113 -103 95 -103L163 -10Q125 -9 87 -1Q49 7 24 15L39 139H77L84 42Q94 37 107 34Q118 30 133 27.5Q148 25 166 25Q226 25 261 46.5Q296 68 296 114Q296 140 279 157.5Q262 175 236 188.5Q210 202 180.5 214Q151 226 125 242Q99 258 82 280.5Q65 303 65 336Q65 365 76.5 391.5Q88 418 112 438Q136 458 171.5 470Q207 482 255 482Q277 482 298 480Q319 478 336 475Q357 472 375 468L363 347H325L315 439Q306 441 295 443Q285 445 273 446Q261 447 246 447Q225 447 203.5 443.5Q182 440 165 431Q148 422 137 405.5Q126 389 126 363Q126 338 143.5 320.5Q161 303 186.5 289Q212 275 242.5 262Q273 249 298.5 232.5Q324 216 341.5 193.5Q359 171 359 138Q359 104 346 78Q333 52 311 34Q289 16 260 5Q231 -6 199 -9L164 -72Q190 -74 209 -82.5Q228 -91 241 -103.5Q254 -116 260 -131Q266 -146 266 -161Z" glyph-name="scedilla" horiz-adv-x="413" unicode="ş" /><glyph d="M212 928 257 938L352 828L475 938L518 928L366 756H320ZM221 -10Q178 -10 130.5 -4.5Q83 1 44 13L60 184H104L125 51Q145 43 173.5 38.5Q202 34 229 34Q310 34 353 70.5Q396 107 396 167Q396 204 373.5 232Q351 260 317 284Q283 308 244 330.5Q205 353 171 379.5Q137 406 114.5 438.5Q92 471 92 515Q92 547 103 581.5Q114 616 139.5 644.5Q165 673 207 691.5Q249 710 312 710Q345 710 373 707Q401 704 423 701Q447 696 468 691L442 520H397L388 653Q389 653 363 660Q337 667 295 667Q268 667 242.5 660.5Q217 654 198 639Q179 624 167.5 600.5Q156 577 156 544Q156 507 178.5 479Q201 451 234.5 426.5Q268 402 307 379.5Q346 357 379.5 331Q413 305 435.5 273Q458 241 458 199Q458 152 441 113.5Q424 75 393 47.5Q362 20 318 5Q274 -10 221 -10Z" glyph-name="Scaron" horiz-adv-x="508" unicode="Š" /><glyph d="M115 700 160 710L255 600L378 710L421 700L269 528H223ZM170 -10Q131 -10 90.5 -2Q50 6 24 15L39 139H77L84 42Q94 37 107 34Q118 30 133 27.5Q148 25 166 25Q226 25 261 46.5Q296 68 296 114Q296 140 279 157.5Q262 175 236 188.5Q210 202 180.5 214Q151 226 125 242Q99 258 82 280.5Q65 303 65 336Q65 365 76.5 391.5Q88 418 112 438Q136 458 171.5 470Q207 482 255 482Q277 482 298 480Q319 478 336 475Q357 472 375 468L363 347H325L315 439Q306 441 295 443Q285 445 273 446Q261 447 246 447Q225 447 203.5 443.5Q182 440 165 431Q148 422 137 405.5Q126 389 126 363Q126 338 143.5 320.5Q161 303 186.5 289Q212 275 242.5 262Q273 249 298.5 232.5Q324 216 341.5 193.5Q359 171 359 138Q359 100 343.5 72Q328 44 301.5 26Q275 8 241 -1Q207 -10 170 -10Z" glyph-name="scaron" horiz-adv-x="413" unicode="š" /><glyph d="M130 47 256 47L331 653H151L103 520H60L82 700H664L642 520H598L585 653H404L329 47H455L450 0H126ZM244 -57 327 -57L324 -75L206 -250H162Z" glyph-name="Tcommaaccent" horiz-adv-x="633" unicode="Ţ" /><glyph d="M162 -10Q137 -10 120.5 -3.5Q104 3 95 14.5Q86 26 82.5 41Q79 56 79 72Q79 74 79 77Q79 80 79.5 86.5Q80 93 81.5 104.5Q83 116 85 135L122 432H55L59 468L129 481L146 621H212L193 472H336L327 432H189L150 123Q148 103 147.5 96.5Q147 90 147 85Q147 39 194 39Q225 39 255 47Q285 55 303 64L299 32Q279 20 257 11Q236 2 212 -4Q188 -10 162 -10ZM123 -57 206 -57L203 -75L85 -250H41Z" glyph-name="tcommaaccent" horiz-adv-x="331" unicode="ţ" /><glyph d="M249 928 294 938L389 828L512 938L555 928L403 756H357ZM130 47 256 47L331 653H151L103 520H60L82 700H664L642 520H598L585 653H404L329 47H455L450 0H126Z" glyph-name="Tcaron" horiz-adv-x="633" unicode="Ť" /><glyph d="M367 776 449 776L447 758L314 550H270ZM162 -10Q137 -10 120.5 -3.5Q104 3 95 14.5Q86 26 82.5 41Q79 56 79 72Q79 74 79 77Q79 80 79.5 86.5Q80 93 81.5 104.5Q83 116 85 135L122 432H55L59 468L129 481L146 621H212L193 472H336L327 432H189L150 123Q148 103 147.5 96.5Q147 90 147 85Q147 39 194 39Q225 39 255 47Q285 55 303 64L299 32Q279 20 257 11Q236 2 212 -4Q188 -10 162 -10Z" glyph-name="tcaron" horiz-adv-x="331" unicode="ť" /><glyph d="M450 0 126 0L130 47H256L288 307H201L206 354H294L331 653H151L103 520H60L82 700H664L642 520H598L585 653H404L367 354H463L458 307H361L329 47H455Z" glyph-name="Tbar" horiz-adv-x="633" unicode="Ŧ" /><glyph d="M302 32Q282 20 260 11Q239 2 215 -4Q191 -10 165 -10Q140 -10 123.5 -3.5Q107 3 98 14.5Q89 26 85.5 41Q82 56 82 72Q82 74 82 77Q82 80 82.5 86.5Q83 93 84.5 104.5Q86 116 88 135L105 271H22L27 311H110L125 432H58L62 468L132 481L149 621H215L196 472H339L330 432H192L177 311H290L285 271H172L153 123Q151 103 150.5 96.5Q150 90 150 85Q150 39 197 39Q228 39 258 47Q288 55 306 64Z" glyph-name="tbar" horiz-adv-x="335" unicode="ŧ" /><glyph d="M415 833Q398 833 384.5 820Q371 807 362 785H331Q344 834 370 861Q396 888 424 888Q441 888 460 881.5Q479 875 497 867.5Q515 860 530.5 853.5Q546 847 556 847Q574 847 587 860Q600 873 609 895H640Q627 846 601 819Q575 792 547 792Q529 792 510.5 798.5Q492 805 474.5 812.5Q457 820 442 826.5Q427 833 415 833ZM357 -10Q302 -10 255.5 2.5Q209 15 177 43Q145 71 130.5 114.5Q116 158 123 221L176 653H81L86 700H361L356 653H249L194 190Q191 162 197.5 134Q204 106 224.5 84Q245 62 280 48Q315 34 369 34Q469 34 528.5 85.5Q588 137 599 224L652 653H546L551 700H803L798 653H702L648 218Q641 161 615.5 118Q590 75 551.5 46.5Q513 18 463 4Q413 -10 357 -10Z" glyph-name="Utilde" horiz-adv-x="772" unicode="Ũ" /><glyph d="M215 605Q198 605 184.5 592Q171 579 162 557H131Q144 606 170 633Q196 660 224 660Q241 660 260 653.5Q279 647 297 639.5Q315 632 330.5 625.5Q346 619 356 619Q374 619 387 632Q400 645 409 667H440Q427 618 401 591Q375 564 347 564Q329 564 310.5 570.5Q292 577 274.5 584.5Q257 592 242 598.5Q227 605 215 605ZM120 432 40 432L44 472L194 482Q180 380 169 297Q162 248 158.5 218Q155 188 151.5 162.5Q148 137 146 118.5Q144 100 144 96Q144 73 153.5 58Q163 43 195 43Q230 43 273.5 82.5Q317 122 368 184L402 471L471 482L417 44L494 60L490 20L369 -10L348 7L365 144Q316 75 269.5 32.5Q223 -10 170 -10Q122 -10 99 15Q76 40 76 85Q76 92 76.5 99Q77 106 78 114Z" glyph-name="utilde" horiz-adv-x="539" unicode="ũ" /><glyph d="M359 838 622 838L616 786H352ZM357 -10Q302 -10 255.5 2.5Q209 15 177 43Q145 71 130.5 114.5Q116 158 123 221L176 653H81L86 700H361L356 653H249L194 190Q191 162 197.5 134Q204 106 224.5 84Q245 62 280 48Q315 34 369 34Q469 34 528.5 85.5Q588 137 599 224L652 653H546L551 700H803L798 653H702L648 218Q641 161 615.5 118Q590 75 551.5 46.5Q513 18 463 4Q413 -10 357 -10Z" glyph-name="Umacron" horiz-adv-x="772" unicode="Ū" /><glyph d="M162 610 425 610L419 558H155ZM120 432 40 432L44 472L194 482Q180 380 169 297Q162 248 158.5 218Q155 188 151.5 162.5Q148 137 146 118.5Q144 100 144 96Q144 73 153.5 58Q163 43 195 43Q230 43 273.5 82.5Q317 122 368 184L402 471L471 482L417 44L494 60L490 20L369 -10L348 7L365 144Q316 75 269.5 32.5Q223 -10 170 -10Q122 -10 99 15Q76 40 76 85Q76 92 76.5 99Q77 106 78 114Z" glyph-name="umacron" horiz-adv-x="539" unicode="ū" /><glyph d="M616 896Q616 834 577 799.5Q538 765 482 765Q426 765 396 799Q366 833 381 896L417 901Q412 858 431.5 840.5Q451 823 489 823Q527 823 551.5 840.5Q576 858 581 901ZM357 -10Q302 -10 255.5 2.5Q209 15 177 43Q145 71 130.5 114.5Q116 158 123 221L176 653H81L86 700H361L356 653H249L194 190Q191 162 197.5 134Q204 106 224.5 84Q245 62 280 48Q315 34 369 34Q469 34 528.5 85.5Q588 137 599 224L652 653H546L551 700H803L798 653H702L648 218Q641 161 615.5 118Q590 75 551.5 46.5Q513 18 463 4Q413 -10 357 -10Z" glyph-name="Ubreve" horiz-adv-x="772" unicode="Ŭ" /><glyph d="M419 668Q419 606 380 571.5Q341 537 285 537Q229 537 199 571Q169 605 184 668L220 673Q215 630 234.5 612.5Q254 595 292 595Q330 595 354.5 612.5Q379 630 384 673ZM120 432 40 432L44 472L194 482Q180 380 169 297Q162 248 158.5 218Q155 188 151.5 162.5Q148 137 146 118.5Q144 100 144 96Q144 73 153.5 58Q163 43 195 43Q230 43 273.5 82.5Q317 122 368 184L402 471L471 482L417 44L494 60L490 20L369 -10L348 7L365 144Q316 75 269.5 32.5Q223 -10 170 -10Q122 -10 99 15Q76 40 76 85Q76 92 76.5 99Q77 106 78 114Z" glyph-name="ubreve" horiz-adv-x="539" unicode="ŭ" /><glyph d="M482 760Q458 760 437.5 768.5Q417 777 401.5 792Q386 807 377 827.5Q368 848 368 872Q368 896 377 916.5Q386 937 401.5 952Q417 967 437.5 975.5Q458 984 481 984Q505 984 525.5 975.5Q546 967 561.5 952Q577 937 586 916.5Q595 896 595 872Q595 848 586 827.5Q577 807 562 792Q547 777 526.5 768.5Q506 760 482 760ZM481 797Q514 797 532 819Q550 841 550 872Q550 903 532.5 925Q515 947 482 947Q449 947 430.5 925Q412 903 412 872Q412 841 430 819Q448 797 481 797ZM357 -10Q302 -10 255.5 2.5Q209 15 177 43Q145 71 130.5 114.5Q116 158 123 221L176 653H81L86 700H361L356 653H249L194 190Q191 162 197.5 134Q204 106 224.5 84Q245 62 280 48Q315 34 369 34Q469 34 528.5 85.5Q588 137 599 224L652 653H546L551 700H803L798 653H702L648 218Q641 161 615.5 118Q590 75 551.5 46.5Q513 18 463 4Q413 -10 357 -10Z" glyph-name="Uring" horiz-adv-x="772" unicode="Ů" /><glyph d="M288 532Q264 532 243.5 540.5Q223 549 207.5 564Q192 579 183 599.5Q174 620 174 644Q174 668 183 688.5Q192 709 207.5 724Q223 739 243.5 747.5Q264 756 287 756Q311 756 331.5 747.5Q352 739 367.5 724Q383 709 392 688.5Q401 668 401 644Q401 620 392 599.5Q383 579 368 564Q353 549 332.5 540.5Q312 532 288 532ZM287 569Q320 569 338 591Q356 613 356 644Q356 675 338.5 697Q321 719 288 719Q255 719 236.5 697Q218 675 218 644Q218 613 236 591Q254 569 287 569ZM120 432 40 432L44 472L194 482Q180 380 169 297Q162 248 158.5 218Q155 188 151.5 162.5Q148 137 146 118.5Q144 100 144 96Q144 73 153.5 58Q163 43 195 43Q230 43 273.5 82.5Q317 122 368 184L402 471L471 482L417 44L494 60L490 20L369 -10L348 7L365 144Q316 75 269.5 32.5Q223 -10 170 -10Q122 -10 99 15Q76 40 76 85Q76 92 76.5 99Q77 106 78 114Z" glyph-name="uring" horiz-adv-x="539" unicode="ů" /><glyph d="M354 766 500 938L575 928L576 923L388 756ZM549 766 695 938L770 928L771 923L583 756ZM357 -10Q302 -10 255.5 2.5Q209 15 177 43Q145 71 130.5 114.5Q116 158 123 221L176 653H81L86 700H361L356 653H249L194 190Q191 162 197.5 134Q204 106 224.5 84Q245 62 280 48Q315 34 369 34Q469 34 528.5 85.5Q588 137 599 224L652 653H546L551 700H803L798 653H702L648 218Q641 161 615.5 118Q590 75 551.5 46.5Q513 18 463 4Q413 -10 357 -10Z" glyph-name="Uhungarumlaut" horiz-adv-x="772" unicode="Ű" /><glyph d="M135 538 281 710L356 700L357 695L169 528ZM330 538 476 710L551 700L552 695L364 528ZM120 432 40 432L44 472L194 482Q180 380 169 297Q162 248 158.5 218Q155 188 151.5 162.5Q148 137 146 118.5Q144 100 144 96Q144 73 153.5 58Q163 43 195 43Q230 43 273.5 82.5Q317 122 368 184L402 471L471 482L417 44L494 60L490 20L369 -10L348 7L365 144Q316 75 269.5 32.5Q223 -10 170 -10Q122 -10 99 15Q76 40 76 85Q76 92 76.5 99Q77 106 78 114Z" glyph-name="uhungarumlaut" horiz-adv-x="539" unicode="ű" /><glyph d="M458 -186Q422 -200 393 -200Q358 -200 334.5 -188.5Q311 -177 311 -146Q311 -129 321.5 -110.5Q332 -92 349.5 -73Q367 -54 389 -36Q411 -18 433 -3Q415 -7 396 -8.5Q377 -10 357 -10Q302 -10 255.5 2.5Q209 15 177 43Q145 71 130.5 114.5Q116 158 123 221L176 653H81L86 700H361L356 653H249L194 190Q191 162 197.5 134Q204 106 224.5 84Q245 62 280 48Q315 34 369 34Q469 34 528.5 85.5Q588 137 599 224L652 653H546L551 700H803L798 653H702L648 218Q638 140 596 89Q554 38 490 13Q471 -2 450.5 -21.5Q430 -41 413.5 -61Q397 -81 386.5 -101Q376 -121 376 -136Q376 -153 388.5 -159Q401 -165 422 -165Q430 -165 442 -163Q454 -161 465 -158Z" glyph-name="Uogonek" horiz-adv-x="773" unicode="Ų" /><glyph d="M383 -196Q347 -210 318 -210Q283 -210 259.5 -198.5Q236 -187 236 -156Q236 -138 247.5 -118.5Q259 -99 277.5 -79.5Q296 -60 319.5 -41.5Q343 -23 366 -7L348 7L365 144Q316 75 269.5 32.5Q223 -10 170 -10Q122 -10 99 15Q76 40 76 85Q76 92 76.5 99Q77 106 78 114L120 432H40L44 472L194 482Q180 380 169 297Q162 248 158.5 218Q155 188 151.5 162.5Q148 137 146 118.5Q144 100 144 96Q144 73 153.5 58Q163 43 195 43Q230 43 273.5 82.5Q317 122 368 184L402 471L471 482L417 44L494 60L490 20L412 1Q393 -14 373.5 -33.5Q354 -53 338 -73Q322 -93 311.5 -112Q301 -131 301 -146Q301 -163 313.5 -169Q326 -175 347 -175Q355 -175 367 -173Q379 -171 390 -168Z" glyph-name="uogonek" horiz-adv-x="539" unicode="ų" /><glyph d="M472 766 622 938H668L778 766L732 756L637 866L515 756ZM548 449 275 0H216L149 653H68L73 700H329L324 653H223L276 78L541 516L527 653H443L448 700H703L698 653H601L655 78L989 653H894L899 700H1138L1133 653H1045L654 0H595Z" glyph-name="Wcircumflex" horiz-adv-x="1068" unicode="Ŵ" /><glyph d="M315 538 465 710H511L621 538L575 528L480 638L358 528ZM422 342 233 0H159L105 432H40L44 472H248L244 432H173L219 39L416 396L408 472H553L549 432H478L520 39L732 432H657L661 472H846L842 432H776L534 0H460Z" glyph-name="wcircumflex" horiz-adv-x="828" unicode="ŵ" /><glyph d="M254 766 404 938H450L560 766L514 756L419 866L297 756ZM160 47 275 47L307 295L135 653H60L65 700H323L319 653H219L363 346L568 653H470L475 700H720L715 653H631L380 296L348 47H464L459 0H155Z" glyph-name="Ycircumflex" horiz-adv-x="669" unicode="Ŷ" /><glyph d="M130 538 280 710H326L436 538L390 528L295 638L173 528ZM-15 -240 -10 -200L103 -190L204 -4L113 432H32L36 472H173L250 78L416 432H350L354 472H526L522 432H467L127 -250Z" glyph-name="ycircumflex" horiz-adv-x="517" unicode="ŷ" /><glyph d="M308 887 382 887L369 780H295ZM463 887 537 887L524 780H449ZM160 47 275 47L307 295L135 653H60L65 700H323L319 653H219L363 346L568 653H470L475 700H720L715 653H631L380 296L348 47H464L459 0H155Z" glyph-name="Ydieresis" horiz-adv-x="669" unicode="Ÿ" /><glyph d="M311 766 457 938L532 928L533 923L345 756ZM10 37 527 653H185L139 520H95L117 700H625L621 664L104 47H472L519 179H563L541 0H6Z" glyph-name="Zacute" horiz-adv-x="610" unicode="Ź" /><glyph d="M246 538 392 710L467 700L468 695L280 528ZM121 105Q179 89 227 76Q256 68 273.5 63.5Q291 59 306.5 55.5Q322 52 334 49.5Q346 47 350 47Q361 47 373 57Q385 67 396 80Q408 94 420 112L440 88Q399 27 372 6.5Q345 -14 327 -14Q307 -14 288.5 -9Q270 -4 253 2L90 57L45 0L8 28L345 414H127V310H92Q84 349 79.5 371.5Q75 394 73 406Q71 418 70.5 422Q70 426 70 428Q70 457 87.5 469.5Q105 482 131 482Q151 482 179.5 478.5Q208 475 238.5 471.5Q269 468 299 464.5Q329 461 352 461Q369 461 382.5 472Q396 483 407 494L438 466Z" glyph-name="zacute" horiz-adv-x="457" unicode="ź" /><glyph d="M347 907 445 907L432 800H334ZM10 37 527 653H185L139 520H95L117 700H625L621 664L104 47H472L519 179H563L541 0H6Z" glyph-name="Zdotaccent" horiz-adv-x="610" unicode="Ż" /><glyph d="M211 679 309 679L296 572H198ZM121 105Q179 89 227 76Q256 68 273.5 63.5Q291 59 306.5 55.5Q322 52 334 49.5Q346 47 350 47Q361 47 373 57Q385 67 396 80Q408 94 420 112L440 88Q399 27 372 6.5Q345 -14 327 -14Q307 -14 288.5 -9Q270 -4 253 2L90 57L45 0L8 28L345 414H127V310H92Q84 349 79.5 371.5Q75 394 73 406Q71 418 70.5 422Q70 426 70 428Q70 457 87.5 469.5Q105 482 131 482Q151 482 179.5 478.5Q208 475 238.5 471.5Q269 468 299 464.5Q329 461 352 461Q369 461 382.5 472Q396 483 407 494L438 466Z" glyph-name="zdotaccent" horiz-adv-x="457" unicode="ż" /><glyph d="M246 928 291 938L386 828L509 938L552 928L400 756H354ZM10 37 527 653H185L139 520H95L117 700H625L621 664L104 47H472L519 179H563L541 0H6Z" glyph-name="Zcaron" horiz-adv-x="610" unicode="Ž" /><glyph d="M122 700 167 710L262 600L385 710L428 700L276 528H230ZM121 105Q179 89 227 76Q256 68 273.5 63.5Q291 59 306.5 55.5Q322 52 334 49.5Q346 47 350 47Q361 47 373 57Q385 67 396 80Q408 94 420 112L440 88Q399 27 372 6.5Q345 -14 327 -14Q307 -14 288.5 -9Q270 -4 253 2L90 57L45 0L8 28L345 414H127V310H92Q84 349 79.5 371.5Q75 394 73 406Q71 418 70.5 422Q70 426 70 428Q70 457 87.5 469.5Q105 482 131 482Q151 482 179.5 478.5Q208 475 238.5 471.5Q269 468 299 464.5Q329 461 352 461Q369 461 382.5 472Q396 483 407 494L438 466Z" glyph-name="zcaron" horiz-adv-x="457" unicode="ž" /><glyph d="M-33 -210 44 -210L124 432H43L47 472H128L143 592Q153 669 197.5 705.5Q242 742 318 742Q336 742 350.5 741Q365 740 376 740Q389 738 399 737L403 628L370 621L342 702Q336 703 327.5 703Q319 703 314 703Q284 703 265 694Q246 685 234.5 670.5Q223 656 218 637.5Q213 619 211 599L111 -210H215L211 -250H-37Z" glyph-name="longs" horiz-adv-x="262" unicode="ſ" /><glyph d="M181 -102Q172 -179 128.5 -215.5Q85 -252 10 -252Q-7 -252 -21.5 -251Q-36 -250 -47 -250Q-60 -248 -70 -247L-73 -138L-41 -131L-13 -212Q-8 -213 0.5 -213Q9 -213 14 -213Q44 -213 62.5 -204Q81 -195 91.5 -180.5Q102 -166 107 -147.5Q112 -129 115 -109L155 222H47L52 262H160L201 592Q210 669 253.5 705.5Q297 742 372 742Q389 742 403.5 741Q418 740 429 740Q442 738 452 737L455 628L423 621L396 702Q390 703 381.5 703Q373 703 368 703Q338 703 319.5 694Q301 685 290.5 670.5Q280 656 275 637.5Q270 619 267 599L226 262H352L342 222H221Z" glyph-name="florin" horiz-adv-x="425" unicode="ƒ" /><glyph d="M221 -10Q178 -10 130.5 -4.5Q83 1 44 13L60 184H104L125 51Q145 43 173.5 38.5Q202 34 229 34Q310 34 353 70.5Q396 107 396 167Q396 204 373.5 232Q351 260 317 284Q283 308 244 330.5Q205 353 171 379.5Q137 406 114.5 438.5Q92 471 92 515Q92 547 103 581.5Q114 616 139.5 644.5Q165 673 207 691.5Q249 710 312 710Q345 710 373 707Q401 704 423 701Q447 696 468 691L442 520H397L388 653Q389 653 363 660Q337 667 295 667Q268 667 242.5 660.5Q217 654 198 639Q179 624 167.5 600.5Q156 577 156 544Q156 507 178.5 479Q201 451 234.5 426.5Q268 402 307 379.5Q346 357 379.5 331Q413 305 435.5 273Q458 241 458 199Q458 152 441 113.5Q424 75 393 47.5Q362 20 318 5Q274 -10 221 -10ZM206 -57 289 -57L286 -75L168 -250H124Z" glyph-name="Scommaaccent" horiz-adv-x="508" unicode="Ș" /><glyph d="M170 -10Q131 -10 90.5 -2Q50 6 24 15L39 139H77L84 42Q94 37 107 34Q118 30 133 27.5Q148 25 166 25Q226 25 261 46.5Q296 68 296 114Q296 140 279 157.5Q262 175 236 188.5Q210 202 180.5 214Q151 226 125 242Q99 258 82 280.5Q65 303 65 336Q65 365 76.5 391.5Q88 418 112 438Q136 458 171.5 470Q207 482 255 482Q277 482 298 480Q319 478 336 475Q357 472 375 468L363 347H325L315 439Q306 441 295 443Q285 445 273 446Q261 447 246 447Q225 447 203.5 443.5Q182 440 165 431Q148 422 137 405.5Q126 389 126 363Q126 338 143.5 320.5Q161 303 186.5 289Q212 275 242.5 262Q273 249 298.5 232.5Q324 216 341.5 193.5Q359 171 359 138Q359 100 343.5 72Q328 44 301.5 26Q275 8 241 -1Q207 -10 170 -10ZM137 -57 220 -57L217 -75L99 -250H55Z" glyph-name="scommaaccent" horiz-adv-x="413" unicode="ș" /><glyph d="M130 47 256 47L331 653H151L103 520H60L82 700H664L642 520H598L585 653H404L329 47H455L450 0H126ZM244 -57 327 -57L324 -75L206 -250H162Z" glyph-name="uni021A" horiz-adv-x="633" unicode="Ț" /><glyph d="M162 -10Q137 -10 120.5 -3.5Q104 3 95 14.5Q86 26 82.5 41Q79 56 79 72Q79 74 79 77Q79 80 79.5 86.5Q80 93 81.5 104.5Q83 116 85 135L122 432H55L59 468L129 481L146 621H212L193 472H336L327 432H189L150 123Q148 103 147.5 96.5Q147 90 147 85Q147 39 194 39Q225 39 255 47Q285 55 303 64L299 32Q279 20 257 11Q236 2 212 -4Q188 -10 162 -10ZM123 -57 206 -57L203 -75L85 -250H41Z" glyph-name="uni021B" horiz-adv-x="331" unicode="ț" /><glyph d="M-29 -235 49 -172L124 432H44L48 472L197 482L126 -95Q124 -110 120.5 -127.5Q117 -145 108 -162.5Q99 -180 83.5 -197Q68 -214 42 -230L-6 -260Z" glyph-name="dotlessj" horiz-adv-x="244" unicode="ȷ" /><glyph d="M205 700 287 700L285 682L145 417H101Z" glyph-name="apostrophe" horiz-adv-x="226" unicode="ʼ" /><glyph d="M95 538 245 710H291L401 538L355 528L260 638L138 528Z" glyph-name="circumflex" horiz-adv-x="423" unicode="ˆ" /><glyph d="M115 700 160 710L255 600L378 710L421 700L269 528H223Z" glyph-name="caron" horiz-adv-x="423" unicode="ˇ" /><glyph d="M346 668Q346 606 307 571.5Q268 537 212 537Q156 537 126 571Q96 605 111 668L147 673Q142 630 161.5 612.5Q181 595 219 595Q257 595 281.5 612.5Q306 630 311 673Z" glyph-name="breve" horiz-adv-x="353" unicode="˘" /><glyph d="M112 679 210 679L197 572H99Z" glyph-name="dotaccent" horiz-adv-x="216" unicode="˙" /><glyph d="M208 532Q184 532 163.5 540.5Q143 549 127.5 564Q112 579 103 599.5Q94 620 94 644Q94 668 103 688.5Q112 709 127.5 724Q143 739 163.5 747.5Q184 756 207 756Q231 756 251.5 747.5Q272 739 287.5 724Q303 709 312 688.5Q321 668 321 644Q321 620 312 599.5Q303 579 288 564Q273 549 252.5 540.5Q232 532 208 532ZM207 569Q240 569 258 591Q276 613 276 644Q276 675 258.5 697Q241 719 208 719Q175 719 156.5 697Q138 675 138 644Q138 613 156 591Q174 569 207 569Z" glyph-name="ring" horiz-adv-x="345" unicode="˚" /><glyph d="M180 -196Q144 -210 115 -210Q80 -210 56.5 -198.5Q33 -187 33 -156Q33 -135 49 -112Q65 -89 89 -66Q113 -43 141.5 -22.5Q170 -2 195 13L203 18L221 15V10Q202 -5 180 -25Q158 -45 140 -66.5Q122 -88 110 -109Q98 -130 98 -146Q98 -163 110.5 -169Q123 -175 144 -175Q152 -175 164 -173Q176 -171 187 -168Z" glyph-name="ogonek" horiz-adv-x="323" unicode="˛" /><glyph d="M177 605Q160 605 146.5 592Q133 579 124 557H93Q106 606 132 633Q158 660 186 660Q203 660 222 653.5Q241 647 259 639.5Q277 632 292.5 625.5Q308 619 318 619Q336 619 349 632Q362 645 371 667H402Q389 618 363 591Q337 564 309 564Q291 564 272.5 570.5Q254 577 236.5 584.5Q219 592 204 598.5Q189 605 177 605Z" glyph-name="tilde" horiz-adv-x="416" unicode="˜" /><glyph d="M106 538 252 710L327 700L328 695L140 528ZM301 538 447 710L522 700L523 695L335 528Z" glyph-name="hungarumlaut" horiz-adv-x="549" unicode="˝" /><glyph d="M474 -10Q438 -10 419 0.5Q400 11 392 28Q384 45 383.5 66.5Q383 88 386 110L425 432H210L162 40H246L241 0H18L23 40H96L144 432H76L81 472H619L609 432H491L451 110Q447 75 456.5 57Q466 39 496 39Q526 39 555 47Q584 55 602 64L599 32Q580 20 559 11Q539 2 517.5 -4Q496 -10 474 -10Z" glyph-name="pi" horiz-adv-x="626" unicode="π" /><glyph d="M525 923 527 928L605 938L746 766L710 756ZM548 449 275 0H216L149 653H68L73 700H329L324 653H223L276 78L541 516L527 653H443L448 700H703L698 653H601L655 78L989 653H894L899 700H1138L1133 653H1045L654 0H595Z" glyph-name="Wgrave" horiz-adv-x="1068" unicode="Ẁ" /><glyph d="M368 695 370 700L448 710L589 538L553 528ZM422 342 233 0H159L105 432H40L44 472H248L244 432H173L219 39L416 396L408 472H553L549 432H478L520 39L732 432H657L661 472H846L842 432H776L534 0H460Z" glyph-name="wgrave" horiz-adv-x="828" unicode="ẁ" /><glyph d="M557 766 703 938L778 928L779 923L591 756ZM548 449 275 0H216L149 653H68L73 700H329L324 653H223L276 78L541 516L527 653H443L448 700H703L698 653H601L655 78L989 653H894L899 700H1138L1133 653H1045L654 0H595Z" glyph-name="Wacute" horiz-adv-x="1068" unicode="Ẃ" /><glyph d="M400 538 546 710L621 700L622 695L434 528ZM422 342 233 0H159L105 432H40L44 472H248L244 432H173L219 39L416 396L408 472H553L549 432H478L520 39L732 432H657L661 472H846L842 432H776L534 0H460Z" glyph-name="wacute" horiz-adv-x="828" unicode="ẃ" /><glyph d="M526 887 600 887L587 780H513ZM681 887 755 887L742 780H667ZM548 449 275 0H216L149 653H68L73 700H329L324 653H223L276 78L541 516L527 653H443L448 700H703L698 653H601L655 78L989 653H894L899 700H1138L1133 653H1045L654 0H595Z" glyph-name="Wdieresis" horiz-adv-x="1068" unicode="Ẅ" /><glyph d="M369 659 443 659L430 552H356ZM524 659 598 659L585 552H510ZM422 342 233 0H159L105 432H40L44 472H248L244 432H173L219 39L416 396L408 472H553L549 432H478L520 39L732 432H657L661 472H846L842 432H776L534 0H460Z" glyph-name="wdieresis" horiz-adv-x="828" unicode="ẅ" /><glyph d="M236 923 238 928L316 938L457 766L421 756ZM160 47 275 47L307 295L135 653H60L65 700H323L319 653H219L363 346L568 653H470L475 700H720L715 653H631L380 296L348 47H464L459 0H155Z" glyph-name="Ygrave" horiz-adv-x="669" unicode="Ỳ" /><glyph d="M114 695 116 700L194 710L335 538L299 528ZM-15 -240 -10 -200L103 -190L204 -4L113 432H32L36 472H173L250 78L416 432H350L354 472H526L522 432H467L127 -250Z" glyph-name="ygrave" horiz-adv-x="517" unicode="ỳ" /><glyph d="M72 300 492 300L486 248H65Z" glyph-name="endash" horiz-adv-x="549" unicode="–" /><glyph d="M72 300 825 300L819 248H65Z" glyph-name="emdash" horiz-adv-x="882" unicode="—" /><glyph d="M147 417 64 417L66 435L206 700H250Z" glyph-name="quoteleft" horiz-adv-x="229" unicode="‘" /><glyph d="M171 700 253 700L251 682L111 417H67Z" glyph-name="quoteright" horiz-adv-x="224" unicode="’" /><glyph d="M82 152 164 152L162 134L22 -131H-22Z" glyph-name="quotesinglbase" horiz-adv-x="227" unicode="‚" /><glyph d="M147 417 64 417L66 435L206 700H250ZM311 417 229 417L231 435L370 700H415Z" glyph-name="quotedblleft" horiz-adv-x="394" unicode="“" /><glyph d="M171 700 253 700L251 682L111 417H67ZM335 700 417 700L415 682L276 417H232Z" glyph-name="quotedblright" horiz-adv-x="388" unicode="”" /><glyph d="M82 152 165 152L162 134L23 -131H-21ZM247 152 329 152L327 134L188 -131H144Z" glyph-name="quotedblbase" horiz-adv-x="392" unicode="„" /><glyph d="M212 424 66 424L72 472H218L246 700H299L271 472H417L411 424H265L222 72H169Z" glyph-name="dagger" horiz-adv-x="430" unicode="†" /><glyph d="M160 0 188 228H42L48 276H194L212 424H66L72 472H218L246 700H299L271 472H417L411 424H265L247 276H393L387 228H241L213 0Z" glyph-name="daggerdbl" horiz-adv-x="430" unicode="‡" /><glyph d="M193 217Q168 217 147 227Q126 237 111 254Q96 271 89 294Q82 317 85 343Q88 369 101 392Q114 415 132.5 432Q151 449 175 459Q199 469 224 469Q250 469 271 459Q292 449 307 432Q322 415 328.5 392Q335 369 332 343Q329 317 316.5 294Q304 271 285 254Q266 237 242.5 227Q219 217 193 217Z" glyph-name="bullet" horiz-adv-x="392" unicode="•" /><glyph d="M57 125 152 125L136 0H41ZM405 125 500 125L484 0H389ZM753 125 848 125L832 0H737Z" glyph-name="ellipsis" horiz-adv-x="921" unicode="…" /><glyph d="M53 0 704 700H752L104 0ZM70 526Q75 569 90.5 601.5Q106 634 129.5 656Q153 678 181 689Q209 700 238 700Q264 700 288.5 689Q313 678 331.5 656Q350 634 359.5 601.5Q369 569 364 526Q360 484 344 452.5Q328 421 304.5 399Q281 377 252.5 366Q224 355 195 355Q170 355 145.5 366Q121 377 102.5 398.5Q84 420 74.5 452Q65 484 70 526ZM200 389Q244 389 268 425.5Q292 462 300 526Q307 592 292 627.5Q277 663 233 663Q191 663 167.5 627.5Q144 592 136 526Q128 461 142.5 425Q157 389 200 389ZM560 -10Q536 -10 511 1.5Q486 13 467 34.5Q448 56 438 88.5Q428 121 433 163Q438 205 454.5 237Q471 269 494.5 291Q518 313 546 324Q574 335 603 335Q629 335 654 324Q679 313 698 291Q717 269 726.5 237Q736 205 731 163Q726 121 709.5 88.5Q693 56 669.5 34.5Q646 13 617.5 1.5Q589 -10 560 -10ZM919 -10Q894 -10 869 1.5Q844 13 825 34.5Q806 56 796 88.5Q786 121 791 163Q796 205 813 237Q830 269 853.5 291Q877 313 906 324Q935 335 964 335Q988 335 1012.5 324Q1037 313 1056 291Q1075 269 1084.5 237Q1094 205 1089 163Q1084 121 1067.5 88.5Q1051 56 1028 34.5Q1005 13 976.5 1.5Q948 -10 919 -10ZM565 27Q608 27 632 63Q656 99 664 164Q672 228 656.5 264.5Q641 301 599 301Q555 301 531 264Q507 227 499 163Q491 99 506 63Q521 27 565 27ZM926 27Q968 27 991.5 63Q1015 99 1023 164Q1031 228 1016.5 264.5Q1002 301 959 301Q914 301 890 264Q866 227 858 163Q850 99 865.5 63Q881 27 926 27Z" glyph-name="perthousand" horiz-adv-x="1128" unicode="‰" /><glyph d="M40 234 40 238L217 472H272L115 236L214 0H159Z" glyph-name="guilsinglleft" horiz-adv-x="287" unicode="‹" /><glyph d="M171 236 73 472H128L247 238V234L70 0H15Z" glyph-name="guilsinglright" horiz-adv-x="287" unicode="›" /><glyph d="M-257 -3 432 728L462 704L-226 -28Z" glyph-name="fraction" horiz-adv-x="175" unicode="⁄" /><glyph d="M190 427Q161 427 138 441.5Q115 456 101 481.5Q87 507 81.5 542Q76 577 81 618L83 632Q88 673 102 708Q116 743 136.5 768.5Q157 794 183 808.5Q209 823 238 823Q267 823 289.5 808.5Q312 794 326.5 768.5Q341 743 346 708Q351 673 346 632L345 618Q340 577 326 542Q312 507 291.5 481.5Q271 456 245 441.5Q219 427 190 427ZM193 452Q214 452 228.5 463.5Q243 475 252 494.5Q261 514 266 539.5Q271 565 274 592L282 657Q285 685 286.5 710.5Q288 736 283.5 755.5Q279 775 267.5 786.5Q256 798 235 798Q213 798 199 786.5Q185 775 176 755.5Q167 736 161.5 710.5Q156 685 153 657L145 592Q142 565 140.5 539.5Q139 514 143.5 494.5Q148 475 159.5 463.5Q171 452 193 452Z" glyph-name="zerosuperior" horiz-adv-x="332" unicode="⁰" /><glyph d="M163 459 205 459L217 553H60L65 594L250 818H310L283 593H347L342 553H278L266 459H305L302 433H160ZM222 593 244 776L93 593Z" glyph-name="foursuperior" horiz-adv-x="326" unicode="⁴" /><glyph d="M142 427Q121 427 98.5 429.5Q76 432 59 437L69 514H93L105 458Q113 455 123.5 453.5Q134 452 144 452Q192 452 219 474Q246 496 251 534Q254 557 247 573.5Q240 590 226 601Q212 612 193.5 617Q175 622 154 622Q120 622 93 615L125 818H336L323 763H142L129 675Q137 677 148 677.5Q159 678 167 678Q197 678 224.5 670Q252 662 272 646.5Q292 631 302.5 606.5Q313 582 309 549Q301 490 254.5 458.5Q208 427 142 427Z" glyph-name="fivesuperior" horiz-adv-x="302" unicode="⁵" /><glyph d="M192 426Q167 426 143 435.5Q119 445 102 463Q85 481 76 508Q67 535 71 570Q78 626 112.5 672.5Q147 719 188.5 752.5Q230 786 268 806.5Q306 827 320 831L342 823Q333 818 313.5 803.5Q294 789 270.5 767.5Q247 746 222 718.5Q197 691 177 659Q203 667 226 667Q250 667 271 659Q292 651 307.5 635.5Q323 620 331 597.5Q339 575 335 546Q332 523 322 501.5Q312 480 294 463Q276 446 250.5 436Q225 426 192 426ZM195 452Q229 452 247 479.5Q265 507 270 542Q275 587 256 613.5Q237 640 199 640Q183 640 163 634Q152 616 144 592.5Q136 569 133 546Q128 509 142.5 480.5Q157 452 195 452Z" glyph-name="sixsuperior" horiz-adv-x="322" unicode="⁶" /><glyph d="M91 433 299 762H131L112 701H84L97 818H348L345 791L139 433Z" glyph-name="sevensuperior" horiz-adv-x="294" unicode="⁷" /><glyph d="M187 427Q125 427 94 457.5Q63 488 68 529Q73 567 101.5 590.5Q130 614 168 626L155 635Q101 672 107 722Q110 746 122 764.5Q134 783 152 796Q170 809 192 816Q214 823 238 823Q260 823 279.5 817.5Q299 812 313.5 800.5Q328 789 335.5 772.5Q343 756 340 735Q337 716 328.5 702Q320 688 308 678Q296 668 281.5 660.5Q267 653 253 647L265 639Q298 617 316.5 593Q335 569 331 534Q325 489 287.5 458Q250 427 187 427ZM236 656Q259 670 278 692Q297 714 299 737Q303 763 288 781.5Q273 800 241 800Q210 800 190.5 784Q171 768 168 742Q165 719 177 702.5Q189 686 214 670ZM191 451Q219 451 242.5 466.5Q266 482 271 517Q275 546 252.5 566Q230 586 198 606L183 615Q158 601 139 579.5Q120 558 117 528Q112 494 134 472.5Q156 451 191 451Z" glyph-name="eightsuperior" horiz-adv-x="326" unicode="⁸" /><glyph d="M226 823Q252 823 275.5 813.5Q299 804 316 786Q333 768 342 741Q351 714 347 679Q340 623 305.5 576.5Q271 530 229.5 496.5Q188 463 150 442.5Q112 422 98 418L76 426Q85 431 104.5 445.5Q124 460 147.5 481.5Q171 503 196 531Q221 559 241 590Q215 582 192 582Q168 582 147 590Q126 598 110.5 613.5Q95 629 87 651.5Q79 674 83 703Q86 726 96 747.5Q106 769 124 786Q142 803 167.5 813Q193 823 226 823ZM223 797Q189 797 171 769.5Q153 742 148 707Q143 662 162 635.5Q181 609 219 609Q236 609 255 615Q266 633 274 656.5Q282 680 285 703Q290 740 275.5 768.5Q261 797 223 797Z" glyph-name="ninesuperior" horiz-adv-x="322" unicode="⁹" /><glyph d="M122 -124Q93 -124 70 -109.5Q47 -95 33 -69.5Q19 -44 13.5 -9Q8 26 13 67L15 81Q20 122 34 157Q48 192 68.5 217.5Q89 243 115 257.5Q141 272 170 272Q199 272 221.5 257.5Q244 243 258.5 217.5Q273 192 278 157Q283 122 278 81L277 67Q272 26 258 -9Q244 -44 223.5 -69.5Q203 -95 177 -109.5Q151 -124 122 -124ZM125 -99Q146 -99 160.5 -87.5Q175 -76 184 -56.5Q193 -37 198 -11.5Q203 14 206 41L214 106Q217 134 218.5 159.5Q220 185 215.5 204.5Q211 224 199.5 235.5Q188 247 167 247Q145 247 131 235.5Q117 224 108 204.5Q99 185 93.5 159.5Q88 134 85 106L77 41Q74 14 72.5 -11.5Q71 -37 75.5 -56.5Q80 -76 91.5 -87.5Q103 -99 125 -99Z" glyph-name="zeroinferior" horiz-adv-x="332" unicode="₀" /><glyph d="M-4 -88 66 -84L103 220L21 197L24 224L142 267H171L128 -84L195 -88L192 -118H-8Z" glyph-name="oneinferior" horiz-adv-x="246" unicode="₁" /><glyph d="M222 -118 -14 -118L-10 -88L105 32Q145 74 164 105Q183 136 187 170Q192 208 174 226Q156 244 127 244Q114 244 101.5 241.5Q89 239 81 236L56 165H29L38 252Q55 258 74 263Q91 267 112 270Q133 273 156 273Q185 273 205 265.5Q225 258 237 245Q249 232 253 215.5Q257 199 255 182Q250 140 220 106Q190 72 142 28L43 -63H196L226 -13H249Z" glyph-name="twoinferior" horiz-adv-x="308" unicode="₂" /><glyph d="M79 -124Q50 -124 25.5 -118Q1 -112 -7 -110L-1 -25H25L40 -95Q42 -95 51 -97Q60 -99 72 -99Q120 -99 148 -75.5Q176 -52 181 -10Q184 11 178 25.5Q172 40 161 50Q150 60 135 64.5Q120 69 104 69H91L82 95Q132 100 160.5 128.5Q189 157 193 187Q196 213 178.5 228Q161 243 129 243Q117 243 107 241Q97 239 87 237L65 178H38L46 256Q63 260 81 264Q98 267 117.5 269.5Q137 272 158 272Q176 272 194.5 268Q213 264 227.5 254.5Q242 245 250.5 230Q259 215 256 192Q252 156 219 132Q186 108 146 92Q191 90 220.5 65.5Q250 41 245 -3Q242 -25 230 -46.5Q218 -68 197 -85.5Q176 -103 146.5 -113.5Q117 -124 79 -124Z" glyph-name="threeinferior" horiz-adv-x="307" unicode="₃" /><glyph d="M95 -92 137 -92L149 2H-8L-3 43L182 267H242L215 42H279L274 2H210L198 -92H237L234 -118H92ZM154 42 176 225L25 42Z" glyph-name="fourinferior" horiz-adv-x="326" unicode="₄" /><glyph d="M74 -124Q53 -124 30.5 -121.5Q8 -119 -9 -114L1 -37H25L37 -93Q45 -96 55.5 -97.5Q66 -99 76 -99Q124 -99 151 -77Q178 -55 183 -17Q186 6 179 22.5Q172 39 158 50Q144 61 125.5 66Q107 71 86 71Q52 71 25 64L57 267H268L255 212H74L61 124Q69 126 80 126.5Q91 127 99 127Q129 127 156.5 119Q184 111 204 95.5Q224 80 234.5 55.5Q245 31 241 -2Q233 -61 186.5 -92.5Q140 -124 74 -124Z" glyph-name="fiveinferior" horiz-adv-x="302" unicode="₅" /><glyph d="M124 -125Q99 -125 75 -115.5Q51 -106 34 -88Q17 -70 8 -43Q-1 -16 3 19Q10 75 44.5 121.5Q79 168 120.5 201.5Q162 235 200 255.5Q238 276 252 280L274 272Q265 267 245.5 252.5Q226 238 202.5 216.5Q179 195 154 167.5Q129 140 109 108Q135 116 158 116Q182 116 203 108Q224 100 239.5 84.5Q255 69 263 46.5Q271 24 267 -5Q264 -28 254 -49.5Q244 -71 226 -88Q208 -105 182.5 -115Q157 -125 124 -125ZM127 -99Q161 -99 179 -71.5Q197 -44 202 -9Q207 36 188 62.5Q169 89 131 89Q115 89 95 83Q84 65 76 41.5Q68 18 65 -5Q60 -42 74.5 -70.5Q89 -99 127 -99Z" glyph-name="sixinferior" horiz-adv-x="322" unicode="₆" /><glyph d="M24 -118 232 211H64L45 150H17L30 267H281L278 240L72 -118Z" glyph-name="seveninferior" horiz-adv-x="294" unicode="₇" /><glyph d="M119 -124Q57 -124 26 -93.5Q-5 -63 0 -22Q5 16 33.5 39.5Q62 63 100 75L87 84Q33 121 39 171Q42 195 54 213.5Q66 232 84 245Q102 258 124 265Q146 272 170 272Q192 272 211.5 266.5Q231 261 245.5 249.5Q260 238 267.5 221.5Q275 205 272 184Q269 165 260.5 151Q252 137 240 127Q228 117 213.5 109.5Q199 102 185 96L197 88Q230 66 248.5 42Q267 18 263 -17Q257 -62 219.5 -93Q182 -124 119 -124ZM168 105Q191 119 210 141Q229 163 231 186Q235 212 220 230.5Q205 249 173 249Q142 249 122.5 233Q103 217 100 191Q97 168 109 151.5Q121 135 146 119ZM123 -100Q151 -100 174.5 -84.5Q198 -69 203 -34Q207 -5 184.5 15Q162 35 130 55L115 64Q90 50 71 28.5Q52 7 49 -23Q44 -57 66 -78.5Q88 -100 123 -100Z" glyph-name="eightinferior" horiz-adv-x="326" unicode="₈" /><glyph d="M158 272Q184 272 207.5 262.5Q231 253 248 235Q265 217 274 190Q283 163 279 128Q272 72 237.5 25.5Q203 -21 161.5 -54.5Q120 -88 82 -108.5Q44 -129 30 -133L8 -125Q17 -120 36.5 -105.5Q56 -91 79.5 -69.5Q103 -48 128 -20Q153 8 173 39Q147 31 124 31Q100 31 79 39Q58 47 42.5 62.5Q27 78 19 100.5Q11 123 15 152Q18 175 28 196.5Q38 218 56 235Q74 252 99.5 262Q125 272 158 272ZM155 246Q121 246 103 218.5Q85 191 80 156Q75 111 94 84.5Q113 58 151 58Q168 58 187 64Q198 82 206 105.5Q214 129 217 152Q222 189 207.5 217.5Q193 246 155 246Z" glyph-name="nineinferior" horiz-adv-x="322" unicode="₉" /><glyph d="M645 29Q622 18 590 10Q561 2 521 -4Q481 -10 426 -10Q360 -10 305.5 10Q251 30 210.5 66.5Q170 103 145 154Q120 205 114 266H38L43 305H112Q112 337 115.5 365.5Q119 394 125 420H57L62 459H136Q157 522 195.5 569Q234 616 284.5 647.5Q335 679 395.5 694.5Q456 710 523 710Q567 710 617 704Q667 698 715 687L689 509H642L643 649Q609 656 579.5 660Q550 664 515 664Q458 664 410.5 648.5Q363 633 325.5 605.5Q288 578 261.5 540.5Q235 503 218 459H477L472 420H205Q191 364 191 307V305H458L454 266H193Q204 160 270 98Q336 36 451 36Q486 36 511.5 39.5Q537 43 553 47Q569 51 576.5 54.5Q584 58 584 58L636 184H684Z" glyph-name="Euro" horiz-adv-x="735" unicode="€" /><glyph d="M250 -11Q113 -11 113 133V224Q102 217 91 209Q81 203 71.5 196Q62 189 54 184L36 217Q50 226 63.5 235Q77 244 88 251.5Q99 259 106 263.5Q113 268 113 268V561Q113 625 143.5 667.5Q174 710 239 710Q293 710 323 672.5Q353 635 353 572Q353 524 339 480.5Q325 437 301.5 399Q278 361 247 328.5Q216 296 182 269V112Q182 69 205.5 48.5Q229 28 259 28Q291 28 314.5 45.5Q338 63 343 97L373 89Q365 57 349.5 37Q334 17 316 6.5Q298 -4 280.5 -7.5Q263 -11 250 -11ZM182 315Q222 350 248 385Q274 420 289 453.5Q304 487 309.5 518.5Q315 550 315 578Q315 616 298 640.5Q281 665 247 665Q227 665 214 656Q201 647 194 632.5Q187 618 184.5 599Q182 580 182 560Z" glyph-name="uni2113" horiz-adv-x="451" unicode="ℓ" /><glyph d="M439 376 492 376L527 660H474L479 700H622L692 478L816 700H946L941 660H888L853 376H906L901 336H731L736 376H794L828 656L685 400H653L571 652L537 376H591L586 336H434ZM140 376 193 376L228 660H144L118 585H84L98 700H426L412 585H379L371 660H287L252 376H306L301 336H135Z" glyph-name="trademark" horiz-adv-x="956" unicode="™" /><glyph d="M435 676Q384 676 338.5 658Q293 640 258 608Q223 576 200 532.5Q177 489 171 437Q164 380 175.5 339Q187 298 209 270Q231 242 261 226.5Q291 211 321 203L296 0H94L112 148H137L156 65H263L278 177Q237 189 201.5 210.5Q166 232 140.5 264Q115 296 103 339Q91 382 98 437Q106 500 137 551Q168 602 214.5 638Q261 674 319 693Q377 712 439 712Q501 712 554.5 693Q608 674 645.5 638Q683 602 701.5 551Q720 500 712 437Q705 382 682.5 339Q660 296 627 264Q594 232 553.5 210.5Q513 189 469 177L455 65H563L602 148H627L609 0H407L432 203Q464 211 498 226.5Q532 242 561 270Q590 298 611 339Q632 380 639 437Q645 489 633 532.5Q621 576 594 608Q567 640 526.5 658Q486 676 435 676Z" glyph-name="Omega" horiz-adv-x="703" unicode="Ω" /><glyph d="M784 120Q727 58 648 23.5Q569 -11 473 -11Q385 -11 310.5 17.5Q236 46 181.5 95.5Q127 145 96.5 211Q66 277 66 353Q66 427 96 492.5Q126 558 180 607Q234 656 309 684Q384 712 473 712Q568 712 642.5 684.5Q717 657 769 609.5Q821 562 849.5 497.5Q878 433 881 359V344H218V160Q218 128 243 102Q268 76 306 58Q344 40 389 30Q434 20 473 20Q550 20 617.5 45Q685 70 735 120ZM218 375 728 375V522Q728 566 706 596.5Q684 627 648.5 646Q613 665 567 673.5Q521 682 473 682Q428 682 382.5 673.5Q337 665 300.5 646Q264 627 241 596.5Q218 566 218 522Z" glyph-name="estimated" horiz-adv-x="899" unicode="℮" /><glyph d="M53 -3 742 728L772 704L84 -28ZM59 345 129 349L166 653L84 630L87 657L205 700H234L191 349L258 345L255 315H55ZM599 -6Q570 -6 545.5 0Q521 6 513 8L519 93H545L560 23Q562 23 571 21Q580 19 592 19Q640 19 668 42.5Q696 66 701 108Q704 129 698 143.5Q692 158 681 168Q670 178 655 182.5Q640 187 624 187H611L602 213Q652 218 680.5 246.5Q709 275 713 305Q716 331 698.5 346Q681 361 649 361Q637 361 627 359Q617 357 607 355L585 296H558L566 374Q583 378 601 382Q618 385 637.5 387.5Q657 390 678 390Q696 390 714.5 386Q733 382 747.5 372.5Q762 363 770.5 348Q779 333 776 310Q772 274 739 250Q706 226 666 210Q711 208 740.5 183.5Q770 159 765 115Q762 93 750 71.5Q738 50 717 33Q696 16 666.5 5Q637 -6 599 -6Z" glyph-name="onethird" horiz-adv-x="814" unicode="⅓" /><glyph d="M82 -3 771 728L801 704L113 -28ZM284 315 48 315L52 345L167 465Q207 507 226 538Q245 569 249 603Q254 641 236 659Q218 677 189 677Q176 677 163.5 674.5Q151 672 143 669L118 598H91L100 685Q117 691 136 696Q153 700 174 703Q195 706 218 706Q247 706 267 698.5Q287 691 299 678Q311 665 315 648.5Q319 632 317 615Q312 573 282 539Q252 505 204 461L105 370H258L288 420H311ZM628 -6Q599 -6 574.5 0Q550 6 542 8L548 93H574L589 23Q591 23 600 21Q609 19 621 19Q669 19 697 42.5Q725 66 730 108Q733 129 727 143.5Q721 158 710 168Q699 178 684 182.5Q669 187 653 187H640L631 213Q681 218 709.5 246.5Q738 275 742 305Q745 331 727.5 346Q710 361 678 361Q666 361 656 359Q646 357 636 355L614 296H587L595 374Q612 378 630 382Q647 385 666.5 387.5Q686 390 707 390Q725 390 743.5 386Q762 382 776.5 372.5Q791 363 799.5 348Q808 333 805 310Q801 274 768 250Q735 226 695 210Q740 208 769.5 183.5Q799 159 794 115Q791 93 779 71.5Q767 50 746 33Q725 16 695.5 5Q666 -6 628 -6Z" glyph-name="twothirds" horiz-adv-x="843" unicode="⅔" /><glyph d="M54 -3 743 728L773 704L85 -28ZM60 345 130 349L167 653L85 630L88 657L206 700H235L192 349L259 345L256 315H56ZM637 -6Q575 -6 544 24.5Q513 55 518 96Q523 134 551.5 157.5Q580 181 618 193L605 202Q551 239 557 289Q560 313 572 331.5Q584 350 602 363Q620 376 642 383Q664 390 688 390Q710 390 729.5 384.5Q749 379 763.5 367.5Q778 356 785.5 339.5Q793 323 790 302Q787 283 778.5 269Q770 255 758 245Q746 235 731.5 227.5Q717 220 703 214L715 206Q748 184 766.5 160Q785 136 781 101Q775 56 737.5 25Q700 -6 637 -6ZM686 223Q709 237 728 259Q747 281 749 304Q753 330 738 348.5Q723 367 691 367Q660 367 640.5 351Q621 335 618 309Q615 286 627 269.5Q639 253 664 237ZM641 18Q669 18 692.5 33.5Q716 49 721 84Q725 113 702.5 133Q680 153 648 173L633 182Q608 168 589 146.5Q570 125 567 95Q562 61 584 39.5Q606 18 641 18Z" glyph-name="oneeighth" horiz-adv-x="831" unicode="⅛" /><glyph d="M79 -3 768 728L798 704L110 -28ZM140 309Q111 309 86.5 315Q62 321 54 323L60 408H86L101 338Q103 338 112 336Q121 334 133 334Q181 334 209 357.5Q237 381 242 423Q245 444 239 458.5Q233 473 222 483Q211 493 196 497.5Q181 502 165 502H152L143 528Q193 533 221.5 561.5Q250 590 254 620Q257 646 239.5 661Q222 676 190 676Q178 676 168 674Q158 672 148 670L126 611H99L107 689Q124 693 142 697Q159 700 178.5 702.5Q198 705 219 705Q237 705 255.5 701Q274 697 288.5 687.5Q303 678 311.5 663Q320 648 317 625Q313 589 280 565Q247 541 207 525Q252 523 281.5 498.5Q311 474 306 430Q303 408 291 386.5Q279 365 258 348Q237 331 207.5 320Q178 309 140 309ZM662 -6Q600 -6 569 24.5Q538 55 543 96Q548 134 576.5 157.5Q605 181 643 193L630 202Q576 239 582 289Q585 313 597 331.5Q609 350 627 363Q645 376 667 383Q689 390 713 390Q735 390 754.5 384.5Q774 379 788.5 367.5Q803 356 810.5 339.5Q818 323 815 302Q812 283 803.5 269Q795 255 783 245Q771 235 756.5 227.5Q742 220 728 214L740 206Q773 184 791.5 160Q810 136 806 101Q800 56 762.5 25Q725 -6 662 -6ZM711 223Q734 237 753 259Q772 281 774 304Q778 330 763 348.5Q748 367 716 367Q685 367 665.5 351Q646 335 643 309Q640 286 652 269.5Q664 253 689 237ZM666 18Q694 18 717.5 33.5Q741 49 746 84Q750 113 727.5 133Q705 153 673 173L658 182Q633 168 614 146.5Q595 125 592 95Q587 61 609 39.5Q631 18 666 18Z" glyph-name="threeeighths" horiz-adv-x="856" unicode="⅜" /><glyph d="M74 -3 763 728L793 704L105 -28ZM136 309Q115 309 92.5 311.5Q70 314 53 319L63 396H87L99 340Q107 337 117.5 335.5Q128 334 138 334Q186 334 213 356Q240 378 245 416Q248 439 241 455.5Q234 472 220 483Q206 494 187.5 499Q169 504 148 504Q114 504 87 497L119 700H330L317 645H136L123 557Q131 559 142 559.5Q153 560 161 560Q191 560 218.5 552Q246 544 266 528.5Q286 513 296.5 488.5Q307 464 303 431Q295 372 248.5 340.5Q202 309 136 309ZM657 -6Q595 -6 564 24.5Q533 55 538 96Q543 134 571.5 157.5Q600 181 638 193L625 202Q571 239 577 289Q580 313 592 331.5Q604 350 622 363Q640 376 662 383Q684 390 708 390Q730 390 749.5 384.5Q769 379 783.5 367.5Q798 356 805.5 339.5Q813 323 810 302Q807 283 798.5 269Q790 255 778 245Q766 235 751.5 227.5Q737 220 723 214L735 206Q768 184 786.5 160Q805 136 801 101Q795 56 757.5 25Q720 -6 657 -6ZM706 223Q729 237 748 259Q767 281 769 304Q773 330 758 348.5Q743 367 711 367Q680 367 660.5 351Q641 335 638 309Q635 286 647 269.5Q659 253 684 237ZM661 18Q689 18 712.5 33.5Q736 49 741 84Q745 113 722.5 133Q700 153 668 173L653 182Q628 168 609 146.5Q590 125 587 95Q582 61 604 39.5Q626 18 661 18Z" glyph-name="fiveeighths" horiz-adv-x="851" unicode="⅝" /><glyph d="M53 -3 742 728L772 704L84 -28ZM84 315 292 644H124L105 583H77L90 700H341L338 673L132 315ZM636 -6Q574 -6 543 24.5Q512 55 517 96Q522 134 550.5 157.5Q579 181 617 193L604 202Q550 239 556 289Q559 313 571 331.5Q583 350 601 363Q619 376 641 383Q663 390 687 390Q709 390 728.5 384.5Q748 379 762.5 367.5Q777 356 784.5 339.5Q792 323 789 302Q786 283 777.5 269Q769 255 757 245Q745 235 730.5 227.5Q716 220 702 214L714 206Q747 184 765.5 160Q784 136 780 101Q774 56 736.5 25Q699 -6 636 -6ZM685 223Q708 237 727 259Q746 281 748 304Q752 330 737 348.5Q722 367 690 367Q659 367 639.5 351Q620 335 617 309Q614 286 626 269.5Q638 253 663 237ZM640 18Q668 18 691.5 33.5Q715 49 720 84Q724 113 701.5 133Q679 153 647 173L632 182Q607 168 588 146.5Q569 125 566 95Q561 61 583 39.5Q605 18 640 18Z" glyph-name="seveneighths" horiz-adv-x="831" unicode="⅞" /><glyph d="M369 635 434 636L170 385L812 428L801 325L165 347L368 96L303 97L51 364V368Z" glyph-name="arrowleft" horiz-adv-x="827" unicode="←" /><glyph d="M358 734 585 443L576 377L360 616L301 -35H202L323 616L47 377L55 443L354 734Z" glyph-name="arrowup" horiz-adv-x="589" unicode="↑" /><glyph d="M807 364 489 97L425 96L689 347L48 325L62 428L693 385L491 636L555 635L808 368Z" glyph-name="arrowright" horiz-adv-x="827" unicode="→" /><glyph d="M31 256 40 322L256 83L295 734H395L293 83L569 322L561 256L262 -35H258Z" glyph-name="arrowdown" horiz-adv-x="588" unicode="↓" /><glyph d="M109 665 494 648L534 602L194 593L606 148L525 76L164 566L113 220L73 267L105 662Z" glyph-name="arrowupleft" horiz-adv-x="654" unicode="↖" /><glyph d="M587 267 536 220L569 566L88 76L25 148L546 593L208 602L260 648L649 665L652 662Z" glyph-name="arrowupright" horiz-adv-x="655" unicode="↗" /><glyph d="M577 76 192 93L151 139L492 148L80 593L160 665L521 175L573 521L612 474L580 79Z" glyph-name="arrowdownright" horiz-adv-x="654" unicode="↘" /><glyph d="M102 474 153 521L119 175L601 665L663 593L142 148L480 139L428 93L39 76L37 79Z" glyph-name="arrowdownleft" horiz-adv-x="655" unicode="↙" /><glyph d="M436 281Q436 229 423 177Q410 125 383 83.5Q356 42 315 16Q274 -10 218 -10Q174 -10 141 5.5Q108 21 85.5 49.5Q63 78 52 117.5Q41 157 41 204Q41 257 53.5 307Q66 357 91 396Q116 435 154.5 458.5Q193 482 244 482Q270 482 297 473.5Q324 465 347 447Q328 485 305 524Q282 563 259 600.5Q236 638 213.5 672Q191 706 173 733L195 740Q228 709 269.5 664.5Q311 620 348 562.5Q385 505 410.5 435Q436 365 436 281ZM218 26Q280 26 311 69.5Q342 113 353 198Q357 231 359.5 252Q362 273 363 287Q364 301 364.5 310.5Q365 320 365 330Q365 384 340.5 415Q316 446 264 446Q201 446 168 401Q135 356 124 271Q120 239 117.5 218.5Q115 198 114 186Q113 174 112.5 167Q112 160 112 155Q112 92 138 59Q164 26 218 26Z" glyph-name="partialdiff" horiz-adv-x="479" unicode="∂" /><glyph d="M35 34 418 701H473L684 35L680 0H30ZM602 43 421 622L92 43Z" glyph-name="Delta" horiz-adv-x="711" unicode="∆" /><glyph d="M633 653 273 653L198 47H312L306 0H6L12 47H127L201 653H86L92 700H825L819 653H705L630 47H744L739 0H438L444 47H559Z" glyph-name="product" horiz-adv-x="803" unicode="∏" /><glyph d="M35 52 319 338L111 674L114 700H651L638 544H605L566 657L217 659L394 364L101 65H529L591 168H624L585 0H28Z" glyph-name="summation" horiz-adv-x="631" unicode="∑" /><glyph d="M70 359 422 359L415 306H64Z" glyph-name="minus" horiz-adv-x="464" unicode="−" /><glyph d="M144 230 253 -165L651 763H704L257 -251L198 -250L78 168L-19 126L-28 162Z" glyph-name="radical" horiz-adv-x="627" unicode="√" /><glyph d="M224 147Q184 147 153 163Q122 179 102 206.5Q82 234 73.5 270Q65 306 70 345Q76 390 93.5 430Q111 470 138.5 499.5Q166 529 203.5 546.5Q241 564 287 564Q356 564 396.5 522Q437 480 464 409Q478 441 499.5 469Q521 497 548 518Q575 539 607 551.5Q639 564 675 564Q715 564 745.5 548Q776 532 796 504.5Q816 477 824.5 441Q833 405 828 366Q822 321 805 281Q788 241 760 211.5Q732 182 694.5 164.5Q657 147 611 147Q543 147 502.5 189Q462 231 435 301Q421 270 399.5 242Q378 214 350.5 193Q323 172 291 159.5Q259 147 224 147ZM235 204Q272 204 302 216.5Q332 229 355 247.5Q378 266 395 288.5Q412 311 422 331Q408 365 393.5 397Q379 429 360.5 453.5Q342 478 318 493Q294 508 260 508Q227 508 201 495Q175 482 156 460.5Q137 439 125.5 411.5Q114 384 111 355Q107 324 113 296Q119 268 135 248Q151 228 176 216Q201 204 235 204ZM639 203Q672 203 698 216Q724 229 743 250.5Q762 272 773.5 299.5Q785 327 788 356Q792 388 785.5 415.5Q779 443 763.5 463Q748 483 723 495Q698 507 664 507Q627 507 597.5 494.5Q568 482 544.5 463.5Q521 445 504.5 423Q488 401 477 381Q490 347 504.5 315Q519 283 537.5 258Q556 233 580.5 218Q605 203 639 203Z" glyph-name="infinity" horiz-adv-x="869" unicode="∞" /><glyph d="M31 -252Q14 -252 -0.5 -251Q-15 -250 -26 -250Q-39 -248 -49 -247L-52 -138L-20 -131L8 -212Q13 -213 21.5 -213Q30 -213 35 -213Q65 -213 83.5 -204Q102 -195 112.5 -180.5Q123 -166 128 -147.5Q133 -129 136 -109L222 592Q231 669 274.5 705.5Q318 742 393 742Q410 742 424.5 741Q439 740 450 740Q463 738 473 737L476 628L444 621L417 702Q411 703 402.5 703Q394 703 389 703Q359 703 340.5 694Q322 685 311.5 670.5Q301 656 296 637.5Q291 619 288 599L202 -102Q193 -179 149.5 -215.5Q106 -252 31 -252Z" glyph-name="integral" horiz-adv-x="422" unicode="∫" /><glyph d="M69 349Q75 398 99 428.5Q123 459 162 459Q179 459 206.5 451.5Q234 444 263.5 434.5Q293 425 319 417.5Q345 410 359 410Q378 410 389 425.5Q400 441 402 463H440Q434 414 410 383.5Q386 353 347 353Q330 353 301 360.5Q272 368 242 377.5Q212 387 186.5 394.5Q161 402 150 402Q130 402 119.5 386.5Q109 371 106 349ZM51 202Q57 251 81 281.5Q105 312 144 312Q161 312 188.5 304.5Q216 297 245.5 287.5Q275 278 301 270.5Q327 263 341 263Q360 263 371 278.5Q382 294 384 316H422Q416 267 392 236.5Q368 206 329 206Q312 206 283 213.5Q254 221 224 230.5Q194 240 168.5 247.5Q143 255 132 255Q112 255 101.5 239.5Q91 224 88 202Z" glyph-name="approxequal" horiz-adv-x="464" unicode="≈" /><glyph d="M259 226 250 154H194L203 226H55L61 279H209L222 386H74L81 439H229L238 513H294L285 439H433L426 386H278L265 279H413L407 226Z" glyph-name="notequal" horiz-adv-x="464" unicode="≠" /><glyph d="M61 304 68 359L438 509L432 456L121 332L401 207L395 154ZM31 53 382 53L376 0H24Z" glyph-name="lessequal" horiz-adv-x="464" unicode="≤" /><glyph d="M57 207 369 332L88 456L94 509L428 359L421 304L51 154ZM32 0 39 53H390L384 0Z" glyph-name="greaterequal" horiz-adv-x="464" unicode="≥" /><glyph d="M20 700 720 700V0H20Z" glyph-name="filledbox" horiz-adv-x="740" unicode="■" /><glyph d="M430 700 840 0H20Z" glyph-name="triagup" horiz-adv-x="860" unicode="▲" /><glyph d="M720 350 20 -60V760Z" glyph-name="uni25B6" horiz-adv-x="740" unicode="▶" /><glyph d="M840 700 430 0L20 700Z" glyph-name="triagdn" horiz-adv-x="860" unicode="▼" /><glyph d="M720 -60 20 350L720 760Z" glyph-name="uni25C0" horiz-adv-x="740" unicode="◀" /><glyph d="M63 231 333 700H389L542 231L270 -250H214ZM488 230 354 647L116 230L249 -196Z" glyph-name="lozenge" horiz-adv-x="547" unicode="◊" /><glyph d="M370 0Q298 0 234 27.5Q170 55 122.5 102.5Q75 150 47.5 214Q20 278 20 350Q20 422 47.5 486Q75 550 122.5 597.5Q170 645 234 672.5Q298 700 370 700Q442 700 506 672.5Q570 645 617.5 597.5Q665 550 692.5 486Q720 422 720 350Q720 278 692.5 214Q665 150 617.5 102.5Q570 55 506 27.5Q442 0 370 0Z" glyph-name="uni2B24" horiz-adv-x="740" unicode="⬤" /><glyph d="M224 -10Q178 -10 142.5 11.5Q107 33 85 69.5Q63 106 54.5 155.5Q46 205 53 262L56 281Q63 338 83.5 388Q104 438 135 474.5Q166 511 206.5 532.5Q247 554 293 554Q340 554 375 532.5Q410 511 432.5 474.5Q455 438 463 388Q471 338 464 281L462 262Q455 205 434.5 155.5Q414 106 382.5 69.5Q351 33 311 11.5Q271 -10 224 -10ZM228 28Q269 28 296.5 46Q324 64 341.5 94.5Q359 125 368.5 165.5Q378 206 384 252L389 292Q395 338 395 378.5Q395 419 385 449.5Q375 480 352 498Q329 516 288 516Q248 516 220.5 498Q193 480 176 449.5Q159 419 149.5 378.5Q140 338 134 292L129 252Q123 206 123 165.5Q123 125 132.5 94.5Q142 64 165 46Q188 28 228 28Z" glyph-name="zero.posf" horiz-adv-x="511" unicode="" /><glyph d="M25 44 149 51L201 477L72 437L76 476L239 545H278L217 51L334 44L329 0H20Z" glyph-name="one.posf" horiz-adv-x="375" unicode="" /><glyph d="M409 0 22 0L27 39L187 173Q264 236 307.5 290.5Q351 345 358 396Q362 432 354.5 455Q347 478 332 491.5Q317 505 296.5 510Q276 515 254 515Q212 515 188.5 508.5Q165 502 151 496L117 370H77L97 520Q122 530 152 538Q178 545 210.5 550Q243 555 281 555Q324 555 354.5 543.5Q385 532 404 512Q423 492 430.5 466Q438 440 434 410Q431 382 419 356Q407 330 383 301Q359 272 321 238Q283 204 228 160L101 60H367L419 152H450Z" glyph-name="two.posf" horiz-adv-x="502" unicode="" /><glyph d="M156 -131Q129 -131 104 -127.5Q79 -124 59.5 -120Q40 -116 27.5 -112.5Q15 -109 13 -108L19 34H59L72 -84Q82 -87 94 -89Q104 -90 117 -91.5Q130 -93 144 -93Q239 -93 293.5 -48Q348 -3 357 75Q362 111 351 136.5Q340 162 319 178Q298 194 270 201.5Q242 209 213 209Q205 209 197 208.5Q189 208 181 207L163 247Q207 252 244 267Q281 282 309 304Q337 326 354 354.5Q371 383 375 415Q380 458 349.5 485.5Q319 513 255 513Q227 513 204.5 508Q182 503 161 498L130 390H90L108 527Q133 535 162 541Q189 546 220 550Q251 554 286 554Q315 554 345 547.5Q375 541 398.5 525Q422 509 435.5 483.5Q449 458 444 420Q440 390 424.5 364Q409 338 384.5 316Q360 294 328 275.5Q296 257 260 240Q296 239 328 227.5Q360 216 384 195.5Q408 175 420 145.5Q432 116 427 78Q423 40 402.5 2.5Q382 -35 347.5 -64.5Q313 -94 265 -112.5Q217 -131 156 -131Z" glyph-name="three.posf" horiz-adv-x="493" unicode="" /><glyph d="M241 -120 267 91H-1L6 144L319 545H389L340 146H467L461 91H333L307 -120ZM273 146 316 494L43 146Z" glyph-name="four.posf" horiz-adv-x="498" unicode="" /><glyph d="M137 -130Q106 -130 70.5 -126.5Q35 -123 6 -115L21 6H59L70 -82Q86 -87 105.5 -89.5Q125 -92 144 -92Q238 -92 290 -54Q342 -16 350 53Q358 110 331 146.5Q304 183 260.5 202Q217 221 166.5 225Q116 229 76 221L122 545H462L455 480H152L127 295Q135 296 149 296.5Q163 297 174 297Q219 297 264.5 284Q310 271 345 243.5Q380 216 399.5 173Q419 130 411 69Q405 20 382 -17.5Q359 -55 322.5 -80Q286 -105 238.5 -117.5Q191 -130 137 -130Z" glyph-name="five.posf" horiz-adv-x="485" unicode="" /><glyph d="M236 -10Q197 -10 159.5 5Q122 20 93.5 50.5Q65 81 50.5 126.5Q36 172 43 233Q51 299 83.5 357.5Q116 416 160 465.5Q204 515 253 555Q302 595 343 623Q384 651 411 665.5Q438 680 437 680L471 668Q472 668 443 647.5Q414 627 370 589Q326 551 274 496.5Q222 442 178 375Q205 384 232 388.5Q259 393 282 393Q324 393 360 378Q396 363 421 336Q446 309 458 271Q470 233 464 186Q459 149 443 113.5Q427 78 399 50.5Q371 23 330.5 6.5Q290 -10 236 -10ZM247 28Q280 28 305.5 41.5Q331 55 349 77Q367 99 377.5 128Q388 157 392 187Q402 266 361.5 309.5Q321 353 249 353Q208 353 158 339Q140 311 128 276Q116 241 112 205Q108 171 113.5 139Q119 107 136 82.5Q153 58 180.5 43Q208 28 247 28Z" glyph-name="six.posf" horiz-adv-x="505" unicode="" /><glyph d="M426 481 129 481L95 361H54L77 545H481L476 505L140 -120H64Z" glyph-name="seven.posf" horiz-adv-x="468" unicode="" /><glyph d="M227 -8Q176 -5 138.5 11Q101 27 77.5 52.5Q54 78 44 110Q34 142 38 177Q43 213 58 240.5Q73 268 96.5 289Q120 310 149 324.5Q178 339 209 348L196 356Q145 387 123.5 429Q102 471 108 517Q113 559 133 589.5Q153 620 182 640.5Q211 661 247 670Q283 679 320 677Q353 676 384 665Q415 654 438 633.5Q461 613 473.5 584.5Q486 556 481 518Q477 485 462 460.5Q447 436 426 418Q405 400 380 386.5Q355 373 331 361L356 347Q419 312 446 268Q473 224 465 166Q460 126 441 92.5Q422 59 391.5 36Q361 13 319 1Q277 -11 227 -8ZM307 376Q328 388 348 404Q368 420 384.5 439Q401 458 412 479.5Q423 501 426 523Q429 546 424.5 567Q420 588 407.5 604Q395 620 373 630.5Q351 641 318 642Q287 644 262.5 635Q238 626 220.5 610.5Q203 595 193 575Q183 555 180 534Q175 488 197.5 457.5Q220 427 264 402ZM240 28Q266 27 293 34Q320 41 342.5 57Q365 73 380.5 96.5Q396 120 400 152Q404 181 394.5 203.5Q385 226 366.5 245.5Q348 265 322.5 281.5Q297 298 267 315L229 336Q183 310 149.5 273.5Q116 237 108 175Q104 142 112 116Q120 90 138 71Q156 52 182 41Q208 30 240 28Z" glyph-name="eight.posf" horiz-adv-x="520" unicode="" /><glyph d="M278 554Q316 554 353.5 538.5Q391 523 419.5 492.5Q448 462 463 416.5Q478 371 470 311Q462 246 429.5 187Q397 128 353 78.5Q309 29 260 -11Q211 -51 170 -79Q129 -107 102.5 -121.5Q76 -136 77 -136L42 -124Q41 -124 70 -104Q99 -84 143.5 -45.5Q188 -7 239.5 47.5Q291 102 335 169Q308 160 281 155.5Q254 151 231 151Q189 151 153 166Q117 181 92.5 208Q68 235 56 273.5Q44 312 49 358Q54 395 70 430.5Q86 466 114 493.5Q142 521 183 537.5Q224 554 278 554ZM266 516Q233 516 207.5 502.5Q182 489 164 467Q146 445 135.5 416Q125 387 121 357Q111 278 151.5 234Q192 190 265 190Q285 190 308 194Q331 198 355 205Q373 232 385 267.5Q397 303 402 339Q406 373 400 405Q394 437 377 461.5Q360 486 332.5 501Q305 516 266 516Z" glyph-name="nine.posf" horiz-adv-x="504" unicode="" /><glyph d="M469 747 484 742L429 351Q449 372 472.5 395Q496 418 521 437.5Q546 457 571 469.5Q596 482 620 482Q658 482 681.5 470Q705 458 718 435.5Q731 413 735.5 382Q740 351 740 312Q740 274 730 219Q720 164 694.5 113Q669 62 626 26Q583 -10 516 -10Q465 -10 437.5 7.5Q410 25 390 44L352 -9H320L393 596Q395 614 392.5 633.5Q390 653 381 670Q372 687 355 698Q338 709 311 709Q283 709 264.5 699.5Q246 690 234.5 671Q223 652 217 624Q211 596 206 559L195 472H313L307 432H191L111 -210H205L199 -250H-39L-33 -210H44L124 432H61L65 472H128L141 572Q146 610 157.5 642Q169 674 189 697Q209 720 238.5 732.5Q268 745 308 745Q336 745 355 739.5Q374 734 385 728Q399 720 407 710ZM669 306Q669 344 664.5 367.5Q660 391 651 403.5Q642 416 628.5 420.5Q615 425 597 425Q569 425 539 406Q509 387 483 365Q454 338 425 304L398 81Q398 80 405.5 71.5Q413 63 427 53.5Q441 44 461 36.5Q481 29 506 29Q554 29 585.5 56.5Q617 84 635.5 125Q654 166 661.5 214.5Q669 263 669 306Z" glyph-name="f_b" horiz-adv-x="778" unicode="" /><glyph d="M195 472 379 472L392 572Q397 610 408.5 642Q420 674 440 697Q460 720 489.5 732.5Q519 745 559 745Q587 745 606 739.5Q625 734 636 728Q650 720 658 710L720 747L735 742L680 351Q700 372 723.5 395Q747 418 772 437.5Q797 457 822 469.5Q847 482 871 482Q909 482 932.5 470Q956 458 969 435.5Q982 413 986.5 382Q991 351 991 312Q991 274 981 219Q971 164 945.5 113Q920 62 877 26Q834 -10 767 -10Q716 -10 688.5 7.5Q661 25 641 44L603 -9H571L644 596Q646 614 643.5 633.5Q641 653 632 670Q623 687 606 698Q589 709 562 709Q534 709 515.5 699.5Q497 690 485.5 671Q474 652 468 624Q462 596 457 559L446 472H564L558 432H442L362 -210H456L450 -250H212L218 -210H295L375 432H191L141 40H235L229 0H-9L-3 40H74L124 432H61L65 472H128L143 592Q153 669 197.5 705.5Q242 742 318 742Q326 742 339 741.5Q352 741 359 741L344 703H314Q284 703 265 693.5Q246 684 235 669Q224 654 219.5 635Q215 616 212 596ZM920 306Q920 344 915.5 367.5Q911 391 902 403.5Q893 416 879.5 420.5Q866 425 848 425Q820 425 790 406Q760 387 734 365Q705 338 676 304L649 81Q649 80 656.5 71.5Q664 63 678 53.5Q692 44 712 36.5Q732 29 757 29Q805 29 836.5 56.5Q868 84 886.5 125Q905 166 912.5 214.5Q920 263 920 306Z" glyph-name="f_f_b" horiz-adv-x="1030" unicode="" /><glyph d="M562 709Q534 709 515.5 699.5Q497 690 485.5 671Q474 652 468 624Q462 596 457 559L446 472H564L558 432H442L361 -210H445L439 -250H211L217 -210H294L375 432H191L141 40H235L229 0H-9L-3 40H74L124 432H61L65 472H128L143 592Q153 669 197.5 705.5Q242 742 318 742Q326 742 339 741.5Q352 741 359 741L344 703H314Q284 703 265 693.5Q246 684 235 669Q224 654 219.5 635Q215 616 212 596L195 472H379L392 572Q397 610 408.5 642Q420 674 440 697Q460 720 489.5 732.5Q519 745 559 745Q587 745 606 739.5Q625 734 636 728Q650 720 658 710L720 747L731 742L676 328Q703 358 730.5 385.5Q758 413 783.5 434.5Q809 456 831.5 469Q854 482 871 482Q929 482 952 457Q975 432 975 387Q975 380 974.5 373Q974 366 973 358L932 44L1009 60L1005 20L884 -10L863 7Q876 107 886 187Q892 235 895.5 263Q899 291 902 315.5Q905 340 907 357Q909 374 909 376Q909 399 894.5 413Q880 427 855 427Q828 427 782.5 388.5Q737 350 673 288L639 1L570 -10L645 597Q648 620 645 640Q642 660 632.5 675.5Q623 691 605.5 700Q588 709 562 709Z" glyph-name="f_f_h" horiz-adv-x="1052" unicode="" /><glyph d="M195 472 379 472L390 558Q397 616 419.5 652Q442 688 473.5 708Q505 728 543 735Q581 742 619 742Q637 742 651.5 741Q666 740 677 740Q690 738 700 737L684 628L651 621L643 702Q637 703 628.5 703Q620 703 615 703Q585 703 558.5 697Q532 691 511 674.5Q490 658 476 628.5Q462 599 456 553L446 472H627L702 483L631 -97Q629 -112 625 -129Q621 -146 611.5 -163.5Q602 -181 586 -198Q570 -215 545 -231L499 -260L476 -235L554 -172L629 432H442L393 40H487L481 0H243L249 40H326L375 432H191L111 -210H205L199 -250H-39L-33 -210H44L124 432H61L65 472H128L143 592Q153 669 197.5 705.5Q242 742 318 742Q326 742 339 741.5Q352 741 359 741L344 703H314Q284 703 265 693.5Q246 684 235 669Q224 654 219.5 635Q215 616 212 596Z" glyph-name="f_f_j" horiz-adv-x="748" unicode="" /><glyph d="M720 747 731 742L671 274H746L900 432H814L818 472H1020L1016 432H955L789 265L922 40H1000L996 0H869L734 235H666L637 0L570 -10L644 595Q646 613 643.5 633Q641 653 632 670Q623 687 606 698Q589 709 562 709Q534 709 515.5 699.5Q497 690 485.5 671Q474 652 468 624Q462 596 457 559L446 472H564L558 432H442L361 -210H455L449 -250H211L217 -210H294L375 432H191L141 40H235L229 0H-9L-3 40H74L124 432H61L65 472H128L143 592Q153 669 197.5 705.5Q242 742 318 742Q326 742 339 741.5Q352 741 359 741L344 703H314Q284 703 265 693.5Q246 684 235 669Q224 654 219.5 635Q215 616 212 596L195 472H379L392 572Q397 610 408.5 642Q420 674 440 697Q460 720 489.5 732.5Q519 745 559 745Q587 745 606 739.5Q625 734 636 728Q650 720 658 710Z" glyph-name="f_f_k" horiz-adv-x="1020" unicode="" /><glyph d="M199 -250 -39 -250L-33 -210H44L124 432H61L65 472H128L141 572Q146 610 157.5 642Q169 674 189 697Q209 720 238.5 732.5Q268 745 308 745Q336 745 355 739.5Q374 734 385 728Q399 720 407 710L469 747L480 742L425 328Q452 358 479.5 385.5Q507 413 532.5 434.5Q558 456 580.5 469Q603 482 620 482Q678 482 701 457Q724 432 724 387Q724 380 723.5 373Q723 366 722 358L681 44L758 60L754 20L633 -10L612 7Q625 107 635 187Q641 235 644.5 263Q648 291 651 315.5Q654 340 656 357Q658 374 658 376Q658 399 643.5 413Q629 427 604 427Q577 427 531.5 388.5Q486 350 422 288L388 1L319 -10L394 597Q397 620 394 640Q391 660 381 675.5Q371 691 354 700Q337 709 311 709Q283 709 264.5 699.5Q246 690 234.5 671Q223 652 217 624Q211 596 206 559L195 472H313L307 432H191L111 -210H205Z" glyph-name="f_h" horiz-adv-x="801" unicode="" /><glyph d="M469 747 480 742L420 274H495L649 432H563L567 472H769L765 432H704L538 265L671 40H749L745 0H618L483 235H415L386 0L319 -10L393 596Q395 614 392.5 633.5Q390 653 381 670Q372 687 355 698Q338 709 311 709Q283 709 264.5 699.5Q246 690 234.5 671Q223 652 217 624Q211 596 206 559L195 472H313L307 432H191L111 -210H205L199 -250H-39L-33 -210H44L124 432H61L65 472H128L141 572Q146 610 157.5 642Q169 674 188.5 697Q208 720 237.5 732.5Q267 745 307 745Q335 745 354 739.5Q373 734 385 728Q399 720 407 710Z" glyph-name="f_k" horiz-adv-x="769" unicode="" /><glyph d="M107 502 231 700H268L186 485H105Z" glyph-name="revcommaaccent" horiz-adv-x="246" unicode="" /><glyph d="M78 -57 161 -57L158 -75L40 -250H-4Z" glyph-name="commaaccent" horiz-adv-x="245" unicode="" /><glyph d="M52 -3 741 728L771 704L83 -28ZM58 345 128 349L165 653L83 630L86 657L204 700H233L190 349L257 345L254 315H54ZM597 -6Q576 -6 553.5 -3.5Q531 -1 514 4L524 81H548L560 25Q568 22 578.5 20.5Q589 19 599 19Q647 19 674 41Q701 63 706 101Q709 124 702 140.5Q695 157 681 168Q667 179 648.5 184Q630 189 609 189Q575 189 548 182L580 385H791L778 330H597L584 242Q592 244 603 244.5Q614 245 622 245Q652 245 679.5 237Q707 229 727 213.5Q747 198 757.5 173.5Q768 149 764 116Q756 57 709.5 25.5Q663 -6 597 -6Z" glyph-name="onefifth" horiz-adv-x="819" unicode="" /><glyph d="M81 -3 770 728L800 704L112 -28ZM283 315 47 315L51 345L166 465Q206 507 225 538Q244 569 248 603Q253 641 235 659Q217 677 188 677Q175 677 162.5 674.5Q150 672 142 669L117 598H90L99 685Q116 691 135 696Q152 700 173 703Q194 706 217 706Q246 706 266 698.5Q286 691 298 678Q310 665 314 648.5Q318 632 316 615Q311 573 281 539Q251 505 203 461L104 370H257L287 420H310ZM626 -6Q605 -6 582.5 -3.5Q560 -1 543 4L553 81H577L589 25Q597 22 607.5 20.5Q618 19 628 19Q676 19 703 41Q730 63 735 101Q738 124 731 140.5Q724 157 710 168Q696 179 677.5 184Q659 189 638 189Q604 189 577 182L609 385H820L807 330H626L613 242Q621 244 632 244.5Q643 245 651 245Q681 245 708.5 237Q736 229 756 213.5Q776 198 786.5 173.5Q797 149 793 116Q785 57 738.5 25.5Q692 -6 626 -6Z" glyph-name="twofifths" horiz-adv-x="848" unicode="" /><glyph d="M77 -3 766 728L796 704L108 -28ZM138 309Q109 309 84.5 315Q60 321 52 323L58 408H84L99 338Q101 338 110 336Q119 334 131 334Q179 334 207 357.5Q235 381 240 423Q243 444 237 458.5Q231 473 220 483Q209 493 194 497.5Q179 502 163 502H150L141 528Q191 533 219.5 561.5Q248 590 252 620Q255 646 237.5 661Q220 676 188 676Q176 676 166 674Q156 672 146 670L124 611H97L105 689Q122 693 140 697Q157 700 176.5 702.5Q196 705 217 705Q235 705 253.5 701Q272 697 286.5 687.5Q301 678 309.5 663Q318 648 315 625Q311 589 278 565Q245 541 205 525Q250 523 279.5 498.5Q309 474 304 430Q301 408 289 386.5Q277 365 256 348Q235 331 205.5 320Q176 309 138 309ZM622 -6Q601 -6 578.5 -3.5Q556 -1 539 4L549 81H573L585 25Q593 22 603.5 20.5Q614 19 624 19Q672 19 699 41Q726 63 731 101Q734 124 727 140.5Q720 157 706 168Q692 179 673.5 184Q655 189 634 189Q600 189 573 182L605 385H816L803 330H622L609 242Q617 244 628 244.5Q639 245 647 245Q677 245 704.5 237Q732 229 752 213.5Q772 198 782.5 173.5Q793 149 789 116Q781 57 734.5 25.5Q688 -6 622 -6Z" glyph-name="threefifths" horiz-adv-x="844" unicode="" /><glyph d="M88 -3 777 728L807 704L119 -28ZM157 341 199 341L211 435H54L59 476L244 700H304L277 475H341L336 435H272L260 341H299L296 315H154ZM216 475 238 658L87 475ZM632 -6Q611 -6 588.5 -3.5Q566 -1 549 4L559 81H583L595 25Q603 22 613.5 20.5Q624 19 634 19Q682 19 709 41Q736 63 741 101Q744 124 737 140.5Q730 157 716 168Q702 179 683.5 184Q665 189 644 189Q610 189 583 182L615 385H826L813 330H632L619 242Q627 244 638 244.5Q649 245 657 245Q687 245 714.5 237Q742 229 762 213.5Q782 198 792.5 173.5Q803 149 799 116Q791 57 744.5 25.5Q698 -6 632 -6Z" glyph-name="fourfifths" horiz-adv-x="861" unicode="" /><glyph d="M52 -3 741 728L771 704L83 -28ZM58 345 128 349L165 653L83 630L86 657L204 700H233L190 349L257 345L254 315H54ZM589 -7Q564 -7 540 2.5Q516 12 499 30Q482 48 473 75Q464 102 468 137Q475 193 509.5 239.5Q544 286 585.5 319.5Q627 353 665 373.5Q703 394 717 398L739 390Q730 385 710.5 370.5Q691 356 667.5 334.5Q644 313 619 285.5Q594 258 574 226Q600 234 623 234Q647 234 668 226Q689 218 704.5 202.5Q720 187 728 164.5Q736 142 732 113Q729 90 719 68.5Q709 47 691 30Q673 13 647.5 3Q622 -7 589 -7ZM592 19Q626 19 644 46.5Q662 74 667 109Q672 154 653 180.5Q634 207 596 207Q580 207 560 201Q549 183 541 159.5Q533 136 530 113Q525 76 539.5 47.5Q554 19 592 19Z" glyph-name="onesixth" horiz-adv-x="781" unicode="" /><glyph d="M73 -3 762 728L792 704L104 -28ZM135 309Q114 309 91.5 311.5Q69 314 52 319L62 396H86L98 340Q106 337 116.5 335.5Q127 334 137 334Q185 334 212 356Q239 378 244 416Q247 439 240 455.5Q233 472 219 483Q205 494 186.5 499Q168 504 147 504Q113 504 86 497L118 700H329L316 645H135L122 557Q130 559 141 559.5Q152 560 160 560Q190 560 217.5 552Q245 544 265 528.5Q285 513 295.5 488.5Q306 464 302 431Q294 372 247.5 340.5Q201 309 135 309ZM610 -7Q585 -7 561 2.5Q537 12 520 30Q503 48 494 75Q485 102 489 137Q496 193 530.5 239.5Q565 286 606.5 319.5Q648 353 686 373.5Q724 394 738 398L760 390Q751 385 731.5 370.5Q712 356 688.5 334.5Q665 313 640 285.5Q615 258 595 226Q621 234 644 234Q668 234 689 226Q710 218 725.5 202.5Q741 187 749 164.5Q757 142 753 113Q750 90 740 68.5Q730 47 712 30Q694 13 668.5 3Q643 -7 610 -7ZM613 19Q647 19 665 46.5Q683 74 688 109Q693 154 674 180.5Q655 207 617 207Q601 207 581 201Q570 183 562 159.5Q554 136 551 113Q546 76 560.5 47.5Q575 19 613 19Z" glyph-name="fivesixths" horiz-adv-x="802" unicode="" /><glyph d="M58 -3 747 728L777 704L89 -28ZM64 345 134 349L171 653L89 630L92 657L210 700H239L196 349L263 345L260 315H60ZM554 0 762 329H594L575 268H547L560 385H811L808 358L602 0Z" glyph-name="oneseventh" horiz-adv-x="824" unicode="" /><glyph d="M87 -3 776 728L806 704L118 -28ZM289 315 53 315L57 345L172 465Q212 507 231 538Q250 569 254 603Q259 641 241 659Q223 677 194 677Q181 677 168.5 674.5Q156 672 148 669L123 598H96L105 685Q122 691 141 696Q158 700 179 703Q200 706 223 706Q252 706 272 698.5Q292 691 304 678Q316 665 320 648.5Q324 632 322 615Q317 573 287 539Q257 505 209 461L110 370H263L293 420H316ZM583 0 791 329H623L604 268H576L589 385H840L837 358L631 0Z" glyph-name="twosevenths" horiz-adv-x="853" unicode="" /><glyph d="M83 -3 772 728L802 704L114 -28ZM144 309Q115 309 90.5 315Q66 321 58 323L64 408H90L105 338Q107 338 116 336Q125 334 137 334Q185 334 213 357.5Q241 381 246 423Q249 444 243 458.5Q237 473 226 483Q215 493 200 497.5Q185 502 169 502H156L147 528Q197 533 225.5 561.5Q254 590 258 620Q261 646 243.5 661Q226 676 194 676Q182 676 172 674Q162 672 152 670L130 611H103L111 689Q128 693 146 697Q163 700 182.5 702.5Q202 705 223 705Q241 705 259.5 701Q278 697 292.5 687.5Q307 678 315.5 663Q324 648 321 625Q317 589 284 565Q251 541 211 525Q256 523 285.5 498.5Q315 474 310 430Q307 408 295 386.5Q283 365 262 348Q241 331 211.5 320Q182 309 144 309ZM579 0 787 329H619L600 268H572L585 385H836L833 358L627 0Z" glyph-name="threesevenths" horiz-adv-x="849" unicode="" /><glyph d="M88 -3 777 728L807 704L119 -28ZM157 341 199 341L211 435H54L59 476L244 700H304L277 475H341L336 435H272L260 341H299L296 315H154ZM216 475 238 658L87 475ZM583 0 791 329H623L604 268H576L589 385H840L837 358L631 0Z" glyph-name="foursevenths" horiz-adv-x="854" unicode="" /><glyph d="M79 -3 768 728L798 704L110 -28ZM141 309Q120 309 97.5 311.5Q75 314 58 319L68 396H92L104 340Q112 337 122.5 335.5Q133 334 143 334Q191 334 218 356Q245 378 250 416Q253 439 246 455.5Q239 472 225 483Q211 494 192.5 499Q174 504 153 504Q119 504 92 497L124 700H335L322 645H141L128 557Q136 559 147 559.5Q158 560 166 560Q196 560 223.5 552Q251 544 271 528.5Q291 513 301.5 488.5Q312 464 308 431Q300 372 253.5 340.5Q207 309 141 309ZM575 0 783 329H615L596 268H568L581 385H832L829 358L623 0Z" glyph-name="fivesevenths" horiz-adv-x="845" unicode="" /><glyph d="M90 -3 779 728L809 704L121 -28ZM181 308Q156 308 132 317.5Q108 327 91 345Q74 363 65 390Q56 417 60 452Q67 508 101.5 554.5Q136 601 177.5 634.5Q219 668 257 688.5Q295 709 309 713L331 705Q322 700 302.5 685.5Q283 671 259.5 649.5Q236 628 211 600.5Q186 573 166 541Q192 549 215 549Q239 549 260 541Q281 533 296.5 517.5Q312 502 320 479.5Q328 457 324 428Q321 405 311 383.5Q301 362 283 345Q265 328 239.5 318Q214 308 181 308ZM184 334Q218 334 236 361.5Q254 389 259 424Q264 469 245 495.5Q226 522 188 522Q172 522 152 516Q141 498 133 474.5Q125 451 122 428Q117 391 131.5 362.5Q146 334 184 334ZM585 0 793 329H625L606 268H578L591 385H842L839 358L633 0Z" glyph-name="sixsevenths" horiz-adv-x="855" unicode="" /><glyph d="M57 -3 746 728L776 704L88 -28ZM63 345 133 349L170 653L88 630L91 657L209 700H238L195 349L262 345L259 315H59ZM684 390Q710 390 733.5 380.5Q757 371 774 353Q791 335 800 308Q809 281 805 246Q798 190 763.5 143.5Q729 97 687.5 63.5Q646 30 608 9.5Q570 -11 556 -15L534 -7Q543 -2 562.5 12.5Q582 27 605.5 48.5Q629 70 654 98Q679 126 699 157Q673 149 650 149Q626 149 605 157Q584 165 568.5 180.5Q553 196 545 218.5Q537 241 541 270Q544 293 554 314.5Q564 336 582 353Q600 370 625.5 380Q651 390 684 390ZM681 364Q647 364 629 336.5Q611 309 606 274Q601 229 620 202.5Q639 176 677 176Q694 176 713 182Q724 200 732 223.5Q740 247 743 270Q748 307 733.5 335.5Q719 364 681 364Z" glyph-name="oneninth" horiz-adv-x="836" unicode="" /><glyph d="M86 -3 775 728L805 704L117 -28ZM288 315 52 315L56 345L171 465Q211 507 230 538Q249 569 253 603Q258 641 240 659Q222 677 193 677Q180 677 167.5 674.5Q155 672 147 669L122 598H95L104 685Q121 691 140 696Q157 700 178 703Q199 706 222 706Q251 706 271 698.5Q291 691 303 678Q315 665 319 648.5Q323 632 321 615Q316 573 286 539Q256 505 208 461L109 370H262L292 420H315ZM713 390Q739 390 762.5 380.5Q786 371 803 353Q820 335 829 308Q838 281 834 246Q827 190 792.5 143.5Q758 97 716.5 63.5Q675 30 637 9.5Q599 -11 585 -15L563 -7Q572 -2 591.5 12.5Q611 27 634.5 48.5Q658 70 683 98Q708 126 728 157Q702 149 679 149Q655 149 634 157Q613 165 597.5 180.5Q582 196 574 218.5Q566 241 570 270Q573 293 583 314.5Q593 336 611 353Q629 370 654.5 380Q680 390 713 390ZM710 364Q676 364 658 336.5Q640 309 635 274Q630 229 649 202.5Q668 176 706 176Q723 176 742 182Q753 200 761 223.5Q769 247 772 270Q777 307 762.5 335.5Q748 364 710 364Z" glyph-name="twoninths" horiz-adv-x="865" unicode="" /><glyph d="M88 -3 777 728L807 704L119 -28ZM157 341 199 341L211 435H54L59 476L244 700H304L277 475H341L336 435H272L260 341H299L296 315H154ZM216 475 238 658L87 475ZM714 390Q740 390 763.5 380.5Q787 371 804 353Q821 335 830 308Q839 281 835 246Q828 190 793.5 143.5Q759 97 717.5 63.5Q676 30 638 9.5Q600 -11 586 -15L564 -7Q573 -2 592.5 12.5Q612 27 635.5 48.5Q659 70 684 98Q709 126 729 157Q703 149 680 149Q656 149 635 157Q614 165 598.5 180.5Q583 196 575 218.5Q567 241 571 270Q574 293 584 314.5Q594 336 612 353Q630 370 655.5 380Q681 390 714 390ZM711 364Q677 364 659 336.5Q641 309 636 274Q631 229 650 202.5Q669 176 707 176Q724 176 743 182Q754 200 762 223.5Q770 247 773 270Q778 307 763.5 335.5Q749 364 711 364Z" glyph-name="fourninths" horiz-adv-x="869" unicode="" /><glyph d="M77 -3 766 728L796 704L108 -28ZM139 309Q118 309 95.5 311.5Q73 314 56 319L66 396H90L102 340Q110 337 120.5 335.5Q131 334 141 334Q189 334 216 356Q243 378 248 416Q251 439 244 455.5Q237 472 223 483Q209 494 190.5 499Q172 504 151 504Q117 504 90 497L122 700H333L320 645H139L126 557Q134 559 145 559.5Q156 560 164 560Q194 560 221.5 552Q249 544 269 528.5Q289 513 299.5 488.5Q310 464 306 431Q298 372 251.5 340.5Q205 309 139 309ZM704 390Q730 390 753.5 380.5Q777 371 794 353Q811 335 820 308Q829 281 825 246Q818 190 783.5 143.5Q749 97 707.5 63.5Q666 30 628 9.5Q590 -11 576 -15L554 -7Q563 -2 582.5 12.5Q602 27 625.5 48.5Q649 70 674 98Q699 126 719 157Q693 149 670 149Q646 149 625 157Q604 165 588.5 180.5Q573 196 565 218.5Q557 241 561 270Q564 293 574 314.5Q584 336 602 353Q620 370 645.5 380Q671 390 704 390ZM701 364Q667 364 649 336.5Q631 309 626 274Q621 229 640 202.5Q659 176 697 176Q714 176 733 182Q744 200 752 223.5Q760 247 763 270Q768 307 753.5 335.5Q739 364 701 364Z" glyph-name="fiveninths" horiz-adv-x="856" unicode="" /><glyph d="M9 -3 698 728L728 704L40 -28ZM92 315 300 644H132L113 583H85L98 700H349L346 673L140 315ZM636 390Q662 390 685.5 380.5Q709 371 726 353Q743 335 752 308Q761 281 757 246Q750 190 715.5 143.5Q681 97 639.5 63.5Q598 30 560 9.5Q522 -11 508 -15L486 -7Q495 -2 514.5 12.5Q534 27 557.5 48.5Q581 70 606 98Q631 126 651 157Q625 149 602 149Q578 149 557 157Q536 165 520.5 180.5Q505 196 497 218.5Q489 241 493 270Q496 293 506 314.5Q516 336 534 353Q552 370 577.5 380Q603 390 636 390ZM633 364Q599 364 581 336.5Q563 309 558 274Q553 229 572 202.5Q591 176 629 176Q646 176 665 182Q676 200 684 223.5Q692 247 695 270Q700 307 685.5 335.5Q671 364 633 364Z" glyph-name="sevenninths" horiz-adv-x="788" unicode="" /></font>
</defs>
</svg>
