<?xml version="1.0" encoding="utf-8"?>
<!-- Generator: Adobe Illustrator 21.0.0, SVG Export Plug-In . SVG Version: 6.00 Build 0)  -->
<svg version="1.1" xmlns="http://www.w3.org/2000/svg" xmlns:xlink="http://www.w3.org/1999/xlink" x="0px" y="0px"
	 viewBox="0 0 64 64" enable-background="new 0 0 64 64" xml:space="preserve">
<g id="temp" display="none">
</g>
<g id="outlined" display="none">
</g>
<g id="build">
	<g>
		<g>
			<path d="M55.91,46.272h-7.549v-3h7.549c1.451,0,2.632-1.206,2.632-2.688V28.905c0-1.482-1.181-2.688-2.632-2.688H7.039
				c-0.805,0-1.46,0.673-1.46,1.5v12.867c0,1.482,1.181,2.688,2.632,2.688h8.083v3H8.211c-3.105,0-5.632-2.551-5.632-5.688V27.718
				c0-2.481,2.001-4.5,4.46-4.5H55.91c3.105,0,5.632,2.551,5.632,5.688v11.679C61.542,43.721,59.016,46.272,55.91,46.272z"/>
		</g>
		<g>
			<path d="M17.46,23.792h-3v-9.958c0-2.481,1.819-4.5,4.057-4.5H45.25c2.931,0,4.417,1.5,4.417,4.458V23.5h-3v-9.708
				c0-1.413-0.225-1.458-1.417-1.458H18.517c-0.5,0-1.057,0.616-1.057,1.5V23.792z"/>
		</g>
		<g>
			<circle cx="53.333" cy="31.292" r="2"/>
		</g>
		<g>
			<path d="M45.208,54.667h-25.25c-2.481,0-4.5-2.019-4.5-4.5v-13.25h34.25v13.25C49.708,52.648,47.689,54.667,45.208,54.667z
				 M18.458,39.917v10.25c0,0.827,0.673,1.5,1.5,1.5h25.25c0.827,0,1.5-0.673,1.5-1.5v-10.25H18.458z"/>
		</g>
		<g>
			<rect x="21.083" y="43.081" width="23" height="1.691"/>
		</g>
		<g>
			<rect x="21.083" y="46.331" width="23" height="1.691"/>
		</g>
	</g>
</g>
</svg>
