<?xml version="1.0" encoding="iso-8859-1"?>
<!-- Generator: Adobe Illustrator 19.1.0, SVG Export Plug-In . SVG Version: 6.00 Build 0)  -->
<svg xmlns="http://www.w3.org/2000/svg" xmlns:xlink="http://www.w3.org/1999/xlink" version="1.1" id="Capa_1" x="0px" y="0px" viewBox="0 0 505.083 505.083" style="enable-background:new 0 0 505.083 505.083;" xml:space="preserve" width="512px" height="512px">
<g>
	<path d="M479.744,102.561c-33.785-33.785-89.771-33.785-123.556,0s-33.785,89.771,0,123.556l0.965,0.965   c-15.444,20.271-29.924,41.507-45.368,61.778c-19.306-8.688-41.507-8.688-60.813,0.965c-19.306-22.201-37.646-44.403-56.952-66.604   c19.306-23.167,18.34-58.882-3.861-81.084c-23.167-23.167-61.778-23.167-84.945,0c-22.201,22.201-23.167,57.917-2.896,82.049   c-10.618,13.514-21.236,26.063-31.854,39.577c-18.34-8.688-41.507-4.826-55.986,10.618C4.826,284.034,0,296.582,0,310.096   c0,13.514,4.826,26.063,14.479,35.715s23.167,14.479,35.715,14.479s26.063-4.826,35.715-14.479s14.479-22.201,14.479-35.715   c0-11.583-3.861-22.201-10.618-30.889c10.618-13.514,21.236-26.063,31.854-39.577c8.688,3.861,17.375,5.792,27.028,5.792   s18.34-1.931,27.028-6.757c18.34,22.201,37.646,43.438,55.986,65.639c-27.993,27.993-27.993,74.327,0,102.32   c14.479,14.479,32.82,21.236,51.16,21.236c18.34,0,36.681-6.757,51.16-21.236c27.993-27.993,27.993-74.327,0-102.32   c-0.965-0.965-0.965-0.965-1.931-0.965c14.479-20.271,29.924-40.542,44.403-60.813c12.549,6.757,27.028,10.618,41.507,10.618   c22.201,0,44.403-8.688,61.778-25.097C513.529,192.332,513.529,136.346,479.744,102.561z M68.535,327.471   c-10.618,10.618-27.028,10.618-37.646,0c-4.826-4.826-7.722-11.583-7.722-18.34c0-6.757,2.896-13.514,7.722-18.34   s11.583-7.722,18.34-7.722s13.514,2.896,18.34,7.722s7.722,11.583,7.722,18.34S73.361,322.645,68.535,327.471z M122.591,209.707   c-14.479-14.479-14.479-36.681,0-51.16c14.479-14.479,36.681-14.479,51.16,0c14.479,14.479,14.479,36.681,0,51.16   C160.237,224.186,137.07,224.186,122.591,209.707z M316.612,389.249c-18.34,18.34-49.229,18.34-67.57,0   c-18.34-18.34-18.34-49.229,0-67.57c9.653-9.653,21.236-14.479,33.785-14.479c12.549,0,25.097,4.826,33.785,14.479   C335.918,340.02,335.918,369.944,316.612,389.249z M463.335,208.742c-24.132,24.132-64.674,24.132-88.806,0   s-24.132-64.674,0-88.806c12.549-12.549,28.958-18.34,44.403-18.34c16.41,0,31.854,5.792,44.403,18.34   C487.467,144.068,487.467,184.61,463.335,208.742z" fill="#FFFFFF"/>
	<g>
	</g>
	<g>
	</g>
	<g>
	</g>
	<g>
	</g>
	<g>
	</g>
	<g>
	</g>
	<g>
	</g>
	<g>
	</g>
	<g>
	</g>
	<g>
	</g>
	<g>
	</g>
	<g>
	</g>
	<g>
	</g>
	<g>
	</g>
	<g>
	</g>
</g>
<g>
</g>
<g>
</g>
<g>
</g>
<g>
</g>
<g>
</g>
<g>
</g>
<g>
</g>
<g>
</g>
<g>
</g>
<g>
</g>
<g>
</g>
<g>
</g>
<g>
</g>
<g>
</g>
<g>
</g>
</svg>
