<?xml version="1.0" standalone="no"?>
<!DOCTYPE svg PUBLIC "-//W3C//DTD SVG 1.1//EN" "http://www.w3.org/Graphics/SVG/1.1/DTD/svg11.dtd" >
<svg xmlns="http://www.w3.org/2000/svg">
<metadata></metadata>
<defs>
<font id="apex_newultra" horiz-adv-x="1228" >
<font-face units-per-em="2048" ascent="1536" descent="-512" />
<missing-glyph horiz-adv-x="348" />
<glyph horiz-adv-x="2048" />
<glyph horiz-adv-x="2048" />
<glyph unicode="&#xd;" horiz-adv-x="2048" />
<glyph unicode=" "  horiz-adv-x="348" />
<glyph unicode="&#x09;" horiz-adv-x="348" />
<glyph unicode="&#xa0;" horiz-adv-x="348" />
<glyph unicode="!" horiz-adv-x="581" d="M29 1536h524l-115 -1024h-295zM49 205q0 100 71 170.5t171 70.5t170.5 -70.5t70.5 -170.5t-70.5 -171t-170.5 -71t-171 71t-71 171z" />
<glyph unicode="&#x22;" horiz-adv-x="1052" d="M29 1536h483l-74 -512h-336zM541 1536h483l-74 -512h-336z" />
<glyph unicode="#" horiz-adv-x="1499" d="M20 295l97 321h178l84 304h-189l97 321h182l82 295h321l-81 -295h180l82 295h321l-82 -295h187l-97 -321h-180l-84 -304h191l-97 -321h-182l-82 -295h-321l82 295h-181l-82 -295h-321l82 295h-187zM616 616h181l84 304h-181z" />
<glyph unicode="$" d="M53 84l10 412q129 -72 279 -99l70 201q-127 27 -203 76.5t-116 142.5t-40 240q0 239 156.5 377.5t458.5 138.5q15 0 42 -1t40 -1l77 221h228l-88 -254q76 -17 149 -49l-10 -416q-113 53 -277 74l-65 -191q108 -19 182.5 -51.5t127.5 -87.5t77.5 -137.5t24.5 -198.5 q0 -518 -615 -518q-73 0 -141 6l-78 -225h-227l94 268q-93 32 -156 72zM498 1061q0 -51 51 -70l55 158q-58 -9 -82 -30t-24 -58zM563 381q92 3 130 25t38 67q0 40 -25.5 60.5t-78.5 29.5z" />
<glyph unicode="%" horiz-adv-x="2088" d="M20 1116q0 228 115.5 342.5t337.5 114.5t337.5 -114.5t115.5 -342.5t-115.5 -342.5t-337.5 -114.5t-337.5 114.5t-115.5 342.5zM344 0l1088 1536h313l-1088 -1536h-313zM442 1116q0 -119 31 -119t31 119t-31 119t-31 -119zM1163 420q0 228 115.5 342.5t337.5 114.5 t337 -114.5t115 -342.5t-115 -342.5t-337 -114.5t-337.5 114.5t-115.5 342.5zM1585 420q0 -119 31 -119t31 119t-31 119t-31 -119z" />
<glyph unicode="&#x26;" horiz-adv-x="1617" d="M27 457q0 113 34.5 197t87 133t132.5 92q-66 142 -66 266q0 204 128 316t372 112q239 0 357 -111t118 -317q0 -136 -79.5 -228t-231.5 -159q70 -97 178 -164q44 57 65 153t13 175h436q21 -137 -9 -278.5t-110 -258.5q71 -37 141 -51l-163 -371q-169 38 -314 109 q-210 -109 -465 -109q-145 0 -255.5 25.5t-195.5 81.5t-129 153t-44 234zM455 494q0 -51 20.5 -87.5t54 -55t68 -26.5t72.5 -8q15 0 29.5 1.5t22.5 3.5l7 2q-107 99 -205 204q-28 31 -47 56q-22 -31 -22 -90zM641 1128q0 -18 10.5 -49.5t22.5 -48.5q90 41 90 98 q0 26 -14.5 43t-44.5 17q-64 0 -64 -60z" />
<glyph unicode="'" horiz-adv-x="540" d="M29 1536h483l-74 -512h-336z" />
<glyph unicode="(" horiz-adv-x="684" d="M76 512q0 184 24 354t63 297.5t78.5 217.5t80.5 155h337q-42 -69 -81.5 -162t-78.5 -221.5t-63 -296t-24 -344.5t24 -344.5t63 -296t78.5 -221.5t81.5 -162h-337q-41 65 -80.5 155t-78.5 217.5t-63 297.5t-24 354z" />
<glyph unicode=")" horiz-adv-x="684" d="M25 -512q42 69 81.5 162t78.5 221.5t63 296t24 344.5t-24 344.5t-63 296t-78.5 221.5t-81.5 162h337q41 -65 80.5 -155t78.5 -217.5t63 -297.5t24 -354t-24 -354t-63 -297.5t-78.5 -217.5t-80.5 -155h-337z" />
<glyph unicode="*" horiz-adv-x="1196" d="M37 952l149 459l203 -100l-33 225h484l-33 -225l203 100l149 -459l-223 -39l158 -161l-392 -285l-104 199l-104 -199l-392 285l158 161z" />
<glyph unicode="+" d="M61 481v434h332v336h443v-336h331v-434h-331v-336h-443v336h-332z" />
<glyph unicode="," horiz-adv-x="581" d="M-16 -256l75 666h486l-221 -666h-340z" />
<glyph unicode="-" horiz-adv-x="704" d="M45 512v348h614v-348h-614z" />
<glyph unicode="." horiz-adv-x="581" d="M49 205q0 100 71 170.5t171 70.5t170.5 -70.5t70.5 -170.5t-70.5 -171t-170.5 -71t-171 71t-71 171z" />
<glyph unicode="/" horiz-adv-x="1183" d="M0 -410l707 2048h477l-707 -2048h-477z" />
<glyph unicode="0" d="M41 768q0 232 28 382.5t96.5 246.5t175.5 136t271 40q131 0 225 -26t163 -82.5t109.5 -152t59.5 -227.5t19 -317q0 -231 -28.5 -382t-97.5 -247t-176.5 -136t-271.5 -40q-219 0 -341.5 76t-177 248.5t-54.5 480.5zM463 768q0 -246 28.5 -327t122.5 -81q39 0 64.5 12 t43.5 38t27 76t13 115t4 167q0 100 -4 165t-13 115t-27 76.5t-43.5 39t-64.5 12.5t-64.5 -12.5t-43 -39t-27 -77t-13 -115t-3.5 -164.5z" />
<glyph unicode="1" d="M113 0v324l266 10v833l-254 -18v283l518 141h207v-1239l268 -10v-324h-1005z" />
<glyph unicode="2" d="M33 0v289q312 194 490.5 388t178.5 318q0 156 -237 156q-213 0 -391 -78l-11 406q83 41 233.5 67.5t301.5 26.5q143 0 249 -29t166.5 -73t97.5 -109.5t48.5 -126t11.5 -133.5q0 -99 -38 -194t-97.5 -171t-145 -149t-169 -126.5t-180.5 -103.5l655 19v-377h-1163z" />
<glyph unicode="3" d="M37 45l10 381q233 -72 455 -72q131 0 196.5 32t65.5 110q0 79 -41 107t-135 28h-375v330h365q83 0 116 24.5t33 85.5q0 63 -61.5 90t-180.5 27q-227 0 -430 -76l-10 387q92 38 231.5 56t249.5 18q175 0 298 -32t192 -93.5t99 -140t30 -183.5q0 -200 -160 -313 q94 -39 150.5 -128.5t56.5 -229.5q0 -119 -32.5 -206t-106.5 -152.5t-201.5 -98.5t-310.5 -33q-300 0 -504 82z" />
<glyph unicode="4" d="M8 264v305l633 1004h422v-940h158v-369h-158v-264h-463v264h-592zM432 629l168 4l4 293z" />
<glyph unicode="5" d="M39 39l10 385q216 -72 467 -72q112 0 174 32.5t62 113.5q0 83 -39.5 113t-128.5 30h-508v895h1063v-377h-623v-186h125q100 0 177 -11t149.5 -42t119.5 -83t75 -136.5t28 -198.5q0 -539 -635 -539q-139 0 -286 18.5t-230 57.5z" />
<glyph unicode="6" d="M10 682q0 93 4 168t14 154.5t28 141t46.5 122.5t67.5 106t93.5 84t123 63t156.5 38t194 14q131 0 264 -21t189 -49l-10 -397q-177 78 -424 78q-74 0 -135.5 -17t-109 -51.5t-70 -93t-13.5 -135.5q116 96 344 96q230 0 338.5 -121.5t108.5 -363.5q0 -535 -596 -535 q-312 0 -462.5 177.5t-150.5 541.5zM449 510q0 -158 165 -158q166 0 166 158t-155 158q-78 0 -127 -44t-49 -114z" />
<glyph unicode="7" d="M27 1159v377h1187v-231l-561 -1305h-495l581 1169z" />
<glyph unicode="8" d="M23 455q0 118 52 208.5t130 141.5q-59 52 -98 132.5t-39 176.5q0 222 134 340.5t412 118.5t412.5 -118.5t134.5 -340.5q0 -96 -39 -176.5t-98 -132.5q78 -51 130 -141.5t52 -208.5q0 -242 -155 -367t-437 -125q-281 0 -436 125t-155 367zM455 504q0 -146 159 -146 q160 0 160 146q0 145 -160 145q-84 0 -121.5 -36.5t-37.5 -108.5zM489 1069q0 -113 125 -113t125 113q0 62 -31 87.5t-94 25.5t-94 -25.5t-31 -87.5z" />
<glyph unicode="9" d="M10 1038q0 535 596 535q312 0 462.5 -177.5t150.5 -541.5q0 -93 -4 -168t-14 -154.5t-28 -141t-46.5 -122.5t-67.5 -106t-93.5 -84t-123 -63t-156.5 -38t-194 -14q-131 0 -264 21t-189 49l10 397q177 -78 424 -78q74 0 135.5 17t109 51.5t70 93t13.5 135.5 q-116 -96 -344 -96q-230 0 -338.5 121.5t-108.5 363.5zM449 1026q0 -158 155 -158q78 0 127 44t49 114q0 158 -166 158q-165 0 -165 -158z" />
<glyph unicode=":" horiz-adv-x="581" d="M49 205q0 100 71 170.5t171 70.5t170.5 -70.5t70.5 -170.5t-70.5 -171t-170.5 -71t-171 71t-71 171zM49 819q0 100 71 171t171 71t170.5 -71t70.5 -171t-70.5 -170.5t-170.5 -70.5t-171 70.5t-71 170.5z" />
<glyph unicode=";" horiz-adv-x="581" d="M-16 -256l75 666h486l-221 -666h-340zM49 819q0 100 71 171t171 71t170.5 -71t70.5 -171t-70.5 -170.5t-170.5 -70.5t-171 70.5t-71 170.5z" />
<glyph unicode="&#x3c;" d="M61 512v373l1106 424v-451l-555 -160l555 -159v-451z" />
<glyph unicode="=" d="M61 225v434h1106v-434h-1106zM61 737v434h1106v-434h-1106z" />
<glyph unicode="&#x3e;" d="M61 88v451l555 159l-555 160v451l1106 -424v-373z" />
<glyph unicode="?" horiz-adv-x="1011" d="M10 1499q61 31 183 52.5t245 21.5q102 0 184 -13t139 -34t99 -53.5t67 -66.5t39.5 -78t19.5 -83t5 -86q0 -44 -4.5 -81.5t-11.5 -67.5t-21.5 -57.5t-27 -48t-35.5 -41.5t-40.5 -35t-48.5 -33t-52.5 -30.5t-59.5 -31.5q-102 -52 -102 -147q0 -46 8 -74h-293 q-21 19 -47.5 76t-26.5 125q0 88 42.5 140.5t150.5 102.5q34 16 45 21.5t33.5 18.5t30 22t15 23.5t7.5 31.5q0 38 -35.5 59t-122.5 21q-82 0 -189 -20.5t-186 -61.5zM209 205q0 100 71 170.5t171 70.5t170.5 -70.5t70.5 -170.5t-70.5 -171t-170.5 -71t-171 71t-71 171z" />
<glyph unicode="@" horiz-adv-x="2115" d="M25 512q0 107 14 199t48.5 180.5t89 159.5t138.5 131.5t193.5 100.5t257.5 62.5t328 22.5q240 0 415 -30t286.5 -83t178 -138t92 -183.5t25.5 -231.5q0 -154 -45.5 -270.5t-129.5 -188t-197 -106.5t-255 -35h-207l-20 41q-137 -77 -305 -77q-221 0 -325.5 103t-104.5 343 t104.5 343t325.5 103q168 0 305 -77l20 41h326v-508q43 0 72.5 9t58.5 36.5t43.5 88.5t14.5 154q0 97 -20 163t-64.5 114t-125.5 74.5t-192.5 38.5t-275.5 12q-205 0 -343.5 -30t-231.5 -100t-134 -182t-41 -280t41 -280t134 -182t231.5 -100t343.5 -30q193 0 406 31.5 t333 85.5l10 -268q-127 -47 -337.5 -80t-411.5 -33q-180 0 -328 22.5t-257.5 62.5t-193.5 100.5t-138.5 131.5t-89 159.5t-48.5 180.5t-14 199zM963 512q0 -54 22 -79t80 -25q32 0 53 12v184q-21 12 -53 12q-58 0 -80 -25t-22 -79z" />
<glyph unicode="A" horiz-adv-x="1318" d="M-10 0l334 1536h671l334 -1536h-485l-43 244h-283l-43 -244h-485zM580 592h159l-80 524z" />
<glyph unicode="B" horiz-adv-x="1267" d="M59 0v1536h623q125 0 218.5 -22.5t151.5 -61t93.5 -97t49 -123t13.5 -147.5q0 -81 -37 -157t-100 -113q81 -36 129.5 -123t48.5 -205q0 -86 -14.5 -155.5t-53 -133t-100.5 -106t-161 -67.5t-230 -25h-631zM514 350h141q58 0 89.5 32t31.5 116t-32 116.5t-89 32.5h-141 v-297zM514 934h115q45 0 73.5 30.5t28.5 96.5t-28 95.5t-74 29.5h-115v-252z" />
<glyph unicode="C" horiz-adv-x="1155" d="M35 768q2 405 175 605t527 200q229 0 393 -70l-10 -407q-169 51 -325 51q-65 0 -114.5 -18.5t-88.5 -60.5t-59.5 -117.5t-20.5 -182.5t20.5 -182.5t59.5 -117.5t88.5 -60.5t114.5 -18.5q156 0 325 51l10 -407q-164 -70 -393 -70q-354 0 -527 200t-175 605z" />
<glyph unicode="D" horiz-adv-x="1325" d="M59 0v1536h551q117 0 213 -20t165.5 -56t122.5 -90t87 -117t54.5 -143.5t29 -162t8.5 -179.5t-8.5 -179.5t-29 -162t-54.5 -143.5t-87 -117t-122.5 -90t-165.5 -56t-213 -20h-551zM535 403h73q117 0 158 82.5t41 282.5t-41 282.5t-158 82.5h-73v-730z" />
<glyph unicode="E" horiz-adv-x="1191" d="M59 0v1536h1086v-410h-610v-133h552v-409h-552v-174h610v-410h-1086z" />
<glyph unicode="F" horiz-adv-x="1165" d="M59 0v1536h1076v-410h-600v-174h542v-409h-542v-543h-476z" />
<glyph unicode="G" horiz-adv-x="1329" d="M35 768q0 404 174.5 604.5t527.5 200.5q305 0 514 -90l-10 -412q-83 27 -126 39t-131.5 24.5t-188.5 12.5q-148 0 -215.5 -93.5t-67.5 -287.5q0 -114 19 -194.5t57 -126.5t88 -66.5t119 -20.5v226h-168v368h643v-866q-89 -55 -228 -89t-305 -34q-353 0 -527.5 200.5 t-174.5 604.5z" />
<glyph unicode="H" horiz-adv-x="1339" d="M59 0v1536h476v-543h270v543h475v-1536h-475v584h-270v-584h-476z" />
<glyph unicode="I" horiz-adv-x="593" d="M59 0v1536h476v-1536h-476z" />
<glyph unicode="J" horiz-adv-x="827" d="M-2 8l10 398q101 -33 180 -33q63 0 89 28t26 88v1047h475v-1171q0 -203 -124 -302.5t-386 -99.5q-56 0 -139.5 11t-130.5 34z" />
<glyph unicode="K" horiz-adv-x="1388" d="M59 0v1536h476v-537l294 537h564l-457 -676l496 -860h-592l-305 614v-614h-476z" />
<glyph unicode="L" horiz-adv-x="1085" d="M59 0v1536h476v-1126h534v-410h-1010z" />
<glyph unicode="M" horiz-adv-x="1769" d="M59 0v1536h631l195 -815l194 815h631v-1536h-469l31 870l-191 -696h-393l-190 696l30 -870h-469z" />
<glyph unicode="N" horiz-adv-x="1370" d="M59 0v1536h449l354 -698l-16 698h465v-1536h-449l-354 698l16 -698h-465z" />
<glyph unicode="O" horiz-adv-x="1339" d="M35 768q0 114 7 203.5t25.5 175.5t49.5 149.5t79.5 117.5t115 88t156 52.5t202.5 18.5t202.5 -18.5t156 -52.5t115 -88t79.5 -117.5t49.5 -149.5t25.5 -175.5t7 -203.5t-7 -203.5t-25.5 -175.5t-49.5 -149.5t-79.5 -117.5t-115 -88t-156 -52.5t-202.5 -18.5t-202.5 18.5 t-156 52.5t-115 88t-79.5 117.5t-49.5 149.5t-25.5 175.5t-7 203.5zM518 768q0 -168 13 -249t44 -111.5t95 -30.5t94.5 30.5t43.5 111t13 249.5t-13 249.5t-43.5 111t-94.5 30.5t-95 -30.5t-44 -111.5t-13 -249z" />
<glyph unicode="P" horiz-adv-x="1239" d="M59 0v1536h572q164 0 281.5 -35t187 -104t101.5 -162t32 -217t-32 -217.5t-101.5 -162.5t-187 -104.5t-281.5 -35.5h-101v-498h-471zM530 874h115q109 0 109 140q0 139 -109 139h-115v-279z" />
<glyph unicode="Q" horiz-adv-x="1339" d="M35 768q0 114 7 203.5t25.5 175.5t49.5 149.5t79.5 117.5t115 88t156 52.5t202.5 18.5t202.5 -18.5t156 -52.5t115 -88t79.5 -117.5t49.5 -149.5t25.5 -175.5t7 -203.5q0 -232 -35 -388.5t-125 -254.5l272 -59l-10 -414l-1006 346q-89 27 -153.5 77.5t-105.5 116.5 t-65 158.5t-33 191t-9 226.5zM518 768q0 -168 13 -249t44 -111.5t95 -30.5t94.5 30.5t43.5 111t13 249.5t-13 249.5t-43.5 111t-94.5 30.5t-95 -30.5t-44 -111.5t-13 -249z" />
<glyph unicode="R" horiz-adv-x="1298" d="M59 0v1536h613q164 0 278.5 -34t180 -102t94 -156.5t28.5 -209.5q0 -299 -186 -416l260 -618h-536l-175 532h-92v-532h-465zM524 901h129q53 0 77 29t24 90t-24 90t-77 29h-129v-238z" />
<glyph unicode="S" d="M37 84l10 412q87 -48 217 -81.5t264 -33.5q107 0 157 21.5t50 70.5t-42.5 70t-121.5 30q-74 8 -129.5 17t-109.5 23t-92.5 32.5t-73.5 45t-57.5 60.5t-39.5 79t-24.5 101t-7.5 126q0 250 157 383t478 133q152 0 273.5 -25t195.5 -59l-11 -416q-80 39 -198 60.5t-223 21.5 q-207 0 -207 -94q0 -24 11.5 -40.5t38 -25.5t49.5 -13t65 -9q118 -12 198 -31t148 -53.5t107 -87.5t60 -131.5t21 -188.5q0 -117 -29.5 -206t-82.5 -148t-133.5 -96t-175 -52.5t-214.5 -15.5q-330 0 -528 121z" />
<glyph unicode="T" horiz-adv-x="1196" d="M10 1126v410h1176v-410h-350v-1126h-476v1126h-350z" />
<glyph unicode="U" horiz-adv-x="1339" d="M49 512v1024h475v-981q0 -106 35 -142t111 -36t110.5 36t34.5 142v981h475v-1024q0 -125 -34.5 -222t-92 -157.5t-139 -99.5t-168 -54.5t-186.5 -15.5t-186.5 15.5t-168.5 54.5t-139.5 99.5t-92 157.5t-34.5 222z" />
<glyph unicode="V" horiz-adv-x="1318" d="M-20 1536h514l165 -944l166 944h514l-399 -1536h-561z" />
<glyph unicode="W" horiz-adv-x="1810" d="M-14 1536h477l65 -870l150 870h455l149 -870l66 870h477l-240 -1536h-536l-144 870l-143 -870h-537z" />
<glyph unicode="X" horiz-adv-x="1380" d="M-29 0l371 801l-342 735h532l158 -475l158 475h532l-342 -735l371 -801h-535l-184 494l-184 -494h-535z" />
<glyph unicode="Y" horiz-adv-x="1380" d="M-29 1536h525l194 -494l195 494h524l-481 -942v-594h-475v594z" />
<glyph unicode="Z" horiz-adv-x="1236" d="M10 0v252l580 858l-539 -4v430h1155v-252l-579 -858l600 4v-430h-1217z" />
<glyph unicode="[" horiz-adv-x="575" d="M96 -512v2048h445v-328h-129v-1392h129v-328h-445z" />
<glyph unicode="\" horiz-adv-x="1183" d="M0 1638h477l707 -2048h-477z" />
<glyph unicode="]" horiz-adv-x="575" d="M35 -184h129v1392h-129v328h444v-2048h-444v328z" />
<glyph unicode="^" horiz-adv-x="1024" d="M16 768l289 805h414l289 -805h-402l-94 356l-94 -356h-402z" />
<glyph unicode="_" horiz-adv-x="581" d="M-16 -184h614v-328h-614v328z" />
<glyph unicode="`" horiz-adv-x="1093" d="M188 1536h410l102 -410h-307z" />
<glyph unicode="a" horiz-adv-x="1073" d="M27 297q0 92 22.5 153.5t74 99.5t123.5 56.5t183 26.5l178 12v35q0 28 -26.5 43.5t-98.5 15.5q-98 0 -201 -23t-182 -57l-10 326q79 31 215 53.5t268 22.5q140 0 232.5 -25t142.5 -77t69 -118t19 -163v-678h-334l-32 55q-118 -92 -301 -92q-176 0 -259 84.5t-83 249.5z M414 344q0 -47 25.5 -68.5t62.5 -21.5q65 0 104 35v168l-94 -11q-98 -11 -98 -102z" />
<glyph unicode="b" horiz-adv-x="1150" d="M43 0v1536h471v-518q105 43 209 43q208 0 309 -125.5t101 -423.5t-101 -423.5t-309 -125.5q-151 0 -315 92l-33 -55h-332zM514 324q33 -19 74 -19q46 0 64 42t18 165t-18 165t-64 42q-41 0 -74 -19v-376z" />
<glyph unicode="c" horiz-adv-x="854" d="M18 512q0 274 123.5 411.5t397.5 137.5q187 0 284 -33l-10 -369q-78 23 -156 23q-97 0 -136.5 -38t-39.5 -132t39.5 -132t136.5 -38q78 0 156 23l10 -369q-97 -33 -284 -33q-274 0 -397.5 137.5t-123.5 411.5z" />
<glyph unicode="d" horiz-adv-x="1150" d="M18 512q0 298 101 423.5t309 125.5q101 0 209 -43v518h471v-1536h-332l-33 55q-164 -92 -315 -92q-208 0 -309 125.5t-101 423.5zM481 512q0 -123 18 -165t64 -42q41 0 74 19v376q-33 19 -74 19q-46 0 -64 -42t-18 -165z" />
<glyph unicode="e" horiz-adv-x="1075" d="M18 512q0 284 130 416.5t419 132.5q86 0 156.5 -14t121 -38t88.5 -60.5t61 -77.5t37.5 -94t20 -104.5t5.5 -113.5q0 -87 -8 -158h-603v-5q0 -48 34 -78q36 -31 134 -31q203 0 406 53l12 -303q-90 -38 -218.5 -56t-240.5 -18q-157 0 -264 32.5t-171 102.5t-92 170t-28 244 zM446 606h195q1 15 1 29q0 51 -15 79q-19 34 -72 34q-60 0 -86 -33q-23 -30 -23 -94v-15z" />
<glyph unicode="f" horiz-adv-x="854" d="M0 688v283l158 43v172q0 195 98 291t313 96q88 0 159 -9.5t98 -18.5l28 -9l-10 -352q-53 20 -129 20q-86 0 -86 -71v-109h213v-336h-213v-688h-471v688h-158z" />
<glyph unicode="g" horiz-adv-x="1136" d="M-53 -270q0 193 209 241q-51 14 -82 65t-31 107q0 125 117 191h4q-152 89 -152 330q0 215 118 306t386 91q173 0 283 -37h340v-293l-121 -33q2 -12 2 -34q0 -215 -118 -306.5t-386 -91.5q-71 0 -104 2q-6 -9 -6 -22q0 -30 38 -33l426 -45q84 -9 141 -36.5t86.5 -71.5 t41.5 -94.5t12 -117.5q0 -134 -90 -225t-240 -131.5t-352 -40.5q-148 0 -252 19.5t-162 58t-83 87.5t-25 114zM362 -166q0 -86 150 -86q100 0 151.5 23t51.5 63q0 38 -39 43l-260 29q-54 -24 -54 -72zM426 653q0 -67 19.5 -97t70.5 -30t70.5 30t19.5 97t-19.5 97t-70.5 30 t-70.5 -30t-19.5 -97z" />
<glyph unicode="h" horiz-adv-x="1148" d="M43 0v1536h471v-516q92 41 227 41q93 0 160.5 -19.5t107.5 -51.5t63 -82t30.5 -101t7.5 -119v-688h-471v666q0 36 -41 36q-42 0 -84 -22v-680h-471z" />
<glyph unicode="i" horiz-adv-x="602" d="M37 1331q0 100 71 171t171 71t170.5 -71t70.5 -171t-70.5 -170.5t-170.5 -70.5t-171 70.5t-71 170.5zM43 274v750h471v-606q0 -62 78 -62v-356q-103 -23 -207 -23q-342 0 -342 297z" />
<glyph unicode="j" horiz-adv-x="565" d="M-127 -172q100 0 135 39.5t35 132.5v1024h471v-1143q0 -220 -169.5 -325t-471.5 -105v377zM37 1331q0 100 71 171t171 71t170.5 -71t70.5 -171t-70.5 -170.5t-170.5 -70.5t-171 70.5t-71 170.5z" />
<glyph unicode="k" horiz-adv-x="1216" d="M43 0v1536h471l-8 -834l168 322h536l-325 -465l356 -559h-571l-164 408l8 -408h-471z" />
<glyph unicode="l" horiz-adv-x="602" d="M43 274v1262h471v-1118q0 -62 78 -62v-356q-103 -23 -207 -23q-342 0 -342 297z" />
<glyph unicode="m" horiz-adv-x="1738" d="M43 0v1024h332l33 -55q152 92 333 92q191 0 279 -82q149 82 317 82q93 0 160.5 -19.5t107.5 -51.5t63 -82t30.5 -101t7.5 -119v-688h-471v666q0 36 -41 36q-42 0 -84 -22v-680h-471v666q0 36 -41 36q-42 0 -84 -22v-680h-471z" />
<glyph unicode="n" horiz-adv-x="1148" d="M43 0v1024h332l33 -55q152 92 333 92q93 0 160.5 -19.5t107.5 -51.5t63 -82t30.5 -101t7.5 -119v-688h-471v666q0 36 -41 36q-42 0 -84 -22v-680h-471z" />
<glyph unicode="o" horiz-adv-x="1105" d="M20 512q0 295 120.5 422t412.5 127t412 -127t120 -422t-120 -422t-412 -127t-412.5 127t-120.5 422zM471 512q0 -128 16 -166.5t66 -38.5q33 0 49.5 15.5t24.5 59t8 130.5t-8 130.5t-24.5 59t-49.5 15.5q-50 0 -66 -38.5t-16 -166.5z" />
<glyph unicode="p" horiz-adv-x="1150" d="M43 -512v1536h332l33 -55q164 92 315 92q208 0 309 -125.5t101 -423.5t-101 -423.5t-309 -125.5q-101 0 -209 41v-516h-471zM514 324q33 -19 74 -19q46 0 64 42t18 165t-18 165t-64 42q-41 0 -74 -19v-376z" />
<glyph unicode="q" horiz-adv-x="1150" d="M18 512q0 298 101 423.5t309 125.5q151 0 315 -92l33 55h332v-1536h-471v516q-112 -41 -209 -41q-208 0 -309 125.5t-101 423.5zM481 512q0 -123 18 -165t64 -42q41 0 74 19v376q-33 19 -74 19q-46 0 -64 -42t-18 -165z" />
<glyph unicode="r" horiz-adv-x="827" d="M43 0v1024h332l33 -55q55 41 132 66.5t146 25.5q88 0 131 -21l-10 -393q-39 10 -100 10q-101 0 -193 -45v-612h-471z" />
<glyph unicode="s" horiz-adv-x="966" d="M31 37l10 342q206 -80 397 -80q36 0 54 8.5t18 30.5q0 21 -12 29t-37 10q-110 8 -182.5 22t-123 35.5t-76.5 58t-37 82t-11 115.5q0 371 483 371q235 0 389 -62l-10 -340q-176 66 -358 66q-78 0 -78 -39q0 -23 11.5 -30t37.5 -9q135 -10 215 -27t130 -54t67.5 -90.5 t17.5 -141.5q0 -83 -24 -147t-79 -116t-154 -80t-239 -28q-137 0 -229.5 19.5t-179.5 54.5z" />
<glyph unicode="t" horiz-adv-x="864" d="M0 688v283l158 43v198l471 125v-313h213v-336h-213v-295q0 -67 69 -67q32 0 64 4t48 8l17 4l11 -342q-92 -37 -275 -37q-215 0 -310 92.5t-95 274.5v358h-158z" />
<glyph unicode="u" horiz-adv-x="1148" d="M39 336v688h471v-666q0 -36 41 -36q42 0 84 22v680h471v-1024h-332l-33 55q-152 -92 -333 -92q-93 0 -160.5 19.5t-107.5 51.5t-63 82t-30.5 101t-7.5 119z" />
<glyph unicode="v" horiz-adv-x="1114" d="M-20 1024h475l102 -608l102 608h476l-304 -1024h-548z" />
<glyph unicode="w" horiz-adv-x="1462" d="M-20 1024h438l43 -567l59 567h422l59 -567l43 567h439l-168 -1024h-508l-76 557l-76 -557h-508z" />
<glyph unicode="x" horiz-adv-x="1196" d="M-27 0l299 530l-288 494h526l88 -276l88 276h526l-288 -494l299 -530h-529l-96 285l-96 -285h-529z" />
<glyph unicode="y" horiz-adv-x="1155" d="M-20 1024h509l91 -578l102 578h494l-514 -1536h-547l211 475z" />
<glyph unicode="z" horiz-adv-x="1032" d="M23 0v307l350 336l-330 -4v385h942v-307l-350 -336l375 4v-385h-987z" />
<glyph unicode="{" horiz-adv-x="575" d="M31 371v282h80q21 0 18 25l-33 571q-9 148 70 217.5t221 69.5h154v-328h-109q-22 0 -20 -22l32 -518q4 -112 -71 -156q75 -44 71 -156l-32 -518q-2 -22 20 -22h109v-328h-154q-142 0 -221 69.5t-70 217.5l33 571q3 25 -18 25h-80z" />
<glyph unicode="|" horiz-adv-x="593" d="M59 -410v2048h476v-2048h-476z" />
<glyph unicode="}" horiz-adv-x="575" d="M35 -184h108q23 0 21 22l-33 518q-4 111 72 156q-76 45 -72 156l33 518q2 22 -21 22h-108v328h153q142 0 221 -69.5t70 -217.5l-33 -571q-2 -25 19 -25h80v-282h-80q-21 0 -19 -25l33 -571q9 -148 -70 -217.5t-221 -69.5h-153v328z" />
<glyph unicode="~" horiz-adv-x="1024" d="M61 510v352q23 22 80.5 39t120.5 17q67 0 139 -18t124.5 -39.5t119.5 -39.5t125 -18q57 0 116.5 20t76.5 39v-352q-21 -21 -79.5 -38t-121.5 -17q-84 0 -174 28.5t-175 57t-159 28.5q-57 0 -116.5 -20t-76.5 -39z" />
<glyph unicode="&#xa1;" horiz-adv-x="581" d="M29 -512l114 1024h295l115 -1024h-524zM49 819q0 100 71 171t171 71t170.5 -71t70.5 -171t-70.5 -170.5t-170.5 -70.5t-171 70.5t-71 170.5z" />
<glyph unicode="&#xa2;" d="M111 768q0 255 126.5 392t403.5 155l78 221h338l-90 -242q73 -13 151 -47l-10 -356q-148 51 -317 51q-126 0 -175 -43.5t-49 -130.5t49 -130.5t175 -43.5q159 0 317 51l10 -356q-144 -70 -395 -70h-43l-76 -219h-338l107 281q-262 120 -262 487z" />
<glyph unicode="&#xa3;" d="M27 0v367h114v274h-114v256h114v156q0 522 590 522q286 0 463 -82l-10 -367q-201 72 -377 72q-99 0 -150 -31.5t-51 -109.5v-160h387v-256h-387v-274h594v-367h-1173z" />
<glyph unicode="&#xa4;" horiz-adv-x="1638" d="M70 242l213 213q-70 137 -70 313t70 313l-213 213l237 238l219 -219q139 65 293 65t293 -65l219 219l238 -238l-213 -213q69 -132 69 -313t-69 -313l213 -213l-238 -238l-219 219q-139 -65 -293 -65t-293 65l-219 -219zM631 768q0 -108 46.5 -155.5t141.5 -47.5t142 48 t47 155t-47 155t-142 48t-141.5 -47.5t-46.5 -155.5z" />
<glyph unicode="&#xa5;" d="M-104 1536h524l194 -596l195 596h524l-256 -512h205v-225h-315l-31 -62h346v-225h-438l4 -512h-467l4 512h-438v225h346l-31 62h-315v225h203z" />
<glyph unicode="&#xa6;" horiz-adv-x="593" d="M59 -410v973h476v-973h-476zM59 666v972h476v-972h-476z" />
<glyph unicode="&#xa7;" horiz-adv-x="1433" d="M43 535q0 277 190 407q-6 52 -6 115q0 250 157 383t478 133q152 0 273.5 -25t195.5 -59l-10 -416q-80 39 -198 60.5t-224 21.5q-207 0 -207 -94q0 -24 11.5 -40.5t38 -25.5t49.5 -13t65 -9q84 -9 146 -19.5t121 -28.5t99 -42.5t74 -59.5t54 -82.5t30.5 -110t10.5 -141.5 q0 -279 -191 -409q6 -53 6 -113q0 -250 -157 -383t-478 -133q-152 0 -273.5 25t-195.5 59l11 416q80 -39 198 -60.5t224 -21.5q206 0 206 94q0 24 -11.5 40.5t-37.5 25.5t-49 13t-65 9q-84 9 -146 19.5t-121 28.5t-99 42.5t-74 59.5t-54 82.5t-30.5 110t-10.5 141.5z M508 539q0 -24 11.5 -40.5t38 -25.5t49.5 -13t65 -9q119 -12 211 -33q43 21 43 67q0 24 -11.5 40.5t-38 25.5t-49.5 13t-65 9q-119 12 -211 33q-43 -22 -43 -67z" />
<glyph unicode="&#xa8;" horiz-adv-x="1093" d="M33 1331q0 100 70.5 171t170.5 71t171 -71t71 -171t-71 -170.5t-171 -70.5t-170.5 70.5t-70.5 170.5zM578 1331q0 100 70.5 171t170.5 71t171 -71t71 -171t-71 -170.5t-171 -70.5t-170.5 70.5t-70.5 170.5z" />
<glyph unicode="&#xa9;" horiz-adv-x="1589" d="M104 639q0 143 36 257t98.5 190.5t151 127t188.5 73t215 22.5q116 0 217 -22.5t189.5 -73t151 -127t98.5 -190.5t36 -257q0 -142 -36 -256t-98.5 -190t-151 -126.5t-189.5 -73t-217 -22.5q-115 0 -215 22.5t-188.5 73t-151 126.5t-98.5 190t-36 256zM268 639 q0 -135 41.5 -235.5t115.5 -159.5t167 -87t205 -28q88 0 164 17t143 56t114.5 97t75 145t27.5 195q0 109 -27.5 196t-75 145.5t-114.5 97.5t-143 56t-164 17q-112 0 -205 -28.5t-167 -87t-115.5 -159.5t-41.5 -237zM381 641q0 204 106.5 308t335.5 104q158 0 264 -54 l-6 -282q-106 39 -221 39q-135 0 -135 -115t135 -115q112 0 221 37l6 -282q-110 -52 -264 -52q-229 0 -335.5 104t-106.5 308z" />
<glyph unicode="&#xaa;" horiz-adv-x="825" d="M25 991q0 73 17 120t57 75.5t93.5 42.5t139.5 22l127 13v8q0 23 -16 34t-58 11q-166 0 -305 -62l-10 261q63 23 165.5 40t202.5 17q106 0 175.5 -19t106 -59t50.5 -90t14 -123v-516h-268l-18 33q-74 -62 -213 -62q-260 0 -260 254zM334 1030q0 -30 16 -43.5t41 -13.5 q45 0 72 18v115l-64 -8q-65 -7 -65 -68z" />
<glyph unicode="&#xab;" horiz-adv-x="919" d="M45 379v266l389 287v-307l-115 -113l115 -113v-307zM475 379v266l389 287v-307l-114 -113l114 -113v-307z" />
<glyph unicode="&#xac;" d="M61 686v434h1106v-739h-442v305h-664z" />
<glyph unicode="&#xad;" horiz-adv-x="704" d="M45 512v348h614v-348h-614z" />
<glyph unicode="&#xae;" horiz-adv-x="704" d="M55 1288q0 70 16.5 122t42.5 83t66.5 49.5t80.5 24.5t91 6t91 -6t80.5 -24.5t66.5 -49.5t42.5 -83t16.5 -122t-16.5 -121.5t-43 -82t-66.5 -49t-80 -25t-91 -6.5t-91 6.5t-80 25t-66.5 49t-43 82t-16.5 121.5zM143 1288q0 -64 15.5 -105.5t46 -62t64.5 -28t83 -7.5 t83 7.5t64.5 28t46 62t15.5 105.5t-15.5 105.5t-46 62t-64.5 28t-83 7.5t-83 -7.5t-64.5 -28t-46 -62t-15.5 -105.5zM223 1124v328h152q114 0 114 -106q0 -68 -47 -93l58 -129h-99l-39 109h-51v-109h-88zM311 1311h56q28 0 28 32q0 29 -30 29h-54v-61z" />
<glyph unicode="&#xaf;" horiz-adv-x="1093" d="M225 1188v287h643v-287h-643z" />
<glyph unicode="&#xb0;" horiz-adv-x="876" d="M55 1212q0 361 383 361t383 -361q0 -360 -383 -360t-383 360zM356 1212q0 -71 82 -71t82 71q0 72 -82 72t-82 -72z" />
<glyph unicode="&#xb1;" d="M61 0v434h1106v-434h-1106zM61 686v434h332v234h443v-234h331v-434h-331v-213h-443v213h-332z" />
<glyph unicode="&#xb2;" horiz-adv-x="884" d="M27 696v238q212 73 307.5 127t95.5 113q0 34 -22.5 55.5t-69.5 21.5q-139 0 -279 -59l-8 311q143 70 404 70q111 0 188 -24.5t113.5 -66t50.5 -82.5t14 -89q0 -54 -20 -99.5t-50 -77t-76 -59.5t-86 -45t-93 -35l362 15v-314h-831z" />
<glyph unicode="&#xb3;" horiz-adv-x="907" d="M27 715l8 301q153 -47 323 -47q179 0 179 37q0 26 -54 26h-329v170h311q55 0 55 25q0 12 -13 20t-49.5 12.5t-99.5 4.5t-139.5 -11t-122.5 -23l-45 -11l-8 299q38 20 145.5 37.5t219.5 17.5q442 0 442 -240q0 -66 -32 -114t-77 -62q140 -56 140 -215q0 -283 -473 -283 q-108 0 -223.5 19t-157.5 37z" />
<glyph unicode="&#xb4;" horiz-adv-x="1093" d="M393 1126l103 410h409l-205 -410h-307z" />
<glyph unicode="&#xb6;" horiz-adv-x="1239" d="M59 1014q0 83 19.5 157.5t65 142t113.5 116t171.5 77.5t233.5 29h571v-1536h-475v492h-41v-492h-268v514q-83 20 -149.5 57.5t-111 85t-74 106.5t-42.5 121t-13 130z" />
<glyph unicode="&#xb7;" horiz-adv-x="581" d="M49 686q0 100 71 171t171 71t170.5 -71t70.5 -171t-70.5 -171t-170.5 -71t-171 71t-71 171z" />
<glyph unicode="&#xb8;" horiz-adv-x="1093" d="M322 -268q15 -5 62.5 -11t84.5 -6q133 0 133 56q0 30 -38.5 48.5t-123.5 28.5l15 152h190l6 -86q113 -27 170.5 -78t57.5 -133q0 -105 -89.5 -160t-246.5 -55q-139 0 -221 29v215z" />
<glyph unicode="&#xb9;" horiz-adv-x="657" d="M4 1229v235l395 109h172v-877h-391v539z" />
<glyph unicode="&#xba;" horiz-adv-x="860" d="M25 1155q0 224 91.5 321t313.5 97t314 -97t92 -321t-92 -321t-314 -97t-313.5 97t-91.5 321zM387 1155q0 -84 8.5 -109.5t34.5 -25.5t34.5 25.5t8.5 109.5t-8.5 109.5t-34.5 25.5t-34.5 -25.5t-8.5 -109.5z" />
<glyph unicode="&#xbb;" horiz-adv-x="919" d="M55 92v307l115 113l-115 113v307l389 -287v-266zM485 92v307l115 113l-115 113v307l389 -287v-266z" />
<glyph unicode="&#xbc;" horiz-adv-x="2148" d="M4 1229v235l395 109h172v-877h-391v539zM248 0l1087 1536h314l-1088 -1536h-313zM1141 133v252l399 492h463v-461h131v-283h-131v-133h-379v133h-483zM1522 412l102 4l10 143z" />
<glyph unicode="&#xbd;" horiz-adv-x="2115" d="M4 1229v235l395 109h172v-877h-391v539zM248 0l1087 1536h314l-1088 -1536h-313zM1257 0v238q213 74 308.5 127t95.5 112q0 34 -22.5 56t-69.5 22q-139 0 -279 -59l-8 311q143 70 404 70q90 0 158 -17t106.5 -43t62.5 -63t31.5 -70t7.5 -70q0 -54 -20 -99.5t-50 -77 t-76.5 -59.5t-86.5 -44.5t-93 -34.5l363 14v-313h-832z" />
<glyph unicode="&#xbe;" horiz-adv-x="2377" d="M27 715l8 301q153 -47 323 -47q179 0 179 37q0 26 -54 26h-329v170h311q55 0 55 25q0 12 -13 20t-49.5 12.5t-99.5 4.5t-139.5 -11t-122.5 -23l-45 -11l-8 299q38 20 145.5 37.5t219.5 17.5q442 0 442 -240q0 -66 -32 -114t-77 -62q140 -56 140 -215q0 -283 -473 -283 q-108 0 -223.5 19t-157.5 37zM477 0l1088 1536h313l-1087 -1536h-314zM1370 133v252l399 492h463v-461h131v-283h-131v-133h-379v133h-483zM1751 412l102 4l11 143z" />
<glyph unicode="&#xbf;" horiz-adv-x="1011" d="M20 -135q0 56 8 102t19 80.5t34.5 66t43.5 52t57.5 45.5t64 39.5t75.5 40.5q102 52 102 147q0 46 -8 74h293q21 -19 47 -76t26 -125q0 -88 -42.5 -140.5t-149.5 -102.5q-34 -16 -45 -21.5t-33.5 -18.5t-30 -22t-15 -23.5t-7.5 -31.5q0 -38 35 -59t122 -21q82 0 189 20.5 t186 61.5l10 -428q-61 -31 -183 -52.5t-245 -21.5q-102 0 -184 13t-139 34t-99 53.5t-67 66.5t-39.5 78t-19.5 83t-5 86zM319 819q0 100 71 171t171 71t171 -71t71 -171t-71 -170.5t-171 -70.5t-171 70.5t-71 170.5z" />
<glyph unicode="&#xc0;" horiz-adv-x="1318" d="M-10 0l334 1536h671l334 -1536h-485l-43 244h-283l-43 -244h-485zM342 1843h440l72 -225h-389zM580 592h159l-80 524z" />
<glyph unicode="&#xc1;" horiz-adv-x="1318" d="M-10 0l334 1536h671l334 -1536h-485l-43 244h-283l-43 -244h-485zM465 1618l72 225h440l-123 -225h-389zM580 592h159l-80 524z" />
<glyph unicode="&#xc2;" horiz-adv-x="1318" d="M-10 0l334 1536h671l334 -1536h-485l-43 244h-283l-43 -244h-485zM178 1618l256 225h451l256 -225h-369l-113 63l-112 -63h-369zM580 592h159l-80 524z" />
<glyph unicode="&#xc3;" horiz-adv-x="1318" d="M-10 0l334 1536h671l334 -1536h-485l-43 244h-283l-43 -244h-485zM193 1618q-7 67 8.5 115.5t41 73t68.5 38.5t73 16.5t71 2.5q91 0 210 -33t150 -33q37 0 49.5 10.5t9.5 34.5h252q7 -67 -8.5 -115.5t-41 -73t-68.5 -38.5t-73 -16.5t-71 -2.5q-91 0 -210 33t-150 33 q-37 0 -50 -10.5t-10 -34.5h-251zM580 592h159l-80 524z" />
<glyph unicode="&#xc4;" horiz-adv-x="1318" d="M-10 0l334 1536h671l334 -1536h-485l-43 244h-283l-43 -244h-485zM145 1731q0 77 53 105t189 28q135 0 188.5 -28t53.5 -105q0 -78 -53.5 -106t-188.5 -28q-136 0 -189 28t-53 106zM580 592h159l-80 524zM690 1731q0 77 53 105t189 28q135 0 188.5 -28t53.5 -105 q0 -78 -53.5 -106t-188.5 -28q-136 0 -189 28t-53 106z" />
<glyph unicode="&#xc5;" horiz-adv-x="1318" d="M-10 0l334 1536h671l334 -1536h-485l-43 244h-283l-43 -244h-485zM399 1782q0 98 56 141t204 43q149 0 205 -43t56 -141t-56.5 -141.5t-204.5 -43.5t-204 43.5t-56 141.5zM580 592h159l-80 524zM596 1782q0 -21 13 -29t50 -8t50.5 8t13.5 29t-13.5 29t-50.5 8t-50 -8 t-13 -29z" />
<glyph unicode="&#xc6;" horiz-adv-x="1884" d="M-4 0l504 1536h1339v-410h-641l16 -133h568v-409h-518l20 -174h555v-410h-991l-21 236h-262l-61 -236h-508zM659 584h140l-39 491z" />
<glyph unicode="&#xc7;" horiz-adv-x="1155" d="M35 768q2 405 175 605t527 200q229 0 393 -70l-10 -407q-169 51 -325 51q-65 0 -114.5 -18.5t-88.5 -60.5t-59.5 -117.5t-20.5 -182.5t20.5 -182.5t59.5 -117.5t88.5 -60.5t114.5 -18.5q156 0 325 51l10 -407q-145 -63 -350 -68l4 -51q113 -27 170.5 -78t57.5 -133 q0 -105 -89.5 -160t-246.5 -55q-139 0 -221 29v215q15 -5 62.5 -11t84.5 -6q133 0 133 56q0 30 -38.5 48.5t-123.5 28.5l13 125q-277 40 -413 238t-138 557z" />
<glyph unicode="&#xc8;" horiz-adv-x="1196" d="M59 0v1536h1086v-410h-610v-133h552v-409h-552v-174h610v-410h-1086zM301 1843h440l72 -225h-389z" />
<glyph unicode="&#xc9;" horiz-adv-x="1196" d="M59 0v1536h1086v-410h-610v-133h552v-409h-552v-174h610v-410h-1086zM424 1618l72 225h440l-123 -225h-389z" />
<glyph unicode="&#xca;" horiz-adv-x="1196" d="M59 0v1536h1086v-410h-610v-133h552v-409h-552v-174h610v-410h-1086zM137 1618l256 225h451l256 -225h-369l-113 63l-112 -63h-369z" />
<glyph unicode="&#xcb;" horiz-adv-x="1196" d="M59 0v1536h1086v-410h-610v-133h552v-409h-552v-174h610v-410h-1086zM104 1731q0 77 53 105t189 28q135 0 188.5 -28t53.5 -105q0 -78 -53.5 -106t-188.5 -28q-136 0 -189 28t-53 106zM649 1731q0 77 53 105t189 28q135 0 188.5 -28t53.5 -105q0 -78 -53.5 -106 t-188.5 -28q-136 0 -189 28t-53 106z" />
<glyph unicode="&#xcc;" horiz-adv-x="593" d="M-20 1843h440l72 -225h-390zM59 0v1536h476v-1536h-476z" />
<glyph unicode="&#xcd;" horiz-adv-x="593" d="M59 0v1536h476v-1536h-476zM102 1618l72 225h440l-122 -225h-390z" />
<glyph unicode="&#xce;" horiz-adv-x="593" d="M-184 1618l256 225h450l256 -225h-368l-113 63l-113 -63h-368zM59 0v1536h476v-1536h-476z" />
<glyph unicode="&#xcf;" horiz-adv-x="593" d="M-217 1731q0 77 53 105t189 28q135 0 188 -28t53 -105q0 -78 -53 -106t-188 -28q-136 0 -189 28t-53 106zM59 0v1536h476v-1536h-476zM328 1731q0 77 52.5 105t188.5 28q135 0 188.5 -28t53.5 -105q0 -78 -53.5 -106t-188.5 -28q-136 0 -188.5 28t-52.5 106z" />
<glyph unicode="&#xd0;" horiz-adv-x="1406" d="M-10 645v287h151v604h551q117 0 213 -20t165.5 -56t122.5 -90t87 -117t54.5 -143.5t29 -162t8.5 -179.5t-8.5 -179.5t-29 -162t-54.5 -143.5t-87 -117t-122.5 -90t-165.5 -56t-213 -20h-551v645h-151zM616 403h74q117 0 158 82.5t41 282.5t-41 282.5t-158 82.5h-74v-201 h193v-287h-193v-242z" />
<glyph unicode="&#xd1;" horiz-adv-x="1370" d="M59 0v1536h449l354 -698l-16 698h465v-1536h-449l-354 698l16 -698h-465zM217 1618q-7 67 8.5 115.5t41 73t68.5 38.5t73 16.5t71 2.5q91 0 210.5 -33t150.5 -33q37 0 49.5 10.5t9.5 34.5h252q7 -67 -8.5 -115.5t-41 -73t-68.5 -38.5t-73 -16.5t-71 -2.5q-91 0 -210.5 33 t-150.5 33q-37 0 -49.5 -10.5t-9.5 -34.5h-252z" />
<glyph unicode="&#xd2;" horiz-adv-x="1339" d="M35 768q0 114 7 203.5t25.5 175.5t49.5 149.5t79.5 117.5t115 88t156 52.5t202.5 18.5t202.5 -18.5t156 -52.5t115 -88t79.5 -117.5t49.5 -149.5t25.5 -175.5t7 -203.5t-7 -203.5t-25.5 -175.5t-49.5 -149.5t-79.5 -117.5t-115 -88t-156 -52.5t-202.5 -18.5t-202.5 18.5 t-156 52.5t-115 88t-79.5 117.5t-49.5 149.5t-25.5 175.5t-7 203.5zM352 1843h441l71 -225h-389zM518 768q0 -168 13 -249t44 -111.5t95 -30.5t94.5 30.5t43.5 111t13 249.5t-13 249.5t-43.5 111t-94.5 30.5t-95 -30.5t-44 -111.5t-13 -249z" />
<glyph unicode="&#xd3;" horiz-adv-x="1339" d="M35 768q0 114 7 203.5t25.5 175.5t49.5 149.5t79.5 117.5t115 88t156 52.5t202.5 18.5t202.5 -18.5t156 -52.5t115 -88t79.5 -117.5t49.5 -149.5t25.5 -175.5t7 -203.5t-7 -203.5t-25.5 -175.5t-49.5 -149.5t-79.5 -117.5t-115 -88t-156 -52.5t-202.5 -18.5t-202.5 18.5 t-156 52.5t-115 88t-79.5 117.5t-49.5 149.5t-25.5 175.5t-7 203.5zM475 1618l72 225h440l-123 -225h-389zM518 768q0 -168 13 -249t44 -111.5t95 -30.5t94.5 30.5t43.5 111t13 249.5t-13 249.5t-43.5 111t-94.5 30.5t-95 -30.5t-44 -111.5t-13 -249z" />
<glyph unicode="&#xd4;" horiz-adv-x="1339" d="M35 768q0 114 7 203.5t25.5 175.5t49.5 149.5t79.5 117.5t115 88t156 52.5t202.5 18.5t202.5 -18.5t156 -52.5t115 -88t79.5 -117.5t49.5 -149.5t25.5 -175.5t7 -203.5t-7 -203.5t-25.5 -175.5t-49.5 -149.5t-79.5 -117.5t-115 -88t-156 -52.5t-202.5 -18.5t-202.5 18.5 t-156 52.5t-115 88t-79.5 117.5t-49.5 149.5t-25.5 175.5t-7 203.5zM188 1618l256 225h451l256 -225h-369l-112 63l-113 -63h-369zM518 768q0 -168 13 -249t44 -111.5t95 -30.5t94.5 30.5t43.5 111t13 249.5t-13 249.5t-43.5 111t-94.5 30.5t-95 -30.5t-44 -111.5t-13 -249z " />
<glyph unicode="&#xd5;" horiz-adv-x="1339" d="M35 768q0 114 7 203.5t25.5 175.5t49.5 149.5t79.5 117.5t115 88t156 52.5t202.5 18.5t202.5 -18.5t156 -52.5t115 -88t79.5 -117.5t49.5 -149.5t25.5 -175.5t7 -203.5t-7 -203.5t-25.5 -175.5t-49.5 -149.5t-79.5 -117.5t-115 -88t-156 -52.5t-202.5 -18.5t-202.5 18.5 t-156 52.5t-115 88t-79.5 117.5t-49.5 149.5t-25.5 175.5t-7 203.5zM203 1618q-7 67 8.5 115.5t41 73t68.5 38.5t73 16.5t71 2.5q91 0 210 -33t150 -33q37 0 50 10.5t10 34.5h252q5 -49 -1.5 -88t-20.5 -64t-38 -43.5t-46.5 -28t-54 -15t-53 -6.5t-49.5 -1q-91 0 -210 33 t-150 33q-37 0 -49.5 -10.5t-9.5 -34.5h-252zM518 768q0 -168 13 -249t44 -111.5t95 -30.5t94.5 30.5t43.5 111t13 249.5t-13 249.5t-43.5 111t-94.5 30.5t-95 -30.5t-44 -111.5t-13 -249z" />
<glyph unicode="&#xd6;" horiz-adv-x="1339" d="M35 768q0 114 7 203.5t25.5 175.5t49.5 149.5t79.5 117.5t115 88t156 52.5t202.5 18.5t202.5 -18.5t156 -52.5t115 -88t79.5 -117.5t49.5 -149.5t25.5 -175.5t7 -203.5t-7 -203.5t-25.5 -175.5t-49.5 -149.5t-79.5 -117.5t-115 -88t-156 -52.5t-202.5 -18.5t-202.5 18.5 t-156 52.5t-115 88t-79.5 117.5t-49.5 149.5t-25.5 175.5t-7 203.5zM156 1731q0 77 52.5 105t188.5 28q135 0 188.5 -28t53.5 -105q0 -78 -53.5 -106t-188.5 -28q-136 0 -188.5 28t-52.5 106zM518 768q0 -168 13 -249t44 -111.5t95 -30.5t94.5 30.5t43.5 111t13 249.5 t-13 249.5t-43.5 111t-94.5 30.5t-95 -30.5t-44 -111.5t-13 -249zM700 1731q0 77 53 105t189 28q135 0 188.5 -28t53.5 -105q0 -78 -53.5 -106t-188.5 -28q-136 0 -189 28t-53 106z" />
<glyph unicode="&#xd7;" d="M39 430l266 266l-266 267l309 311l266 -266l267 266l309 -311l-266 -267l266 -266l-309 -311l-267 266l-266 -266z" />
<glyph unicode="&#xd8;" horiz-adv-x="1339" d="M35 768q0 114 7 203.5t25.5 175.5t49.5 149.5t79.5 117.5t115 88t156 52.5t202.5 18.5q209 0 344 -66l18 29h211l-86 -139q83 -98 115.5 -252t32.5 -377q0 -114 -7 -203.5t-25.5 -175.5t-49.5 -149.5t-79.5 -117.5t-115 -88t-156 -52.5t-202.5 -18.5q-211 0 -346 66 l-17 -29h-211l84 139q-81 97 -113 250.5t-32 378.5zM518 692l258 424q-33 43 -106 43q-64 0 -95 -30.5t-44 -111.5t-13 -249v-76zM563 420q30 -43 107 -43q64 0 94.5 30.5t43.5 111t13 249.5v74z" />
<glyph unicode="&#xd9;" horiz-adv-x="1339" d="M49 512v1024h475v-981q0 -106 35 -142t111 -36t110.5 36t34.5 142v981h475v-1024q0 -125 -34.5 -222t-92 -157.5t-139 -99.5t-168 -54.5t-186.5 -15.5t-186.5 15.5t-168.5 54.5t-139.5 99.5t-92 157.5t-34.5 222zM352 1843h441l71 -225h-389z" />
<glyph unicode="&#xda;" horiz-adv-x="1339" d="M49 512v1024h475v-981q0 -106 35 -142t111 -36t110.5 36t34.5 142v981h475v-1024q0 -125 -34.5 -222t-92 -157.5t-139 -99.5t-168 -54.5t-186.5 -15.5t-186.5 15.5t-168.5 54.5t-139.5 99.5t-92 157.5t-34.5 222zM475 1618l72 225h440l-123 -225h-389z" />
<glyph unicode="&#xdb;" horiz-adv-x="1339" d="M49 512v1024h475v-981q0 -106 35 -142t111 -36t110.5 36t34.5 142v981h475v-1024q0 -125 -34.5 -222t-92 -157.5t-139 -99.5t-168 -54.5t-186.5 -15.5t-186.5 15.5t-168.5 54.5t-139.5 99.5t-92 157.5t-34.5 222zM188 1618l256 225h451l256 -225h-369l-112 63l-113 -63 h-369z" />
<glyph unicode="&#xdc;" horiz-adv-x="1339" d="M49 512v1024h475v-981q0 -106 35 -142t111 -36t110.5 36t34.5 142v981h475v-1024q0 -125 -34.5 -222t-92 -157.5t-139 -99.5t-168 -54.5t-186.5 -15.5t-186.5 15.5t-168.5 54.5t-139.5 99.5t-92 157.5t-34.5 222zM156 1731q0 77 52.5 105t188.5 28q135 0 188.5 -28 t53.5 -105q0 -78 -53.5 -106t-188.5 -28q-136 0 -188.5 28t-52.5 106zM700 1731q0 77 53 105t189 28q135 0 188.5 -28t53.5 -105q0 -78 -53.5 -106t-188.5 -28q-136 0 -189 28t-53 106z" />
<glyph unicode="&#xdd;" horiz-adv-x="1380" d="M-29 1536h525l194 -494l195 494h524l-481 -942v-594h-475v594zM496 1618l71 225h441l-123 -225h-389z" />
<glyph unicode="&#xde;" horiz-adv-x="1251" d="M59 0v1536h476v-246h96q130 0 233.5 -29t171.5 -77.5t113 -116t64.5 -142t19.5 -157.5t-19.5 -157.5t-64.5 -142t-113 -116t-171.5 -77.5t-233.5 -29h-96v-246h-476zM535 649h98q50 0 75 35.5t25 83.5t-25 83.5t-75 35.5h-98v-238z" />
<glyph unicode="&#xdf;" horiz-adv-x="1355" d="M49 0v1114q0 231 135 345t439 114q153 0 262 -29t173 -86.5t93 -135t29 -181.5q0 -63 -24.5 -119.5t-60 -96t-71 -72.5t-60 -61.5t-24.5 -50.5q0 -40 22 -59.5t97 -36.5q46 -10 75 -19t63.5 -24t54.5 -36.5t38.5 -52.5t26.5 -76t8 -103q0 -82 -23 -147t-72 -116.5 t-135 -79.5t-204 -28q-113 0 -188 19t-150 55l10 338q160 -74 264 -74q70 0 70 35q0 20 -12 27t-45 14q-162 36 -224.5 106.5t-62.5 223.5q0 52 13.5 95t35.5 72t48.5 54t53 45.5t48.5 40t35.5 44t13.5 52.5q0 25 -5 43.5t-19 37.5t-44.5 29.5t-75.5 10.5q-85 0 -114 -33.5 t-29 -87.5v-1110h-465z" />
<glyph unicode="&#xe0;" horiz-adv-x="1073" d="M27 297q0 92 22.5 153.5t74 99.5t123.5 56.5t183 26.5l178 12v35q0 28 -26.5 43.5t-98.5 15.5q-98 0 -201 -23t-182 -57l-10 326q79 31 215 53.5t268 22.5q140 0 232.5 -25t142.5 -77t69 -118t19 -163v-678h-334l-32 55q-118 -92 -301 -92q-176 0 -259 84.5t-83 249.5z M178 1536h410l102 -410h-307zM414 344q0 -47 25.5 -68.5t62.5 -21.5q65 0 104 35v168l-94 -11q-98 -11 -98 -102z" />
<glyph unicode="&#xe1;" horiz-adv-x="1073" d="M27 297q0 92 22.5 153.5t74 99.5t123.5 56.5t183 26.5l178 12v35q0 28 -26.5 43.5t-98.5 15.5q-98 0 -201 -23t-182 -57l-10 326q79 31 215 53.5t268 22.5q140 0 232.5 -25t142.5 -77t69 -118t19 -163v-678h-334l-32 55q-118 -92 -301 -92q-176 0 -259 84.5t-83 249.5z M383 1126l102 410h410l-205 -410h-307zM414 344q0 -47 25.5 -68.5t62.5 -21.5q65 0 104 35v168l-94 -11q-98 -11 -98 -102z" />
<glyph unicode="&#xe2;" horiz-adv-x="1073" d="M27 297q0 92 22.5 153.5t74 99.5t123.5 56.5t183 26.5l178 12v35q0 28 -26.5 43.5t-98.5 15.5q-98 0 -201 -23t-182 -57l-10 326q79 31 215 53.5t268 22.5q140 0 232.5 -25t142.5 -77t69 -118t19 -163v-678h-334l-32 55q-118 -92 -301 -92q-176 0 -259 84.5t-83 249.5z M76 1126l297 410h327l297 -410h-338l-122 125l-123 -125h-338zM414 344q0 -47 25.5 -68.5t62.5 -21.5q65 0 104 35v168l-94 -11q-98 -11 -98 -102z" />
<glyph unicode="&#xe3;" horiz-adv-x="1073" d="M27 297q0 92 22.5 153.5t74 99.5t123.5 56.5t183 26.5l178 12v35q0 28 -26.5 43.5t-98.5 15.5q-98 0 -201 -23t-182 -57l-10 326q79 31 215 53.5t268 22.5q140 0 232.5 -25t142.5 -77t69 -118t19 -163v-678h-334l-32 55q-118 -92 -301 -92q-176 0 -259 84.5t-83 249.5z M70 1126q-18 227 64.5 337t232.5 110q55 0 104 -20t78 -44.5t62 -44.5t59 -20q37 0 55.5 26t15.5 66h263q18 -226 -64.5 -336t-232.5 -110q-45 0 -85.5 13.5t-69 32t-53 37.5t-49.5 32.5t-47 13.5q-37 0 -55.5 -26.5t-15.5 -66.5h-262zM414 344q0 -47 25.5 -68.5t62.5 -21.5 q65 0 104 35v168l-94 -11q-98 -11 -98 -102z" />
<glyph unicode="&#xe4;" horiz-adv-x="1073" d="M23 1331q0 100 70.5 171t170.5 71t171 -71t71 -171t-71 -170.5t-171 -70.5t-170.5 70.5t-70.5 170.5zM27 297q0 92 22.5 153.5t74 99.5t123.5 56.5t183 26.5l178 12v35q0 28 -26.5 43.5t-98.5 15.5q-98 0 -201 -23t-182 -57l-10 326q79 31 215 53.5t268 22.5 q140 0 232.5 -25t142.5 -77t69 -118t19 -163v-678h-334l-32 55q-118 -92 -301 -92q-176 0 -259 84.5t-83 249.5zM414 344q0 -47 25.5 -68.5t62.5 -21.5q65 0 104 35v168l-94 -11q-98 -11 -98 -102zM567 1331q0 100 71 171t171 71t171 -71t71 -171t-71 -170.5t-171 -70.5 t-171 70.5t-71 170.5z" />
<glyph unicode="&#xe5;" horiz-adv-x="1073" d="M27 297q0 92 22.5 153.5t74 99.5t123.5 56.5t183 26.5l178 12v35q0 28 -26.5 43.5t-98.5 15.5q-98 0 -201 -23t-182 -57l-10 326q79 31 215 53.5t268 22.5q140 0 232.5 -25t142.5 -77t69 -118t19 -163v-678h-334l-32 55q-118 -92 -301 -92q-176 0 -259 84.5t-83 249.5z M276 1329q0 126 62 185t199 59q135 0 196.5 -58.5t63.5 -181.5q0 -126 -61.5 -184.5t-198.5 -58.5t-199 58t-62 181zM414 344q0 -47 25.5 -68.5t62.5 -21.5q65 0 104 35v168l-94 -11q-98 -11 -98 -102zM473 1331q0 -61 64 -61q63 0 63 61q0 62 -63 62q-29 0 -46.5 -15.5 t-17.5 -46.5z" />
<glyph unicode="&#xe6;" horiz-adv-x="1658" d="M27 297q0 92 22.5 153.5t74 99.5t123.5 56.5t183 26.5l178 12v35q0 28 -26.5 43.5t-98.5 15.5q-98 0 -201 -23t-182 -57l-10 326q79 31 215 53.5t268 22.5q166 0 281 -66q119 66 297 66q120 0 208.5 -27t141.5 -70.5t85 -111t43 -136t11 -157.5q0 -87 -8 -158h-602 q-2 -52 34 -83t134 -31q203 0 406 53l12 -303q-90 -38 -218.5 -56t-240.5 -18q-271 0 -403 105q-76 -52 -163.5 -78.5t-221.5 -26.5q-176 0 -259 84.5t-83 249.5zM414 344q0 -47 25.5 -68.5t62.5 -21.5q66 0 121 43q-18 70 -21 160l-90 -11q-98 -11 -98 -102zM1030 606h195 q5 73 -14 107.5t-72 34.5q-60 0 -86 -33t-23 -109z" />
<glyph unicode="&#xe7;" horiz-adv-x="854" d="M18 512q0 274 123.5 411.5t397.5 137.5q187 0 284 -33l-10 -369q-78 23 -156 23q-97 0 -136.5 -38t-39.5 -132t39.5 -132t136.5 -38q78 0 156 23l10 -369q-88 -30 -241 -33l4 -49q113 -27 170 -78t57 -133q0 -105 -89.5 -160t-246.5 -55q-139 0 -221 29v215 q15 -5 62.5 -11t84.5 -6q134 0 134 56q0 30 -38.5 48.5t-123.5 28.5l12 129q-193 34 -281 167.5t-88 367.5z" />
<glyph unicode="&#xe8;" horiz-adv-x="1075" d="M18 512q0 284 130 416.5t419 132.5q86 0 156.5 -14t121 -38t88.5 -60.5t61 -77.5t37.5 -94t20 -104.5t5.5 -113.5q0 -87 -8 -158h-603q-2 -52 34 -83t134 -31q203 0 406 53l12 -303q-90 -38 -218.5 -56t-240.5 -18q-157 0 -264 32.5t-171 102.5t-92 170t-28 244z M184 1536h410l102 -410h-307zM446 606h195q5 73 -14 107.5t-72 34.5q-60 0 -86 -33t-23 -109z" />
<glyph unicode="&#xe9;" horiz-adv-x="1075" d="M18 512q0 284 130 416.5t419 132.5q86 0 156.5 -14t121 -38t88.5 -60.5t61 -77.5t37.5 -94t20 -104.5t5.5 -113.5q0 -87 -8 -158h-603q-2 -52 34 -83t134 -31q203 0 406 53l12 -303q-90 -38 -218.5 -56t-240.5 -18q-157 0 -264 32.5t-171 102.5t-92 170t-28 244z M389 1126l103 410h409l-205 -410h-307zM446 606h195q5 73 -14 107.5t-72 34.5q-60 0 -86 -33t-23 -109z" />
<glyph unicode="&#xea;" horiz-adv-x="1075" d="M18 512q0 284 130 416.5t419 132.5q86 0 156.5 -14t121 -38t88.5 -60.5t61 -77.5t37.5 -94t20 -104.5t5.5 -113.5q0 -87 -8 -158h-603q-2 -52 34 -83t134 -31q203 0 406 53l12 -303q-90 -38 -218.5 -56t-240.5 -18q-157 0 -264 32.5t-171 102.5t-92 170t-28 244zM82 1126 l297 410h328l297 -410h-338l-123 125l-123 -125h-338zM446 606h195q5 73 -14 107.5t-72 34.5q-60 0 -86 -33t-23 -109z" />
<glyph unicode="&#xeb;" horiz-adv-x="1075" d="M18 512q0 284 130 416.5t419 132.5q86 0 156.5 -14t121 -38t88.5 -60.5t61 -77.5t37.5 -94t20 -104.5t5.5 -113.5q0 -87 -8 -158h-603q-2 -52 34 -83t134 -31q203 0 406 53l12 -303q-90 -38 -218.5 -56t-240.5 -18q-157 0 -264 32.5t-171 102.5t-92 170t-28 244zM29 1331 q0 100 70.5 171t170.5 71t171 -71t71 -171t-71 -170.5t-171 -70.5t-170.5 70.5t-70.5 170.5zM446 606h195q5 73 -14 107.5t-72 34.5q-60 0 -86 -33t-23 -109zM573 1331q0 100 71 171t171 71t171 -71t71 -171t-71 -170.5t-171 -70.5t-171 70.5t-71 170.5z" />
<glyph unicode="&#xec;" horiz-adv-x="602" d="M-80 1536h410l102 -410h-307zM43 274v750h471v-606q0 -62 78 -62v-356q-103 -23 -207 -23q-342 0 -342 297z" />
<glyph unicode="&#xed;" horiz-adv-x="602" d="M43 274v750h471v-606q0 -62 78 -62v-356q-103 -23 -207 -23q-342 0 -342 297zM125 1126l102 410h410l-205 -410h-307z" />
<glyph unicode="&#xee;" horiz-adv-x="602" d="M-182 1126l297 410h327l297 -410h-338l-122 125l-123 -125h-338zM43 274v750h471v-606q0 -62 78 -62v-356q-103 -23 -207 -23q-342 0 -342 297z" />
<glyph unicode="&#xef;" horiz-adv-x="602" d="M-236 1331q0 100 71 171t171 71t171 -71t71 -171t-71 -170.5t-171 -70.5t-171 70.5t-71 170.5zM43 274v750h471v-606q0 -62 78 -62v-356q-103 -23 -207 -23q-342 0 -342 297zM309 1331q0 100 71 171t171 71t171 -71t71 -171t-71 -170.5t-171 -70.5t-171 70.5t-71 170.5z " />
<glyph unicode="&#xf0;" horiz-adv-x="1105" d="M20 512q0 289 106 419t333 130q69 0 151 -14q-24 48 -57 98l-420 -101v277l209 49q-19 15 -39.5 30t-37 26.5t-39 25t-34 21t-34.5 20t-29.5 16t-29.5 15.5l-23 12h516q81 -48 121 -78l321 78v-276l-110 -27q161 -267 161 -721v-29q-3 -187 -56 -299.5t-168.5 -166.5 t-307.5 -54q-292 0 -412.5 127t-120.5 422zM471 512q0 -128 16 -166.5t66 -38.5q33 0 49.5 15.5t24.5 59t8 130.5t-8 130.5t-24.5 59t-49.5 15.5q-50 0 -66 -38.5t-16 -166.5z" />
<glyph unicode="&#xf1;" horiz-adv-x="1148" d="M43 0v1024h332l33 -55q152 92 333 92q93 0 160.5 -19.5t107.5 -51.5t63 -82t30.5 -101t7.5 -119v-688h-471v666q0 36 -41 36q-42 0 -84 -22v-680h-471zM100 1126q-18 227 64.5 337t232.5 110q55 0 104 -20t78 -44.5t62 -44.5t59 -20q37 0 56 26t16 66h262 q18 -226 -64.5 -336t-232.5 -110q-55 0 -104 20t-78 44.5t-62 44.5t-59 20q-37 0 -56 -26.5t-16 -66.5h-262z" />
<glyph unicode="&#xf2;" horiz-adv-x="1105" d="M20 512q0 295 120.5 422t412.5 127t412 -127t120 -422t-120 -422t-412 -127t-412.5 127t-120.5 422zM195 1536h409l103 -410h-308zM471 512q0 -128 16 -166.5t66 -38.5q33 0 49.5 15.5t24.5 59t8 130.5t-8 130.5t-24.5 59t-49.5 15.5q-50 0 -66 -38.5t-16 -166.5z" />
<glyph unicode="&#xf3;" horiz-adv-x="1105" d="M20 512q0 295 120.5 422t412.5 127t412 -127t120 -422t-120 -422t-412 -127t-412.5 127t-120.5 422zM399 1126l103 410h409l-204 -410h-308zM471 512q0 -128 16 -166.5t66 -38.5q33 0 49.5 15.5t24.5 59t8 130.5t-8 130.5t-24.5 59t-49.5 15.5q-50 0 -66 -38.5 t-16 -166.5z" />
<glyph unicode="&#xf4;" horiz-adv-x="1105" d="M20 512q0 295 120.5 422t412.5 127t412 -127t120 -422t-120 -422t-412 -127t-412.5 127t-120.5 422zM92 1126l297 410h328l297 -410h-338l-123 125l-123 -125h-338zM471 512q0 -128 16 -166.5t66 -38.5q33 0 49.5 15.5t24.5 59t8 130.5t-8 130.5t-24.5 59t-49.5 15.5 q-50 0 -66 -38.5t-16 -166.5z" />
<glyph unicode="&#xf5;" horiz-adv-x="1105" d="M20 512q0 295 120.5 422t412.5 127t412 -127t120 -422t-120 -422t-412 -127t-412.5 127t-120.5 422zM86 1126q-18 227 64.5 337t232.5 110q55 0 104 -20t78 -44.5t62 -44.5t59 -20q37 0 56 26t16 66h262q18 -226 -64.5 -336t-232.5 -110q-55 0 -104 20t-78 44.5t-62 44.5 t-59 20q-37 0 -56 -26.5t-16 -66.5h-262zM471 512q0 -128 16 -166.5t66 -38.5q33 0 49.5 15.5t24.5 59t8 130.5t-8 130.5t-24.5 59t-49.5 15.5q-50 0 -66 -38.5t-16 -166.5z" />
<glyph unicode="&#xf6;" horiz-adv-x="1105" d="M20 512q0 295 120.5 422t412.5 127t412 -127t120 -422t-120 -422t-412 -127t-412.5 127t-120.5 422zM39 1331q0 100 71 171t171 71t170.5 -71t70.5 -171t-70.5 -170.5t-170.5 -70.5t-171 70.5t-71 170.5zM471 512q0 -128 16 -166.5t66 -38.5q33 0 49.5 15.5t24.5 59 t8 130.5t-8 130.5t-24.5 59t-49.5 15.5q-50 0 -66 -38.5t-16 -166.5zM584 1331q0 100 70.5 171t170.5 71t171 -71t71 -171t-71 -170.5t-171 -70.5t-170.5 70.5t-70.5 170.5z" />
<glyph unicode="&#xf7;" d="M61 481v434h1106v-434h-1106zM373 205q0 100 70.5 170.5t170.5 70.5t171 -70.5t71 -170.5t-71 -171t-171 -71t-170.5 71t-70.5 171zM373 1192q0 100 70.5 171t170.5 71t171 -71t71 -171t-71 -171t-171 -71t-170.5 71t-70.5 171z" />
<glyph unicode="&#xf8;" horiz-adv-x="1105" d="M20 0l99 115q-99 124 -99 397q0 295 120.5 422t412.5 127q206 0 328 -64l22 27h182l-100 -115q100 -129 100 -397q0 -295 -120 -422t-412 -127q-209 0 -328 64l-22 -27h-183zM471 522l141 164q-16 31 -59 31q-50 0 -66 -37.5t-16 -157.5zM492 336q15 -29 61 -29 q47 0 64 37.5t18 157.5z" />
<glyph unicode="&#xf9;" horiz-adv-x="1148" d="M39 336v688h471v-666q0 -36 41 -36q42 0 84 22v680h471v-1024h-332l-33 55q-152 -92 -333 -92q-93 0 -160.5 19.5t-107.5 51.5t-63 82t-30.5 101t-7.5 119zM215 1536h410l102 -410h-307z" />
<glyph unicode="&#xfa;" horiz-adv-x="1148" d="M39 336v688h471v-666q0 -36 41 -36q42 0 84 22v680h471v-1024h-332l-33 55q-152 -92 -333 -92q-93 0 -160.5 19.5t-107.5 51.5t-63 82t-30.5 101t-7.5 119zM420 1126l102 410h410l-205 -410h-307z" />
<glyph unicode="&#xfb;" horiz-adv-x="1148" d="M39 336v688h471v-666q0 -36 41 -36q42 0 84 22v680h471v-1024h-332l-33 55q-152 -92 -333 -92q-93 0 -160.5 19.5t-107.5 51.5t-63 82t-30.5 101t-7.5 119zM113 1126l297 410h327l297 -410h-338l-123 125l-122 -125h-338z" />
<glyph unicode="&#xfc;" horiz-adv-x="1148" d="M39 336v688h471v-666q0 -36 41 -36q42 0 84 22v680h471v-1024h-332l-33 55q-152 -92 -333 -92q-93 0 -160.5 19.5t-107.5 51.5t-63 82t-30.5 101t-7.5 119zM59 1331q0 100 71 171t171 71t171 -71t71 -171t-71 -170.5t-171 -70.5t-171 70.5t-71 170.5zM604 1331 q0 100 71 171t171 71t170.5 -71t70.5 -171t-70.5 -170.5t-170.5 -70.5t-171 70.5t-71 170.5z" />
<glyph unicode="&#xfd;" horiz-adv-x="1155" d="M-20 1024h509l91 -578l102 578h494l-514 -1536h-547l211 475zM436 1126l103 410h409l-205 -410h-307z" />
<glyph unicode="&#xfe;" horiz-adv-x="1150" d="M43 -512v2048h471v-518q105 43 209 43q208 0 309 -125.5t101 -423.5t-101 -423.5t-309 -125.5q-101 0 -209 41v-516h-471zM514 324q33 -19 74 -19q46 0 64 42t18 165t-18 165t-64 42q-41 0 -74 -19v-376z" />
<glyph unicode="&#xff;" horiz-adv-x="1155" d="M-20 1024h509l91 -578l102 578h494l-514 -1536h-547l211 475zM59 1331q0 100 71 171t171 71t171 -71t71 -171t-71 -170.5t-171 -70.5t-171 70.5t-71 170.5zM604 1331q0 100 71 171t171 71t170.5 -71t70.5 -171t-70.5 -170.5t-170.5 -70.5t-171 70.5t-71 170.5z" />
<glyph unicode="&#x152;" horiz-adv-x="1927" d="M35 768q0 98 8.5 179.5t29 162t54.5 143.5t87 117t122.5 90t165.5 56t213 20h1161v-410h-610v-133h553v-409h-553v-174h610v-410h-1161q-117 0 -213 20t-165.5 56t-122.5 90t-87 117t-54.5 143.5t-29 162t-8.5 179.5zM520 768q0 -198 41 -278t158 -80h72v716h-72 q-117 0 -158 -80t-41 -278z" />
<glyph unicode="&#x153;" horiz-adv-x="1699" d="M20 512q0 295 120.5 422t412.5 127q184 0 315 -80q127 80 324 80q120 0 208.5 -27t141.5 -70.5t85 -111t43 -136t11 -157.5q0 -87 -8 -158h-602q-2 -52 34 -83t134 -31q203 0 406 53l12 -303q-90 -38 -218.5 -56t-240.5 -18q-194 0 -328 80q-131 -80 -317 -80 q-292 0 -412.5 127t-120.5 422zM471 512q0 -128 16 -166.5t66 -38.5q33 0 49.5 15.5t24.5 59t8 130.5t-8 130.5t-24.5 59t-49.5 15.5q-50 0 -66 -38.5t-16 -166.5zM1071 606h195q5 73 -14 107.5t-72 34.5q-60 0 -86 -33t-23 -109z" />
<glyph unicode="&#x178;" horiz-adv-x="1380" d="M-29 1536h525l194 -494l195 494h524l-481 -942v-594h-475v594zM176 1731q0 77 53 105t189 28q135 0 188 -28t53 -105q0 -78 -53 -106t-188 -28q-136 0 -189 28t-53 106zM721 1731q0 77 53 105t189 28q135 0 188 -28t53 -105q0 -78 -53 -106t-188 -28q-136 0 -189 28 t-53 106z" />
<glyph unicode="&#x2c6;" horiz-adv-x="1093" d="M86 1126l297 410h328l297 -410h-338l-123 125l-123 -125h-338z" />
<glyph unicode="&#x2dc;" horiz-adv-x="1093" d="M80 1126q-18 227 64.5 337t232.5 110q55 0 104 -20t78 -44.5t62 -44.5t59 -20q37 0 56 26t16 66h262q18 -226 -64.5 -336t-232.5 -110q-55 0 -104 20t-78 44.5t-62 44.5t-59 20q-37 0 -56 -26.5t-16 -66.5h-262z" />
<glyph unicode="&#x2000;" horiz-adv-x="983" />
<glyph unicode="&#x2001;" horiz-adv-x="1966" />
<glyph unicode="&#x2002;" horiz-adv-x="983" />
<glyph unicode="&#x2003;" horiz-adv-x="1966" />
<glyph unicode="&#x2004;" horiz-adv-x="655" />
<glyph unicode="&#x2005;" horiz-adv-x="491" />
<glyph unicode="&#x2006;" horiz-adv-x="327" />
<glyph unicode="&#x2007;" horiz-adv-x="327" />
<glyph unicode="&#x2008;" horiz-adv-x="245" />
<glyph unicode="&#x2009;" horiz-adv-x="393" />
<glyph unicode="&#x200a;" horiz-adv-x="109" />
<glyph unicode="&#x2010;" horiz-adv-x="704" d="M45 512v348h614v-348h-614z" />
<glyph unicode="&#x2011;" horiz-adv-x="704" d="M45 512v348h614v-348h-614z" />
<glyph unicode="&#x2012;" horiz-adv-x="704" d="M45 512v348h614v-348h-614z" />
<glyph unicode="&#x2013;" horiz-adv-x="1024" d="M45 512v348h934v-348h-934z" />
<glyph unicode="&#x2014;" horiz-adv-x="2048" d="M45 512v348h1958v-348h-1958z" />
<glyph unicode="&#x2018;" horiz-adv-x="520" d="M-61 1024l215 512h325l-59 -512h-481z" />
<glyph unicode="&#x2019;" horiz-adv-x="520" d="M41 1024l59 512h482l-215 -512h-326z" />
<glyph unicode="&#x201a;" horiz-adv-x="561" d="M41 -307l59 512h482l-215 -512h-326z" />
<glyph unicode="&#x201c;" horiz-adv-x="1052" d="M-61 1024l215 512h325l-59 -512h-481zM471 1024l215 512h326l-60 -512h-481z" />
<glyph unicode="&#x201d;" horiz-adv-x="1052" d="M41 1024l59 512h482l-215 -512h-326zM573 1024l60 512h481l-215 -512h-326z" />
<glyph unicode="&#x201e;" horiz-adv-x="1093" d="M41 -307l59 512h482l-215 -512h-326zM573 -307l60 512h481l-215 -512h-326z" />
<glyph unicode="&#x2022;" horiz-adv-x="724" d="M86 768q0 116 80 196t196 80t196.5 -80.5t80.5 -195.5t-80.5 -195.5t-196.5 -80.5t-196 80t-80 196z" />
<glyph unicode="&#x2026;" horiz-adv-x="3039" d="M356 205q0 100 71 170.5t171 70.5t171 -70.5t71 -170.5t-71 -171t-171 -71t-171 71t-71 171zM1278 205q0 100 71 170.5t171 70.5t170.5 -70.5t70.5 -170.5t-70.5 -171t-170.5 -71t-171 71t-71 171zM2200 205q0 100 70.5 170.5t170.5 70.5t171 -70.5t71 -170.5t-71 -171 t-171 -71t-170.5 71t-70.5 171z" />
<glyph unicode="&#x202f;" horiz-adv-x="393" />
<glyph unicode="&#x2039;" horiz-adv-x="530" d="M66 379v266l389 287v-307l-115 -113l115 -113v-307z" />
<glyph unicode="&#x203a;" horiz-adv-x="530" d="M76 92v307l114 113l-114 113v307l389 -287v-266z" />
<glyph unicode="&#x205f;" horiz-adv-x="491" />
<glyph unicode="&#x20ac;" d="M10 512v225h113v62h-113v225h133q51 276 220 412.5t462 136.5q230 0 394 -70l-11 -407q-169 51 -325 51q-167 0 -234 -123h422l-80 -225h-391v-62h369l-80 -225h-240q66 -123 234 -123q156 0 325 51l11 -407q-164 -70 -394 -70q-293 0 -462 136t-220 413h-133z" />
<glyph unicode="&#x2122;" horiz-adv-x="1417" d="M12 1352v184h527v-184h-150v-328h-227v328h-150zM590 1024v512h342l41 -281l41 281h340v-512h-221l14 291l-74 -291h-201l-75 291l16 -291h-223z" />
<glyph unicode="&#xe000;" horiz-adv-x="1024" d="M0 0v1024h1024v-1024h-1024z" />
<glyph unicode="&#xfb01;" horiz-adv-x="1456" d="M0 688v283l158 43v172q0 195 98 291t313 96q88 0 159 -9.5t98 -18.5l28 -9l-10 -352q-53 20 -129 20q-86 0 -86 -71v-109h213v-336h-213v-688h-471v688h-158zM891 1331q0 100 71 171t171 71t170.5 -71t70.5 -171t-70.5 -170.5t-170.5 -70.5t-171 70.5t-71 170.5zM897 274 v750h471v-606q0 -62 78 -62v-356q-103 -23 -207 -23q-342 0 -342 297z" />
<glyph unicode="&#xfb02;" horiz-adv-x="1456" d="M0 688v283l158 43v172q0 195 98 291t313 96q88 0 159 -9.5t98 -18.5l28 -9l-10 -352q-53 20 -129 20q-86 0 -86 -71v-109h213v-336h-213v-688h-471v688h-158zM897 274v1262h471v-1118q0 -62 78 -62v-356q-103 -23 -207 -23q-342 0 -342 297z" />
<glyph unicode="&#xfb03;" horiz-adv-x="2138" d="M0 688v283l158 43v76q0 111 37.5 197t99.5 139t150 87t180 47t200 13q206 0 357 -53q144 53 358 53q298 0 512 -68l-2 -362q-197 61 -428 61q-68 0 -118 -8t-78.5 -19.5t-45 -29.5t-21.5 -34t-5 -36v-53h696v-606q0 -62 78 -62v-356q-103 -23 -207 -23q-342 0 -342 297 v414h-225v-688h-471v688h-254v-688h-471v688h-158zM629 1024h254v66q0 54 10 116q-8 0 -24 1t-23 1q-120 0 -168.5 -29t-48.5 -83v-72z" />
<glyph unicode="&#xfb04;" horiz-adv-x="2158" d="M0 688v283l158 43v76q0 111 37.5 197t99.5 139t150 87t180 47t200 13q213 0 361 -55q154 55 364 55q307 0 521 -68v-1087q0 -62 77 -62v-356q-102 -23 -206 -23q-343 0 -343 297v934h-28q-120 0 -168.5 -29t-48.5 -83v-72h213v-336h-213v-688h-471v688h-254v-688h-471 v688h-158zM629 1024h254v66q0 54 10 116q-8 0 -24 1t-23 1q-120 0 -168.5 -29t-48.5 -83v-72z" />
</font>
</defs>
</svg>
