<svg viewBox="0 0 68 85" version="1.1" xmlns="http://www.w3.org/2000/svg"><title>Group</title><g id="Symbols" stroke="none" stroke-width="1" fill="none" fill-rule="evenodd"><rect id="Rectangle-path" fill="#FFF" x="0" y="1" width="68" height="84" rx="2"/><path d="M6 62v-2h56v2H6zm0-14h56v2H6v-2zm24-31h32v27H30V17zM6 42h20v2H6v-2zm0-12h20v2H6v-2zm0-12h20v2H6v-2zm18 8H6v-2h18v2zm0 12H6v-2h18v2zm34 18H6v-2h52v2zm0 12H6v-2h52v2z" id="Shape" fill="#B2B2B1"/><path d="M2 .5h64c1.105 0 2 .894 2 2v80c0 1.104-.895 2-2 2H2c-1.105 0-2-.896-2-2v-80c0-1.106.895-2 2-2zm2 4h60v76H4v-76z" id="Shape-Copy" fill="#8B8B8B"/></g></svg>