<svg width="68" height="84" viewBox="0 0 68 84" version="1.1" xmlns="http://www.w3.org/2000/svg"><title>Group</title><g id="Symbols" stroke="none" stroke-width="1" fill="none" fill-rule="evenodd"><rect id="Rectangle-path" fill="#FFF" x="1" y="1" width="66" height="82" rx="2"/><path d="M2 0h64c1.105 0 2 .895 2 2v80c0 1.105-.895 2-2 2H2c-1.105 0-2-.895-2-2V2C0 .895.895 0 2 0zm2 4h60v76H4V4z" id="Shape" fill="#8B8B8B"/><path d="M10 66v-2h48v2H10zm0-14h48v2H10v-2zm44 8H10v-2h44v2zM46 27l-7-2 2.674-1.96C38.61 18.07 33 18 33 18c-7.64 0-9 8-9 8h-5c2.5-12.44 14-12 14-12 8.724-.14 12.783 7.48 12.783 7.48L49 21l-3 6zm-18 6l-2.674 1.96C28.39 39.93 34 40 34 40c7.64 0 9-8 9-8h5c-2.5 12.44-14 12-14 12-8.724.14-12.783-7.48-12.783-7.48L18 37l3-6 7 2z" id="Shape" fill="#B2B2B1"/></g></svg>